<svg xmlns="http://www.w3.org/2000/svg" xmlns:xlink="http://www.w3.org/1999/xlink" width="101" height="85" viewBox="0 0 101 85">
  <defs>
    <clipPath id="clip-path">
      <rect id="Rectángulo_356076" data-name="Rectángulo 356076" width="101" height="85" transform="translate(32 546.129)" fill="#fff" stroke="#707070" stroke-width="1" opacity="0.49"/>
    </clipPath>
    <clipPath id="clip-path-2">
      <rect id="Rectángulo_356075" data-name="Rectángulo 356075" width="112.317" height="108.753" fill="none"/>
    </clipPath>
    <clipPath id="clip-path-4">
      <rect id="Rectángulo_356069" data-name="Rectángulo 356069" width="15.004" height="15.696" fill="none"/>
    </clipPath>
    <clipPath id="clip-path-5">
      <rect id="Rectángulo_356070" data-name="Rectángulo 356070" width="28.168" height="17.652" fill="#f2472c"/>
    </clipPath>
    <clipPath id="clip-path-6">
      <rect id="Rectángulo_356071" data-name="Rectángulo 356071" width="8.869" height="11.322" fill="#f2472c"/>
    </clipPath>
    <clipPath id="clip-path-7">
      <path id="Trazado_771613" data-name="Trazado 771613" d="M0,0,2.036,16.953l9.807-13Z" fill="#f63422"/>
    </clipPath>
    <clipPath id="clip-path-8">
      <path id="Trazado_771614" data-name="Trazado 771614" d="M0,10.617l17-.06L19.286,0Z" fill="#f63422"/>
    </clipPath>
  </defs>
  <g id="Enmascarar_grupo_628" data-name="Enmascarar grupo 628" transform="translate(-32 -546.129)" clip-path="url(#clip-path)">
    <g id="Grupo_1044739" data-name="Grupo 1044739" transform="translate(31.881 522.573)">
      <g id="Grupo_1044738" data-name="Grupo 1044738" clip-path="url(#clip-path-2)">
        <g id="Grupo_1044733" data-name="Grupo 1044733" transform="translate(0 0)">
          <g id="Grupo_1044732" data-name="Grupo 1044732" clip-path="url(#clip-path-2)">
            <path id="Trazado_771601" data-name="Trazado 771601" d="M29.8,109.677h0a6.438,6.438,0,0,1-8.36-3.6L14.917,89.661,26.878,84.9l6.527,16.413a6.436,6.436,0,0,1-3.6,8.36" transform="translate(-0.243 -1.381)" fill="#8f191e"/>
            <g id="Grupo_1044725" data-name="Grupo 1044725" transform="translate(14.674 83.524)" opacity="0.4" style="mix-blend-mode: multiply;isolation: isolate">
              <g id="Grupo_1044724" data-name="Grupo 1044724">
                <g id="Grupo_1044723" data-name="Grupo 1044723" clip-path="url(#clip-path-4)">
                  <path id="Trazado_771602" data-name="Trazado 771602" d="M29.92,92.555,19.266,100.6l-4.35-10.939L26.878,84.9Z" transform="translate(-14.916 -84.904)" fill="#d30040"/>
                </g>
              </g>
            </g>
            <path id="Trazado_771603" data-name="Trazado 771603" d="M29.116,88.54,18.262,92.857A13.332,13.332,0,1,1,8.408,68.082l10.854-4.317Z" transform="translate(0 -1.037)" fill="#f2472c"/>
            <g id="Grupo_1044728" data-name="Grupo 1044728" transform="translate(0.947 75.116)" opacity="0.7" style="mix-blend-mode: multiply;isolation: isolate">
              <g id="Grupo_1044727" data-name="Grupo 1044727">
                <g id="Grupo_1044726" data-name="Grupo 1044726" clip-path="url(#clip-path-5)">
                  <path id="Trazado_771604" data-name="Trazado 771604" d="M.963,85.6h0a13.331,13.331,0,0,0,17.315,7.461l10.854-4.317L24.2,76.359Z" transform="translate(-0.963 -76.358)" fill="#f2472c"/>
                </g>
              </g>
            </g>
            <path id="Trazado_771605" data-name="Trazado 771605" d="M29.44,74.192c2.718,6.833,2.7,13.257-.041,14.347s-7.165-3.566-9.883-10.4-2.7-13.256.04-14.346,7.166,3.566,9.884,10.4" transform="translate(-0.284 -1.035)" fill="#b9001f"/>
            <path id="Trazado_771606" data-name="Trazado 771606" d="M21.389,63.735c-2.529,1.006-2.547,6.934-.037,13.242s6.593,10.606,9.122,9.6c.113-.045,19.433-6.609,35.175,3.1L44.829,37.326C40.053,55.193,21.5,63.69,21.389,63.735" transform="translate(-0.317 -0.607)" fill="#dae5ec"/>
            <path id="Trazado_771607" data-name="Trazado 771607" d="M21.382,77.41c2.509,6.308,6.593,10.6,9.122,9.6.113-.045,19.433-6.61,35.175,3.1L55.269,63.932Z" transform="translate(-0.348 -1.04)" fill="#c0cbcd"/>
            <path id="Trazado_771608" data-name="Trazado 771608" d="M75.2,55.584c6.913,17.38,6.866,33.717-.1,36.489S56.872,83,49.959,65.623s-6.866-33.717.1-36.489S68.288,38.2,75.2,55.584" transform="translate(-0.729 -0.467)" fill="#f2472c"/>
            <path id="Trazado_771609" data-name="Trazado 771609" d="M70.9,57.435c5.5,13.839,6.277,26.526,1.727,28.335s-12.7-7.942-18.206-21.781-6.277-26.525-1.727-28.335S65.4,43.6,70.9,57.435" transform="translate(-0.809 -0.576)" fill="#dae5ec"/>
            <path id="Trazado_771610" data-name="Trazado 771610" d="M50.717,37.743c-2.127,4.478-.785,15,3.7,26.285S65.16,83.882,69.782,85.676c2.126-4.478.785-15-3.7-26.285S55.337,39.537,50.717,37.743" transform="translate(-0.809 -0.614)" fill="#c0cbcd"/>
            <path id="Trazado_771611" data-name="Trazado 771611" d="M62.691,61.039a8.867,8.867,0,0,0-11.056-5.13A80.347,80.347,0,0,0,58.179,72.36a8.866,8.866,0,0,0,4.512-11.322" transform="translate(-0.84 -0.902)" fill="#ff674f"/>
            <g id="Grupo_1044731" data-name="Grupo 1044731" transform="translate(53.612 60.137)" opacity="0.7" style="mix-blend-mode: multiply;isolation: isolate">
              <g id="Grupo_1044730" data-name="Grupo 1044730">
                <g id="Grupo_1044729" data-name="Grupo 1044729" clip-path="url(#clip-path-6)">
                  <path id="Trazado_771612" data-name="Trazado 771612" d="M54.5,64.408a78.347,78.347,0,0,0,3.726,8.045,8.866,8.866,0,0,0,4.512-11.322Z" transform="translate(-54.498 -61.131)" fill="#f2472c"/>
                </g>
              </g>
            </g>
          </g>
        </g>
        <g id="Grupo_1044737" data-name="Grupo 1044737" transform="matrix(0.966, 0.259, -0.259, 0.966, 76.456, 31.936)">
          <g id="Grupo_1044734" data-name="Grupo 1044734" transform="translate(0 0)" clip-path="url(#clip-path-7)">
            <rect id="Rectángulo_356073" data-name="Rectángulo 356073" width="20.363" height="20.362" transform="matrix(0.707, -0.707, 0.707, 0.707, -8.477, 8.477)" fill="#f63422"/>
          </g>
          <g id="Grupo_1044736" data-name="Grupo 1044736" transform="translate(4.597 10.242)">
            <g id="Grupo_1044735" data-name="Grupo 1044735" transform="translate(0)" clip-path="url(#clip-path-8)">
              <rect id="Rectángulo_356074" data-name="Rectángulo 356074" width="24.881" height="24.881" transform="matrix(0.707, -0.707, 0.707, 0.707, -4.996, 5.621)" fill="#f63422"/>
            </g>
          </g>
        </g>
      </g>
    </g>
  </g>
</svg>
