<svg id="Grupo_1048895" data-name="Grupo 1048895" xmlns="http://www.w3.org/2000/svg" xmlns:xlink="http://www.w3.org/1999/xlink" width="279.46" height="178.689" viewBox="0 0 279.46 178.689">
  <defs>
    <clipPath id="clip-path">
      <rect id="Rectángulo_359718" data-name="Rectángulo 359718" width="279.46" height="178.689" fill="none"/>
    </clipPath>
    <clipPath id="clip-path-3">
      <rect id="Rectángulo_359711" data-name="Rectángulo 359711" width="24.611" height="9.466" fill="none"/>
    </clipPath>
    <clipPath id="clip-path-4">
      <rect id="Rectángulo_359712" data-name="Rectángulo 359712" width="56.418" height="29.766" fill="none"/>
    </clipPath>
  </defs>
  <g id="Grupo_1048903" data-name="Grupo 1048903" clip-path="url(#clip-path)">
    <g id="Grupo_1048902" data-name="Grupo 1048902" transform="translate(0 0)">
      <g id="Grupo_1048901" data-name="Grupo 1048901" clip-path="url(#clip-path)">
        <path id="Trazado_782501" data-name="Trazado 782501" d="M482.47,2378.733h0a.912.912,0,0,1,.147-1.27.891.891,0,0,1,1.267.052h0a.91.91,0,0,1-.146,1.27.9.9,0,0,1-1.226-.011c-.013-.013-.026-.027-.04-.043" transform="translate(-451.214 -2224.118)" fill="#ffa383"/>
        <path id="Trazado_782502" data-name="Trazado 782502" d="M410.834,2285.5a.926.926,0,0,1,.257-1.261.878.878,0,0,1,1.248.163.928.928,0,0,1-.256,1.262.89.89,0,0,1-1.163-.061.863.863,0,0,1-.086-.1" transform="translate(-384.235 -2136.947)" fill="#ffa383"/>
        <path id="Trazado_782503" data-name="Trazado 782503" d="M348.108,2185.748a.94.94,0,0,1,.364-1.242.866.866,0,0,1,1.222.274.939.939,0,0,1-.366,1.242.88.88,0,0,1-1.094-.106.794.794,0,0,1-.126-.168" transform="translate(-325.586 -2043.679)" fill="#ffa383"/>
        <path id="Trazado_782504" data-name="Trazado 782504" d="M294.944,2080.159a.951.951,0,0,1,.473-1.212.853.853,0,0,1,1.184.384.952.952,0,0,1-.473,1.212.875.875,0,0,1-1.024-.146.831.831,0,0,1-.16-.238" transform="translate(-275.88 -1944.957)" fill="#ffa383"/>
        <path id="Trazado_782505" data-name="Trazado 782505" d="M251.968,1969.467a.963.963,0,0,1,.581-1.172.842.842,0,0,1,1.134.494.963.963,0,0,1-.579,1.172.867.867,0,0,1-.946-.183.815.815,0,0,1-.19-.312" transform="translate(-235.699 -1841.464)" fill="#ffa383"/>
        <path id="Trazado_782506" data-name="Trazado 782506" d="M219.767,1854.524a.974.974,0,0,1,.685-1.122.835.835,0,0,1,1.075.6.972.972,0,0,1-.684,1.12.856.856,0,0,1-.865-.211.826.826,0,0,1-.212-.39" transform="translate(-205.593 -1733.998)" fill="#ffa383"/>
        <path id="Trazado_782507" data-name="Trazado 782507" d="M198.907,1736.245a.98.98,0,0,1,.785-1.058.828.828,0,0,1,1,.707.978.978,0,0,1-.785,1.058.847.847,0,0,1-.778-.232.819.819,0,0,1-.226-.475" transform="translate(-186.09 -1623.416)" fill="#ffa383"/>
        <path id="Trazado_782508" data-name="Trazado 782508" d="M189.909,1615.646a.982.982,0,0,1,.88-.982.825.825,0,0,1,.922.809.984.984,0,0,1-.88.982.844.844,0,0,1-.688-.244.828.828,0,0,1-.234-.565" transform="translate(-177.678 -1510.667)" fill="#ffa383"/>
        <path id="Trazado_782509" data-name="Trazado 782509" d="M193.291,1493.834a.981.981,0,0,1,.97-.893.823.823,0,0,1,.826.905.981.981,0,0,1-.97.893.827.827,0,0,1-.595-.248.835.835,0,0,1-.231-.657" transform="translate(-180.84 -1396.788)" fill="#ffa383"/>
        <path id="Trazado_782510" data-name="Trazado 782510" d="M209.479,1372.109a.98.98,0,0,1,1.052-.791.828.828,0,0,1,.719,1,.98.98,0,0,1-1.052.791.827.827,0,0,1-.5-.241.848.848,0,0,1-.218-.756" transform="translate(-195.973 -1282.992)" fill="#ffa383"/>
        <path id="Trazado_782511" data-name="Trazado 782511" d="M238.83,1251.951h0a.972.972,0,0,1,1.125-.675.834.834,0,0,1,.6,1.078.973.973,0,0,1-1.128.675.817.817,0,0,1-.4-.224.855.855,0,0,1-.194-.854" transform="translate(-223.41 -1170.665)" fill="#ffa383"/>
        <path id="Trazado_782512" data-name="Trazado 782512" d="M281.469,1134.949a.962.962,0,0,1,1.188-.545.844.844,0,0,1,.46,1.149.96.96,0,0,1-1.188.545.815.815,0,0,1-.3-.195.866.866,0,0,1-.157-.955" transform="translate(-263.269 -1061.294)" fill="#ffa383"/>
        <path id="Trazado_782513" data-name="Trazado 782513" d="M337.3,1022.841a.95.95,0,0,1,1.236-.4.858.858,0,0,1,.314,1.206.945.945,0,0,1-1.233.4.8.8,0,0,1-.21-.154.877.877,0,0,1-.107-1.052" transform="translate(-315.456 -956.499)" fill="#ffa383"/>
        <path id="Trazado_782514" data-name="Trazado 782514" d="M405.889,917.289a.928.928,0,0,1,1.263-.252.872.872,0,0,1,.162,1.247.881.881,0,0,1-1.38.154.888.888,0,0,1-.044-1.148" transform="translate(-379.572 -857.834)" fill="#ffa383"/>
        <path id="Trazado_782515" data-name="Trazado 782515" d="M486.331,820.022a.908.908,0,0,1,1.275-.1.893.893,0,0,1,.005,1.268.913.913,0,0,1-1.275.1l-.032-.033a.9.9,0,0,1,.027-1.235" transform="translate(-454.764 -766.912)" fill="#ffa383"/>
        <path id="Trazado_782516" data-name="Trazado 782516" d="M577.25,733.712a.912.912,0,0,1,.149-1.27.89.89,0,0,1,1.265.056.912.912,0,0,1-.149,1.27.9.9,0,0,1-1.226-.011c-.013-.013-.026-.029-.039-.045" transform="translate(-539.891 -685.047)" fill="#ffa383"/>
        <path id="Trazado_782517" data-name="Trazado 782517" d="M677.437,657.12a.93.93,0,0,1,.3-1.253.871.871,0,0,1,1.238.213.931.931,0,0,1-.3,1.253.885.885,0,0,1-1.133-.081.8.8,0,0,1-.1-.131" transform="translate(-633.683 -613.47)" fill="#ffa383"/>
        <path id="Trazado_782518" data-name="Trazado 782518" d="M785.4,592.708a.949.949,0,0,1,.453-1.219.855.855,0,0,1,1.191.364.948.948,0,0,1-.453,1.219.873.873,0,0,1-1.037-.14.79.79,0,0,1-.154-.224" transform="translate(-734.739 -553.293)" fill="#ffa383"/>
        <path id="Trazado_782519" data-name="Trazado 782519" d="M899.421,541.267a.965.965,0,0,1,.591-1.167.844.844,0,0,1,1.13.507.967.967,0,0,1-.592,1.168h0a.864.864,0,0,1-.935-.186.808.808,0,0,1-.192-.321" transform="translate(-841.454 -505.256)" fill="#ffa383"/>
        <path id="Trazado_782520" data-name="Trazado 782520" d="M1017.74,503.16a.976.976,0,0,1,.719-1.1.831.831,0,0,1,1.052.639.973.973,0,0,1-.717,1.1.858.858,0,0,1-.836-.219.81.81,0,0,1-.217-.418" transform="translate(-952.177 -469.694)" fill="#ffa383"/>
        <path id="Trazado_782521" data-name="Trazado 782521" d="M1138.656,478.415a.979.979,0,0,1,.831-1.022.824.824,0,0,1,.965.756.982.982,0,0,1-.83,1.023.848.848,0,0,1-.736-.24.823.823,0,0,1-.23-.517" transform="translate(-1065.318 -446.636)" fill="#ffa383"/>
        <path id="Trazado_782522" data-name="Trazado 782522" d="M1260.653,466.782a.983.983,0,0,1,.929-.937.826.826,0,0,1,.873.861.985.985,0,0,1-.93.936.823.823,0,0,1-.872-.86" transform="translate(-1179.46 -435.842)" fill="#ffa383"/>
        <path id="Trazado_782523" data-name="Trazado 782523" d="M1382.276,467.894a.982.982,0,0,1,1.013-.843.825.825,0,0,1,.773.952.98.98,0,0,1-1.013.843.828.828,0,0,1-.547-.245.842.842,0,0,1-.225-.707" transform="translate(-1293.242 -436.969)" fill="#ffa383"/>
        <path id="Trazado_782524" data-name="Trazado 782524" d="M1502.279,481.3a.977.977,0,0,1,1.083-.744.83.83,0,0,1,.67,1.031.979.979,0,0,1-1.086.745.82.82,0,0,1-.458-.236.845.845,0,0,1-.21-.8" transform="translate(-1405.5 -449.594)" fill="#ffa383"/>
        <path id="Trazado_782525" data-name="Trazado 782525" d="M1619.544,506.411a.969.969,0,0,1,1.143-.642.836.836,0,0,1,.562,1.1.972.972,0,0,1-1.146.642.819.819,0,0,1-.374-.218.856.856,0,0,1-.186-.88" transform="translate(-1515.19 -473.167)" fill="#ffa383"/>
        <path id="Trazado_782526" data-name="Trazado 782526" d="M1733.085,542.706a.961.961,0,0,1,1.192-.536.843.843,0,0,1,.452,1.153.962.962,0,0,1-1.192.536.814.814,0,0,1-.3-.193.869.869,0,0,1-.155-.96" transform="translate(-1621.391 -507.199)" fill="#ffa383"/>
        <path id="Trazado_782527" data-name="Trazado 782527" d="M1842.011,589.578a.95.95,0,0,1,1.228-.429.854.854,0,0,1,.341,1.2.949.949,0,0,1-1.228.429.811.811,0,0,1-.224-.162.875.875,0,0,1-.117-1.035" transform="translate(-1723.266 -551.124)" fill="#ffa383"/>
        <path id="Trazado_782528" data-name="Trazado 782528" d="M1945.517,646.435a.937.937,0,0,1,1.254-.32.865.865,0,0,1,.23,1.231.937.937,0,0,1-1.253.32.8.8,0,0,1-.156-.125.884.884,0,0,1-.074-1.106" transform="translate(-1820.067 -604.385)" fill="#ffa383"/>
        <path id="Trazado_782529" data-name="Trazado 782529" d="M2042.854,712.632a.924.924,0,0,1,1.268-.211.88.88,0,0,1,.119,1.256.924.924,0,0,1-1.269.21.757.757,0,0,1-.093-.081.891.891,0,0,1-.025-1.174" transform="translate(-1911.088 -666.382)" fill="#ffa383"/>
        <path id="Trazado_782530" data-name="Trazado 782530" d="M2133.408,787.486a.911.911,0,0,1,1.275-.1.894.894,0,0,1,.008,1.269.911.911,0,0,1-1.274.1.469.469,0,0,1-.035-.034.9.9,0,0,1,.026-1.234" transform="translate(-1995.762 -736.472)" fill="#ffa383"/>
        <path id="Trazado_782531" data-name="Trazado 782531" d="M2063.118,12.159h0a6.078,6.078,0,0,1-6.078-6.078h0a6.078,6.078,0,0,1,12.156,0h0a6.078,6.078,0,0,1-6.078,6.078" transform="translate(-1924.555 -0.003)" fill="#fddab9"/>
        <path id="Trazado_782532" data-name="Trazado 782532" d="M2063.118,342.761h0a6.078,6.078,0,0,1-6.078-6.078h0a6.078,6.078,0,0,1,12.156,0h0a6.078,6.078,0,0,1-6.078,6.078" transform="translate(-1924.555 -309.312)" fill="#fddab9"/>
        <path id="Trazado_782533" data-name="Trazado 782533" d="M2063.118,673.848h0a6.078,6.078,0,1,1,6.078-6.078,6.078,6.078,0,0,1-6.078,6.078" transform="translate(-1924.555 -619.076)" fill="#fddab9"/>
        <path id="Trazado_782534" data-name="Trazado 782534" d="M2047.4.312l-7,7a1.055,1.055,0,0,1-1.493,0L2034.4,2.8a1.055,1.055,0,1,0-1.493,1.493l5.255,5.255.746.746a1.056,1.056,0,0,0,1.493,0l.746-.746,7.742-7.742A1.055,1.055,0,0,0,2047.4.312" transform="translate(-1901.689 -0.003)" fill="#ff895e"/>
        <path id="Trazado_782535" data-name="Trazado 782535" d="M2047.4,331.156l-7,7a1.055,1.055,0,0,1-1.493,0l-4.508-4.508a1.055,1.055,0,0,0-1.493,1.493l5.255,5.255.746.746a1.056,1.056,0,0,0,1.493,0l.746-.746,7.742-7.742a1.055,1.055,0,0,0-1.492-1.493" transform="translate(-1901.689 -309.539)" fill="#ff895e"/>
        <path id="Trazado_782536" data-name="Trazado 782536" d="M2047.4,662l-7,7a1.056,1.056,0,0,1-1.493,0l-4.508-4.509a1.055,1.055,0,0,0-1.493,1.493l5.255,5.255.746.746a1.056,1.056,0,0,0,1.493,0l.746-.746,7.742-7.742A1.055,1.055,0,0,0,2047.4,662" transform="translate(-1901.689 -619.075)" fill="#ff895e"/>
        <g id="Grupo_1048904" data-name="Grupo 1048904" transform="translate(-58.202)">
          <path id="Trazado_782537" data-name="Trazado 782537" d="M1081.613,36h31.916a3.478,3.478,0,0,0,3.478-3.478V3.481A3.478,3.478,0,0,0,1113.529,0h-31.916a3.478,3.478,0,0,0-3.478,3.478V32.52A3.478,3.478,0,0,0,1081.613,36" transform="translate(-1008.697 -0.003)" fill="#edb248"/>
          <path id="Trazado_782538" data-name="Trazado 782538" d="M1182.751,69.628a14.566,14.566,0,1,1-12.657-16.252,14.566,14.566,0,0,1,12.657,16.252" transform="translate(-1079.423 -49.833)" fill="#fff"/>
          <path id="Trazado_782539" data-name="Trazado 782539" d="M1189.509,67.853,1176.4,61.5a14.566,14.566,0,0,1,15.839-7.954Z" transform="translate(-1100.635 -49.855)" fill="#f3d59d"/>
          <path id="Trazado_782540" data-name="Trazado 782540" d="M1379.912,71.481l2.686-14.316a14.566,14.566,0,0,1,9.822,6.851Z" transform="translate(-1291.038 -53.483)" fill="#eabd6d"/>
          <path id="Trazado_782541" data-name="Trazado 782541" d="M1379.912,171l12.507-7.465a14.568,14.568,0,0,1,1.592,11.122Z" transform="translate(-1291.038 -153.002)" fill="#daa036"/>
        </g>
        <path id="Trazado_782542" data-name="Trazado 782542" d="M2483.935,78.816a2.007,2.007,0,1,1,0-4.014H2525a2.007,2.007,0,1,1,0,4.014Z" transform="translate(-2322.078 -69.985)" fill="#edb248"/>
        <path id="Trazado_782543" data-name="Trazado 782543" d="M2483.935,336.641a2.007,2.007,0,1,1,0-4.014h53.026a2.007,2.007,0,0,1,0,4.014Z" transform="translate(-2322.078 -311.204)" fill="#edb248"/>
        <path id="Trazado_782544" data-name="Trazado 782544" d="M3261.787,78.816a2.007,2.007,0,0,1,0-4.014h24.177a2.007,2.007,0,0,1,0,4.014Z" transform="translate(-3049.833 -69.985)" fill="#edb248"/>
        <path id="Trazado_782545" data-name="Trazado 782545" d="M2483.935,465.675a2.007,2.007,0,1,1,0-4.014h24.177a2.007,2.007,0,0,1,0,4.014Z" transform="translate(-2322.078 -431.928)" fill="#edb248"/>
        <path id="Trazado_782546" data-name="Trazado 782546" d="M2999.59,716.83a2.007,2.007,0,1,1,0-4.014h41.064a2.007,2.007,0,0,1,0,4.014Z" transform="translate(-2804.522 -666.907)" fill="#edb248"/>
        <path id="Trazado_782547" data-name="Trazado 782547" d="M2483.935,716.83a2.007,2.007,0,1,1,0-4.014h24.177a2.007,2.007,0,0,1,0,4.014Z" transform="translate(-2322.078 -666.907)" fill="#edb248"/>
        <path id="Trazado_782548" data-name="Trazado 782548" d="M1390.467,2401.942a.2.2,0,1,1,.364-.159,197.416,197.416,0,0,1,8.4,22.615h-.416a197.24,197.24,0,0,0-8.353-22.456" transform="translate(-1300.898 -2246.984)" fill="#8dc7a3"/>
        <path id="Trazado_782549" data-name="Trazado 782549" d="M1459.392,2411.339a17.13,17.13,0,0,0,4.176-7.323,3.973,3.973,0,0,0,.076-2.034,1.832,1.832,0,0,0-1.394-1.359,1.859,1.859,0,0,0-1.629.725,4.52,4.52,0,0,0-.779,1.678,19.316,19.316,0,0,0-.573,7.315c.032.3.061.7.122,1" transform="translate(-1365.175 -2245.997)" fill="#8dc7a3"/>
        <path id="Trazado_782550" data-name="Trazado 782550" d="M1456.291,2408.5c-.049-.242-.078-.541-.1-.8-.007-.074-.014-.145-.021-.212a19.4,19.4,0,0,1,.58-7.391,4.694,4.694,0,0,1,.817-1.75,2.046,2.046,0,0,1,1.81-.8,2.026,2.026,0,0,1,1.556,1.5,4.231,4.231,0,0,1-.075,2.136,17.258,17.258,0,0,1-4.226,7.413.2.2,0,0,1-.2.052.192.192,0,0,1-.066-.034.2.2,0,0,1-.073-.117m3.025-10.559a1.668,1.668,0,0,0-1.447.655,4.349,4.349,0,0,0-.741,1.605,19,19,0,0,0-.566,7.24c.007.068.014.141.021.216.011.119.024.246.038.37a16.805,16.805,0,0,0,3.847-6.938,3.861,3.861,0,0,0,.078-1.931,1.881,1.881,0,0,0-.625-.952,1.282,1.282,0,0,0-.605-.264" transform="translate(-1362.269 -2243.113)" fill="#8dc7a3"/>
        <path id="Trazado_782551" data-name="Trazado 782551" d="M1519.052,2582.767a17.128,17.128,0,0,0,4.176-7.323,3.971,3.971,0,0,0,.076-2.034,1.833,1.833,0,0,0-1.394-1.359,1.859,1.859,0,0,0-1.629.725,4.519,4.519,0,0,0-.779,1.677,19.315,19.315,0,0,0-.573,7.315c.032.3.061.7.122,1" transform="translate(-1420.992 -2406.384)" fill="#8dc7a3"/>
        <path id="Trazado_782552" data-name="Trazado 782552" d="M1515.951,2579.923c-.049-.242-.078-.541-.1-.8-.007-.074-.014-.145-.021-.212a19.4,19.4,0,0,1,.58-7.391,4.693,4.693,0,0,1,.817-1.75,1.859,1.859,0,0,1,3.367.707,4.232,4.232,0,0,1-.075,2.136,17.255,17.255,0,0,1-4.225,7.413.2.2,0,0,1-.338-.1m3.025-10.559a1.668,1.668,0,0,0-1.447.656,4.343,4.343,0,0,0-.74,1.605,19,19,0,0,0-.566,7.24c.007.068.014.141.021.216.011.119.024.246.038.37a16.8,16.8,0,0,0,3.847-6.938,3.867,3.867,0,0,0,.078-1.931,1.883,1.883,0,0,0-.625-.953,1.286,1.286,0,0,0-.606-.264" transform="translate(-1418.086 -2403.5)" fill="#8dc7a3"/>
        <path id="Trazado_782553" data-name="Trazado 782553" d="M1324.7,2464.325a17.125,17.125,0,0,1-7.842-3.092,3.968,3.968,0,0,1-1.334-1.537,1.833,1.833,0,0,1,.235-1.933,1.859,1.859,0,0,1,1.724-.455,4.522,4.522,0,0,1,1.658.82,19.318,19.318,0,0,1,5.03,5.343c.165.256.391.584.53.854" transform="translate(-1230.635 -2299.002)" fill="#8dc7a3"/>
        <path id="Trazado_782554" data-name="Trazado 782554" d="M1312.443,2456.876a1.859,1.859,0,0,1,2.181-2.66,4.693,4.693,0,0,1,1.733.852,19.377,19.377,0,0,1,5.082,5.4l.116.178c.145.222.31.473.424.693a.2.2,0,0,1-.2.288,17.256,17.256,0,0,1-7.938-3.131l-.088-.068a4.1,4.1,0,0,1-1.308-1.551m8.78,3.986-.118-.181a19.007,19.007,0,0,0-4.977-5.288,4.353,4.353,0,0,0-1.583-.787,1.668,1.668,0,0,0-1.539.4,1.638,1.638,0,0,0-.2,1.719,3.87,3.87,0,0,0,1.271,1.456,16.805,16.805,0,0,0,7.345,3c-.066-.106-.136-.212-.2-.312" transform="translate(-1227.743 -2296.104)" fill="#8dc7a3"/>
        <path id="Trazado_782555" data-name="Trazado 782555" d="M1386.1,2633.222a17.13,17.13,0,0,1-7.842-3.092,3.971,3.971,0,0,1-1.334-1.537,1.833,1.833,0,0,1,.234-1.933,1.86,1.86,0,0,1,1.724-.455,4.524,4.524,0,0,1,1.658.82,19.317,19.317,0,0,1,5.03,5.343c.165.256.391.584.53.854" transform="translate(-1288.089 -2457.021)" fill="#8dc7a3"/>
        <path id="Trazado_782556" data-name="Trazado 782556" d="M1373.853,2625.771a1.859,1.859,0,0,1,2.181-2.66,4.693,4.693,0,0,1,1.733.852,19.385,19.385,0,0,1,5.082,5.4l.116.178c.146.222.31.473.424.693a.2.2,0,0,1-.2.288,17.257,17.257,0,0,1-7.937-3.131l-.088-.068a4.1,4.1,0,0,1-1.308-1.551m8.78,3.986-.118-.181a19,19,0,0,0-4.977-5.288,4.349,4.349,0,0,0-1.583-.787,1.667,1.667,0,0,0-1.539.4,1.638,1.638,0,0,0-.2,1.719,3.862,3.862,0,0,0,1.271,1.457,16.8,16.8,0,0,0,7.345,3c-.066-.106-.136-.212-.2-.313" transform="translate(-1285.197 -2454.122)" fill="#8dc7a3"/>
        <path id="Trazado_782557" data-name="Trazado 782557" d="M1282.232,2220.932a50.425,50.425,0,0,0-4.23-4.4,11.337,11.337,0,0,1-3.244-4.668,4.015,4.015,0,0,1-.175-1.9,2.2,2.2,0,0,1,1.04-1.543,2.244,2.244,0,0,1,2.012.031,4.473,4.473,0,0,1,1.551,1.371,12.132,12.132,0,0,1,1.961,4.176,36.262,36.262,0,0,1,.844,4.561,16.9,16.9,0,0,1,.242,2.371" transform="translate(-1192.446 -2065.978)" fill="#8dc7a3"/>
        <path id="Trazado_782558" data-name="Trazado 782558" d="M1279.183,2218.146a50.188,50.188,0,0,0-4.213-4.383,11.6,11.6,0,0,1-3.3-4.754,4.151,4.151,0,0,1-.181-1.992,2.393,2.393,0,0,1,1.14-1.682,2.419,2.419,0,0,1,2.193.027,4.573,4.573,0,0,1,1.623,1.429,12.174,12.174,0,0,1,1.995,4.244,36.627,36.627,0,0,1,.85,4.586l.038.265a14.585,14.585,0,0,1,.206,2.138.2.2,0,0,1-.321.153.194.194,0,0,1-.033-.032m-4.53-12.425a2.05,2.05,0,0,0-1.83-.036,1.994,1.994,0,0,0-.939,1.405,3.77,3.77,0,0,0,.17,1.8,11.234,11.234,0,0,0,3.191,4.583c1.284,1.225,2.726,2.624,3.876,3.973-.036-.49-.115-1.038-.183-1.5l-.038-.267a36.35,36.35,0,0,0-.839-4.536,11.791,11.791,0,0,0-1.927-4.108,5.19,5.19,0,0,0-.923-.965,3.1,3.1,0,0,0-.556-.347" transform="translate(-1189.552 -2063.067)" fill="#8dc7a3"/>
        <path id="Trazado_782559" data-name="Trazado 782559" d="M3934.857,2212.546a.233.233,0,0,0,.223-.164c2.733-8.839,7.3-14.606,12.594-21.283l.4-.5a.233.233,0,0,0-.365-.289l-.4.5c-5.1,6.435-9.915,12.512-12.674,21.435a.233.233,0,0,0,.154.292.243.243,0,0,0,.069.01" transform="translate(-3681.213 -2049.155)" fill="#8dc7a3"/>
        <path id="Trazado_782560" data-name="Trazado 782560" d="M4150.291,2024.779a6.914,6.914,0,0,0,2.289-2.66,2.78,2.78,0,0,0-3.736-3.807,7.252,7.252,0,0,0-2.716,2.167,46.765,46.765,0,0,0-3.593,5.01c-.568.871-1.222,1.756-1.718,2.7-.114.216-.637.946-.508,1.2.194.379.951-.011,1.207-.108a45.972,45.972,0,0,0,5.816-2.578,13.207,13.207,0,0,0,2.958-1.917" transform="translate(-3873.632 -1888.088)" fill="#8dc7a3"/>
        <path id="Trazado_782561" data-name="Trazado 782561" d="M4136.725,2026.124c-.15-.293.094-.734.4-1.237.045-.073.083-.135.1-.176a21.5,21.5,0,0,1,1.239-1.982c.166-.246.331-.49.49-.733a47.069,47.069,0,0,1,3.612-5.034,7.477,7.477,0,0,1,2.807-2.232,3.343,3.343,0,0,1,3.529.544,3.309,3.309,0,0,1,.507,3.569,7.168,7.168,0,0,1-2.35,2.745,11.489,11.489,0,0,1-2.617,1.738l-.383.208a46.155,46.155,0,0,1-5.846,2.592c-.032.012-.072.029-.118.048a2.429,2.429,0,0,1-.862.235.533.533,0,0,1-.517-.287m8.827-10.96a7.067,7.067,0,0,0-2.625,2.1,46.846,46.846,0,0,0-3.575,4.985c-.16.245-.326.491-.494.74a21.105,21.105,0,0,0-1.213,1.938c-.025.047-.068.118-.12.2a2.731,2.731,0,0,0-.382.787c.037.047.189.076.779-.172.052-.022.1-.041.133-.055a45.653,45.653,0,0,0,5.787-2.565l.386-.21a11.093,11.093,0,0,0,2.52-1.668.176.176,0,0,1,.022-.02,6.768,6.768,0,0,0,2.217-2.565,2.858,2.858,0,0,0-.408-3.06,2.472,2.472,0,0,0-1.783-.674,3.463,3.463,0,0,0-1.246.235" transform="translate(-3870.255 -1884.723)" fill="#8dc7a3"/>
        <path id="Trazado_782562" data-name="Trazado 782562" d="M3987.757,2144.549a24.309,24.309,0,0,1-1.181-11.906,5.633,5.633,0,0,1,1.076-2.681,2.6,2.6,0,0,1,2.592-.957,2.639,2.639,0,0,1,1.692,1.881,6.415,6.415,0,0,1,.04,2.625,27.414,27.414,0,0,1-3.484,9.814c-.216.374-.483.872-.735,1.223" transform="translate(-3729.549 -1991.816)" fill="#8dc7a3"/>
        <path id="Trazado_782563" data-name="Trazado 782563" d="M3984.325,2141.414a.233.233,0,0,1-.188-.151,24.438,24.438,0,0,1-1.192-12.026,5.962,5.962,0,0,1,1.127-2.79,2.824,2.824,0,0,1,2.834-1.032,2.854,2.854,0,0,1,1.853,2.042,6.619,6.619,0,0,1,.046,2.72,27.489,27.489,0,0,1-3.513,9.9c-.048.083-.1.171-.15.263-.185.326-.394.7-.6.979a.233.233,0,0,1-.19.1l-.031,0m.1-14.668a5.527,5.527,0,0,0-1.026,2.572,23.909,23.909,0,0,0,1.014,11.342c.109-.18.218-.372.318-.55.053-.093.1-.183.152-.266a27.017,27.017,0,0,0,3.455-9.731,6.215,6.215,0,0,0-.034-2.529,2.417,2.417,0,0,0-1.531-1.72,1.78,1.78,0,0,0-.486-.067,2.555,2.555,0,0,0-1.863.949" transform="translate(-3726.148 -1988.451)" fill="#8dc7a3"/>
        <path id="Trazado_782564" data-name="Trazado 782564" d="M4009.152,2264.614a24.311,24.311,0,0,0,11.832-1.778,5.639,5.639,0,0,0,2.334-1.7,2.6,2.6,0,0,0,.291-2.748,2.639,2.639,0,0,0-2.239-1.179,6.418,6.418,0,0,0-2.554.606,27.411,27.411,0,0,0-8.658,5.788c-.31.3-.727.683-1.006,1.012" transform="translate(-3750.941 -2111.831)" fill="#8dc7a3"/>
        <path id="Trazado_782565" data-name="Trazado 782565" d="M4005.743,2261.459a.233.233,0,0,1-.154-.383c.225-.266.532-.559.8-.819.076-.073.15-.144.219-.21a27.485,27.485,0,0,1,8.733-5.836,6.612,6.612,0,0,1,2.648-.623,2.854,2.854,0,0,1,2.435,1.3,2.825,2.825,0,0,1-.3,3,5.959,5.959,0,0,1-2.428,1.777,24.008,24.008,0,0,1-9.554,1.917,23.713,23.713,0,0,1-2.4-.119m9.776-6.816a27.024,27.024,0,0,0-8.584,5.739l-.221.213c-.148.141-.307.293-.454.444a23.911,23.911,0,0,0,11.244-1.8,5.527,5.527,0,0,0,2.241-1.625,2.375,2.375,0,0,0,.278-2.494,2.417,2.417,0,0,0-2.043-1.062h-.088a6.388,6.388,0,0,0-2.373.589" transform="translate(-3747.555 -2108.444)" fill="#8dc7a3"/>
        <path id="Trazado_782566" data-name="Trazado 782566" d="M3857.793,2570.334a.179.179,0,0,0,.21-.027c5.126-4.88,10.331-7.023,16.357-9.5l.455-.187a.178.178,0,1,0-.136-.33l-.455.188c-5.807,2.391-11.292,4.65-16.467,9.576a.178.178,0,0,0,.036.285" transform="translate(-3609.245 -2395.377)" fill="#6fbd8d"/>
        <path id="Trazado_782567" data-name="Trazado 782567" d="M4130.733,2502.182a5.3,5.3,0,0,0,2.522-.921,2.127,2.127,0,0,0-1.073-3.937,5.542,5.542,0,0,0-2.623.432,35.741,35.741,0,0,0-4.27,2c-.705.369-1.472.716-2.154,1.158-.156.1-.778.394-.786.61-.012.325.639.348.846.379a35.111,35.111,0,0,0,4.847.451,10.094,10.094,0,0,0,2.69-.175" transform="translate(-3856.849 -2336.454)" fill="#6fbd8d"/>
        <path id="Trazado_782568" data-name="Trazado 782568" d="M4119.582,2498.929c.009-.251.337-.454.732-.675.058-.032.106-.059.136-.078a16.322,16.322,0,0,1,1.567-.86c.2-.1.4-.2.6-.306a36.09,36.09,0,0,1,4.291-2.012,5.723,5.723,0,0,1,2.708-.441,2.557,2.557,0,0,1,2.152,1.681,2.53,2.53,0,0,1-.994,2.572,5.483,5.483,0,0,1-2.594.955,8.79,8.79,0,0,1-2.4.183l-.334,0a35.3,35.3,0,0,1-4.871-.453l-.1-.011a1.852,1.852,0,0,1-.663-.165.409.409,0,0,1-.238-.385m9.987-4.02a5.405,5.405,0,0,0-2.537.423,35.788,35.788,0,0,0-4.249,1.993c-.2.1-.4.206-.606.309a16.193,16.193,0,0,0-1.534.841c-.034.022-.089.053-.156.09a2.076,2.076,0,0,0-.549.383c.006.045.1.122.584.176l.109.013a34.975,34.975,0,0,0,4.821.449l.336,0a8.486,8.486,0,0,0,2.305-.173l.022,0a5.173,5.173,0,0,0,2.438-.885,2.185,2.185,0,0,0,.871-2.195,1.893,1.893,0,0,0-.938-1.116,2.648,2.648,0,0,0-.919-.309" transform="translate(-3854.258 -2333.862)" fill="#6fbd8d"/>
        <path id="Trazado_782569" data-name="Trazado 782569" d="M3968.234,2488.244a18.6,18.6,0,0,1,3.658-8.39,4.315,4.315,0,0,1,1.72-1.388,1.99,1.99,0,0,1,2.088.329,2.02,2.02,0,0,1,.427,1.888,4.908,4.908,0,0,1-.954,1.767,20.973,20.973,0,0,1-5.992,5.251c-.284.169-.648.4-.948.542" transform="translate(-3712.658 -2318.698)" fill="#6fbd8d"/>
        <path id="Trazado_782570" data-name="Trazado 782570" d="M3965.536,2485.787a.179.179,0,0,1-.069-.171,18.7,18.7,0,0,1,3.7-8.474,4.56,4.56,0,0,1,1.794-1.442,1.981,1.981,0,0,1,2.752,2.426,5.064,5.064,0,0,1-.985,1.833,21.023,21.023,0,0,1-6.042,5.3l-.2.12c-.245.149-.523.317-.764.431a.178.178,0,0,1-.163-.005l-.02-.013m5.549-9.753a4.229,4.229,0,0,0-1.645,1.333,18.291,18.291,0,0,0-3.559,7.951c.14-.08.284-.167.418-.248l.2-.121a20.673,20.673,0,0,0,5.941-5.206,4.755,4.755,0,0,0,.922-1.7,1.849,1.849,0,0,0-.38-1.72,1.363,1.363,0,0,0-.3-.226,1.955,1.955,0,0,0-1.6-.062" transform="translate(-3710.068 -2316.098)" fill="#6fbd8d"/>
        <path id="Trazado_782571" data-name="Trazado 782571" d="M3967.972,2617.515a18.593,18.593,0,0,0,8.563,3.232,4.312,4.312,0,0,0,2.194-.264,1.991,1.991,0,0,0,1.221-1.726,2.019,2.019,0,0,0-1.055-1.623,4.908,4.908,0,0,0-1.932-.55,20.966,20.966,0,0,0-7.942.63c-.319.085-.74.185-1.049.3" transform="translate(-3712.413 -2447.934)" fill="#6fbd8d"/>
        <path id="Trazado_782572" data-name="Trazado 782572" d="M3965.28,2615.051a.178.178,0,0,1,.04-.313c.25-.093.564-.175.841-.247l.224-.059a21.029,21.029,0,0,1,8.01-.635,5.059,5.059,0,0,1,2,.573,2.183,2.183,0,0,1,1.142,1.774,2.161,2.161,0,0,1-1.324,1.89,4.558,4.558,0,0,1-2.284.28,18.838,18.838,0,0,1-8.65-3.264m9.072-.9a20.676,20.676,0,0,0-7.874.625l-.227.06c-.151.04-.314.082-.469.126a18.29,18.29,0,0,0,8.179,3,4.227,4.227,0,0,0,2.1-.248,1.816,1.816,0,0,0,1.117-1.561,1.848,1.848,0,0,0-.967-1.472l-.058-.034a4.889,4.889,0,0,0-1.8-.493" transform="translate(-3709.823 -2445.324)" fill="#6fbd8d"/>
        <path id="Trazado_782573" data-name="Trazado 782573" d="M30.367,2242.037c.72,3.015,2.466,5.381,4.253,7.872q2.853,3.973,6.077,7.66a101.568,101.568,0,0,0,8.753,8.85c1.406,1.257,2.789,2.541,4.183,3.809h9.81a12.083,12.083,0,0,0-.731-1.921A88.958,88.958,0,0,0,51.1,2249.592c-1.022-1.262-2.064-2.521-3.148-3.734a0,0,0,0,1,0,0c-3.258-3.643-6.913-6.876-11.637-8.575-1.653-.595-3.685-.912-5.013.239-1.223,1.06-1.312,2.942-.936,4.517" transform="translate(-28.228 -2092.687)" fill="#ade0c1"/>
        <path id="Trazado_782574" data-name="Trazado 782574" d="M70.734,2278.6a.214.214,0,0,0,.2-.285c-.99-2.792-4.8-9.55-9.452-16.026-4.16-5.786-10.439-13.4-16.726-16.8a.213.213,0,1,0-.2.375c6.216,3.362,12.449,10.922,16.583,16.672,4.634,6.445,8.416,13.155,9.4,15.919a.213.213,0,0,0,.2.142" transform="translate(-41.58 -2100.846)" fill="#8dc7a3"/>
        <path id="Trazado_782575" data-name="Trazado 782575" d="M5.123,1672.847c2.41,4.248,8.762,14.206,14.6,24.414a0,0,0,0,0,0,0c4.2,7.332,8.13,14.793,10.149,20.358a28.592,28.592,0,0,0,1.636,4.011h4.052c.336-1.558.854-3.925,1.508-6.8,1.611-7.088,2.8-11.784,3-12.6,2.777-11.806-8.68-41.3-29.857-50.259-5.969-2.526-7.918-1.394-8.57-.871-3.91,3.138-.072,15.493,3.479,21.751" transform="translate(0 -1544.092)" fill="#6fbd8d"/>
        <path id="Trazado_782576" data-name="Trazado 782576" d="M68.968,1722l.034,0a.213.213,0,0,0,.177-.244c-1.949-12.082-16.8-56.555-33.121-71.148a.213.213,0,0,0-.284.318c16.25,14.528,31.042,58.854,32.984,70.9a.213.213,0,0,0,.21.179" transform="translate(-33.403 -1544.243)" fill="#548f6b"/>
        <path id="Trazado_782577" data-name="Trazado 782577" d="M3488.018,1405.063a.253.253,0,0,0,.217-.122q1.352-2.214,2.613-4.291c8.441-13.877,14.541-23.9,26.182-37.716a.254.254,0,1,0-.388-.327c-11.667,13.842-17.775,23.883-26.228,37.78q-1.266,2.08-2.613,4.29a.254.254,0,0,0,.217.386" transform="translate(-3263.133 -1274.763)" fill="#8dc7a3"/>
        <path id="Trazado_782578" data-name="Trazado 782578" d="M3760.4,1336.5a21.887,21.887,0,0,1-2.6-10.452,5.076,5.076,0,0,1,.611-2.528,2.342,2.342,0,0,1,2.185-1.189,2.375,2.375,0,0,1,1.752,1.456,5.777,5.777,0,0,1,.377,2.333,24.685,24.685,0,0,1-1.829,9.195c-.144.361-.317.839-.5,1.185" transform="translate(-3515.772 -1237.151)" fill="#8dc7a3"/>
        <path id="Trazado_782579" data-name="Trazado 782579" d="M3756.487,1332.94a22.049,22.049,0,0,1-2.629-10.58,5.407,5.407,0,0,1,.648-2.653,2.375,2.375,0,0,1,4.385.3,6,6,0,0,1,.4,2.435,24.78,24.78,0,0,1-1.847,9.29c-.032.08-.065.166-.1.254-.123.315-.262.673-.406.953a.253.253,0,0,1-.223.138h0a.254.254,0,0,1-.224-.133m-1.548-12.968a4.936,4.936,0,0,0-.573,2.4,21.471,21.471,0,0,0,2.328,9.865c.061-.147.12-.3.175-.441.035-.09.069-.177.1-.258a24.283,24.283,0,0,0,1.811-9.1,5.554,5.554,0,0,0-.355-2.231,2.131,2.131,0,0,0-1.552-1.307,1.545,1.545,0,0,0-.2-.013,2.168,2.168,0,0,0-1.734,1.083" transform="translate(-3512.083 -1233.471)" fill="#8dc7a3"/>
        <path id="Trazado_782580" data-name="Trazado 782580" d="M3627.651,1526.66a21.882,21.882,0,0,1-2.6-10.452,5.071,5.071,0,0,1,.61-2.528,2.342,2.342,0,0,1,2.185-1.189,2.376,2.376,0,0,1,1.752,1.456,5.78,5.78,0,0,1,.376,2.333,24.685,24.685,0,0,1-1.829,9.2c-.144.361-.318.839-.5,1.185" transform="translate(-3391.573 -1415.065)" fill="#8dc7a3"/>
        <path id="Trazado_782581" data-name="Trazado 782581" d="M3623.739,1523.1a22.046,22.046,0,0,1-2.629-10.58,5.4,5.4,0,0,1,.648-2.653,2.587,2.587,0,0,1,2.434-1.308,2.614,2.614,0,0,1,1.951,1.6,6,6,0,0,1,.4,2.435,24.782,24.782,0,0,1-1.847,9.29c-.032.08-.065.165-.1.254-.123.315-.262.673-.406.954a.253.253,0,0,1-.223.138h0a.254.254,0,0,1-.224-.133m-1.548-12.967a4.938,4.938,0,0,0-.573,2.4,21.461,21.461,0,0,0,2.328,9.865c.061-.147.12-.3.175-.442.035-.09.069-.177.1-.257a24.282,24.282,0,0,0,1.811-9.1,5.55,5.55,0,0,0-.355-2.231,2.131,2.131,0,0,0-1.553-1.307,1.536,1.536,0,0,0-.2-.013,2.169,2.169,0,0,0-1.734,1.083" transform="translate(-3387.885 -1411.386)" fill="#8dc7a3"/>
        <path id="Trazado_782582" data-name="Trazado 782582" d="M3801.35,1453.846a21.884,21.884,0,0,0,10.716-1.086,5.075,5.075,0,0,0,2.173-1.429,2.341,2.341,0,0,0,.381-2.458,2.375,2.375,0,0,0-1.962-1.157,5.777,5.777,0,0,0-2.323.434,24.68,24.68,0,0,0-8.036,4.829c-.291.258-.682.582-.948.867" transform="translate(-3556.522 -1354.467)" fill="#8dc7a3"/>
        <path id="Trazado_782583" data-name="Trazado 782583" d="M3797.624,1450.408a.254.254,0,0,1-.148-.424c.216-.231.506-.484.762-.706l.2-.178a24.788,24.788,0,0,1,8.119-4.878,6.013,6.013,0,0,1,2.427-.448,2.375,2.375,0,0,1,1.761,4.027,5.4,5.4,0,0,1-2.278,1.506,21.278,21.278,0,0,1-7.594,1.339,21.883,21.883,0,0,1-3.252-.238m9.106-5.707a24.278,24.278,0,0,0-7.953,4.78l-.207.181c-.116.1-.24.208-.358.315a21.467,21.467,0,0,0,10.072-1.142,4.934,4.934,0,0,0,2.067-1.351,2.094,2.094,0,0,0,.353-2.183,2.132,2.132,0,0,0-1.755-1.02q-.117-.009-.234-.008a6.054,6.054,0,0,0-1.985.428" transform="translate(-3552.833 -1350.779)" fill="#8dc7a3"/>
        <path id="Trazado_782584" data-name="Trazado 782584" d="M3667.328,1640.286a21.882,21.882,0,0,0,10.715-1.086,5.076,5.076,0,0,0,2.173-1.429,2.342,2.342,0,0,0,.381-2.458,2.376,2.376,0,0,0-1.962-1.157,5.772,5.772,0,0,0-2.323.434,24.68,24.68,0,0,0-8.036,4.829c-.292.258-.683.583-.948.867" transform="translate(-3431.132 -1528.899)" fill="#8dc7a3"/>
        <path id="Trazado_782585" data-name="Trazado 782585" d="M3663.6,1636.852a.254.254,0,0,1-.148-.425c.215-.23.5-.482.759-.7l.206-.18a24.785,24.785,0,0,1,8.12-4.878,6.015,6.015,0,0,1,2.426-.448,2.375,2.375,0,0,1,1.761,4.027,5.4,5.4,0,0,1-2.278,1.506,21.281,21.281,0,0,1-7.594,1.339,21.9,21.9,0,0,1-3.252-.238m9.107-5.707a24.281,24.281,0,0,0-7.953,4.779l-.21.183c-.115.1-.237.206-.355.313a21.467,21.467,0,0,0,10.071-1.142,4.937,4.937,0,0,0,2.067-1.351,2.092,2.092,0,0,0,.353-2.183,2.131,2.131,0,0,0-1.755-1.02c-.078-.006-.156-.009-.235-.009a6.052,6.052,0,0,0-1.985.428" transform="translate(-3427.443 -1525.214)" fill="#8dc7a3"/>
        <path id="Trazado_782586" data-name="Trazado 782586" d="M3938.732,1167.467a64.454,64.454,0,0,1,6.727-3.948,14.489,14.489,0,0,0,5.606-4.617,5.133,5.133,0,0,0,.873-2.272,2.808,2.808,0,0,0-.744-2.258,2.866,2.866,0,0,0-2.485-.658,5.716,5.716,0,0,0-2.382,1.148,15.5,15.5,0,0,0-3.858,4.457,46.327,46.327,0,0,0-2.618,5.317,21.626,21.626,0,0,0-1.119,2.832" transform="translate(-3685.056 -1079.36)" fill="#8dc7a3"/>
        <path id="Trazado_782587" data-name="Trazado 782587" d="M3934.9,1163.963a.254.254,0,0,1-.1-.273,18.586,18.586,0,0,1,.993-2.557l.139-.314a46.8,46.8,0,0,1,2.633-5.346,15.551,15.551,0,0,1,3.923-4.528,5.838,5.838,0,0,1,2.49-1.2,3.089,3.089,0,0,1,2.706.727,3.056,3.056,0,0,1,.82,2.463,5.3,5.3,0,0,1-.912,2.387,14.815,14.815,0,0,1-5.7,4.7,64.143,64.143,0,0,0-6.7,3.931.254.254,0,0,1-.291,0m10.166-13.713a5.359,5.359,0,0,0-2.274,1.1,15.057,15.057,0,0,0-3.793,4.385,46.44,46.44,0,0,0-2.6,5.288l-.14.315c-.245.55-.531,1.2-.746,1.786,1.88-1.259,4.139-2.481,6.143-3.543a14.351,14.351,0,0,0,5.512-4.531,4.814,4.814,0,0,0,.833-2.158,2.546,2.546,0,0,0-.669-2.053,2.476,2.476,0,0,0-1.729-.637,3.069,3.069,0,0,0-.534.047" transform="translate(-3681.367 -1075.647)" fill="#8dc7a3"/>
        <path id="Trazado_782588" data-name="Trazado 782588" d="M3526.365,1883.088a.254.254,0,0,1,.241.447c-12.825,6.913-20.721,12.707-30.816,20.341h-.842c10.372-7.849,18.333-13.735,31.417-20.788" transform="translate(-3269.854 -1761.778)" fill="#6fbd8d"/>
        <path id="Trazado_782589" data-name="Trazado 782589" d="M3813.7,1816.405a18.905,18.905,0,0,1,1.229-9.224,4.383,4.383,0,0,1,1.292-1.838,2.023,2.023,0,0,1,2.133-.262,2.052,2.052,0,0,1,.946,1.726,4.992,4.992,0,0,1-.437,1.994,21.325,21.325,0,0,1-4.388,6.809c-.23.245-.521.574-.774.8" transform="translate(-3567.963 -1688.638)" fill="#6fbd8d"/>
        <path id="Trazado_782590" data-name="Trazado 782590" d="M3809.9,1812.974a.254.254,0,0,1-.161-.207,19.081,19.081,0,0,1,1.248-9.354,4.7,4.7,0,0,1,1.374-1.941,2.271,2.271,0,0,1,2.409-.281,2.294,2.294,0,0,1,1.076,1.938,5.219,5.219,0,0,1-.455,2.1,21.443,21.443,0,0,1-4.439,6.89l-.161.172c-.2.215-.425.459-.631.64a.254.254,0,0,1-.258.046m2.765-11.1a4.232,4.232,0,0,0-1.212,1.734,18.5,18.5,0,0,0-1.264,8.574c.078-.082.154-.165.228-.244l.164-.176a20.947,20.947,0,0,0,4.336-6.727,4.768,4.768,0,0,0,.421-1.891,1.808,1.808,0,0,0-.815-1.515,1.381,1.381,0,0,0-.677-.169,2.035,2.035,0,0,0-1.18.412" transform="translate(-3564.25 -1684.97)" fill="#6fbd8d"/>
        <path id="Trazado_782591" data-name="Trazado 782591" d="M3646.679,1927.094a18.905,18.905,0,0,1,1.229-9.224,4.383,4.383,0,0,1,1.292-1.838,2.023,2.023,0,0,1,2.133-.262,2.052,2.052,0,0,1,.946,1.726,4.987,4.987,0,0,1-.437,1.994,21.325,21.325,0,0,1-4.388,6.809c-.23.245-.521.574-.774.8" transform="translate(-3411.697 -1792.198)" fill="#6fbd8d"/>
        <path id="Trazado_782592" data-name="Trazado 782592" d="M3642.876,1923.664a.254.254,0,0,1-.161-.207,19.091,19.091,0,0,1,1.247-9.354,4.7,4.7,0,0,1,1.374-1.94,2.086,2.086,0,0,1,3.485,1.656,5.215,5.215,0,0,1-.455,2.1,21.454,21.454,0,0,1-4.44,6.89l-.16.172c-.2.215-.425.459-.631.64a.256.256,0,0,1-.167.063.248.248,0,0,1-.091-.017m2.765-11.1a4.233,4.233,0,0,0-1.212,1.734,18.5,18.5,0,0,0-1.264,8.574c.078-.081.155-.165.228-.244l.163-.175a20.945,20.945,0,0,0,4.336-6.727,4.771,4.771,0,0,0,.42-1.891,1.807,1.807,0,0,0-.815-1.515,1.383,1.383,0,0,0-.677-.169,2.036,2.036,0,0,0-1.181.412" transform="translate(-3407.985 -1788.532)" fill="#6fbd8d"/>
        <path id="Trazado_782593" data-name="Trazado 782593" d="M3817.848,1959.913a18.909,18.909,0,0,0,8.956,2.528,4.383,4.383,0,0,0,2.2-.459,2.023,2.023,0,0,0,1.086-1.854,2.052,2.052,0,0,0-1.21-1.552,4.991,4.991,0,0,0-2-.389,21.326,21.326,0,0,0-7.99,1.33c-.316.115-.733.251-1.037.4" transform="translate(-3571.958 -1832.059)" fill="#6fbd8d"/>
        <path id="Trazado_782594" data-name="Trazado 782594" d="M3823.114,1959.007a19.087,19.087,0,0,1-9.083-2.562.254.254,0,0,1,.018-.449c.247-.118.559-.228.835-.325l.224-.08a21.47,21.47,0,0,1,8.086-1.345,5.214,5.214,0,0,1,2.106.413,2.087,2.087,0,0,1,.14,3.856,4.669,4.669,0,0,1-2.3.492Zm-7.832-2.939-.229.081-.312.112a18.5,18.5,0,0,0,8.373,2.238,4.216,4.216,0,0,0,2.073-.425,1.773,1.773,0,0,0,.959-1.609,1.807,1.807,0,0,0-1.067-1.349,4.768,4.768,0,0,0-1.9-.363c-.221-.008-.442-.012-.664-.012a21.18,21.18,0,0,0-7.23,1.327" transform="translate(-3568.268 -1828.37)" fill="#6fbd8d"/>
        <path id="Trazado_782595" data-name="Trazado 782595" d="M3650.983,2067.208a18.911,18.911,0,0,0,8.956,2.528,4.383,4.383,0,0,0,2.2-.459,2.023,2.023,0,0,0,1.086-1.854,2.052,2.052,0,0,0-1.21-1.552,4.991,4.991,0,0,0-2-.388,21.329,21.329,0,0,0-7.99,1.33c-.316.115-.733.251-1.037.4" transform="translate(-3415.84 -1932.443)" fill="#6fbd8d"/>
        <path id="Trazado_782596" data-name="Trazado 782596" d="M3656.25,2066.294a19.084,19.084,0,0,1-9.083-2.562.254.254,0,0,1,.019-.449c.248-.118.562-.229.839-.327l.22-.078a21.418,21.418,0,0,1,8.086-1.345,5.216,5.216,0,0,1,2.106.414,2.087,2.087,0,0,1,.139,3.856,4.668,4.668,0,0,1-2.3.492Zm-7.832-2.939-.224.08c-.1.036-.209.074-.315.113a18.5,18.5,0,0,0,8.373,2.238,4.28,4.28,0,0,0,2.073-.425,1.775,1.775,0,0,0,.959-1.609,1.807,1.807,0,0,0-1.067-1.349,4.769,4.769,0,0,0-1.9-.363q-.332-.012-.665-.012a21.177,21.177,0,0,0-7.23,1.327" transform="translate(-3412.151 -1928.747)" fill="#6fbd8d"/>
        <path id="Trazado_782597" data-name="Trazado 782597" d="M3983.786,1772.518a55.657,55.657,0,0,1,6.659-1.038,12.518,12.518,0,0,0,5.97-1.932,4.434,4.434,0,0,0,1.422-1.549,2.424,2.424,0,0,0,.118-2.051,2.476,2.476,0,0,0-1.788-1.318,4.939,4.939,0,0,0-2.279.167,13.391,13.391,0,0,0-4.514,2.357,40.086,40.086,0,0,0-3.792,3.442,18.671,18.671,0,0,0-1.8,1.921" transform="translate(-3727.208 -1650.913)" fill="#6fbd8d"/>
        <path id="Trazado_782598" data-name="Trazado 782598" d="M3979.885,1768.96a.254.254,0,0,1,.006-.291,16.067,16.067,0,0,1,1.613-1.744l.211-.208a40.436,40.436,0,0,1,3.816-3.463,13.471,13.471,0,0,1,4.6-2.4,5.084,5.084,0,0,1,2.4-.171,2.7,2.7,0,0,1,1.969,1.463,2.675,2.675,0,0,1-.123,2.269,4.622,4.622,0,0,1-1.5,1.641,12.831,12.831,0,0,1-6.09,1.977,55.307,55.307,0,0,0-6.626,1.032.258.258,0,0,1-.061.007.254.254,0,0,1-.211-.112m10.382-7.617a12.982,12.982,0,0,0-4.428,2.314,40.055,40.055,0,0,0-3.767,3.421l-.212.209c-.347.341-.75.736-1.094,1.118,1.888-.4,4.048-.663,5.96-.876a12.369,12.369,0,0,0,5.851-1.886,4.126,4.126,0,0,0,1.344-1.458,2.165,2.165,0,0,0,.114-1.833,2.228,2.228,0,0,0-1.607-1.172,3.356,3.356,0,0,0-.677-.066,5.625,5.625,0,0,0-1.483.229" transform="translate(-3723.519 -1647.214)" fill="#6fbd8d"/>
        <rect id="Rectángulo_359709" data-name="Rectángulo 359709" width="56.418" height="63.427" transform="translate(159.757 76.124)" fill="#f0c36a"/>
        <path id="Trazado_782599" data-name="Trazado 782599" d="M3381.08,1243.966l-24.611,1.407v-63.427l24.611,1.407Z" transform="translate(-3140.294 -1105.823)" fill="#f0c36a"/>
        <rect id="Rectángulo_359710" data-name="Rectángulo 359710" width="6.333" height="11.992" transform="translate(181.882 76.124)" fill="#6b6668"/>
        <path id="Trazado_782600" data-name="Trazado 782600" d="M3551.649,1202.66l-4.118.14v-9.9l4.118.234Z" transform="translate(-3319.051 -1116.069)" fill="#4d494a"/>
        <g id="Grupo_1048897" data-name="Grupo 1048897" transform="translate(216.175 120.939)" opacity="0.5" style="mix-blend-mode: multiply;isolation: isolate">
          <g id="Grupo_1048896" data-name="Grupo 1048896">
            <g id="Grupo_1048895-2" data-name="Grupo 1048895" clip-path="url(#clip-path-3)">
              <path id="Trazado_782601" data-name="Trazado 782601" d="M3381.08,1887.243h-24.611v-9.466l24.611,3.518Z" transform="translate(-3356.469 -1877.777)" fill="#ffa88a"/>
            </g>
          </g>
        </g>
        <g id="Grupo_1048900" data-name="Grupo 1048900" transform="translate(159.757 112.496)" opacity="0.5" style="mix-blend-mode: multiply;isolation: isolate">
          <g id="Grupo_1048899" data-name="Grupo 1048899">
            <g id="Grupo_1048898" data-name="Grupo 1048898" clip-path="url(#clip-path-4)">
              <path id="Trazado_782602" data-name="Trazado 782602" d="M2536.9,1776.444h-56.418v-29.766l56.418,8.444Z" transform="translate(-2480.487 -1746.678)" fill="#fddab9"/>
            </g>
          </g>
        </g>
        <rect id="Rectángulo_359713" data-name="Rectángulo 359713" width="56.418" height="48.138" transform="translate(174.98 129.699)" fill="#c4d3f5"/>
        <path id="Trazado_782603" data-name="Trazado 782603" d="M3614.108,2061.936l3.335-.191v-46.54l-24.611-1.407v48.137Z" transform="translate(-3361.435 -1884.099)" fill="#9bb8f5"/>
        <rect id="Rectángulo_359714" data-name="Rectángulo 359714" width="6.333" height="11.992" transform="translate(197.105 129.699)" fill="#6b6366"/>
        <path id="Trazado_782604" data-name="Trazado 782604" d="M3788.013,2034.513l-4.118.14v-9.9l4.118.235Z" transform="translate(-3540.192 -1894.346)" fill="#4d4749"/>
        <rect id="Rectángulo_359715" data-name="Rectángulo 359715" width="56.418" height="60.823" transform="translate(97.159 117.014)" fill="#f0c36a"/>
        <path id="Trazado_782605" data-name="Trazado 782605" d="M2409.151,1877.663v-59.416l-24.611-1.407v60.823Z" transform="translate(-2230.962 -1699.826)" fill="#edb248"/>
        <rect id="Rectángulo_359716" data-name="Rectángulo 359716" width="6.333" height="11.992" transform="translate(119.284 117.014)" fill="#6b5e63"/>
        <path id="Trazado_782606" data-name="Trazado 782606" d="M2579.721,1837.555l-4.118.14v-9.9l4.118.235Z" transform="translate(-2409.72 -1710.073)" fill="#4d4447"/>
        <path id="Trazado_782607" data-name="Trazado 782607" d="M417.731,2489.56h52.915c0-4.713-2.049-8.945-4.34-12.2a34.407,34.407,0,0,0-6.214-6.708H429.018c-.259.207-.666.541-1.144.97a31.663,31.663,0,0,0-7.616,11.091,47.457,47.457,0,0,0-2.526,6.847" transform="translate(-390.827 -2311.528)" fill="#4d4749"/>
        <path id="Trazado_782608" data-name="Trazado 782608" d="M997.567,2579.849a.287.287,0,0,0,.287-.279,40.371,40.371,0,0,0-2.177-12.558.287.287,0,1,0-.518.247,39.73,39.73,0,0,1,2.122,12.295.287.287,0,0,0,.279.3h.009" transform="translate(-931.038 -2401.53)" fill="#36262c"/>
        <path id="Trazado_782609" data-name="Trazado 782609" d="M1054.9,2724.259a.287.287,0,0,0,.287-.279,23.116,23.116,0,0,0-.08-2.517.287.287,0,1,0-.572.046,22.642,22.642,0,0,1,.078,2.454.287.287,0,0,0,.278.3h.009" transform="translate(-986.617 -2545.94)" fill="#36262c"/>
        <path id="Trazado_782610" data-name="Trazado 782610" d="M1042.485,2639.7l.04,0a.287.287,0,0,0,.245-.324c-.154-1.106-.356-2.255-.6-3.416a.287.287,0,1,0-.562.119c.242,1.147.442,2.284.594,3.377a.287.287,0,0,0,.284.247" transform="translate(-974.516 -2465.977)" fill="#36262c"/>
        <path id="Trazado_782611" data-name="Trazado 782611" d="M1023.417,2569.791a.287.287,0,0,0,.278-.359,16.254,16.254,0,0,0-.773-2.419.287.287,0,1,0-.518.247,16.038,16.038,0,0,1,.736,2.317.287.287,0,0,0,.278.215" transform="translate(-956.529 -2401.53)" fill="#36262c"/>
        <path id="Trazado_782612" data-name="Trazado 782612" d="M2019.013,1185.551c1.906,4.886,3.176,8.111,3.176,10.554s-5.375,14.169-7.72,16.71-7.427-8.5-7.427-8.5Z" transform="translate(-1877.778 -1109.195)" fill="#a35f4b"/>
        <path id="Trazado_782613" data-name="Trazado 782613" d="M1534,1048.278l-26.559,34.489-28.124-5.866,25.793-34.649Z" transform="translate(-1384.038 -975.126)" fill="#607cb3"/>
        <path id="Trazado_782614" data-name="Trazado 782614" d="M1587.651,1084.991l-23.645,30.705-22.859-4.768,22.963-30.847Z" transform="translate(-1441.889 -1010.519)" fill="#b3c9f5"/>
        <path id="Trazado_782615" data-name="Trazado 782615" d="M1534,1135.806l-26.559,34.489-28.124-5.866.782,1.993,28.252,5.892,26.167-34.205Z" transform="translate(-1384.038 -1062.654)" fill="#3f5175"/>
        <path id="Trazado_782616" data-name="Trazado 782616" d="M1906.08,1139.786l16.964,3.538a.287.287,0,1,0,.117-.562l-16.964-3.538a.287.287,0,1,0-.117.562" transform="translate(-1783.104 -1065.847)" fill="#3f5175"/>
        <path id="Trazado_782617" data-name="Trazado 782617" d="M1868.933,1194.036l16.964,3.538a.287.287,0,0,0,.117-.562l-16.964-3.538a.287.287,0,1,0-.117.562" transform="translate(-1748.35 -1116.602)" fill="#3f5175"/>
        <path id="Trazado_782618" data-name="Trazado 782618" d="M1791.122,1274.824l16.964,3.538a.287.287,0,1,0,.117-.562l-16.964-3.538a.287.287,0,0,0-.117.562" transform="translate(-1675.55 -1192.187)" fill="#3f5175"/>
        <path id="Trazado_782619" data-name="Trazado 782619" d="M1767.636,1308.157l16.964,3.538a.287.287,0,0,0,.117-.562l-16.964-3.538a.287.287,0,1,0-.117.562" transform="translate(-1653.577 -1223.373)" fill="#3f5175"/>
        <path id="Trazado_782620" data-name="Trazado 782620" d="M1744.153,1341.49l16.964,3.538a.287.287,0,1,0,.117-.562l-16.964-3.538a.287.287,0,0,0-.117.562" transform="translate(-1631.606 -1254.56)" fill="#3f5175"/>
        <path id="Trazado_782621" data-name="Trazado 782621" d="M1720.668,1374.823l16.964,3.538a.287.287,0,1,0,.117-.562l-16.964-3.538a.287.287,0,0,0-.117.562" transform="translate(-1609.634 -1285.745)" fill="#3f5175"/>
        <path id="Trazado_782622" data-name="Trazado 782622" d="M1697.182,1408.155l16.964,3.538a.287.287,0,0,0,.117-.562l-16.964-3.538a.287.287,0,0,0-.117.562" transform="translate(-1587.66 -1316.931)" fill="#3f5175"/>
        <path id="Trazado_782623" data-name="Trazado 782623" d="M1673.7,1441.488l16.964,3.538a.287.287,0,1,0,.117-.562l-16.964-3.538a.287.287,0,0,0-.117.562" transform="translate(-1565.691 -1348.117)" fill="#3f5175"/>
        <path id="Trazado_782624" data-name="Trazado 782624" d="M825.8,859.049l-4.234,10.335,14.853-.5.977-6.84s3.127,1.5,5.081,1.107,5.537-6.515,6.71-14.723-.912-17.915-.912-17.915l-16.457,7.166Z" transform="translate(-768.652 -777.026)" fill="#a35f4b"/>
        <path id="Trazado_782625" data-name="Trazado 782625" d="M575.209,2471.621c4,3.542,27.918,8.64,38.432,5.737a34.414,34.414,0,0,0-6.214-6.708H576.353s-.438.343-1.144.97" transform="translate(-538.162 -2311.528)" fill="#36262c"/>
        <path id="Trazado_782626" data-name="Trazado 782626" d="M249.282,1568.384c1.242.31,2.434.559,3.557.756a43.3,43.3,0,0,0,9.783.71l2.708-36.949,1.458-19.893c-5.046,7.592-22.049,34.268-24.981,42.037s-.147,11.432,7.475,13.338" transform="translate(-225.164 -1415.562)" fill="#edb248"/>
        <path id="Trazado_782627" data-name="Trazado 782627" d="M429.7,1820.61a43.309,43.309,0,0,0,9.783.71l2.708-36.949-2.673-2.582Z" transform="translate(-402.03 -1667.032)" fill="#eb6a3b"/>
        <path id="Trazado_782628" data-name="Trazado 782628" d="M516.8,1467.359c4.69,1.611,23.747,3.225,31.221,2.2s9.528-4.545,10.114-14.659c.172-2.962.507-7.936.876-13.562.276-4.168.568-8.694.827-13.024.588-9.788,1-18.588.643-20.025a10.424,10.424,0,0,0-7.182-8.062c-7.329-2.7-21.841-4.1-28.437-1.466s-8.208,10.554-9.381,16.857-4.983,37.523-5.571,43.094,2.2,7.035,6.889,8.648" transform="translate(-476.993 -1307.356)" fill="#edb248"/>
        <path id="Trazado_782629" data-name="Trazado 782629" d="M1033.113,1714.7l15.476,23.546c.276-4.168.568-8.694.827-13.024Z" transform="translate(-966.575 -1604.262)" fill="#eb6a3b"/>
        <path id="Trazado_782630" data-name="Trazado 782630" d="M982.748,1438.2c-4.061,5.361-1.759,11.672,5.423,18.222s21.694,21.941,28.583,28.1,12.606,6.01,18.176-1.612,23.892-35.325,23.892-35.325-2.2-7.329-12.752-6.889c-5.57,6.3-19.495,24.918-19.495,24.918s-25.2-26.785-29.967-29.736-10.2-2.511-13.86,2.326" transform="translate(-917.587 -1341.662)" fill="#edb248"/>
        <path id="Trazado_782631" data-name="Trazado 782631" d="M1692.542,1925.667a1.158,1.158,0,0,0,.994-.493c.718-1.116-.728-2.228-1.423-2.763l-.08-.061a13.09,13.09,0,0,0-3.092-1.78.287.287,0,1,0-.216.532,12.521,12.521,0,0,1,2.956,1.7l.081.062c.559.43,1.723,1.325,1.29,2a.66.66,0,0,1-.66.215,2.1,2.1,0,0,1-.826-.439,10.254,10.254,0,0,1-3.117-3.924.287.287,0,1,0-.523.236,10.827,10.827,0,0,0,3.292,4.144,2.6,2.6,0,0,0,1.067.547,1.378,1.378,0,0,0,.256.024" transform="translate(-1579.191 -1796.854)" fill="#eb6a3b"/>
        <path id="Trazado_782632" data-name="Trazado 782632" d="M1690.252,1900.038a.287.287,0,0,1,.028-.564.291.291,0,0,1,.069-.071,6.036,6.036,0,0,1,4.466-1.06c.566.091.917.383.938.78.02.378-.257.689-.78.875a6.829,6.829,0,0,1-2.224.319,11.5,11.5,0,0,1-2.5-.278m.824-.427a8.4,8.4,0,0,0,3.7-.154c.244-.087.4-.209.4-.3s-.2-.2-.456-.244a5.357,5.357,0,0,0-.851-.068,5.478,5.478,0,0,0-2.8.769" transform="translate(-1581.183 -1776.009)" fill="#eb6a3b"/>
        <path id="Trazado_782633" data-name="Trazado 782633" d="M619.856,2351.559a.287.287,0,0,0,.285-.259c.257-2.625.362-6.006-1.125-8.875-.38-.731-.818-1.121-1.341-1.19a1.543,1.543,0,0,0-1.583,1.385,3.944,3.944,0,0,0,.384,1.976l2.4,6.168a.287.287,0,0,0,.535-.208l-2.4-6.168a3.456,3.456,0,0,1-.352-1.683c.07-.474.489-.959.94-.9.323.042.62.332.907.885,1.418,2.734,1.313,6.008,1.064,8.555a.287.287,0,0,0,.258.314h.028" transform="translate(-576.39 -2190.437)" fill="#eb6a3b"/>
        <path id="Trazado_782634" data-name="Trazado 782634" d="M821.021,2403.494a.287.287,0,0,1-.2-.082l-.024.017a.287.287,0,0,1-.4-.088c-1.624-2.545-2.224-4.616-1.887-6.518a2.4,2.4,0,0,1,.343-.967,1.062,1.062,0,0,1,1.908.144,2.772,2.772,0,0,1,.223.926,50.263,50.263,0,0,1,.319,6.285.287.287,0,0,1-.287.283Zm-1.688-7.312a1.9,1.9,0,0,0-.251.741c-.3,1.695.227,3.567,1.658,5.875a49.645,49.645,0,0,0-.319-5.808,2.243,2.243,0,0,0-.168-.737.6.6,0,0,0-.421-.352l-.04,0a.612.612,0,0,0-.459.283" transform="translate(-765.716 -2241.054)" fill="#eb6a3b"/>
        <path id="Trazado_782635" data-name="Trazado 782635" d="M1053.762,2422.76a.287.287,0,0,0,.279-.219,13.04,13.04,0,0,1,2.152-4.62,5.573,5.573,0,0,1,1.541-1.571c.273-.167.636-.253.771-.084.087.108.079.311-.023.62a12.492,12.492,0,0,1-4.08,5.3.287.287,0,1,0,.371.438,13.021,13.021,0,0,0,4.254-5.562,1.214,1.214,0,0,0-.075-1.159,1.156,1.156,0,0,0-1.519-.046,6.107,6.107,0,0,0-1.71,1.728,13.587,13.587,0,0,0-2.241,4.816.286.286,0,0,0,.279.355" transform="translate(-985.625 -2260.023)" fill="#eb6a3b"/>
        <path id="Trazado_782636" data-name="Trazado 782636" d="M855.1,2388.107a.287.287,0,0,0,.177-.062,21.281,21.281,0,0,0,5.463-6.454,3.28,3.28,0,0,0,.433-1.135,1.419,1.419,0,0,0-.433-1.273,1.383,1.383,0,0,0-1.35-.191,2.814,2.814,0,0,0-1.023.714,15.438,15.438,0,0,0-3.492,7.136.287.287,0,1,0,.557.14,14.9,14.9,0,0,1,3.343-6.873,2.29,2.29,0,0,1,.805-.576.824.824,0,0,1,.789.089.858.858,0,0,1,.233.759,2.8,2.8,0,0,1-.367.934,20.7,20.7,0,0,1-5.314,6.278.287.287,0,0,0,.178.513" transform="translate(-799.757 -2225.687)" fill="#eb6a3b"/>
        <path id="Trazado_782637" data-name="Trazado 782637" d="M2038.108,1286.974c-2.127-1.325-3.257-4.56-3.518-6.319s-.065-3.323-1.238-3.518-1.808.472-2,3.111.5,10.224,2.743,13.711c3.389,1.118,4.016-6.985,4.016-6.985" transform="translate(-1900.49 -1194.853)" fill="#a35f4b"/>
        <path id="Trazado_782638" data-name="Trazado 782638" d="M935.864,724.034c0,4.317,6.4,7.818,14.3,7.818s14.3-3.5,14.3-7.818-6.4-7.818-14.3-7.818-14.3,3.5-14.3,7.818" transform="translate(-875.589 -670.088)" fill="#3b262d"/>
        <path id="Trazado_782639" data-name="Trazado 782639" d="M757.84,781.07c0,3.976,3.821,7.2,8.534,7.2s8.534-3.223,8.534-7.2-3.821-7.2-8.534-7.2-8.534,3.223-8.534,7.2" transform="translate(-709.031 -724.03)" fill="#3b262d"/>
        <path id="Trazado_782640" data-name="Trazado 782640" d="M757.8,794.319c-.13,6.743,4.886,12.671,5.8,16.71s1.866,9.919,1.866,9.919,8.362,1.155,9.4.7,2.019-9.12,3.453-10.423,5.407-.326,5.863-2.15.213-9.582,3.443-10.353,3.593-7.953,3.593-7.953l-7.3-2.736-20.782,10.489Z" transform="translate(-708.995 -737.279)" fill="#3b262d"/>
        <path id="Trazado_782641" data-name="Trazado 782641" d="M1061.807,1084.909c.928,1.946,2.852,2.964,4.3,2.275s1.864-2.825.936-4.771-2.852-2.964-4.3-2.275-1.865,2.825-.937,4.771" transform="translate(-992.959 -1010.37)" fill="#a35f4b"/>
        <path id="Trazado_782642" data-name="Trazado 782642" d="M184.646,2764.243h0Z" transform="translate(-172.754 -2586.211)" fill="#3b262d"/>
        <path id="Trazado_782643" data-name="Trazado 782643" d="M434.268,2755.359H175.106a.657.657,0,0,1,0-1.313H434.268a.657.657,0,1,1,0,1.313" transform="translate(-163.214 -2576.67)" fill="#3b262d"/>
        <g id="Bubble" transform="translate(88.05 18.894)">
          <g id="Grupo_1048652" data-name="Grupo 1048652">
            <rect id="Rectángulo_359539" data-name="Rectángulo 359539" width="33.038" height="30.718" rx="4.53" fill="#407bff"/>
            <path id="Trazado_782229" data-name="Trazado 782229" d="M356.648,84.94s-2.087,10.084-16.308,15.69c0,0,8.7-5.553,8.15-15.69h8.15Z" transform="translate(-336.901 -58.127)" fill="#407bff"/>
            <path id="Trazado_782230" data-name="Trazado 782230" d="M335.96,70.619l4.72,6.555,9.583-11.365" transform="translate(-326.592 -56.128)" fill="none" stroke="#fff" stroke-linecap="round" stroke-linejoin="round" stroke-width="3"/>
          </g>
        </g>
      </g>
    </g>
  </g>
</svg>
