<svg xmlns="http://www.w3.org/2000/svg" width="75.454" height="83.76" viewBox="0 0 75.454 83.76">
  <g id="Grupo_1052582" data-name="Grupo 1052582" transform="translate(-126.67 -75.5)">
    <g id="Grupo_1052615" data-name="Grupo 1052615" transform="translate(126.67 89.197)">
      <g id="Grupo_1052586" data-name="Grupo 1052586" transform="translate(0 62.912)">
        <rect id="Rectángulo_362759" data-name="Rectángulo 362759" width="75.454" height="7.15" fill="#c78860"/>
        <g id="Grupo_1052585" data-name="Grupo 1052585" transform="translate(1.774 1.507)">
          <rect id="Rectángulo_362760" data-name="Rectángulo 362760" width="34.704" height="4.14" fill="#581f15"/>
          <rect id="Rectángulo_362761" data-name="Rectángulo 362761" width="34.701" height="4.14" transform="translate(37.202)" fill="#581f15"/>
        </g>
      </g>
      <g id="Grupo_1052614" data-name="Grupo 1052614" transform="translate(2.975 0)">
        <g id="Grupo_1052589" data-name="Grupo 1052589" transform="translate(47.786 42.494)">
          <rect id="Rectángulo_362762" data-name="Rectángulo 362762" width="21.715" height="19.527" transform="translate(0 0)" fill="#c78860"/>
          <rect id="Rectángulo_362763" data-name="Rectángulo 362763" width="21.715" height="4.398" transform="translate(0 0)" fill="#ab603d"/>
          <g id="Grupo_1052587" data-name="Grupo 1052587" transform="translate(1.72 0)">
            <rect id="Rectángulo_362764" data-name="Rectángulo 362764" width="2.861" height="5.923" fill="#772c23"/>
            <rect id="Rectángulo_362765" data-name="Rectángulo 362765" width="2.855" height="5.923" transform="translate(15.417)" fill="#772c23"/>
          </g>
          <g id="Grupo_1052588" data-name="Grupo 1052588" transform="translate(2.053 13.001)">
            <path id="Trazado_786898" data-name="Trazado 786898" d="M303.291,310.284H304.3v-2.429h.681L303.8,306l-1.186,1.855h.681Z" transform="translate(-302.61 -306)" fill="#8a2a01"/>
            <path id="Trazado_786899" data-name="Trazado 786899" d="M312.241,310.284h1v-2.429h.681L312.743,306l-1.183,1.855h.681Z" transform="translate(-308.873 -306)" fill="#8a2a01"/>
            <rect id="Rectángulo_362766" data-name="Rectángulo 362766" width="5.049" height="0.48" transform="translate(0.003 4.587)" fill="#8a2a01"/>
          </g>
        </g>
        <g id="Grupo_1052592" data-name="Grupo 1052592" transform="translate(23.961 42.494)">
          <rect id="Rectángulo_362767" data-name="Rectángulo 362767" width="21.715" height="19.527" transform="translate(0 0)" fill="#c78860"/>
          <rect id="Rectángulo_362768" data-name="Rectángulo 362768" width="21.715" height="4.398" transform="translate(0 0)" fill="#ab603d"/>
          <g id="Grupo_1052590" data-name="Grupo 1052590" transform="translate(1.723 0)">
            <rect id="Rectángulo_362769" data-name="Rectángulo 362769" width="2.861" height="5.923" fill="#772c23"/>
            <rect id="Rectángulo_362770" data-name="Rectángulo 362770" width="2.858" height="5.923" transform="translate(15.414)" fill="#772c23"/>
          </g>
          <g id="Grupo_1052591" data-name="Grupo 1052591" transform="translate(2.056 13.001)">
            <path id="Trazado_786900" data-name="Trazado 786900" d="M223.931,310.284h1.006v-2.429h.681L224.433,306l-1.183,1.855h.681Z" transform="translate(-223.25 -306)" fill="#8a2a01"/>
            <path id="Trazado_786901" data-name="Trazado 786901" d="M232.874,310.284h1v-2.429h.681L233.376,306l-1.186,1.855h.684Z" transform="translate(-229.506 -306)" fill="#8a2a01"/>
            <rect id="Rectángulo_362771" data-name="Rectángulo 362771" width="5.052" height="0.48" transform="translate(0 4.587)" fill="#8a2a01"/>
          </g>
        </g>
        <g id="Grupo_1052595" data-name="Grupo 1052595" transform="translate(47.786 21.247)">
          <path id="Trazado_786902" data-name="Trazado 786902" d="M317.485,211.44l-21.715,0V191.91h21.715Z" transform="translate(-295.77 -191.91)" fill="#c78860"/>
          <rect id="Rectángulo_362772" data-name="Rectángulo 362772" width="21.715" height="4.398" fill="#ab603d"/>
          <g id="Grupo_1052593" data-name="Grupo 1052593" transform="translate(1.72)">
            <rect id="Rectángulo_362773" data-name="Rectángulo 362773" width="2.861" height="5.926" fill="#772c23"/>
            <rect id="Rectángulo_362774" data-name="Rectángulo 362774" width="2.855" height="5.926" transform="translate(15.417)" fill="#772c23"/>
          </g>
          <g id="Grupo_1052594" data-name="Grupo 1052594" transform="translate(2.053 13.004)">
            <path id="Trazado_786903" data-name="Trazado 786903" d="M303.291,239.514H304.3v-2.432h.681L303.8,235.23l-1.186,1.852h.681Z" transform="translate(-302.61 -235.23)" fill="#8a2a01"/>
            <path id="Trazado_786904" data-name="Trazado 786904" d="M312.241,239.514h1v-2.432h.681l-1.183-1.852-1.183,1.852h.681Z" transform="translate(-308.873 -235.23)" fill="#8a2a01"/>
            <rect id="Rectángulo_362775" data-name="Rectángulo 362775" width="5.049" height="0.477" transform="translate(0.003 4.584)" fill="#8a2a01"/>
          </g>
        </g>
        <g id="Grupo_1052598" data-name="Grupo 1052598" transform="translate(23.961 21.247)">
          <path id="Trazado_786905" data-name="Trazado 786905" d="M238.115,211.44l-21.715,0V191.91h21.715Z" transform="translate(-216.4 -191.91)" fill="#c78860"/>
          <rect id="Rectángulo_362776" data-name="Rectángulo 362776" width="21.715" height="4.398" fill="#ab603d"/>
          <g id="Grupo_1052596" data-name="Grupo 1052596" transform="translate(1.723)">
            <rect id="Rectángulo_362777" data-name="Rectángulo 362777" width="2.861" height="5.926" fill="#772c23"/>
            <rect id="Rectángulo_362778" data-name="Rectángulo 362778" width="2.858" height="5.926" transform="translate(15.414)" fill="#772c23"/>
          </g>
          <g id="Grupo_1052597" data-name="Grupo 1052597" transform="translate(2.056 13.004)">
            <path id="Trazado_786906" data-name="Trazado 786906" d="M223.931,239.514h1.006v-2.432h.681l-1.186-1.852-1.183,1.852h.681Z" transform="translate(-223.25 -235.23)" fill="#8a2a01"/>
            <path id="Trazado_786907" data-name="Trazado 786907" d="M232.874,239.514h1v-2.432h.681l-1.18-1.852-1.186,1.852h.684Z" transform="translate(-229.506 -235.23)" fill="#8a2a01"/>
            <rect id="Rectángulo_362779" data-name="Rectángulo 362779" width="5.052" height="0.477" transform="translate(0 4.584)" fill="#8a2a01"/>
          </g>
        </g>
        <g id="Grupo_1052601" data-name="Grupo 1052601" transform="translate(47.786)">
          <path id="Trazado_786908" data-name="Trazado 786908" d="M317.485,140.663l-21.715-.006V121.13h21.715Z" transform="translate(-295.77 -121.13)" fill="#c78860"/>
          <rect id="Rectángulo_362780" data-name="Rectángulo 362780" width="21.715" height="4.401" fill="#ab603d"/>
          <g id="Grupo_1052599" data-name="Grupo 1052599" transform="translate(1.72)">
            <rect id="Rectángulo_362781" data-name="Rectángulo 362781" width="2.861" height="5.929" fill="#772c23"/>
            <rect id="Rectángulo_362782" data-name="Rectángulo 362782" width="2.855" height="5.929" transform="translate(15.417)" fill="#772c23"/>
          </g>
          <g id="Grupo_1052600" data-name="Grupo 1052600" transform="translate(2.053 13.001)">
            <path id="Trazado_786909" data-name="Trazado 786909" d="M303.291,168.724H304.3V166.3h.681L303.8,164.44,302.61,166.3h.681Z" transform="translate(-302.61 -164.44)" fill="#8a2a01"/>
            <path id="Trazado_786910" data-name="Trazado 786910" d="M312.241,168.724h1V166.3h.681l-1.183-1.855L311.56,166.3h.681Z" transform="translate(-308.873 -164.44)" fill="#8a2a01"/>
            <rect id="Rectángulo_362783" data-name="Rectángulo 362783" width="5.049" height="0.48" transform="translate(0.003 4.587)" fill="#8a2a01"/>
          </g>
        </g>
        <g id="Grupo_1052604" data-name="Grupo 1052604" transform="translate(23.961)">
          <path id="Trazado_786911" data-name="Trazado 786911" d="M238.115,140.663l-21.715-.006V121.13h21.715Z" transform="translate(-216.4 -121.13)" fill="#c78860"/>
          <rect id="Rectángulo_362784" data-name="Rectángulo 362784" width="21.715" height="4.401" fill="#ab603d"/>
          <g id="Grupo_1052602" data-name="Grupo 1052602" transform="translate(1.723)">
            <rect id="Rectángulo_362785" data-name="Rectángulo 362785" width="2.861" height="5.929" fill="#772c23"/>
            <rect id="Rectángulo_362786" data-name="Rectángulo 362786" width="2.858" height="5.929" transform="translate(15.414)" fill="#772c23"/>
          </g>
          <g id="Grupo_1052603" data-name="Grupo 1052603" transform="translate(2.056 13.001)">
            <path id="Trazado_786912" data-name="Trazado 786912" d="M223.931,168.724h1.006V166.3h.681l-1.186-1.855L223.25,166.3h.681Z" transform="translate(-223.25 -164.44)" fill="#8a2a01"/>
            <path id="Trazado_786913" data-name="Trazado 786913" d="M232.874,168.724h1V166.3h.681l-1.18-1.855L232.19,166.3h.684Z" transform="translate(-229.506 -164.44)" fill="#8a2a01"/>
            <rect id="Rectángulo_362787" data-name="Rectángulo 362787" width="5.052" height="0.48" transform="translate(0 4.587)" fill="#8a2a01"/>
          </g>
        </g>
        <g id="Grupo_1052607" data-name="Grupo 1052607" transform="translate(0 42.494)">
          <rect id="Rectángulo_362788" data-name="Rectángulo 362788" width="21.715" height="19.527" transform="translate(0 0)" fill="#c78860"/>
          <rect id="Rectángulo_362789" data-name="Rectángulo 362789" width="21.715" height="4.398" transform="translate(0 0)" fill="#ab603d"/>
          <g id="Grupo_1052605" data-name="Grupo 1052605" transform="translate(1.72 0)">
            <rect id="Rectángulo_362790" data-name="Rectángulo 362790" width="2.861" height="5.923" fill="#772c23"/>
            <rect id="Rectángulo_362791" data-name="Rectángulo 362791" width="2.861" height="5.923" transform="translate(15.417)" fill="#772c23"/>
          </g>
          <g id="Grupo_1052606" data-name="Grupo 1052606" transform="translate(2.056 13.001)">
            <path id="Trazado_786914" data-name="Trazado 786914" d="M144.114,310.284h1v-2.429h.681L144.613,306l-1.183,1.855h.684Z" transform="translate(-143.43 -306)" fill="#8a2a01"/>
            <path id="Trazado_786915" data-name="Trazado 786915" d="M153.051,310.284h1v-2.429h.681L153.553,306l-1.183,1.855h.681Z" transform="translate(-149.686 -306)" fill="#8a2a01"/>
            <rect id="Rectángulo_362792" data-name="Rectángulo 362792" width="5.052" height="0.48" transform="translate(0 4.587)" fill="#8a2a01"/>
          </g>
        </g>
        <g id="Grupo_1052610" data-name="Grupo 1052610" transform="translate(0 21.247)">
          <path id="Trazado_786916" data-name="Trazado 786916" d="M158.3,211.44l-21.715,0V191.91H158.3Z" transform="translate(-136.58 -191.91)" fill="#c78860"/>
          <rect id="Rectángulo_362793" data-name="Rectángulo 362793" width="21.715" height="4.398" fill="#ab603d"/>
          <g id="Grupo_1052608" data-name="Grupo 1052608" transform="translate(1.72)">
            <rect id="Rectángulo_362794" data-name="Rectángulo 362794" width="2.861" height="5.926" fill="#772c23"/>
            <rect id="Rectángulo_362795" data-name="Rectángulo 362795" width="2.861" height="5.926" transform="translate(15.417)" fill="#772c23"/>
          </g>
          <g id="Grupo_1052609" data-name="Grupo 1052609" transform="translate(2.056 13.004)">
            <path id="Trazado_786917" data-name="Trazado 786917" d="M144.114,239.514h1v-2.432h.681l-1.186-1.852-1.183,1.852h.684Z" transform="translate(-143.43 -235.23)" fill="#8a2a01"/>
            <path id="Trazado_786918" data-name="Trazado 786918" d="M153.051,239.514h1v-2.432h.681l-1.183-1.852-1.183,1.852h.681Z" transform="translate(-149.686 -235.23)" fill="#8a2a01"/>
            <rect id="Rectángulo_362796" data-name="Rectángulo 362796" width="5.052" height="0.477" transform="translate(0 4.584)" fill="#8a2a01"/>
          </g>
        </g>
        <g id="Grupo_1052613" data-name="Grupo 1052613">
          <path id="Trazado_786919" data-name="Trazado 786919" d="M158.3,140.663l-21.715-.006V121.13H158.3Z" transform="translate(-136.58 -121.13)" fill="#c78860"/>
          <rect id="Rectángulo_362797" data-name="Rectángulo 362797" width="21.715" height="4.401" fill="#ab603d"/>
          <g id="Grupo_1052611" data-name="Grupo 1052611" transform="translate(1.72)">
            <rect id="Rectángulo_362798" data-name="Rectángulo 362798" width="2.861" height="5.929" fill="#772c23"/>
            <rect id="Rectángulo_362799" data-name="Rectángulo 362799" width="2.861" height="5.929" transform="translate(15.417)" fill="#772c23"/>
          </g>
          <g id="Grupo_1052612" data-name="Grupo 1052612" transform="translate(2.056 13.001)">
            <path id="Trazado_786920" data-name="Trazado 786920" d="M144.114,168.724h1V166.3h.681l-1.186-1.855L143.43,166.3h.684Z" transform="translate(-143.43 -164.44)" fill="#8a2a01"/>
            <path id="Trazado_786921" data-name="Trazado 786921" d="M153.051,168.724h1V166.3h.681l-1.183-1.855L152.37,166.3h.681Z" transform="translate(-149.686 -164.44)" fill="#8a2a01"/>
            <rect id="Rectángulo_362800" data-name="Rectángulo 362800" width="5.052" height="0.48" transform="translate(0 4.587)" fill="#8a2a01"/>
          </g>
        </g>
      </g>
    </g>
    <g id="Grupo_1052627" data-name="Grupo 1052627" transform="translate(146.529 75.5)">
      <g id="Grupo_1052619" data-name="Grupo 1052619" transform="translate(0 0)">
        <path id="Trazado_786922" data-name="Trazado 786922" d="M110.551,74.2h32.732a1.5,1.5,0,0,1,1.5,1.5v44.67a1.5,1.5,0,0,1-1.5,1.5H110.551a1.5,1.5,0,0,1-1.5-1.5V75.7A1.5,1.5,0,0,1,110.551,74.2Z" transform="translate(-109.05 -67.686)" fill="#4a4a49"/>
        <g id="Grupo_1052617" data-name="Grupo 1052617" transform="translate(2.176 9.783)">
          <rect id="Rectángulo_362801" data-name="Rectángulo 362801" width="31.381" height="41.431" fill="#fff"/>
          <g id="Grupo_1052616" data-name="Grupo 1052616" transform="translate(2.684 4.125)">
            <rect id="Rectángulo_362802" data-name="Rectángulo 362802" width="26.014" height="1.204" fill="#b2b2b2"/>
            <rect id="Rectángulo_362803" data-name="Rectángulo 362803" width="26.014" height="1.204" transform="translate(0 2.501)" fill="#b2b2b2"/>
            <rect id="Rectángulo_362804" data-name="Rectángulo 362804" width="26.014" height="1.204" transform="translate(0 5.001)" fill="#b2b2b2"/>
            <rect id="Rectángulo_362805" data-name="Rectángulo 362805" width="26.014" height="1.204" transform="translate(0 7.499)" fill="#b2b2b2"/>
            <rect id="Rectángulo_362806" data-name="Rectángulo 362806" width="26.014" height="1.204" transform="translate(0 9.999)" fill="#b2b2b2"/>
            <rect id="Rectángulo_362807" data-name="Rectángulo 362807" width="26.014" height="1.204" transform="translate(0 12.497)" fill="#b2b2b2"/>
            <rect id="Rectángulo_362808" data-name="Rectángulo 362808" width="26.014" height="1.204" transform="translate(0 14.997)" fill="#b2b2b2"/>
            <rect id="Rectángulo_362809" data-name="Rectángulo 362809" width="26.014" height="1.204" transform="translate(0 17.498)" fill="#b2b2b2"/>
            <rect id="Rectángulo_362810" data-name="Rectángulo 362810" width="26.014" height="1.204" transform="translate(0 19.998)" fill="#b2b2b2"/>
            <rect id="Rectángulo_362811" data-name="Rectángulo 362811" width="26.014" height="1.204" transform="translate(0 22.496)" fill="#b2b2b2"/>
            <rect id="Rectángulo_362812" data-name="Rectángulo 362812" width="26.014" height="1.204" transform="translate(0 24.996)" fill="#b2b2b2"/>
            <rect id="Rectángulo_362813" data-name="Rectángulo 362813" width="26.014" height="1.204" transform="translate(0 27.497)" fill="#b2b2b2"/>
            <rect id="Rectángulo_362814" data-name="Rectángulo 362814" width="26.014" height="1.204" transform="translate(0 29.994)" fill="#b2b2b2"/>
            <rect id="Rectángulo_362815" data-name="Rectángulo 362815" width="26.014" height="1.204" transform="translate(0 32.495)" fill="#b2b2b2"/>
          </g>
        </g>
        <g id="Grupo_1052618" data-name="Grupo 1052618" transform="translate(7.697)">
          <path id="Trazado_786923" data-name="Trazado 786923" d="M153.483,56.309h-2.852V54.058a1.557,1.557,0,0,0-1.558-1.558h-8.4a1.558,1.558,0,0,0-1.558,1.558v2.251h-2.852a1.559,1.559,0,0,0-1.558,1.561v5.887h20.337V57.87a1.559,1.559,0,0,0-1.558-1.561Zm-8.609-1.126a.9.9,0,1,1,.9-.9A.9.9,0,0,1,144.874,55.184Z" transform="translate(-134.704 -52.5)" fill="#878787"/>
          <rect id="Rectángulo_362816" data-name="Rectángulo 362816" width="20.337" height="1.471" transform="translate(0 9.783)" fill="#3c3c3b"/>
        </g>
      </g>
      <g id="Grupo_1052626" data-name="Grupo 1052626" transform="translate(5.611 17.348)">
        <g id="Grupo_1052622" data-name="Grupo 1052622" transform="translate(2.23 3.052)">
          <rect id="Rectángulo_362817" data-name="Rectángulo 362817" width="22.285" height="29.449" fill="#ebebeb"/>
          <g id="Grupo_1052621" data-name="Grupo 1052621" transform="translate(1.228 1.932)">
            <rect id="Rectángulo_362818" data-name="Rectángulo 362818" width="19.827" height="0.612" transform="translate(0 11.322)" fill="#bbbaba"/>
            <rect id="Rectángulo_362819" data-name="Rectángulo 362819" width="13.101" height="0.612" transform="translate(0 25.42)" fill="#bbbaba"/>
            <rect id="Rectángulo_362820" data-name="Rectángulo 362820" width="19.827" height="0.61" transform="translate(0 9.743)" fill="#bbbaba"/>
            <rect id="Rectángulo_362821" data-name="Rectángulo 362821" width="19.827" height="0.61" transform="translate(0 8.16)" fill="#bbbaba"/>
            <rect id="Rectángulo_362822" data-name="Rectángulo 362822" width="19.827" height="0.612" transform="translate(0 6.577)" fill="#bbbaba"/>
            <rect id="Rectángulo_362823" data-name="Rectángulo 362823" width="19.827" height="0.61" transform="translate(0 4.996)" fill="#bbbaba"/>
            <rect id="Rectángulo_362824" data-name="Rectángulo 362824" width="19.827" height="0.612" transform="translate(0 3.411)" fill="#bbbaba"/>
            <rect id="Rectángulo_362825" data-name="Rectángulo 362825" width="19.827" height="0.612" transform="translate(0 1.83)" fill="#bbbaba"/>
            <rect id="Rectángulo_362826" data-name="Rectángulo 362826" width="9.855" height="0.612" transform="translate(4.986)" fill="#bbbaba"/>
            <g id="Grupo_1052620" data-name="Grupo 1052620" transform="translate(2.595 13.929)">
              <rect id="Rectángulo_362827" data-name="Rectángulo 362827" width="1.544" height="10.379" fill="#3c3c3b"/>
              <rect id="Rectángulo_362828" data-name="Rectángulo 362828" width="1.544" height="10.379" transform="translate(2.64)" fill="#3c3c3b"/>
              <rect id="Rectángulo_362829" data-name="Rectángulo 362829" width="1.544" height="10.379" transform="translate(5.279)" fill="#3c3c3b"/>
              <rect id="Rectángulo_362830" data-name="Rectángulo 362830" width="1.544" height="10.379" transform="translate(7.917)" fill="#3c3c3b"/>
              <rect id="Rectángulo_362831" data-name="Rectángulo 362831" width="1.544" height="10.379" transform="translate(10.559)" fill="#3c3c3b"/>
              <rect id="Rectángulo_362832" data-name="Rectángulo 362832" width="1.544" height="10.379" transform="translate(13.199)" fill="#3c3c3b"/>
              <rect id="Rectángulo_362833" data-name="Rectángulo 362833" width="1.544" height="8.072" transform="translate(0 2.307)" fill="#71cbf4"/>
              <rect id="Rectángulo_362834" data-name="Rectángulo 362834" width="1.544" height="1.089" transform="translate(2.64 9.29)" fill="#71cbf4"/>
              <rect id="Rectángulo_362835" data-name="Rectángulo 362835" width="1.544" height="4.1" transform="translate(5.279 6.279)" fill="#71cbf4"/>
              <rect id="Rectángulo_362836" data-name="Rectángulo 362836" width="1.544" height="9.417" transform="translate(7.917 0.963)" fill="#71cbf4"/>
              <rect id="Rectángulo_362837" data-name="Rectángulo 362837" width="1.544" height="2.948" transform="translate(10.559 7.432)" fill="#71cbf4"/>
              <rect id="Rectángulo_362838" data-name="Rectángulo 362838" width="1.544" height="6.279" transform="translate(13.199 4.1)" fill="#71cbf4"/>
            </g>
          </g>
        </g>
        <g id="Grupo_1052625" data-name="Grupo 1052625">
          <rect id="Rectángulo_362839" data-name="Rectángulo 362839" width="22.285" height="29.449" fill="#f2f2f2"/>
          <g id="Grupo_1052624" data-name="Grupo 1052624" transform="translate(1.228 1.934)">
            <rect id="Rectángulo_362840" data-name="Rectángulo 362840" width="19.827" height="0.612" transform="translate(0 11.322)" fill="#bbbaba"/>
            <rect id="Rectángulo_362841" data-name="Rectángulo 362841" width="13.101" height="0.612" transform="translate(0 25.42)" fill="#bbbaba"/>
            <rect id="Rectángulo_362842" data-name="Rectángulo 362842" width="19.827" height="0.612" transform="translate(0 9.741)" fill="#bbbaba"/>
            <rect id="Rectángulo_362843" data-name="Rectángulo 362843" width="19.827" height="0.61" transform="translate(0 8.158)" fill="#bbbaba"/>
            <rect id="Rectángulo_362844" data-name="Rectángulo 362844" width="19.827" height="0.612" transform="translate(0 6.577)" fill="#bbbaba"/>
            <rect id="Rectángulo_362845" data-name="Rectángulo 362845" width="19.827" height="0.612" transform="translate(0 4.994)" fill="#bbbaba"/>
            <rect id="Rectángulo_362846" data-name="Rectángulo 362846" width="19.827" height="0.612" transform="translate(0 3.411)" fill="#bbbaba"/>
            <rect id="Rectángulo_362847" data-name="Rectángulo 362847" width="19.827" height="0.612" transform="translate(0 1.83)" fill="#bbbaba"/>
            <rect id="Rectángulo_362848" data-name="Rectángulo 362848" width="9.855" height="0.612" transform="translate(4.986)" fill="#bbbaba"/>
            <g id="Grupo_1052623" data-name="Grupo 1052623" transform="translate(2.593 13.929)">
              <rect id="Rectángulo_362849" data-name="Rectángulo 362849" width="1.544" height="10.379" fill="#3c3c3b"/>
              <rect id="Rectángulo_362850" data-name="Rectángulo 362850" width="1.544" height="10.379" transform="translate(2.64)" fill="#3c3c3b"/>
              <rect id="Rectángulo_362851" data-name="Rectángulo 362851" width="1.544" height="10.379" transform="translate(5.279)" fill="#3c3c3b"/>
              <rect id="Rectángulo_362852" data-name="Rectángulo 362852" width="1.544" height="10.379" transform="translate(7.919)" fill="#3c3c3b"/>
              <rect id="Rectángulo_362853" data-name="Rectángulo 362853" width="1.544" height="10.379" transform="translate(10.559)" fill="#3c3c3b"/>
              <rect id="Rectángulo_362854" data-name="Rectángulo 362854" width="1.542" height="10.379" transform="translate(13.199)" fill="#3c3c3b"/>
              <rect id="Rectángulo_362855" data-name="Rectángulo 362855" width="1.544" height="8.072" transform="translate(0 2.305)" fill="#71cbf4"/>
              <rect id="Rectángulo_362856" data-name="Rectángulo 362856" width="1.544" height="1.087" transform="translate(2.64 9.29)" fill="#71cbf4"/>
              <rect id="Rectángulo_362857" data-name="Rectángulo 362857" width="1.544" height="4.1" transform="translate(5.279 6.279)" fill="#71cbf4"/>
              <rect id="Rectángulo_362858" data-name="Rectángulo 362858" width="1.544" height="9.417" transform="translate(7.919 0.961)" fill="#71cbf4"/>
              <rect id="Rectángulo_362859" data-name="Rectángulo 362859" width="1.544" height="2.948" transform="translate(10.559 7.432)" fill="#71cbf4"/>
              <rect id="Rectángulo_362860" data-name="Rectángulo 362860" width="1.542" height="6.279" transform="translate(13.199 4.1)" fill="#71cbf4"/>
            </g>
          </g>
        </g>
      </g>
    </g>
  </g>
</svg>
