<svg xmlns="http://www.w3.org/2000/svg" xmlns:xlink="http://www.w3.org/1999/xlink" width="66.33" height="66.33" viewBox="0 0 66.33 66.33">
  <defs>
    <linearGradient id="linear-gradient" x1="0.002" y1="0.053" x2="0.819" y2="0.806" gradientUnits="objectBoundingBox">
      <stop offset="0"/>
      <stop offset="1" stop-opacity="0"/>
    </linearGradient>
  </defs>
  <g id="Grupo_1054928" data-name="Grupo 1054928" transform="translate(-4859 11023)">
    <path id="Trazado_736853" data-name="Trazado 736853" d="M33.165,0A33.165,33.165,0,1,1,0,33.165,33.165,33.165,0,0,1,33.165,0Z" transform="translate(4859 -11023)" fill="#f2642a"/>
    <g id="numero-5" transform="translate(4865.03 -11016.97)">
      <path id="Trazado_736856" data-name="Trazado 736856" d="M27.135,0A27.135,27.135,0,1,1,0,27.135,27.135,27.135,0,0,1,27.135,0Z" transform="translate(0 0)" fill="#ff6e33"/>
      <path id="Trazado_736854" data-name="Trazado 736854" d="M199.882,147,181.3,128.421H165.256l-1.512,14.11.691.894,3.314,3.314h-4.675A9.074,9.074,0,0,0,165.6,153.2l15.131,15.131A27.17,27.17,0,0,0,199.882,147Z" transform="translate(-146.024 -115.133)" opacity="0.49" fill="url(#linear-gradient)"/>
      <path id="Trazado_736855" data-name="Trazado 736855" d="M173.017,137.684c6.061,0,10.229,3.71,10.229,9.017,0,5.5-4.215,9.418-10.118,9.418s-10.055-3.884-10.055-9.376h6.943a3.014,3.014,0,0,0,3.112,3.153,3.047,3.047,0,0,0,3.078-3.195,3.149,3.149,0,0,0-3.347-3.271h-8.424l-.691-.894,1.512-14.11H181.3v6.17H170.839l-.341,3.089h2.518Z" transform="translate(-146.024 -115.137)" fill="#fff"/>
    </g>
  </g>
</svg>
