<svg xmlns="http://www.w3.org/2000/svg" xmlns:xlink="http://www.w3.org/1999/xlink" width="1240" height="476" viewBox="0 0 1240 476">
  <defs>
    <clipPath id="clip-path">
      <rect id="Rectángulo_356078" data-name="Rectángulo 356078" width="1240" height="476" rx="10" transform="translate(180 4094)" fill="#1448d3" opacity="0.36"/>
    </clipPath>
    <clipPath id="clip-path-2">
      <rect id="Rectángulo_347030" data-name="Rectángulo 347030" width="1309.919" height="476" transform="translate(0 0)" fill="#1448d3" opacity="0.51"/>
    </clipPath>
    <clipPath id="clip-path-3">
      <path id="Trazado_715961" data-name="Trazado 715961" d="M159.4,50.7A76.859,76.859,0,1,1,105.05,28.187,76.863,76.863,0,0,1,159.4,50.7" transform="translate(-28.187 -28.187)" fill="#9df5f7"/>
    </clipPath>
    <clipPath id="clip-path-4">
      <path id="Trazado_716044" data-name="Trazado 716044" d="M90.044,0A90.042,90.042,0,1,1,0,90.043,90.042,90.042,0,0,1,90.044,0Z" transform="translate(0 -0.001)" fill="#9df5f7"/>
    </clipPath>
    <clipPath id="clip-path-5">
      <path id="Trazado_716048" data-name="Trazado 716048" d="M5.57.391A2.486,2.486,0,0,0,5.87,0L.3,9.037a2.491,2.491,0,0,1-.3.392Z" fill="none"/>
    </clipPath>
    <clipPath id="clip-path-6">
      <path id="Trazado_716051" data-name="Trazado 716051" d="M5.572.389A2.547,2.547,0,0,0,5.869,0L.3,9.038a2.383,2.383,0,0,1-.3.389Z" transform="translate(0 0)" fill="none"/>
    </clipPath>
    <clipPath id="clip-path-7">
      <path id="Trazado_716054" data-name="Trazado 716054" d="M5.573.392A2.492,2.492,0,0,0,5.872,0L.3,9.037A2.683,2.683,0,0,1,0,9.43Z" fill="none"/>
    </clipPath>
    <clipPath id="clip-path-8">
      <path id="Trazado_716057" data-name="Trazado 716057" d="M5.573.389A2.388,2.388,0,0,0,5.869,0L.3,9.038a2.556,2.556,0,0,1-.3.389Z" fill="none"/>
    </clipPath>
    <clipPath id="clip-path-9">
      <rect id="Rectángulo_347018" data-name="Rectángulo 347018" width="999.683" height="453.791" fill="none"/>
    </clipPath>
    <clipPath id="clip-path-10">
      <path id="Trazado_716070" data-name="Trazado 716070" d="M3.475,15.77C.589,13.7-.707,10.805.384,9.038L5.955,0c-1.09,1.767.205,4.661,3.092,6.732,3.149,2.26,6.937,2.7,8.52.991L12,16.761A3.823,3.823,0,0,1,9.127,17.8a10.144,10.144,0,0,1-5.653-2.03" transform="translate(0)" fill="none"/>
    </clipPath>
    <clipPath id="clip-path-12">
      <path id="Trazado_716083" data-name="Trazado 716083" d="M3.478,15.767C.576,13.683-.7,10.8.386,9.037L5.957,0c-1.089,1.766.191,4.647,3.094,6.729,3.11,2.232,6.919,2.682,8.5.977l-5.572,9.038a3.822,3.822,0,0,1-2.87,1.036,10.114,10.114,0,0,1-5.633-2.013" transform="translate(0 0)" fill="none"/>
    </clipPath>
    <clipPath id="clip-path-14">
      <path id="Trazado_716096" data-name="Trazado 716096" d="M3.466,15.779C.582,13.709-.705,10.807.385,9.038L5.957,0c-1.092,1.769.2,4.671,3.082,6.741C12.188,9,15.987,9.427,17.57,7.723L12,16.761A3.835,3.835,0,0,1,9.116,17.8a10.143,10.143,0,0,1-5.65-2.024" transform="translate(0 0)" fill="none"/>
    </clipPath>
    <clipPath id="clip-path-16">
      <path id="Trazado_716109" data-name="Trazado 716109" d="M3.471,15.775C.57,13.694-.7,10.805.387,9.037L5.958,0c-1.09,1.767.181,4.656,3.084,6.737,3.112,2.234,6.93,2.673,8.513.967l-5.573,9.038A3.834,3.834,0,0,1,9.1,17.783a10.1,10.1,0,0,1-5.629-2.008" transform="translate(0 0)" fill="none"/>
    </clipPath>
  </defs>
  <g id="Enmascarar_grupo_631" data-name="Enmascarar grupo 631" transform="translate(-180 -4094)" clip-path="url(#clip-path)">
    <g id="Grupo_1023393" data-name="Grupo 1023393" transform="translate(6800 13889.525)">
      <rect id="Rectángulo_347002" data-name="Rectángulo 347002" width="1309.919" height="476" transform="translate(-6620 -9795.525)" fill="#e6fdfd"/>
      <g id="Enmascarar_grupo_67" data-name="Enmascarar grupo 67" transform="translate(-6619.276 -9795.525)" clip-path="url(#clip-path-2)">
        <g id="Grupo_1008049" data-name="Grupo 1008049" transform="translate(-119.713 96.439)">
          <path id="Trazado_715959" data-name="Trazado 715959" d="M132.665,0A132.665,132.665,0,1,1,0,132.665,132.665,132.665,0,0,1,132.665,0Z" fill="#bbfbfd" opacity="0.51"/>
          <g id="Grupo_1008048" data-name="Grupo 1008048" transform="translate(58.587 42.656)">
            <g id="Grupo_1008047" data-name="Grupo 1008047" transform="translate(0 0)" clip-path="url(#clip-path-3)">
              <rect id="Rectángulo_347005" data-name="Rectángulo 347005" width="197.151" height="1.088" transform="translate(94.434 198.699) rotate(-135)" fill="#9df5f7"/>
              <rect id="Rectángulo_347006" data-name="Rectángulo 347006" width="197.151" height="1.088" transform="translate(102.396 190.738) rotate(-135)" fill="#9df5f7"/>
              <rect id="Rectángulo_347007" data-name="Rectángulo 347007" width="197.151" height="1.088" transform="translate(110.356 182.777) rotate(-135)" fill="#9df5f7"/>
              <rect id="Rectángulo_347008" data-name="Rectángulo 347008" width="197.151" height="1.088" transform="translate(118.318 174.816) rotate(-135)" fill="#9df5f7"/>
              <rect id="Rectángulo_347009" data-name="Rectángulo 347009" width="197.151" height="1.088" transform="translate(126.278 166.855) rotate(-135)" fill="#9df5f7"/>
              <path id="Trazado_715960" data-name="Trazado 715960" d="M39.918,40.688,179.325,180.1l.769-.771L40.687,39.918Z" transform="translate(-45.085 -21.201)" fill="#9df5f7"/>
              <rect id="Rectángulo_347010" data-name="Rectángulo 347010" width="197.151" height="1.088" transform="translate(142.201 150.932) rotate(-135)" fill="#9df5f7"/>
              <rect id="Rectángulo_347011" data-name="Rectángulo 347011" width="197.151" height="1.088" transform="translate(150.161 142.972) rotate(-135)" fill="#9df5f7"/>
              <rect id="Rectángulo_347012" data-name="Rectángulo 347012" width="197.151" height="1.088" transform="translate(158.123 135.01) rotate(-135)" fill="#9df5f7"/>
              <rect id="Rectángulo_347013" data-name="Rectángulo 347013" width="197.151" height="1.088" transform="translate(166.085 127.048) rotate(-135)" fill="#9df5f7"/>
              <rect id="Rectángulo_347014" data-name="Rectángulo 347014" width="197.151" height="1.088" transform="translate(174.045 119.088) rotate(-135)" fill="#9df5f7"/>
              <rect id="Rectángulo_347015" data-name="Rectángulo 347015" width="197.151" height="1.088" transform="translate(182.007 111.126) rotate(-135)" fill="#9df5f7"/>
              <rect id="Rectángulo_347016" data-name="Rectángulo 347016" width="197.151" height="1.088" transform="translate(189.967 103.166) rotate(-135)" fill="#9df5f7"/>
              <rect id="Rectángulo_347017" data-name="Rectángulo 347017" width="197.151" height="1.088" transform="translate(197.929 95.205) rotate(-135)" fill="#9df5f7"/>
            </g>
          </g>
        </g>
        <g id="Grupo_1008052" data-name="Grupo 1008052" transform="translate(942.591 -143.246)">
          <path id="Trazado_715962" data-name="Trazado 715962" d="M239.684,0C372.058,0,479.369,107.31,479.369,239.684S372.058,479.369,239.684,479.369,0,372.058,0,239.684,107.31,0,239.684,0Z" transform="translate(0)" fill="#bef6f9"/>
          <g id="Grupo_1008051" data-name="Grupo 1008051" transform="translate(260.925 255.625)">
            <g id="Grupo_1008050" data-name="Grupo 1008050" transform="translate(0 0)" clip-path="url(#clip-path-4)">
              <path id="Trazado_715963" data-name="Trazado 715963" d="M0,2.369A2.37,2.37,0,1,1,2.369,4.738,2.369,2.369,0,0,1,0,2.369" transform="translate(175.346 -0.002)" fill="#9df5f7"/>
              <path id="Trazado_715964" data-name="Trazado 715964" d="M10.076,2.369a2.369,2.369,0,1,1,2.369,2.369,2.369,2.369,0,0,1-2.369-2.369" transform="translate(143.352 -0.002)" fill="#9df5f7"/>
              <path id="Trazado_715965" data-name="Trazado 715965" d="M20.151,2.369A2.369,2.369,0,1,1,22.52,4.738a2.369,2.369,0,0,1-2.369-2.369" transform="translate(111.358 -0.002)" fill="#9df5f7"/>
              <path id="Trazado_715966" data-name="Trazado 715966" d="M30.225,2.369a2.37,2.37,0,1,1,2.369,2.369,2.369,2.369,0,0,1-2.369-2.369" transform="translate(79.366 -0.002)" fill="#9df5f7"/>
              <path id="Trazado_715967" data-name="Trazado 715967" d="M40.3,2.369A2.369,2.369,0,1,1,42.67,4.738,2.369,2.369,0,0,1,40.3,2.369" transform="translate(47.372 -0.002)" fill="#9df5f7"/>
              <path id="Trazado_715968" data-name="Trazado 715968" d="M50.376,2.369a2.369,2.369,0,1,1,2.369,2.369,2.369,2.369,0,0,1-2.369-2.369" transform="translate(15.379 -0.002)" fill="#9df5f7"/>
              <path id="Trazado_715969" data-name="Trazado 715969" d="M60.45,2.369a2.37,2.37,0,1,1,2.369,2.369A2.369,2.369,0,0,1,60.45,2.369" transform="translate(-16.614 -0.002)" fill="#9df5f7"/>
              <path id="Trazado_715970" data-name="Trazado 715970" d="M70.526,2.369A2.369,2.369,0,1,1,72.9,4.738a2.369,2.369,0,0,1-2.369-2.369" transform="translate(-48.608 -0.002)" fill="#9df5f7"/>
              <path id="Trazado_715971" data-name="Trazado 715971" d="M80.6,2.369a2.37,2.37,0,1,1,2.369,2.369A2.369,2.369,0,0,1,80.6,2.369" transform="translate(-80.6 -0.002)" fill="#9df5f7"/>
              <path id="Trazado_715972" data-name="Trazado 715972" d="M0,12.444a2.37,2.37,0,1,1,2.369,2.369A2.369,2.369,0,0,1,0,12.444" transform="translate(175.346 11.841)" fill="#9df5f7"/>
              <path id="Trazado_715973" data-name="Trazado 715973" d="M10.076,12.444a2.369,2.369,0,1,1,2.369,2.369,2.369,2.369,0,0,1-2.369-2.369" transform="translate(143.352 11.841)" fill="#9df5f7"/>
              <path id="Trazado_715974" data-name="Trazado 715974" d="M20.151,12.444a2.369,2.369,0,1,1,2.369,2.369,2.369,2.369,0,0,1-2.369-2.369" transform="translate(111.358 11.841)" fill="#9df5f7"/>
              <path id="Trazado_715975" data-name="Trazado 715975" d="M30.225,12.444a2.37,2.37,0,1,1,2.369,2.369,2.369,2.369,0,0,1-2.369-2.369" transform="translate(79.366 11.841)" fill="#9df5f7"/>
              <path id="Trazado_715976" data-name="Trazado 715976" d="M40.3,12.444a2.369,2.369,0,1,1,2.369,2.369A2.369,2.369,0,0,1,40.3,12.444" transform="translate(47.372 11.841)" fill="#9df5f7"/>
              <path id="Trazado_715977" data-name="Trazado 715977" d="M50.376,12.444a2.369,2.369,0,1,1,2.369,2.369,2.369,2.369,0,0,1-2.369-2.369" transform="translate(15.379 11.841)" fill="#9df5f7"/>
              <path id="Trazado_715978" data-name="Trazado 715978" d="M60.45,12.444a2.37,2.37,0,1,1,2.369,2.369,2.369,2.369,0,0,1-2.369-2.369" transform="translate(-16.614 11.841)" fill="#9df5f7"/>
              <path id="Trazado_715979" data-name="Trazado 715979" d="M70.526,12.444A2.369,2.369,0,1,1,72.9,14.813a2.369,2.369,0,0,1-2.369-2.369" transform="translate(-48.608 11.841)" fill="#9df5f7"/>
              <path id="Trazado_715980" data-name="Trazado 715980" d="M80.6,12.444a2.37,2.37,0,1,1,2.369,2.369A2.369,2.369,0,0,1,80.6,12.444" transform="translate(-80.6 11.841)" fill="#9df5f7"/>
              <path id="Trazado_715981" data-name="Trazado 715981" d="M0,22.519a2.37,2.37,0,1,1,2.369,2.369A2.369,2.369,0,0,1,0,22.519" transform="translate(175.346 23.684)" fill="#9df5f7"/>
              <path id="Trazado_715982" data-name="Trazado 715982" d="M10.076,22.519a2.369,2.369,0,1,1,2.369,2.369,2.369,2.369,0,0,1-2.369-2.369" transform="translate(143.352 23.684)" fill="#9df5f7"/>
              <path id="Trazado_715983" data-name="Trazado 715983" d="M20.151,22.519a2.369,2.369,0,1,1,2.369,2.369,2.369,2.369,0,0,1-2.369-2.369" transform="translate(111.358 23.684)" fill="#9df5f7"/>
              <path id="Trazado_715984" data-name="Trazado 715984" d="M30.225,22.519a2.37,2.37,0,1,1,2.369,2.369,2.369,2.369,0,0,1-2.369-2.369" transform="translate(79.366 23.684)" fill="#9df5f7"/>
              <path id="Trazado_715985" data-name="Trazado 715985" d="M40.3,22.519a2.369,2.369,0,1,1,2.369,2.369A2.369,2.369,0,0,1,40.3,22.519" transform="translate(47.372 23.684)" fill="#9df5f7"/>
              <path id="Trazado_715986" data-name="Trazado 715986" d="M50.376,22.519a2.369,2.369,0,1,1,2.369,2.369,2.369,2.369,0,0,1-2.369-2.369" transform="translate(15.379 23.684)" fill="#9df5f7"/>
              <path id="Trazado_715987" data-name="Trazado 715987" d="M60.45,22.519a2.37,2.37,0,1,1,2.369,2.369,2.369,2.369,0,0,1-2.369-2.369" transform="translate(-16.614 23.684)" fill="#9df5f7"/>
              <path id="Trazado_715988" data-name="Trazado 715988" d="M70.526,22.519A2.369,2.369,0,1,1,72.9,24.888a2.369,2.369,0,0,1-2.369-2.369" transform="translate(-48.608 23.684)" fill="#9df5f7"/>
              <path id="Trazado_715989" data-name="Trazado 715989" d="M80.6,22.519a2.37,2.37,0,1,1,2.369,2.369A2.369,2.369,0,0,1,80.6,22.519" transform="translate(-80.6 23.684)" fill="#9df5f7"/>
              <path id="Trazado_715990" data-name="Trazado 715990" d="M0,32.594a2.37,2.37,0,1,1,2.369,2.369A2.369,2.369,0,0,1,0,32.594" transform="translate(175.346 35.528)" fill="#9df5f7"/>
              <path id="Trazado_715991" data-name="Trazado 715991" d="M10.076,32.594a2.369,2.369,0,1,1,2.369,2.369,2.369,2.369,0,0,1-2.369-2.369" transform="translate(143.352 35.528)" fill="#9df5f7"/>
              <path id="Trazado_715992" data-name="Trazado 715992" d="M20.151,32.594a2.369,2.369,0,1,1,2.369,2.369,2.369,2.369,0,0,1-2.369-2.369" transform="translate(111.358 35.528)" fill="#9df5f7"/>
              <path id="Trazado_715993" data-name="Trazado 715993" d="M30.225,32.594a2.37,2.37,0,1,1,2.369,2.369,2.369,2.369,0,0,1-2.369-2.369" transform="translate(79.366 35.528)" fill="#9df5f7"/>
              <path id="Trazado_715994" data-name="Trazado 715994" d="M40.3,32.594a2.369,2.369,0,1,1,2.369,2.369A2.369,2.369,0,0,1,40.3,32.594" transform="translate(47.372 35.528)" fill="#9df5f7"/>
              <path id="Trazado_715995" data-name="Trazado 715995" d="M50.376,32.594a2.369,2.369,0,1,1,2.369,2.369,2.369,2.369,0,0,1-2.369-2.369" transform="translate(15.379 35.528)" fill="#9df5f7"/>
              <path id="Trazado_715996" data-name="Trazado 715996" d="M60.45,32.594a2.37,2.37,0,1,1,2.369,2.369,2.369,2.369,0,0,1-2.369-2.369" transform="translate(-16.614 35.528)" fill="#9df5f7"/>
              <path id="Trazado_715997" data-name="Trazado 715997" d="M70.526,32.594A2.369,2.369,0,1,1,72.9,34.963a2.369,2.369,0,0,1-2.369-2.369" transform="translate(-48.608 35.528)" fill="#9df5f7"/>
              <path id="Trazado_715998" data-name="Trazado 715998" d="M80.6,32.594a2.37,2.37,0,1,1,2.369,2.369A2.369,2.369,0,0,1,80.6,32.594" transform="translate(-80.6 35.528)" fill="#9df5f7"/>
              <path id="Trazado_715999" data-name="Trazado 715999" d="M0,42.669a2.37,2.37,0,1,1,2.369,2.369A2.369,2.369,0,0,1,0,42.669" transform="translate(175.346 47.371)" fill="#9df5f7"/>
              <path id="Trazado_716000" data-name="Trazado 716000" d="M10.076,42.669a2.369,2.369,0,1,1,2.369,2.369,2.369,2.369,0,0,1-2.369-2.369" transform="translate(143.352 47.371)" fill="#9df5f7"/>
              <path id="Trazado_716001" data-name="Trazado 716001" d="M20.151,42.669a2.369,2.369,0,1,1,2.369,2.369,2.369,2.369,0,0,1-2.369-2.369" transform="translate(111.358 47.371)" fill="#9df5f7"/>
              <path id="Trazado_716002" data-name="Trazado 716002" d="M30.225,42.669a2.37,2.37,0,1,1,2.369,2.369,2.369,2.369,0,0,1-2.369-2.369" transform="translate(79.366 47.371)" fill="#9df5f7"/>
              <path id="Trazado_716003" data-name="Trazado 716003" d="M40.3,42.669a2.369,2.369,0,1,1,2.369,2.369A2.369,2.369,0,0,1,40.3,42.669" transform="translate(47.372 47.371)" fill="#9df5f7"/>
              <path id="Trazado_716004" data-name="Trazado 716004" d="M50.376,42.669a2.369,2.369,0,1,1,2.369,2.369,2.369,2.369,0,0,1-2.369-2.369" transform="translate(15.379 47.371)" fill="#9df5f7"/>
              <path id="Trazado_716005" data-name="Trazado 716005" d="M60.45,42.669a2.37,2.37,0,1,1,2.369,2.369,2.369,2.369,0,0,1-2.369-2.369" transform="translate(-16.614 47.371)" fill="#9df5f7"/>
              <path id="Trazado_716006" data-name="Trazado 716006" d="M70.526,42.669A2.369,2.369,0,1,1,72.9,45.038a2.369,2.369,0,0,1-2.369-2.369" transform="translate(-48.608 47.371)" fill="#9df5f7"/>
              <path id="Trazado_716007" data-name="Trazado 716007" d="M80.6,42.669a2.37,2.37,0,1,1,2.369,2.369A2.369,2.369,0,0,1,80.6,42.669" transform="translate(-80.6 47.371)" fill="#9df5f7"/>
              <path id="Trazado_716008" data-name="Trazado 716008" d="M0,52.744a2.37,2.37,0,1,1,2.369,2.369A2.369,2.369,0,0,1,0,52.744" transform="translate(175.346 59.214)" fill="#9df5f7"/>
              <path id="Trazado_716009" data-name="Trazado 716009" d="M10.076,52.744a2.369,2.369,0,1,1,2.369,2.369,2.369,2.369,0,0,1-2.369-2.369" transform="translate(143.352 59.214)" fill="#9df5f7"/>
              <path id="Trazado_716010" data-name="Trazado 716010" d="M20.151,52.744a2.369,2.369,0,1,1,2.369,2.369,2.369,2.369,0,0,1-2.369-2.369" transform="translate(111.358 59.214)" fill="#9df5f7"/>
              <path id="Trazado_716011" data-name="Trazado 716011" d="M30.225,52.744a2.37,2.37,0,1,1,2.369,2.369,2.369,2.369,0,0,1-2.369-2.369" transform="translate(79.366 59.214)" fill="#9df5f7"/>
              <path id="Trazado_716012" data-name="Trazado 716012" d="M40.3,52.744a2.369,2.369,0,1,1,2.369,2.369A2.369,2.369,0,0,1,40.3,52.744" transform="translate(47.372 59.214)" fill="#9df5f7"/>
              <path id="Trazado_716013" data-name="Trazado 716013" d="M50.376,52.744a2.369,2.369,0,1,1,2.369,2.369,2.369,2.369,0,0,1-2.369-2.369" transform="translate(15.379 59.214)" fill="#9df5f7"/>
              <path id="Trazado_716014" data-name="Trazado 716014" d="M60.45,52.744a2.37,2.37,0,1,1,2.369,2.369,2.369,2.369,0,0,1-2.369-2.369" transform="translate(-16.614 59.214)" fill="#9df5f7"/>
              <path id="Trazado_716015" data-name="Trazado 716015" d="M70.526,52.744A2.369,2.369,0,1,1,72.9,55.113a2.369,2.369,0,0,1-2.369-2.369" transform="translate(-48.608 59.214)" fill="#9df5f7"/>
              <path id="Trazado_716016" data-name="Trazado 716016" d="M80.6,52.744a2.37,2.37,0,1,1,2.369,2.369A2.369,2.369,0,0,1,80.6,52.744" transform="translate(-80.6 59.214)" fill="#9df5f7"/>
              <path id="Trazado_716017" data-name="Trazado 716017" d="M0,62.819a2.37,2.37,0,1,1,2.369,2.369A2.369,2.369,0,0,1,0,62.819" transform="translate(175.346 71.057)" fill="#9df5f7"/>
              <path id="Trazado_716018" data-name="Trazado 716018" d="M10.076,62.819a2.369,2.369,0,1,1,2.369,2.369,2.369,2.369,0,0,1-2.369-2.369" transform="translate(143.352 71.057)" fill="#9df5f7"/>
              <path id="Trazado_716019" data-name="Trazado 716019" d="M20.151,62.819a2.369,2.369,0,1,1,2.369,2.369,2.369,2.369,0,0,1-2.369-2.369" transform="translate(111.358 71.057)" fill="#9df5f7"/>
              <path id="Trazado_716020" data-name="Trazado 716020" d="M30.225,62.819a2.37,2.37,0,1,1,2.369,2.369,2.369,2.369,0,0,1-2.369-2.369" transform="translate(79.366 71.057)" fill="#9df5f7"/>
              <path id="Trazado_716021" data-name="Trazado 716021" d="M40.3,62.819a2.369,2.369,0,1,1,2.369,2.369A2.369,2.369,0,0,1,40.3,62.819" transform="translate(47.372 71.057)" fill="#9df5f7"/>
              <path id="Trazado_716022" data-name="Trazado 716022" d="M50.376,62.819a2.369,2.369,0,1,1,2.369,2.369,2.369,2.369,0,0,1-2.369-2.369" transform="translate(15.379 71.057)" fill="#9df5f7"/>
              <path id="Trazado_716023" data-name="Trazado 716023" d="M60.45,62.819a2.37,2.37,0,1,1,2.369,2.369,2.369,2.369,0,0,1-2.369-2.369" transform="translate(-16.614 71.057)" fill="#9df5f7"/>
              <path id="Trazado_716024" data-name="Trazado 716024" d="M70.526,62.819A2.369,2.369,0,1,1,72.9,65.188a2.369,2.369,0,0,1-2.369-2.369" transform="translate(-48.608 71.057)" fill="#9df5f7"/>
              <path id="Trazado_716025" data-name="Trazado 716025" d="M80.6,62.819a2.37,2.37,0,1,1,2.369,2.369A2.369,2.369,0,0,1,80.6,62.819" transform="translate(-80.6 71.057)" fill="#9df5f7"/>
              <path id="Trazado_716026" data-name="Trazado 716026" d="M0,72.9a2.37,2.37,0,1,1,2.369,2.369A2.369,2.369,0,0,1,0,72.9" transform="translate(175.346 82.902)" fill="#9df5f7"/>
              <path id="Trazado_716027" data-name="Trazado 716027" d="M10.076,72.9a2.369,2.369,0,1,1,2.369,2.369A2.369,2.369,0,0,1,10.076,72.9" transform="translate(143.352 82.902)" fill="#9df5f7"/>
              <path id="Trazado_716028" data-name="Trazado 716028" d="M20.151,72.9a2.369,2.369,0,1,1,2.369,2.369A2.369,2.369,0,0,1,20.151,72.9" transform="translate(111.358 82.902)" fill="#9df5f7"/>
              <path id="Trazado_716029" data-name="Trazado 716029" d="M30.225,72.9a2.37,2.37,0,1,1,2.369,2.369A2.369,2.369,0,0,1,30.225,72.9" transform="translate(79.366 82.902)" fill="#9df5f7"/>
              <path id="Trazado_716030" data-name="Trazado 716030" d="M40.3,72.9a2.369,2.369,0,1,1,2.369,2.369A2.369,2.369,0,0,1,40.3,72.9" transform="translate(47.372 82.902)" fill="#9df5f7"/>
              <path id="Trazado_716031" data-name="Trazado 716031" d="M50.376,72.9a2.369,2.369,0,1,1,2.369,2.369A2.369,2.369,0,0,1,50.376,72.9" transform="translate(15.379 82.902)" fill="#9df5f7"/>
              <path id="Trazado_716032" data-name="Trazado 716032" d="M60.45,72.9a2.37,2.37,0,1,1,2.369,2.369A2.369,2.369,0,0,1,60.45,72.9" transform="translate(-16.614 82.902)" fill="#9df5f7"/>
              <path id="Trazado_716033" data-name="Trazado 716033" d="M70.526,72.9A2.369,2.369,0,1,1,72.9,75.264,2.369,2.369,0,0,1,70.526,72.9" transform="translate(-48.608 82.902)" fill="#9df5f7"/>
              <path id="Trazado_716034" data-name="Trazado 716034" d="M80.6,72.9a2.37,2.37,0,1,1,2.369,2.369A2.369,2.369,0,0,1,80.6,72.9" transform="translate(-80.6 82.902)" fill="#9df5f7"/>
              <path id="Trazado_716035" data-name="Trazado 716035" d="M0,82.97a2.37,2.37,0,1,1,2.369,2.369A2.369,2.369,0,0,1,0,82.97" transform="translate(175.346 94.745)" fill="#9df5f7"/>
              <path id="Trazado_716036" data-name="Trazado 716036" d="M10.076,82.97a2.369,2.369,0,1,1,2.369,2.369,2.369,2.369,0,0,1-2.369-2.369" transform="translate(143.352 94.745)" fill="#9df5f7"/>
              <path id="Trazado_716037" data-name="Trazado 716037" d="M20.151,82.97a2.369,2.369,0,1,1,2.369,2.369,2.369,2.369,0,0,1-2.369-2.369" transform="translate(111.358 94.745)" fill="#9df5f7"/>
              <path id="Trazado_716038" data-name="Trazado 716038" d="M30.225,82.97a2.37,2.37,0,1,1,2.369,2.369,2.369,2.369,0,0,1-2.369-2.369" transform="translate(79.366 94.745)" fill="#9df5f7"/>
              <path id="Trazado_716039" data-name="Trazado 716039" d="M40.3,82.97a2.369,2.369,0,1,1,2.369,2.369A2.369,2.369,0,0,1,40.3,82.97" transform="translate(47.372 94.745)" fill="#9df5f7"/>
              <path id="Trazado_716040" data-name="Trazado 716040" d="M50.376,82.97a2.369,2.369,0,1,1,2.369,2.369,2.369,2.369,0,0,1-2.369-2.369" transform="translate(15.379 94.745)" fill="#9df5f7"/>
              <path id="Trazado_716041" data-name="Trazado 716041" d="M60.45,82.97a2.37,2.37,0,1,1,2.369,2.369A2.369,2.369,0,0,1,60.45,82.97" transform="translate(-16.614 94.745)" fill="#9df5f7"/>
              <path id="Trazado_716042" data-name="Trazado 716042" d="M70.526,82.97A2.369,2.369,0,1,1,72.9,85.339a2.369,2.369,0,0,1-2.369-2.369" transform="translate(-48.608 94.745)" fill="#9df5f7"/>
              <path id="Trazado_716043" data-name="Trazado 716043" d="M80.6,82.97a2.37,2.37,0,1,1,2.369,2.369A2.369,2.369,0,0,1,80.6,82.97" transform="translate(-80.6 94.745)" fill="#9df5f7"/>
            </g>
          </g>
        </g>
        <g id="Grupo_1008084" data-name="Grupo 1008084" transform="translate(711.038 -344.336)" opacity="0.19">
          <g id="Grupo_1008083" data-name="Grupo 1008083" transform="translate(974.061 671.882) rotate(-167)">
            <g id="Grupo_1008054" data-name="Grupo 1008054" transform="translate(1.187 1.188)">
              <g id="Grupo_1008053" data-name="Grupo 1008053" transform="translate(0 0)">
                <path id="Trazado_716045" data-name="Trazado 716045" d="M989.353,348.873c-13.877,33.142-45.692,58.111-81.184,63.711-43.676,6.892-86.842-13.871-123.94-37.932S711.514,322.1,668.852,310.477c-40.647-11.075-84.184-5.651-124.627,6.145s-78.782,29.748-118.332,44.261c-64.833,23.79-136.541,38.233-202.735,18.551S99.753,297.61,104.784,228.734c2.1-28.757,14.3-55.639,25.113-82.369s20.544-55.146,17.353-83.8S124.329,5.161,95.855.623C73.017-3.018,49.887,9.72,35.612,27.914S14.5,68.981,9.689,91.6c-26.261,123.489,1.573,257.5,74.84,360.315" fill="none" stroke="#4d342c" stroke-miterlimit="10" stroke-width="1.701"/>
              </g>
            </g>
            <g id="Grupo_1008056" data-name="Grupo 1008056" transform="translate(518.859 328.4)">
              <g id="Grupo_1008055" data-name="Grupo 1008055" transform="translate(0 0)" clip-path="url(#clip-path-5)">
                <path id="Trazado_716046" data-name="Trazado 716046" d="M.152,9.038,5.724,0a2.288,2.288,0,0,1-.152.221L0,9.257a2.28,2.28,0,0,0,.152-.219" transform="translate(0.147 -0.001)" fill="#1d3237"/>
                <path id="Trazado_716047" data-name="Trazado 716047" d="M.147,9.038,5.718,0c-.046.06-.095.117-.147.173L0,9.211c.052-.056.1-.114.147-.173" transform="translate(0 0.218)" fill="#1e3439"/>
              </g>
            </g>
            <g id="Grupo_1008058" data-name="Grupo 1008058" transform="translate(504.587 318.163)">
              <g id="Grupo_1008057" data-name="Grupo 1008057" transform="translate(0 0)" clip-path="url(#clip-path-6)">
                <path id="Trazado_716049" data-name="Trazado 716049" d="M.151,9.038,5.722,0a2.336,2.336,0,0,1-.151.218L0,9.256a2.553,2.553,0,0,0,.151-.218" transform="translate(0.147 -0.001)" fill="#1d3237"/>
                <path id="Trazado_716050" data-name="Trazado 716050" d="M.147,9.038,5.718,0a2.132,2.132,0,0,1-.147.173L0,9.21q.078-.084.147-.172" transform="translate(0 0.218)" fill="#1e3439"/>
              </g>
            </g>
            <g id="Grupo_1008060" data-name="Grupo 1008060" transform="translate(526.714 319.942)">
              <g id="Grupo_1008059" data-name="Grupo 1008059" transform="translate(0 0)" clip-path="url(#clip-path-7)">
                <path id="Trazado_716052" data-name="Trazado 716052" d="M.152,9.038,5.724,0a2.307,2.307,0,0,1-.152.221L0,9.257a2.564,2.564,0,0,0,.152-.219" transform="translate(0.148 -0.001)" fill="#1d3237"/>
                <path id="Trazado_716053" data-name="Trazado 716053" d="M.147,9.038,5.718,0c-.046.06-.095.117-.147.173L0,9.211c.052-.056.1-.114.147-.173" transform="translate(0.001 0.219)" fill="#1e3439"/>
              </g>
            </g>
            <g id="Grupo_1008062" data-name="Grupo 1008062" transform="translate(512.444 309.705)">
              <g id="Grupo_1008061" data-name="Grupo 1008061" transform="translate(0 0)" clip-path="url(#clip-path-8)">
                <path id="Trazado_716055" data-name="Trazado 716055" d="M.151,9.038,5.722,0a2.545,2.545,0,0,1-.151.219L0,9.256a2.328,2.328,0,0,0,.151-.218" transform="translate(0.147 0)" fill="#1d3237"/>
                <path id="Trazado_716056" data-name="Trazado 716056" d="M.147,9.038,5.718,0c-.046.06-.095.117-.147.173L0,9.21q.077-.084.147-.172" transform="translate(0 0.218)" fill="#1e3439"/>
              </g>
            </g>
            <g id="Grupo_1008064" data-name="Grupo 1008064" transform="translate(0 0)">
              <g id="Grupo_1008063" data-name="Grupo 1008063" clip-path="url(#clip-path-9)">
                <path id="Trazado_716058" data-name="Trazado 716058" d="M5.955,0,.384,9.038C-.707,10.805.589,13.7,3.475,15.77c3.151,2.26,6.94,2.7,8.521.991l5.573-9.038c-1.583,1.7-5.372,1.269-8.521-.991C6.161,4.661,4.865,1.769,5.955,0" transform="translate(506.862 321.068)" fill="#1f4144"/>
              </g>
            </g>
            <g id="Grupo_1008066" data-name="Grupo 1008066" transform="translate(506.862 321.068)">
              <g id="Grupo_1008065" data-name="Grupo 1008065" transform="translate(0 0)" clip-path="url(#clip-path-10)">
                <path id="Trazado_716059" data-name="Trazado 716059" d="M.367,9.038,5.939,0a2.657,2.657,0,0,1-.367.329L0,9.367a2.749,2.749,0,0,0,.367-.329" transform="translate(11.629 7.723)" fill="#1f4144"/>
                <path id="Trazado_716060" data-name="Trazado 716060" d="M.646,9.038,6.218,0a3.183,3.183,0,0,1-.646.369L0,9.406a3.181,3.181,0,0,0,.646-.369" transform="translate(10.982 8.052)" fill="#1f4144"/>
                <path id="Trazado_716061" data-name="Trazado 716061" d="M.868,9.038,6.44,0a4.055,4.055,0,0,1-.868.257L0,9.293a4,4,0,0,0,.868-.255" transform="translate(10.116 8.421)" fill="#1f4144"/>
                <path id="Trazado_716062" data-name="Trazado 716062" d="M1.64,9.037,7.212,0a6.041,6.041,0,0,1-1.64.053L0,9.09a5.986,5.986,0,0,0,1.64-.053" transform="translate(8.475 8.678)" fill="#1f4144"/>
                <path id="Trazado_716063" data-name="Trazado 716063" d="M1.843,9.427,7.414.389A8.7,8.7,0,0,1,5.572,0L0,9.038a8.774,8.774,0,0,0,1.843.389" transform="translate(6.632 8.34)" fill="#1f4144"/>
                <path id="Trazado_716064" data-name="Trazado 716064" d="M1.857,9.832,7.428.794A10.988,10.988,0,0,1,5.572,0L0,9.037a10.949,10.949,0,0,0,1.857.8" transform="translate(4.776 7.546)" fill="#1f4144"/>
                <path id="Trazado_716065" data-name="Trazado 716065" d="M1.131,9.73,6.7.692A12.23,12.23,0,0,1,5.572,0L0,9.037a11.6,11.6,0,0,0,1.131.694" transform="translate(3.645 6.852)" fill="#1f4144"/>
                <path id="Trazado_716066" data-name="Trazado 716066" d="M.923,9.744,6.494.706c-.056-.039-.113-.078-.17-.12C6.06.4,5.809.2,5.573,0L0,9.037q.356.3.752.588c.057.04.113.081.17.12" transform="translate(2.722 6.145)" fill="#1f4144"/>
                <path id="Trazado_716067" data-name="Trazado 716067" d="M.811,9.8,6.383.766A10.681,10.681,0,0,1,5.572,0L0,9.037A10.421,10.421,0,0,0,.811,9.8" transform="translate(1.912 5.378)" fill="#1f4144"/>
                <path id="Trazado_716068" data-name="Trazado 716068" d="M.782,9.98,6.353.942A9.159,9.159,0,0,1,5.572,0L0,9.037a9.036,9.036,0,0,0,.782.944" transform="translate(1.131 4.434)" fill="#1f4144"/>
                <path id="Trazado_716069" data-name="Trazado 716069" d="M1.13,13.47,6.7,4.434C5.558,2.84,5.233,1.173,5.955,0L.383,9.037c-.722,1.173-.4,2.84.747,4.434" transform="translate(0.001 0)" fill="#1f4144"/>
              </g>
            </g>
            <g id="Grupo_1008068" data-name="Grupo 1008068" transform="translate(0 0)">
              <g id="Grupo_1008067" data-name="Grupo 1008067" clip-path="url(#clip-path-9)">
                <path id="Trazado_716071" data-name="Trazado 716071" d="M5.957,0,.386,9.038C-.7,10.8.577,13.684,3.479,15.767c3.11,2.232,6.919,2.682,8.5.977l5.572-9.037c-1.583,1.7-5.39,1.254-8.5-.979C6.148,4.647,4.868,1.767,5.957,0" transform="translate(492.606 310.845)" fill="#1f4144"/>
              </g>
            </g>
            <g id="Grupo_1008070" data-name="Grupo 1008070" transform="translate(492.606 310.847)">
              <g id="Grupo_1008069" data-name="Grupo 1008069" transform="translate(0 0)" clip-path="url(#clip-path-12)">
                <path id="Trazado_716072" data-name="Trazado 716072" d="M.366,9.038,5.937,0a2.717,2.717,0,0,1-.364.328L0,9.365a2.546,2.546,0,0,0,.366-.327" transform="translate(11.615 7.706)" fill="#1f4144"/>
                <path id="Trazado_716073" data-name="Trazado 716073" d="M.644,9.038,6.215,0a3.059,3.059,0,0,1-.644.367L0,9.405a3.118,3.118,0,0,0,.644-.367" transform="translate(10.972 8.033)" fill="#1f4144"/>
                <path id="Trazado_716074" data-name="Trazado 716074" d="M.868,9.038,6.44,0a4.08,4.08,0,0,1-.868.257L0,9.293a4,4,0,0,0,.868-.255" transform="translate(10.104 8.4)" fill="#1f4144"/>
                <path id="Trazado_716075" data-name="Trazado 716075" d="M1.647,9.037,7.219,0A6.037,6.037,0,0,1,5.572.053L0,9.09a6.037,6.037,0,0,0,1.647-.053" transform="translate(8.456 8.657)" fill="#1f4144"/>
                <path id="Trazado_716076" data-name="Trazado 716076" d="M1.853,9.429,7.424.392A8.871,8.871,0,0,1,5.572,0L0,9.038a8.958,8.958,0,0,0,1.853.391" transform="translate(6.604 8.319)" fill="#1f4144"/>
                <path id="Trazado_716077" data-name="Trazado 716077" d="M1.847,9.828,7.418.79A11,11,0,0,1,5.572,0L0,9.037a10.96,10.96,0,0,0,1.847.792" transform="translate(4.757 7.527)" fill="#1f4144"/>
                <path id="Trazado_716078" data-name="Trazado 716078" d="M1.111,9.719,6.683.683A12.051,12.051,0,0,1,5.572,0L0,9.038a11.57,11.57,0,0,0,1.111.681" transform="translate(3.645 6.845)" fill="#1f4144"/>
                <path id="Trazado_716079" data-name="Trazado 716079" d="M.926,9.749,6.5.711C6.441.673,6.385.634,6.331.593,6.064.4,5.81.2,5.572,0L0,9.038c.239.2.493.4.759.593l.166.117" transform="translate(2.72 6.134)" fill="#1f4144"/>
                <path id="Trazado_716080" data-name="Trazado 716080" d="M.814,9.807,6.385.769A10.492,10.492,0,0,1,5.572,0L0,9.037a10.253,10.253,0,0,0,.814.771" transform="translate(1.906 5.365)" fill="#1f4144"/>
                <path id="Trazado_716081" data-name="Trazado 716081" d="M.782,9.979,6.353.941A8.818,8.818,0,0,1,5.573,0L0,9.037a9.169,9.169,0,0,0,.782.942" transform="translate(1.124 4.424)" fill="#1f4144"/>
                <path id="Trazado_716082" data-name="Trazado 716082" d="M1.125,13.462,6.7,4.424C5.554,2.833,5.235,1.171,5.958,0L.385,9.038c-.722,1.171-.4,2.831.74,4.424" transform="translate(0 -0.001)" fill="#1f4144"/>
              </g>
            </g>
            <g id="Grupo_1008072" data-name="Grupo 1008072" transform="translate(0 0)">
              <g id="Grupo_1008071" data-name="Grupo 1008071" clip-path="url(#clip-path-9)">
                <path id="Trazado_716084" data-name="Trazado 716084" d="M5.957,0,.386,9.037c-1.092,1.77.2,4.673,3.082,6.743,3.149,2.26,6.948,2.685,8.531.981l5.572-9.038C15.988,9.427,12.189,9,9.04,6.741,6.154,4.671,4.867,1.77,5.957,0" transform="translate(514.717 312.611)" fill="#1f4144"/>
              </g>
            </g>
            <g id="Grupo_1008074" data-name="Grupo 1008074" transform="translate(514.717 312.611)">
              <g id="Grupo_1008073" data-name="Grupo 1008073" transform="translate(0 0)" clip-path="url(#clip-path-14)">
                <path id="Trazado_716085" data-name="Trazado 716085" d="M.369,9.038,5.94,0a2.762,2.762,0,0,1-.367.331L0,9.367a2.677,2.677,0,0,0,.369-.329" transform="translate(11.63 7.723)" fill="#1f4144"/>
                <path id="Trazado_716086" data-name="Trazado 716086" d="M.649,9.038,6.221,0a3.092,3.092,0,0,1-.648.37L0,9.408a3.167,3.167,0,0,0,.649-.37" transform="translate(10.981 8.052)" fill="#1f4144"/>
                <path id="Trazado_716087" data-name="Trazado 716087" d="M.872,9.038,6.444,0a4.04,4.04,0,0,1-.872.258L0,9.295a4.12,4.12,0,0,0,.872-.257" transform="translate(10.11 8.422)" fill="#1f4144"/>
                <path id="Trazado_716088" data-name="Trazado 716088" d="M1.649,9.037,7.22,0A6.048,6.048,0,0,1,5.572.053L0,9.091a6.045,6.045,0,0,0,1.649-.054" transform="translate(8.46 8.681)" fill="#1f4144"/>
                <path id="Trazado_716089" data-name="Trazado 716089" d="M1.85,9.427,7.421.389A8.854,8.854,0,0,1,5.572,0L0,9.037a8.771,8.771,0,0,0,1.85.391" transform="translate(6.61 8.344)" fill="#1f4144"/>
                <path id="Trazado_716090" data-name="Trazado 716090" d="M1.851,9.831,7.423.793A10.881,10.881,0,0,1,5.572,0L0,9.038a10.992,10.992,0,0,0,1.851.793" transform="translate(4.76 7.55)" fill="#1f4144"/>
                <path id="Trazado_716091" data-name="Trazado 716091" d="M1.124,9.726,6.7.688A11.894,11.894,0,0,1,5.572,0L0,9.037a11.913,11.913,0,0,0,1.124.69" transform="translate(3.636 6.862)" fill="#1f4144"/>
                <path id="Trazado_716092" data-name="Trazado 716092" d="M.916,9.74,6.487.7,6.318.584Q5.925.3,5.572,0L0,9.038c.236.2.484.4.747.584.056.04.113.08.169.119" transform="translate(2.721 6.158)" fill="#1f4144"/>
                <path id="Trazado_716093" data-name="Trazado 716093" d="M.807,9.8,6.379.764A10.309,10.309,0,0,1,5.572,0L0,9.038A10.308,10.308,0,0,0,.807,9.8" transform="translate(1.914 5.394)" fill="#1f4144"/>
                <path id="Trazado_716094" data-name="Trazado 716094" d="M.78,9.977,6.352.941A9.3,9.3,0,0,1,5.572,0L0,9.037a8.973,8.973,0,0,0,.78.941" transform="translate(1.133 4.453)" fill="#1f4144"/>
                <path id="Trazado_716095" data-name="Trazado 716095" d="M1.134,13.491,6.705,4.453C5.558,2.853,5.233,1.177,5.957,0L.386,9.038c-.726,1.175-.4,2.854.748,4.453" transform="translate(-0.001 0)" fill="#1f4144"/>
              </g>
            </g>
            <g id="Grupo_1008076" data-name="Grupo 1008076" transform="translate(0 0)">
              <g id="Grupo_1008075" data-name="Grupo 1008075" clip-path="url(#clip-path-9)">
                <path id="Trazado_716097" data-name="Trazado 716097" d="M5.959,0,.387,9.038c-1.09,1.767.181,4.656,3.084,6.739,3.112,2.232,6.929,2.672,8.512.967l5.573-9.038c-1.583,1.7-5.4,1.266-8.513-.967C6.14,4.657,4.868,1.769,5.959,0" transform="translate(500.462 302.388)" fill="#1f4144"/>
              </g>
            </g>
            <g id="Grupo_1008078" data-name="Grupo 1008078" transform="translate(500.462 302.389)">
              <g id="Grupo_1008077" data-name="Grupo 1008077" transform="translate(0 0)" clip-path="url(#clip-path-16)">
                <path id="Trazado_716098" data-name="Trazado 716098" d="M.366,9.038,5.937,0a2.732,2.732,0,0,1-.366.328L0,9.366a2.732,2.732,0,0,0,.366-.328" transform="translate(11.616 7.705)" fill="#1f4144"/>
                <path id="Trazado_716099" data-name="Trazado 716099" d="M.648,9.038,6.219,0a3.121,3.121,0,0,1-.648.369L0,9.406a3.157,3.157,0,0,0,.648-.369" transform="translate(10.97 8.033)" fill="#1f4144"/>
                <path id="Trazado_716100" data-name="Trazado 716100" d="M.874,9.038,6.445,0a4.031,4.031,0,0,1-.874.258L0,9.295a4.052,4.052,0,0,0,.874-.257" transform="translate(10.096 8.401)" fill="#1f4144"/>
                <path id="Trazado_716101" data-name="Trazado 716101" d="M1.656,9.037,7.227,0A6.1,6.1,0,0,1,5.572.053L0,9.091a6.042,6.042,0,0,0,1.656-.054" transform="translate(8.442 8.66)" fill="#1f4144"/>
                <path id="Trazado_716102" data-name="Trazado 716102" d="M1.858,9.43,7.43.394A8.907,8.907,0,0,1,5.572,0L0,9.038a8.9,8.9,0,0,0,1.858.392" transform="translate(6.582 8.32)" fill="#1f4144"/>
                <path id="Trazado_716103" data-name="Trazado 716103" d="M1.841,9.825,7.413.787A10.937,10.937,0,0,1,5.572,0L0,9.037a10.893,10.893,0,0,0,1.841.789" transform="translate(4.741 7.533)" fill="#1f4144"/>
                <path id="Trazado_716104" data-name="Trazado 716104" d="M1.1,9.715,6.676.677A11.444,11.444,0,0,1,5.572,0L0,9.038a11.446,11.446,0,0,0,1.1.677" transform="translate(3.637 6.855)" fill="#1f4144"/>
                <path id="Trazado_716105" data-name="Trazado 716105" d="M.919,9.743,6.49.7C6.434.667,6.38.628,6.325.589Q5.928.3,5.572,0L0,9.038c.236.2.489.4.754.589.054.039.109.078.165.116" transform="translate(2.717 6.15)" fill="#1f4144"/>
                <path id="Trazado_716106" data-name="Trazado 716106" d="M.81,9.8,6.381.766A10.4,10.4,0,0,1,5.572,0L0,9.038A10.4,10.4,0,0,0,.81,9.8" transform="translate(1.907 5.382)" fill="#1f4144"/>
                <path id="Trazado_716107" data-name="Trazado 716107" d="M.779,9.976,6.351.938A9.093,9.093,0,0,1,5.572,0L0,9.037a8.96,8.96,0,0,0,.779.94" transform="translate(1.128 4.444)" fill="#1f4144"/>
                <path id="Trazado_716108" data-name="Trazado 716108" d="M1.128,13.481,6.7,4.444C5.552,2.845,5.234,1.175,5.959,0L.387,9.038c-.725,1.174-.406,2.844.741,4.444" transform="translate(0 -0.001)" fill="#1f4144"/>
              </g>
            </g>
            <g id="Grupo_1008080" data-name="Grupo 1008080" transform="translate(0 0)">
              <g id="Grupo_1008079" data-name="Grupo 1008079" clip-path="url(#clip-path-9)">
                <path id="Trazado_716110" data-name="Trazado 716110" d="M63.362,56.839,68.934,47.8c5.936-9.626-1.068-25.458-16.888-36.808C34.99-1.244,14.177-3.614,5.572,5.648L0,14.686C8.605,5.422,29.417,7.793,46.474,20.03,62.294,31.381,69.3,47.212,63.362,56.839" transform="translate(479.133 287.586)" fill="#1f4144"/>
              </g>
            </g>
            <g id="Grupo_1008082" data-name="Grupo 1008082" transform="translate(0 0)">
              <g id="Grupo_1008081" data-name="Grupo 1008081" clip-path="url(#clip-path-9)">
                <path id="Trazado_716111" data-name="Trazado 716111" d="M3.733,5.648c-8.625,9.284-1.8,26.709,15.259,38.947s37.849,14.629,46.474,5.344c8.605-9.263,1.8-26.709-15.259-38.947S12.338-3.614,3.733,5.648M57.014,43.876c-6.265,6.743-21.38,4.994-33.749-3.881S5.939,18.47,12.2,11.725s21.351-5,33.72,3.878,17.344,21.539,11.09,28.272" transform="translate(475.4 296.624)" fill="#598583"/>
                <path id="Trazado_716112" data-name="Trazado 716112" d="M2.713,4.1C-3.553,10.846,1.4,23.5,13.774,32.372S41.259,43,47.523,36.253,48.8,16.855,36.433,7.98,8.967-2.631,2.713,4.1M41.824,25.125c-1.583,1.7-5.382,1.279-8.531-.981-3.112-2.232-4.365-5.432-2.782-7.135s5.4-1.266,8.512.966c3.151,2.26,4.375,5.457,2.8,7.151M27.552,14.885c-1.583,1.7-5.4,1.266-8.512-.966-3.131-2.248-4.365-5.432-2.782-7.137S21.64,5.5,24.772,7.75c3.112,2.232,4.354,5.442,2.781,7.135m6.415,18.7c-1.583,1.7-5.372,1.268-8.523-.993-3.112-2.232-4.374-5.421-2.791-7.125s5.4-1.265,8.512.967c3.149,2.26,4.375,5.456,2.8,7.15M19.7,23.344c-1.583,1.7-5.391,1.255-8.5-.977C8.062,20.12,6.819,16.944,8.4,15.241s5.382-1.28,8.512.967c3.112,2.232,4.356,5.442,2.782,7.135" transform="translate(484.892 304.247)" fill="#355d65"/>
                <path id="Trazado_716113" data-name="Trazado 716113" d="M0,16.825S32.842,3.88,44.733,0" transform="translate(481.126 324.004)" fill="none" stroke="#4d342c" stroke-miterlimit="10" stroke-width="1.701"/>
              </g>
            </g>
          </g>
          <path id="Trazado_716114" data-name="Trazado 716114" d="M429.209,91.74C363.871,67.765,291.605,53.209,224.9,73.045S100.529,155.507,105.6,224.919c2.117,28.981,14.415,56.072,25.309,83.01s20.7,55.575,17.488,84.455-23.1,57.848-51.8,62.422c-23.016,3.669-46.326-9.167-60.712-27.5S14.611,385.915,9.764,363.121C-16.7,238.67,11.35,103.617,85.187,0" transform="matrix(-0.839, -0.545, 0.545, -0.839, 651.744, 615.723)" fill="none" stroke="#4d342c" stroke-miterlimit="10" stroke-width="1.701" stroke-dasharray="3"/>
        </g>
        <g id="Grupo_1008116" data-name="Grupo 1008116" transform="translate(-573.913 185.102)" opacity="0.19">
          <g id="Grupo_1008115" data-name="Grupo 1008115" transform="translate(1080.036 667.04) rotate(-167)" opacity="0.52">
            <g id="Grupo_1008086" data-name="Grupo 1008086" transform="translate(1.187 1.188)">
              <g id="Grupo_1008085" data-name="Grupo 1008085" transform="translate(0 0)">
                <path id="Trazado_716115" data-name="Trazado 716115" d="M989.353,348.873c-13.877,33.142-45.692,58.111-81.184,63.711-43.676,6.892-86.842-13.871-123.94-37.932S711.514,322.1,668.852,310.477c-40.647-11.075-84.184-5.651-124.627,6.145s-78.782,29.748-118.332,44.261c-64.833,23.79-136.541,38.233-202.735,18.551S99.753,297.61,104.784,228.734c2.1-28.757,14.3-55.639,25.113-82.369s20.544-55.146,17.353-83.8S124.329,5.161,95.855.623C73.017-3.018,49.887,9.72,35.612,27.914S14.5,68.981,9.689,91.6c-26.261,123.489,1.573,257.5,74.84,360.315" fill="none" stroke="#4d342c" stroke-miterlimit="10" stroke-width="1.701" opacity="0.5"/>
              </g>
            </g>
            <g id="Grupo_1008088" data-name="Grupo 1008088" transform="translate(518.859 328.4)">
              <g id="Grupo_1008087" data-name="Grupo 1008087" transform="translate(0 0)" clip-path="url(#clip-path-5)">
                <path id="Trazado_716116" data-name="Trazado 716116" d="M.152,9.038,5.724,0a2.288,2.288,0,0,1-.152.221L0,9.257a2.28,2.28,0,0,0,.152-.219" transform="translate(0.147 -0.001)" fill="#1d3237"/>
                <path id="Trazado_716117" data-name="Trazado 716117" d="M.147,9.038,5.718,0c-.046.06-.095.117-.147.173L0,9.211c.052-.056.1-.114.147-.173" transform="translate(0 0.218)" fill="#1e3439"/>
              </g>
            </g>
            <g id="Grupo_1008090" data-name="Grupo 1008090" transform="translate(504.587 318.163)">
              <g id="Grupo_1008089" data-name="Grupo 1008089" transform="translate(0 0)" clip-path="url(#clip-path-6)">
                <path id="Trazado_716119" data-name="Trazado 716119" d="M.151,9.038,5.722,0a2.336,2.336,0,0,1-.151.218L0,9.256a2.553,2.553,0,0,0,.151-.218" transform="translate(0.147 -0.001)" fill="#1d3237"/>
                <path id="Trazado_716120" data-name="Trazado 716120" d="M.147,9.038,5.718,0a2.132,2.132,0,0,1-.147.173L0,9.21q.078-.084.147-.172" transform="translate(0 0.218)" fill="#1e3439"/>
              </g>
            </g>
            <g id="Grupo_1008092" data-name="Grupo 1008092" transform="translate(526.714 319.942)">
              <g id="Grupo_1008091" data-name="Grupo 1008091" transform="translate(0 0)" clip-path="url(#clip-path-7)">
                <path id="Trazado_716122" data-name="Trazado 716122" d="M.152,9.038,5.724,0a2.307,2.307,0,0,1-.152.221L0,9.257a2.564,2.564,0,0,0,.152-.219" transform="translate(0.148 -0.001)" fill="#1d3237"/>
                <path id="Trazado_716123" data-name="Trazado 716123" d="M.147,9.038,5.718,0c-.046.06-.095.117-.147.173L0,9.211c.052-.056.1-.114.147-.173" transform="translate(0.001 0.219)" fill="#1e3439"/>
              </g>
            </g>
            <g id="Grupo_1008094" data-name="Grupo 1008094" transform="translate(512.444 309.705)">
              <g id="Grupo_1008093" data-name="Grupo 1008093" transform="translate(0 0)" clip-path="url(#clip-path-8)">
                <path id="Trazado_716125" data-name="Trazado 716125" d="M.151,9.038,5.722,0a2.545,2.545,0,0,1-.151.219L0,9.256a2.328,2.328,0,0,0,.151-.218" transform="translate(0.147 0)" fill="#1d3237"/>
                <path id="Trazado_716126" data-name="Trazado 716126" d="M.147,9.038,5.718,0c-.046.06-.095.117-.147.173L0,9.21q.077-.084.147-.172" transform="translate(0 0.218)" fill="#1e3439"/>
              </g>
            </g>
            <g id="Grupo_1008096" data-name="Grupo 1008096" transform="translate(0 0)">
              <g id="Grupo_1008095" data-name="Grupo 1008095" clip-path="url(#clip-path-9)">
                <path id="Trazado_716128" data-name="Trazado 716128" d="M5.955,0,.384,9.038C-.707,10.805.589,13.7,3.475,15.77c3.151,2.26,6.94,2.7,8.521.991l5.573-9.038c-1.583,1.7-5.372,1.269-8.521-.991C6.161,4.661,4.865,1.769,5.955,0" transform="translate(506.862 321.068)" fill="#1f4144"/>
              </g>
            </g>
            <g id="Grupo_1008098" data-name="Grupo 1008098" transform="translate(506.862 321.068)">
              <g id="Grupo_1008097" data-name="Grupo 1008097" transform="translate(0 0)" clip-path="url(#clip-path-10)">
                <path id="Trazado_716129" data-name="Trazado 716129" d="M.367,9.038,5.939,0a2.657,2.657,0,0,1-.367.329L0,9.367a2.749,2.749,0,0,0,.367-.329" transform="translate(11.629 7.723)" fill="#1f4144"/>
                <path id="Trazado_716130" data-name="Trazado 716130" d="M.646,9.038,6.218,0a3.183,3.183,0,0,1-.646.369L0,9.406a3.181,3.181,0,0,0,.646-.369" transform="translate(10.982 8.052)" fill="#1f4144"/>
                <path id="Trazado_716131" data-name="Trazado 716131" d="M.868,9.038,6.44,0a4.055,4.055,0,0,1-.868.257L0,9.293a4,4,0,0,0,.868-.255" transform="translate(10.116 8.421)" fill="#1f4144"/>
                <path id="Trazado_716132" data-name="Trazado 716132" d="M1.64,9.037,7.212,0a6.041,6.041,0,0,1-1.64.053L0,9.09a5.986,5.986,0,0,0,1.64-.053" transform="translate(8.475 8.678)" fill="#1f4144"/>
                <path id="Trazado_716133" data-name="Trazado 716133" d="M1.843,9.427,7.414.389A8.7,8.7,0,0,1,5.572,0L0,9.038a8.774,8.774,0,0,0,1.843.389" transform="translate(6.632 8.34)" fill="#1f4144"/>
                <path id="Trazado_716134" data-name="Trazado 716134" d="M1.857,9.832,7.428.794A10.988,10.988,0,0,1,5.572,0L0,9.037a10.949,10.949,0,0,0,1.857.8" transform="translate(4.776 7.546)" fill="#1f4144"/>
                <path id="Trazado_716135" data-name="Trazado 716135" d="M1.131,9.73,6.7.692A12.23,12.23,0,0,1,5.572,0L0,9.037a11.6,11.6,0,0,0,1.131.694" transform="translate(3.645 6.852)" fill="#1f4144"/>
                <path id="Trazado_716136" data-name="Trazado 716136" d="M.923,9.744,6.494.706c-.056-.039-.113-.078-.17-.12C6.06.4,5.809.2,5.573,0L0,9.037q.356.3.752.588c.057.04.113.081.17.12" transform="translate(2.722 6.145)" fill="#1f4144"/>
                <path id="Trazado_716137" data-name="Trazado 716137" d="M.811,9.8,6.383.766A10.681,10.681,0,0,1,5.572,0L0,9.037A10.421,10.421,0,0,0,.811,9.8" transform="translate(1.912 5.378)" fill="#1f4144"/>
                <path id="Trazado_716138" data-name="Trazado 716138" d="M.782,9.98,6.353.942A9.159,9.159,0,0,1,5.572,0L0,9.037a9.036,9.036,0,0,0,.782.944" transform="translate(1.131 4.434)" fill="#1f4144"/>
                <path id="Trazado_716139" data-name="Trazado 716139" d="M1.13,13.47,6.7,4.434C5.558,2.84,5.233,1.173,5.955,0L.383,9.037c-.722,1.173-.4,2.84.747,4.434" transform="translate(0.001 0)" fill="#1f4144"/>
              </g>
            </g>
            <g id="Grupo_1008100" data-name="Grupo 1008100" transform="translate(0 0)">
              <g id="Grupo_1008099" data-name="Grupo 1008099" clip-path="url(#clip-path-9)">
                <path id="Trazado_716141" data-name="Trazado 716141" d="M5.957,0,.386,9.038C-.7,10.8.577,13.684,3.479,15.767c3.11,2.232,6.919,2.682,8.5.977l5.572-9.037c-1.583,1.7-5.39,1.254-8.5-.979C6.148,4.647,4.868,1.767,5.957,0" transform="translate(492.606 310.845)" fill="#1f4144"/>
              </g>
            </g>
            <g id="Grupo_1008102" data-name="Grupo 1008102" transform="translate(492.606 310.847)">
              <g id="Grupo_1008101" data-name="Grupo 1008101" transform="translate(0 0)" clip-path="url(#clip-path-12)">
                <path id="Trazado_716142" data-name="Trazado 716142" d="M.366,9.038,5.937,0a2.717,2.717,0,0,1-.364.328L0,9.365a2.546,2.546,0,0,0,.366-.327" transform="translate(11.615 7.706)" fill="#1f4144"/>
                <path id="Trazado_716143" data-name="Trazado 716143" d="M.644,9.038,6.215,0a3.059,3.059,0,0,1-.644.367L0,9.405a3.118,3.118,0,0,0,.644-.367" transform="translate(10.972 8.033)" fill="#1f4144"/>
                <path id="Trazado_716144" data-name="Trazado 716144" d="M.868,9.038,6.44,0a4.08,4.08,0,0,1-.868.257L0,9.293a4,4,0,0,0,.868-.255" transform="translate(10.104 8.4)" fill="#1f4144"/>
                <path id="Trazado_716145" data-name="Trazado 716145" d="M1.647,9.037,7.219,0A6.037,6.037,0,0,1,5.572.053L0,9.09a6.037,6.037,0,0,0,1.647-.053" transform="translate(8.456 8.657)" fill="#1f4144"/>
                <path id="Trazado_716146" data-name="Trazado 716146" d="M1.853,9.429,7.424.392A8.871,8.871,0,0,1,5.572,0L0,9.038a8.958,8.958,0,0,0,1.853.391" transform="translate(6.604 8.319)" fill="#1f4144"/>
                <path id="Trazado_716147" data-name="Trazado 716147" d="M1.847,9.828,7.418.79A11,11,0,0,1,5.572,0L0,9.037a10.96,10.96,0,0,0,1.847.792" transform="translate(4.757 7.527)" fill="#1f4144"/>
                <path id="Trazado_716148" data-name="Trazado 716148" d="M1.111,9.719,6.683.683A12.051,12.051,0,0,1,5.572,0L0,9.038a11.57,11.57,0,0,0,1.111.681" transform="translate(3.645 6.845)" fill="#1f4144"/>
                <path id="Trazado_716149" data-name="Trazado 716149" d="M.926,9.749,6.5.711C6.441.673,6.385.634,6.331.593,6.064.4,5.81.2,5.572,0L0,9.038c.239.2.493.4.759.593l.166.117" transform="translate(2.72 6.134)" fill="#1f4144"/>
                <path id="Trazado_716150" data-name="Trazado 716150" d="M.814,9.807,6.385.769A10.492,10.492,0,0,1,5.572,0L0,9.037a10.253,10.253,0,0,0,.814.771" transform="translate(1.906 5.365)" fill="#1f4144"/>
                <path id="Trazado_716151" data-name="Trazado 716151" d="M.782,9.979,6.353.941A8.818,8.818,0,0,1,5.573,0L0,9.037a9.169,9.169,0,0,0,.782.942" transform="translate(1.124 4.424)" fill="#1f4144"/>
                <path id="Trazado_716152" data-name="Trazado 716152" d="M1.125,13.462,6.7,4.424C5.554,2.833,5.235,1.171,5.958,0L.385,9.038c-.722,1.171-.4,2.831.74,4.424" transform="translate(0 -0.001)" fill="#1f4144"/>
              </g>
            </g>
            <g id="Grupo_1008104" data-name="Grupo 1008104" transform="translate(0 0)">
              <g id="Grupo_1008103" data-name="Grupo 1008103" clip-path="url(#clip-path-9)">
                <path id="Trazado_716154" data-name="Trazado 716154" d="M5.957,0,.386,9.037c-1.092,1.77.2,4.673,3.082,6.743,3.149,2.26,6.948,2.685,8.531.981l5.572-9.038C15.988,9.427,12.189,9,9.04,6.741,6.154,4.671,4.867,1.77,5.957,0" transform="translate(514.717 312.611)" fill="#1f4144"/>
              </g>
            </g>
            <g id="Grupo_1008106" data-name="Grupo 1008106" transform="translate(514.717 312.611)">
              <g id="Grupo_1008105" data-name="Grupo 1008105" transform="translate(0 0)" clip-path="url(#clip-path-14)">
                <path id="Trazado_716155" data-name="Trazado 716155" d="M.369,9.038,5.94,0a2.762,2.762,0,0,1-.367.331L0,9.367a2.677,2.677,0,0,0,.369-.329" transform="translate(11.63 7.723)" fill="#1f4144"/>
                <path id="Trazado_716156" data-name="Trazado 716156" d="M.649,9.038,6.221,0a3.092,3.092,0,0,1-.648.37L0,9.408a3.167,3.167,0,0,0,.649-.37" transform="translate(10.981 8.052)" fill="#1f4144"/>
                <path id="Trazado_716157" data-name="Trazado 716157" d="M.872,9.038,6.444,0a4.04,4.04,0,0,1-.872.258L0,9.295a4.12,4.12,0,0,0,.872-.257" transform="translate(10.11 8.422)" fill="#1f4144"/>
                <path id="Trazado_716158" data-name="Trazado 716158" d="M1.649,9.037,7.22,0A6.048,6.048,0,0,1,5.572.053L0,9.091a6.045,6.045,0,0,0,1.649-.054" transform="translate(8.46 8.681)" fill="#1f4144"/>
                <path id="Trazado_716159" data-name="Trazado 716159" d="M1.85,9.427,7.421.389A8.854,8.854,0,0,1,5.572,0L0,9.037a8.771,8.771,0,0,0,1.85.391" transform="translate(6.61 8.344)" fill="#1f4144"/>
                <path id="Trazado_716160" data-name="Trazado 716160" d="M1.851,9.831,7.423.793A10.881,10.881,0,0,1,5.572,0L0,9.038a10.992,10.992,0,0,0,1.851.793" transform="translate(4.76 7.55)" fill="#1f4144"/>
                <path id="Trazado_716161" data-name="Trazado 716161" d="M1.124,9.726,6.7.688A11.894,11.894,0,0,1,5.572,0L0,9.037a11.913,11.913,0,0,0,1.124.69" transform="translate(3.636 6.862)" fill="#1f4144"/>
                <path id="Trazado_716162" data-name="Trazado 716162" d="M.916,9.74,6.487.7,6.318.584Q5.925.3,5.572,0L0,9.038c.236.2.484.4.747.584.056.04.113.08.169.119" transform="translate(2.721 6.158)" fill="#1f4144"/>
                <path id="Trazado_716163" data-name="Trazado 716163" d="M.807,9.8,6.379.764A10.309,10.309,0,0,1,5.572,0L0,9.038A10.308,10.308,0,0,0,.807,9.8" transform="translate(1.914 5.394)" fill="#1f4144"/>
                <path id="Trazado_716164" data-name="Trazado 716164" d="M.78,9.977,6.352.941A9.3,9.3,0,0,1,5.572,0L0,9.037a8.973,8.973,0,0,0,.78.941" transform="translate(1.133 4.453)" fill="#1f4144"/>
                <path id="Trazado_716165" data-name="Trazado 716165" d="M1.134,13.491,6.705,4.453C5.558,2.853,5.233,1.177,5.957,0L.386,9.038c-.726,1.175-.4,2.854.748,4.453" transform="translate(-0.001 0)" fill="#1f4144"/>
              </g>
            </g>
            <g id="Grupo_1008108" data-name="Grupo 1008108" transform="translate(0 0)">
              <g id="Grupo_1008107" data-name="Grupo 1008107" clip-path="url(#clip-path-9)">
                <path id="Trazado_716167" data-name="Trazado 716167" d="M5.959,0,.387,9.038c-1.09,1.767.181,4.656,3.084,6.739,3.112,2.232,6.929,2.672,8.512.967l5.573-9.038c-1.583,1.7-5.4,1.266-8.513-.967C6.14,4.657,4.868,1.769,5.959,0" transform="translate(500.462 302.388)" fill="#1f4144"/>
              </g>
            </g>
            <g id="Grupo_1008110" data-name="Grupo 1008110" transform="translate(500.462 302.389)">
              <g id="Grupo_1008109" data-name="Grupo 1008109" transform="translate(0 0)" clip-path="url(#clip-path-16)">
                <path id="Trazado_716168" data-name="Trazado 716168" d="M.366,9.038,5.937,0a2.732,2.732,0,0,1-.366.328L0,9.366a2.732,2.732,0,0,0,.366-.328" transform="translate(11.616 7.705)" fill="#1f4144"/>
                <path id="Trazado_716169" data-name="Trazado 716169" d="M.648,9.038,6.219,0a3.121,3.121,0,0,1-.648.369L0,9.406a3.157,3.157,0,0,0,.648-.369" transform="translate(10.97 8.033)" fill="#1f4144"/>
                <path id="Trazado_716170" data-name="Trazado 716170" d="M.874,9.038,6.445,0a4.031,4.031,0,0,1-.874.258L0,9.295a4.052,4.052,0,0,0,.874-.257" transform="translate(10.096 8.401)" fill="#1f4144"/>
                <path id="Trazado_716171" data-name="Trazado 716171" d="M1.656,9.037,7.227,0A6.1,6.1,0,0,1,5.572.053L0,9.091a6.042,6.042,0,0,0,1.656-.054" transform="translate(8.442 8.66)" fill="#1f4144"/>
                <path id="Trazado_716172" data-name="Trazado 716172" d="M1.858,9.43,7.43.394A8.907,8.907,0,0,1,5.572,0L0,9.038a8.9,8.9,0,0,0,1.858.392" transform="translate(6.582 8.32)" fill="#1f4144"/>
                <path id="Trazado_716173" data-name="Trazado 716173" d="M1.841,9.825,7.413.787A10.937,10.937,0,0,1,5.572,0L0,9.037a10.893,10.893,0,0,0,1.841.789" transform="translate(4.741 7.533)" fill="#1f4144"/>
                <path id="Trazado_716174" data-name="Trazado 716174" d="M1.1,9.715,6.676.677A11.444,11.444,0,0,1,5.572,0L0,9.038a11.446,11.446,0,0,0,1.1.677" transform="translate(3.637 6.855)" fill="#1f4144"/>
                <path id="Trazado_716175" data-name="Trazado 716175" d="M.919,9.743,6.49.7C6.434.667,6.38.628,6.325.589Q5.928.3,5.572,0L0,9.038c.236.2.489.4.754.589.054.039.109.078.165.116" transform="translate(2.717 6.15)" fill="#1f4144"/>
                <path id="Trazado_716176" data-name="Trazado 716176" d="M.81,9.8,6.381.766A10.4,10.4,0,0,1,5.572,0L0,9.038A10.4,10.4,0,0,0,.81,9.8" transform="translate(1.907 5.382)" fill="#1f4144"/>
                <path id="Trazado_716177" data-name="Trazado 716177" d="M.779,9.976,6.351.938A9.093,9.093,0,0,1,5.572,0L0,9.037a8.96,8.96,0,0,0,.779.94" transform="translate(1.128 4.444)" fill="#1f4144"/>
                <path id="Trazado_716178" data-name="Trazado 716178" d="M1.128,13.481,6.7,4.444C5.552,2.845,5.234,1.175,5.959,0L.387,9.038c-.725,1.174-.406,2.844.741,4.444" transform="translate(0 -0.001)" fill="#1f4144"/>
              </g>
            </g>
            <g id="Grupo_1008112" data-name="Grupo 1008112" transform="translate(0 0)">
              <g id="Grupo_1008111" data-name="Grupo 1008111" clip-path="url(#clip-path-9)">
                <path id="Trazado_716180" data-name="Trazado 716180" d="M63.362,56.839,68.934,47.8c5.936-9.626-1.068-25.458-16.888-36.808C34.99-1.244,14.177-3.614,5.572,5.648L0,14.686C8.605,5.422,29.417,7.793,46.474,20.03,62.294,31.381,69.3,47.212,63.362,56.839" transform="translate(479.133 287.586)" fill="#1f4144"/>
              </g>
            </g>
            <g id="Grupo_1008114" data-name="Grupo 1008114" transform="translate(0 0)">
              <g id="Grupo_1008113" data-name="Grupo 1008113" clip-path="url(#clip-path-9)">
                <path id="Trazado_716181" data-name="Trazado 716181" d="M3.733,5.648c-8.625,9.284-1.8,26.709,15.259,38.947s37.849,14.629,46.474,5.344c8.605-9.263,1.8-26.709-15.259-38.947S12.338-3.614,3.733,5.648M57.014,43.876c-6.265,6.743-21.38,4.994-33.749-3.881S5.939,18.47,12.2,11.725s21.351-5,33.72,3.878,17.344,21.539,11.09,28.272" transform="translate(475.4 296.624)" fill="#598583"/>
                <path id="Trazado_716182" data-name="Trazado 716182" d="M2.713,4.1C-3.553,10.846,1.4,23.5,13.774,32.372S41.259,43,47.523,36.253,48.8,16.855,36.433,7.98,8.967-2.631,2.713,4.1M41.824,25.125c-1.583,1.7-5.382,1.279-8.531-.981-3.112-2.232-4.365-5.432-2.782-7.135s5.4-1.266,8.512.966c3.151,2.26,4.375,5.457,2.8,7.151M27.552,14.885c-1.583,1.7-5.4,1.266-8.512-.966-3.131-2.248-4.365-5.432-2.782-7.137S21.64,5.5,24.772,7.75c3.112,2.232,4.354,5.442,2.781,7.135m6.415,18.7c-1.583,1.7-5.372,1.268-8.523-.993-3.112-2.232-4.374-5.421-2.791-7.125s5.4-1.265,8.512.967c3.149,2.26,4.375,5.456,2.8,7.15M19.7,23.344c-1.583,1.7-5.391,1.255-8.5-.977C8.062,20.12,6.819,16.944,8.4,15.241s5.382-1.28,8.512.967c3.112,2.232,4.356,5.442,2.782,7.135" transform="translate(484.892 304.247)" fill="#355d65"/>
                <path id="Trazado_716183" data-name="Trazado 716183" d="M0,16.825S32.842,3.88,44.733,0" transform="translate(481.126 324.004)" fill="none" stroke="#4d342c" stroke-miterlimit="10" stroke-width="1.701" opacity="0.48"/>
              </g>
            </g>
          </g>
          <path id="Trazado_716184" data-name="Trazado 716184" d="M488.523,123.071a52.914,52.914,0,0,1-34.779,83.067c-21.822,3.444-43.388-6.93-61.924-18.952s-36.33-26.256-57.645-32.064c-20.308-5.533-42.06-2.823-62.267,3.07s-39.362,14.863-59.122,22.114c-32.392,11.886-68.219,19.1-101.292,9.268s-61.656-40.882-59.143-75.294C53.4,99.913,59.5,86.482,64.9,73.128s10.264-27.552,8.67-41.87S62.118,2.579,47.892.311c-11.41-1.819-22.967,4.545-30.1,13.635S7.244,34.465,4.841,45.766c-13.121,61.7.786,128.653,37.392,180.023" transform="matrix(-0.545, 0.839, -0.839, -0.545, 460.745, 214.213)" fill="none" stroke="#1448d3" stroke-miterlimit="10" stroke-width="1.701" opacity="0.27"/>
          <path id="Trazado_716185" data-name="Trazado 716185" d="M429.209,91.74C363.871,67.765,291.605,53.209,224.9,73.045S100.529,155.507,105.6,224.919c2.117,28.981,14.415,56.072,25.309,83.01s20.7,55.575,17.488,84.455-23.1,57.848-51.8,62.422c-23.016,3.669-46.326-9.167-60.712-27.5S14.611,385.915,9.764,363.121C-16.7,238.67,11.35,103.617,85.187,0" transform="matrix(-0.839, -0.545, 0.545, -0.839, 750.325, 633.065)" fill="none" stroke="#4d342c" stroke-miterlimit="10" stroke-width="1.701" stroke-dasharray="3" opacity="0.5"/>
        </g>
      </g>
    </g>
  </g>
</svg>
