<svg xmlns="http://www.w3.org/2000/svg" xmlns:xlink="http://www.w3.org/1999/xlink" width="120" height="120" viewBox="0 0 120 120">
  <defs>
    <filter id="Elipse_8028" x="0" y="0" width="120" height="120" filterUnits="userSpaceOnUse">
      <feOffset dy="3" input="SourceAlpha"/>
      <feGaussianBlur stdDeviation="3" result="blur"/>
      <feFlood flood-opacity="0.161"/>
      <feComposite operator="in" in2="blur"/>
      <feComposite in="SourceGraphic"/>
    </filter>
  </defs>
  <g id="Grupo_1054390" data-name="Grupo 1054390" transform="translate(-1090.51 -1872.106)">
    <g transform="matrix(1, 0, 0, 1, 1090.51, 1872.11)" filter="url(#Elipse_8028)">
      <circle id="Elipse_8028-2" data-name="Elipse 8028" cx="51" cy="51" r="51" transform="translate(9 6)" fill="#ffc5ad"/>
    </g>
    <g id="corredor" transform="translate(1100.614 1878.964)">
      <path id="Trazado_789794" data-name="Trazado 789794" d="M91.011,181.985l-13.632,2.164a1.53,1.53,0,0,0-.949,2.474l2.112,2.606L58.22,205.7,43.468,193.927a3.548,3.548,0,0,0-4.079-.244l-30.2,18.681a3.548,3.548,0,1,0,3.732,6.035L41,201.032l15.029,11.991a3.548,3.548,0,0,0,4.446-.017L83.01,194.741l2.112,2.607a1.53,1.53,0,0,0,2.617-.416l4.941-12.889A1.53,1.53,0,0,0,91.011,181.985Z" transform="translate(-0.001 -144.526)" fill="#9be69d"/>
      <path id="Trazado_789795" data-name="Trazado 789795" d="M10.191,342.681l-1.009.625a3.548,3.548,0,0,0,3.732,6.035l15.052-9.311" transform="translate(0 -275.468)" fill="none" stroke="#000" stroke-linecap="round" stroke-linejoin="round" stroke-miterlimit="10" stroke-width="3"/>
      <line id="Línea_1038" data-name="Línea 1038" x1="8.394" y2="5.191" transform="translate(15.265 58.883)" fill="none" stroke="#000" stroke-linecap="round" stroke-linejoin="round" stroke-miterlimit="10" stroke-width="3"/>
      <path id="Trazado_789796" data-name="Trazado 789796" d="M262.111,209.167l4.834,3.856a3.547,3.547,0,0,0,4.446-.015l22.539-18.266,2.112,2.607a1.53,1.53,0,0,0,2.617-.415l4.942-12.888a1.531,1.531,0,0,0-1.67-2.059L288.3,184.149a1.53,1.53,0,0,0-.949,2.474l2.112,2.6L269.139,205.7l-2.7-2.152" transform="translate(-210.921 -144.527)" fill="none" stroke="#000" stroke-linecap="round" stroke-linejoin="round" stroke-miterlimit="10" stroke-width="3"/>
      <path id="Trazado_789797" data-name="Trazado 789797" d="M286.528,378.9l19.819-7.678,1.212,3.128a1.53,1.53,0,0,0,2.619.406L318.83,364a1.53,1.53,0,0,0-.957-2.471l-13.639-2.118a1.53,1.53,0,0,0-1.661,2.065l1.212,3.128-19.918,7.717Z" transform="translate(-228.943 -291.51)" fill="#fe5694"/>
      <line id="Línea_1039" data-name="Línea 1039" x1="5.016" y2="1.944" transform="translate(63.637 83.102)" fill="none" stroke="#000" stroke-linecap="round" stroke-linejoin="round" stroke-miterlimit="10" stroke-width="3"/>
      <path id="Trazado_789798" data-name="Trazado 789798" d="M309.591,370.609l15.5-6.007-1.211-3.128a1.53,1.53,0,0,1,1.661-2.064l13.64,2.117a1.531,1.531,0,0,1,.957,2.471l-8.653,10.755a1.53,1.53,0,0,1-2.619-.407l-1.211-3.128-3.152,1.222" transform="translate(-250.254 -291.507)" fill="none" stroke="#000" stroke-linecap="round" stroke-linejoin="round" stroke-miterlimit="10" stroke-width="3"/>
      <g id="Grupo_1054396" data-name="Grupo 1054396" transform="translate(14.123 14.496)">
        <path id="Trazado_789799" data-name="Trazado 789799" d="M95.629,66.453a18.132,18.132,0,0,1-3.674,10.956l-1.469,1.944H52.71l-5.038-9.115A12.6,12.6,0,0,1,48.1,57.317l.122-.189a13.049,13.049,0,0,1,14.917-5.405l1.531.484,5.434-2.4A18.182,18.182,0,0,1,95.629,66.453Z" transform="translate(-46.099 -48.264)" fill="#e19974"/>
        <path id="Trazado_789800" data-name="Trazado 789800" d="M59.732,86.947l1.992,3.815-1.867,2.354H52.71L47.672,84A12.6,12.6,0,0,1,48.1,71.08l.122-.189a13.049,13.049,0,0,1,14.917-5.405C50.469,72.395,59.732,86.947,59.732,86.947Z" transform="translate(-46.099 -62.027)" fill="#dc8758"/>
        <path id="Trazado_789801" data-name="Trazado 789801" d="M316.131,94.23a18.189,18.189,0,0,1,.443,19.917" transform="translate(-269.795 -86.343)" fill="none" stroke="#000" stroke-linecap="round" stroke-linejoin="round" stroke-miterlimit="10" stroke-width="3"/>
        <path id="Trazado_789802" data-name="Trazado 789802" d="M50.741,75.788l-3.068-5.549A12.6,12.6,0,0,1,48.1,57.319l.122-.19a13.052,13.052,0,0,1,14.917-5.405l1.531.486,5.434-2.4A18.185,18.185,0,0,1,88.28,51.846" transform="translate(-46.099 -48.265)" fill="none" stroke="#000" stroke-linecap="round" stroke-linejoin="round" stroke-miterlimit="10" stroke-width="3"/>
        <path id="Trazado_789803" data-name="Trazado 789803" d="M88.462,398.323l9.267,6.125a4.006,4.006,0,0,1,1.783,3l.771,9.09H50.945l.771-9.09a4.007,4.007,0,0,1,1.783-3l9.267-6.125Z" transform="translate(-50.113 -338.255)" fill="#b3dafe"/>
        <path id="Trazado_789804" data-name="Trazado 789804" d="M68.689,398.319,63.7,404.445a5.276,5.276,0,0,0-.961,3l-.417,9.089H50.945l.772-9.089a4.005,4.005,0,0,1,1.783-3l9.268-6.126Z" transform="translate(-50.113 -338.252)" fill="#8ac9fe"/>
        <path id="Trazado_789805" data-name="Trazado 789805" d="M163.66,369.151l3.233,8.164h4.188l3.233-8.164-4.414-6.042h-1.744Z" transform="translate(-143.487 -309.084)" fill="#54469c"/>
        <path id="Trazado_789806" data-name="Trazado 789806" d="M130.259,367.723l-7.464,5.88a2.191,2.191,0,0,1-3.27-.655l-2.339-4.2a2.191,2.191,0,0,1,1.2-3.137l7.258-2.5Z" transform="translate(-104.758 -309.084)" fill="#8ac9fe"/>
        <path id="Trazado_789807" data-name="Trazado 789807" d="M194.71,367.723l7.464,5.88a2.191,2.191,0,0,0,3.27-.655l2.339-4.2a2.191,2.191,0,0,0-1.2-3.137l-7.258-2.5Z" transform="translate(-169.209 -309.084)" fill="#8ac9fe"/>
        <path id="Trazado_789808" data-name="Trazado 789808" d="M130.259,367.723l-7.464,5.88a2.191,2.191,0,0,1-3.27-.655l-2.339-4.2a2.191,2.191,0,0,1,1.2-3.137l7.258-2.5" transform="translate(-104.758 -309.084)" fill="none" stroke="#000" stroke-linecap="round" stroke-linejoin="round" stroke-miterlimit="10" stroke-width="3"/>
        <path id="Trazado_789809" data-name="Trazado 789809" d="M194.71,367.723l7.464,5.88a2.191,2.191,0,0,0,3.27-.655l2.339-4.2a2.191,2.191,0,0,0-1.2-3.137l-7.258-2.5" transform="translate(-169.209 -309.084)" fill="none" stroke="#000" stroke-linecap="round" stroke-linejoin="round" stroke-miterlimit="10" stroke-width="3"/>
        <path id="Trazado_789810" data-name="Trazado 789810" d="M168.53,410.619l2.4,6.054h4.189l2.4-6.054" transform="translate(-147.522 -348.441)" fill="none" stroke="#000" stroke-linecap="round" stroke-linejoin="round" stroke-miterlimit="10" stroke-width="3"/>
        <path id="Trazado_789811" data-name="Trazado 789811" d="M163.66,455.957l3.233-10.055h4.188l3.233,10.055Z" transform="translate(-143.487 -377.67)" fill="#54469c"/>
        <path id="Trazado_789812" data-name="Trazado 789812" d="M163.66,455.957l3.233-10.055h4.188l3.233,10.055" transform="translate(-143.487 -377.67)" fill="none" stroke="#000" stroke-linecap="round" stroke-linejoin="round" stroke-miterlimit="10" stroke-width="3"/>
        <path id="Trazado_789813" data-name="Trazado 789813" d="M107.359,172.92a6.5,6.5,0,0,1-5.139,6.359,17.7,17.7,0,0,1-13.067,16.559v.184a4.613,4.613,0,1,1-9.227,0v-.184a17.7,17.7,0,0,1-13.067-16.559,6.5,6.5,0,0,1-5.139-6.359,3.932,3.932,0,0,1,3.931-3.931h1.2a12.849,12.849,0,0,0,5.822-2.073,17.408,17.408,0,0,0,5.4-5.5s11.849,7.578,24.153,7.578h1.2A3.931,3.931,0,0,1,107.359,172.92Z" transform="translate(-59.039 -141.996)" fill="#ffe5c2"/>
        <path id="Trazado_789814" data-name="Trazado 789814" d="M95.65,219.1a17.622,17.622,0,0,1-6.5,3.317v.184a4.613,4.613,0,1,1-9.227,0v-.184A17.7,17.7,0,0,1,66.86,205.854a6.5,6.5,0,0,1-5.139-6.359,3.932,3.932,0,0,1,3.931-3.931h1.2a12.849,12.849,0,0,0,5.822-2.073v12.722A12.883,12.883,0,0,0,85.555,219.1Z" transform="translate(-59.04 -168.571)" fill="#fed2a4"/>
        <path id="Trazado_789815" data-name="Trazado 789815" d="M102.227,168.987h1.2a3.931,3.931,0,0,1,3.931,3.931,6.5,6.5,0,0,1-5.139,6.359,17.7,17.7,0,0,1-13.067,16.559v.184a4.613,4.613,0,1,1-9.227,0v-.184a17.7,17.7,0,0,1-13.067-16.559,6.5,6.5,0,0,1-5.139-6.359,3.932,3.932,0,0,1,3.931-3.931h1.2s6.548-.218,11.224-7.578C78.074,161.409,89.922,168.987,102.227,168.987Z" transform="translate(-59.039 -141.994)" fill="none" stroke="#000" stroke-linecap="round" stroke-linejoin="round" stroke-miterlimit="10" stroke-width="3"/>
        <path id="Trazado_789819" data-name="Trazado 789819" d="M50.945,416.542l.771-9.09a4.007,4.007,0,0,1,1.783-3l9.267-6.125" transform="translate(-50.113 -338.255)" fill="none" stroke="#000" stroke-linecap="round" stroke-linejoin="round" stroke-miterlimit="10" stroke-width="3"/>
        <path id="Trazado_789820" data-name="Trazado 789820" d="M269.584,398.323l9.267,6.125a4.006,4.006,0,0,1,1.783,3l.771,9.09" transform="translate(-231.235 -338.255)" fill="none" stroke="#000" stroke-linecap="round" stroke-linejoin="round" stroke-miterlimit="10" stroke-width="3"/>
      </g>
      <g id="Grupo_1054398" data-name="Grupo 1054398" transform="translate(66.875 7.502)">
        <circle id="Elipse_8117" data-name="Elipse 8117" cx="12.954" cy="12.954" r="12.954" transform="translate(0 0)" fill="#ffe177"/>
        <path id="Trazado_789821" data-name="Trazado 789821" d="M368.641,33.227a12.954,12.954,0,1,1,0-25.543,12.954,12.954,0,0,0,0,25.543Z" transform="translate(-353.519 -7.502)" fill="#fec165"/>
        <circle id="Elipse_8118" data-name="Elipse 8118" cx="12.954" cy="12.954" r="12.954" transform="translate(0 0)" fill="none" stroke="#000" stroke-linecap="round" stroke-linejoin="round" stroke-miterlimit="10" stroke-width="3"/>
        <g id="Grupo_1054397" data-name="Grupo 1054397" transform="translate(9.779 5.413)">
          <path id="Trazado_789822" data-name="Trazado 789822" d="M415.98,49.032a3.616,3.616,0,0,0-3.341-.579c-1.88.566-2.347,3.139-1.069,4.141a12.129,12.129,0,0,0,3.325,1.574c3.33,1.177,2.1,5.873-1.288,5.9a4.533,4.533,0,0,1-3.1-.835" transform="translate(-410.506 -46.696)" fill="none" stroke="#000" stroke-linecap="round" stroke-linejoin="round" stroke-miterlimit="10" stroke-width="3"/>
          <line id="Línea_1042" data-name="Línea 1042" y1="1.714" transform="translate(3.1 13.368)" fill="none" stroke="#000" stroke-linecap="round" stroke-linejoin="round" stroke-miterlimit="10" stroke-width="3"/>
          <line id="Línea_1043" data-name="Línea 1043" y1="1.59" transform="translate(3.1)" fill="none" stroke="#000" stroke-linecap="round" stroke-linejoin="round" stroke-miterlimit="10" stroke-width="3"/>
        </g>
      </g>
    </g>
  </g>
</svg>
