<svg xmlns="http://www.w3.org/2000/svg" xmlns:xlink="http://www.w3.org/1999/xlink" width="134.81" height="134.81" viewBox="0 0 134.81 134.81">
  <defs>
    <filter id="Elipse_8044" x="0" y="0" width="134.81" height="134.81" filterUnits="userSpaceOnUse">
      <feOffset dy="3" input="SourceAlpha"/>
      <feGaussianBlur stdDeviation="3" result="blur"/>
      <feFlood flood-opacity="0.161"/>
      <feComposite operator="in" in2="blur"/>
      <feComposite in="SourceGraphic"/>
    </filter>
  </defs>
  <g id="Grupo_1047341" data-name="Grupo 1047341" transform="translate(-731.343 -1512.123)">
    <g transform="matrix(1, 0, 0, 1, 731.34, 1512.12)" filter="url(#Elipse_8044)">
      <circle id="Elipse_8044-2" data-name="Elipse 8044" cx="58.405" cy="58.405" r="58.405" transform="translate(9 6)" fill="#ffe6ea"/>
    </g>
    <g id="evaluacion_2_" data-name="evaluacion (2)" transform="translate(755.75 1521.182)">
      <path id="Trazado_778953" data-name="Trazado 778953" d="M86.481,97.7h14.682a24.943,24.943,0,0,1,20.187,1.456V85.84H108.035v.613a1.651,1.651,0,0,1-1.652,1.652H73.4a1.651,1.651,0,0,1-1.652-1.652V85.84H58.43v78.09h52.058v-9.2a1.651,1.651,0,0,1,1.652-1.652h9.213V142.8a24.949,24.949,0,0,1-19.543,1.679H86.483a1.652,1.652,0,1,1,0-3.3h8.785A24.776,24.776,0,0,1,88.133,108.6h-1.65a1.652,1.652,0,1,1,0-3.3h3.937c.522-.636,1.078-1.251,1.668-1.84A24.852,24.852,0,0,1,94.957,101H86.483a1.653,1.653,0,0,1,0-3.306Z" transform="translate(-48.521 -68.116)" fill="#ebeced"/>
      <path id="Trazado_778954" data-name="Trazado 778954" d="M101.2,357.06h9.589v9.572H101.2Z" transform="translate(-82.461 -283.337)" fill="#fe646f"/>
      <path id="Trazado_778955" data-name="Trazado 778955" d="M101.2,146.48h9.589v9.578H101.2Z" transform="translate(-82.461 -116.236)" fill="#b4dd7f"/>
      <path id="Trazado_778956" data-name="Trazado 778956" d="M101.2,251.75h9.589v9.578H101.2Z" transform="translate(-82.461 -199.77)" fill="#b4dd7f"/>
      <path id="Trazado_778957" data-name="Trazado 778957" d="M159.34,21.56a1.651,1.651,0,0,1-1.652-1.652,3.918,3.918,0,0,0-7.836,0A1.651,1.651,0,0,1,148.2,21.56H138.93v7.823h29.683V21.56Z" transform="translate(-112.4 -12.696)" fill="#9e9e9e"/>
      <path id="Trazado_778958" data-name="Trazado 778958" d="M53.465,7.212a1.655,1.655,0,1,1-1.658-1.65A1.659,1.659,0,0,1,53.465,7.212Zm58.378,78.321a4.616,4.616,0,0,1-1.359,3.287l-2.936,2.932a4.661,4.661,0,0,1-6.578,0l-7.8-7.79v17.092a4.668,4.668,0,0,1-4.664,4.66H15.11a4.67,4.67,0,0,1-4.67-4.66V12.492a4.674,4.674,0,0,1,4.67-4.666H33.664V7.212A1.651,1.651,0,0,1,35.316,5.56h9.463a7.225,7.225,0,0,1,14.061,0H68.3a1.651,1.651,0,0,1,1.652,1.652v.613H88.507a4.67,4.67,0,0,1,4.664,4.666V40.729a24.818,24.818,0,0,1,0,24.256v1.767L96.1,68.514a14.635,14.635,0,0,1,2.917,2.277l11.468,11.453a4.621,4.621,0,0,1,1.359,3.289ZM94.01,71.113,90.4,68.939q-.632.737-1.328,1.433t-1.427,1.317L89.819,75.3ZM76.986,92.207l3.944-3.939H75.708v5.216Zm-5.445-17.9a21.455,21.455,0,1,0-15.2-6.275A21.43,21.43,0,0,0,71.542,74.31ZM69.954,11.129v3.293H84.921a1.651,1.651,0,0,1,1.652,1.652V33.162a24.774,24.774,0,0,1,2.5,2.182q.409.409.8.834V12.492a1.364,1.364,0,0,0-1.361-1.363ZM36.968,16.685H66.65V8.864H57.38a1.651,1.651,0,0,1-1.652-1.652,3.918,3.918,0,0,0-7.836,0A1.651,1.651,0,0,1,46.24,8.864H36.97v7.821Zm-1.652,3.3a1.651,1.651,0,0,1-1.652-1.652v-.613H20.349v78.09H72.407v-9.2a1.651,1.651,0,0,1,1.652-1.652h9.213V74.679a24.949,24.949,0,0,1-19.543,1.679H48.4a1.652,1.652,0,0,1,0-3.3h8.785a24.776,24.776,0,0,1-7.136-32.567H48.4a1.652,1.652,0,0,1,0-3.3H52.34c.522-.636,1.078-1.251,1.668-1.84a24.853,24.853,0,0,1,2.868-2.459H48.4a1.652,1.652,0,0,1,0-3.3H63.084a24.943,24.943,0,0,1,20.187,1.456V17.724H69.956v.613A1.651,1.651,0,0,1,68.3,19.989ZM89.868,80.663,89.5,80.3a14.614,14.614,0,0,1-2.279-2.907l-.65-1.078v10.3a1.647,1.647,0,0,1-.485,1.169L75.223,98.634a1.649,1.649,0,0,1-1.167.483H18.7a1.651,1.651,0,0,1-1.652-1.652V16.072A1.651,1.651,0,0,1,18.7,14.42H33.664V11.129H15.11a1.383,1.383,0,0,0-1.367,1.363v88.562a1.38,1.38,0,0,0,1.367,1.357h73.4a1.377,1.377,0,0,0,1.361-1.357Zm18.671,4.871a1.331,1.331,0,0,0-.39-.95L96.682,73.131s-.006,0-.008-.008l-4.842,4.836,0,0L103.3,89.415a1.369,1.369,0,0,0,1.908,0l2.936-2.932a1.325,1.325,0,0,0,.392-.95Zm-37-13.262A19.415,19.415,0,1,1,90.979,52.857,19.448,19.448,0,0,1,71.542,72.272Zm0-3.3A16.111,16.111,0,1,0,55.408,52.857,16.14,16.14,0,0,0,71.542,68.968ZM48.4,83.96H74.917a1.652,1.652,0,0,0,0-3.3H48.4a1.652,1.652,0,1,0,0,3.3ZM27.528,26.941H40.42a1.651,1.651,0,0,1,1.652,1.652V41.474a1.651,1.651,0,0,1-1.652,1.652H27.528a1.651,1.651,0,0,1-1.652-1.652V28.592A1.651,1.651,0,0,1,27.528,26.941ZM29.18,39.822h9.589V30.244H29.18Zm6.642-7.883-2.864,2.682-.791-.793a1.651,1.651,0,0,0-2.337,2.333l1.922,1.926a1.651,1.651,0,0,0,2.3.039l4.032-3.774a1.654,1.654,0,0,0-2.261-2.414ZM30.765,81.714a1.652,1.652,0,0,0,2.335,0l.871-.871.871.871a1.652,1.652,0,0,0,2.337-2.335l-.871-.871.871-.871A1.651,1.651,0,1,0,34.845,75.3l-.871.871L33.1,75.3a1.651,1.651,0,0,0-2.335,2.335l.871.871-.871.871A1.651,1.651,0,0,0,30.765,81.714ZM42.072,50.328V63.21a1.651,1.651,0,0,1-1.652,1.652H27.528a1.651,1.651,0,0,1-1.652-1.652V50.328a1.651,1.651,0,0,1,1.652-1.652H40.42A1.653,1.653,0,0,1,42.072,50.328Zm-3.3,1.652H29.18v9.578h9.589ZM31.75,59.823a1.651,1.651,0,0,0,2.3.039l4.032-3.774a1.652,1.652,0,1,0-2.259-2.412l-2.864,2.682-.791-.793A1.651,1.651,0,0,0,29.83,57.9ZM42.072,72.071V84.947A1.651,1.651,0,0,1,40.42,86.6H27.528a1.651,1.651,0,0,1-1.652-1.652V72.071a1.651,1.651,0,0,1,1.652-1.652H40.42a1.651,1.651,0,0,1,1.652,1.652Zm-3.3,1.652H29.18V83.3h9.589Z" transform="translate(-10.44)"/>
      <path id="Trazado_778959" data-name="Trazado 778959" d="M327.828,431.44l3.944-3.939H326.55v5.215Z" transform="translate(-261.282 -339.233)" fill="#ddd"/>
      <path id="Trazado_778960" data-name="Trazado 778960" d="M27.807,145.182h73.4a1.377,1.377,0,0,0,1.361-1.357V123.434l-.365-.365a14.613,14.613,0,0,1-2.279-2.907l-.65-1.078v10.3a1.647,1.647,0,0,1-.485,1.169l-10.865,10.85a1.649,1.649,0,0,1-1.167.483H31.393a1.651,1.651,0,0,1-1.652-1.652V58.843a1.651,1.651,0,0,1,1.652-1.652H46.361V53.9H27.807a1.383,1.383,0,0,0-1.367,1.363v88.562a1.38,1.38,0,0,0,1.367,1.357Z" transform="translate(-23.136 -42.771)" fill="sienna"/>
      <ellipse id="Elipse_8046" data-name="Elipse 8046" cx="16.134" cy="16.111" rx="16.134" ry="16.111" transform="translate(44.968 36.746)" fill="#fff9df"/>
      <path id="Trazado_778961" data-name="Trazado 778961" d="M315.3,58.843V75.931a24.76,24.76,0,0,1,2.5,2.182q.409.409.8.834V55.263a1.364,1.364,0,0,0-1.361-1.363H298.68v3.293h14.967A1.65,1.65,0,0,1,315.3,58.843Z" transform="translate(-239.166 -42.771)" fill="sienna"/>
      <path id="Trazado_778962" data-name="Trazado 778962" d="M208.563,158.375a21.494,21.494,0,1,0,30.393,0A21.539,21.539,0,0,0,208.563,158.375Zm15.2,34.592A19.415,19.415,0,1,1,243.2,173.552,19.448,19.448,0,0,1,223.764,192.967Z" transform="translate(-162.662 -120.695)" fill="#f3ba66"/>
      <path id="Trazado_778963" data-name="Trazado 778963" d="M385.787,335.323q-.694.694-1.427,1.317l2.174,3.609,4.191-4.185-3.611-2.174Q386.479,334.627,385.787,335.323Z" transform="translate(-307.156 -264.951)" fill="#a79ba7"/>
      <path id="Trazado_778964" data-name="Trazado 778964" d="M404.646,358.99l11.467,11.453a1.369,1.369,0,0,0,1.908,0l2.936-2.932a1.351,1.351,0,0,0,0-1.9L409.49,354.158s-.006,0-.008-.008l-4.842,4.836S404.644,358.988,404.646,358.99Z" transform="translate(-323.248 -281.028)" fill="#f1ba84"/>
    </g>
  </g>
</svg>
