<svg xmlns="http://www.w3.org/2000/svg" xmlns:xlink="http://www.w3.org/1999/xlink" width="60.772" height="60.772" viewBox="0 0 60.772 60.772">
  <defs>
    <clipPath id="clip-path">
      <path id="path3015" d="M0-682.665H60.772v60.772H0Z" transform="translate(0 682.665)" fill="#12263f"/>
    </clipPath>
  </defs>
  <g id="g3009" transform="translate(0 682.665)">
    <g id="g3011" transform="translate(0 -682.665)">
      <g id="g3013" clip-path="url(#clip-path)">
        <g id="g3019" transform="translate(18.389 51.855)">
          <path id="path3021" d="M-249.147,0V6.274a1.8,1.8,0,0,1-1.8,1.8h-22.549" transform="translate(273.494)" fill="none" stroke="#12263f" stroke-linecap="round" stroke-linejoin="round" stroke-miterlimit="10" stroke-width="2"/>
        </g>
        <g id="g3023" transform="translate(33.187 8.691)">
          <path id="path3025" d="M0,0H7.751a1.8,1.8,0,0,1,1.8,1.8v9.168" fill="none" stroke="#12263f" stroke-linecap="round" stroke-linejoin="round" stroke-miterlimit="10" stroke-width="2"/>
        </g>
        <g id="g3027" transform="translate(5.994 8.691)">
          <path id="path3029" d="M-84.675-524.31h-6.476a1.8,1.8,0,0,1-1.8-1.8v-47.64a1.8,1.8,0,0,1,1.8-1.8H-83.4" transform="translate(92.949 575.547)" fill="none" stroke="#12263f" stroke-linecap="round" stroke-linejoin="round" stroke-miterlimit="10" stroke-width="2"/>
        </g>
        <g id="g3031" transform="translate(15.544 0.845)">
          <path id="path3033" d="M-126.581-49.921v-1.3a3.565,3.565,0,0,0-3.548-3.581,3.565,3.565,0,0,0-3.548,3.581v1.3h-4.561a.716.716,0,0,0-.713.719v4.5a.716.716,0,0,0,.713.72h16.218a.716.716,0,0,0,.713-.72v-4.5a.716.716,0,0,0-.713-.719Z" transform="translate(138.95 54.8)" fill="none" stroke="#12263f" stroke-linecap="round" stroke-linejoin="round" stroke-miterlimit="10" stroke-width="2"/>
        </g>
        <g id="g3035" transform="translate(11.434 17.627)">
          <path id="path3037" d="M0,0H25.864" fill="none" stroke="#12263f" stroke-linecap="round" stroke-linejoin="round" stroke-miterlimit="10" stroke-width="2"/>
        </g>
        <g id="g3039" transform="translate(11.434 22.795)">
          <path id="path3041" d="M0,0H17.417" fill="none" stroke="#12263f" stroke-linecap="round" stroke-linejoin="round" stroke-miterlimit="10" stroke-width="2"/>
        </g>
        <g id="g3043" transform="translate(11.434 27.964)">
          <path id="path3045" d="M0,0H13.921" fill="none" stroke="#12263f" stroke-linecap="round" stroke-linejoin="round" stroke-miterlimit="10" stroke-width="2"/>
        </g>
        <g id="g3047" transform="translate(11.434 33.132)">
          <path id="path3049" d="M0,0H13.921" fill="none" stroke="#12263f" stroke-linecap="round" stroke-linejoin="round" stroke-miterlimit="10" stroke-width="2"/>
        </g>
        <g id="g3051" transform="translate(11.434 38.301)">
          <path id="path3053" d="M0,0H13.921" fill="none" stroke="#12263f" stroke-linecap="round" stroke-linejoin="round" stroke-miterlimit="10" stroke-width="2"/>
        </g>
        <g id="g3055" transform="translate(11.434 43.469)">
          <path id="path3057" d="M0,0H17.417" fill="none" stroke="#12263f" stroke-linecap="round" stroke-linejoin="round" stroke-miterlimit="10" stroke-width="2"/>
        </g>
        <g id="g3059" transform="translate(11.434 48.638)">
          <path id="path3061" d="M0,0H19.261" fill="none" stroke="#12263f" stroke-linecap="round" stroke-linejoin="round" stroke-miterlimit="10" stroke-width="2"/>
        </g>
        <g id="g3063" transform="translate(11.434 53.806)">
          <path id="path3065" d="M0,0H19.261" fill="none" stroke="#12263f" stroke-linecap="round" stroke-linejoin="round" stroke-miterlimit="10" stroke-width="2"/>
        </g>
        <g id="g3067" transform="translate(37.867 42.756)">
          <path id="path3069" d="M0,0V10.418a.627.627,0,0,0,.913.558l3.67-1.881a.627.627,0,0,1,.572,0l3.67,1.881a.627.627,0,0,0,.913-.558V0" transform="translate(0 0.004)" fill="none" stroke="#12263f" stroke-linecap="round" stroke-linejoin="round" stroke-miterlimit="10" stroke-width="2"/>
        </g>
        <g id="g3071" transform="translate(30.694 20.055)">
          <path id="path3073" d="M-246.453-123.227c0,1.034-1.105,1.909-1.36,2.863-.264.987.248,2.3-.252,3.159s-1.9,1.085-2.612,1.8-.919,2.105-1.8,2.612-2.173-.012-3.159.252c-.954.255-1.829,1.36-2.863,1.36s-1.909-1.1-2.863-1.36c-.987-.264-2.3.248-3.159-.252s-1.085-1.9-1.8-2.612-2.105-.919-2.612-1.8.012-2.173-.252-3.159c-.255-.954-1.36-1.829-1.36-2.863s1.1-1.909,1.36-2.863c.264-.987-.248-2.3.252-3.159s1.9-1.085,2.612-1.8.919-2.105,1.8-2.612,2.173.012,3.159-.252c.954-.255,1.829-1.36,2.863-1.36s1.909,1.105,2.863,1.36c.987.264,2.3-.248,3.159.252s1.085,1.9,1.8,2.612,2.105.919,2.612,1.8-.012,2.173.252,3.159C-247.558-125.136-246.453-124.261-246.453-123.227Z" transform="translate(270.537 135.269)" fill="none" stroke="#12263f" stroke-linecap="round" stroke-linejoin="round" stroke-miterlimit="10" stroke-width="2"/>
        </g>
        <g id="g3075" transform="translate(35.943 25.304)">
          <path id="path3077" d="M-32.046-10.951a6.76,6.76,0,0,1,3.661-1.07,6.793,6.793,0,0,1,6.793,6.793,6.793,6.793,0,0,1-6.793,6.793,6.793,6.793,0,0,1-6.793-6.793A6.777,6.777,0,0,1-34.713-7.7" transform="translate(35.177 12.021)" fill="none" stroke="#12263f" stroke-linecap="round" stroke-linejoin="round" stroke-miterlimit="10" stroke-width="2"/>
        </g>
      </g>
    </g>
  </g>
</svg>
