<svg xmlns="http://www.w3.org/2000/svg" xmlns:xlink="http://www.w3.org/1999/xlink" width="120" height="120" viewBox="0 0 120 120">
  <defs>
    <filter id="Elipse_8028" x="0" y="0" width="120" height="120" filterUnits="userSpaceOnUse">
      <feOffset dy="3" input="SourceAlpha"/>
      <feGaussianBlur stdDeviation="3" result="blur"/>
      <feFlood flood-opacity="0.161"/>
      <feComposite operator="in" in2="blur"/>
      <feComposite in="SourceGraphic"/>
    </filter>
  </defs>
  <g id="Grupo_1054377" data-name="Grupo 1054377" transform="translate(-1090.51 -1872.106)">
    <g transform="matrix(1, 0, 0, 1, 1090.51, 1872.11)" filter="url(#Elipse_8028)">
      <circle id="Elipse_8028-2" data-name="Elipse 8028" cx="51" cy="51" r="51" transform="translate(9 6)" fill="#ffc5ad"/>
    </g>
    <g id="implementacion" transform="translate(1097.508 1873.515)">
      <g id="Grupo_1047136" data-name="Grupo 1047136" transform="translate(9.131 16.022)">
        <g id="Grupo_1047133" data-name="Grupo 1047133" transform="translate(39.585 21.912)">
          <path id="Trazado_778451" data-name="Trazado 778451" d="M253.207,171.354h39.041a1.229,1.229,0,0,1,.9.373l7.151,7.15a1.231,1.231,0,0,1,.373.9V233.25a1.276,1.276,0,0,1-1.273,1.274H253.207a1.276,1.276,0,0,1-1.273-1.274V172.627A1.276,1.276,0,0,1,253.207,171.354Z" transform="translate(-251.933 -171.354)" fill="#eceff1" fill-rule="evenodd"/>
          <path id="Trazado_778452" data-name="Trazado 778452" d="M253.206,171.354h2.983v63.17h-2.983a1.276,1.276,0,0,1-1.274-1.274V172.627A1.276,1.276,0,0,1,253.206,171.354Z" transform="translate(-251.932 -171.354)" fill="#d1d1d6" fill-rule="evenodd"/>
          <path id="Trazado_778453" data-name="Trazado 778453" d="M463.154,171.925a1.276,1.276,0,0,1,.373.263l7.151,7.15a1.276,1.276,0,0,1,.263.373h-7.149a.638.638,0,0,1-.637-.637Z" transform="translate(-422.312 -171.815)" fill="#a79ba7" fill-rule="evenodd"/>
          <path id="Trazado_778454" data-name="Trazado 778454" d="M299.185,222.44H306.3a1.87,1.87,0,0,1,1.864,1.864v7.112a1.87,1.87,0,0,1-1.864,1.864h-7.112a1.87,1.87,0,0,1-1.864-1.864V224.3A1.87,1.87,0,0,1,299.185,222.44Z" transform="translate(-288.545 -212.562)" fill="#8ac9fe" fill-rule="evenodd"/>
          <path id="Trazado_778455" data-name="Trazado 778455" d="M306.228,222.44h.069a1.87,1.87,0,0,1,1.864,1.864v7.112a1.87,1.87,0,0,1-1.864,1.864h-7.112a1.87,1.87,0,0,1-1.864-1.864v-.069h7.042a1.87,1.87,0,0,0,1.864-1.864Z" transform="translate(-288.545 -212.562)" fill="#60b7ff" fill-rule="evenodd"/>
        </g>
        <g id="Grupo_1047134" data-name="Grupo 1047134" transform="translate(12.624 55.956)">
          <path id="Trazado_778456" data-name="Trazado 778456" d="M133.262,359.564v-3.049a.967.967,0,0,1,1.539-.779l10.526,7.722a.967.967,0,0,1,.049,1.521l-10.526,8.81a.967.967,0,0,1-1.587-.741v-2.7c-18.226,0-24.2-13.4-18.909-22.928C117.283,358.829,126.847,359.564,133.262,359.564Z" transform="translate(-112.501 -347.423)" fill="#6cf5c2" fill-rule="evenodd"/>
          <path id="Trazado_778457" data-name="Trazado 778457" d="M145.094,388.683l.237.174a.967.967,0,0,1,.049,1.521l-10.526,8.81a.967.967,0,0,1-1.587-.741v-1.934a.967.967,0,0,0,1.587.741Zm-11.827,7.067v-1.934c-13.424,0-20.2-7.269-20.727-14.906C111.969,387.206,118.712,395.751,133.266,395.751Z" transform="translate(-112.505 -372.822)" fill="#00e499" fill-rule="evenodd"/>
        </g>
        <g id="Grupo_1047135" data-name="Grupo 1047135">
          <path id="Trazado_778458" data-name="Trazado 778458" d="M70.945,92.818c.715-12.165,5.987-11.672,5.987-19.924a14.86,14.86,0,1,0-29.72,0c0,8.253,5.272,7.76,5.987,19.924.318,2.4,1.691,2.945,2.486,2.945C67.511,95.763,69.606,96.931,70.945,92.818Z" transform="translate(-47.213 -58.034)" fill="#ffe177" fill-rule="evenodd"/>
          <path id="Trazado_778459" data-name="Trazado 778459" d="M129.491,92.818c.715-12.165,5.987-11.672,5.987-19.924a14.86,14.86,0,0,0-14.86-14.86q-.416,0-.826.023a14.86,14.86,0,0,1,14.034,14.837c0,8.253-5.272,7.76-5.987,19.924-.8,2.441-1.857,3.022-5.062,3.09C127.3,95.975,128.573,95.638,129.491,92.818Z" transform="translate(-105.759 -58.034)" fill="#ffd064" fill-rule="evenodd"/>
          <path id="Trazado_778460" data-name="Trazado 778460" d="M110.263,281.435h-6.374V285.1a2.422,2.422,0,0,0,2.415,2.415h3.134a2.422,2.422,0,0,0,2.415-2.415v-3.661Z" transform="translate(-92.93 -238.238)" fill="#b1b1b5" fill-rule="evenodd"/>
          <path id="Trazado_778461" data-name="Trazado 778461" d="M90.805,257.1l.054,3.537a2.435,2.435,0,0,0,2.415,2.415h8.087a2.409,2.409,0,0,0,2.415-2.415l-.053-3.538C99.5,257.227,95.049,257.1,90.805,257.1Z" transform="translate(-82.376 -218.604)" fill="#d1d1d6" fill-rule="evenodd"/>
          <path id="Trazado_778462" data-name="Trazado 778462" d="M136.851,263.047H138.5a2.409,2.409,0,0,0,2.415-2.415l-.053-3.538q-.82.026-1.651.039l.053,3.5A2.409,2.409,0,0,1,136.851,263.047Z" transform="translate(-119.519 -218.604)" fill="#b1b1b5" fill-rule="evenodd"/>
          <path id="Trazado_778463" data-name="Trazado 778463" d="M78.176,237.927v2.415a2.422,2.422,0,0,0,2.415,2.415H93.507a2.422,2.422,0,0,0,2.414-2.415v-2.415Z" transform="translate(-72.189 -203.143)" fill="#eceff1" fill-rule="evenodd"/>
          <path id="Trazado_778464" data-name="Trazado 778464" d="M148.923,242.756h1.651a2.422,2.422,0,0,0,2.414-2.415v-2.415h-1.651v2.415A2.422,2.422,0,0,1,148.923,242.756Z" transform="translate(-129.256 -203.142)" fill="#d1d1d6" fill-rule="evenodd"/>
        </g>
      </g>
      <path id="Trazado_778465" data-name="Trazado 778465" d="M60.21,50.528h5.409v5.408H60.21Zm-1.551,8.5h8.5a1.548,1.548,0,0,0,1.551-1.547v-8.5a1.548,1.548,0,0,0-1.551-1.547h-8.5a1.546,1.546,0,0,0-1.541,1.547v8.5A1.546,1.546,0,0,0,58.66,59.03ZM72.478,48.981a1.546,1.546,0,0,1,1.541-1.547h9.987a1.547,1.547,0,1,1,0,3.094H74.02a1.546,1.546,0,0,1-1.541-1.547ZM89.051,91.487a1.541,1.541,0,0,1-1.541,1.547H58.66a1.546,1.546,0,0,1,0-3.093H87.51A1.54,1.54,0,0,1,89.051,91.487Zm0-8.5a1.54,1.54,0,0,1-1.541,1.547H58.66a1.547,1.547,0,0,1,0-3.094H87.51A1.54,1.54,0,0,1,89.051,82.985Zm0-8.5a1.541,1.541,0,0,1-1.541,1.547H58.66a1.547,1.547,0,0,1,0-3.094H87.51A1.54,1.54,0,0,1,89.051,74.486Zm0-8.5A1.54,1.54,0,0,1,87.51,67.53H58.66a1.547,1.547,0,0,1,0-3.094H87.51A1.54,1.54,0,0,1,89.051,65.983Zm-16.573-8.5a1.546,1.546,0,0,1,1.541-1.547H87.51a1.547,1.547,0,0,1,0,3.094H74.02a1.546,1.546,0,0,1-1.541-1.547ZM50.259,99.556H95.91V47.378H89.562a1.549,1.549,0,0,1-1.551-1.547v-6.35H50.259V82.925l6.23,4.57a1.554,1.554,0,0,1,.082,2.434l-6.312,5.276v4.351Zm-7.744-6.2c-8.127,0-14.493-2.907-17.476-7.973a12.521,12.521,0,0,1-1.459-9,15.19,15.19,0,0,0,7.543,7.343c3.758,1.7,7.872,1.93,11.392,1.93a1.547,1.547,0,0,0,1.551-1.547v-1.9l9,6.607-9,7.537V94.906a1.548,1.548,0,0,0-1.551-1.546ZM91.1,41.668l2.618,2.616H91.1Zm7.443,3.068-7.89-7.9a1.551,1.551,0,0,0-1.094-.452H48.718a1.548,1.548,0,0,0-1.551,1.547V80.657l-3.731-2.741a1.546,1.546,0,0,0-2.463,1.247V82.55c-7.014-.2-13.554-1.966-15.87-10.958a1.543,1.543,0,0,0-2.846-.365,15.682,15.682,0,0,0,.119,15.727c3.347,5.7,10.079,9.1,18.6,9.466v3.252a1.542,1.542,0,0,0,.894,1.4,1.488,1.488,0,0,0,.648.147,1.551,1.551,0,0,0,.994-.361L47.167,97.8V101.1a1.548,1.548,0,0,0,1.551,1.547H97.451A1.548,1.548,0,0,0,99,101.1V45.831a1.541,1.541,0,0,0-.456-1.095ZM42.068,22.98a1.547,1.547,0,0,1,.565-2.113l3.028-1.75a1.547,1.547,0,1,1,1.551,2.678l-3.037,1.752a1.54,1.54,0,0,1-2.107-.566ZM33.86,13.229,35.611,10.2a1.548,1.548,0,1,1,2.682,1.547l-1.751,3.032a1.547,1.547,0,0,1-2.116.565,1.544,1.544,0,0,1-.566-2.112ZM5.922,22.98a1.551,1.551,0,0,1-2.116.566L.778,21.794a1.545,1.545,0,0,1,1.541-2.678l3.037,1.75a1.554,1.554,0,0,1,.565,2.113ZM9.7,11.744A1.544,1.544,0,1,1,12.37,10.2l1.751,3.032a1.548,1.548,0,0,1-1.332,2.32,1.564,1.564,0,0,1-1.35-.773ZM22.449,11V7.5a1.546,1.546,0,0,1,3.092,0V11a1.546,1.546,0,1,1-3.092,0ZM21.637,62.88v-.868h4.871v.868a.882.882,0,0,1-.866.868H22.5a.882.882,0,0,1-.866-.868ZM28.1,32.9V30.991A1.906,1.906,0,1,1,30.011,32.9ZM10.683,30.881a13.312,13.312,0,1,1,26.624,0,12.364,12.364,0,0,1-2.216,7.208,23.889,23.889,0,0,0-3.658,11.17H28.1V35.991h1.906a5,5,0,1,0-5-5V32.9H22.969V30.991a5,5,0,1,0-5,5h1.906V49.259H16.548A24.012,24.012,0,0,0,12.9,38.089a12.3,12.3,0,0,1-2.216-7.208ZM25.012,49.259H22.969V35.991h2.043ZM19.877,32.9V30.991A1.906,1.906,0,1,0,17.971,32.9ZM17.533,54.09a.883.883,0,0,1-.866-.868v-.868H31.315v.868a.877.877,0,0,1-.866.868Zm2.5,4.828a.875.875,0,0,1-.866-.868v-.866H28.98v.866a.875.875,0,0,1-.866.868Zm5.609,7.924H22.5a3.966,3.966,0,0,1-3.958-3.962V61.721a3.974,3.974,0,0,1-2.481-3.672V56.9a3.959,3.959,0,0,1-2.49-3.676V50.856c-.365-6.112-1.879-8.7-3.347-11.205A15.188,15.188,0,0,1,7.582,30.88a16.409,16.409,0,0,1,32.818,0,15.188,15.188,0,0,1-2.645,8.771c-1.459,2.5-2.974,5.1-3.338,11.207v2.363a3.978,3.978,0,0,1-2.335,3.608v1.22A3.974,3.974,0,0,1,29.6,61.721V62.88a3.966,3.966,0,0,1-3.958,3.962Z" transform="translate(0)" fill-rule="evenodd"/>
    </g>
  </g>
</svg>
