<svg xmlns="http://www.w3.org/2000/svg" width="77.673" height="85.902" viewBox="0 0 77.673 85.902">
  <g id="ventas" transform="translate(-0.499)" opacity="0.42">
    <path id="Trazado_778624" data-name="Trazado 778624" d="M78.865,91.394c-3.947-3.93-8.511-.252-8.511-.252V70.455a1.258,1.258,0,1,0-2.516,0V92.912s-6,4.73-8.579,5.886V61.55a3.143,3.143,0,0,1,3.14-3.14h2.3a3.143,3.143,0,0,1,3.14,3.14V65.3a1.258,1.258,0,1,0,2.516,0V61.55A5.662,5.662,0,0,0,64.7,55.894H62.4a5.663,5.663,0,0,0-5.657,5.656V99.8a13.222,13.222,0,0,1-2.3.429V73.7a5.691,5.691,0,0,0-5.684-5.685H46.512A5.691,5.691,0,0,0,40.828,73.7V86.517l-2.3,1.223V83.474a5.123,5.123,0,0,0-5.117-5.118H30.031a5.123,5.123,0,0,0-5.117,5.118V94.965L20.8,97.146l-11.537,3.3a7.952,7.952,0,0,0-5.511,9.647l1.29,4.965a1.258,1.258,0,1,0,2.435-.634l-1.29-4.965a5.4,5.4,0,0,1,3.768-6.594l10.548-3.015,7.928,21.16a5.636,5.636,0,0,1-3.747,6.949l-7.971,1.811a5.218,5.218,0,0,1-6.233-3.793l-1.618-6.227a1.259,1.259,0,1,0-2.436.633l1.619,6.228a7.718,7.718,0,0,0,7.477,5.81c2.542,0,9.72-2.008,9.72-2.008a7.754,7.754,0,0,0,5.87-9.164L58.7,114.494a15.869,15.869,0,0,0,6.26-3.133l13.421-11.028a5.969,5.969,0,0,0,.488-8.94ZM46.512,70.528h2.243A3.172,3.172,0,0,1,51.923,73.7v26.591l-7.94,0c-.729-.007-.225-.488-.185-.521l2.287-1.852a11.96,11.96,0,0,0,4.141-7.142,4.99,4.99,0,0,0-6.881-5.57V73.7a3.172,3.172,0,0,1,3.167-3.168ZM27.43,83.474a2.6,2.6,0,0,1,2.6-2.6h3.377a2.6,2.6,0,0,1,2.6,2.6v5.6l-8.579,4.554V83.474ZM76.78,98.39,63.358,109.417A13.323,13.323,0,0,1,58.1,112.05l-27.782,6.8L22.844,98.913,44.177,87.589a2.473,2.473,0,0,1,3.583,2.677A9.513,9.513,0,0,1,44.5,95.955l-2.287,1.853a2.809,2.809,0,0,0,1.768,4.993l9.168,0h.007a15.689,15.689,0,0,0,9.071-2.87L72.473,92.73a3.544,3.544,0,0,1,4.592.423c.706.721,2.087,2.863-.285,5.237Zm0,0" transform="translate(-2.496 -46.516)"/>
    <path id="Trazado_778625" data-name="Trazado 778625" d="M74.235,424.2a4.957,4.957,0,1,0-4.957,4.957A4.963,4.963,0,0,0,74.235,424.2Zm-7.4,0a2.441,2.441,0,1,1,2.441,2.441A2.443,2.443,0,0,1,66.837,424.2Zm0,0" transform="translate(-53.114 -348.899)"/>
    <path id="Trazado_778626" data-name="Trazado 778626" d="M7.115,39.508,25.407,21.076,29.521,23.2a3.87,3.87,0,0,0,4.463-.649l9.957-9.584s-.274,4.923,3.871,4.923a3.876,3.876,0,0,0,3.871-3.871V3.87c0-.012,0-.024,0-.037A3.664,3.664,0,0,0,47.813,0H37.75A3.875,3.875,0,0,0,33.88,3.87c0,4.255,4.33,3.871,4.33,3.871l-7.6,7.312L26.44,12.894a3.856,3.856,0,0,0-4.526.711L1.62,34.055a3.875,3.875,0,0,0,.021,5.474,3.816,3.816,0,0,0,5.474-.021ZM3.406,35.828,23.7,15.378a1.144,1.144,0,0,1,1.584-.248L30.259,17.7a1.258,1.258,0,0,0,1.451-.211L42.2,7.39a1.258,1.258,0,0,0-.873-2.165H37.75a1.354,1.354,0,0,1,0-2.709H47.813a1.183,1.183,0,0,1,1.353,1.346c0,.011,0,.022,0,.034V14.021a1.354,1.354,0,0,1-2.709,0V10.012a1.258,1.258,0,0,0-2.131-.906L32.239,20.741a1.354,1.354,0,0,1-1.561.227l-4.935-2.553a1.259,1.259,0,0,0-1.471.231L5.329,37.736a1.3,1.3,0,0,1-1.916.007,1.356,1.356,0,0,1-.007-1.915Zm0,0" transform="translate(0 0)"/>
  </g>
</svg>
