<svg xmlns="http://www.w3.org/2000/svg" width="86.705" height="86.705" viewBox="0 0 86.705 86.705">
  <g id="Out_line" data-name="Out line" transform="translate(-16 -16)" opacity="0.42">
    <path id="Trazado_778627" data-name="Trazado 778627" d="M101.26,233.445A1.445,1.445,0,0,0,99.815,232H88.254a1.445,1.445,0,0,0-1.445,1.445V276.8h-2.89V252.231a1.445,1.445,0,0,0-1.445-1.445H70.913a1.445,1.445,0,0,0-1.445,1.445V276.8h-2.89V263.792a1.445,1.445,0,0,0-1.445-1.445H53.572a1.445,1.445,0,0,0-1.445,1.445V276.8h-2.89V255.121a1.445,1.445,0,0,0-1.445-1.445H36.231a1.445,1.445,0,0,0-1.445,1.445V276.8H31.9V262.347a1.445,1.445,0,0,0-1.445-1.445H18.89a1.445,1.445,0,0,0-1.445,1.445V276.8H16v2.89h86.705V276.8H101.26ZM89.7,234.89H98.37V276.8H89.7ZM72.358,253.676h8.671V276.8H72.358ZM55.017,265.237h8.671V276.8H55.017Zm-17.341-8.671h8.671V276.8H37.676Zm-17.341,7.225h8.671V276.8H20.335Z" transform="translate(0 -176.983)"/>
    <path id="Trazado_778628" data-name="Trazado 778628" d="M137.659,120h-8.671v2.89h5.182L114.96,142.1a4.334,4.334,0,0,0-5.78,5.779L97.619,159.441a4.329,4.329,0,0,0-5.083,1.007l-9.8-4.083c0-.079.007-.158.007-.237a4.335,4.335,0,1,0-8.636.536L60.423,163.5l1.292,2.585L75.4,159.247a4.326,4.326,0,0,0,6.221-.215l9.8,4.083c0,.079-.007.158-.007.237a4.335,4.335,0,1,0,8.247-1.868l11.561-11.562a4.334,4.334,0,0,0,5.78-5.779l19.21-19.21v5.182h2.89v-8.671A1.445,1.445,0,0,0,137.659,120ZM78.41,157.572a1.445,1.445,0,1,1,1.445-1.445A1.445,1.445,0,0,1,78.41,157.572ZM95.751,164.8a1.445,1.445,0,1,1,1.445-1.445A1.445,1.445,0,0,1,95.751,164.8Zm17.341-17.341a1.445,1.445,0,1,1,1.445-1.445A1.445,1.445,0,0,1,113.092,147.457Z" transform="translate(-36.399 -85.214)"/>
    <path id="Trazado_778629" data-name="Trazado 778629" d="M66.786,124.062a13.731,13.731,0,0,0,7.274-2.07,36.191,36.191,0,0,1,10.417-4.427,1.445,1.445,0,0,0,0-2.8,36.191,36.191,0,0,1-10.417-4.427,13.808,13.808,0,0,0-14.548,0,36.191,36.191,0,0,1-10.417,4.427,1.445,1.445,0,0,0,0,2.8,36.191,36.191,0,0,1,10.417,4.427,13.731,13.731,0,0,0,7.274,2.07Zm10.061-8.94q1.217.564,2.469,1.04-1.252.48-2.469,1.04A10.013,10.013,0,0,0,76.848,115.123Zm-16.714-1.786q.458-.268.91-.551a10.9,10.9,0,0,1,11.485,0q.452.282.91.551a7.265,7.265,0,0,1,0,5.654q-.458.268-.91.551a10.9,10.9,0,0,1-11.485,0q-.452-.282-.91-.551A7.265,7.265,0,0,1,60.133,113.336ZM56.725,117.2q-1.217-.564-2.469-1.04,1.252-.48,2.469-1.04a10.014,10.014,0,0,0,0,2.081Z" transform="translate(-26.22 -75.597)"/>
    <path id="Trazado_778630" data-name="Trazado 778630" d="M132.335,136.671A4.335,4.335,0,1,0,128,132.335a4.335,4.335,0,0,0,4.335,4.335Zm0-5.78a1.445,1.445,0,1,1-1.445,1.445A1.445,1.445,0,0,1,132.335,130.89Z" transform="translate(-91.769 -91.769)"/>
    <path id="Trazado_778631" data-name="Trazado 778631" d="M40.566,65.133A24.5,24.5,0,0,0,53.03,61.741l11.646,4.823a1.444,1.444,0,0,0,1.888-1.888L61.741,53.03a24.569,24.569,0,1,0-21.174,12.1Zm0-46.243A21.679,21.679,0,0,1,58.9,52.131v0l-.009.014a21.862,21.862,0,0,1-2.587,3.322l2.1,1.987q.723-.764,1.38-1.59l2.773,6.693-9.1-3.77a1.43,1.43,0,0,0-.553-.11,1.451,1.451,0,0,0-.773.224A21.677,21.677,0,1,1,40.566,18.89Z"/>
  </g>
</svg>
