<svg xmlns="http://www.w3.org/2000/svg" xmlns:xlink="http://www.w3.org/1999/xlink" width="216" height="216" viewBox="0 0 216 216">
  <defs>
    <filter id="Trazado_113935" x="0" y="0" width="216" height="216" filterUnits="userSpaceOnUse">
      <feOffset input="SourceAlpha"/>
      <feGaussianBlur stdDeviation="20" result="blur"/>
      <feFlood flood-color="#402d27" flood-opacity="0.263"/>
      <feComposite operator="in" in2="blur"/>
      <feComposite in="SourceGraphic"/>
    </filter>
  </defs>
  <g id="Grupo_1054045" data-name="Grupo 1054045" transform="translate(11994.002 12290.582)">
    <g id="Grupo_1042381" data-name="Grupo 1042381" transform="translate(-12838.335 -12613.077)">
      <g transform="matrix(1, 0, 0, 1, 844.33, 322.5)" filter="url(#Trazado_113935)">
        <path id="Trazado_113935-2" data-name="Trazado 113935" d="M48,0A48,48,0,1,1,0,48,48,48,0,0,1,48,0Z" transform="translate(60 60)" fill="#ea526f"/>
      </g>
    </g>
    <g id="Grupo_1054011" data-name="Grupo 1054011">
      <g id="Layer_8" data-name="Layer 8" transform="matrix(0.995, -0.105, 0.105, 0.995, -12262.047, -12282.012)">
        <g id="Grupo_1053855" data-name="Grupo 1053855" transform="translate(329.76 105.78)">
          <g id="Grupo_1053847" data-name="Grupo 1053847" transform="translate(17.64 14.725)">
            <path id="Trazado_788678" data-name="Trazado 788678" d="M368.226,140.125H348.58V121.52h19.646v18.605Z" transform="translate(-348.58 -121.492)" fill="#f5cb95"/>
            <path id="Trazado_788679" data-name="Trazado 788679" d="M368.226,140.125H348.58V121.52Z" transform="translate(-348.58 -121.492)" fill="#d1ad7f"/>
            <rect id="Rectángulo_366230" data-name="Rectángulo 366230" width="2.999" height="5.652" transform="translate(8.314)" fill="#9c805f"/>
            <g id="Grupo_1053843" data-name="Grupo 1053843" transform="translate(1.397 2.118)">
              <rect id="Rectángulo_366231" data-name="Rectángulo 366231" width="5.624" height="5.23" fill="#ebebeb"/>
              <rect id="Rectángulo_366232" data-name="Rectángulo 366232" width="4.283" height="0.487" transform="translate(0.553 0.665)" fill="#9e9e9e"/>
              <rect id="Rectángulo_366233" data-name="Rectángulo 366233" width="4.283" height="0.487" transform="translate(0.553 1.95)" fill="#9e9e9e"/>
              <rect id="Rectángulo_366234" data-name="Rectángulo 366234" width="4.283" height="0.487" transform="translate(0.553 3.234)" fill="#9e9e9e"/>
              <rect id="Rectángulo_366235" data-name="Rectángulo 366235" width="2.428" height="0.487" transform="translate(0.553 3.937)" fill="#9e9e9e"/>
            </g>
            <g id="Grupo_1053844" data-name="Grupo 1053844" transform="translate(9.832 13.431)">
              <rect id="Rectángulo_366236" data-name="Rectángulo 366236" width="7.958" height="0.637" fill="#9c8469"/>
              <rect id="Rectángulo_366237" data-name="Rectángulo 366237" width="7.958" height="0.637" transform="translate(0 2.165)" fill="#9c8469"/>
              <rect id="Rectángulo_366238" data-name="Rectángulo 366238" width="7.958" height="0.637" transform="translate(0 3.271)" fill="#9c8469"/>
              <rect id="Rectángulo_366239" data-name="Rectángulo 366239" width="3.974" height="0.637" transform="translate(0 1.106)" fill="#9c8469"/>
            </g>
            <g id="Grupo_1053846" data-name="Grupo 1053846" transform="translate(1.397 8.295)">
              <rect id="Rectángulo_366240" data-name="Rectángulo 366240" width="5.624" height="2.493" fill="#ebebeb"/>
              <g id="Grupo_1053845" data-name="Grupo 1053845" transform="translate(0.244 0.431)">
                <rect id="Rectángulo_366241" data-name="Rectángulo 366241" width="0.141" height="1.162" transform="translate(1.818)" fill="#424242"/>
                <rect id="Rectángulo_366242" data-name="Rectángulo 366242" width="0.141" height="1.162" transform="translate(0.459)" fill="#424242"/>
                <rect id="Rectángulo_366243" data-name="Rectángulo 366243" width="0.141" height="1.162" transform="translate(3.674)" fill="#424242"/>
                <rect id="Rectángulo_366244" data-name="Rectángulo 366244" width="0.141" height="1.162" transform="translate(4.03)" fill="#424242"/>
                <rect id="Rectángulo_366245" data-name="Rectángulo 366245" width="0.225" height="1.162" fill="#424242"/>
                <rect id="Rectángulo_366246" data-name="Rectángulo 366246" width="0.225" height="1.162" transform="translate(1.443)" fill="#424242"/>
                <rect id="Rectángulo_366247" data-name="Rectángulo 366247" width="0.056" height="1.162" transform="translate(2.315)" fill="#424242"/>
                <rect id="Rectángulo_366248" data-name="Rectángulo 366248" width="0.056" height="1.162" transform="translate(0.994)" fill="#424242"/>
                <rect id="Rectángulo_366249" data-name="Rectángulo 366249" width="0.056" height="1.162" transform="translate(2.54)" fill="#424242"/>
                <rect id="Rectángulo_366250" data-name="Rectángulo 366250" width="0.056" height="1.162" transform="translate(2.737)" fill="#424242"/>
                <rect id="Rectángulo_366251" data-name="Rectángulo 366251" width="0.056" height="1.162" transform="translate(0.797)" fill="#424242"/>
                <rect id="Rectángulo_366252" data-name="Rectángulo 366252" width="0.056" height="1.162" transform="translate(3.402)" fill="#424242"/>
                <rect id="Rectángulo_366253" data-name="Rectángulo 366253" width="0.056" height="1.162" transform="translate(4.358)" fill="#424242"/>
                <rect id="Rectángulo_366254" data-name="Rectángulo 366254" width="0.066" height="1.162" transform="translate(2.09)" fill="#424242"/>
                <rect id="Rectángulo_366255" data-name="Rectángulo 366255" width="0.066" height="1.162" transform="translate(1.209)" fill="#424242"/>
                <rect id="Rectángulo_366256" data-name="Rectángulo 366256" width="0.225" height="1.162" transform="translate(2.971)" fill="#424242"/>
                <rect id="Rectángulo_366257" data-name="Rectángulo 366257" width="0.225" height="1.162" transform="translate(4.677)" fill="#424242"/>
              </g>
            </g>
          </g>
          <g id="Grupo_1054009" data-name="Grupo 1054009" transform="translate(32.396 10.868)">
            <path id="Trazado_788678-2" data-name="Trazado 788678" d="M372.253,143.939H348.58V121.52h23.673v22.419Z" transform="translate(-348.58 -121.486)" fill="#f5cb95"/>
            <path id="Trazado_788679-2" data-name="Trazado 788679" d="M372.253,143.939H348.58V121.52Z" transform="translate(-348.58 -121.486)" fill="#d1ad7f"/>
            <rect id="Rectángulo_366230-2" data-name="Rectángulo 366230" width="3.614" height="6.811" transform="translate(10.018)" fill="#9c805f"/>
            <g id="Grupo_1053843-2" data-name="Grupo 1053843" transform="translate(1.683 2.553)">
              <rect id="Rectángulo_366231-2" data-name="Rectángulo 366231" width="6.777" height="6.302" fill="#ebebeb"/>
              <rect id="Rectángulo_366232-2" data-name="Rectángulo 366232" width="5.162" height="0.587" transform="translate(0.666 0.802)" fill="#9e9e9e"/>
              <rect id="Rectángulo_366233-2" data-name="Rectángulo 366233" width="5.162" height="0.587" transform="translate(0.666 2.349)" fill="#9e9e9e"/>
              <rect id="Rectángulo_366234-2" data-name="Rectángulo 366234" width="5.162" height="0.587" transform="translate(0.666 3.897)" fill="#9e9e9e"/>
              <rect id="Rectángulo_366235-2" data-name="Rectángulo 366235" width="2.925" height="0.587" transform="translate(0.666 4.744)" fill="#9e9e9e"/>
            </g>
            <g id="Grupo_1053844-2" data-name="Grupo 1053844" transform="translate(11.848 16.185)">
              <rect id="Rectángulo_366236-2" data-name="Rectángulo 366236" width="9.589" height="0.768" fill="#9c8469"/>
              <rect id="Rectángulo_366237-2" data-name="Rectángulo 366237" width="9.589" height="0.768" transform="translate(0 2.609)" fill="#9c8469"/>
              <rect id="Rectángulo_366238-2" data-name="Rectángulo 366238" width="9.589" height="0.768" transform="translate(0 3.942)" fill="#9c8469"/>
              <rect id="Rectángulo_366239-2" data-name="Rectángulo 366239" width="4.789" height="0.768" transform="translate(0 1.333)" fill="#9c8469"/>
            </g>
            <g id="Grupo_1053846-2" data-name="Grupo 1053846" transform="translate(1.683 9.996)">
              <rect id="Rectángulo_366240-2" data-name="Rectángulo 366240" width="6.777" height="3.004" fill="#ebebeb"/>
              <g id="Grupo_1053845-2" data-name="Grupo 1053845" transform="translate(0.294 0.52)">
                <rect id="Rectángulo_366241-2" data-name="Rectángulo 366241" width="0.169" height="1.401" transform="translate(2.191)" fill="#424242"/>
                <rect id="Rectángulo_366242-2" data-name="Rectángulo 366242" width="0.169" height="1.401" transform="translate(0.553)" fill="#424242"/>
                <rect id="Rectángulo_366243-2" data-name="Rectángulo 366243" width="0.169" height="1.401" transform="translate(4.427)" fill="#424242"/>
                <rect id="Rectángulo_366244-2" data-name="Rectángulo 366244" width="0.169" height="1.401" transform="translate(4.857)" fill="#424242"/>
                <rect id="Rectángulo_366245-2" data-name="Rectángulo 366245" width="0.271" height="1.401" fill="#424242"/>
                <rect id="Rectángulo_366246-2" data-name="Rectángulo 366246" width="0.271" height="1.401" transform="translate(1.739)" fill="#424242"/>
                <rect id="Rectángulo_366247-2" data-name="Rectángulo 366247" width="0.068" height="1.401" transform="translate(2.79)" fill="#424242"/>
                <rect id="Rectángulo_366248-2" data-name="Rectángulo 366248" width="0.068" height="1.401" transform="translate(1.197)" fill="#424242"/>
                <rect id="Rectángulo_366249-2" data-name="Rectángulo 366249" width="0.068" height="1.401" transform="translate(3.061)" fill="#424242"/>
                <rect id="Rectángulo_366250-2" data-name="Rectángulo 366250" width="0.068" height="1.401" transform="translate(3.298)" fill="#424242"/>
                <rect id="Rectángulo_366251-2" data-name="Rectángulo 366251" width="0.068" height="1.401" transform="translate(0.96)" fill="#424242"/>
                <rect id="Rectángulo_366252-2" data-name="Rectángulo 366252" width="0.068" height="1.401" transform="translate(4.1)" fill="#424242"/>
                <rect id="Rectángulo_366253-2" data-name="Rectángulo 366253" width="0.068" height="1.401" transform="translate(5.252)" fill="#424242"/>
                <rect id="Rectángulo_366254-2" data-name="Rectángulo 366254" width="0.079" height="1.401" transform="translate(2.519)" fill="#424242"/>
                <rect id="Rectángulo_366255-2" data-name="Rectángulo 366255" width="0.079" height="1.401" transform="translate(1.457)" fill="#424242"/>
                <rect id="Rectángulo_366256-2" data-name="Rectángulo 366256" width="0.271" height="1.401" transform="translate(3.58)" fill="#424242"/>
                <rect id="Rectángulo_366257-2" data-name="Rectángulo 366257" width="0.271" height="1.401" transform="translate(5.636)" fill="#424242"/>
              </g>
            </g>
          </g>
          <g id="Grupo_1053852" data-name="Grupo 1053852">
            <rect id="Rectángulo_366258" data-name="Rectángulo 366258" width="3.571" height="9.476" transform="translate(9.701 7.873)" fill="#1c1a19"/>
            <path id="Trazado_788680" data-name="Trazado 788680" d="M393.876,165.562h-60.9V152.308a4.812,4.812,0,0,1,4.808-4.808h52.066a4.02,4.02,0,0,1,4.021,4.021v14.041Z" transform="translate(-329.962 -108.396)" fill="#56bbbb"/>
            <rect id="Rectángulo_366259" data-name="Rectángulo 366259" width="67.663" height="6.608" rx="1.47" transform="translate(0 52.947)" fill="#3b312a"/>
            <g id="Grupo_1053848" data-name="Grupo 1053848" transform="translate(19.561 44.174)">
              <path id="Trazado_788903" data-name="Trazado 788903" d="M0,0H26.8V5.914H0Z" fill="#3c9696"/>
              <rect id="Rectángulo_366261" data-name="Rectángulo 366261" width="13.085" height="5.221" transform="translate(13.244 0.262)" fill="#168eba"/>
              <rect id="Rectángulo_366262" data-name="Rectángulo 366262" width="6.542" height="5.221" transform="translate(19.786 0.262)" fill="#3aadd6"/>
              <rect id="Rectángulo_366263" data-name="Rectángulo 366263" width="6.186" height="5.221" transform="translate(7.048 0.262)" fill="#3aadd6"/>
              <rect id="Rectángulo_366264" data-name="Rectángulo 366264" width="6.711" height="5.221" transform="translate(0.337 0.262)" fill="#3090b3"/>
            </g>
            <g id="Grupo_1053849" data-name="Grupo 1053849" transform="translate(54.859 47.239)">
              <path id="Trazado_788681" data-name="Trazado 788681" d="M392.077,158.073a1.893,1.893,0,1,1-1.893-1.893A1.894,1.894,0,0,1,392.077,158.073Z" transform="translate(-388.29 -156.18)" fill="#e1a734"/>
              <path id="Trazado_788682" data-name="Trazado 788682" d="M391.718,158.1a1.509,1.509,0,1,1-1.509-1.509A1.508,1.508,0,0,1,391.718,158.1Z" transform="translate(-388.316 -156.206)" fill="#fc6"/>
              <path id="Trazado_788683" data-name="Trazado 788683" d="M391.06,157.243a.376.376,0,1,1-.375-.4A.389.389,0,0,1,391.06,157.243Z" transform="translate(-388.417 -156.221)" fill="#fff"/>
            </g>
            <rect id="Rectángulo_366265" data-name="Rectángulo 366265" width="5.202" height="20.067" transform="translate(8.951 19.074)" fill="#4eacac"/>
            <path id="Trazado_788684" data-name="Trazado 788684" d="M339.31,126.13V146.2h5.2Z" transform="translate(-330.359 -107.056)" fill="#55baba"/>
            <path id="Trazado_788904" data-name="Trazado 788904" d="M0,0H5.2V1.415H0Z" transform="translate(8.951 37.726)" fill="#3c9696"/>
            <rect id="Rectángulo_366267" data-name="Rectángulo 366267" width="6.608" height="1.734" transform="translate(8.22 17.34)" fill="#403c39"/>
            <g id="Grupo_1053850" data-name="Grupo 1053850" transform="translate(8.22 10.573)">
              <rect id="Rectángulo_366268" data-name="Rectángulo 366268" width="6.608" height="6.355" rx="1.67" fill="#403c39"/>
              <rect id="Rectángulo_366269" data-name="Rectángulo 366269" width="5.23" height="5.033" rx="1.32" transform="translate(0.694 0.656)" fill="#0a0a09"/>
              <path id="Trazado_788685" data-name="Trazado 788685" d="M344.354,120.282a2.512,2.512,0,1,1-2.512-2.512A2.512,2.512,0,0,1,344.354,120.282Z" transform="translate(-338.58 -117.105)" fill="#525252"/>
              <path id="Trazado_788686" data-name="Trazado 788686" d="M343.672,120.331a1.781,1.781,0,1,1-1.781-1.781A1.78,1.78,0,0,1,343.672,120.331Z" transform="translate(-338.629 -117.153)" fill="#386d82"/>
              <path id="Trazado_788687" data-name="Trazado 788687" d="M343.4,120.32a1.49,1.49,0,1,1-1.49-1.49A1.488,1.488,0,0,1,343.4,120.32Z" transform="translate(-338.649 -117.171)" fill="#5db6d9"/>
              <circle id="Elipse_8098" data-name="Elipse 8098" cx="0.403" cy="0.403" r="0.403" transform="translate(3.412 1.725)" fill="#fff"/>
            </g>
            <path id="Trazado_788688" data-name="Trazado 788688" d="M338.73,124.45h6.242v1.443l-.169-1.275Z" transform="translate(-330.323 -106.951)" fill="#fff"/>
            <rect id="Rectángulo_366270" data-name="Rectángulo 366270" width="0.422" height="18.155" transform="translate(13.15 19.383)" fill="#fff"/>
            <path id="Trazado_788689" data-name="Trazado 788689" d="M338.119,148.03h52.048c3.224,0,3.4,3.749,3.4,3.749v9.092l-.525-9.026s-.159-3.327-3.177-3.327c-.347,0-51.757-.487-51.757-.487Z" transform="translate(-330.284 -108.43)" fill="#fff"/>
            <path id="Trazado_788690" data-name="Trazado 788690" d="M333.42,152.18v8.679h1.359Z" transform="translate(-329.99 -108.69)" fill="#3d9797"/>
            <g id="Grupo_1053851" data-name="Grupo 1053851" transform="translate(6.542)">
              <circle id="Elipse_8099" data-name="Elipse 8099" cx="4.94" cy="4.94" r="4.94" fill="#3d3935"/>
              <path id="Trazado_788691" data-name="Trazado 788691" d="M346.086,110.818a4.368,4.368,0,1,1-4.368-4.368A4.366,4.366,0,0,1,346.086,110.818Z" transform="translate(-336.778 -105.822)" fill="#fc6"/>
              <path id="Trazado_788692" data-name="Trazado 788692" d="M345.421,110.785a3.655,3.655,0,1,1-3.655-3.655A3.654,3.654,0,0,1,345.421,110.785Z" transform="translate(-336.826 -105.865)" fill="#f1ba4e"/>
              <circle id="Elipse_8100" data-name="Elipse 8100" cx="0.994" cy="0.994" r="0.994" transform="translate(5.305 1.425)" fill="#fff"/>
            </g>
            <path id="Trazado_788905" data-name="Trazado 788905" d="M0,0H43.415V1.565H0Z" transform="translate(16.084 37.538)" fill="#3b9595"/>
            <rect id="Rectángulo_366272" data-name="Rectángulo 366272" width="36.179" height="2.915" transform="translate(19.692 34.623)" fill="#292929"/>
            <rect id="Rectángulo_366273" data-name="Rectángulo 366273" width="36.179" height="1.368" transform="translate(19.692 34.623)" fill="#1a1a1a"/>
            <rect id="Rectángulo_366274" data-name="Rectángulo 366274" width="43.415" height="1.247" transform="translate(16.084 33.377)" fill="#3b9595"/>
          </g>
          <g id="Grupo_1053853" data-name="Grupo 1053853" transform="translate(50.614 59.555)">
            <path id="Trazado_788693" data-name="Trazado 788693" d="M394.3,169.32a5.268,5.268,0,1,1-10.535,0H394.3Z" transform="translate(-383.76 -169.32)" fill="#1a1a1a"/>
            <path id="Trazado_788694" data-name="Trazado 788694" d="M394.648,169.32a5.266,5.266,0,0,1-5.268,5.268V169.32Z" transform="translate(-384.112 -169.32)" fill="#333"/>
          </g>
          <g id="Grupo_1053854" data-name="Grupo 1053854" transform="translate(5.549 59.555)">
            <path id="Trazado_788695" data-name="Trazado 788695" d="M346.215,169.32a5.268,5.268,0,1,1-10.535,0h10.544Z" transform="translate(-335.68 -169.32)" fill="#1a1a1a"/>
            <path id="Trazado_788696" data-name="Trazado 788696" d="M346.568,169.32a5.266,5.266,0,0,1-5.268,5.268V169.32Z" transform="translate(-336.032 -169.32)" fill="#333"/>
          </g>
        </g>
      </g>
    </g>
  </g>
</svg>
