<svg xmlns="http://www.w3.org/2000/svg" xmlns:xlink="http://www.w3.org/1999/xlink" width="120" height="120" viewBox="0 0 120 120">
  <defs>
    <filter id="Trazado_773071" x="0" y="0" width="120" height="120" filterUnits="userSpaceOnUse">
      <feOffset dy="3" input="SourceAlpha"/>
      <feGaussianBlur stdDeviation="3" result="blur"/>
      <feFlood flood-opacity="0.161"/>
      <feComposite operator="in" in2="blur"/>
      <feComposite in="SourceGraphic"/>
    </filter>
  </defs>
  <g id="Grupo_1055069" data-name="Grupo 1055069" transform="translate(-740 -2392.106)">
    <g transform="matrix(1, 0, 0, 1, 740, 2392.11)" filter="url(#Trazado_773071)">
      <path id="Trazado_773071-2" data-name="Trazado 773071" d="M51,0A51,51,0,1,1,0,51,51,51,0,0,1,51,0Z" transform="translate(9 6)" fill="#ffc5ad"/>
    </g>
    <g id="defecto" transform="translate(746.744 2385.922)">
      <g id="Grupo_1045351" data-name="Grupo 1045351" transform="translate(1.354 18.22)">
        <path id="Trazado_773071-3" data-name="Trazado 773071" d="M177.817,221.962H114.071a3.608,3.608,0,0,1-3.608-3.608v-4.663l2.158-7.452-2.158-4.22v-34.8a3.608,3.608,0,0,1,3.608-3.608h63.745a3.608,3.608,0,0,1,3.608,3.608v51.136A3.608,3.608,0,0,1,177.817,221.962Z" transform="translate(-91.924 -138.535)" fill="#d77f4a"/>
        <path id="Trazado_773072" data-name="Trazado 773072" d="M417.405,163.609H402.673a3.608,3.608,0,0,1,3.608,3.608v51.136a3.608,3.608,0,0,1-3.608,3.608h14.732a3.608,3.608,0,0,0,3.608-3.608V167.217A3.608,3.608,0,0,0,417.405,163.609Z" transform="translate(-331.513 -138.535)" fill="#c86d36"/>
        <path id="Trazado_773075" data-name="Trazado 773075" d="M271.771,183.56l-7.16-2.649-7.16,2.649a1.676,1.676,0,0,1-2.257-1.572V163.609h18.836v18.379A1.676,1.676,0,0,1,271.771,183.56Z" transform="translate(-210.591 -138.535)" fill="#ffe5c2"/>
        <path id="Trazado_773076" data-name="Trazado 773076" d="M326.435,163.609v18.379a1.659,1.659,0,0,1-.012.184l3.751,1.388a1.676,1.676,0,0,0,2.258-1.572V163.609Z" transform="translate(-268.994 -138.535)" fill="#fed2a4"/>
        <path id="Trazado_773077" data-name="Trazado 773077" d="M387.787,423.1h-9.625a2.917,2.917,0,1,1,0-5.833h9.625a2.917,2.917,0,1,1,0,5.833Z" transform="translate(-309.025 -346.515)" fill="#8ac9fe"/>
        <path id="Trazado_773078" data-name="Trazado 773078" d="M426.7,417.269H422.71V423.1H426.7a2.917,2.917,0,0,0,0-5.833Z" transform="translate(-347.942 -346.515)" fill="#60b7ff"/>
        <path id="Trazado_773079" data-name="Trazado 773079" d="M110.463,350.909l8.8-5.34a2.545,2.545,0,0,1,3.31.588l3.146,3.94,6.153-4.381a2.545,2.545,0,0,1,3.355.357l3.076,3.366,7.685-4a.708.708,0,0,1,.864,1.088l-7.525,8.792a2.545,2.545,0,0,1-3.44.4l-3.471-2.548-4.522,4a2.545,2.545,0,0,1-3.335.031l-3.779-3.216-10.314,8.6,2.158-7.452Z" transform="translate(-91.924 -287.424)" fill="#d8ecfe"/>
        <path id="Trazado_773080" data-name="Trazado 773080" d="M254.974,346.13l-4.027,2.1-5.329,6.222a2.542,2.542,0,0,1-2.228.871l1.482,1.088a2.545,2.545,0,0,0,3.44-.4l7.525-8.792A.708.708,0,0,0,254.974,346.13Z" transform="translate(-200.914 -288.117)" fill="#c4e2ff"/>
      </g>
      <g id="Grupo_1045352" data-name="Grupo 1045352" transform="translate(0 16.87)">
        <path id="Trazado_773081" data-name="Trazado 773081" d="M87.245,41.944H37.329l1.842,3.075-.224-.373H44.6V61.674a3.027,3.027,0,0,0,4.077,2.839l6.692-2.476,6.692,2.476h0a3.027,3.027,0,0,0,4.077-2.839V44.645h21.1A2.261,2.261,0,0,1,89.5,46.9V98.039a2.261,2.261,0,0,1-2.258,2.258H23.5a2.26,2.26,0,0,1-2.256-2.258V94.009L30.2,86.54l2.912,2.478a3.915,3.915,0,0,0,5.105-.048L41.92,85.7l2.593,1.9a3.913,3.913,0,0,0,5.265-.607L57.3,78.2a2.058,2.058,0,0,0-2.514-3.164l-6.765,3.521-2.376-2.6a3.9,3.9,0,0,0-5.136-.546L35.4,79.052l-2.348-2.941a3.9,3.9,0,0,0-5.066-.9l-6.744,4.094V56.432a1.351,1.351,0,0,0-2.7,0v25.25a1.4,1.4,0,0,0,.147.639L20.6,86.064,18.595,93a1.786,1.786,0,0,0-.052.376v4.662A4.964,4.964,0,0,0,23.5,103H87.245A4.965,4.965,0,0,0,92.2,98.039V46.9a4.965,4.965,0,0,0-4.959-4.96Zm-23.8,19.73a.325.325,0,0,1-.438.305h0l-7.16-2.65c-.221.019.091-.181-.937,0l-7.16,2.65a.325.325,0,0,1-.438-.305V44.646H63.441V61.674ZM29.39,77.52a1.2,1.2,0,0,1,1.553.276l3.146,3.94a1.351,1.351,0,0,0,1.839.258l6.153-4.381a1.2,1.2,0,0,1,1.575.167l3.076,3.366a1.35,1.35,0,0,0,1.621.287l4.743-2.469-5.369,6.272a1.2,1.2,0,0,1-1.615.186l-3.471-2.548a1.35,1.35,0,0,0-1.694.077l-4.522,4a1.2,1.2,0,0,1-1.565.015l-3.779-3.216a1.351,1.351,0,0,0-1.74-.009l-6.923,5.774.929-3.21a1.35,1.35,0,0,0-.095-.99l-1.586-3.1Z" transform="translate(0 -16.87)"/>
        <path id="Trazado_773084" data-name="Trazado 773084" d="M372.013,418.3h9.625a4.267,4.267,0,1,0,0-8.534h-9.625a4.267,4.267,0,1,0,0,8.534Zm0-5.833h9.625a1.566,1.566,0,0,1,0,3.132h-9.625a1.566,1.566,0,1,1,0-3.132Z" transform="translate(-301.522 -339.015)"/>
        <path id="Trazado_773085" data-name="Trazado 773085" d="M442.315,375.7a1.351,1.351,0,0,0,0-2.7h-2.772a1.351,1.351,0,1,0,0,2.7Z" transform="translate(-359.283 -308.865)"/>
        <path id="Trazado_773086" data-name="Trazado 773086" d="M375.438,375.7a1.351,1.351,0,1,0,0-2.7H369.1a1.351,1.351,0,1,0,0,2.7Z" transform="translate(-301.522 -308.865)"/>
        <path id="Trazado_773087" data-name="Trazado 773087" d="M243.246,97.67A1.35,1.35,0,0,0,244.6,99.02h2.574a1.351,1.351,0,0,0,0-2.7H244.6A1.351,1.351,0,0,0,243.246,97.67Z" transform="translate(-199.442 -82.012)"/>
        <path id="Trazado_773088" data-name="Trazado 773088" d="M228.316,51.431a1.347,1.347,0,0,0,.955-.4l1.82-1.82a1.351,1.351,0,0,0-1.91-1.91l-1.82,1.82a1.351,1.351,0,0,0,.955,2.306Z" transform="translate(-186.093 -41.5)"/>
        <path id="Trazado_773089" data-name="Trazado 773089" d="M189.009,31.715a1.35,1.35,0,0,0,1.351-1.351V27.791a1.351,1.351,0,1,0-2.7,0v2.574A1.351,1.351,0,0,0,189.009,31.715Z" transform="translate(-153.864 -24.717)"/>
      </g>
    </g>
  </g>
</svg>
