<svg id="c1" xmlns="http://www.w3.org/2000/svg" width="75.502" height="75.502" viewBox="0 0 75.502 75.502">
  <path id="Trazado_716195" data-name="Trazado 716195" d="M37.751,0A37.751,37.751,0,1,1,0,37.751,37.751,37.751,0,0,1,37.751,0Z" fill="#33658a"/>
  <g id="Grupo_1055151" data-name="Grupo 1055151" transform="translate(9.438 18.793)">
    <g id="layer1" transform="translate(0 0)">
      <path id="path15777-4" d="M55.532,284.035H.794v41.526a1.883,1.883,0,0,0,1.888,1.888H53.645a1.883,1.883,0,0,0,1.888-1.888Z" transform="translate(0.15 -271.768)" fill="#dbe9ee"/>
      <path id="rect2181-6" d="M2.681,280.86a1.883,1.883,0,0,0-1.888,1.888v9.438H55.532v-9.438a1.883,1.883,0,0,0-1.888-1.888Z" transform="translate(0.15 -279.918)" fill="#33658a"/>
      <g id="Grupo_80233" data-name="Grupo 80233" transform="translate(4.719 4.718)">
        <path id="path2185-5" d="M5.627,283.806a1.888,1.888,0,1,1-1.887-1.888A1.888,1.888,0,0,1,5.627,283.806Z" transform="translate(-1.852 -281.919)" fill="#5b91b8"/>
        <path id="circle2187-5" d="M7.744,283.807a1.888,1.888,0,1,1-1.887-1.888,1.888,1.888,0,0,1,1.887,1.888Z" transform="translate(3.581 -281.919)" fill="#5b91b8"/>
        <path id="circle2189-2" d="M9.86,283.806a1.888,1.888,0,1,1-1.887-1.888,1.888,1.888,0,0,1,1.887,1.888Z" transform="translate(9.015 -281.919)" fill="#5b91b8"/>
      </g>
      <path id="rect2197-2" d="M9.79,281.919H28.665v3.775H9.79Z" transform="translate(23.242 -277.2)" fill="#dbe9ee"/>
      <path id="rect2118" d="M2.381,285.623H45.795v24.538H2.381Z" transform="translate(4.225 -267.692)" fill="#ff6b6b"/>
      <path id="path2126" d="M7.408,297.177l7.55-4.719-7.55-4.719Z" transform="translate(17.13 -262.259)" fill="#dbe9ee"/>
      <path id="path13073-4" d="M3.359,280.6a2.841,2.841,0,0,0-2.829,2.828v50.962a2.849,2.849,0,0,0,2.829,2.837H54.328a2.848,2.848,0,0,0,2.828-2.837V283.424a2.84,2.84,0,0,0-2.828-2.828Zm0,1.888H54.328a.916.916,0,0,1,.94.94v8.492H2.419v-8.492a.916.916,0,0,1,.94-.94Zm3.775,1.888a2.829,2.829,0,1,0,2.837,2.83A2.841,2.841,0,0,0,7.134,284.371Zm7.552,0a2.829,2.829,0,1,0,2.829,2.83A2.841,2.841,0,0,0,14.686,284.371Zm7.552,0a2.829,2.829,0,1,0,2.829,2.83A2.847,2.847,0,0,0,22.238,284.371Zm11.277,0a.95.95,0,0,0-.9.94v3.777a.944.944,0,0,0,.94.94H52.44a.944.944,0,0,0,.94-.94v-3.777a.944.944,0,0,0-.94-.94ZM7.134,286.261a.944.944,0,1,1-.94.94A.93.93,0,0,1,7.134,286.261Zm7.552,0a.944.944,0,0,1,0,1.888.944.944,0,1,1,0-1.888Zm7.552,0a.944.944,0,0,1,0,1.888.944.944,0,1,1,0-1.888Zm12.269,0H51.491v1.888H34.507ZM2.419,293.805h52.85v40.58a.923.923,0,0,1-.94.949H3.359a.923.923,0,0,1-.94-.949Zm4.719,3.779a.944.944,0,0,0-.947.94v24.545a.944.944,0,0,0,.947.94h43.41a.944.944,0,0,0,.947-.94V298.524a.944.944,0,0,0-.947-.94Zm.94,1.889h41.53v22.649H8.077Zm16.951,5.663a.945.945,0,0,0-.907.94v9.441a.944.944,0,0,0,1.443.8l7.552-4.723a.944.944,0,0,0,0-1.6l-7.552-4.722a.945.945,0,0,0-.536-.14Zm.981,2.641,4.835,3.023-4.835,3.017Zm-9.452,18.107a.945.945,0,0,0-.927.953v.949H7.088a.944.944,0,1,0,0,1.888h8.542v.94a.944.944,0,1,0,1.888,0v-3.777A.944.944,0,0,0,16.557,325.884Zm3.79,3.79h30.2a.944.944,0,1,0,0-1.888H20.3a.944.944,0,0,0,.045,1.888Z" transform="translate(-0.529 -280.596)"/>
    </g>
  </g>
</svg>
