<svg xmlns="http://www.w3.org/2000/svg" xmlns:xlink="http://www.w3.org/1999/xlink" width="295" height="87" viewBox="0 0 295 87">
  <defs>
    <clipPath id="clip-path">
      <rect id="Rect치ngulo_356896" data-name="Rect치ngulo 356896" width="211.741" height="56.545" fill="none"/>
    </clipPath>
  </defs>
  <g id="Grupo_1055148" data-name="Grupo 1055148" transform="translate(-180 -414)">
    <rect id="Rect치ngulo_356901" data-name="Rect치ngulo 356901" width="295" height="87" rx="5" transform="translate(180 414)" fill="#d2e1f1"/>
    <g id="Grupo_1046822" data-name="Grupo 1046822" transform="translate(221.88 429.228)">
      <g id="Grupo_1046815" data-name="Grupo 1046815" clip-path="url(#clip-path)">
        <path id="Trazado_777573" data-name="Trazado 777573" d="M166.178,153.666a12.512,12.512,0,1,1-12.512-12.512,12.512,12.512,0,0,1,12.512,12.512" transform="translate(-131.605 -131.604)" fill="#58595b"/>
        <g id="Grupo_1046822-2" data-name="Grupo 1046822">
          <path id="Trazado_777570" data-name="Trazado 777570" d="M94.119,474.256,92.2,478.577l-2.166,4.876-4,9a1.608,1.608,0,0,1-2.83.2l-1.564-2.483a1.609,1.609,0,0,0-1.638-.728l-2.891.505a1.608,1.608,0,0,1-1.747-2.237l4.357-9.811,3.723-8.383a1.608,1.608,0,0,1,2.123-.817l6.628,2.944,1.1.489a1.608,1.608,0,0,1,.817,2.123" transform="translate(-70.138 -436.86)" fill="#333"/>
          <path id="Trazado_777571" data-name="Trazado 777571" d="M312.809,489.948l-2.891-.505a1.609,1.609,0,0,0-1.638.728l-1.564,2.483a1.608,1.608,0,0,1-2.83-.2l-4-9-2.166-4.876-1.919-4.321a1.608,1.608,0,0,1,.817-2.123l1.1-.489,6.628-2.944a1.608,1.608,0,0,1,2.123.817L310.2,477.9l4.357,9.811a1.608,1.608,0,0,1-1.747,2.237" transform="translate(-275.663 -436.86)" fill="#333"/>
          <path id="Trazado_777572" data-name="Trazado 777572" d="M166.664,477.9a11.48,11.48,0,0,0-4.437.425c-2.055.853-3.795,3.751-5.87,5.128a3.548,3.548,0,0,1-4.332,0c-2.075-1.377-3.815-4.275-5.87-5.128a11.48,11.48,0,0,0-4.437-.425l3.723-8.383a1.608,1.608,0,0,1,2.123-.817l6.628,2.944,6.628-2.944a1.608,1.608,0,0,1,2.123.817Z" transform="translate(-132.129 -436.861)" fill="#262525"/>
          <path id="Trazado_777574" data-name="Trazado 777574" d="M39,15.046c-1.023-2.469.52-6.724-1.34-8.584s-6.115-.317-8.583-1.34C26.7,4.134,24.8,0,22.062,0s-4.634,4.134-7.016,5.122c-2.469,1.023-6.724-.52-8.584,1.34s-.317,6.115-1.34,8.584C4.134,17.427,0,19.323,0,22.062S4.134,26.7,5.122,29.077c1.023,2.469-.52,6.724,1.34,8.584s6.115.317,8.584,1.34c2.381.987,4.277,5.122,7.016,5.122S26.7,39.989,29.078,39c2.468-1.023,6.723.52,8.583-1.34s.317-6.115,1.34-8.584c.987-2.381,5.122-4.277,5.122-7.016S39.989,17.427,39,15.046" fill="#333"/>
          <path id="Trazado_777575" data-name="Trazado 777575" d="M128.406,106.994l-1.867,1.867a12.488,12.488,0,0,1,3,8.15,12.7,12.7,0,0,1-12.373,12.532,12.547,12.547,0,1,1,6.612-23.1,1.317,1.317,0,0,0,1.413-2.224,15.058,15.058,0,0,0-7.949-2.4A15.173,15.173,0,1,0,117,132.169a15.174,15.174,0,0,0,11.41-25.176" transform="translate(-94.935 -94.935)" fill="#fff"/>
          <path id="Trazado_777576" data-name="Trazado 777576" d="M227.95,166.135l-5.906-5.907a1.313,1.313,0,0,1,1.857-1.857l4.05,4.05,13.809-13.809a1.313,1.313,0,0,1,1.857,1.857Z" transform="translate(-206.663 -138.199)" fill="#fff"/>
        </g>
        <path id="Trazado_777577" data-name="Trazado 777577" d="M910.131,474.256l-1.919,4.321-2.166,4.876-4,9a1.608,1.608,0,0,1-2.83.2l-1.564-2.483a1.609,1.609,0,0,0-1.638-.728l-2.891.505a1.608,1.608,0,0,1-1.747-2.237l4.357-9.811,3.723-8.383a1.608,1.608,0,0,1,2.123-.817l6.628,2.944,1.1.489a1.608,1.608,0,0,1,.817,2.123" transform="translate(-830.941 -436.86)" fill="#ff824c"/>
        <path id="Trazado_777578" data-name="Trazado 777578" d="M1128.821,489.948l-2.891-.505a1.61,1.61,0,0,0-1.638.728l-1.564,2.483a1.608,1.608,0,0,1-2.83-.2l-4-9-2.166-4.876-1.919-4.321a1.608,1.608,0,0,1,.817-2.123l1.1-.489,6.628-2.944a1.608,1.608,0,0,1,2.122.817l3.723,8.383,4.357,9.811a1.608,1.608,0,0,1-1.747,2.237" transform="translate(-1036.467 -436.86)" fill="#ff824c"/>
        <path id="Trazado_777579" data-name="Trazado 777579" d="M982.676,477.9a11.481,11.481,0,0,0-4.437.425c-2.055.853-3.795,3.751-5.87,5.128a3.548,3.548,0,0,1-4.333,0c-2.075-1.377-3.815-4.275-5.87-5.128a11.48,11.48,0,0,0-4.437-.425l3.723-8.383a1.608,1.608,0,0,1,2.123-.817l6.628,2.944,6.628-2.944a1.608,1.608,0,0,1,2.123.817Z" transform="translate(-892.932 -436.861)" fill="#e86436"/>
        <path id="Trazado_777580" data-name="Trazado 777580" d="M982.189,153.666a12.512,12.512,0,1,1-12.511-12.512,12.512,12.512,0,0,1,12.511,12.512" transform="translate(-892.407 -131.604)" fill="#585b5a"/>
        <path id="Trazado_777581" data-name="Trazado 777581" d="M855.014,15.046c-1.023-2.469.52-6.724-1.341-8.584s-6.115-.317-8.583-1.34C842.708,4.134,840.812,0,838.074,0s-4.634,4.134-7.015,5.122c-2.469,1.023-6.724-.52-8.584,1.34s-.317,6.115-1.34,8.584c-.987,2.381-5.122,4.277-5.122,7.016s4.134,4.634,5.122,7.016c1.023,2.469-.52,6.724,1.34,8.584s6.115.317,8.584,1.34c2.381.987,4.277,5.122,7.015,5.122s4.635-4.134,7.016-5.122c2.468-1.023,6.723.52,8.583-1.34s.317-6.115,1.341-8.584c.987-2.381,5.122-4.277,5.122-7.016s-4.134-4.634-5.122-7.016" transform="translate(-760.803)" fill="#ff824c"/>
        <path id="Trazado_777582" data-name="Trazado 777582" d="M944.418,106.994l-1.867,1.867a12.488,12.488,0,0,1,3,8.15,12.7,12.7,0,0,1-12.373,12.532,12.547,12.547,0,1,1,6.612-23.1,1.317,1.317,0,0,0,1.413-2.224,15.058,15.058,0,0,0-7.949-2.4,15.173,15.173,0,1,0-.249,30.343,15.174,15.174,0,0,0,11.409-25.176" transform="translate(-855.738 -94.935)" fill="#fff"/>
        <path id="Trazado_777583" data-name="Trazado 777583" d="M1043.961,166.135l-5.906-5.907a1.313,1.313,0,0,1,1.857-1.857l4.05,4.05,13.809-13.809a1.313,1.313,0,0,1,1.857,1.857Z" transform="translate(-967.465 -138.199)" fill="#fff"/>
        <path id="Trazado_777584" data-name="Trazado 777584" d="M1726.142,474.256l-1.919,4.321-2.166,4.876-4,9a1.608,1.608,0,0,1-2.83.2l-1.564-2.483a1.609,1.609,0,0,0-1.638-.728l-2.891.505a1.608,1.608,0,0,1-1.747-2.237l4.357-9.811,3.723-8.383a1.608,1.608,0,0,1,2.123-.817l6.628,2.944,1.1.489a1.608,1.608,0,0,1,.817,2.123" transform="translate(-1591.744 -436.86)" fill="#ea526f"/>
        <path id="Trazado_777585" data-name="Trazado 777585" d="M1944.833,489.948l-2.891-.505a1.61,1.61,0,0,0-1.638.728l-1.563,2.483a1.608,1.608,0,0,1-2.83-.2l-4-9-2.166-4.876-1.919-4.321a1.608,1.608,0,0,1,.817-2.123l1.1-.489,6.628-2.944a1.608,1.608,0,0,1,2.123.817l3.723,8.383,4.357,9.811a1.608,1.608,0,0,1-1.747,2.237" transform="translate(-1797.269 -436.86)" fill="#ea526f"/>
        <path id="Trazado_777586" data-name="Trazado 777586" d="M1798.688,477.9a11.48,11.48,0,0,0-4.437.425c-2.055.853-3.795,3.751-5.87,5.128a3.548,3.548,0,0,1-4.332,0c-2.075-1.377-3.815-4.275-5.87-5.128a11.482,11.482,0,0,0-4.438-.425l3.723-8.383a1.608,1.608,0,0,1,2.123-.817l6.628,2.944,6.628-2.944a1.608,1.608,0,0,1,2.123.817Z" transform="translate(-1653.735 -436.861)" fill="#ce2c3c"/>
        <path id="Trazado_777587" data-name="Trazado 777587" d="M1798.2,153.666a12.512,12.512,0,1,1-12.512-12.512,12.512,12.512,0,0,1,12.512,12.512" transform="translate(-1653.21 -131.604)" fill="#58595b"/>
        <path id="Trazado_777588" data-name="Trazado 777588" d="M1671.026,15.046c-1.023-2.469.52-6.724-1.34-8.584s-6.115-.317-8.583-1.34C1658.72,4.134,1656.824,0,1654.086,0s-4.635,4.134-7.016,5.122c-2.469,1.023-6.724-.52-8.584,1.34s-.317,6.115-1.341,8.584c-.987,2.381-5.122,4.277-5.122,7.016s4.134,4.634,5.122,7.016c1.023,2.469-.52,6.724,1.341,8.584s6.115.317,8.584,1.34c2.381.987,4.277,5.122,7.016,5.122s4.634-4.134,7.016-5.122c2.468-1.023,6.723.52,8.583-1.34s.317-6.115,1.34-8.584c.987-2.381,5.121-4.277,5.121-7.016s-4.134-4.634-5.121-7.016" transform="translate(-1521.606)" fill="#ea526f"/>
        <path id="Trazado_777589" data-name="Trazado 777589" d="M1760.43,106.994l-1.867,1.867a12.488,12.488,0,0,1,3,8.15,12.7,12.7,0,0,1-12.373,12.532,12.547,12.547,0,1,1,6.612-23.1,1.317,1.317,0,0,0,1.413-2.224,15.059,15.059,0,0,0-7.949-2.4,15.173,15.173,0,1,0-.249,30.343,15.174,15.174,0,0,0,11.409-25.176" transform="translate(-1616.541 -94.935)" fill="#fff"/>
        <path id="Trazado_777590" data-name="Trazado 777590" d="M1859.973,166.135l-5.906-5.907a1.313,1.313,0,1,1,1.857-1.857l4.05,4.05,13.809-13.809a1.313,1.313,0,1,1,1.857,1.857Z" transform="translate(-1728.268 -138.199)" fill="#fff"/>
        <path id="Trazado_777591" data-name="Trazado 777591" d="M2542.154,474.256l-1.919,4.321-2.166,4.876-3.995,9a1.608,1.608,0,0,1-2.831.2l-1.564-2.483a1.609,1.609,0,0,0-1.637-.728l-2.891.505a1.609,1.609,0,0,1-1.748-2.237l4.358-9.811,3.723-8.383a1.609,1.609,0,0,1,2.123-.817l6.627,2.944,1.1.489a1.608,1.608,0,0,1,.816,2.123" transform="translate(-2352.546 -436.86)" fill="#28b873"/>
        <path id="Trazado_777592" data-name="Trazado 777592" d="M2760.844,489.948l-2.891-.505a1.609,1.609,0,0,0-1.638.728l-1.564,2.483a1.608,1.608,0,0,1-2.83-.2l-4-9-2.167-4.876-1.919-4.321a1.608,1.608,0,0,1,.817-2.123l1.1-.489,6.628-2.944a1.608,1.608,0,0,1,2.123.817l3.723,8.383,4.357,9.811a1.608,1.608,0,0,1-1.747,2.237" transform="translate(-2558.071 -436.86)" fill="#28b873"/>
        <path id="Trazado_777593" data-name="Trazado 777593" d="M2614.7,477.9a11.482,11.482,0,0,0-4.438.425c-2.055.853-3.795,3.751-5.87,5.128a3.548,3.548,0,0,1-4.332,0c-2.075-1.377-3.815-4.275-5.87-5.128a11.482,11.482,0,0,0-4.438-.425l3.723-8.383a1.608,1.608,0,0,1,2.123-.817l6.628,2.944,6.628-2.944a1.608,1.608,0,0,1,2.123.817Z" transform="translate(-2414.537 -436.861)" fill="#189e5b"/>
        <path id="Trazado_777594" data-name="Trazado 777594" d="M2614.213,153.666a12.512,12.512,0,1,1-12.511-12.512,12.512,12.512,0,0,1,12.511,12.512" transform="translate(-2414.013 -131.604)" fill="#58595b"/>
        <path id="Trazado_777595" data-name="Trazado 777595" d="M2487.038,15.046c-1.023-2.469.52-6.724-1.341-8.584s-6.115-.317-8.583-1.34C2474.732,4.134,2472.836,0,2470.1,0s-4.635,4.134-7.016,5.122c-2.469,1.023-6.724-.52-8.584,1.34s-.317,6.115-1.341,8.584c-.987,2.381-5.122,4.277-5.122,7.016s4.134,4.634,5.122,7.016c1.023,2.469-.519,6.724,1.341,8.584s6.115.317,8.584,1.34c2.381.987,4.277,5.122,7.016,5.122s4.634-4.134,7.016-5.122c2.468-1.023,6.723.52,8.583-1.34s.317-6.115,1.341-8.584c.987-2.381,5.121-4.277,5.121-7.016s-4.134-4.634-5.121-7.016" transform="translate(-2282.409)" fill="#28b873"/>
        <path id="Trazado_777596" data-name="Trazado 777596" d="M2576.441,106.994l-1.867,1.867a12.49,12.49,0,0,1,3,8.15,12.7,12.7,0,0,1-12.373,12.532,12.547,12.547,0,1,1,6.612-23.1,1.317,1.317,0,0,0,1.413-2.224,15.059,15.059,0,0,0-7.948-2.4,15.173,15.173,0,1,0-.25,30.343,15.174,15.174,0,0,0,11.409-25.176" transform="translate(-2377.343 -94.935)" fill="#fff"/>
        <path id="Trazado_777597" data-name="Trazado 777597" d="M2675.985,166.135l-5.906-5.907a1.313,1.313,0,0,1,1.856-1.857l4.05,4.05,13.809-13.809a1.313,1.313,0,0,1,1.857,1.857Z" transform="translate(-2489.07 -138.199)" fill="#fff"/>
        <g id="Grupo_1046823" data-name="Grupo 1046823" transform="translate(55.209)">
          <path id="Trazado_777570-2" data-name="Trazado 777570" d="M94.119,474.256,92.2,478.577l-2.166,4.876-4,9a1.608,1.608,0,0,1-2.83.2l-1.564-2.483a1.609,1.609,0,0,0-1.638-.728l-2.891.505a1.608,1.608,0,0,1-1.747-2.237l4.357-9.811,3.723-8.383a1.608,1.608,0,0,1,2.123-.817l6.628,2.944,1.1.489a1.608,1.608,0,0,1,.817,2.123" transform="translate(-70.138 -436.86)" fill="#333"/>
          <path id="Trazado_777571-2" data-name="Trazado 777571" d="M312.809,489.948l-2.891-.505a1.609,1.609,0,0,0-1.638.728l-1.564,2.483a1.608,1.608,0,0,1-2.83-.2l-4-9-2.166-4.876-1.919-4.321a1.608,1.608,0,0,1,.817-2.123l1.1-.489,6.628-2.944a1.608,1.608,0,0,1,2.123.817L310.2,477.9l4.357,9.811a1.608,1.608,0,0,1-1.747,2.237" transform="translate(-275.663 -436.86)" fill="#333"/>
          <path id="Trazado_777572-2" data-name="Trazado 777572" d="M166.664,477.9a11.48,11.48,0,0,0-4.437.425c-2.055.853-3.795,3.751-5.87,5.128a3.548,3.548,0,0,1-4.332,0c-2.075-1.377-3.815-4.275-5.87-5.128a11.48,11.48,0,0,0-4.437-.425l3.723-8.383a1.608,1.608,0,0,1,2.123-.817l6.628,2.944,6.628-2.944a1.608,1.608,0,0,1,2.123.817Z" transform="translate(-132.129 -436.861)" fill="#262525"/>
          <path id="Trazado_777574-2" data-name="Trazado 777574" d="M39,15.046c-1.023-2.469.52-6.724-1.34-8.584s-6.115-.317-8.583-1.34C26.7,4.134,24.8,0,22.062,0s-4.634,4.134-7.016,5.122c-2.469,1.023-6.724-.52-8.584,1.34s-.317,6.115-1.34,8.584C4.134,17.427,0,19.323,0,22.062S4.134,26.7,5.122,29.077c1.023,2.469-.52,6.724,1.34,8.584s6.115.317,8.584,1.34c2.381.987,4.277,5.122,7.016,5.122S26.7,39.989,29.078,39c2.468-1.023,6.723.52,8.583-1.34s.317-6.115,1.34-8.584c.987-2.381,5.122-4.277,5.122-7.016S39.989,17.427,39,15.046" fill="#333"/>
          <path id="Trazado_777575-2" data-name="Trazado 777575" d="M128.406,106.994l-1.867,1.867a12.488,12.488,0,0,1,3,8.15,12.7,12.7,0,0,1-12.373,12.532,12.547,12.547,0,1,1,6.612-23.1,1.317,1.317,0,0,0,1.413-2.224,15.058,15.058,0,0,0-7.949-2.4A15.173,15.173,0,1,0,117,132.169a15.174,15.174,0,0,0,11.41-25.176" transform="translate(-94.935 -94.935)" fill="#fff"/>
          <path id="Trazado_777576-2" data-name="Trazado 777576" d="M227.95,166.135l-5.906-5.907a1.313,1.313,0,0,1,1.857-1.857l4.05,4.05,13.809-13.809a1.313,1.313,0,0,1,1.857,1.857Z" transform="translate(-206.663 -138.199)" fill="#fff"/>
        </g>
        <g id="Grupo_1046824" data-name="Grupo 1046824" transform="translate(110.418)">
          <path id="Trazado_777570-3" data-name="Trazado 777570" d="M94.119,474.256,92.2,478.577l-2.166,4.876-4,9a1.608,1.608,0,0,1-2.83.2l-1.564-2.483a1.609,1.609,0,0,0-1.638-.728l-2.891.505a1.608,1.608,0,0,1-1.747-2.237l4.357-9.811,3.723-8.383a1.608,1.608,0,0,1,2.123-.817l6.628,2.944,1.1.489a1.608,1.608,0,0,1,.817,2.123" transform="translate(-70.138 -436.86)" fill="#333"/>
          <path id="Trazado_777571-3" data-name="Trazado 777571" d="M312.809,489.948l-2.891-.505a1.609,1.609,0,0,0-1.638.728l-1.564,2.483a1.608,1.608,0,0,1-2.83-.2l-4-9-2.166-4.876-1.919-4.321a1.608,1.608,0,0,1,.817-2.123l1.1-.489,6.628-2.944a1.608,1.608,0,0,1,2.123.817L310.2,477.9l4.357,9.811a1.608,1.608,0,0,1-1.747,2.237" transform="translate(-275.663 -436.86)" fill="#333"/>
          <path id="Trazado_777572-3" data-name="Trazado 777572" d="M166.664,477.9a11.48,11.48,0,0,0-4.437.425c-2.055.853-3.795,3.751-5.87,5.128a3.548,3.548,0,0,1-4.332,0c-2.075-1.377-3.815-4.275-5.87-5.128a11.48,11.48,0,0,0-4.437-.425l3.723-8.383a1.608,1.608,0,0,1,2.123-.817l6.628,2.944,6.628-2.944a1.608,1.608,0,0,1,2.123.817Z" transform="translate(-132.129 -436.861)" fill="#262525"/>
          <path id="Trazado_777574-3" data-name="Trazado 777574" d="M39,15.046c-1.023-2.469.52-6.724-1.34-8.584s-6.115-.317-8.583-1.34C26.7,4.134,24.8,0,22.062,0s-4.634,4.134-7.016,5.122c-2.469,1.023-6.724-.52-8.584,1.34s-.317,6.115-1.34,8.584C4.134,17.427,0,19.323,0,22.062S4.134,26.7,5.122,29.077c1.023,2.469-.52,6.724,1.34,8.584s6.115.317,8.584,1.34c2.381.987,4.277,5.122,7.016,5.122S26.7,39.989,29.078,39c2.468-1.023,6.723.52,8.583-1.34s.317-6.115,1.34-8.584c.987-2.381,5.122-4.277,5.122-7.016S39.989,17.427,39,15.046" fill="#333"/>
          <path id="Trazado_777575-3" data-name="Trazado 777575" d="M128.406,106.994l-1.867,1.867a12.488,12.488,0,0,1,3,8.15,12.7,12.7,0,0,1-12.373,12.532,12.547,12.547,0,1,1,6.612-23.1,1.317,1.317,0,0,0,1.413-2.224,15.058,15.058,0,0,0-7.949-2.4A15.173,15.173,0,1,0,117,132.169a15.174,15.174,0,0,0,11.41-25.176" transform="translate(-94.935 -94.935)" fill="#fff"/>
          <path id="Trazado_777576-3" data-name="Trazado 777576" d="M227.95,166.135l-5.906-5.907a1.313,1.313,0,0,1,1.857-1.857l4.05,4.05,13.809-13.809a1.313,1.313,0,0,1,1.857,1.857Z" transform="translate(-206.663 -138.199)" fill="#fff"/>
        </g>
        <g id="Grupo_1046825" data-name="Grupo 1046825" transform="translate(165.627)">
          <path id="Trazado_777570-4" data-name="Trazado 777570" d="M94.119,474.256,92.2,478.577l-2.166,4.876-4,9a1.608,1.608,0,0,1-2.83.2l-1.564-2.483a1.609,1.609,0,0,0-1.638-.728l-2.891.505a1.608,1.608,0,0,1-1.747-2.237l4.357-9.811,3.723-8.383a1.608,1.608,0,0,1,2.123-.817l6.628,2.944,1.1.489a1.608,1.608,0,0,1,.817,2.123" transform="translate(-70.138 -436.86)" fill="#333"/>
          <path id="Trazado_777571-4" data-name="Trazado 777571" d="M312.809,489.948l-2.891-.505a1.609,1.609,0,0,0-1.638.728l-1.564,2.483a1.608,1.608,0,0,1-2.83-.2l-4-9-2.166-4.876-1.919-4.321a1.608,1.608,0,0,1,.817-2.123l1.1-.489,6.628-2.944a1.608,1.608,0,0,1,2.123.817L310.2,477.9l4.357,9.811a1.608,1.608,0,0,1-1.747,2.237" transform="translate(-275.663 -436.86)" fill="#333"/>
          <path id="Trazado_777572-4" data-name="Trazado 777572" d="M166.664,477.9a11.48,11.48,0,0,0-4.437.425c-2.055.853-3.795,3.751-5.87,5.128a3.548,3.548,0,0,1-4.332,0c-2.075-1.377-3.815-4.275-5.87-5.128a11.48,11.48,0,0,0-4.437-.425l3.723-8.383a1.608,1.608,0,0,1,2.123-.817l6.628,2.944,6.628-2.944a1.608,1.608,0,0,1,2.123.817Z" transform="translate(-132.129 -436.861)" fill="#262525"/>
          <path id="Trazado_777574-4" data-name="Trazado 777574" d="M39,15.046c-1.023-2.469.52-6.724-1.34-8.584s-6.115-.317-8.583-1.34C26.7,4.134,24.8,0,22.062,0s-4.634,4.134-7.016,5.122c-2.469,1.023-6.724-.52-8.584,1.34s-.317,6.115-1.34,8.584C4.134,17.427,0,19.323,0,22.062S4.134,26.7,5.122,29.077c1.023,2.469-.52,6.724,1.34,8.584s6.115.317,8.584,1.34c2.381.987,4.277,5.122,7.016,5.122S26.7,39.989,29.078,39c2.468-1.023,6.723.52,8.583-1.34s.317-6.115,1.34-8.584c.987-2.381,5.122-4.277,5.122-7.016S39.989,17.427,39,15.046" fill="#333"/>
          <path id="Trazado_777575-4" data-name="Trazado 777575" d="M128.406,106.994l-1.867,1.867a12.488,12.488,0,0,1,3,8.15,12.7,12.7,0,0,1-12.373,12.532,12.547,12.547,0,1,1,6.612-23.1,1.317,1.317,0,0,0,1.413-2.224,15.058,15.058,0,0,0-7.949-2.4A15.173,15.173,0,1,0,117,132.169a15.174,15.174,0,0,0,11.41-25.176" transform="translate(-94.935 -94.935)" fill="#fff"/>
          <path id="Trazado_777576-4" data-name="Trazado 777576" d="M227.95,166.135l-5.906-5.907a1.313,1.313,0,0,1,1.857-1.857l4.05,4.05,13.809-13.809a1.313,1.313,0,0,1,1.857,1.857Z" transform="translate(-206.663 -138.199)" fill="#fff"/>
        </g>
      </g>
    </g>
  </g>
</svg>
