<svg xmlns="http://www.w3.org/2000/svg" xmlns:xlink="http://www.w3.org/1999/xlink" width="120" height="120" viewBox="0 0 120 120">
  <defs>
    <filter id="Elipse_8028" x="0" y="0" width="120" height="120" filterUnits="userSpaceOnUse">
      <feOffset dy="3" input="SourceAlpha"/>
      <feGaussianBlur stdDeviation="3" result="blur"/>
      <feFlood flood-opacity="0.161"/>
      <feComposite operator="in" in2="blur"/>
      <feComposite in="SourceGraphic"/>
    </filter>
  </defs>
  <g id="Grupo_1054392" data-name="Grupo 1054392" transform="translate(-1090.51 -1872.106)">
    <g transform="matrix(1, 0, 0, 1, 1090.51, 1872.11)" filter="url(#Elipse_8028)">
      <circle id="Elipse_8028-2" data-name="Elipse 8028" cx="51" cy="51" r="51" transform="translate(9 6)" fill="#ffc5ad"/>
    </g>
    <g id="apreton-de-manos_2_" data-name="apreton-de-manos (2)" transform="translate(1095.193 1805.613)">
      <g id="Grupo_1054404" data-name="Grupo 1054404" transform="translate(1.62 99.678)">
        <g id="Grupo_1054399" data-name="Grupo 1054399" transform="translate(25.519 1.485)">
          <path id="Trazado_789823" data-name="Trazado 789823" d="M188.837,141.153l-2.81-22.83-5.266.648,0,0-10.21-5.746a6.153,6.153,0,0,0-3.583-.765l-16.121,1.491a6.151,6.151,0,0,0-4.752,3.035l-11.363,19.557a2.7,2.7,0,0,0,1.382,3.886l.465.175a10.081,10.081,0,0,0,2.732.61l-1.44,1.254-2.88,2.51-8.192,6.988a3.5,3.5,0,0,0-.339,4.939l.831.952a4.5,4.5,0,0,0,6.345.433l3.131,3.591a4.49,4.49,0,0,0,6.345.433l3.128,3.592a4.5,4.5,0,0,0,6.349.436l1.7,1.469a4.5,4.5,0,0,0,6.349.436l2.311-2.016L182.373,151.1l.021-.019,7.664-.008Z" transform="translate(-125.598 -112.431)" fill="#f29f5c"/>
          <path id="Trazado_789824" data-name="Trazado 789824" d="M180.521,260.4l-.021.019-19.425,15.129-2.311,2.016a4.5,4.5,0,0,1-6.349-.436l-1.7-1.469a4.5,4.5,0,0,1-6.349-.436l-3.128-3.592a4.49,4.49,0,0,1-6.345-.433l-3.131-3.591a4.5,4.5,0,0,1-5.571.265,3.5,3.5,0,0,0,.277,4.231l.831.952a4.5,4.5,0,0,0,6.345.433l3.131,3.591a4.49,4.49,0,0,0,6.345.433l3.128,3.592a4.5,4.5,0,0,0,6.349.436l1.7,1.469a4.5,4.5,0,0,0,6.349.436l2.311-2.016L182.383,266.3l.021-.019,7.664-.008-.848-6.888Z" transform="translate(-125.607 -227.634)" fill="#d37d42"/>
        </g>
        <g id="Grupo_1054400" data-name="Grupo 1054400" transform="translate(14.959 2.388)">
          <path id="Trazado_789825" data-name="Trazado 789825" d="M145.739,158.351l-10.408-8.974-2.894-2.494-2.071-1.784-8.9-7.675,1.028-8.754a6.041,6.041,0,0,0-4.389-6.527l-19.41-5.371a4.492,4.492,0,0,0-5.2,2.281l-2.441,4.765-10.478-.711-2.684,22.845-1.166,9.928,10.2.678.021.019,21.306,18.366,2.322,2a4.5,4.5,0,0,0,6.346-.471l3.107-3.606a4.5,4.5,0,0,0,6.347-.471l3.108-3.609a4.49,4.49,0,0,0,6.343-.468l3.111-3.609a4.5,4.5,0,0,0,6.343-.468l.826-.957A3.5,3.5,0,0,0,145.739,158.351Z" transform="translate(-76.727 -116.61)" fill="#f9c295"/>
          <path id="Trazado_789826" data-name="Trazado 789826" d="M263.44,299.864l-3.17-2.733a3.716,3.716,0,0,1-.154,4.66l-.877,1.015a4.775,4.775,0,0,1-6.733.5l-3.3,3.831a4.767,4.767,0,0,1-6.733.5l-3.3,3.831a4.777,4.777,0,0,1-6.737.5l-3.3,3.828a4.744,4.744,0,0,1-2.263,1.459l1.4,1.212a4.5,4.5,0,0,0,6.346-.471l3.107-3.606a4.5,4.5,0,0,0,6.347-.471l3.108-3.609a4.49,4.49,0,0,0,6.343-.468l3.111-3.609a4.5,4.5,0,0,0,6.343-.468l.826-.957A3.5,3.5,0,0,0,263.44,299.864Z" transform="translate(-194.428 -258.123)" fill="#e59f6a"/>
        </g>
        <g id="Grupo_1054402" data-name="Grupo 1054402" transform="translate(23.637 40.717)">
          <g id="Grupo_1054401" data-name="Grupo 1054401">
            <path id="Trazado_789827" data-name="Trazado 789827" d="M118.939,295.586l-1.234,1.63a4.032,4.032,0,0,0,.78,5.648h0a4.032,4.032,0,0,0,5.648-.78l1.234-1.63a4.032,4.032,0,0,0-.78-5.648h0A4.032,4.032,0,0,0,118.939,295.586Z" transform="translate(-116.887 -293.988)" fill="#f29f5c"/>
            <path id="Trazado_789828" data-name="Trazado 789828" d="M149.78,311.452l-2.325,3.07a4.032,4.032,0,0,0,.78,5.648h0a4.032,4.032,0,0,0,5.648-.78l2.325-3.07a4.032,4.032,0,0,0-.78-5.648h0A4.032,4.032,0,0,0,149.78,311.452Z" transform="translate(-140.209 -306.426)" fill="#f29f5c"/>
            <path id="Trazado_789829" data-name="Trazado 789829" d="M180.372,328.827l-3.168,4.184a4.032,4.032,0,0,0,.78,5.648h0a4.032,4.032,0,0,0,5.648-.78L186.8,333.7a4.032,4.032,0,0,0-.78-5.648h0A4.032,4.032,0,0,0,180.372,328.827Z" transform="translate(-163.529 -320.046)" fill="#f29f5c"/>
            <path id="Trazado_789830" data-name="Trazado 789830" d="M210.306,350.234l-3.352,4.426a4.032,4.032,0,0,0,.78,5.648h0a4.032,4.032,0,0,0,5.648-.78l3.352-4.426a4.032,4.032,0,0,0-.78-5.648h0A4.032,4.032,0,0,0,210.306,350.234Z" transform="translate(-186.851 -336.827)" fill="#f29f5c"/>
          </g>
        </g>
        <path id="Trazado_789831" data-name="Trazado 789831" d="M212.573,118.968l-10.21-5.746a6.153,6.153,0,0,0-3.583-.765l-16.121,1.491a6.151,6.151,0,0,0-4.752,3.035l-11.363,19.557a2.7,2.7,0,0,0,1.382,3.886l.465.175a10.1,10.1,0,0,0,11.581-3.3l4.353-5.666s10.465,12.117,21.986-2.033" transform="translate(-131.889 -110.946)" fill="#f29f5c"/>
        <path id="Trazado_789832" data-name="Trazado 789832" d="M420.775,105.557l5.34,43.379-12.487,1.537a4.305,4.305,0,0,1-4.8-3.747l-4.288-34.833a4.306,4.306,0,0,1,3.747-4.8Z" transform="translate(-318.721 -105.557)" fill="#5c9cee"/>
        <path id="Trazado_789833" data-name="Trazado 789833" d="M426.955,277.559a4.72,4.72,0,0,1-5.18-3.641l.589,4.789a4.305,4.305,0,0,0,4.8,3.747l12.487-1.537-.6-4.848Z" transform="translate(-332.257 -237.538)" fill="#3580d3"/>
        <path id="Trazado_789834" data-name="Trazado 789834" d="M12.841,105.557,7.5,148.936l12.487,1.537a4.306,4.306,0,0,0,4.8-3.747l4.288-34.833a4.305,4.305,0,0,0-3.747-4.8Z" transform="translate(-7.501 -105.557)" fill="#ed5575"/>
        <path id="Trazado_789835" data-name="Trazado 789835" d="M20.282,281.477l-12.17-1.5L7.5,284.943l12.487,1.537a4.306,4.306,0,0,0,4.8-3.747l.453-3.68A5.058,5.058,0,0,1,20.282,281.477Z" transform="translate(-7.501 -241.564)" fill="#cc3a60"/>
        <g id="Grupo_1054403" data-name="Grupo 1054403" transform="translate(5.444 33.102)">
          <circle id="Elipse_8119" data-name="Elipse 8119" cx="3.133" cy="3.133" r="3.133" transform="translate(90.067)" fill="#ebeef2"/>
          <circle id="Elipse_8120" data-name="Elipse 8120" cx="3.133" cy="3.133" r="3.133" fill="#ebeef2"/>
        </g>
      </g>
      <g id="Grupo_1054405" data-name="Grupo 1054405" transform="translate(-0.001 98.057)">
        <path id="Trazado_789836" data-name="Trazado 789836" d="M55.339,151.73a5.639,5.639,0,0,0-4.451-1.048,5.65,5.65,0,0,0-6.347-4.672,5.715,5.715,0,0,0-1.077.257,5.645,5.645,0,0,0-7.58-3.633,5.654,5.654,0,0,0-9.307-2.256l-5.932-.394,3.636-29.535,6.515.443c.037,0,.074,0,.11,0a1.62,1.62,0,0,0,1.442-.882l2.442-4.764a2.883,2.883,0,0,1,3.321-1.457l3.626,1a1.621,1.621,0,1,0,.864-3.124l-3.625-1a6.137,6.137,0,0,0-7.069,3.1l-1.955,3.815-5.273-.358.125-1.015a5.933,5.933,0,0,0-5.158-6.606L7.158,98.07a1.621,1.621,0,0,0-.4,3.217l12.487,1.537a2.685,2.685,0,0,1,2.337,2.993L17.3,140.649a2.689,2.689,0,0,1-2.993,2.337L1.818,141.449a1.621,1.621,0,0,0-.4,3.217L13.909,146.2a5.92,5.92,0,0,0,5.915-3.025l4.438.295a5.654,5.654,0,0,0,5.015,8.238,5.763,5.763,0,0,0,.785-.054l.05-.008c0,.017,0,.033.006.05a5.648,5.648,0,0,0,5.593,4.877,5.7,5.7,0,0,0,.832-.063,5.641,5.641,0,0,0,5.6,4.932,5.7,5.7,0,0,0,.83-.063c0,.018,0,.036.006.054a5.655,5.655,0,0,0,5.588,4.88,5.759,5.759,0,0,0,.785-.054,5.615,5.615,0,0,0,3.733-2.187l3.352-4.426A5.658,5.658,0,0,0,55.339,151.73Zm-25.72-3.284a2.411,2.411,0,0,1-2.252-3.845l1.234-1.63a2.411,2.411,0,0,1,3.845,2.912l-1.235,1.63A2.4,2.4,0,0,1,29.619,148.446Zm4.643,4.4a2.411,2.411,0,0,1-.466-3.378l1.234-1.63h0l1.09-1.44a2.411,2.411,0,0,1,3.844,2.912l-2.325,3.07A2.414,2.414,0,0,1,34.261,152.848Zm6.429,4.868a2.411,2.411,0,0,1-.467-3.377h0l2.325-3.07h0l.844-1.114a2.411,2.411,0,0,1,3.845,2.91l-3.169,4.185h0A2.414,2.414,0,0,1,40.69,157.716Zm13.159-.025L50.5,162.118a2.411,2.411,0,1,1-3.844-2.912l3.169-4.184,0,0,.182-.24a2.411,2.411,0,1,1,3.844,2.912Z" transform="translate(0.001 -98.057)"/>
        <path id="Trazado_789837" data-name="Trazado 789837" d="M235.013,142.86a1.621,1.621,0,0,0-1.806-1.41l-12.487,1.537a2.687,2.687,0,0,1-2.993-2.337l-.128-1.04h0l-.03-.241-4.13-33.553a2.685,2.685,0,0,1,2.337-2.993l12.487-1.537a1.621,1.621,0,1,0-.4-3.217L215.38,99.607a5.934,5.934,0,0,0-5.2,6.035l-3.149.388-9.751-5.487a7.739,7.739,0,0,0-4.527-.967h-.01l-2.935.271a1.621,1.621,0,0,0,.3,3.227l2.943-.272a4.511,4.511,0,0,1,2.639.563l10.11,5.69a1.621,1.621,0,0,0,1.091.256l3.657-.45,2.683,21.791.928,7.536-5.834,0a1.62,1.62,0,0,0-1.058.394l-.451.351L192.17,126.317c3.347-.962,6.537-3.29,9.52-6.953a1.621,1.621,0,1,0-2.513-2.047c-3.334,4.095-6.84,6.2-10.42,6.264-5.216.1-9.048-4.227-9.083-4.267a1.621,1.621,0,0,0-2.512.072l-4.353,5.666a8.433,8.433,0,0,1-9.724,2.767l-.465-.176a1.082,1.082,0,0,1-.553-1.556l11.363-19.557a4.539,4.539,0,0,1,3.5-2.235l6.727-.622a1.621,1.621,0,1,0-.3-3.227l-6.727.622a7.787,7.787,0,0,0-6,3.835l-11.363,19.557a4.323,4.323,0,0,0,2.211,6.217l.465.176a11.807,11.807,0,0,0,4.177.768,11.656,11.656,0,0,0,9.262-4.592l3.248-4.227a16,16,0,0,0,9.133,3.995l21.164,18.241a1.881,1.881,0,0,1,.2,2.652l-.825.957a2.884,2.884,0,0,1-4.06.3,1.622,1.622,0,0,0-.212-.153l-5.494-4.737a1.621,1.621,0,0,0-2.117,2.455l4.465,3.85-2.037,2.364a2.871,2.871,0,0,1-4.058.3L194.76,153l-5.1-4.4a1.621,1.621,0,0,0-2.117,2.455l3.9,3.364-2.049,2.379a2.882,2.882,0,0,1-2.521.981,1.621,1.621,0,0,0-.378,3.219,6.12,6.12,0,0,0,5.355-2.084l2.19-2.544a6.116,6.116,0,0,0,7.261-1.534l2.194-2.546a6.134,6.134,0,0,0,7.26-1.529l.826-.958a5.121,5.121,0,0,0-.537-7.223l-1.33-1.146,4.862,0a5.921,5.921,0,0,0,6.544,4.774l12.487-1.537A1.621,1.621,0,0,0,235.013,142.86Z" transform="translate(-124.39 -98.058)"/>
        <path id="Trazado_789838" data-name="Trazado 789838" d="M446.758,251.249A4.754,4.754,0,1,0,451.511,256,4.759,4.759,0,0,0,446.758,251.249Zm0,6.266A1.512,1.512,0,1,1,448.27,256,1.514,1.514,0,0,1,446.758,257.515Z" transform="translate(-346.494 -218.147)"/>
        <path id="Trazado_789839" data-name="Trazado 789839" d="M34.7,256a4.753,4.753,0,1,0-4.753,4.754A4.759,4.759,0,0,0,34.7,256Zm-6.266,0a1.512,1.512,0,1,1,1.512,1.512A1.514,1.514,0,0,1,28.434,256Z" transform="translate(-19.749 -218.147)"/>
      </g>
    </g>
  </g>
</svg>
