<svg xmlns="http://www.w3.org/2000/svg" xmlns:xlink="http://www.w3.org/1999/xlink" width="120" height="120" viewBox="0 0 120 120">
  <defs>
    <filter id="Elipse_8029" x="0" y="0" width="120" height="120" filterUnits="userSpaceOnUse">
      <feOffset dy="3" input="SourceAlpha"/>
      <feGaussianBlur stdDeviation="3" result="blur"/>
      <feFlood flood-opacity="0.161"/>
      <feComposite operator="in" in2="blur"/>
      <feComposite in="SourceGraphic"/>
    </filter>
  </defs>
  <g id="Grupo_1054380" data-name="Grupo 1054380" transform="translate(-3448 9522.894)">
    <g transform="matrix(1, 0, 0, 1, 3448, -9522.89)" filter="url(#Elipse_8029)">
      <circle id="Elipse_8029-2" data-name="Elipse 8029" cx="51" cy="51" r="51" transform="translate(9 6)" fill="#ffc5ad"/>
    </g>
    <g id="capacitacion_1_" data-name="capacitacion (1)" transform="translate(3465.756 -9509.929)">
      <g id="Grupo_1047176" data-name="Grupo 1047176" transform="translate(1.421 1.42)">
        <g id="Grupo_1047154" data-name="Grupo 1047154" transform="translate(0 5.682)">
          <path id="Trazado_778513" data-name="Trazado 778513" d="M10.841,40h40.42a14.807,14.807,0,0,0-3.122,8.028,10.52,10.52,0,0,1-4.183,7.619,4.662,4.662,0,0,0-.5,7.026l1.476,1.476a7.246,7.246,0,0,0,1.38,4.261H29.307l-1.076,4.3a1.819,1.819,0,0,1-3.53,0l-1.076-4.3H10.841A2.84,2.84,0,0,1,8,65.569V42.841A2.84,2.84,0,0,1,10.841,40Z" transform="translate(-8 -40)" fill="#e6e9ed"/>
        </g>
        <g id="Grupo_1047155" data-name="Grupo 1047155" transform="translate(34.092)">
          <path id="Trazado_778514" data-name="Trazado 778514" d="M209.169,13.682l1.595-1.728A14.8,14.8,0,0,1,220.851,8h.913a14.847,14.847,0,0,1,14.8,13.71,10.52,10.52,0,0,0,4.183,7.619,4.661,4.661,0,0,1,.5,7.026l-1.476,1.476a5.92,5.92,0,0,1-3.514,5.4l-.121-.087a13.3,13.3,0,0,0-7.729-2.477,2.837,2.837,0,0,1-2.841-2.841,10.283,10.283,0,0,0,5.467-7.1h3.056a2.841,2.841,0,1,0,0-5.682h-2.841V23.409a1.42,1.42,0,0,0-1.186-1.4l-2.516-.421a15.241,15.241,0,0,1-8.276-4.258,2.752,2.752,0,0,0-4.407.716c-.339.675-.661,1.319-.661,1.319a5.136,5.136,0,0,0-2.841,4.6v1.085h-2.841a2.841,2.841,0,1,0,0,5.682h3.056a10.282,10.282,0,0,0,5.467,7.1v.121a2.72,2.72,0,0,1-2.718,2.72h-.123a8.632,8.632,0,0,0-7.126,3.771,7.283,7.283,0,0,1-4.238-6.612l-1.476-1.476a4.661,4.661,0,0,1,.5-7.026,10.52,10.52,0,0,0,4.183-7.619,14.807,14.807,0,0,1,3.122-8.028Z" transform="translate(-200 -8)" fill="#b27946"/>
        </g>
        <g id="Grupo_1047156" data-name="Grupo 1047156" transform="translate(28.884 32.671)">
          <path id="Trazado_778515" data-name="Trazado 778515" d="M187.84,205.882s-.176.233-1.206,1.605a7.455,7.455,0,0,1-5.973,2.979h-.091A7.218,7.218,0,0,1,175.143,208l-4.473-5.114,5.595-5.595,3.874,4.649,2.022-4.721a8.544,8.544,0,0,1,.8-1.451A8.632,8.632,0,0,1,190.083,192l1.259,3.146a6.294,6.294,0,0,0,11.687,0L204.288,192a13.3,13.3,0,0,1,7.729,2.477l.121.087,2.768,1.976a8.564,8.564,0,0,1,.373,13.656l-3.889,3.111-2.841-5.682-.382.128a5.673,5.673,0,0,0-3.88,5.382,3.016,3.016,0,0,0,2.406,2.953l-.126.4a7.816,7.816,0,0,0-8.9,3.328,7.1,7.1,0,0,0-6.644,0,7.848,7.848,0,0,0-3.319-2.935l.005-.012,1.488-2.232a5.274,5.274,0,0,0,.33-5.282L188.2,206.69a8.783,8.783,0,0,1-.355-.808Z" transform="translate(-170.67 -192)" fill="#5cd6b3"/>
        </g>
        <g id="Grupo_1047157" data-name="Grupo 1047157" transform="translate(52.558 71.128)">
          <path id="Trazado_778516" data-name="Trazado 778516" d="M318.285,408.58a7.086,7.086,0,0,0,5.6,2.738,8.043,8.043,0,0,0-7.983,7.047l-.54,4.317h-2.841l-.54-4.317A8.043,8.043,0,0,0,304,411.318a7.086,7.086,0,0,0,5.6-2.738,7.811,7.811,0,0,0,8.683,0Z" transform="translate(-304 -408.58)" fill="#4fc1e9"/>
        </g>
        <g id="Grupo_1047158" data-name="Grupo 1047158" transform="translate(12.784 71.128)">
          <path id="Trazado_778517" data-name="Trazado 778517" d="M94.285,408.58a7.086,7.086,0,0,0,5.6,2.738,8.045,8.045,0,0,0-7.983,7.047l-.54,4.317H88.523l-.54-4.317A8.045,8.045,0,0,0,80,411.318a7.086,7.086,0,0,0,5.6-2.738,7.811,7.811,0,0,0,8.683,0Z" transform="translate(-80 -408.58)" fill="#f29ed0"/>
        </g>
        <g id="Grupo_1047159" data-name="Grupo 1047159" transform="translate(32.671 71.128)">
          <path id="Trazado_778518" data-name="Trazado 778518" d="M211.887,411.318a8.045,8.045,0,0,0-7.983,7.047l-.54,4.317h-2.841l-.54-4.317A8.043,8.043,0,0,0,192,411.318a7.086,7.086,0,0,0,5.6-2.738,7.811,7.811,0,0,0,8.683,0A7.086,7.086,0,0,0,211.887,411.318Z" transform="translate(-192 -408.58)" fill="#e6e9ed"/>
        </g>
        <g id="Grupo_1047160" data-name="Grupo 1047160" transform="translate(4.261 73.866)">
          <path id="Trazado_778519" data-name="Trazado 778519" d="M40.523,424a8.046,8.046,0,0,1,7.983,7.047l.54,4.317H32l.54-4.317A8.043,8.043,0,0,1,40.523,424Z" transform="translate(-32 -424)" fill="#e6e9ed"/>
        </g>
        <g id="Grupo_1047161" data-name="Grupo 1047161" transform="translate(24.148 73.866)">
          <path id="Trazado_778520" data-name="Trazado 778520" d="M152.523,424a8.043,8.043,0,0,1,7.983,7.047l.54,4.317H144l.54-4.317A8.046,8.046,0,0,1,152.523,424Z" transform="translate(-144 -424)" fill="#fcd770"/>
        </g>
        <g id="Grupo_1047162" data-name="Grupo 1047162" transform="translate(44.035 73.866)">
          <path id="Trazado_778521" data-name="Trazado 778521" d="M256.54,431.047a8.045,8.045,0,0,1,15.966,0l.54,4.317H256Z" transform="translate(-256 -424)" fill="#f29ed0"/>
        </g>
        <g id="Grupo_1047163" data-name="Grupo 1047163" transform="translate(63.922 73.866)">
          <path id="Trazado_778522" data-name="Trazado 778522" d="M376.523,424a8.046,8.046,0,0,1,7.983,7.047l.54,4.317H368l.54-4.317A8.043,8.043,0,0,1,376.523,424Z" transform="translate(-368 -424)" fill="#5cd6b3"/>
        </g>
        <g id="Grupo_1047164" data-name="Grupo 1047164" transform="translate(55.88 56.82)">
          <path id="Trazado_778523" data-name="Trazado 778523" d="M335.953,331.667a7.1,7.1,0,0,0-2.28,10.641,7.812,7.812,0,0,1-8.683,0,7.1,7.1,0,0,0-2.28-10.641,7.811,7.811,0,0,1,13.243,0Z" transform="translate(-322.71 -328)" fill="#ecc19c"/>
        </g>
        <g id="Grupo_1047165" data-name="Grupo 1047165" transform="translate(35.994 56.82)">
          <path id="Trazado_778524" data-name="Trazado 778524" d="M223.953,331.667a7.1,7.1,0,0,0-2.28,10.641,7.812,7.812,0,0,1-8.683,0,7.1,7.1,0,0,0-2.28-10.641,7.811,7.811,0,0,1,13.243,0Z" transform="translate(-210.71 -328)" fill="#ecc19c"/>
        </g>
        <g id="Grupo_1047166" data-name="Grupo 1047166" transform="translate(16.107 56.82)">
          <path id="Trazado_778525" data-name="Trazado 778525" d="M111.953,331.667a7.1,7.1,0,0,0-2.28,10.641,7.812,7.812,0,0,1-8.683,0,7.1,7.1,0,0,0-2.28-10.641,7.812,7.812,0,0,1,13.243,0Z" transform="translate(-98.71 -328)" fill="#ecc19c"/>
        </g>
        <g id="Grupo_1047167" data-name="Grupo 1047167" transform="translate(5.682 59.661)">
          <path id="Trazado_778526" data-name="Trazado 778526" d="M54.2,351.1a7.1,7.1,0,1,1-3.78-6.277A7.071,7.071,0,0,1,54.2,351.1Z" transform="translate(-40 -344)" fill="#f0d0b4"/>
        </g>
        <g id="Grupo_1047168" data-name="Grupo 1047168" transform="translate(25.569 59.661)">
          <path id="Trazado_778527" data-name="Trazado 778527" d="M166.2,351.1a7.1,7.1,0,1,1-3.78-6.277A7.071,7.071,0,0,1,166.2,351.1Z" transform="translate(-152 -344)" fill="#f0d0b4"/>
        </g>
        <g id="Grupo_1047169" data-name="Grupo 1047169" transform="translate(45.456 59.661)">
          <path id="Trazado_778528" data-name="Trazado 778528" d="M278.2,351.1a7.1,7.1,0,1,1-3.78-6.277A7.071,7.071,0,0,1,278.2,351.1Z" transform="translate(-264 -344)" fill="#f0d0b4"/>
        </g>
        <g id="Grupo_1047170" data-name="Grupo 1047170" transform="translate(65.343 59.661)">
          <path id="Trazado_778529" data-name="Trazado 778529" d="M383.1,344a7.1,7.1,0,1,1-3.322.826A7.1,7.1,0,0,1,383.1,344Z" transform="translate(-376 -344)" fill="#f0d0b4"/>
        </g>
        <g id="Grupo_1047171" data-name="Grupo 1047171" transform="translate(62.502 48.297)">
          <path id="Trazado_778530" data-name="Trazado 778530" d="M364.262,280l2.841,5.682-1.959,1.958a3.013,3.013,0,0,1-2.131.883,3.1,3.1,0,0,1-.607-.06A3.017,3.017,0,0,1,360,285.51a5.673,5.673,0,0,1,3.88-5.382Z" transform="translate(-360 -280)" fill="#f0d0b4"/>
        </g>
        <g id="Grupo_1047172" data-name="Grupo 1047172" transform="translate(25.569 34.092)">
          <path id="Trazado_778531" data-name="Trazado 778531" d="M158.792,201.33l2.118,2.544-5.595,5.595-2.122-2.424A4.825,4.825,0,0,1,152,203.871v-.082A3.794,3.794,0,0,1,155.807,200h.144A3.7,3.7,0,0,1,158.792,201.33Z" transform="translate(-152 -200)" fill="#f0d0b4"/>
        </g>
        <g id="Grupo_1047173" data-name="Grupo 1047173" transform="translate(65.128 17.046)">
          <path id="Trazado_778532" data-name="Trazado 778532" d="M377.846,104a2.841,2.841,0,1,1,0,5.682H374.79A10.222,10.222,0,0,0,375,107.59V104Z" transform="translate(-374.79 -104)" fill="#f0d0b4"/>
        </g>
        <g id="Grupo_1047174" data-name="Grupo 1047174" transform="translate(45.456 8.523)">
          <path id="Trazado_778533" data-name="Trazado 778533" d="M268.1,83.295l-1.259-3.146h.122a2.72,2.72,0,0,0,2.718-2.72v-.121A10.278,10.278,0,0,1,264,68.113V63.438a5.136,5.136,0,0,1,2.841-4.6s.321-.645.661-1.319a2.752,2.752,0,0,1,4.407-.716,15.241,15.241,0,0,0,8.276,4.258l2.516.421a1.42,1.42,0,0,1,1.186,1.4v5.227a10.281,10.281,0,0,1-5.682,9.194,2.837,2.837,0,0,0,2.841,2.841l-1.259,3.146a6.294,6.294,0,0,1-11.687,0Z" transform="translate(-264 -56)" fill="#f0d0b4"/>
        </g>
        <g id="Grupo_1047175" data-name="Grupo 1047175" transform="translate(39.774 17.046)">
          <path id="Trazado_778534" data-name="Trazado 778534" d="M237.9,109.682h-3.056a2.841,2.841,0,1,1,0-5.682h2.841v3.59A10.219,10.219,0,0,0,237.9,109.682Z" transform="translate(-232 -104)" fill="#f0d0b4"/>
        </g>
      </g>
      <g id="Grupo_1047177" data-name="Grupo 1047177" transform="translate(0 0)">
        <path id="Trazado_778535" data-name="Trazado 778535" d="M4.812,82.158l-.739,5.913H84l-.739-5.913A9.469,9.469,0,0,0,78.7,75.2a8.52,8.52,0,0,0-7.678-15.048A9.232,9.232,0,0,0,69.6,58.772a4.5,4.5,0,0,0,.472-.41l1.9-1.9L75.8,53.4a9.984,9.984,0,0,0-.434-15.921l-1.09-.778a7.338,7.338,0,0,0,2.4-4.834l1.085-1.085a6.042,6.042,0,0,0,1.781-4.3,6.111,6.111,0,0,0-2.433-4.865A9.116,9.116,0,0,1,73.5,15.02,16.268,16.268,0,0,0,57.276,0h-.912A16.221,16.221,0,0,0,45.311,4.332a16.389,16.389,0,0,0-1.295,1.35H4.262A4.266,4.266,0,0,0,0,9.943V32.671a4.266,4.266,0,0,0,4.261,4.261H15.937l.807,3.228a3.24,3.24,0,0,0,6.286,0l.807-3.228h2.3a5.178,5.178,0,0,0-.569,2.369v.08a6.24,6.24,0,0,0,1.544,4.11l6.6,7.538a8.632,8.632,0,0,0,6.5,2.948H40.3a8.929,8.929,0,0,0,6.9-3.285l.693,1.387a3.852,3.852,0,0,1-.24,3.859l-.865,1.3a9.235,9.235,0,0,0-9.848,2.913,8.5,8.5,0,0,0-5.69,0,9.229,9.229,0,0,0-14.2,0A8.52,8.52,0,0,0,9.372,75.2a9.469,9.469,0,0,0-4.56,6.959Zm18.786,0a9.469,9.469,0,0,0-4.56-6.959,8.586,8.586,0,0,0,1.048-.854,9.232,9.232,0,0,0,8.126,0,8.587,8.587,0,0,0,1.048.854,9.469,9.469,0,0,0-4.56,6.959l-.384,3.072h-.333Zm16.375-7.814a9.231,9.231,0,0,0,8.126,0,8.588,8.588,0,0,0,1.048.854,9.469,9.469,0,0,0-4.56,6.959L44.2,85.23h-.333l-.384-3.072a9.469,9.469,0,0,0-4.56-6.959,8.606,8.606,0,0,0,1.048-.855ZM53.979,62.5A5.682,5.682,0,1,1,48.3,68.184,5.688,5.688,0,0,1,53.979,62.5ZM60.553,82.51l.34,2.72H47.065l.34-2.72a6.625,6.625,0,0,1,13.148,0Zm-19.887,0,.34,2.72H27.178l.34-2.72a6.625,6.625,0,0,1,13.148,0Zm23.423,2.72h-.333l-.384-3.072a9.469,9.469,0,0,0-4.56-6.959,8.588,8.588,0,0,0,1.048-.854,9.231,9.231,0,0,0,8.125,0,8.589,8.589,0,0,0,1.048.854,9.469,9.469,0,0,0-4.56,6.959ZM80.44,82.51l.34,2.72H66.952l.34-2.72a6.625,6.625,0,0,1,13.148,0Zm-.892-14.326A5.682,5.682,0,1,1,73.866,62.5,5.688,5.688,0,0,1,79.548,68.184Zm-14.2,0a8.469,8.469,0,0,0,.909,3.823,6.4,6.4,0,0,1-4.659,0A8.5,8.5,0,0,0,59.359,61.58a6.384,6.384,0,0,1,9.126,0A8.509,8.509,0,0,0,65.343,68.184ZM67.5,51.529l1.8,3.6-1.237,1.23a1.593,1.593,0,0,1-2.719-1.126A4.245,4.245,0,0,1,67.5,51.529ZM75.41,23.886a3.257,3.257,0,0,1,1.3,2.593,3.219,3.219,0,0,1-.949,2.292l-1.892,1.892v.588a4.494,4.494,0,0,1-2.012,3.743,14.626,14.626,0,0,0-7.932-2.322,1.422,1.422,0,0,1-1.224-.7,11.609,11.609,0,0,0,4.952-6.4H69.6a4.269,4.269,0,0,0,4.131-3.214,11.938,11.938,0,0,0,1.675,1.531ZM35.7,36.933h3.35a8.684,8.684,0,0,0,1.606,1.45c-.058.123-.115.246-.169.372l-1.11,2.59Zm6.53-.914a5.872,5.872,0,0,1-2.461-4.768v-.588l-1.892-1.892a3.22,3.22,0,0,1-.949-2.292,3.256,3.256,0,0,1,1.3-2.593A11.95,11.95,0,0,0,39.9,22.355a4.269,4.269,0,0,0,4.131,3.214h1.954A11.611,11.611,0,0,0,50.979,32a1.305,1.305,0,0,1-.222.3,1.29,1.29,0,0,1-.918.381h-.107A10.047,10.047,0,0,0,42.235,36.019Zm3.241-13.291h-1.44a1.42,1.42,0,0,1,0-2.841h1.42v2.17C45.456,22.282,45.463,22.506,45.476,22.728Zm7.718,7.253a8.81,8.81,0,0,1-4.9-7.923V17.381a3.7,3.7,0,0,1,2.056-3.326l.423-.212.871-1.743a1.332,1.332,0,0,1,2.133-.346,16.577,16.577,0,0,0,9.047,4.655l2.516.419v5.228a8.81,8.81,0,0,1-4.9,7.923l-.785.393v.878a4.265,4.265,0,0,0,2.346,3.8l-.662,1.654a4.874,4.874,0,0,1-9.05,0L51.649,35.1a4.146,4.146,0,0,0,2.33-3.725v-1Zm14.99-7.923v-2.17H69.6a1.42,1.42,0,0,1,0,2.841h-1.44C68.176,22.506,68.184,22.282,68.184,22.057ZM56.364,2.841h.912a13.489,13.489,0,0,1,13.387,12.4A11.932,11.932,0,0,0,71,17.283a4.241,4.241,0,0,0-1.4-.237H68.184v-.217a2.832,2.832,0,0,0-2.374-2.8l-2.516-.419a13.754,13.754,0,0,1-7.505-3.862,4.172,4.172,0,0,0-6.682,1.085l-.462.924a6.514,6.514,0,0,0-3.178,5.293H44.035a4.239,4.239,0,0,0-1.4.237,11.949,11.949,0,0,0,.341-2.045,13.489,13.489,0,0,1,13.387-12.4ZM21.619,34.092l-1.345,5.38a.4.4,0,0,1-.774,0l-1.345-5.38H4.262a1.422,1.422,0,0,1-1.42-1.42V9.943a1.422,1.422,0,0,1,1.42-1.42H42.054a16.24,16.24,0,0,0-1.91,6.5,9.117,9.117,0,0,1-3.619,6.593,6.111,6.111,0,0,0-2.433,4.866,6.043,6.043,0,0,0,1.781,4.3l1.081,1.081a8.67,8.67,0,0,0,.46,2.231h-15.8Zm6.791,5.291V39.3a2.347,2.347,0,0,1,.695-1.674,2.381,2.381,0,0,1,1.693-.7h.142a2.271,2.271,0,0,1,1.75.82L33.978,39.3,30.373,42.9l-1.122-1.282a3.4,3.4,0,0,1-.841-2.24ZM50.431,50.81,49.1,48.147a7.605,7.605,0,0,1,0-6.8l.468-.935-2.541-1.27-.468.935a10.431,10.431,0,0,0-.669,7.645l-.756,1.009A6.073,6.073,0,0,1,40.3,51.138h-.089a5.792,5.792,0,0,1-4.359-1.978l-3.6-4.113L35.8,41.491l4.362,5.235L43.1,39.874a7.193,7.193,0,0,1,5.679-4.3l.875,2.187a7.715,7.715,0,0,0,14.326,0l.886-2.215a11.8,11.8,0,0,1,5.957,2.175l2.889,2.064a7.143,7.143,0,0,1,.311,11.391l-2.516,2.013L69.823,49.82l.622-.933A10.558,10.558,0,0,1,74.5,45.306l-1.27-2.541a13.4,13.4,0,0,0-5.149,4.546l-.387.58a10.409,10.409,0,0,0-.613-7.818l-.468-.935-2.541,1.27.468.935a7.605,7.605,0,0,1,0,6.8L63.208,50.81a6.57,6.57,0,0,0-.667,3.682,7.158,7.158,0,0,0-.039.736,4.41,4.41,0,0,0,.323,1.659,9.162,9.162,0,0,0-6,3.264,8.5,8.5,0,0,0-5.69,0A9.217,9.217,0,0,0,49.355,58.5l.659-.989a6.693,6.693,0,0,0,.417-6.706Zm-6.4,8.851A6.351,6.351,0,0,1,48.6,61.58a8.5,8.5,0,0,0-2.234,10.426,6.4,6.4,0,0,1-4.659,0A8.5,8.5,0,0,0,39.473,61.58a6.351,6.351,0,0,1,4.563-1.919Zm-4.261,8.523A5.682,5.682,0,1,1,34.092,62.5,5.688,5.688,0,0,1,39.774,68.184ZM24.148,59.661a6.351,6.351,0,0,1,4.563,1.919,8.5,8.5,0,0,0-2.234,10.426,6.4,6.4,0,0,1-4.659,0A8.5,8.5,0,0,0,19.586,61.58a6.351,6.351,0,0,1,4.563-1.919ZM8.523,68.184A5.682,5.682,0,1,1,14.2,73.866,5.688,5.688,0,0,1,8.523,68.184ZM20.779,82.51l.34,2.72H7.291l.34-2.72a6.625,6.625,0,0,1,13.148,0Z" transform="translate(0 0)"/>
        <path id="Trazado_778537" data-name="Trazado 778537" d="M32,144H43.364v2.841H32Z" transform="translate(-26.318 -118.431)"/>
        <path id="Trazado_778538" data-name="Trazado 778538" d="M112,144h2.841v2.841H112Z" transform="translate(-92.113 -118.431)"/>
        <path id="Trazado_778539" data-name="Trazado 778539" d="M144,144h2.841v2.841H144Z" transform="translate(-118.431 -118.431)"/>
        <path id="Trazado_778540" data-name="Trazado 778540" d="M32,112H57.569v2.841H32Z" transform="translate(-26.318 -92.113)"/>
        <path id="Trazado_778541" data-name="Trazado 778541" d="M32,80H60.41v2.841H32Z" transform="translate(-26.318 -65.795)"/>
      </g>
    </g>
  </g>
</svg>
