<svg xmlns="http://www.w3.org/2000/svg" xmlns:xlink="http://www.w3.org/1999/xlink" width="120" height="120" viewBox="0 0 120 120">
  <defs>
    <filter id="Elipse_8028" x="0" y="0" width="120" height="120" filterUnits="userSpaceOnUse">
      <feOffset dy="3" input="SourceAlpha"/>
      <feGaussianBlur stdDeviation="3" result="blur"/>
      <feFlood flood-opacity="0.161"/>
      <feComposite operator="in" in2="blur"/>
      <feComposite in="SourceGraphic"/>
    </filter>
  </defs>
  <g id="Grupo_1054393" data-name="Grupo 1054393" transform="translate(-1090.51 -1872.106)">
    <g transform="matrix(1, 0, 0, 1, 1090.51, 1872.11)" filter="url(#Elipse_8028)">
      <circle id="Elipse_8028-2" data-name="Elipse 8028" cx="51" cy="51" r="51" transform="translate(9 6)" fill="#ffc5ad"/>
    </g>
    <g id="metas" transform="translate(1108.937 1888.969)">
      <g id="Grupo_1054406" data-name="Grupo 1054406" transform="translate(11.308 7.216)">
        <circle id="Elipse_8121" data-name="Elipse 8121" cx="31.838" cy="31.838" r="31.838" fill="#fff0af"/>
      </g>
      <g id="Grupo_1054407" data-name="Grupo 1054407" transform="translate(17.411 13.318)">
        <path id="Trazado_789840" data-name="Trazado 789840" d="M144,64.779a31.838,31.838,0,0,1-44.479,44.479A31.838,31.838,0,1,0,144,64.779Z" transform="translate(-99.519 -64.779)" fill="#ffe07d"/>
      </g>
      <g id="Grupo_1054409" data-name="Grupo 1054409" transform="translate(7.81 3.718)">
        <g id="Grupo_1054408" data-name="Grupo 1054408">
          <path id="Trazado_789841" data-name="Trazado 789841" d="M79.979,80.576A35.336,35.336,0,1,1,115.315,45.24,35.376,35.376,0,0,1,79.979,80.576Zm0-63.676a28.34,28.34,0,1,0,28.34,28.34A28.372,28.372,0,0,0,79.979,16.9Z" transform="translate(-44.643 -9.904)" fill="#dd5790"/>
        </g>
      </g>
      <g id="Grupo_1054411" data-name="Grupo 1054411" transform="translate(23.945 19.853)">
        <g id="Grupo_1054410" data-name="Grupo 1054410">
          <path id="Trazado_789842" data-name="Trazado 789842" d="M156.072,140.534a19.2,19.2,0,1,1,19.2-19.2A19.223,19.223,0,0,1,156.072,140.534Zm0-31.406a12.2,12.2,0,1,0,12.2,12.2A12.219,12.219,0,0,0,156.072,109.128Z" transform="translate(-136.871 -102.132)" fill="#dd5790"/>
        </g>
      </g>
      <g id="Grupo_1054412" data-name="Grupo 1054412" transform="translate(9.278 5.186)">
        <path id="Trazado_789843" data-name="Trazado 789843" d="M96.982,18.294a31.9,31.9,0,0,1,13.6,18.319,28.325,28.325,0,0,1-39.23,39.23,31.9,31.9,0,0,1-18.319-13.6,35.337,35.337,0,1,0,43.95-43.95Z" transform="translate(-53.032 -18.294)" fill="#da387d"/>
      </g>
      <g id="Grupo_1054413" data-name="Grupo 1054413" transform="translate(38.552 34.46)">
        <circle id="Elipse_8122" data-name="Elipse 8122" cx="4.594" cy="4.594" r="4.594" fill="#dd5790"/>
      </g>
      <g id="Grupo_1054414" data-name="Grupo 1054414" transform="translate(1.312 47.422)">
        <path id="Trazado_789844" data-name="Trazado 789844" d="M28.5,259.719H9.247A1.749,1.749,0,0,0,7.5,261.468v38.905a1.749,1.749,0,0,0,1.749,1.749H40.234a1.749,1.749,0,0,0,1.749-1.749V273.205a1.749,1.749,0,0,0-.512-1.237L29.733,260.231A1.75,1.75,0,0,0,28.5,259.719Z" transform="translate(-7.498 -259.719)" fill="#ffe07d"/>
      </g>
      <g id="Grupo_1054415" data-name="Grupo 1054415" transform="translate(1.312 56.631)">
        <path id="Trazado_789845" data-name="Trazado 789845" d="M41.47,315.394l-3.041-3.042v27.892a1.749,1.749,0,0,1-1.749,1.749H7.5v1.8a1.749,1.749,0,0,0,1.749,1.749H40.234a1.749,1.749,0,0,0,1.749-1.749V316.631A1.75,1.75,0,0,0,41.47,315.394Z" transform="translate(-7.498 -312.353)" fill="#ffd064"/>
      </g>
      <g id="Grupo_1054416" data-name="Grupo 1054416" transform="translate(23.034 47.582)">
        <path id="Trazado_789846" data-name="Trazado 789846" d="M143.914,272.719l-11.737-11.737a1.745,1.745,0,0,0-.512-.353v10.854a1.749,1.749,0,0,0,1.749,1.749h10.854A1.747,1.747,0,0,0,143.914,272.719Z" transform="translate(-131.664 -260.629)" fill="#ffd064"/>
      </g>
      <g id="Grupo_1054417" data-name="Grupo 1054417" transform="translate(23.034 47.582)">
        <path id="Trazado_789847" data-name="Trazado 789847" d="M139.863,273.232h4.4a1.746,1.746,0,0,0-.353-.512l-11.737-11.737a1.745,1.745,0,0,0-.512-.353v4.4Z" transform="translate(-131.664 -260.629)" fill="#ffc250"/>
      </g>
      <g id="Grupo_1054430" data-name="Grupo 1054430" transform="translate(43.321 30.54)">
        <g id="Grupo_1054418" data-name="Grupo 1054418" transform="translate(18.382 0)">
          <path id="Trazado_789848" data-name="Trazado 789848" d="M377.5,163.22H354.237l-1.542.635v16.531l1.508.635h23.3a1.749,1.749,0,0,0,1.749-1.749v-14.3A1.749,1.749,0,0,0,377.5,163.22Z" transform="translate(-352.695 -163.22)" fill="#4278c3"/>
        </g>
        <g id="Grupo_1054419" data-name="Grupo 1054419" transform="translate(18.382 0)">
          <path id="Trazado_789849" data-name="Trazado 789849" d="M377.5,163.22H375.39v12.189a1.749,1.749,0,0,1-1.749,1.749h-19.9a6.358,6.358,0,0,1-1.047-.087v3.315l1.508.635h23.3a1.749,1.749,0,0,0,1.749-1.749v-14.3A1.749,1.749,0,0,0,377.5,163.22Z" transform="translate(-352.694 -163.22)" fill="#335995"/>
        </g>
        <g id="Grupo_1054420" data-name="Grupo 1054420" transform="translate(18.382 0)">
          <path id="Trazado_789850" data-name="Trazado 789850" d="M377.5,163.22H354.236l-1.542.635v4.95h26.559v-3.835A1.749,1.749,0,0,0,377.5,163.22Z" transform="translate(-352.694 -163.22)" fill="#335995"/>
        </g>
        <g id="Grupo_1054421" data-name="Grupo 1054421" transform="translate(18.382 12.064)">
          <path id="Trazado_789851" data-name="Trazado 789851" d="M379.253,232.176H352.694v5.1l1.508.635h23.3a1.749,1.749,0,0,0,1.749-1.749v-3.987Z" transform="translate(-352.694 -232.176)" fill="#335995"/>
        </g>
        <g id="Grupo_1054422" data-name="Grupo 1054422" transform="translate(18.382 12.064)">
          <path id="Trazado_789852" data-name="Trazado 789852" d="M375.39,232.176v.125a1.749,1.749,0,0,1-1.749,1.749h-19.9a6.358,6.358,0,0,1-1.047-.087v3.315l1.508.635h23.3a1.749,1.749,0,0,0,1.749-1.749v-3.988Z" transform="translate(-352.694 -232.176)" fill="#21386b"/>
        </g>
        <g id="Grupo_1054424" data-name="Grupo 1054424" transform="translate(7.206 0)">
          <g id="Grupo_1054423" data-name="Grupo 1054423">
            <path id="Trazado_789853" data-name="Trazado 789853" d="M288.813,175.7V168.54l1.581-1.4,6.845-3.292a6.346,6.346,0,0,1,2.751-.627h1.592a4.038,4.038,0,0,1-.623,5.289.412.412,0,0,0,0,.613,4.037,4.037,0,0,1,0,6,.413.413,0,0,0,0,.614,4.03,4.03,0,0,1,1.332,2.892,3.925,3.925,0,0,1-.745,2.4h-1.557a6.344,6.344,0,0,1-2.751-.627l-6.845-3.292Z" transform="translate(-288.813 -163.22)" fill="#ffd064"/>
          </g>
        </g>
        <g id="Grupo_1054425" data-name="Grupo 1054425" transform="translate(7.206 8.755)">
          <path id="Trazado_789854" data-name="Trazado 789854" d="M301.036,218.447a6.344,6.344,0,0,1-2.751-.627l-9.472-4.556v3.726l1.581,1.4,6.845,3.292a6.345,6.345,0,0,0,2.751.627h1.557a3.926,3.926,0,0,0,.745-2.4,4.016,4.016,0,0,0-.318-1.467Z" transform="translate(-288.813 -213.264)" fill="#ffc250"/>
        </g>
        <g id="Grupo_1054427" data-name="Grupo 1054427" transform="translate(0 3.919)">
          <g id="Grupo_1054426" data-name="Grupo 1054426">
            <path id="Trazado_789855" data-name="Trazado 789855" d="M256.41,195.585l-8.106-3.9a1.2,1.2,0,0,1,0-2.164l8.106-3.9Z" transform="translate(-247.624 -185.623)" fill="#335995"/>
          </g>
        </g>
        <g id="Grupo_1054428" data-name="Grupo 1054428" transform="translate(0 6.717)">
          <path id="Trazado_789856" data-name="Trazado 789856" d="M250.593,201.616l-2.289,1.1a1.2,1.2,0,0,0,0,2.164l8.106,3.9v-4.366Z" transform="translate(-247.624 -201.616)" fill="#21386b"/>
        </g>
        <g id="Grupo_1054429" data-name="Grupo 1054429" transform="translate(41.078 0)">
          <path id="Trazado_789857" data-name="Trazado 789857" d="M484.538,163.22h-2.113V168.8h3.862v-3.835A1.749,1.749,0,0,0,484.538,163.22Z" transform="translate(-482.425 -163.22)" fill="#21386b"/>
        </g>
      </g>
      <g id="Grupo_1054431" data-name="Grupo 1054431" transform="translate(0 2.406)">
        <circle id="Elipse_8123" data-name="Elipse 8123" cx="1.353" cy="1.353" r="1.353" transform="translate(5.193 52.097)"/>
        <circle id="Elipse_8124" data-name="Elipse 8124" cx="1.353" cy="1.353" r="1.353" transform="translate(5.193 64.532)"/>
        <path id="Trazado_789858" data-name="Trazado 789858" d="M58.453,303.048h5.4a1.312,1.312,0,1,0,0-2.623h-5.4a1.312,1.312,0,1,0,0,2.623Z" transform="translate(-47.144 -248.287)"/>
        <path id="Trazado_789859" data-name="Trazado 789859" d="M58.453,332.792h5.4a1.312,1.312,0,0,0,0-2.624h-5.4a1.312,1.312,0,0,0,0,2.624Z" transform="translate(-47.144 -272.827)"/>
        <path id="Trazado_789860" data-name="Trazado 789860" d="M73.195,371.505H58.453a1.312,1.312,0,0,0,0,2.624H73.195a1.312,1.312,0,0,0,0-2.624Z" transform="translate(-47.144 -306.932)"/>
        <path id="Trazado_789861" data-name="Trazado 789861" d="M58.453,403.871h5.4a1.312,1.312,0,1,0,0-2.623h-5.4a1.312,1.312,0,1,0,0,2.623Z" transform="translate(-47.144 -331.471)"/>
        <path id="Trazado_789862" data-name="Trazado 789862" d="M73.195,442.319H58.453a1.312,1.312,0,0,0,0,2.624H73.195a1.312,1.312,0,1,0,0-2.624Z" transform="translate(-47.144 -365.357)"/>
        <circle id="Elipse_8125" data-name="Elipse 8125" cx="1.353" cy="1.353" r="1.353" transform="translate(5.193 76.921)"/>
        <path id="Trazado_789863" data-name="Trazado 789863" d="M86.512,29.228H78.455A36.629,36.629,0,0,0,19.9,10.738a1.312,1.312,0,1,0,1.666,2.026A34.005,34.005,0,0,1,75.724,29.228h-4.6A29.652,29.652,0,0,0,14.347,46.11H9.858a34.012,34.012,0,0,1,7.577-29.317,1.312,1.312,0,0,0-1.983-1.719A36.592,36.592,0,0,0,7.185,46.11H3.061A3.065,3.065,0,0,0,0,49.171V88.077a3.064,3.064,0,0,0,3.061,3.061H34.047a3.064,3.064,0,0,0,3.061-3.061V75.2a36.864,36.864,0,0,0,6.038.5,36.282,36.282,0,0,0,22.227-7.527A36.99,36.99,0,0,0,78.23,49.652h8.282a3.064,3.064,0,0,0,3.061-3.061v-14.3a3.064,3.064,0,0,0-3.061-3.061ZM24.346,50.589l8.283,8.283H24.783a.438.438,0,0,1-.437-.437ZM36.706,59.4a3.107,3.107,0,0,0-.487-.643l-.008-.009-.619-.619a20.491,20.491,0,0,0,21.426-3.973,1.312,1.312,0,1,0-1.776-1.931,17.885,17.885,0,1,1,3.282-22.3c-.047.021-.095.041-.141.063L47.6,35.173a5.906,5.906,0,1,0-.518,8.286l4.682,2.252A10.894,10.894,0,1,1,49.194,30a1.312,1.312,0,1,0,1.461-2.179A13.516,13.516,0,1,0,54.17,46.869L58.383,48.9a7.709,7.709,0,0,0,3.319.756h6.305A27.032,27.032,0,0,1,37.108,65.4V60.909a3.035,3.035,0,0,0-.4-1.512ZM62.514,31.852a2.728,2.728,0,0,1-.721,3,1.724,1.724,0,0,0,0,2.56,2.725,2.725,0,0,1,0,4.051,1.725,1.725,0,0,0,0,2.56,2.706,2.706,0,0,1,.9,1.952,2.566,2.566,0,0,1-.2,1.05h-.8a5.067,5.067,0,0,1-2.182-.5l-6.1-2.935V35.284l6.1-2.935a5.064,5.064,0,0,1,2.182-.5ZM43.433,41.7l.875.421a3.283,3.283,0,1,1,.757-5.734l-1.632.785a2.512,2.512,0,0,0,0,4.528Zm1.346-2.264L50.8,36.546v5.788Zm20.144-2H86.95v3.856H64.983a5.272,5.272,0,0,0-.06-3.856ZM86.95,32.289v2.523H64.931a5.239,5.239,0,0,0,.294-2.961H86.513a.437.437,0,0,1,.437.437ZM16.118,39.054a27.029,27.029,0,0,1,52.208-9.826H61.7c-.181,0-.362.009-.543.022a20.51,20.51,0,0,0-38.526,9.8,20.4,20.4,0,0,0,1.48,7.648,2.577,2.577,0,0,0-.291-.19,3.04,3.04,0,0,0-1.513-.4H17.057a26.99,26.99,0,0,1-.938-7.057Zm17.929,49.46H3.061a.438.438,0,0,1-.437-.437V49.171a.438.438,0,0,1,.437-.437H21.723v9.7A3.064,3.064,0,0,0,24.783,61.5h9.7v26.58A.438.438,0,0,1,34.047,88.514Zm9.1-15.436a34.205,34.205,0,0,1-6.038-.537V68.084a29.73,29.73,0,0,0,6.038.622A29.686,29.686,0,0,0,70.835,49.652H75.48A34.2,34.2,0,0,1,43.146,73.078Zm43.8-26.487a.438.438,0,0,1-.437.437H65.221a5.2,5.2,0,0,0,.1-1.118,5.332,5.332,0,0,0-.448-2H86.95Z" transform="translate(0 -2.406)"/>
      </g>
    </g>
  </g>
</svg>
