<svg xmlns="http://www.w3.org/2000/svg" xmlns:xlink="http://www.w3.org/1999/xlink" width="120" height="120" viewBox="0 0 120 120">
  <defs>
    <filter id="Elipse_8030" x="0" y="0" width="120" height="120" filterUnits="userSpaceOnUse">
      <feOffset dy="3" input="SourceAlpha"/>
      <feGaussianBlur stdDeviation="3" result="blur"/>
      <feFlood flood-opacity="0.161"/>
      <feComposite operator="in" in2="blur"/>
      <feComposite in="SourceGraphic"/>
    </filter>
  </defs>
  <g id="Grupo_1054381" data-name="Grupo 1054381" transform="translate(-3447.51 9546.894)">
    <g id="Grupo_1054379" data-name="Grupo 1054379" transform="translate(-372.536 285)">
      <g transform="matrix(1, 0, 0, 1, 3820.05, -9831.89)" filter="url(#Elipse_8030)">
        <circle id="Elipse_8030-2" data-name="Elipse 8030" cx="51" cy="51" r="51" transform="translate(9 6)" fill="#ffc5ad"/>
      </g>
      <g id="Grupo_1047153" data-name="Grupo 1047153">
        <g id="buscar_1_" data-name="buscar (1)" transform="translate(3780.656 -9821.276)">
          <g id="Grupo_1047150" data-name="Grupo 1047150" transform="translate(63.373 1.447)">
            <g id="Grupo_1047147" data-name="Grupo 1047147">
              <path id="Trazado_778501" data-name="Trazado 778501" d="M69.434,31.523V82.739a7.309,7.309,0,0,0,7.309,7.309H134.1a7.309,7.309,0,0,0,7.309-7.309V14.809A7.309,7.309,0,0,0,134.1,7.5H93.457A9.135,9.135,0,0,0,87,10.176L72.11,25.063a9.135,9.135,0,0,0-2.676,6.46Z" transform="translate(-69.434 -7.5)" fill="#f4fbff"/>
              <path id="Trazado_778502" data-name="Trazado 778502" d="M69.432,31.526v1.56a5.345,5.345,0,0,1,5.345-5.345h7.586a7.308,7.308,0,0,0,7.308-7.308V12.847A5.345,5.345,0,0,1,95.016,7.5h-1.56a9.142,9.142,0,0,0-6.461,2.676L72.108,25.065A9.143,9.143,0,0,0,69.432,31.526Z" transform="translate(-69.432 -7.502)" fill="#e4f6ff"/>
            </g>
            <g id="Grupo_1047148" data-name="Grupo 1047148" transform="translate(13.175 21.548)">
              <path id="Trazado_778503" data-name="Trazado 778503" d="M236.051,334.056h7.7v17.833h-7.7Z" transform="translate(-217.086 -292.613)" fill="#407093"/>
              <path id="Trazado_778504" data-name="Trazado 778504" d="M236.051,334.056H239.9v17.833h-3.849Z" transform="translate(-217.086 -292.613)" fill="#365e7d"/>
              <circle id="Elipse_8036" data-name="Elipse 8036" cx="22.813" cy="22.813" r="22.813" transform="translate(0 0)" fill="#ffe07d"/>
              <path id="Trazado_778505" data-name="Trazado 778505" d="M162.474,164.754q-.952.081-1.925.081a22.814,22.814,0,0,1,0-45.627q.972,0,1.925.081a22.814,22.814,0,0,0,0,45.465Z" transform="translate(-137.735 -119.208)" fill="#ffd064"/>
              <circle id="Elipse_8037" data-name="Elipse 8037" cx="16.128" cy="16.128" r="16.128" transform="translate(6.686 6.686)" fill="#d3effb"/>
              <path id="Trazado_778506" data-name="Trazado 778506" d="M191.737,185.8a16.127,16.127,0,1,1,0-31.614,16.131,16.131,0,0,0,0,31.614Z" transform="translate(-165.709 -147.181)" fill="#b1e4f9"/>
              <path id="Trazado_778507" data-name="Trazado 778507" d="M231.06,407.73h-6.31a3.561,3.561,0,0,1-3.561-3.561V388.163a3.561,3.561,0,0,1,3.561-3.561h6.31a3.561,3.561,0,0,1,3.561,3.561v16.006A3.561,3.561,0,0,1,231.06,407.73Z" transform="translate(-205.092 -333.409)" fill="#a77d73"/>
              <path id="Trazado_778508" data-name="Trazado 778508" d="M229.368,407.729H224.75a3.56,3.56,0,0,1-3.561-3.561V388.162a3.56,3.56,0,0,1,3.561-3.561h4.618a3.56,3.56,0,0,0-3.561,3.561v16.006A3.56,3.56,0,0,0,229.368,407.729Z" transform="translate(-205.091 -333.408)" fill="#98695e"/>
            </g>
            <g id="Grupo_1047149" data-name="Grupo 1047149" transform="translate(26.313 34.787)">
              <path id="Trazado_778509" data-name="Trazado 778509" d="M214.641,207.285a3.293,3.293,0,0,1-2.6-1.275l-5.506-7.1a3.293,3.293,0,0,1,5.205-4.035l2.472,3.189,4.824-8.541a3.293,3.293,0,0,1,5.735,3.239l-7.259,12.854a3.293,3.293,0,0,1-2.628,1.665q-.121.009-.24.009Z" transform="translate(-205.841 -187.844)" fill="#b3e59f"/>
            </g>
          </g>
          <g id="Grupo_1047151" data-name="Grupo 1047151" transform="translate(61.925 0)">
            <path id="Trazado_778510" data-name="Trazado 778510" d="M128.041,0H87.395a10.513,10.513,0,0,0-7.483,3.1l-.043.045L65.023,17.987a10.522,10.522,0,0,0-3.1,7.484V76.687a8.765,8.765,0,0,0,8.755,8.755H91.2v3.291a1.447,1.447,0,1,0,2.893,0V77.748a2.117,2.117,0,0,1,2.114-2.114h6.31a2.117,2.117,0,0,1,2.114,2.114V93.754a2.117,2.117,0,0,1-2.114,2.114h-6.31a2.123,2.123,0,0,1-2.064-1.658,1.447,1.447,0,1,0-2.827.616,5.033,5.033,0,0,0,4.891,3.935h6.31a5.013,5.013,0,0,0,5.008-5.008V85.442h20.517a8.765,8.765,0,0,0,8.755-8.755V8.755A8.765,8.765,0,0,0,128.041,0ZM81.957,5.147,82,5.106c.166-.163.339-.317.519-.464a6.759,6.759,0,0,0-.351,2.15v7.586A5.868,5.868,0,0,1,76.3,20.239H68.718a6.762,6.762,0,0,0-2.154.352q.238-.289.506-.558ZM77.995,45.808A21.367,21.367,0,1,1,99.362,67.175,21.391,21.391,0,0,1,77.995,45.808Zm21.367,24.26q1.216,0,2.4-.119V72.74h-4.8V69.949Q98.145,70.066,99.362,70.068ZM133.9,76.687a5.869,5.869,0,0,1-5.862,5.862H107.525v-4.8a5.014,5.014,0,0,0-2.867-4.526V69.484A24.351,24.351,0,0,0,120.98,56.809h6.99a1.447,1.447,0,1,0,0-2.893h-5.743a24.057,24.057,0,0,0,1.048-4.012h4.7a1.447,1.447,0,1,0,0-2.893h-4.378q.029-.6.03-1.2A24.394,24.394,0,0,0,123.458,43h4.512a1.447,1.447,0,1,0,0-2.893h-5.028a24.042,24.042,0,0,0-1.354-4.012h6.382a1.447,1.447,0,1,0,0-2.893h-7.891a24.411,24.411,0,0,0-3.067-4.014H127.97a1.447,1.447,0,1,0,0-2.893H113.752a24.208,24.208,0,0,0-28.781,0H80.34a1.447,1.447,0,1,0,0,2.893h1.371A24.41,24.41,0,0,0,78.644,33.2H70.754a1.447,1.447,0,1,0,0,2.893h6.382A24.042,24.042,0,0,0,75.781,40.1H70.754a1.447,1.447,0,0,0,0,2.893h4.512a24.388,24.388,0,0,0-.164,2.812q0,.6.03,1.2H70.754a1.447,1.447,0,1,0,0,2.893h4.7A24.057,24.057,0,0,0,76.5,53.916H70.754a1.447,1.447,0,1,0,0,2.893h6.989a24.333,24.333,0,0,0,2.577,4.014H70.754a1.447,1.447,0,0,0,0,2.893h12.26a24.221,24.221,0,0,0,11.052,5.767v3.738A5.014,5.014,0,0,0,91.2,77.748v4.8H70.68a5.869,5.869,0,0,1-5.862-5.862V27.058c0-.009,0-.019,0-.028a3.9,3.9,0,0,1,3.9-3.9H76.3a8.765,8.765,0,0,0,8.755-8.755V6.792a3.9,3.9,0,0,1,3.9-3.9h39.085A5.869,5.869,0,0,1,133.9,8.755V76.687Z" transform="translate(-61.925 0)"/>
            <path id="Trazado_778511" data-name="Trazado 778511" d="M182.467,181.519a17.587,17.587,0,0,0,16.969-22.163,1.447,1.447,0,1,0-2.793.754,14.7,14.7,0,1,1-2.26-4.742,1.447,1.447,0,0,0,2.348-1.691,17.574,17.574,0,1,0-14.264,27.841Z" transform="translate(-145.03 -118.136)"/>
            <path id="Trazado_778512" data-name="Trazado 778512" d="M218.185,180.963a4.746,4.746,0,0,0-6.458,1.8l-3.754,6.647-1.139-1.469a4.74,4.74,0,0,0-7.492,5.808l5.506,7.1a4.771,4.771,0,0,0,3.746,1.836q.171,0,.345-.013a4.729,4.729,0,0,0,3.783-2.4l7.259-12.854a4.74,4.74,0,0,0-1.8-6.458ZM217.462,186,210.2,198.851a1.847,1.847,0,0,1-3.067.223l-5.506-7.1a1.846,1.846,0,0,1,2.919-2.262l2.472,3.189a1.447,1.447,0,0,0,2.4-.175l4.824-8.541A1.846,1.846,0,1,1,217.462,186Z" transform="translate(-172.035 -145.562)"/>
          </g>
        </g>
        <g id="Grupo_1047152" data-name="Grupo 1047152" transform="translate(3845.046 -9834.232)">
          <path id="Trazado_778495" data-name="Trazado 778495" d="M136.1,125.769a1.238,1.238,0,0,0,1.6-.716l.466-1.224h3.258l.461,1.221a1.238,1.238,0,1,0,2.317-.874l-3.064-8.118-.013-.034a1.42,1.42,0,0,0-1.318-.883h0a1.42,1.42,0,0,0-1.317.885l-.011.028-3.092,8.118a1.238,1.238,0,0,0,.716,1.6Zm4.388-4.417H139.1l.693-1.821Z" transform="translate(-111.1 -94.278)"/>
          <path id="Trazado_778496" data-name="Trazado 778496" d="M314.744,125.85a1.238,1.238,0,0,0,1.238-1.238v-8.234a1.238,1.238,0,1,0-2.477,0v8.234A1.238,1.238,0,0,0,314.744,125.85Z" transform="translate(-259.885 -94.278)"/>
          <path id="Trazado_778497" data-name="Trazado 778497" d="M255.581,124.617a1.238,1.238,0,0,0,1.238,1.234h0c.07,0,1.735-.007,2.4-.018,2.592-.045,4.474-2.29,4.474-5.337,0-3.2-1.834-5.355-4.563-5.355H256.8a1.238,1.238,0,0,0-1.238,1.241s.006,3.167.006,4.106C255.57,121.631,255.581,124.617,255.581,124.617Zm3.553-7c1.936,0,2.087,2.2,2.087,2.879,0,1.406-.631,2.836-2.04,2.861-.263,0-.7.008-1.128.011,0-.956-.007-2.223-.007-2.881,0-.552,0-1.873,0-2.87Z" transform="translate(-211.509 -94.278)"/>
          <path id="Trazado_778498" data-name="Trazado 778498" d="M197.821,125.222a4,4,0,0,0,2.183.629h.006a4.209,4.209,0,0,0,1.912-.444,3.7,3.7,0,0,0,2.233-3.369v-5.66a1.238,1.238,0,0,0-2.477,0v5.66c0,.355-.1.771-.871,1.157a1.734,1.734,0,0,1-.8.179h0a1.541,1.541,0,0,1-.853-.239c-.6-.383-.72-.7-.72-1.09v-5.666a1.238,1.238,0,0,0-2.477,0v5.666A3.637,3.637,0,0,0,197.821,125.222Z" transform="translate(-161.744 -94.278)"/>
          <path id="Trazado_778499" data-name="Trazado 778499" d="M341.182,117.617h1.026v7a1.238,1.238,0,1,0,2.477,0v-7h1.045a1.238,1.238,0,1,0,0-2.477h-4.547a1.238,1.238,0,0,0,0,2.477Z" transform="translate(-281.958 -94.278)"/>
        </g>
      </g>
    </g>
  </g>
</svg>
