<svg xmlns="http://www.w3.org/2000/svg" xmlns:xlink="http://www.w3.org/1999/xlink" width="120" height="120" viewBox="0 0 120 120">
  <defs>
    <filter id="Elipse_8028" x="0" y="0" width="120" height="120" filterUnits="userSpaceOnUse">
      <feOffset dy="3" input="SourceAlpha"/>
      <feGaussianBlur stdDeviation="3" result="blur"/>
      <feFlood flood-opacity="0.161"/>
      <feComposite operator="in" in2="blur"/>
      <feComposite in="SourceGraphic"/>
    </filter>
    <clipPath id="clip-path">
      <path id="path7266" d="M0-682.665H91.27v91.27H0Z" transform="translate(0 682.665)"/>
    </clipPath>
  </defs>
  <g id="Grupo_1054394" data-name="Grupo 1054394" transform="translate(-1090.51 -1872.106)">
    <g transform="matrix(1, 0, 0, 1, 1090.51, 1872.11)" filter="url(#Elipse_8028)">
      <circle id="Elipse_8028-2" data-name="Elipse 8028" cx="51" cy="51" r="51" transform="translate(9 6)" fill="#ffc5ad"/>
    </g>
    <g id="g7260" transform="translate(1105.119 2566.137)">
      <g id="g7262" transform="translate(0 -682.665)">
        <g id="g7264" clip-path="url(#clip-path)">
          <g id="g7270" transform="translate(30.869 1.337)">
            <path id="path7272" d="M0,0V59.064A29.532,29.532,0,0,0,29.532,29.532,29.532,29.532,0,0,0,0,0" fill="#8ae7ff"/>
          </g>
          <g id="g7274" transform="translate(1.337 1.337)">
            <path id="path7276" d="M-348.061-191.355c0-16.31-10.828-29.532-24.184-29.532a29.532,29.532,0,0,0-29.532,29.532,29.428,29.428,0,0,0,8.023,20.234,14.305,14.305,0,0,1-8.023,8.26,14.218,14.218,0,0,0,5.348,1.038,14.21,14.21,0,0,0,9.689-3.8,29.4,29.4,0,0,0,14.5,3.8c13.357,0,24.184-13.222,24.184-29.532" transform="translate(401.778 220.887)" fill="#c4f3ff"/>
          </g>
          <g id="g7278" transform="translate(60.401 30.869)">
            <path id="path7280" d="M-139.369-322.466a29.429,29.429,0,0,0,8.023-20.234,29.532,29.532,0,0,0-29.532-29.532l.642,59.054a29.386,29.386,0,0,0,13.853-3.788,14.211,14.211,0,0,0,9.689,3.8,14.219,14.219,0,0,0,5.348-1.038,14.3,14.3,0,0,1-8.023-8.26" transform="translate(160.878 372.232)" fill="#c4f3ff"/>
          </g>
          <g id="g7282" transform="translate(30.869 30.869)">
            <path id="path7284" d="M-348.06-191.355c0-16.31-10.828-29.532-24.184-29.532a29.532,29.532,0,0,0-29.532,29.532,29.532,29.532,0,0,0,29.532,29.532c.215,0,.428-.006.642-.011,13.06-.416,23.542-13.474,23.542-29.522" transform="translate(401.776 220.887)" fill="#fff"/>
          </g>
          <g id="g7286" transform="translate(20.173 25.521)">
            <path id="path7288" d="M0,0H21.392" fill="none" stroke="#000" stroke-linecap="round" stroke-linejoin="round" stroke-miterlimit="10" stroke-width="3"/>
          </g>
          <g id="g7290" transform="translate(1.337 1.337)">
            <path id="path7292" d="M-379.582-156.744a29.54,29.54,0,0,0-29.049-24.19A29.532,29.532,0,0,0-438.163-151.4a29.428,29.428,0,0,0,8.023,20.234,14.306,14.306,0,0,1-8.023,8.26,14.219,14.219,0,0,0,5.348,1.038,14.209,14.209,0,0,0,9.689-3.8,29.314,29.314,0,0,0,9.154,3.312" transform="translate(438.163 180.934)" fill="none" stroke="#000" stroke-linecap="round" stroke-linejoin="round" stroke-miterlimit="10" stroke-width="3"/>
          </g>
          <g id="g7294" transform="translate(20.173 36.217)">
            <path id="path7296" d="M0,0H15.119" fill="none" stroke="#000" stroke-linecap="round" stroke-linejoin="round" stroke-miterlimit="10" stroke-width="3"/>
          </g>
          <g id="g7298" transform="translate(20.173 30.869)">
            <path id="path7300" d="M-138.608,0H-160" transform="translate(160)" fill="none" stroke="#000" stroke-linecap="round" stroke-linejoin="round" stroke-miterlimit="10" stroke-width="3"/>
          </g>
          <g id="g7302" transform="translate(49.705 60.401)">
            <path id="path7304" d="M-138.608,0H-160" transform="translate(160)" fill="none" stroke="#000" stroke-linecap="round" stroke-linejoin="round" stroke-miterlimit="10" stroke-width="3"/>
          </g>
          <g id="g7306" transform="translate(49.705 65.749)">
            <path id="path7308" d="M-138.608,0H-160" transform="translate(160)" fill="none" stroke="#000" stroke-linecap="round" stroke-linejoin="round" stroke-miterlimit="10" stroke-width="3"/>
          </g>
          <g id="g7310" transform="translate(49.705 55.053)">
            <path id="path7312" d="M-138.608,0H-160" transform="translate(160)" fill="none" stroke="#000" stroke-linecap="round" stroke-linejoin="round" stroke-miterlimit="10" stroke-width="3"/>
          </g>
          <g id="g7314" transform="translate(30.869 30.869)">
            <path id="path7316" d="M-191.355,0a29.532,29.532,0,0,1,29.532,29.532,29.429,29.429,0,0,1-8.023,20.234,14.306,14.306,0,0,0,8.023,8.26,14.218,14.218,0,0,1-5.348,1.038,14.21,14.21,0,0,1-9.689-3.8,29.394,29.394,0,0,1-14.5,3.8,29.532,29.532,0,0,1-29.532-29.532A29.532,29.532,0,0,1-191.355,0Z" transform="translate(220.887)" fill="none" stroke="#000" stroke-linecap="round" stroke-linejoin="round" stroke-miterlimit="10" stroke-width="3"/>
          </g>
        </g>
      </g>
    </g>
  </g>
</svg>
