<svg xmlns="http://www.w3.org/2000/svg" width="81.555" height="72.953" viewBox="0 0 81.555 72.953">
  <g id="charla" opacity="0.4">
    <g id="Grupo_1047190" data-name="Grupo 1047190" transform="translate(0 0)">
      <g id="Grupo_1047189" data-name="Grupo 1047189">
        <path id="Trazado_778632" data-name="Trazado 778632" d="M76.777,54.716H66.741V31.779A4.784,4.784,0,0,0,61.963,27H19.592a4.784,4.784,0,0,0-4.779,4.779V46.114H4.779A4.784,4.784,0,0,0,0,50.893V80.2a4.784,4.784,0,0,0,4.779,4.779H18.933l5.9,5.9a1.593,1.593,0,0,0,2.253,0l2.537-2.537V88.8a4.784,4.784,0,0,0,4.779,4.779H48.56l5.9,5.9a1.593,1.593,0,0,0,2.253,0l5.9-5.9H76.777A4.784,4.784,0,0,0,81.555,88.8V59.495A4.784,4.784,0,0,0,76.777,54.716ZM18,31.779a1.6,1.6,0,0,1,1.593-1.593h42.37a1.6,1.6,0,0,1,1.593,1.593V61.087a1.6,1.6,0,0,1-1.593,1.593H47.149a1.593,1.593,0,0,0-1.126.467l-5.245,5.245-5.245-5.245a1.593,1.593,0,0,0-1.126-.467H19.592A1.6,1.6,0,0,1,18,61.087Zm13.21,50.483-5.245,5.245-5.245-5.245a1.593,1.593,0,0,0-1.126-.467H4.779A1.6,1.6,0,0,1,3.186,80.2V50.893A1.6,1.6,0,0,1,4.779,49.3H14.814V61.087a4.784,4.784,0,0,0,4.779,4.779H33.746l5.9,5.9a1.593,1.593,0,0,0,2.253,0l5.9-5.9h.933V80.2a1.6,1.6,0,0,1-1.593,1.593H32.335A1.593,1.593,0,0,0,31.209,82.261ZM78.369,88.8A1.6,1.6,0,0,1,76.777,90.4H61.963a1.593,1.593,0,0,0-1.126.467l-5.245,5.245-5.245-5.245A1.593,1.593,0,0,0,49.22,90.4H34.406A1.6,1.6,0,0,1,32.813,88.8V85.162L33,84.981H47.149A4.784,4.784,0,0,0,51.928,80.2V65.866H61.963a4.784,4.784,0,0,0,4.779-4.779V57.9H76.777a1.6,1.6,0,0,1,1.593,1.593Z" transform="translate(0 -27)"/>
      </g>
    </g>
    <g id="Grupo_1047192" data-name="Grupo 1047192" transform="translate(24.395 8.92)">
      <g id="Grupo_1047191" data-name="Grupo 1047191">
        <path id="Trazado_778633" data-name="Trazado 778633" d="M184.345,83h-29.6a1.593,1.593,0,0,0,0,3.186h29.6a1.593,1.593,0,1,0,0-3.186Z" transform="translate(-153.148 -83)"/>
      </g>
    </g>
    <g id="Grupo_1047194" data-name="Grupo 1047194" transform="translate(53.999 17.84)">
      <g id="Grupo_1047193" data-name="Grupo 1047193">
        <path id="Trazado_778634" data-name="Trazado 778634" d="M341.719,139.467a1.592,1.592,0,1,0,.467,1.126A1.6,1.6,0,0,0,341.719,139.467Z" transform="translate(-339 -139)"/>
      </g>
    </g>
    <g id="Grupo_1047196" data-name="Grupo 1047196" transform="translate(24.395 17.84)">
      <g id="Grupo_1047195" data-name="Grupo 1047195">
        <path id="Trazado_778635" data-name="Trazado 778635" d="M176.435,139H154.741a1.593,1.593,0,0,0,0,3.186h21.694a1.593,1.593,0,0,0,0-3.186Z" transform="translate(-153.148 -139)"/>
      </g>
    </g>
    <g id="Grupo_1047198" data-name="Grupo 1047198" transform="translate(32.187 26.761)">
      <g id="Grupo_1047197" data-name="Grupo 1047197">
        <path id="Trazado_778636" data-name="Trazado 778636" d="M225.475,195H203.664a1.593,1.593,0,1,0,0,3.186h21.811a1.593,1.593,0,0,0,0-3.186Z" transform="translate(-202.071 -195)"/>
      </g>
    </g>
    <g id="Grupo_1047200" data-name="Grupo 1047200" transform="translate(24.371 26.761)">
      <g id="Grupo_1047199" data-name="Grupo 1047199">
        <path id="Trazado_778637" data-name="Trazado 778637" d="M154.726,195h-.133a1.593,1.593,0,1,0,0,3.186h.133a1.593,1.593,0,0,0,0-3.186Z" transform="translate(-153 -195)"/>
      </g>
    </g>
  </g>
</svg>
