<svg xmlns="http://www.w3.org/2000/svg" xmlns:xlink="http://www.w3.org/1999/xlink" width="336.828" height="201.839" viewBox="0 0 336.828 201.839">
  <defs>
    <clipPath id="clip-path">
      <rect id="Rectángulo_359708" data-name="Rectángulo 359708" width="336.828" height="199.087" fill="none"/>
    </clipPath>
  </defs>
  <g id="Grupo_1048983" data-name="Grupo 1048983" transform="translate(-1001.417 -4876.056)">
    <g id="Grupo_1048893" data-name="Grupo 1048893" transform="translate(1001.417 4876.06)">
      <path id="Trazado_782442" data-name="Trazado 782442" d="M72.964,604.941V522.853h64.5V468.7h184.8v14.262H390.04l1.116,121.978Z" transform="translate(-63.772 -409.66)" fill="#f1f2f5"/>
      <g id="Grupo_1048892" data-name="Grupo 1048892" transform="translate(0 -0.004)">
        <g id="Grupo_1048891" data-name="Grupo 1048891" transform="translate(0 0)" clip-path="url(#clip-path)">
          <path id="Trazado_782443" data-name="Trazado 782443" d="M783.233,281.469H656.7a7.863,7.863,0,0,1-7.863-7.863V106.469a7.863,7.863,0,0,1,7.863-7.863h126.53a7.863,7.863,0,0,1,7.863,7.863V273.606a7.863,7.863,0,0,1-7.863,7.863" transform="translate(-567.102 -86.184)" fill="#1d2238"/>
          <rect id="Rectángulo_359678" data-name="Rectángulo 359678" width="124.534" height="161.087" transform="translate(90.599 23.31)" fill="#fff"/>
          <path id="Trazado_782444" data-name="Trazado 782444" d="M1094.1,9.547a9.652,9.652,0,0,0-19.3,0h-8.944V24.841h37.191V9.547Zm-9.652,1.528a3.4,3.4,0,1,1,3.4-3.4,3.4,3.4,0,0,1-3.4,3.4" transform="translate(-931.579 0.004)" fill="#f0c36a"/>
          <rect id="Rectángulo_359679" data-name="Rectángulo 359679" width="84.294" height="5.149" transform="translate(125.752 40.133)" fill="#f1f2f5"/>
          <rect id="Rectángulo_359680" data-name="Rectángulo 359680" width="84.294" height="5.149" transform="translate(125.752 50.188)" fill="#f1f2f5"/>
          <rect id="Rectángulo_359681" data-name="Rectángulo 359681" width="41.08" height="5.149" transform="translate(125.752 60.242)" fill="#f1f2f5"/>
          <path id="Trazado_782445" data-name="Trazado 782445" d="M805.872,341.591H782.164V315.577h23.708Zm-22.952-.756h22.2v-24.5h-22.2Z" transform="translate(-683.631 -275.822)" fill="#9ea9bd"/>
          <path id="Trazado_782446" data-name="Trazado 782446" d="M827.8,308.793l5.556,7.728,15.317-14.407,2.72,3.513-18.831,17.992-8.119-11.771Z" transform="translate(-720.588 -264.055)" fill="#edb248"/>
          <rect id="Rectángulo_359682" data-name="Rectángulo 359682" width="84.294" height="5.149" transform="translate(125.752 73.307)" fill="#f1f2f5"/>
          <rect id="Rectángulo_359683" data-name="Rectángulo 359683" width="84.294" height="5.149" transform="translate(125.752 83.362)" fill="#f1f2f5"/>
          <rect id="Rectángulo_359684" data-name="Rectángulo 359684" width="41.08" height="5.149" transform="translate(125.752 93.416)" fill="#f1f2f5"/>
          <path id="Trazado_782447" data-name="Trazado 782447" d="M805.872,604.928H782.164V578.914h23.708Zm-22.952-.756h22.2v-24.5h-22.2Z" transform="translate(-683.631 -505.985)" fill="#9ea9bd"/>
          <path id="Trazado_782448" data-name="Trazado 782448" d="M827.8,572.13l5.556,7.728,15.317-14.407,2.72,3.513-18.831,17.992-8.119-11.771Z" transform="translate(-720.588 -494.218)" fill="#edb248"/>
          <rect id="Rectángulo_359685" data-name="Rectángulo 359685" width="84.294" height="5.149" transform="translate(125.752 106.481)" fill="#f1f2f5"/>
          <rect id="Rectángulo_359686" data-name="Rectángulo 359686" width="84.294" height="5.149" transform="translate(125.752 116.535)" fill="#f1f2f5"/>
          <rect id="Rectángulo_359687" data-name="Rectángulo 359687" width="41.08" height="5.149" transform="translate(125.752 126.59)" fill="#f1f2f5"/>
          <path id="Trazado_782449" data-name="Trazado 782449" d="M805.872,868.265H782.164V842.251h23.708Zm-22.952-.756h22.2v-24.5h-22.2Z" transform="translate(-683.631 -736.148)" fill="#9ea9bd"/>
          <path id="Trazado_782450" data-name="Trazado 782450" d="M827.8,835.467l5.556,7.728,15.317-14.407,2.72,3.513-18.831,17.992-8.119-11.771Z" transform="translate(-720.588 -724.381)" fill="#edb248"/>
          <rect id="Rectángulo_359688" data-name="Rectángulo 359688" width="84.294" height="5.149" transform="translate(125.752 139.655)" fill="#f1f2f5"/>
          <rect id="Rectángulo_359689" data-name="Rectángulo 359689" width="84.294" height="5.149" transform="translate(125.752 149.709)" fill="#f1f2f5"/>
          <rect id="Rectángulo_359690" data-name="Rectángulo 359690" width="41.08" height="5.149" transform="translate(125.752 159.764)" fill="#f1f2f5"/>
          <path id="Trazado_782451" data-name="Trazado 782451" d="M805.872,1131.6H782.164v-26.014h23.708Zm-22.952-.756h22.2v-24.5h-22.2Z" transform="translate(-683.631 -966.31)" fill="#9ea9bd"/>
          <path id="Trazado_782452" data-name="Trazado 782452" d="M827.8,1098.8l5.556,7.728,15.317-14.407,2.72,3.513-18.831,17.992-8.119-11.771Z" transform="translate(-720.588 -954.544)" fill="#edb248"/>
          <rect id="Rectángulo_359691" data-name="Rectángulo 359691" width="39.157" height="39.323" transform="translate(247.584 155.962)" fill="#9ea9bd"/>
          <rect id="Rectángulo_359692" data-name="Rectángulo 359692" width="4.72" height="6.226" transform="translate(264.803 155.962)" fill="#1d2238"/>
          <rect id="Rectángulo_359693" data-name="Rectángulo 359693" width="28.036" height="39.323" transform="translate(286.741 155.962)" fill="#d2d6e1"/>
          <rect id="Rectángulo_359694" data-name="Rectángulo 359694" width="3.589" height="6.226" transform="translate(298.965 155.962)" fill="#1d2238"/>
          <rect id="Rectángulo_359695" data-name="Rectángulo 359695" width="39.157" height="75.257" transform="translate(240.038 80.705)" fill="#edb248"/>
          <rect id="Rectángulo_359696" data-name="Rectángulo 359696" width="4.72" height="11.916" transform="translate(257.257 80.705)" fill="#1d2238"/>
          <rect id="Rectángulo_359697" data-name="Rectángulo 359697" width="28.036" height="75.257" transform="translate(279.195 80.705)" fill="#f0c36a"/>
          <rect id="Rectángulo_359698" data-name="Rectángulo 359698" width="3.589" height="11.916" transform="translate(291.419 80.705)" fill="#1d2238"/>
          <rect id="Rectángulo_359699" data-name="Rectángulo 359699" width="50.361" height="39.323" transform="translate(174.201 159.764)" fill="#f0c36a"/>
          <rect id="Rectángulo_359700" data-name="Rectángulo 359700" width="6.07" height="6.226" transform="translate(196.346 159.764)" fill="#1d2238"/>
          <rect id="Rectángulo_359701" data-name="Rectángulo 359701" width="33.324" height="39.323" transform="translate(224.561 159.764)" fill="#f6dba6"/>
          <rect id="Rectángulo_359702" data-name="Rectángulo 359702" width="6.07" height="6.226" transform="translate(239.168 155.962)" fill="#1d2238"/>
          <rect id="Rectángulo_359703" data-name="Rectángulo 359703" width="39.157" height="39.323" transform="translate(180.391 116.639)" fill="#d2d6e1"/>
          <rect id="Rectángulo_359704" data-name="Rectángulo 359704" width="4.72" height="6.226" transform="translate(197.61 116.639)" fill="#1d2238"/>
          <rect id="Rectángulo_359705" data-name="Rectángulo 359705" width="28.036" height="39.323" transform="translate(219.548 116.639)" fill="#f1f2f5"/>
          <rect id="Rectángulo_359706" data-name="Rectángulo 359706" width="3.589" height="6.226" transform="translate(231.772 116.639)" fill="#1d2238"/>
          <rect id="Rectángulo_359707" data-name="Rectángulo 359707" width="336.828" transform="translate(0 199.087)" fill="#1d2238"/>
          <path id="Trazado_782453" data-name="Trazado 782453" d="M440.88,555.335l-1.3.869-6.924-10.354a.781.781,0,1,1,1.3-.869Z" transform="translate(-378.038 -476.023)" fill="#1d2238"/>
          <path id="Trazado_782454" data-name="Trazado 782454" d="M444.4,618.063s.535-4.448,1.647-4.654a25.9,25.9,0,0,1,5.065,0,4.95,4.95,0,0,1,2.842,2.43l-7.042,6.836Z" transform="translate(-388.416 -536.025)" fill="#eb9481"/>
          <path id="Trazado_782455" data-name="Trazado 782455" d="M365.7,354.628a10.074,10.074,0,0,1,1.834,4.165,2.248,2.248,0,0,1-.971,2.446l-4.778-6.61Z" transform="translate(-316.209 -309.953)" fill="#1d2238"/>
          <path id="Trazado_782456" data-name="Trazado 782456" d="M272.6,345.356h0a7.777,7.777,0,0,0-7.754,7.186l-.063-.01-1.682,10.494a4.237,4.237,0,0,0,3.513,4.854c2.31.37,4.082,1.027,4.853-3.513l.119-.744a7.767,7.767,0,0,0,8.792-7.711v-2.778a7.778,7.778,0,0,0-7.778-7.778" transform="translate(-229.914 -301.849)" fill="#eb9481"/>
          <path id="Trazado_782457" data-name="Trazado 782457" d="M376.156,396.475a5.586,5.586,0,0,1,.147.611c.022.1.035.2.052.306s.033.2.042.305c.024.2.047.408.057.611l.021.306.007.306-.345-.345c.13,0,.26-.009.389-.006.067,0,.118,0,.23.01a1.079,1.079,0,0,1,.285.077.96.96,0,0,1,.571.928.947.947,0,0,1-.2.508.863.863,0,0,1-.431.285.781.781,0,0,1-.247.027,1.48,1.48,0,0,1-.211-.035c-.13-.029-.26-.062-.389-.1l-.005,0a.019.019,0,0,1,.005-.038l.389-.005c.065,0,.131,0,.192-.006a.741.741,0,0,0,.179-.048.631.631,0,0,0,0-1.163.7.7,0,0,0-.178-.044c-.06,0-.126,0-.191,0H376.1v-.037c.006-.815,0-1.63.018-2.445a.019.019,0,0,1,.038-.005Z" transform="translate(-328.72 -346.512)" fill="#1d2238"/>
          <path id="Trazado_782458" data-name="Trazado 782458" d="M386.122,393.321a.54.54,0,1,1-.54-.54.54.54,0,0,1,.54.54" transform="translate(-336.536 -343.3)" fill="#1d2238"/>
          <path id="Trazado_782459" data-name="Trazado 782459" d="M361.447,431.607s-.9-1.3-3.5-1.27Z" transform="translate(-312.851 -376.124)" fill="#fff"/>
          <path id="Trazado_782460" data-name="Trazado 782460" d="M378.489,378.432c-.049.2.37.475.934.612s1.062.084,1.111-.117-.37-.475-.934-.612-1.062-.084-1.111.117" transform="translate(-330.806 -330.589)" fill="#1d2238"/>
          <path id="Trazado_782461" data-name="Trazado 782461" d="M361.275,395.311a.54.54,0,1,1-.54-.54.54.54,0,0,1,.54.54" transform="translate(-314.82 -345.039)" fill="#1d2238"/>
          <path id="Trazado_782462" data-name="Trazado 782462" d="M353.669,380.879c.052.2.55.245,1.112.1s.977-.426.925-.626-.55-.245-1.112-.1-.977.425-.925.626" transform="translate(-309.112 -332.276)" fill="#1d2238"/>
          <path id="Trazado_782463" data-name="Trazado 782463" d="M360.3,431.863a6.274,6.274,0,0,1-1.14-.208c-.186-.044-.366-.107-.549-.161s-.358-.126-.538-.189-.353-.141-.527-.217-.348-.154-.517-.245a6.34,6.34,0,0,1-.991-.6l0,0a.016.016,0,0,1,.015-.027l2.136.8,2.125.826a.016.016,0,0,1-.007.03Z" transform="translate(-311.178 -376.015)" fill="#1d2238"/>
          <path id="Trazado_782464" data-name="Trazado 782464" d="M251.794,324.63s6.775-5.97,13.335-5.968c0,0,2.865-.126,3.923,2.3,0,0-1.262-9.909-12.214-8.238s-6.583,12.854-6.583,12.854Z" transform="translate(-217.977 -273.162)" fill="#f0c36a"/>
          <path id="Trazado_782465" data-name="Trazado 782465" d="M286.476,370.864s-1.334,1.62-4.122,4.565c-.689.728-1.884,1.736-1.884,1.736a5.092,5.092,0,0,0-.226-2.635,26.366,26.366,0,0,1,6.231-3.665" transform="translate(-244.941 -324.144)" fill="#1d2238"/>
          <path id="Trazado_782466" data-name="Trazado 782466" d="M351.308,360.023a3.694,3.694,0,0,0,3.044,1.66s-3.493,1.148-4.856-1.281Z" transform="translate(-305.468 -314.669)" fill="#1d2238"/>
          <path id="Trazado_782467" data-name="Trazado 782467" d="M258.325,405.655l-.516,3.043-1.585-4.574,2.659-1.723Z" transform="translate(-223.946 -351.708)" fill="#1d2238"/>
          <path id="Trazado_782468" data-name="Trazado 782468" d="M260.022,398.284a1.584,1.584,0,1,0,1.549-1.916,1.762,1.762,0,0,0-1.549,1.916" transform="translate(-227.266 -346.435)" fill="#eb9481"/>
          <path id="Trazado_782469" data-name="Trazado 782469" d="M267.714,403.556a1.166,1.166,0,0,0-.419-.24.572.572,0,0,0-.194-.029.519.519,0,0,0-.17.027.768.768,0,0,0-.444.474,1.069,1.069,0,0,0-.054.178c0,.031-.013.062-.016.094l0,.048,0,.034c0,.011,0,.008,0,.012s-.005-.007-.014-.022a.155.155,0,0,0-.1-.063c-.046,0,.026.021.09.012.139-.016.314-.054.491-.081a1.209,1.209,0,0,1,.562.023l.006,0a.019.019,0,0,1,.011.025.019.019,0,0,1-.017.012,1.518,1.518,0,0,0-.486.135c-.159.062-.316.134-.485.184a.521.521,0,0,1-.272.021.2.2,0,0,1-.118-.094.321.321,0,0,1-.036-.138,1.3,1.3,0,0,1,.084-.521,1.1,1.1,0,0,1,.3-.434.827.827,0,0,1,.484-.21.787.787,0,0,1,.507.137,1.028,1.028,0,0,1,.336.4.019.019,0,0,1-.029.023Z" transform="translate(-232.523 -352.231)" fill="#1d2238"/>
          <path id="Trazado_782470" data-name="Trazado 782470" d="M341.149,332.334s4.647-6.228,10.265-4.722-2.166,6.324-2.166,6.324-2.164-3.647-8.1-1.6" transform="translate(-298.173 -286.135)" fill="#f1f2f5"/>
          <path id="Trazado_782471" data-name="Trazado 782471" d="M285.092,314.363c.053.274-.532.617-1.307.767s-1.445.049-1.5-.224.532-.617,1.307-.767,1.445-.049,1.5.224" transform="translate(-246.723 -274.504)" fill="#1d2238"/>
          <path id="Trazado_782472" data-name="Trazado 782472" d="M306.809,471.429a16.438,16.438,0,0,1-3.464-2.728,5.573,5.573,0,0,0,3.344,3.473Z" transform="translate(-265.131 -409.656)" fill="#1d2238"/>
          <path id="Trazado_782473" data-name="Trazado 782473" d="M358.679,1474.127l11.772,5.133a4.736,4.736,0,0,1,2.843,4.431l-25.6-.055,1.362-9.529Z" transform="translate(-303.898 -1288.405)" fill="#4a4e60"/>
          <path id="Trazado_782474" data-name="Trazado 782474" d="M347.728,1534.493c2.108.122,4.217.188,6.325.234,1.054.028,2.108.036,3.163.054l3.163.022,3.163-.008c1.054-.014,2.109-.016,3.163-.04,2.109-.037,4.217-.094,6.326-.207-2.108-.123-4.217-.189-6.325-.235-1.054-.029-2.108-.036-3.163-.054l-3.163-.022-3.163.009c-1.054.013-2.109.017-3.163.04-2.109.037-4.217.094-6.326.207" transform="translate(-303.923 -1340.961)" fill="#1d2238"/>
          <path id="Trazado_782475" data-name="Trazado 782475" d="M372.183,1490.129a2.325,2.325,0,1,0,2.33-2.32,2.324,2.324,0,0,0-2.33,2.32" transform="translate(-325.297 -1300.382)" fill="#1d2238"/>
          <path id="Trazado_782476" data-name="Trazado 782476" d="M498.735,1506.9a1.564,1.564,0,0,0-.869-.082,2.052,2.052,0,0,0-.773.307,1.956,1.956,0,0,0-.594.611,1.358,1.358,0,0,0-.2.867l.049.028a3.069,3.069,0,0,1,.222-.3c.041-.047.076-.1.12-.142l.13-.133a3.8,3.8,0,0,1,.585-.458,5.06,5.06,0,0,1,.65-.367c.113-.053.228-.1.344-.147s.233-.092.351-.129Z" transform="translate(-433.768 -1316.976)" fill="#1d2238"/>
          <path id="Trazado_782477" data-name="Trazado 782477" d="M474.885,1496.725a1.564,1.564,0,0,0-.869-.082,2.054,2.054,0,0,0-.773.307,1.953,1.953,0,0,0-.594.611,1.359,1.359,0,0,0-.2.867l.049.028a3.059,3.059,0,0,1,.222-.3c.041-.047.076-.1.12-.142l.13-.133a3.779,3.779,0,0,1,.585-.458,5.023,5.023,0,0,1,.65-.367q.169-.079.344-.147c.115-.048.233-.092.351-.129Z" transform="translate(-412.923 -1308.08)" fill="#1d2238"/>
          <path id="Trazado_782478" data-name="Trazado 782478" d="M452.814,1487.488a1.564,1.564,0,0,0-.869-.082,2.052,2.052,0,0,0-.773.307,1.957,1.957,0,0,0-.594.611,1.359,1.359,0,0,0-.2.867l.049.028a3.063,3.063,0,0,1,.222-.3c.041-.047.076-.1.12-.142l.13-.133a3.8,3.8,0,0,1,.585-.458,5.04,5.04,0,0,1,.65-.367c.113-.053.228-.1.344-.147s.233-.092.351-.129Z" transform="translate(-393.632 -1300.007)" fill="#1d2238"/>
          <path id="Trazado_782479" data-name="Trazado 782479" d="M236.9,1474.127l11.772,5.133a4.736,4.736,0,0,1,2.843,4.431l-25.6-.055,1.362-9.529Z" transform="translate(-197.458 -1288.405)" fill="#9ea9bd"/>
          <path id="Trazado_782480" data-name="Trazado 782480" d="M225.947,1534.493c2.108.122,4.217.188,6.325.234,1.054.028,2.108.036,3.163.054l3.163.022,3.163-.008c1.054-.014,2.109-.016,3.163-.04,2.109-.037,4.217-.094,6.326-.207-2.108-.123-4.217-.189-6.325-.235-1.054-.029-2.108-.036-3.163-.054l-3.163-.022-3.163.009c-1.054.013-2.109.017-3.163.04-2.109.037-4.217.094-6.326.207" transform="translate(-197.483 -1340.961)" fill="#1d2238"/>
          <path id="Trazado_782481" data-name="Trazado 782481" d="M250.4,1490.129a2.325,2.325,0,1,0,2.33-2.32,2.324,2.324,0,0,0-2.33,2.32" transform="translate(-218.858 -1300.382)" fill="#1d2238"/>
          <path id="Trazado_782482" data-name="Trazado 782482" d="M376.954,1506.9a1.564,1.564,0,0,0-.869-.082,2.052,2.052,0,0,0-.773.307,1.956,1.956,0,0,0-.594.611,1.359,1.359,0,0,0-.2.867l.049.028a3.054,3.054,0,0,1,.222-.3c.041-.047.076-.1.12-.142l.13-.133a3.8,3.8,0,0,1,.585-.458,5.069,5.069,0,0,1,.65-.367c.113-.053.228-.1.344-.147s.233-.092.351-.129Z" transform="translate(-327.329 -1316.976)" fill="#1d2238"/>
          <path id="Trazado_782483" data-name="Trazado 782483" d="M353.1,1496.725a1.564,1.564,0,0,0-.869-.082,2.054,2.054,0,0,0-.773.307,1.953,1.953,0,0,0-.594.611,1.358,1.358,0,0,0-.2.867l.049.028a3.064,3.064,0,0,1,.222-.3c.041-.047.076-.1.12-.142l.13-.133a3.776,3.776,0,0,1,.585-.458,5.025,5.025,0,0,1,.65-.367q.169-.079.344-.147c.115-.048.233-.092.351-.129Z" transform="translate(-306.483 -1308.08)" fill="#1d2238"/>
          <path id="Trazado_782484" data-name="Trazado 782484" d="M331.033,1487.488a1.564,1.564,0,0,0-.869-.082,2.052,2.052,0,0,0-.773.307,1.957,1.957,0,0,0-.594.611,1.358,1.358,0,0,0-.2.867l.049.028a3.062,3.062,0,0,1,.222-.3c.041-.047.076-.1.12-.142l.13-.133a3.8,3.8,0,0,1,.585-.458,5.042,5.042,0,0,1,.65-.367c.113-.053.228-.1.344-.147s.233-.092.351-.129Z" transform="translate(-287.193 -1300.007)" fill="#1d2238"/>
          <path id="Trazado_782485" data-name="Trazado 782485" d="M203.746,924.534l-2.3-47.2a28.561,28.561,0,0,0-.47-3.95l-4.884-25.655-29.606-2.315s-2.908,11.826,3.05,23.21l3.067,56.289,15.8-.1,0-.177Z" transform="translate(-144.894 -738.908)" fill="#1d2238"/>
          <path id="Trazado_782486" data-name="Trazado 782486" d="M326.247,876.053l.2,2.355.188,2.356.375,4.713.689,9.43.172,2.358.157,2.359.311,4.717.62,9.435.035.59c.01.2,0,.394,0,.591l0,1.182-.008,2.364-.016,4.728-.016,4.727-.01,2.364-.024,2.364-.1,9.455-.081,4.727-.041,2.363-.054,2.363H328.6l-.01-18.9-.005-9.451,0-4.726v-3.544c0-.2.005-.394-.006-.59l-.037-.589L326.2,876.056Z" transform="translate(-285.111 -765.692)" fill="#4a4e60"/>
          <path id="Trazado_782487" data-name="Trazado 782487" d="M213.624,518.927l-4.058-6.315-9.371,2.537-2.452-16.8c-.024-.181-.046-.333-.066-.453-.614-3.7-7.15-10.123-7.15-10.123l-1.444,1.487-6.72-3.639a24.742,24.742,0,0,0-9.017,6.6c-3.431,4.355-2.582,38.724-2.582,38.724s6.937,5.621,11.956,6.545,18.188-2.685,18.188-2.685-.227-2.884-.564-7.047Z" transform="translate(-149.171 -424.447)" fill="#f0c36a"/>
          <path id="Trazado_782488" data-name="Trazado 782488" d="M258.846,489.263l-3.165,2.716a1.385,1.385,0,0,1-1.8.009c-1.461-1.238-4.054-3.784-3.239-5.669l1.482-.7Z" transform="translate(-218.934 -424.447)" fill="#fff"/>
          <path id="Trazado_782489" data-name="Trazado 782489" d="M316.823,504.2l1.563,1.686a.919.919,0,0,0,1.475-.176l.459-.82-2.053-2.176Z" transform="translate(-276.911 -439.382)" fill="#fff"/>
          <path id="Trazado_782490" data-name="Trazado 782490" d="M173.01,542.336l5.842,16.7,18.17-9.2,2.875,7.05-16.17,13.381a9.769,9.769,0,0,1-14.076-1.709c-2.737-3.695-6.2-8.758-6.556-11.13-.588-3.972-3.586-11.541,2.536-19.41Z" transform="translate(-141.455 -470.24)" fill="#f0c36a"/>
          <path id="Trazado_782491" data-name="Trazado 782491" d="M268.377,582.909q-1.476.821-2.963,1.618c-.99.535-1.985,1.06-2.98,1.586s-1.991,1.048-2.992,1.562-2,1.036-3,1.544l-.284.144-.065-.314c-.15-.721-.315-1.444-.485-2.163s-.341-1.44-.523-2.157c-.367-1.433-.748-2.863-1.176-4.279s-.885-2.822-1.419-4.2c-.27-.687-.555-1.37-.88-2.033a12.637,12.637,0,0,0-1.118-1.914,11.317,11.317,0,0,1,1.259,1.84c.362.651.694,1.32.992,2,.6,1.363,1.11,2.764,1.575,4.178s.874,2.845,1.244,4.285.714,2.885,1.011,4.347l-.35-.17c1-.507,2.014-1,3.022-1.5s2.021-.989,3.031-1.484,2.026-.979,3.043-1.46,2.036-.96,3.06-1.428" transform="translate(-218.934 -500.206)" fill="#1d2238"/>
          <path id="Trazado_782492" data-name="Trazado 782492" d="M171.777,692.095l.605,1.1.6,1.1q.6,1.1,1.21,2.191c.4.729.81,1.457,1.225,2.18l.624,1.083q.314.544.619,1.091a22.2,22.2,0,0,0,2.719,4.127,8.4,8.4,0,0,0,.88.836c.153.133.319.244.482.362s.338.218.517.31a7.174,7.174,0,0,0,2.283.767,10.535,10.535,0,0,0,4.828-.41,12.431,12.431,0,0,0,2.261-.952q.538-.3,1.045-.644c.336-.232.652-.489.979-.754q1.945-1.576,3.9-3.135l1.965-1.552.983-.776.988-.768-.94.827-.946.82-1.892,1.64q-1.9,1.63-3.81,3.248c-.315.268-.641.546-.986.8a12.465,12.465,0,0,1-1.075.685,12.884,12.884,0,0,1-2.331,1.021,12.048,12.048,0,0,1-2.5.522,9.928,9.928,0,0,1-2.56-.07,7.666,7.666,0,0,1-2.436-.832c-.192-.1-.372-.22-.555-.336s-.354-.25-.516-.391a8.142,8.142,0,0,1-.926-.893,14.375,14.375,0,0,1-1.487-2.061c-.439-.719-.833-1.46-1.223-2.2q-.292-.554-.591-1.1c-.2-.366-.4-.733-.6-1.1q-.587-1.107-1.155-2.224t-1.11-2.245l-.548-1.126Z" transform="translate(-150.137 -604.908)" fill="#1d2238"/>
          <path id="Trazado_782493" data-name="Trazado 782493" d="M278.438,706.514c-.045-.151-.08-.3-.114-.459a3.254,3.254,0,0,1-.079-.469,5.681,5.681,0,0,1-.025-.952,6.15,6.15,0,0,1,.391-1.873,6.06,6.06,0,0,1,.94-1.669,4.5,4.5,0,0,1,1.439-1.235,16.4,16.4,0,0,0-.943,1.562,12.975,12.975,0,0,0-.729,1.608,13.17,13.17,0,0,0-.512,1.69c-.083.288-.123.584-.192.882s-.1.6-.177.914" transform="translate(-243.161 -611.692)" fill="#1d2238"/>
          <path id="Trazado_782494" data-name="Trazado 782494" d="M423.154,584.247l-7.5-3.134a.7.7,0,0,1-.2-1.152L434.8,562.04a.7.7,0,0,1,1.094.2l4.095,8.125a.74.74,0,0,1-.192.905l-15.676,12.839a.946.946,0,0,1-.964.141" transform="translate(-362.918 -491.074)" fill="#4a4e60"/>
          <path id="Trazado_782495" data-name="Trazado 782495" d="M399.208,738.165c-.123-.77-.222-1.542-.311-2.315q-.07-.579-.127-1.16c-.041-.387-.08-.773-.113-1.16-.074-.774-.133-1.549-.192-2.324-.032-.387-.052-.775-.078-1.163s-.052-.775-.07-1.164l-.007-.152.124-.067c.381-.207.759-.418,1.141-.622s.764-.409,1.15-.606.771-.4,1.16-.589.779-.383,1.174-.564q-.535.373-1.08.728c-.362.239-.728.471-1.095.7s-.737.457-1.1.686-.742.447-1.113.671l.117-.219c.037.387.064.775.095,1.162s.064.774.086,1.163c.051.775.1,1.551.137,2.327.022.388.037.776.051,1.165s.029.777.038,1.166c.021.778.031,1.556.018,2.336" transform="translate(-348.133 -634.785)" fill="#1d2238"/>
          <path id="Trazado_782496" data-name="Trazado 782496" d="M505.086,662.572c-.029-.193-.083-.386-.13-.573-.1-.388-.189-.778-.284-1.166l-.395-1.622a1.026,1.026,0,0,0-1.993.485l.038.155a1.025,1.025,0,0,0-1.66,1.023q.062.256.125.512a.312.312,0,0,0-.118-.128.811.811,0,0,0-1.1.189,1.133,1.133,0,0,0-.072.7c.08,1.089.238,2.179.357,3.265l-2,1.855.456.712c.412-.143.793-.223,1.205-.366.548-.189,1.109-.342,1.64-.578a4.718,4.718,0,0,0,1.137-.755,16.791,16.791,0,0,0,1.852-1.9c.264-.309.523-.623.769-.947a1.083,1.083,0,0,0,.171-.861" transform="translate(-435.14 -575.482)" fill="#eb9481"/>
          <path id="Trazado_782497" data-name="Trazado 782497" d="M511.342,713.9a2.071,2.071,0,0,0,.2,1.492s-.741-.172-.482-1.228Z" transform="translate(-446.629 -623.963)" fill="#1d2238"/>
          <path id="Trazado_782498" data-name="Trazado 782498" d="M533.3,669.725a1.815,1.815,0,0,1,.613.889c.111.345.2.694.287,1.043s.168.7.241,1.053l.108.529c.031.178.067.354.094.533-.055-.172-.1-.346-.154-.518l-.142-.521c-.1-.347-.182-.7-.269-1.045l-.257-1.046a1.793,1.793,0,0,0-.2-.488,2.161,2.161,0,0,0-.321-.428" transform="translate(-466.118 -585.356)" fill="#1d2238"/>
          <path id="Trazado_782499" data-name="Trazado 782499" d="M521.112,681.926a1.35,1.35,0,0,1,.6.744c.092.31.157.622.224.935s.125.627.176.943l.075.474c.02.159.044.317.06.476-.044-.154-.08-.31-.121-.464l-.109-.467c-.073-.311-.138-.624-.2-.936s-.127-.627-.194-.935a1.084,1.084,0,0,0-.192-.418,1.9,1.9,0,0,0-.319-.351" transform="translate(-455.465 -596.02)" fill="#1d2238"/>
          <path id="Trazado_782500" data-name="Trazado 782500" d="M425.866,586.871c.743-.727,1.5-1.441,2.252-2.158s1.511-1.428,2.269-2.14l2.285-2.122,2.3-2.107q2.308-2.1,4.628-4.179l1.161-1.04,1.167-1.034q1.166-1.035,2.34-2.061l.189-.164.11.218.887,1.76.878,1.765.866,1.771q.436.884.857,1.776-.492-.855-.972-1.716l-.963-1.72-.951-1.727-.943-1.731.3.054q-1.141,1.063-2.293,2.114l-1.149,1.054-1.155,1.047c-1.537,1.4-3.087,2.784-4.637,4.17l-2.334,2.067-2.347,2.053c-.786.68-1.57,1.363-2.363,2.035s-1.58,1.352-2.38,2.016" transform="translate(-372.218 -498.076)" fill="#1d2238"/>
        </g>
      </g>
    </g>
    <g id="Grupo_1048894" data-name="Grupo 1048894" transform="translate(1153.646 4843.825)">
      <g id="Grupo_1048598" data-name="Grupo 1048598" transform="translate(90.811 38.37)">
        <g id="Grupo_1048593" data-name="Grupo 1048593">
          <path id="Trazado_782081" data-name="Trazado 782081" d="M1250.429,143.781l5.182,24.408a1.36,1.36,0,0,1-1.932,1.5l-18.1-8.908a1.362,1.362,0,0,1-.444-2.094l12.92-15.5a1.361,1.361,0,0,1,2.376.587Z" transform="translate(-1205.418 -83.668)" fill="#407bff"/>
          <path id="Trazado_782082" data-name="Trazado 782082" d="M1250.429,143.781l5.182,24.408a1.36,1.36,0,0,1-1.932,1.5l-18.1-8.908a1.362,1.362,0,0,1-.444-2.094l12.92-15.5a1.361,1.361,0,0,1,2.376.587Z" transform="translate(-1205.418 -83.668)" opacity="0.3"/>
          <path id="Trazado_782083" data-name="Trazado 782083" d="M1217.365,95.409l-2.011-13.947a26.319,26.319,0,1,0-29.206-19.489L1172.5,65.5a40.409,40.409,0,1,1,44.864,29.9Z" transform="translate(-1171.221 -15.003)" fill="#407bff"/>
          <g id="Grupo_1048592" data-name="Grupo 1048592" opacity="0.3">
            <path id="Trazado_782084" data-name="Trazado 782084" d="M1217.365,95.409l-2.011-13.947a26.319,26.319,0,1,0-29.206-19.489L1172.5,65.5a40.409,40.409,0,1,1,44.864,29.9Z" transform="translate(-1171.221 -15.003)"/>
          </g>
        </g>
        <g id="Grupo_1048597" data-name="Grupo 1048597" transform="translate(18.353 14.314)">
          <g id="Grupo_1048596" data-name="Grupo 1048596" transform="translate(0 0)">
            <g id="Grupo_1048594" data-name="Grupo 1048594">
              <circle id="Elipse_8063" data-name="Elipse 8063" cx="16.332" cy="16.332" r="16.332" transform="translate(3.672 12.544) rotate(-15.67)" fill="#407bff"/>
              <circle id="Elipse_8064" data-name="Elipse 8064" cx="16.332" cy="16.332" r="16.332" transform="translate(3.672 12.544) rotate(-15.67)" opacity="0.3"/>
              <circle id="Elipse_8065" data-name="Elipse 8065" cx="16.332" cy="16.332" r="16.332" transform="translate(0 20.338) rotate(-38.51)" fill="#407bff"/>
              <circle id="Elipse_8066" data-name="Elipse 8066" cx="13.568" cy="13.568" r="13.568" transform="translate(4.374 27.638) rotate(-59.09)" fill="#fff"/>
              <path id="Trazado_782085" data-name="Trazado 782085" d="M1240.533,91.828l1.8-2.672c.051.037.106.069.162.106l-1.738,2.714c-.074-.046-.152-.1-.227-.148Zm-3.6-3.892c-.046-.079-.088-.157-.13-.236l2.843-1.516c.028.055.06.111.092.166l-2.8,1.59Zm8.815,5.82.356-3.2.2.018-.3,3.208-.259-.028Zm-10.327-11.173c0-.088,0-.18,0-.268l3.222-.032v.194Zm15.837,10.447-1.174-3,.18-.074,1.285,2.954-.079.032c-.051.023-.134.055-.217.088Zm-14.686-15.888c.037-.083.079-.162.12-.24l2.871,1.465c-.028.055-.055.116-.083.171l-2.9-1.4ZM1253.4,87.691c.042-.046.079-.092.115-.139l2.487,2.048c-.06.069-.12.143-.18.213l-2.427-2.122ZM1242.04,75.445l-1.914-2.593.208-.153,1.868,2.626Zm13.184,8.668.042-.19,3.153.675c-.018.088-.037.171-.06.259l-3.134-.74Zm-9.472-10.221-.5-3.185c.083-.014.171-.028.259-.037l.439,3.19-.2.028Zm9.426,6.2c-.014-.06-.032-.12-.051-.18l3.1-.883c.023.088.051.176.069.263l-3.12.8Zm-5.422-5.848,1.04-3.051c.088.028.176.06.259.092l-1.128,3.019c-.055-.023-.116-.042-.176-.06Zm3.513,2.311-.13-.143,2.339-2.219c.06.065.12.129.18.2Z" transform="translate(-1224.096 -59.25)"/>
            </g>
            <g id="Grupo_1048595" data-name="Grupo 1048595" transform="translate(19.534 17.905)">
              <path id="Trazado_782086" data-name="Trazado 782086" d="M1253.18,84.7l3.236,5.57,5.242-5.1" transform="translate(-1253.18 -84.7)" fill="none" stroke="#000" stroke-linecap="round" stroke-linejoin="round" stroke-width="1"/>
              <path id="Trazado_782087" data-name="Trazado 782087" d="M1260.167,95.345a1.012,1.012,0,1,1-.092-1.428A1.011,1.011,0,0,1,1260.167,95.345Z" transform="translate(-1255.984 -89.52)"/>
            </g>
          </g>
          <path id="Trazado_782088" data-name="Trazado 782088" d="M1235.758,70.983a13.569,13.569,0,0,1,22.064,4.734,13.565,13.565,0,1,0-25.6,8.9,13.568,13.568,0,0,1,3.536-13.642Z" transform="translate(-1221.864 -56.767)" opacity="0.3"/>
        </g>
      </g>
      <g id="Grupo_1048620" data-name="Grupo 1048620" transform="translate(68.302 115.071)">
        <g id="Grupo_1048607" data-name="Grupo 1048607" transform="translate(23.159)">
          <g id="Grupo_1048606" data-name="Grupo 1048606">
            <path id="Trazado_782098" data-name="Trazado 782098" d="M1047.112,148.474a15.447,15.447,0,0,1,2.863,7.684c.341,3.409.328,6.434-.393,7.347-.947,1.195-11.716,2.778-17.792,2.812-.222,0-.491-1.916-.491-1.916s-.772,1.92-1.058,1.92c-1.656,0-2.722-.009-2.722-.009s1.242-2.888,2.449-13.145c.589-5.013,5.5-7.228,8.431-7.74,4.885-.849,8.712,3.051,8.712,3.051Z" transform="translate(-1025.446 -145.154)" fill="#263238"/>
            <path id="Trazado_782099" data-name="Trazado 782099" d="M1038.464,158.543c-1.715-2.671-3.631-9.992,2.876-12.582,8.119-3.23,12.062,1.86,13.013,7.044s-1.8,9.263-7.279,9.118-7.424-1.736-8.61-3.584Z" transform="translate(-1030.772 -144.95)" fill="#263238"/>
            <g id="Grupo_1048605" data-name="Grupo 1048605" transform="translate(6.748 1.491)">
              <g id="Grupo_1048604" data-name="Grupo 1048604">
                <path id="Trazado_782100" data-name="Trazado 782100" d="M1059.8,186.439s-1.826,1.4-4.181,3.43a8.7,8.7,0,0,1-1.6,1.092c-1.54.819-2.948,1.288-3.328.542a2.421,2.421,0,0,1-.2-.525c-.324-1.246-.192-3,.815-3.793,1.135-.9,1.681-1.677,1.476-2.9a9.116,9.116,0,0,0-.653-2.1l.892-1.045,4.668-4.71c-.115,3.144-.354,8.3,2.1,10.009Z" transform="translate(-1045.279 -164.49)" fill="#ebb373"/>
                <path id="Trazado_782101" data-name="Trazado 782101" d="M1055.568,188.468c1.284-.764,2.692-2.082,2.522-3.592a7.366,7.366,0,0,0-.363-1.626l-2.607,3.452a8.846,8.846,0,0,1,.448,1.766Z" transform="translate(-1048.019 -168.4)" opacity="0.2"/>
                <path id="Trazado_782102" data-name="Trazado 782102" d="M1052.22,155.329c-.439,4.8-.525,6.831-3,9.344-3.725,3.784-9.45,2.509-10.436-2.244-.888-4.279-.021-11.4,4.689-13.418A6.17,6.17,0,0,1,1052.22,155.329Z" transform="translate(-1038.476 -148.445)" fill="#ebb373"/>
                <path id="Trazado_782103" data-name="Trazado 782103" d="M1054.936,167.5c-.026.482-.324.879-.661.887s-.593-.38-.567-.862.324-.879.661-.887S1054.962,167.02,1054.936,167.5Z" transform="translate(-1047.208 -158.877)" fill="#263238"/>
                <path id="Trazado_782104" data-name="Trazado 782104" d="M1043.285,167.343c-.026.461-.32.84-.653.849s-.58-.363-.555-.823.32-.84.653-.849S1043.311,166.882,1043.285,167.343Z" transform="translate(-1040.54 -158.808)" fill="#263238"/>
                <path id="Trazado_782105" data-name="Trazado 782105" d="M1055.151,163.32a.245.245,0,0,1-.188-.038,1.988,1.988,0,0,0-1.745-.277.233.233,0,0,1-.311-.132.259.259,0,0,1,.166-.311,2.478,2.478,0,0,1,2.21.329.225.225,0,0,1,.03.333A.3.3,0,0,1,1055.151,163.32Z" transform="translate(-1046.744 -156.466)" fill="#263238"/>
                <path id="Trazado_782106" data-name="Trazado 782106" d="M1040.759,162.229a.234.234,0,0,1-.115-.124.23.23,0,0,1,.158-.29,2.488,2.488,0,0,1,2.185.213.213.213,0,0,1,.034.316.262.262,0,0,1-.341.047,1.972,1.972,0,0,0-1.732-.149.257.257,0,0,1-.187-.009Z" transform="translate(-1039.712 -156.024)" fill="#263238"/>
                <path id="Trazado_782107" data-name="Trazado 782107" d="M1060.327,153.091c-1.527,1.6-.768,7.654,3.516,8.448C1068.779,160.378,1064.879,148.308,1060.327,153.091Z" transform="translate(-1050.589 -150.469)" fill="#263238"/>
                <path id="Trazado_782108" data-name="Trazado 782108" d="M1047.87,177a13.435,13.435,0,0,1,.862,1.766c.115-.026.226-.047.337-.077,1.527-.358,2.116-1.028,2.308-1.664a2.037,2.037,0,0,0,.03-.956,1.946,1.946,0,0,0-.166-.521,7.376,7.376,0,0,1-2.85,1.323C1048.075,176.962,1047.87,177,1047.87,177Z" transform="translate(-1043.862 -163.985)" fill="#263238"/>
                <path id="Trazado_782109" data-name="Trazado 782109" d="M1049.09,176.873l.269.512a4.673,4.673,0,0,0,2.752-1.314,1.946,1.946,0,0,0-.166-.521,7.375,7.375,0,0,1-2.85,1.323Z" transform="translate(-1044.561 -163.985)" fill="#fff"/>
                <path id="Trazado_782110" data-name="Trazado 782110" d="M1050.68,180.674c1.527-.358,2.116-1.028,2.308-1.664a5.021,5.021,0,0,0-1.617.734A1.889,1.889,0,0,0,1050.68,180.674Z" transform="translate(-1045.473 -165.969)" fill="#dc5753"/>
                <path id="Trazado_782111" data-name="Trazado 782111" d="M1045.578,167.66a14.6,14.6,0,0,1-1.848,3.221,1.974,1.974,0,0,0,1.707.282l.136-3.5Z" transform="translate(-1041.488 -159.462)" fill="#e4873e"/>
              </g>
              <path id="Trazado_782112" data-name="Trazado 782112" d="M1053.03,166.1l1.1.26C1053.632,166.919,1053.03,166.1,1053.03,166.1Z" transform="translate(-1046.821 -158.567)" fill="#263238"/>
              <path id="Trazado_782113" data-name="Trazado 782113" d="M1041.49,165.99l1.1.26C1042.092,166.809,1041.49,165.99,1041.49,165.99Z" transform="translate(-1040.204 -158.504)" fill="#263238"/>
            </g>
            <path id="Trazado_782114" data-name="Trazado 782114" d="M1044.571,147.32c-1.894.644-3.9,3.921-4.241,5.18,2.692.439,9.954-2.082,9.954-2.082s4.842,1.34,2.389-1.118S1044.571,147.32,1044.571,147.32Z" transform="translate(-1032.791 -146.287)" fill="#263238"/>
            <path id="Trazado_782115" data-name="Trazado 782115" d="M1068.775,169.878a3.869,3.869,0,0,1-2.33,1.813c-1.271.32-1.924-1.724-1.493-3a2.549,2.549,0,0,1,2.871-1.651A1.838,1.838,0,0,1,1068.775,169.878Z" transform="translate(-1046.832 -157.59)" fill="#ebb373"/>
            <path id="Trazado_782116" data-name="Trazado 782116" d="M1027.874,161.56a30.035,30.035,0,0,1-1.254,6.246c-.712,2.005-2.189,6.144-3.959,7.326" transform="translate(-1022.66 -154.473)" fill="none" stroke="#263238" stroke-miterlimit="10" stroke-width="0.5"/>
          </g>
          <circle id="Elipse_8067" data-name="Elipse 8067" cx="0.896" cy="0.896" r="0.896" transform="translate(19.225 13.077)" fill="#407bff"/>
          <path id="Trazado_782117" data-name="Trazado 782117" d="M1069.252,170.469a1.476,1.476,0,0,0-1.254.226,1.491,1.491,0,0,0-.6,1.126" transform="translate(-1048.311 -159.55)" fill="none" stroke="#000" stroke-linecap="round" stroke-linejoin="round" stroke-width="0.5" opacity="0.1"/>
        </g>
        <g id="Grupo_1048608" data-name="Grupo 1048608" transform="translate(6.669 47.99)">
          <path id="Trazado_782118" data-name="Trazado 782118" d="M984.041,263.762a16.928,16.928,0,0,1,2.85-3.7,37.631,37.631,0,0,1,4.122-2.632L993.726,260a3.028,3.028,0,0,1-1.344,2.014c-.627.311-1.28.563-1.28.563a5.239,5.239,0,0,1-.141,1.182c-.166.67-.512,1.459-1.054,1.3s-.3-1.988-.26-2.248c-.038.265-.346,2.116-1.1,1.992-.725-.119-.363-2.039-.363-2.039s-.26.87-.4,1.318-.687.721-.977.115a3.17,3.17,0,0,1-.124-1.715,15.489,15.489,0,0,0-1.429,1.621c-.644.815-1.417.226-1.212-.333Z" transform="translate(-984.011 -257.43)" fill="#ebb373"/>
          <path id="Trazado_782119" data-name="Trazado 782119" d="M997.07,268.342a5.483,5.483,0,0,1,.273-1.015,1.89,1.89,0,0,1,.619-.836" transform="translate(-991.498 -262.624)" fill="none" stroke="#000" stroke-linecap="round" stroke-linejoin="round" stroke-width="0.5" opacity="0.1"/>
          <path id="Trazado_782120" data-name="Trazado 782120" d="M993.56,268.052a5.488,5.488,0,0,1,.273-1.015,1.89,1.89,0,0,1,.619-.836" transform="translate(-989.486 -262.458)" fill="none" stroke="#000" stroke-linecap="round" stroke-linejoin="round" stroke-width="0.5" opacity="0.1"/>
          <path id="Trazado_782121" data-name="Trazado 782121" d="M990.27,266.9a5.478,5.478,0,0,1,.273-1.015,1.891,1.891,0,0,1,.619-.836" transform="translate(-987.6 -261.799)" fill="none" stroke="#000" stroke-linecap="round" stroke-linejoin="round" stroke-width="0.5" opacity="0.1"/>
        </g>
        <g id="Grupo_1048609" data-name="Grupo 1048609" transform="translate(12.399 24.123)">
          <path id="Trazado_782122" data-name="Trazado 782122" d="M1012.957,216.56c0,.3-.853,11.187-.853,11.187-.606,1.135-13.068,5.461-14.664,7.044l2.906,2.991s14.831-2.991,17.224-4.732c2.044-1.485,1.873-4.092,1.873-7.65a43.884,43.884,0,0,1,1.242-8.529l-7.727-.311Z" transform="translate(-997.44 -210.13)" fill="#ebb373"/>
          <path id="Trazado_782123" data-name="Trazado 782123" d="M1032.374,201.49c-5.879,1.007-6.686,9.711-6.686,9.711l-.892,6.912-3.336,2.432,3.119,6.66a88.5,88.5,0,0,0,9.587-4.267c2.927-1.732,3-15.01,3-15.01l-4.791-6.438Z" transform="translate(-1011.212 -201.49)" fill="#407bff"/>
          <path id="Trazado_782124" data-name="Trazado 782124" d="M1038.929,235.694a27.262,27.262,0,0,1-2.462,1.485c-.03.017-.93-3.8-.96-3.78a31.661,31.661,0,0,1-.461-11.5c1.075,2.231,3.609,11.925,3.883,13.8Z" transform="translate(-1018.821 -213.192)" opacity="0.2"/>
        </g>
        <g id="Grupo_1048610" data-name="Grupo 1048610" transform="translate(17.536 53.434)">
          <path id="Trazado_782125" data-name="Trazado 782125" d="M1047.6,271.257c4.9-.491,11.276-.879,19.571-1.067,0,0,6.187,14.57-1.148,18.922-2.214,1.314-5.875,1.835-9.9,1.92a8.328,8.328,0,0,1-8.52-8.316V271.261Z" transform="translate(-1031.336 -270.19)" fill="#263238"/>
          <path id="Trazado_782126" data-name="Trazado 782126" d="M1041.765,284.281v6.844c-6.1,1.758-18.76,1.088-26.29.474a6.526,6.526,0,0,1-5.995-6.506v-5.615a4.465,4.465,0,0,1,2.893-4.181,49.053,49.053,0,0,1,17.237-3.311A12.312,12.312,0,0,1,1041.765,284.281Z" transform="translate(-1009.48 -271.217)" fill="#263238"/>
        </g>
        <g id="Grupo_1048611" data-name="Grupo 1048611" transform="translate(28.628 21.943)">
          <path id="Trazado_782127" data-name="Trazado 782127" d="M1061.326,227.866c-.947-1.25-3.144-4.241-3.422-7.39v-.026c-.017-.2-.026-.405-.026-.606-.051-1.34-.043-2.923.047-4.825.013-.3.03-.61.047-.926.055-1,.132-2.074.226-3.243.179-2.1.435-4.493.776-7.21.077-.631.67-1.608.76-2.27.4-2.965-2.3-5.107-5.222-4.988-.776.03-1.6.081-2.44.166a61.641,61.641,0,0,0-8.806,1.267c-.943.222-1.92.486-2.85.755-3.349.964-4.894,5.252-4.936,8.7-.043,3.217,2.214,9.783,3.759,15.552.226,3.307-1.579,5.111-1.037,6.263s16.537-1.98,23.125,1.95c0,0,1.011-1.822,0-3.157Z" transform="translate(-1035.479 -196.379)" fill="#407bff"/>
          <path id="Trazado_782128" data-name="Trazado 782128" d="M1061.326,227.866c-.947-1.25-3.144-4.241-3.422-7.39v-.026c-.017-.2-.026-.405-.026-.606-.051-1.34-.043-2.923.047-4.825.013-.3.03-.61.047-.926.055-1,.132-2.074.226-3.243.179-2.1.435-4.493.776-7.21.077-.631.67-1.608.76-2.27.4-2.965-2.3-5.107-5.222-4.988-.776.03-1.6.081-2.44.166a61.641,61.641,0,0,0-8.806,1.267c-.943.222-1.92.486-2.85.755-3.349.964-4.894,5.252-4.936,8.7-.043,3.217,2.214,9.783,3.759,15.552.226,3.307-1.579,5.111-1.037,6.263s16.537-1.98,23.125,1.95c0,0,1.011-1.822,0-3.157Z" transform="translate(-1035.479 -196.379)" fill="#fff" opacity="0.3"/>
          <path id="Trazado_782129" data-name="Trazado 782129" d="M1064.14,256.027a71.173,71.173,0,0,1-8.269,1.357c-2.628.119-8.307,1.911-8.307,1.911l-2.022,1.254-.713-1.668,3.4-3.076,14.933-3.025a17.606,17.606,0,0,0,.973,3.251Z" transform="translate(-1040.84 -228.716)" opacity="0.2"/>
          <path id="Trazado_782130" data-name="Trazado 782130" d="M1069.682,216.82l-.713,9.651-3.2,3.132,2.24,1.745,3.042-1.839,1.574-5.427Z" transform="translate(-1052.846 -208.099)" opacity="0.2"/>
        </g>
        <g id="Grupo_1048614" data-name="Grupo 1048614" transform="translate(9.889 57.727)">
          <g id="Grupo_1048612" data-name="Grupo 1048612" transform="translate(10.973 48.976)">
            <path id="Trazado_782131" data-name="Trazado 782131" d="M1017.747,407.986l7.488-3.3,2.368-2.645.734.994.9-.388a5.729,5.729,0,0,0-2.044-5.585c-.06-.055-.149-.115-.247-.2a.746.746,0,0,0-.1-.073.2.2,0,0,0-.038-.026c-.034-.026-.073-.056-.115-.085a.048.048,0,0,0-.026-.013v-.009a.538.538,0,0,0-.068-.038l-4.113,1.818s-.068.213-.2.563a21,21,0,0,1-2.551,5.2c-.047.06-.094.119-.141.175a3.221,3.221,0,0,1-.418.418c-3.149,2.53-1.425,3.2-1.425,3.2Z" transform="translate(-1017.276 -395.946)" fill="#263238"/>
            <path id="Trazado_782132" data-name="Trazado 782132" d="M1022.66,403.445c1.169.457,2.824-.7,4.083-2.214a22.277,22.277,0,0,0,1.984-3.324,7.214,7.214,0,0,1,1.058-1.608c.175-.154.337-.222.478-.154,0,0-.008-.009-.008-.013-.06-.056-.149-.115-.248-.2a.8.8,0,0,0-.1-.073.2.2,0,0,0-.038-.026c-.034-.026-.073-.055-.115-.085a.049.049,0,0,0-.026-.013v-.009a.531.531,0,0,0-.068-.038c-.431-.324-.909-.653-.909-.653l-3.87.969.3,1.48a20.8,20.8,0,0,1-2.381,5.785c-.047.06-.094.119-.141.175Z" transform="translate(-1020.363 -395.04)" fill="#ebb373"/>
          </g>
          <path id="Trazado_782133" data-name="Trazado 782133" d="M998.535,309.1c2.389,5.931,6.093,13.487,8.832,22.963.055.171.1.346.149.516s.107.363.162.546l2.824-.691.124-.491s.977-.759.811-.93c-.107-.111-.034-.32-.055-.5h0c-.759-6.613-3.695-30.868-6.6-35.907a20.01,20.01,0,0,0,5.794.192c1.8-.3,3.985-12.766,3.985-12.766a38.493,38.493,0,0,0-9.3-1.318h-.064s-9.258,2.739-11.614,4.813c-2.214,1.95-2.543,5.145-1.318,8.943,1.126,3.482,3.319,7.287,6.276,14.634Z" transform="translate(-991.558 -280.514)" fill="#ebb373"/>
          <path id="Trazado_782134" data-name="Trazado 782134" d="M1001.4,288.254c.546-2.155,4.514-4.262,8.614-5.393.666-.862-1.037-1.882-1.037-1.882l8.068-.73,1.408,1.015,2.406.5-2.146,9.638-8.815,1.545,5.576,25.872.657,5.111s-9.442-20.27-11.417-24.58-4.267-7.364-3.315-11.1Z" transform="translate(-997.074 -280.25)" opacity="0.1"/>
          <path id="Trazado_782135" data-name="Trazado 782135" d="M1022.74,283.8s-12.591,2.667-15.048,4.608c-2.095,1.655-2.15,3.814-1.472,5.854,1.877,5.636,8.61,15.035,16.315,42.013l4.416-1.387c-.422,0-1.532-14.084-1.86-25.4-.154-5.337-2.893-9.937-3.964-11.8a31.4,31.4,0,0,0,7,.188c3.208-.538,5.239-11.247-5.384-14.084Z" transform="translate(-999.743 -282.285)" fill="#ebb373"/>
          <path id="Trazado_782136" data-name="Trazado 782136" d="M1037.245,312.268a12.857,12.857,0,0,0-3.755-3.938s2.564.166,4.164,3.511l-.67-.081Z" transform="translate(-1015.599 -296.35)" opacity="0.2"/>
          <g id="Grupo_1048613" data-name="Grupo 1048613" transform="translate(16.472 51.429)">
            <path id="Trazado_782137" data-name="Trazado 782137" d="M1042.4,408.839l-.922.2-.764-1.271a.285.285,0,0,0-.435-.064l-2.615,2.423-7.142,1.566s-1.591-1.681,1.958-2.752a1.58,1.58,0,0,0,.478-.311c1.758-1.348,3.866-5.06,3.866-5.06l4.232-.93a5.283,5.283,0,0,1,.482.533,5.515,5.515,0,0,1,.866,5.666Z" transform="translate(-1030.166 -401.851)" fill="#263238"/>
            <path id="Trazado_782138" data-name="Trazado 782138" d="M1045.28,402.113v.013c-.7-.5-2.637,2.795-4.3,4.134-1.48,1.195-3.268,1.971-4.284,1.31,1.758-1.348,3.955-6.033,3.955-6.033l3.4-.747s.93.969,1.216,1.323Z" transform="translate(-1033.912 -400.79)" fill="#ebb373"/>
          </g>
        </g>
        <g id="Grupo_1048617" data-name="Grupo 1048617" transform="translate(0 43.276)">
          <g id="Grupo_1048615" data-name="Grupo 1048615" transform="translate(9.242 12.279)">
            <path id="Trazado_782139" data-name="Trazado 782139" d="M1005.558,280.672l12.411-4.723a.287.287,0,0,0-.085-.55l-19.921-.239a.264.264,0,0,0-.136.038l-7.659,4.962a.289.289,0,0,0,.132.529h15.168a.191.191,0,0,0,.085-.017Z" transform="translate(-990.041 -275.16)" fill="#263238"/>
            <path id="Trazado_782140" data-name="Trazado 782140" d="M1005.558,280.672l12.411-4.723a.287.287,0,0,0-.085-.55l-19.921-.239a.264.264,0,0,0-.136.038l-7.659,4.962a.289.289,0,0,0,.132.529h15.168a.191.191,0,0,0,.085-.017Z" transform="translate(-990.041 -275.16)" fill="#fff" opacity="0.7"/>
            <path id="Trazado_782141" data-name="Trazado 782141" d="M1024.674,280.554l8-2.948-9.378-.2Z" transform="translate(-1009.11 -276.45)" fill="#fff" opacity="0.7"/>
            <path id="Trazado_782142" data-name="Trazado 782142" d="M1038.143,276.276,1025.732,281a.3.3,0,0,1-.085.017h-.192l-.235-.683,12.842-4.6a.287.287,0,0,1,.085.55Z" transform="translate(-1010.211 -275.487)" opacity="0.3"/>
          </g>
          <g id="Grupo_1048616" data-name="Grupo 1048616">
            <path id="Trazado_782143" data-name="Trazado 782143" d="M976.934,264.189H993.1a.457.457,0,0,0,.5-.41.307.307,0,0,0-.026-.124l-7.189-16.482a1.4,1.4,0,0,0-1.335-.794h-16.17a.455.455,0,0,0-.495.4.316.316,0,0,0,.03.137l7.189,16.482a1.414,1.414,0,0,0,1.335.794Z" transform="translate(-968.38 -246.38)" fill="#263238"/>
            <path id="Trazado_782144" data-name="Trazado 782144" d="M968.875,246.38h16.17a1.4,1.4,0,0,1,1.335.794l7.189,16.482a.306.306,0,0,1,.026.124.466.466,0,0,1-.5.41H976.935a1.409,1.409,0,0,1-1.335-.794l-7.189-16.482a.3.3,0,0,1-.03-.137A.455.455,0,0,1,968.875,246.38Z" transform="translate(-968.38 -246.38)" fill="#fff" opacity="0.7"/>
            <path id="Trazado_782145" data-name="Trazado 782145" d="M992.759,265.923c.35.789,1.058,1.335,1.583,1.224s.67-.832.329-1.626-1.054-1.323-1.583-1.212-.687.8-.333,1.613Z" transform="translate(-982.246 -256.652)" fill="#fff"/>
          </g>
          <path id="Trazado_782146" data-name="Trazado 782146" d="M1007.22,246.38h.1a1.4,1.4,0,0,1,1.335.794l7.189,16.482a.306.306,0,0,1,.026.124.466.466,0,0,1-.5.41h-.516l-7.629-17.809Z" transform="translate(-990.649 -246.38)" opacity="0.3"/>
        </g>
        <g id="Grupo_1048619" data-name="Grupo 1048619" transform="translate(26.875 22.57)">
          <path id="Trazado_782147" data-name="Trazado 782147" d="M1057.271,214.69c0,.3.973,11.084.973,11.084-.606,1.135-13.068,5.461-14.664,7.044l2.906,2.991s14.83-2.991,17.224-4.732c2.044-1.485,1.873-4.092,1.873-7.65a74.034,74.034,0,0,0-.776-8.738h-7.531Z" transform="translate(-1038.371 -207.505)" fill="#ebb373"/>
          <path id="Trazado_782148" data-name="Trazado 782148" d="M1073.6,198.379c-3.063,1.28-.725,17.672-.725,17.672l-3.012,1.276,1.852,6.98s3.712-.7,7.42-1.459c3.921-.8,4.5-9.851,2.534-17.181S1077.181,196.881,1073.6,198.379Z" transform="translate(-1053.438 -197.85)" fill="#407bff"/>
          <g id="Grupo_1048618" data-name="Grupo 1048618" transform="translate(0 25.309)">
            <path id="Trazado_782149" data-name="Trazado 782149" d="M1031.37,265.02a16.834,16.834,0,0,1,1.856-4.288,37.19,37.19,0,0,1,3.349-3.563l3.264,1.826a3.017,3.017,0,0,1-.811,2.283c-.533.457-1.105.862-1.105.862a5.244,5.244,0,0,1,.154,1.178c0,.691-.136,1.54-.7,1.515s-.776-1.852-.8-2.116c.026.269.183,2.138-.576,2.2-.734.064-.853-1.89-.853-1.89s-.038.909-.06,1.374-.491.87-.922.354a3.177,3.177,0,0,1-.542-1.634,15.223,15.223,0,0,0-.986,1.924c-.427.947-1.318.567-1.259-.026Z" transform="translate(-1031.37 -257.17)" fill="#ebb373"/>
            <path id="Trazado_782150" data-name="Trazado 782150" d="M1043.6,268.268a5.8,5.8,0,0,1,.013-1.054,1.874,1.874,0,0,1,.393-.964" transform="translate(-1038.37 -262.376)" fill="none" stroke="#000" stroke-linecap="round" stroke-linejoin="round" stroke-width="0.5" opacity="0.1"/>
            <path id="Trazado_782151" data-name="Trazado 782151" d="M1040.106,268.848a5.79,5.79,0,0,1,.013-1.054,1.874,1.874,0,0,1,.393-.964" transform="translate(-1036.369 -262.708)" fill="none" stroke="#000" stroke-linecap="round" stroke-linejoin="round" stroke-width="0.5" opacity="0.1"/>
            <path id="Trazado_782152" data-name="Trazado 782152" d="M1036.646,268.548a5.8,5.8,0,0,1,.013-1.054,1.875,1.875,0,0,1,.392-.964" transform="translate(-1034.385 -262.536)" fill="none" stroke="#000" stroke-linecap="round" stroke-linejoin="round" stroke-width="0.5" opacity="0.1"/>
          </g>
        </g>
      </g>
    </g>
  </g>
</svg>
