<svg xmlns="http://www.w3.org/2000/svg" xmlns:xlink="http://www.w3.org/1999/xlink" width="120" height="120" viewBox="0 0 120 120">
  <defs>
    <filter id="Elipse_7968" x="0" y="0" width="120" height="120" filterUnits="userSpaceOnUse">
      <feOffset dy="3" input="SourceAlpha"/>
      <feGaussianBlur stdDeviation="3" result="blur"/>
      <feFlood flood-opacity="0.161"/>
      <feComposite operator="in" in2="blur"/>
      <feComposite in="SourceGraphic"/>
    </filter>
  </defs>
  <g id="Grupo_1055071" data-name="Grupo 1055071" transform="translate(3240.5 9306.894)">
    <g transform="matrix(1, 0, 0, 1, -3240.5, -9306.89)" filter="url(#Elipse_7968)">
      <circle id="Elipse_7968-2" data-name="Elipse 7968" cx="51" cy="51" r="51" transform="translate(9 6)" fill="#ffc5ad"/>
    </g>
    <g id="Grupo_1045427" data-name="Grupo 1045427">
      <g id="materias-primas" transform="translate(-3229.2 -9298.339)">
        <g id="Grupo_1045425" data-name="Grupo 1045425" transform="translate(7.5 7.5)">
          <path id="Trazado_773161" data-name="Trazado 773161" d="M291.917,9.951A1.648,1.648,0,0,0,290.269,8.3l-1.2-.8h-2.06l-1.153.73-1.318-.73h-4.119l-1.153.73-1.318-.73h-4.284l-1.153.73L271.19,7.5h-3.543A1.648,1.648,0,0,0,266,9.148V78.9h25.5Z" transform="translate(-223.408 -7.5)" fill="#d19d6c"/>
          <path id="Trazado_773162" data-name="Trazado 773162" d="M409.3,9.148V78.9H406V7.5h1.648A1.648,1.648,0,0,1,409.3,9.148Z" transform="translate(-340.34 -7.5)" fill="#c18e58"/>
          <path id="Trazado_773163" data-name="Trazado 773163" d="M74.3,25.255H66.064V18.994a.494.494,0,0,1,.494-.494h7.25a.494.494,0,0,1,.494.494Z" transform="translate(-56.415 -16.688)" fill="#92c73d"/>
          <path id="Trazado_773164" data-name="Trazado 773164" d="M27.5,73.364v10.32l1.354,1.236L27.5,86.156v41.357l.919,1.236-.919,1.236V140.3H68.522V73.364Z" transform="translate(-24.205 -62.512)" fill="#b7e261"/>
          <path id="Trazado_773165" data-name="Trazado 773165" d="M259.091,76.625v8.65l-1.308,1.5,1.308.971V141.9H252.5V76.625l3.453-1.356Z" transform="translate(-212.132 -64.103)" fill="#a4d64d"/>
          <path id="Trazado_773166" data-name="Trazado 773166" d="M10.383,469.5a2.883,2.883,0,0,0,0,5.767H30.32l2.361-.958V469.5Z" transform="translate(-7.5 -393.377)" fill="#a4d64d"/>
          <circle id="Elipse_7970" data-name="Elipse 7970" cx="13.181" cy="13.181" r="13.181" transform="translate(11.946 31.141)" fill="#f2f2f2"/>
          <path id="Trazado_773167" data-name="Trazado 773167" d="M139.327,245.278c0-2.1-1.523-4.432-2.684-6.39-.386-.461-.745-.858-1.032-1.166a.9.9,0,0,0-1.327.007c-1.346,1.472-4.284,4.985-4.284,7.548.581,2.564,2.213,4.525,4.943,4.525S139.327,248.008,139.327,245.278Z" transform="translate(-109.816 -199.549)" fill="#73788c"/>
          <path id="Trazado_773168" data-name="Trazado 773168" d="M139.886,252.635a4.943,4.943,0,0,1-9.886,0,4.943,4.943,0,0,0,7.049-4.472,5.446,5.446,0,0,0-.405-1.918C138.074,247.957,139.886,250.536,139.886,252.635Z" transform="translate(-109.816 -206.912)" fill="#5e6577"/>
          <rect id="Rectángulo_356282" data-name="Rectángulo 356282" width="6.591" height="12.793" transform="translate(40.368 65.001)" fill="#92c73d"/>
          <path id="Trazado_773169" data-name="Trazado 773169" d="M54.826,53.624l-6.958.643H10.383A2.883,2.883,0,0,1,7.5,51.383h0A2.883,2.883,0,0,1,10.383,48.5H47.868l6.958.689c1.592,0,2.233.6,2.233,2.195h0C57.059,52.976,56.418,53.624,54.826,53.624Z" transform="translate(-7.5 -41.745)" fill="#a4d64d"/>
          <path id="Trazado_773170" data-name="Trazado 773170" d="M236.184,375.268,228.6,374.5H216.824a.824.824,0,0,0-.824.824V385.7h20.767l.241-9.612A.824.824,0,0,0,236.184,375.268Z" transform="translate(-181.646 -314.03)" fill="#f2f2f2"/>
          <path id="Trazado_773171" data-name="Trazado 773171" d="M256.839,375.324V385.7l-10.131.77-7.458-1.264a47.251,47.251,0,0,1,8.094-7.005,1.533,1.533,0,0,0,.68-1.275V374.5h7.991A.824.824,0,0,1,256.839,375.324Z" transform="translate(-201.065 -314.03)" fill="#e2e8f5"/>
          <path id="Trazado_773172" data-name="Trazado 773172" d="M262.386,51.383a2.886,2.886,0,0,1-2.883,2.883h-7V48.5h7A2.884,2.884,0,0,1,262.386,51.383Z" transform="translate(-212.132 -41.745)" fill="#92c73d"/>
          <path id="Trazado_773173" data-name="Trazado 773173" d="M170.1,439.5H146.824a.824.824,0,0,0-.824.824v9.886h12.18l7.593-1.56Z" transform="translate(-123.18 -368.32)" fill="#e2e8f5"/>
          <path id="Trazado_773174" data-name="Trazado 773174" d="M228.118,439.5l-4.73,10.71H216.2a7.84,7.84,0,0,1,1.142-8.4c.493-.585,1.022-1.191,1.588-1.811q.222-.245.455-.494Z" transform="translate(-181.196 -368.32)" fill="#d4daf9"/>
          <path id="Trazado_773175" data-name="Trazado 773175" d="M282.824,416.085c2.81,0,3.6-2.48,1.791-4.629C280.19,406.2,273.57,400.035,265,399.174c-1.807,0-5.266.355-5.266.355-6.442,2.053-11.95,7.41-15.452,11.567a3.3,3.3,0,0,0,2.523,5.432h26.409Z" transform="translate(-204.615 -334.639)" fill="#73788c"/>
          <path id="Trazado_773176" data-name="Trazado 773176" d="M365.5,414H354.968a3.3,3.3,0,0,0,2.523-5.432c-3.5-4.155-9.008-9.512-15.45-11.567a17.265,17.265,0,0,1,5.266-.854c8.667,0,16.292,7.169,20.718,12.42A3.3,3.3,0,0,1,365.5,414Z" transform="translate(-286.919 -332.113)" fill="#5e6577"/>
        </g>
        <g id="Grupo_1045426" data-name="Grupo 1045426" transform="translate(7.5 7.5)">
          <line id="Línea_856" data-name="Línea 856" y1="47.801" transform="translate(68.955 18.289)" fill="none" stroke="#000" stroke-linecap="round" stroke-linejoin="round" stroke-miterlimit="10" stroke-width="2"/>
          <path id="Trazado_773177" data-name="Trazado 773177" d="M266,14.051v-4.9A1.648,1.648,0,0,1,267.648,7.5h23.068a1.648,1.648,0,0,1,1.648,1.648V20.022" transform="translate(-223.408 -7.5)" fill="none" stroke="#000" stroke-linecap="round" stroke-linejoin="round" stroke-miterlimit="10" stroke-width="2"/>
          <path id="Trazado_773178" data-name="Trazado 773178" d="M21.258,54.267H54.871a2.883,2.883,0,0,0,0-5.767H10.383a2.883,2.883,0,1,0,0,5.767h5.108" transform="translate(-7.5 -41.745)" fill="none" stroke="#000" stroke-linecap="round" stroke-linejoin="round" stroke-miterlimit="10" stroke-width="2"/>
          <path id="Trazado_773179" data-name="Trazado 773179" d="M66.064,23.286V18.5H74.3v4.786" transform="translate(-56.415 -16.688)" fill="none" stroke="#000" stroke-linecap="round" stroke-linejoin="round" stroke-miterlimit="10" stroke-width="2"/>
          <line id="Línea_857" data-name="Línea 857" y1="26.243" transform="translate(46.959 33.99)" fill="none" stroke="#000" stroke-linecap="round" stroke-linejoin="round" stroke-miterlimit="10" stroke-width="2"/>
          <line id="Línea_858" data-name="Línea 858" y1="15.444" transform="translate(46.959 12.779)" fill="none" stroke="#000" stroke-linecap="round" stroke-linejoin="round" stroke-miterlimit="10" stroke-width="2"/>
          <line id="Línea_859" data-name="Línea 859" y1="63.356" transform="translate(3.295 12.674)" fill="none" stroke="#000" stroke-linecap="round" stroke-linejoin="round" stroke-miterlimit="10" stroke-width="2"/>
          <line id="Línea_860" data-name="Línea 860" x1="7.817" transform="translate(14.829 76.123)" fill="none" stroke="#000" stroke-linecap="round" stroke-linejoin="round" stroke-miterlimit="10" stroke-width="2"/>
          <path id="Trazado_773180" data-name="Trazado 773180" d="M16.562,469.5H10.383a2.883,2.883,0,0,0,0,5.767H49.692" transform="translate(-7.5 -393.377)" fill="none" stroke="#000" stroke-linecap="round" stroke-linejoin="round" stroke-miterlimit="10" stroke-width="2"/>
          <circle id="Elipse_7971" data-name="Elipse 7971" cx="13.181" cy="13.181" r="13.181" transform="translate(11.946 31.141)" fill="none" stroke="#000" stroke-linecap="round" stroke-linejoin="round" stroke-miterlimit="10" stroke-width="2"/>
          <path id="Trazado_773181" data-name="Trazado 773181" d="M139.886,243.238c0-3.465-4.943-8.238-4.943-8.238S130,239.914,130,243.238a4.943,4.943,0,0,0,9.886,0Z" transform="translate(-109.816 -197.515)" fill="none" stroke="#000" stroke-linecap="round" stroke-linejoin="round" stroke-miterlimit="10" stroke-width="2"/>
          <line id="Línea_861" data-name="Línea 861" y2="16.272" transform="translate(62.365 47.618)" fill="none" stroke="#000" stroke-linecap="round" stroke-linejoin="round" stroke-miterlimit="10" stroke-width="2"/>
          <line id="Línea_862" data-name="Línea 862" y2="11.115" transform="translate(62.365 29.912)" fill="none" stroke="#000" stroke-linecap="round" stroke-linejoin="round" stroke-miterlimit="10" stroke-width="2"/>
          <line id="Línea_863" data-name="Línea 863" y2="6.591" transform="translate(62.365 0.165)" fill="none" stroke="#000" stroke-linecap="round" stroke-linejoin="round" stroke-miterlimit="10" stroke-width="2"/>
          <line id="Línea_864" data-name="Línea 864" y2="17.339" transform="translate(55.774 37.611)" fill="none" stroke="#000" stroke-linecap="round" stroke-linejoin="round" stroke-miterlimit="10" stroke-width="2"/>
          <line id="Línea_865" data-name="Línea 865" y2="18.768" transform="translate(55.774 0.165)" fill="none" stroke="#000" stroke-linecap="round" stroke-linejoin="round" stroke-miterlimit="10" stroke-width="2"/>
          <line id="Línea_866" data-name="Línea 866" y2="7.167" transform="translate(49.183 0.165)" fill="none" stroke="#000" stroke-linecap="round" stroke-linejoin="round" stroke-miterlimit="10" stroke-width="2"/>
          <path id="Trazado_773182" data-name="Trazado 773182" d="M167.42,439.5h-20.6a.824.824,0,0,0-.824.824V450.1" transform="translate(-123.18 -368.32)" fill="none" stroke="#000" stroke-linecap="round" stroke-linejoin="round" stroke-miterlimit="10" stroke-width="2"/>
          <path id="Trazado_773183" data-name="Trazado 773183" d="M237.42,378.558v-3.234a.824.824,0,0,0-.824-.824H216.824a.824.824,0,0,0-.824.824v9.634" transform="translate(-181.646 -314.03)" fill="none" stroke="#000" stroke-linecap="round" stroke-linejoin="round" stroke-miterlimit="10" stroke-width="2"/>
          <path id="Trazado_773184" data-name="Trazado 773184" d="M283.2,414a3.3,3.3,0,0,0,2.523-5.432c-4.425-5.252-12.051-12.42-20.718-12.42s-16.293,7.168-20.718,12.421A3.3,3.3,0,0,0,246.808,414H283.2Z" transform="translate(-204.615 -332.113)" fill="none" stroke="#000" stroke-linecap="round" stroke-linejoin="round" stroke-miterlimit="10" stroke-width="2"/>
          <line id="Línea_867" data-name="Línea 867" transform="translate(54.126 77.029)" fill="none" stroke="#000" stroke-linecap="round" stroke-linejoin="round" stroke-miterlimit="10" stroke-width="2"/>
          <line id="Línea_868" data-name="Línea 868" transform="translate(49.183 77.029)" fill="none" stroke="#000" stroke-linecap="round" stroke-linejoin="round" stroke-miterlimit="10" stroke-width="2"/>
          <line id="Línea_869" data-name="Línea 869" transform="translate(51.655 72.91)" fill="none" stroke="#000" stroke-linecap="round" stroke-linejoin="round" stroke-miterlimit="10" stroke-width="2"/>
          <line id="Línea_870" data-name="Línea 870" transform="translate(66.484 70.438)" fill="none" stroke="#000" stroke-linecap="round" stroke-linejoin="round" stroke-miterlimit="10" stroke-width="2"/>
          <line id="Línea_871" data-name="Línea 871" transform="translate(70.768 73.075)" fill="none" stroke="#000" stroke-linecap="round" stroke-linejoin="round" stroke-miterlimit="10" stroke-width="2"/>
          <line id="Línea_872" data-name="Línea 872" x2="42.834" transform="translate(3.779 22.677)" fill="none" stroke="#000" stroke-linecap="round" stroke-linejoin="round" stroke-miterlimit="10" stroke-width="2"/>
          <line id="Línea_873" data-name="Línea 873" x2="31.059" transform="translate(3.295 66.237)" fill="none" stroke="#000" stroke-linecap="round" stroke-linejoin="round" stroke-miterlimit="10" stroke-width="2"/>
        </g>
      </g>
      <g id="fracaso" transform="translate(-3189.763 -9287.134)">
        <g id="Grupo_1045423" data-name="Grupo 1045423" transform="translate(9.624 9.617)">
          <g id="Grupo_1045421" data-name="Grupo 1045421" transform="translate(0 0)">
            <path id="Trazado_773158" data-name="Trazado 773158" d="M56.915,40.656a4.683,4.683,0,0,0-3.31,7.991,1.39,1.39,0,0,1,0,1.965L50.613,53.6a1.39,1.39,0,0,1-1.965,0,4.62,4.62,0,0,0-2.318-1.277.263.263,0,0,1-.209-.271l.095-1.96a.26.26,0,0,0-.155-.253L43.32,48.6a.264.264,0,0,0-.339.371l.879,1.551a.255.255,0,0,1,.029.183l-.365,1.781a.257.257,0,0,1-.148.187,4.6,4.6,0,0,0-2.717,4.245A1.389,1.389,0,0,1,39.268,58.3h-4.23a1.389,1.389,0,0,1-1.389-1.389,4.681,4.681,0,0,0-7.991-3.31,1.39,1.39,0,0,1-1.965,0L20.7,50.613a1.39,1.39,0,0,1,0-1.965,4.683,4.683,0,0,0-3.31-7.991A1.389,1.389,0,0,1,16,39.267v-4.23a1.389,1.389,0,0,1,1.389-1.389,4.619,4.619,0,0,0,2.542-.736.263.263,0,0,1,.34.044l1.319,1.453a.26.26,0,0,0,.289.07l2.82-1.057a.264.264,0,0,0-.022-.5l-1.718-.476a.255.255,0,0,1-.15-.109l-1-1.518a.257.257,0,0,1-.027-.237,4.6,4.6,0,0,0-1.08-4.923,1.39,1.39,0,0,1,0-1.965L23.692,20.7a1.39,1.39,0,0,1,1.965,0,4.683,4.683,0,0,0,7.991-3.31A1.389,1.389,0,0,1,35.038,16h4.23a1.389,1.389,0,0,1,1.389,1.389,4.683,4.683,0,0,0,7.991,3.31,1.39,1.39,0,0,1,1.965,0L53.6,23.692a1.39,1.39,0,0,1,0,1.965,4.62,4.62,0,0,0-1.277,2.318.263.263,0,0,1-.271.209l-1.96-.095a.26.26,0,0,0-.253.155L48.6,30.985a.264.264,0,0,0,.371.339l1.551-.879a.255.255,0,0,1,.183-.029l1.781.365a.257.257,0,0,1,.187.148,4.6,4.6,0,0,0,4.245,2.717A1.389,1.389,0,0,1,58.3,35.037v4.23a1.389,1.389,0,0,1-1.389,1.389Z" transform="translate(-16.002 -16.001)" fill="#ee1a43" fill-rule="evenodd"/>
            <circle id="Elipse_7969" data-name="Elipse 7969" cx="10.163" cy="10.163" r="10.163" transform="translate(10.424 30.727) rotate(-86.788)" fill="#f4f6f8"/>
          </g>
          <g id="Grupo_1045422" data-name="Grupo 1045422" transform="translate(15.228 14.585)">
            <path id="Trazado_773159" data-name="Trazado 773159" d="M195.481,181.931l5.038,8.726a.881.881,0,0,1-.763,1.322H189.68a.881.881,0,0,1-.763-1.322l5.038-8.726a.881.881,0,0,1,1.526,0Z" transform="translate(-188.795 -181.49)" fill="#ee1a43" fill-rule="evenodd"/>
          </g>
        </g>
        <path id="Trazado_773160" data-name="Trazado 773160" d="M31.481,32.572a.7.7,0,1,1-.7-.7A.706.706,0,0,1,31.481,32.572Zm-1.322-1.687V27.4a.617.617,0,0,1,1.234,0v3.482a.617.617,0,0,1-1.234,0Zm5.885,3.057a.256.256,0,0,0,0-.265l-5.038-8.727a.266.266,0,0,0-.458,0l-5.038,8.727a.263.263,0,0,0,.229.4H35.814A.257.257,0,0,0,36.044,33.943Zm-3.971-9.609a1.5,1.5,0,0,0-2.594,0L24.44,33.06a1.5,1.5,0,0,0,1.3,2.247H35.814a1.5,1.5,0,0,0,1.3-2.247Zm-1.3,15.98a9.545,9.545,0,1,0-9.545-9.545A9.556,9.556,0,0,0,30.776,40.313Zm0-20.325a10.779,10.779,0,1,0,10.78,10.779A10.792,10.792,0,0,0,30.776,19.989ZM51.311,32.883v-4.23a.774.774,0,0,0-.771-.772,5.214,5.214,0,0,1-4.729-2.914l-1.48-.3-2.143,1.214a.617.617,0,0,1-.866-.792l1.657-3.645a.626.626,0,0,1,.591-.361l1.849.09a5.278,5.278,0,0,1,1.373-2.334.773.773,0,0,0,0-1.093L43.8,14.752a.775.775,0,0,0-1.093,0,5.3,5.3,0,0,1-9.045-3.746.773.773,0,0,0-.772-.773h-4.23a.773.773,0,0,0-.772.773,5.3,5.3,0,0,1-9.044,3.746.775.775,0,0,0-1.093,0L14.76,17.743a.775.775,0,0,0,0,1.093,5.213,5.213,0,0,1,1.283,5.4l.832,1.261,2.374.657a.617.617,0,0,1,.052,1.172l-3.749,1.406a.615.615,0,0,1-.673-.163L13.635,27.2a5.28,5.28,0,0,1-2.62.68.773.773,0,0,0-.773.772v4.23a.773.773,0,0,0,.773.772A5.3,5.3,0,0,1,14.76,42.7a.775.775,0,0,0,0,1.093l2.992,2.991a.773.773,0,0,0,1.092,0,5.224,5.224,0,0,1,3.713-1.565,5.372,5.372,0,0,1,2.061.417,5.216,5.216,0,0,1,3.27,4.895.773.773,0,0,0,.772.772h4.23a.773.773,0,0,0,.772-.772A5.213,5.213,0,0,1,36.577,45.8l.3-1.481-1.213-2.143a.616.616,0,0,1,.791-.865L40.1,42.971a.616.616,0,0,1,.361.591l-.089,1.849a5.283,5.283,0,0,1,2.333,1.373.773.773,0,0,0,1.093,0l2.991-2.991a.773.773,0,0,0,0-1.093,5.3,5.3,0,0,1,3.748-9.045.774.774,0,0,0,.771-.772Zm-.771-6.236a4.009,4.009,0,0,1-3.733-2.465.62.62,0,0,0-.443-.361l-2.012-.412a.613.613,0,0,0-.428.068l-.694.393.7-1.537,1.951.094a.62.62,0,0,0,.639-.518,4,4,0,0,1,1.147-2.2,2.013,2.013,0,0,0,0-2.837L44.673,13.88a2.01,2.01,0,0,0-2.838,0A4.067,4.067,0,0,1,34.9,11.007,2.008,2.008,0,0,0,32.891,9h-4.23a2.008,2.008,0,0,0-2.006,2.007,4.067,4.067,0,0,1-6.938,2.873,2.008,2.008,0,0,0-2.837,0l-2.992,2.991a2.009,2.009,0,0,0,0,2.837,4,4,0,0,1,.9,4.381.617.617,0,0,0,.058.569l1.131,1.713a.621.621,0,0,0,.351.255l.768.213-1.581.592L14.2,25.986a.618.618,0,0,0-.819-.085,4.008,4.008,0,0,1-2.365.746,2.008,2.008,0,0,0-2.007,2.006v4.23a2.008,2.008,0,0,0,2.007,2.006,4.067,4.067,0,0,1,2.873,6.938,2.01,2.01,0,0,0,0,2.838l2.992,2.991a2.009,2.009,0,0,0,2.837,0,4.064,4.064,0,0,1,6.938,2.874,2.008,2.008,0,0,0,2.006,2.006h4.23A2.008,2.008,0,0,0,34.9,50.53,4,4,0,0,1,37.362,46.8a.619.619,0,0,0,.361-.443l.411-2.012a.616.616,0,0,0-.067-.428l-.394-.694,1.538.7-.095,1.951a.616.616,0,0,0,.517.639,4.007,4.007,0,0,1,2.2,1.146,2.01,2.01,0,0,0,2.838,0l2.993-2.991a2.014,2.014,0,0,0,0-2.838,4.066,4.066,0,0,1,2.874-6.938,2.008,2.008,0,0,0,2-2.006v-4.23a2.008,2.008,0,0,0-2-2.006Z" fill-rule="evenodd"/>
      </g>
    </g>
  </g>
</svg>
