<svg xmlns="http://www.w3.org/2000/svg" width="80.855" height="81.132" viewBox="0 0 80.855 81.132">
  <g id="Outline_00000086688773893475363500000010664030656747893427_" transform="translate(-7.674 -6.5)">
    <path id="Trazado_778646" data-name="Trazado 778646" d="M95.232,41.256a3.578,3.578,0,0,0-5.1,3.24V41.077A3.577,3.577,0,0,0,86.56,37.5h0a3.577,3.577,0,0,0-3.577,3.577v5.167a3.577,3.577,0,0,0-3.577-3.577h0a3.577,3.577,0,0,0-3.577,3.577V69.06" transform="translate(-56.348 -25.23)" fill="none" stroke="#8d8183" stroke-miterlimit="10" stroke-width="2"/>
    <path id="Trazado_778647" data-name="Trazado 778647" d="M30.292,197.034a10.7,10.7,0,0,0-10.811-10.97l-2.067-5.738a5.6,5.6,0,0,0-8.585-2.609h0l6.042,20.907,6.36,7.552v3.339" transform="translate(0 -142.234)" fill="none" stroke="#8d8183" stroke-miterlimit="10" stroke-width="2"/>
    <path id="Trazado_778648" data-name="Trazado 778648" d="M71.828,403.851V383.5h19.4" transform="translate(-52.984 -316.219)" fill="none" stroke="#8d8183" stroke-miterlimit="10" stroke-width="2"/>
    <line id="Línea_943" data-name="Línea 943" y2="20.907" transform="translate(73.22 30.395)" fill="none" stroke="#8d8183" stroke-miterlimit="10" stroke-width="2"/>
    <line id="Línea_944" data-name="Línea 944" y2="15.979" transform="translate(80.374 35.324)" fill="none" stroke="#8d8183" stroke-miterlimit="10" stroke-width="2"/>
    <path id="Trazado_778649" data-name="Trazado 778649" d="M393.25,162.511v-3.418l.607-.9a23.421,23.421,0,0,0,4-13.1V119.424a3.577,3.577,0,0,0-7.155,0V114.5a3.577,3.577,0,1,0-7.155,0v-3.418a3.577,3.577,0,0,0-3.577-3.577h0a3.562,3.562,0,0,0-2.146.715" transform="translate(-310.332 -84.101)" fill="none" stroke="#8d8183" stroke-miterlimit="10" stroke-width="2"/>
    <path id="Trazado_778650" data-name="Trazado 778650" d="M363.828,453.5h20.033v9.221" transform="translate(-298.558 -375.09)" fill="none" stroke="#8d8183" stroke-miterlimit="10" stroke-width="2"/>
    <line id="Línea_945" data-name="Línea 945" y2="19.158" transform="translate(46.032 16.245)" fill="none" stroke="#8d8183" stroke-miterlimit="10" stroke-width="2"/>
    <line id="Línea_946" data-name="Línea 946" y2="20.907" transform="translate(53.187 14.496)" fill="none" stroke="#8d8183" stroke-miterlimit="10" stroke-width="2"/>
    <line id="Línea_947" data-name="Línea 947" y2="15.979" transform="translate(60.341 19.424)" fill="none" stroke="#8d8183" stroke-miterlimit="10" stroke-width="2"/>
    <path id="Trazado_778651" data-name="Trazado 778651" d="M221.836,62.511V59.093l.607-.9a23.422,23.422,0,0,0,4-13.1V19.424a3.577,3.577,0,0,0-3.577-3.577h0a3.577,3.577,0,0,0-3.577,3.577V14.5a3.577,3.577,0,0,0-3.577-3.577h0a3.577,3.577,0,0,0-3.577,3.577V11.077A3.577,3.577,0,0,0,208.56,7.5h0a3.577,3.577,0,0,0-3.577,3.577v5.167a3.577,3.577,0,0,0-3.577-3.577h0a3.577,3.577,0,0,0-3.577,3.577V39.06" transform="translate(-158.951 0)" fill="none" stroke="#8d8183" stroke-miterlimit="10" stroke-width="2"/>
    <path id="Trazado_778652" data-name="Trazado 778652" d="M148.928,167.221a10.7,10.7,0,0,0-10.811-10.97L136.226,151a6.284,6.284,0,0,0-9.4-3.1h0l6.678,20.907,6.36,7.552V179.7" transform="translate(-99.239 -117.19)" fill="none" stroke="#8d8183" stroke-miterlimit="10" stroke-width="2"/>
    <path id="Trazado_778653" data-name="Trazado 778653" d="M193.828,378.621V353.5h27.029v25.121" transform="translate(-155.587 -290.989)" fill="none" stroke="#8d8183" stroke-miterlimit="10" stroke-width="2"/>
    <line id="Línea_948" data-name="Línea 948" transform="translate(24.266 72.924)" fill="none" stroke="#8d8183" stroke-miterlimit="10" stroke-width="2"/>
    <line id="Línea_949" data-name="Línea 949" transform="translate(42.864 65.485)" fill="none" stroke="#8d8183" stroke-miterlimit="10" stroke-width="2"/>
    <line id="Línea_950" data-name="Línea 950" transform="translate(24.266 77.574)" fill="none" stroke="#8d8183" stroke-miterlimit="10" stroke-width="2"/>
    <line id="Línea_951" data-name="Línea 951" transform="translate(42.864 72.924)" fill="none" stroke="#8d8183" stroke-miterlimit="10" stroke-width="2"/>
    <line id="Línea_952" data-name="Línea 952" y2="6.439" transform="translate(26.635 19.345)" fill="none" stroke="#8d8183" stroke-miterlimit="10" stroke-width="2"/>
    <line id="Línea_953" data-name="Línea 953" y1="7.439" transform="translate(35.425 18.062)" fill="none" stroke="#8d8183" stroke-miterlimit="10" stroke-width="2"/>
  </g>
</svg>
