<svg xmlns="http://www.w3.org/2000/svg" xmlns:xlink="http://www.w3.org/1999/xlink" width="120" height="120" viewBox="0 0 120 120">
  <defs>
    <filter id="Elipse_7984" x="0" y="0" width="120" height="120" filterUnits="userSpaceOnUse">
      <feOffset dy="3" input="SourceAlpha"/>
      <feGaussianBlur stdDeviation="3" result="blur"/>
      <feFlood flood-opacity="0.161"/>
      <feComposite operator="in" in2="blur"/>
      <feComposite in="SourceGraphic"/>
    </filter>
  </defs>
  <g id="Grupo_1055060" data-name="Grupo 1055060" transform="translate(-267.718 -5778.202)">
    <g transform="matrix(1, 0, 0, 1, 267.72, 5778.2)" filter="url(#Elipse_7984)">
      <circle id="Elipse_7984-2" data-name="Elipse 7984" cx="51" cy="51" r="51" transform="translate(9 6)" fill="#ffe6ea"/>
    </g>
    <g id="portapapeles" transform="translate(289.907 5792.095)">
      <g id="Icons" transform="translate(1.419 1.419)">
        <path id="Trazado_775092" data-name="Trazado 775092" d="M60.58,28.038V9.256A4.256,4.256,0,0,0,56.324,5H5.256A4.256,4.256,0,0,0,1,9.256V74.51a4.256,4.256,0,0,0,4.256,4.256H44.309Z" transform="translate(-1 0.674)" fill="sienna"/>
        <path id="Trazado_775093" data-name="Trazado 775093" d="M44.8,5H40.545A4.256,4.256,0,0,1,44.8,9.256V28.038L28.53,78.766h4.256L49.057,28.038V9.256A4.256,4.256,0,0,0,44.8,5Z" transform="translate(10.523 0.674)" fill="#783e22"/>
        <path id="Trazado_775094" data-name="Trazado 775094" d="M53.232,26.051V10.419A1.419,1.419,0,0,0,51.813,9H6.419A1.419,1.419,0,0,0,5,10.419V70a1.419,1.419,0,0,0,1.419,1.419h28.6Z" transform="translate(0.674 2.349)" fill="#f5f5f5"/>
        <path id="Trazado_775095" data-name="Trazado 775095" d="M44.212,9H39.956a1.419,1.419,0,0,1,1.419,1.419V26.051L23.16,71.417h4.256L45.63,26.051V10.419A1.419,1.419,0,0,0,44.212,9Z" transform="translate(8.276 2.349)" fill="#cfd8dc"/>
        <path id="Trazado_775096" data-name="Trazado 775096" d="M68.852,30.93a26.983,26.983,0,1,1-3.859-3.859" transform="translate(7.354 7.371)" fill="#f44335"/>
        <path id="Trazado_775097" data-name="Trazado 775097" d="M61.509,30.93l-3.859-3.859A26.759,26.759,0,0,0,40.628,21c-.667,0-1.322.052-1.976.1A26.736,26.736,0,0,1,53.4,27.072l3.859,3.859A26.92,26.92,0,0,1,38.5,74.8c.709.055,1.41.108,2.128.108A26.939,26.939,0,0,0,61.509,30.93Z" transform="translate(14.697 7.372)" fill="#c81e1e"/>
        <circle id="Elipse_7987" data-name="Elipse 7987" cx="19.86" cy="19.86" r="19.86" transform="translate(35.464 35.464)" fill="#f5f5f5"/>
        <path id="Trazado_775098" data-name="Trazado 775098" d="M40.628,26a19.892,19.892,0,0,0-2.128.118,19.86,19.86,0,0,1,0,39.485A19.86,19.86,0,1,0,40.628,26Z" transform="translate(14.697 9.464)" fill="#cfd8dc"/>
        <circle id="Elipse_7988" data-name="Elipse 7988" cx="12.767" cy="12.767" r="12.767" transform="translate(42.557 42.557)" fill="#f44335"/>
        <path id="Trazado_775099" data-name="Trazado 775099" d="M40.628,31a12.831,12.831,0,0,0-2.128.192,12.752,12.752,0,0,1,0,25.151A12.767,12.767,0,1,0,40.628,31Z" transform="translate(14.697 11.557)" fill="#c81e1e"/>
        <circle id="Elipse_7989" data-name="Elipse 7989" cx="5.674" cy="5.674" r="5.674" transform="translate(49.65 49.65)" fill="#f5f5f5"/>
        <path id="Trazado_775100" data-name="Trazado 775100" d="M40.628,36a5.625,5.625,0,0,0-2.128.426,5.662,5.662,0,0,1,0,10.5A5.674,5.674,0,1,0,40.628,36Z" transform="translate(14.697 13.65)" fill="#cfd8dc"/>
        <path id="Trazado_775101" data-name="Trazado 775101" d="M61.489,23.837l-2.4-2.4a1.508,1.508,0,0,0-2.128,0l-4.524,4.524A1.509,1.509,0,0,0,52,27.031v2.39a1.508,1.508,0,0,0,1.508,1.508H55.9a1.509,1.509,0,0,0,1.067-.441l4.524-4.524a1.508,1.508,0,0,0,0-2.128Z" transform="translate(20.347 7.372)" fill="#ff9801"/>
        <path id="Trazado_775102" data-name="Trazado 775102" d="M61.319,23.837l-2.4-2.4a1.508,1.508,0,0,0-2.128,0L55.734,22.5l1.329,1.329a1.508,1.508,0,0,1,0,2.128L52.54,30.488a1.48,1.48,0,0,1-.135.089,1.484,1.484,0,0,0,.933.352h2.39a1.509,1.509,0,0,0,1.067-.441l4.524-4.524a1.508,1.508,0,0,0,0-2.128Z" transform="translate(20.517 7.372)" fill="#f57c00"/>
        <path id="Trazado_775103" data-name="Trazado 775103" d="M42.209,6.674v5.674a1.419,1.419,0,0,1-1.419,1.419H12.419A1.419,1.419,0,0,1,11,12.349V6.674a1.419,1.419,0,0,1,1.419-1.419h4.256l.772-2.315A2.837,2.837,0,0,1,20.138,1H33.07a2.837,2.837,0,0,1,2.7,1.941l.769,2.315H40.79a1.419,1.419,0,0,1,1.419,1.419Z" transform="translate(3.186 -1)" fill="#9e9e9e"/>
        <g id="Grupo_1045990" data-name="Grupo 1045990" transform="translate(32)">
          <path id="Trazado_775104" data-name="Trazado 775104" d="M27.814,1H23.558a2.837,2.837,0,0,1,2.7,1.941l.769,2.315h4.256l-.772-2.315A2.837,2.837,0,0,0,27.814,1Z" transform="translate(-23.558 -1)" fill="#707070"/>
          <path id="Trazado_775105" data-name="Trazado 775105" d="M33.256,4H29a1.419,1.419,0,0,1,1.419,1.419v5.674A1.419,1.419,0,0,1,29,12.511h4.256a1.419,1.419,0,0,0,1.419-1.419V5.419A1.419,1.419,0,0,0,33.256,4Z" transform="translate(-21.28 0.256)" fill="#707070"/>
        </g>
      </g>
      <g id="Icons_copy" data-name="Icons copy" transform="translate(0 0)">
        <path id="Trazado_775106" data-name="Trazado 775106" d="M5.674,82.277H44.458A28.325,28.325,0,0,0,79.781,40.235l4.483-4.476a2.927,2.927,0,0,0,0-4.139l-.19-.189.636-.643a1.418,1.418,0,1,0-2.02-1.992l-.628.633-.194-.194a3,3,0,0,0-4.138,0l-4.477,4.47a28.3,28.3,0,0,0-10.834-4.734V11.349a5.674,5.674,0,0,0-5.674-5.674H47.837a2.827,2.827,0,0,0-2.443-1.419H42.161L41.713,2.91A4.256,4.256,0,0,0,37.676,0H24.741a4.256,4.256,0,0,0-4.03,2.911l-.455,1.345H17.023A2.827,2.827,0,0,0,14.58,5.674H5.674A5.674,5.674,0,0,0,0,11.349V76.6A5.674,5.674,0,0,0,5.674,82.277Zm51.069,0a25.534,25.534,0,1,1,15.6-45.708v1.643a2.89,2.89,0,0,0,.123.8l-1.739,1.741a21.352,21.352,0,1,0,2.006,2.006l1.738-1.739a2.89,2.89,0,0,0,.8.123h1.643A25.5,25.5,0,0,1,56.743,82.277ZM61,56.743a4.256,4.256,0,1,1-4.256-4.256,4.186,4.186,0,0,1,1.823.426L55.74,55.739a1.418,1.418,0,1,0,2.006,2.006l2.827-2.825A4.186,4.186,0,0,1,61,56.743Zm-.35-5.911a7.114,7.114,0,1,0,2.006,2.006L65.7,49.792a11.386,11.386,0,1,1-2-2Zm5.066-5.066a14.208,14.208,0,1,0,2.006,2.006l3.013-3.012a18.494,18.494,0,1,1-2.007-2.007Zm9.5-10.008,4.647-4.522,1.2,1.2v.009h.009l1.176,1.177v.126L77.666,38.3l-2.481-.089ZM59.58,11.349v17.18a28.214,28.214,0,0,0-2.837-.157V14.186a2.837,2.837,0,0,0-2.837-2.837H48.232V8.511h8.511A2.837,2.837,0,0,1,59.58,11.349ZM17.023,7.093h4.256a1.419,1.419,0,0,0,1.346-.971L23.4,3.807a1.419,1.419,0,0,1,1.345-.97H37.676a1.419,1.419,0,0,1,1.345.97l.772,2.315a1.419,1.419,0,0,0,1.346.97h4.256v5.674H17.023ZM45.394,15.6a2.827,2.827,0,0,0,2.443-1.419h6.069V28.513a28.3,28.3,0,0,0-17.39,8.37H26.953a1.419,1.419,0,0,0,0,2.837H34.1A28.255,28.255,0,0,0,29.3,49.65H26.953a1.419,1.419,0,0,0,0,2.837h1.773a27.208,27.208,0,0,0,.217,9.93h-1.99a1.419,1.419,0,0,0,0,2.837h2.727a28.306,28.306,0,0,0,4.42,8.511H8.511V14.186H14.58A2.827,2.827,0,0,0,17.023,15.6ZM2.837,11.349A2.837,2.837,0,0,1,5.674,8.511h8.511v2.837H8.511a2.837,2.837,0,0,0-2.837,2.837v59.58A2.837,2.837,0,0,0,8.511,76.6h28a28.762,28.762,0,0,0,3.277,2.837H5.674A2.837,2.837,0,0,1,2.837,76.6Z" transform="translate(0 0)"/>
        <circle id="Elipse_7990" data-name="Elipse 7990" cx="1.419" cy="1.419" r="1.419" transform="translate(29.79 5.674)"/>
        <path id="Trazado_775107" data-name="Trazado 775107" d="M10.416,21.677,11.834,23.1a1.419,1.419,0,0,0,1,.416h.1a1.419,1.419,0,0,0,1.034-.567l4.256-5.674a1.419,1.419,0,1,0-2.27-1.7l-3.274,4.366-.262-.262a1.418,1.418,0,1,0-2.006,2.006Z" transform="translate(4.186 6.279)"/>
        <path id="Trazado_775108" data-name="Trazado 775108" d="M19.419,19.837h19.86a1.419,1.419,0,0,0,0-2.837H19.419a1.419,1.419,0,0,0,0,2.837Z" transform="translate(7.534 7.116)"/>
        <path id="Trazado_775109" data-name="Trazado 775109" d="M15.958,24.567l-3.274,4.366-.262-.262a1.418,1.418,0,1,0-2.006,2.006L11.834,32.1a1.419,1.419,0,0,0,1,.416h.1a1.419,1.419,0,0,0,1.034-.567l4.256-5.674a1.419,1.419,0,1,0-2.27-1.7Z" transform="translate(4.186 10.046)"/>
        <path id="Trazado_775110" data-name="Trazado 775110" d="M15.958,33.567l-3.274,4.366-.262-.262a1.418,1.418,0,1,0-2.006,2.006L11.834,41.1a1.419,1.419,0,0,0,1,.416h.1a1.419,1.419,0,0,0,1.034-.567l4.256-5.674a1.419,1.419,0,1,0-2.27-1.7Z" transform="translate(4.186 13.813)"/>
        <path id="Trazado_775111" data-name="Trazado 775111" d="M15.958,42.567l-3.274,4.366-.262-.262a1.418,1.418,0,1,0-2.006,2.006L11.834,50.1a1.419,1.419,0,0,0,1,.416h.1a1.419,1.419,0,0,0,1.034-.567l4.256-5.674a1.419,1.419,0,0,0-2.27-1.7Z" transform="translate(4.186 17.58)"/>
      </g>
    </g>
  </g>
</svg>
