<svg xmlns="http://www.w3.org/2000/svg" xmlns:xlink="http://www.w3.org/1999/xlink" width="120" height="120" viewBox="0 0 120 120">
  <defs>
    <filter id="Elipse_7976" x="0" y="0" width="120" height="120" filterUnits="userSpaceOnUse">
      <feOffset dy="3" input="SourceAlpha"/>
      <feGaussianBlur stdDeviation="3" result="blur"/>
      <feFlood flood-opacity="0.161"/>
      <feComposite operator="in" in2="blur"/>
      <feComposite in="SourceGraphic"/>
    </filter>
  </defs>
  <g id="Grupo_1055072" data-name="Grupo 1055072" transform="translate(2889.5 9306.894)">
    <g transform="matrix(1, 0, 0, 1, -2889.5, -9306.89)" filter="url(#Elipse_7976)">
      <circle id="Elipse_7976-2" data-name="Elipse 7976" cx="51" cy="51" r="51" transform="translate(9 6)" fill="#ffc5ad"/>
    </g>
    <g id="Layer_32" data-name="Layer 32" transform="translate(-2878.497 -9291.756)">
      <path id="Trazado_773237" data-name="Trazado 773237" d="M31.551,17.846l-5.243,6.992A6.529,6.529,0,0,0,25,28.76h0A6.538,6.538,0,0,0,27.911,34.2l6.866,4.578,5.837-13.615Z" transform="translate(10.068 7.066)" fill="#d08d78"/>
      <path id="Trazado_773238" data-name="Trazado 773238" d="M83.553,68.2V85.23l-22.91.3-6.9-20.17L31.588,57.977a15.276,15.276,0,0,1-5.919-3.662,14.894,14.894,0,0,1-2.825-3.932L20.388,45.5a29.24,29.24,0,0,0-5.507-7.651,3.009,3.009,0,0,1,2.129-5.138,12.247,12.247,0,0,1,7.353,2.456,17.377,17.377,0,0,1,4.088,4.315l2.626,3.946a4.626,4.626,0,0,0,8.474-2.569,59.108,59.108,0,0,0-3.019-18.638l-1.239-3.7-10.22,7.665a4.258,4.258,0,0,1-6.813-3.407A5.461,5.461,0,0,1,20.587,18.3l9.695-6.785a8.375,8.375,0,0,1,10.177.426l1.547,1.292a6.873,6.873,0,0,1,8.261-.795,8.888,8.888,0,0,1,.937.7,4.684,4.684,0,0,1,7.977,1.221l.412,1.022A163.391,163.391,0,0,1,65.5,33a163.989,163.989,0,0,1,3.861,18.169Z" transform="translate(5.453 3.775)" fill="#d08d78"/>
      <path id="Trazado_773239" data-name="Trazado 773239" d="M64.957,33a163.4,163.4,0,0,0-5.9-17.615l-.412-1.022a4.684,4.684,0,0,0-7.977-1.221,8.889,8.889,0,0,0-.937-.7,6.873,6.873,0,0,0-8.261.795l-1.547-1.292a8.375,8.375,0,0,0-10.177-.426L20.046,18.3a5.461,5.461,0,0,0-2.328,4.471,4.258,4.258,0,0,0,6.813,3.407l10.22-7.665,1.235,3.691A59.13,59.13,0,0,1,39.01,40.859a4.626,4.626,0,0,1-8.474,2.569L27.91,39.482a17.377,17.377,0,0,0-4.088-4.315,12.247,12.247,0,0,0-7.353-2.456,3.024,3.024,0,0,0-1.181.243,2.981,2.981,0,0,0,.471.637,29.24,29.24,0,0,1,5.507,7.651l2.456,4.883a14.894,14.894,0,0,0,2.825,3.932,15.276,15.276,0,0,0,5.919,3.662L54.623,61.1A29.415,29.415,0,0,0,82.837,80.993h.175V68.2L68.818,51.164A163.989,163.989,0,0,0,64.957,33Z" transform="translate(5.994 3.775)" fill="#f2b9a1"/>
      <path id="Trazado_773240" data-name="Trazado 773240" d="M37.732,17.487,39.548,15.3l-4.363-3.629a6.813,6.813,0,0,0-1.187.86h0l-.908,1.09Z" transform="translate(13.461 4.477)" fill="#d08d78"/>
      <path id="Trazado_773241" data-name="Trazado 773241" d="M40.823,15.2l.937,1.874L44.3,15.81l-.933-1.864a8.243,8.243,0,0,0-1.81-2.389,4.6,4.6,0,0,0-1.069.927h0l-.945,1.06A5.394,5.394,0,0,1,40.823,15.2Z" transform="translate(16.168 4.428)" fill="#d08d78"/>
      <path id="Trazado_773242" data-name="Trazado 773242" d="M19.033,40.194,10.517,26,2,40.194H6.258V51.55h8.517V40.194Z" transform="translate(0.421 10.486)" fill="#0059be"/>
      <path id="Trazado_773243" data-name="Trazado 773243" d="M8,44.453a4.258,4.258,0,0,0,4.258,4.258V40.194h4.258L8,26Z" transform="translate(2.937 10.486)" fill="#006bdb"/>
      <path id="Trazado_773244" data-name="Trazado 773244" d="M2,13.355,10.517,27.55l8.517-14.194H14.775V2H6.258V13.355Z" transform="translate(0.421 0.419)" fill="#0059be"/>
      <path id="Trazado_773245" data-name="Trazado 773245" d="M12.258,2H8V20.453a4.241,4.241,0,0,0,2.075,3.638l6.441-10.735H12.258Z" transform="translate(2.937 0.419)" fill="#006bdb"/>
      <path id="Trazado_773246" data-name="Trazado 773246" d="M9.721,28.7a1.419,1.419,0,0,0,2.433,0L20.67,14.506a1.419,1.419,0,0,0-1.216-2.15H16.615V2.419A1.419,1.419,0,0,0,15.2,1H6.679A1.419,1.419,0,0,0,5.26,2.419v9.936H2.448a1.937,1.937,0,0,0-.406.051A1.419,1.419,0,0,0,1,13.775a1.269,1.269,0,0,0,.373,1.013ZM6.679,15.194A1.419,1.419,0,0,0,8.1,13.775V3.839h5.678v9.936A1.419,1.419,0,0,0,15.2,15.194h1.752L10.937,25.21,4.929,15.194Z" transform="translate(0)"/>
      <path id="Trazado_773247" data-name="Trazado 773247" d="M16.613,51.955V42.019h2.812a1.441,1.441,0,0,0,.406-.051,1.419,1.419,0,0,0,1.04-1.368,1.269,1.269,0,0,0-.373-1.013l-8.346-13.91a1.475,1.475,0,0,0-2.433,0L1.2,39.87a1.419,1.419,0,0,0,1.216,2.149H5.258v9.936a1.419,1.419,0,0,0,1.419,1.419h8.517A1.419,1.419,0,0,0,16.613,51.955ZM13.775,40.6v9.936H8.1V40.6A1.419,1.419,0,0,0,6.677,39.18H4.926l6.01-10.016L16.944,39.18h-1.75A1.419,1.419,0,0,0,13.775,40.6Z" transform="translate(0.002 10.081)"/>
      <path id="Trazado_773248" data-name="Trazado 773248" d="M61.322,15.252l-.4-1.012a6.1,6.1,0,0,0-9.408-2.555,8.24,8.24,0,0,0-9.038.142l-.681-.568a10.01,10.01,0,0,0-11.9-.5l-9.7,6.793a6.877,6.877,0,0,0-2.931,5.625,5.678,5.678,0,0,0,9.084,4.542l8.644-6.484.016.047-4.8,6.4a7.956,7.956,0,0,0,1.957,11.4l5.879,3.919a3.2,3.2,0,0,1-5.356.05l-2.64-3.955a18.927,18.927,0,0,0-4.413-4.66,13.768,13.768,0,0,0-8.2-2.735A4.43,4.43,0,0,0,14.3,39.257a27.939,27.939,0,0,1,5.252,7.279l2.44,4.889a16.441,16.441,0,0,0,3.1,4.3,16.624,16.624,0,0,0,6.464,4l21.5,7.165,6.671,19.5,2.686-.918L55.506,65.3a1.419,1.419,0,0,0-.894-.887L32.446,57.026a13.686,13.686,0,0,1-7.92-6.869l-2.441-4.89a30.792,30.792,0,0,0-5.778-8.017,1.591,1.591,0,0,1,1.124-2.717,10.9,10.9,0,0,1,6.5,2.167,16.164,16.164,0,0,1,3.75,3.964l2.637,3.946a6.043,6.043,0,0,0,11.072-3.346,60.294,60.294,0,0,0-3.1-19.1l-1.231-3.691a1.419,1.419,0,0,0-2.2-.691l-10.22,7.665A2.839,2.839,0,0,1,20.1,23.178a4.038,4.038,0,0,1,1.72-3.3l9.7-6.792a7.11,7.11,0,0,1,8.451.355l6.186,5.154,1.817-2.18L44.8,13.762a5.394,5.394,0,0,1,7.157,2.5l.938,1.876,2.541-1.269-.94-1.878a8.344,8.344,0,0,0-.836-1.313,3.229,3.229,0,0,1,4.625,1.62l.406,1.012a162.062,162.062,0,0,1,9.688,35.476,1.4,1.4,0,0,0,.312.693L82.88,69.508l2.18-1.817L71.12,50.961a164.862,164.862,0,0,0-9.8-35.709Zm-22.8,24.654-4.792-3.194a5.118,5.118,0,0,1-1.255-7.329l3.6-4.786a57.423,57.423,0,0,1,2.451,15.309Z" transform="translate(5.034 3.372)"/>
    </g>
  </g>
</svg>
