<svg xmlns="http://www.w3.org/2000/svg" width="83.782" height="80.5" viewBox="0 0 83.782 80.5">
  <g id="coordinacion" transform="translate(0 -10.029)" opacity="0.45">
    <path id="Trazado_778654" data-name="Trazado 778654" d="M26.491,293.59a1.227,1.227,0,0,0-1.227,1.227v5.769H2.455V292.4a7.791,7.791,0,0,1,7.783-7.783h.906l-2.511,8.534a1.227,1.227,0,0,0,.3,1.2l4.05,4.148a1.227,1.227,0,0,0,1.756,0l4.05-4.148a1.227,1.227,0,0,0,.3-1.2l-2.511-8.534h.346a1.227,1.227,0,0,0,0-2.455H10.237A10.249,10.249,0,0,0,0,292.4v9.415a1.227,1.227,0,0,0,1.227,1.227H26.491a1.227,1.227,0,0,0,1.227-1.227v-7A1.227,1.227,0,0,0,26.491,293.59Zm-12.474-8.974,2.512,8.538-2.669,2.734-2.67-2.734,2.512-8.538Z" transform="translate(0 -227.602)"/>
    <path id="Trazado_778655" data-name="Trazado 778655" d="M25.855,130.225a11.525,11.525,0,0,0,11.512-11.512v-4.959c0-.205-.006-.409-.017-.612,0-.046-.007-.091-.01-.137-.01-.159-.022-.317-.038-.473-.005-.048-.012-.095-.018-.143-.018-.155-.038-.309-.063-.462-.008-.047-.017-.094-.025-.142-.026-.152-.054-.3-.087-.453-.01-.049-.023-.1-.034-.145-.034-.147-.069-.293-.108-.438-.014-.052-.029-.1-.044-.156-.04-.139-.081-.276-.126-.413-.019-.058-.039-.115-.058-.172-.044-.128-.09-.255-.138-.38-.025-.064-.05-.128-.076-.192q-.07-.173-.146-.342c-.032-.072-.064-.144-.1-.215-.047-.1-.1-.2-.146-.3-.041-.081-.081-.162-.124-.242s-.091-.165-.138-.247-.1-.184-.158-.274c-.036-.059-.073-.117-.11-.175a11.514,11.514,0,0,0-1.172-1.557L34.359,106c-.091-.1-.186-.2-.281-.3-.042-.043-.084-.087-.127-.129-.088-.087-.178-.172-.27-.257q-.082-.076-.164-.15c-.044-.039-.086-.081-.13-.119l-.04-.036-.064-.053-.105-.087-.006-.005c-.052-.043-.1-.086-.155-.128l-.125-.1-.143-.108-.015-.011-.095-.071-.148-.107c-.064-.045-.129-.09-.195-.134l-.011-.007-.029-.02-.176-.117c-.071-.045-.142-.09-.219-.136l-.02-.012L31.8,103.9c-.045-.027-.09-.055-.133-.08s-.112-.064-.168-.1l-.024-.013-.089-.049-.071-.039-.08-.044-.086-.044-.04-.02-.161-.08-.143-.071c-.133-.064-.267-.124-.4-.182l-.132-.056q-.223-.093-.448-.177l-.032-.012a11.3,11.3,0,0,0-2.737-.63l-.036,0q-.27-.027-.543-.041l-.065,0c-.183-.009-.366-.014-.55-.014a11.489,11.489,0,0,0-6.05,1.716,1.227,1.227,0,0,0,1.291,2.087,9.034,9.034,0,0,1,4.758-1.349c.168,0,.335.006.5.015.067,0,.133.01.2.015.1.007.193.015.289.026s.165.02.247.031.156.022.234.035.176.03.264.047c.072.014.143.029.215.045.088.019.176.039.263.061s.155.042.232.063.155.042.232.066q.226.07.449.152l.1.038c.128.049.255.1.381.155l.1.047q.187.084.371.177c.073.037.147.073.219.113l.048.026q.163.09.323.186l.061.037,0,0q.156.1.308.2l.057.039q.147.1.29.207l.062.046q.142.107.279.219l.053.044c.071.059.14.12.209.181s.118.105.176.159.117.11.174.166.1.1.15.151.119.123.177.186c.043.047.085.1.128.144.06.068.12.135.177.2.036.044.071.089.107.134a9.106,9.106,0,0,1,.547.762c.045.07.09.139.133.21.033.055.064.112.1.168.046.08.093.161.136.243.027.051.053.1.079.155.046.089.091.179.133.27.022.047.043.095.064.142.044.1.086.2.127.3l.052.131q.061.159.117.319c.014.04.027.08.041.12.037.112.071.225.1.339.011.037.022.075.032.113.032.117.061.235.088.353.008.036.017.073.025.109.026.12.048.24.069.361.006.037.014.073.02.11.019.121.035.243.05.365,0,.038.01.075.014.113.013.124.022.248.03.373,0,.036.006.072.008.109q.013.241.013.483v.451a7.635,7.635,0,0,1-4.248-3.183,1.227,1.227,0,0,0-1.941-.154A11.049,11.049,0,0,1,16.8,113.874v-.12a9.041,9.041,0,0,1,1.287-4.657,1.227,1.227,0,1,0-2.1-1.264,11.5,11.5,0,0,0-1.638,5.921v4.959A11.525,11.525,0,0,0,25.855,130.225ZM16.8,116.448a13.478,13.478,0,0,0,12.708-2.9,10.043,10.043,0,0,0,5.408,3.189v1.977a9.058,9.058,0,0,1-18.115,0v-2.265Z" transform="translate(-11.996 -77.123)"/>
    <path id="Trazado_778656" data-name="Trazado 778656" d="M161.077,175.56a1.227,1.227,0,1,0-2.452-.119c-.1,1.986-.627,3.361-1.421,3.679a1.178,1.178,0,0,1-.426.081,1.671,1.671,0,0,1-.278-.019,3.174,3.174,0,0,1-.939-.32h0c-1.737-.872-3.728-3.126-5.506-6.106-.315-.528-.623-1.079-.921-1.648l1.719-.689a3.894,3.894,0,0,0,2.165-5.058h0a3.89,3.89,0,0,0-5.058-2.165l-1.719.689c-1.177-4.111-1.474-7.894-.7-10.048h0a3.178,3.178,0,0,1,.463-.885,1.622,1.622,0,0,1,.19-.207,1.158,1.158,0,0,1,.358-.231c.925-.371,2.548.534,4.236,2.361a30.7,30.7,0,0,1,5.468,9.189,36.2,36.2,0,0,1,1.984,6.7,1.227,1.227,0,1,0,2.413-.45,38.156,38.156,0,0,0-2.119-7.159,33.185,33.185,0,0,0-5.944-9.942c-2.5-2.71-4.973-3.767-6.952-2.974a3.6,3.6,0,0,0-1.105.7,4.018,4.018,0,0,0-.467.507,5.537,5.537,0,0,0-.794,1.459l-5.956,11.272L130.269,167a6.94,6.94,0,0,0-.151,12.823q.162.069.326.13l.109.038c.073.026.147.052.221.076.044.014.087.025.131.038.067.02.135.04.2.058.046.012.093.022.14.033.065.016.131.032.2.046.048.01.1.018.145.027.065.012.129.025.194.035l.148.02c.064.009.128.018.192.025s.1.009.151.013.127.011.191.015l.153.006c.063,0,.127,0,.19,0h.038c.044,0,.088,0,.131,0l.162,0h.021l1.86,4.644a3.316,3.316,0,1,0,6.157-2.466l-1.717-4.286,3.011-1.206L154.55,181.1a5.536,5.536,0,0,0,1.591.511,4.081,4.081,0,0,0,.6.046h.081a3.614,3.614,0,0,0,1.292-.256C159.363,180.9,160.887,179.482,161.077,175.56ZM148.87,165.474a1.436,1.436,0,1,1,1.068,2.666l-1.877.752-.056-.126q-.092-.209-.181-.418l-.076-.178c-.084-.2-.167-.4-.247-.6s-.158-.4-.235-.6l-.069-.184q-.08-.213-.158-.428l-.046-.128Zm-20.185,9.633a4.492,4.492,0,0,1,2.5-5.833l3.889-1.558a24.8,24.8,0,0,0,3.337,8.328l-3.889,1.558a4.541,4.541,0,0,1-.806.238l-.02.005a4.49,4.49,0,0,1-5.007-2.739Zm10.207,9.018a.862.862,0,0,1-1.592-.019l-1.717-4.286,1.6-.641,1.717,4.286A.857.857,0,0,1,138.893,184.125Zm3.931-9.535a1.227,1.227,0,0,0-.846.025l-1.248.5a22.41,22.41,0,0,1-3.336-8.329l1.248-.5a1.227,1.227,0,0,0,.629-.566l3.5-6.625c0,.021.005.042.007.063.011.1.024.21.036.316.008.067.015.134.024.2.015.116.031.233.048.351.008.058.016.116.024.175.022.148.046.3.07.447,0,.029.009.057.014.086q.045.272.1.549c.006.03.012.061.018.091.029.152.058.305.09.459.012.059.025.119.038.179.026.126.053.251.081.378.015.069.032.139.048.209.027.118.054.236.083.355.018.074.036.149.055.224.028.115.057.229.086.344.02.078.041.157.062.235q.045.17.091.34l.067.241q.048.169.1.34.036.122.072.245.051.17.1.341c.025.082.051.164.077.246.036.115.073.23.111.345.027.082.053.164.081.246q.058.175.119.351c.028.081.055.161.083.242.042.121.086.243.13.365.028.077.055.154.083.23.049.135.1.27.152.405.024.064.047.127.072.191q.115.3.234.6t.243.593c.028.068.058.135.086.2.054.128.108.256.163.382.035.079.07.158.1.236.05.114.1.227.151.34.038.083.076.165.114.248.049.107.1.213.148.318.04.084.08.168.12.252q.074.153.148.306c.041.084.083.168.125.251q.074.149.149.3l.128.248q.076.146.152.29l.13.243q.077.143.155.284l.131.236c.053.095.107.188.16.282.043.076.087.152.13.227.055.094.11.187.165.28l.13.218c.058.1.116.189.174.283.041.067.083.135.124.2.066.1.132.207.2.31l.1.161q.149.228.3.45c.038.057.077.111.116.167.064.092.127.185.192.276.046.066.093.13.14.195s.113.157.17.234.1.134.15.2.108.144.162.214l.045.06Z" transform="translate(-105.306 -117.048)"/>
    <path id="Trazado_778657" data-name="Trazado 778657" d="M349.907,44.534a5.754,5.754,0,0,0-5.611,4.517h-6.37a36.553,36.553,0,0,0-9.915-23.939l4.5-4.5a5.744,5.744,0,1,0-1.735-1.736L325.42,24.23a1.228,1.228,0,0,0,0,1.736,34.377,34.377,0,0,1,0,48.623,1.232,1.232,0,0,0-.359.866h0v.007h0a1.22,1.22,0,0,0,.183.641,1.238,1.238,0,0,0,.176.223l5.357,5.355a5.743,5.743,0,1,0,1.736-1.736l-4.5-4.5a36.553,36.553,0,0,0,9.916-23.938h6.37a5.744,5.744,0,1,0,5.612-6.972ZM333.288,13.447h0a3.29,3.29,0,1,1,0,4.657l0-.005,0,0a3.29,3.29,0,0,1,0-4.648Zm4.653,69.011h0a3.29,3.29,0,1,1-2.326-.964A3.268,3.268,0,0,1,337.94,82.458Zm11.966-28.889a3.29,3.29,0,1,1,3.29-3.29A3.294,3.294,0,0,1,349.907,53.569Z" transform="translate(-271.869)"/>
  </g>
</svg>
