<svg xmlns="http://www.w3.org/2000/svg" xmlns:xlink="http://www.w3.org/1999/xlink" width="120" height="120" viewBox="0 0 120 120">
  <defs>
    <filter id="Trazado_775081" x="0" y="0" width="120" height="120" filterUnits="userSpaceOnUse">
      <feOffset dy="3" input="SourceAlpha"/>
      <feGaussianBlur stdDeviation="3" result="blur"/>
      <feFlood flood-opacity="0.161"/>
      <feComposite operator="in" in2="blur"/>
      <feComposite in="SourceGraphic"/>
    </filter>
  </defs>
  <g id="Grupo_1055061" data-name="Grupo 1055061" transform="translate(-582.292 -5778.202)">
    <g transform="matrix(1, 0, 0, 1, 582.29, 5778.2)" filter="url(#Trazado_775081)">
      <path id="Trazado_775081-2" data-name="Trazado 775081" d="M51,0A51,51,0,1,1,0,51,51,51,0,0,1,51,0Z" transform="translate(9 6)" fill="#ffc5ad"/>
    </g>
    <g id="investigacion-de-mercado" transform="translate(596.181 5790.61)">
      <g id="Grupo_1046012" data-name="Grupo 1046012" transform="translate(1.361 1.361)">
        <g id="Grupo_1045991" data-name="Grupo 1045991" transform="translate(70.792 16.337)">
          <path id="Trazado_775112" data-name="Trazado 775112" d="M63.2,17.03l.694,4.139H53l.694-4.139a4.817,4.817,0,0,1,7.869-2.886A4.75,4.75,0,0,1,63.2,17.03Z" transform="translate(-53 -13)" fill="#e6e9ed"/>
        </g>
        <g id="Grupo_1045992" data-name="Grupo 1045992" transform="translate(54.455 35.396)">
          <path id="Trazado_775113" data-name="Trazado 775113" d="M51.2,31.03l.694,4.139H41l.694-4.139a4.817,4.817,0,0,1,7.869-2.886A4.75,4.75,0,0,1,51.2,31.03Z" transform="translate(-41 -27)" fill="#b4dd7f"/>
        </g>
        <g id="Grupo_1045993" data-name="Grupo 1045993" transform="translate(38.119 59.901)">
          <path id="Trazado_775114" data-name="Trazado 775114" d="M39.2,49.03l.694,4.139H29l.694-4.139a4.817,4.817,0,0,1,7.869-2.886A4.75,4.75,0,0,1,39.2,49.03Z" transform="translate(-29 -45)" fill="#fcd770"/>
        </g>
        <g id="Grupo_1045994" data-name="Grupo 1045994" transform="translate(70.792 29.95)">
          <path id="Trazado_775115" data-name="Trazado 775115" d="M63.891,24.361V74.733H53V24.361A1.365,1.365,0,0,1,54.361,23H62.53A1.365,1.365,0,0,1,63.891,24.361Z" transform="translate(-53 -23)" fill="#d77f4a"/>
        </g>
        <g id="Grupo_1045995" data-name="Grupo 1045995" transform="translate(54.455 49.01)">
          <path id="Trazado_775116" data-name="Trazado 775116" d="M51.891,38.361V69.673H41V38.361A1.365,1.365,0,0,1,42.361,37H50.53A1.365,1.365,0,0,1,51.891,38.361Z" transform="translate(-41 -37)" fill="#d8ecfe"/>
        </g>
        <g id="Grupo_1045996" data-name="Grupo 1045996" transform="translate(38.119 73.515)">
          <path id="Trazado_775117" data-name="Trazado 775117" d="M39.891,56.361v6.807H29V56.361A1.365,1.365,0,0,1,30.361,55H38.53A1.365,1.365,0,0,1,39.891,56.361Z" transform="translate(-29 -55)" fill="#d77f4a"/>
        </g>
        <g id="Grupo_1045997" data-name="Grupo 1045997" transform="translate(70.792 10.891)">
          <path id="Trazado_775118" data-name="Trazado 775118" d="M63.891,9A5.446,5.446,0,1,1,53,9Z" transform="translate(-53 -9)" fill="#f0d0b4"/>
        </g>
        <g id="Grupo_1045998" data-name="Grupo 1045998" transform="translate(54.455 29.95)">
          <path id="Trazado_775119" data-name="Trazado 775119" d="M41,23H51.891A5.446,5.446,0,1,1,41,23Z" transform="translate(-41 -23)" fill="#f0d0b4"/>
        </g>
        <g id="Grupo_1045999" data-name="Grupo 1045999" transform="translate(38.119 54.455)">
          <path id="Trazado_775120" data-name="Trazado 775120" d="M29,41H39.891A5.446,5.446,0,0,1,29,41Z" transform="translate(-29 -41)" fill="#f0d0b4"/>
        </g>
        <g id="Grupo_1046000" data-name="Grupo 1046000" transform="translate(54.455 24.505)">
          <path id="Trazado_775121" data-name="Trazado 775121" d="M41,24.446a5.446,5.446,0,1,1,10.891,0Z" transform="translate(-41 -19)" fill="#656d78"/>
        </g>
        <g id="Grupo_1046001" data-name="Grupo 1046001" transform="translate(70.792 5.446)">
          <path id="Trazado_775122" data-name="Trazado 775122" d="M53,10.446a5.446,5.446,0,1,1,10.891,0Z" transform="translate(-53 -5)" fill="#b27946"/>
        </g>
        <g id="Grupo_1046002" data-name="Grupo 1046002" transform="translate(38.119 49.01)">
          <path id="Trazado_775123" data-name="Trazado 775123" d="M29,42.446a5.446,5.446,0,0,1,10.891,0Z" transform="translate(-29 -37)" fill="#b27946"/>
        </g>
        <g id="Grupo_1046003" data-name="Grupo 1046003" transform="translate(19.059)">
          <path id="Trazado_775124" data-name="Trazado 775124" d="M15,9.168V3.723A2.731,2.731,0,0,1,17.723,1H50.4a2.731,2.731,0,0,1,2.723,2.723V9.168A2.731,2.731,0,0,1,50.4,11.891H36.782l-1.035,4.125a1.739,1.739,0,0,1-3.376,0l-1.035-4.125H17.723A2.731,2.731,0,0,1,15,9.168Z" transform="translate(-15 -1)" fill="#ffeaa7"/>
        </g>
        <g id="Grupo_1046004" data-name="Grupo 1046004" transform="translate(0 59.901)">
          <path id="Trazado_775125" data-name="Trazado 775125" d="M6.446,59.975v1.361H1V45H5.084a1.365,1.365,0,0,1,1.361,1.361Z" transform="translate(-1 -45)" fill="#fcd770"/>
        </g>
        <g id="Grupo_1046005" data-name="Grupo 1046005" transform="translate(24.505 70.792)">
          <path id="Trazado_775126" data-name="Trazado 775126" d="M21.723,53h2.723a2.731,2.731,0,0,1,2.723,2.723,2.743,2.743,0,0,1-2.723,2.723H21.723A2.731,2.731,0,0,1,19,55.723,2.743,2.743,0,0,1,21.723,53Z" transform="translate(-19 -53)" fill="#f0d0b4"/>
        </g>
        <g id="Grupo_1046006" data-name="Grupo 1046006" transform="translate(24.505 65.346)">
          <path id="Trazado_775127" data-name="Trazado 775127" d="M21.723,49h2.723a2.731,2.731,0,0,1,2.723,2.723,2.743,2.743,0,0,1-2.723,2.723H21.723A2.731,2.731,0,0,1,19,51.723,2.743,2.743,0,0,1,21.723,49Z" transform="translate(-19 -49)" fill="#f0d0b4"/>
        </g>
        <g id="Grupo_1046007" data-name="Grupo 1046007" transform="translate(24.505 59.901)">
          <path id="Trazado_775128" data-name="Trazado 775128" d="M24.446,45a2.731,2.731,0,0,1,2.723,2.723,2.743,2.743,0,0,1-2.723,2.723H21.723A2.731,2.731,0,0,1,19,47.723a2.662,2.662,0,0,1,.8-1.92,2.733,2.733,0,0,1,1.375-.749A2.385,2.385,0,0,1,21.723,45Z" transform="translate(-19 -45)" fill="#f0d0b4"/>
        </g>
        <g id="Grupo_1046008" data-name="Grupo 1046008" transform="translate(5.446 54.455)">
          <path id="Trazado_775129" data-name="Trazado 775129" d="M18.614,61.421V65.5H14.856A13.954,13.954,0,0,1,5,61.421V47.807A14.018,14.018,0,0,1,17.021,41H28.144A1.365,1.365,0,0,1,29.5,42.361a4.074,4.074,0,0,1-1.2,2.886,4,4,0,0,1-2.083,1.116,3.921,3.921,0,0,1-.8.082H21.337a9.439,9.439,0,0,1-2.723,2.968Z" transform="translate(-5 -41)" fill="#f0d0b4"/>
        </g>
        <g id="Grupo_1046009" data-name="Grupo 1046009" transform="translate(19.059 59.819)">
          <path id="Trazado_775130" data-name="Trazado 775130" d="M15,47.989a9.439,9.439,0,0,0,2.723-2.968h4.084a3.921,3.921,0,0,0,.8-.082l.014.136a2.733,2.733,0,0,0-1.375.749,2.662,2.662,0,0,0-.8,1.92,2.731,2.731,0,0,0,2.723,2.723,2.743,2.743,0,0,0-2.723,2.723,2.731,2.731,0,0,0,2.723,2.723,2.743,2.743,0,0,0-2.723,2.723,2.731,2.731,0,0,0,2.723,2.723v2.723A2.731,2.731,0,0,1,20.446,66.8H17.723A2.731,2.731,0,0,1,15,64.081V47.989Z" transform="translate(-15 -44.94)" fill="#969faa"/>
        </g>
        <g id="Grupo_1046010" data-name="Grupo 1046010" transform="translate(2.723 16.337)">
          <path id="Trazado_775131" data-name="Trazado 775131" d="M22.059,51.119A19.059,19.059,0,1,1,41.119,32.059,19.063,19.063,0,0,1,22.059,51.119Z" transform="translate(-3 -13)" fill="#ccd1d9"/>
        </g>
        <g id="Grupo_1046011" data-name="Grupo 1046011" transform="translate(8.168 21.782)">
          <circle id="Elipse_7991" data-name="Elipse 7991" cx="13.614" cy="13.614" r="13.614" fill="#69d6f4"/>
        </g>
      </g>
      <g id="Grupo_1046013" data-name="Grupo 1046013">
        <path id="Trazado_775132" data-name="Trazado 775132" d="M43.564,32.421a20.421,20.421,0,1,0-29.218,18.4,15.5,15.5,0,0,0-7.558,5.112,2.681,2.681,0,0,0-1.342-.369H0V74.624H7.965a15.192,15.192,0,0,0,8.7,2.723h2.644a4.079,4.079,0,0,0,3.834,2.723h2.723a4.089,4.089,0,0,0,4.084-4.084V74.624h1.361a4.067,4.067,0,0,0,3.022-6.807,4.022,4.022,0,0,0,0-5.446,4.05,4.05,0,0,0-2.449-6.748,5.41,5.41,0,0,0,.787-2.781,2.711,2.711,0,0,0-.847-1.964A20.428,20.428,0,0,0,43.564,32.421ZM5.446,71.9H2.723V58.287H5.446Zm20.421,5.446H23.144a1.362,1.362,0,0,1-1.361-1.361V60.6a8.619,8.619,0,0,0,2.155-2.317h.818a3.959,3.959,0,0,0,.811,4.084,4.022,4.022,0,0,0,0,5.446,4.047,4.047,0,0,0,1.661,6.556v1.612A1.362,1.362,0,0,1,25.866,77.346Zm6.807-12.252a1.362,1.362,0,0,1-1.361,1.361H28.589a1.361,1.361,0,1,1,0-2.723h2.723A1.362,1.362,0,0,1,32.673,65.094ZM31.312,71.9H28.589a1.361,1.361,0,1,1,0-2.723h2.723a1.361,1.361,0,1,1,0,2.723Zm1.361-12.252a1.362,1.362,0,0,1-1.361,1.361H28.589a1.361,1.361,0,0,1,0-2.723h2.723A1.362,1.362,0,0,1,32.673,59.648ZM29.95,52.842a2.726,2.726,0,0,1-2.723,2.723H22.3l-.376.753a5.951,5.951,0,0,1-3.462,3l-1.2.4L18.13,62.3l.93-.31v6.14a13.957,13.957,0,0,0-5.015-2.966l-.862,2.581a11.254,11.254,0,0,1,5.77,4.407l.108.162v2.31H16.666a12.483,12.483,0,0,1-8.5-3.323V58.708a12.715,12.715,0,0,1,10.661-5.866Zm-6.807-2.723a17.7,17.7,0,1,1,17.7-17.7A17.718,17.718,0,0,1,23.144,50.119Z" transform="translate(0 4.337)"/>
        <path id="Trazado_775133" data-name="Trazado 775133" d="M20.975,16A14.975,14.975,0,1,0,35.95,30.975,14.993,14.993,0,0,0,20.975,16Zm0,27.228A12.252,12.252,0,1,1,33.228,30.975,12.266,12.266,0,0,1,20.975,43.228Z" transform="translate(2.168 5.782)"/>
        <path id="Trazado_775134" data-name="Trazado 775134" d="M18,4h2.723V6.723H18Z" transform="translate(6.505 1.446)"/>
        <path id="Trazado_775135" data-name="Trazado 775135" d="M22,4h2.723V6.723H22Z" transform="translate(7.95 1.446)"/>
        <path id="Trazado_775136" data-name="Trazado 775136" d="M26,4h2.723V6.723H26Z" transform="translate(9.396 1.446)"/>
        <path id="Trazado_775137" data-name="Trazado 775137" d="M30,4h2.723V6.723H30Z" transform="translate(10.841 1.446)"/>
        <path id="Trazado_775138" data-name="Trazado 775138" d="M34,4h2.723V6.723H34Z" transform="translate(12.287 1.446)"/>
        <path id="Trazado_775139" data-name="Trazado 775139" d="M38,4h2.723V6.723H38Z" transform="translate(13.733 1.446)"/>
        <path id="Trazado_775140" data-name="Trazado 775140" d="M18.084,13.614H30.636l.773,3.094a3.1,3.1,0,0,0,6.023,0l.773-3.093H50.757A4.089,4.089,0,0,0,54.842,9.53V4.084A4.089,4.089,0,0,0,50.757,0H18.084A4.089,4.089,0,0,0,14,4.084V9.53a4.089,4.089,0,0,0,4.084,4.084Zm-1.361-9.53a1.362,1.362,0,0,1,1.361-1.361H50.757a1.362,1.362,0,0,1,1.361,1.361V9.53a1.362,1.362,0,0,1-1.361,1.361H36.082l-1.289,5.156a.4.4,0,0,1-.742,0L32.76,10.891H18.084A1.362,1.362,0,0,1,16.723,9.53Z" transform="translate(5.059)"/>
        <path id="Trazado_775141" data-name="Trazado 775141" d="M52.775,20.058l-.956,5.725H65.924l-.954-5.725a6.157,6.157,0,0,0-2.14-3.736,6.807,6.807,0,1,0-7.915,0A6.157,6.157,0,0,0,52.775,20.058Zm6.1-13.335a4.079,4.079,0,0,1,3.834,2.723H55.04A4.076,4.076,0,0,1,58.872,6.723Zm-3.834,5.446H62.7a4.059,4.059,0,0,1-7.666,0ZM62.285,20.5l.425,2.555H55.033l.426-2.555a3.46,3.46,0,0,1,6.826,0Z" transform="translate(18.727 1.446)"/>
        <path id="Trazado_775142" data-name="Trazado 775142" d="M40.065,24.807a6.79,6.79,0,0,0,2.849,5.515,6.157,6.157,0,0,0-2.14,3.736l-.956,5.725H53.924l-.954-5.725a6.157,6.157,0,0,0-2.14-3.736,6.8,6.8,0,1,0-10.764-5.515Zm10.22,9.7.425,2.555H43.033l.426-2.555a3.46,3.46,0,0,1,6.826,0Zm-7.247-8.336H50.7a4.059,4.059,0,0,1-7.666,0Zm3.834-5.446a4.079,4.079,0,0,1,3.834,2.723H43.04A4.076,4.076,0,0,1,46.872,20.723Z" transform="translate(14.39 6.505)"/>
        <path id="Trazado_775143" data-name="Trazado 775143" d="M71.564,22H63.4a2.726,2.726,0,0,0-2.723,2.723v49.01H57.95V43.782a2.726,2.726,0,0,0-2.723-2.723H47.059a2.726,2.726,0,0,0-2.723,2.723v29.95H41.614V68.287a2.726,2.726,0,0,0-2.723-2.723H30.723A2.726,2.726,0,0,0,28,68.287v8.168H74.287V24.723A2.726,2.726,0,0,0,71.564,22ZM38.891,73.733H30.723V68.287h8.168Zm8.168-29.95h8.168v29.95H47.059Zm24.5,29.95H63.4V24.723h8.168Z" transform="translate(10.119 7.95)"/>
        <path id="Trazado_775144" data-name="Trazado 775144" d="M28.775,52.058l-.956,5.725H41.924l-.954-5.725a6.157,6.157,0,0,0-2.14-3.736,6.807,6.807,0,1,0-7.915,0A6.157,6.157,0,0,0,28.775,52.058Zm6.1-13.335a4.079,4.079,0,0,1,3.834,2.723H31.04A4.076,4.076,0,0,1,34.872,38.723Zm-3.834,5.446H38.7a4.059,4.059,0,0,1-7.666,0ZM38.285,52.5l.425,2.555H31.033l.426-2.555a3.46,3.46,0,0,1,6.826,0Z" transform="translate(10.053 13.01)"/>
      </g>
    </g>
  </g>
</svg>
