<svg xmlns="http://www.w3.org/2000/svg" xmlns:xlink="http://www.w3.org/1999/xlink" width="400" height="525" viewBox="0 0 400 525">
  <defs>
    <clipPath id="clip-path">
      <rect id="Rect치ngulo_365053" data-name="Rect치ngulo 365053" width="400" height="525" transform="translate(1020 3763.572)" fill="#12263f" stroke="#707070" stroke-width="1" opacity="0.22"/>
    </clipPath>
  </defs>
  <g id="Enmascarar_grupo_690" data-name="Enmascarar grupo 690" transform="translate(-1020 -3763.572)" clip-path="url(#clip-path)">
    <path id="Uni칩n_19" data-name="Uni칩n 19" d="M0,109H400V243H0Z" transform="translate(1420 4397.572) rotate(180)" fill="#ff986d"/>
    <g id="_7000947" data-name="7000947" transform="translate(926.238 3736.06)">
      <g id="Background_Complete" data-name="Background Complete" transform="translate(0)">
        <g id="Grupo_1053507" data-name="Grupo 1053507">
          <path id="Trazado_788331" data-name="Trazado 788331" d="M342.037,237.049c56.237-.527,107.13-1,144.016-1.348,18.4-.082,33.3-.152,43.649-.211,5.122.012,9.107.023,11.862.023,1.325.012,2.356.035,3.083.035a5.664,5.664,0,0,1,1.055.059,6.005,6.005,0,0,1-1.055.07c-.738.012-1.758.035-3.083.07-2.754.035-6.74.082-11.862.141-10.35.059-25.247.129-43.649.234-36.886.023-87.79.059-144.028.094-56.214,0-107.118.07-143.969.328-18.425.129-33.335.3-43.637.492-5.157.094-9.154.2-11.862.3a23.4,23.4,0,0,0-4.138.3,22.791,22.791,0,0,0,4.138.258c2.708.07,6.716.141,11.873.188,10.3.094,25.224.117,43.649.059,36.851-.105,87.755-.539,143.957-1.1Z" transform="translate(-138.42 40.528)" fill="#ebebeb"/>
          <path id="Trazado_788332" data-name="Trazado 788332" d="M340.787,252.073c55.464-9.013,105.665-17.183,142.047-23.09C501,226.123,515.7,223.8,525.92,222.2c5.063-.762,9-1.348,11.733-1.758q1.969-.281,3.059-.422a7.78,7.78,0,0,1,1.043-.105,6.543,6.543,0,0,1-1.031.223c-.727.129-1.723.3-3.036.539-2.719.445-6.646,1.1-11.7,1.934-10.209,1.617-24.919,3.95-43.075,6.822L340.658,251.252c-55.534,8.474-105.805,16.234-142.164,22.059-18.179,2.907-32.877,5.333-43.028,7.079-5.075.879-9.013,1.582-11.674,2.1a22.886,22.886,0,0,0-4.032.926,22.085,22.085,0,0,0,4.126-.363c2.7-.328,6.658-.879,11.756-1.606,10.2-1.465,24.931-3.692,43.122-6.529,36.382-5.661,86.595-13.784,142.035-22.844Z" transform="translate(-136.045 37.846)" fill="#ebebeb"/>
          <path id="Trazado_788333" data-name="Trazado 788333" d="M337.132,266.772c53.319-17.394,101.562-33.135,136.538-44.552,17.476-5.6,31.623-10.15,41.445-13.3,4.876-1.524,8.674-2.708,11.3-3.528,1.266-.387,2.25-.68,2.954-.891a6.432,6.432,0,0,1,1.02-.258,6.646,6.646,0,0,1-.973.387c-.692.234-1.653.563-2.907,1-2.6.856-6.388,2.11-11.24,3.7-9.822,3.165-23.969,7.712-41.434,13.327-35.081,11.1-83.477,26.407-136.948,43.321-53.459,16.867-101.855,32.221-136.819,43.532-17.488,5.661-31.612,10.3-41.352,13.585-4.864,1.641-8.638,2.942-11.182,3.856a21.938,21.938,0,0,0-3.833,1.535,22.079,22.079,0,0,0,4.02-.985c2.6-.738,6.435-1.887,11.346-3.387,9.834-3,24.016-7.466,41.528-13.045,35.011-11.17,83.278-26.876,136.561-44.305Z" transform="translate(-129.296 35.149)" fill="#ebebeb"/>
          <path id="Trazado_788334" data-name="Trazado 788334" d="M331.207,280.7c49.838-25.329,94.94-48.255,127.63-64.864,16.351-8.216,29.584-14.862,38.773-19.469,4.571-2.25,8.123-4.009,10.584-5.216,1.2-.574,2.11-1.008,2.766-1.324a5.345,5.345,0,0,1,.961-.41,6.263,6.263,0,0,1-.9.527c-.645.34-1.547.809-2.719,1.43-2.438,1.242-5.966,3.059-10.5,5.38-9.189,4.618-22.422,11.276-38.761,19.5C426.194,232.589,380.881,255.1,330.809,280c-50.06,24.837-95.362,47.4-128.064,63.926-16.351,8.263-29.549,15-38.632,19.726-4.548,2.368-8.064,4.22-10.432,5.509a22.3,22.3,0,0,0-3.54,2.1,20.887,20.887,0,0,0,3.809-1.594c2.45-1.137,6.048-2.848,10.654-5.087,9.224-4.477,22.516-11.041,38.89-19.246,32.772-16.386,77.9-39.277,127.688-64.63Z" transform="translate(-118.377 32.599)" fill="#ebebeb"/>
          <path id="Trazado_788335" data-name="Trazado 788335" d="M323.041,293.514c45.149-32.584,86.009-62.086,115.628-83.465,14.827-10.6,26.829-19.164,35.163-25.13,4.149-2.919,7.384-5.192,9.611-6.763,1.09-.75,1.922-1.324,2.52-1.735a4.72,4.72,0,0,1,.891-.551,7.537,7.537,0,0,1-.809.656c-.586.434-1.395,1.043-2.45,1.828-2.2,1.606-5.4,3.927-9.506,6.9-8.334,5.966-20.324,14.546-35.151,25.153-29.818,21.11-70.947,50.248-116.4,82.434-45.454,32.139-86.571,61.3-116.2,82.6-14.815,10.643-26.771,19.3-34.987,25.364-4.1,3.024-7.279,5.392-9.412,7.033a19.769,19.769,0,0,0-3.153,2.614,21,21,0,0,0,3.5-2.157c2.239-1.489,5.509-3.727,9.7-6.634,8.392-5.825,20.465-14.335,35.327-24.907,29.736-21.156,70.619-50.623,115.721-83.231Z" transform="translate(-103.436 30.267)" fill="#ebebeb"/>
          <path id="Trazado_788336" data-name="Trazado 788336" d="M312.95,304.887c39.383-39.019,75.026-74.323,100.859-99.921,12.952-12.706,23.43-23,30.721-30.135,3.634-3.516,6.458-6.247,8.416-8.134.949-.9,1.688-1.594,2.215-2.086a6.611,6.611,0,0,1,.785-.68,7.184,7.184,0,0,1-.691.774c-.5.516-1.207,1.242-2.133,2.168-1.922,1.922-4.712,4.688-8.287,8.263-7.279,7.15-17.757,17.441-30.7,30.158-26.068,25.364-62.039,60.363-101.785,99.031-39.758,38.621-75.706,73.643-101.574,99.16-12.94,12.753-23.36,23.114-30.5,30.334-3.575,3.61-6.329,6.435-8.17,8.369a21.72,21.72,0,0,0-2.708,3.059,21.078,21.078,0,0,0,3.118-2.661c1.969-1.805,4.853-4.513,8.521-8.029,7.361-7.021,17.921-17.253,30.908-29.947,25.985-25.4,61.664-60.68,101-99.711Z" transform="translate(-84.977 28.212)" fill="#ebebeb"/>
          <path id="Trazado_788337" data-name="Trazado 788337" d="M301.158,314.581c32.666-44.493,62.215-84.766,83.641-113.952,10.76-14.511,19.469-26.255,25.517-34.413,3.024-4.02,5.38-7.15,7.009-9.306.8-1.031,1.407-1.828,1.852-2.4a5.669,5.669,0,0,1,.668-.8,6.061,6.061,0,0,1-.563.867c-.422.586-1,1.407-1.758,2.473-1.594,2.18-3.9,5.345-6.857,9.412-6.048,8.158-14.745,19.914-25.493,34.425-21.7,29-51.631,69-84.708,113.213-33.1,44.165-63,84.192-84.473,113.307-10.736,14.558-19.375,26.372-25.27,34.577-2.954,4.1-5.228,7.314-6.728,9.506a20.772,20.772,0,0,0-2.18,3.434,21.338,21.338,0,0,0,2.661-3.094c1.664-2.086,4.067-5.192,7.138-9.213,6.142-8.041,14.944-19.75,25.739-34.26,21.6-29.009,51.2-69.271,83.805-113.764Z" transform="translate(-63.421 26.453)" fill="#ebebeb"/>
          <path id="Trazado_788338" data-name="Trazado 788338" d="M287.918,322.367c25.095-48.912,47.81-93.182,64.278-125.262,8.3-15.964,15.015-28.892,19.668-37.871,2.344-4.431,4.173-7.876,5.427-10.256.621-1.137,1.1-2.016,1.442-2.649a6.227,6.227,0,0,1,.527-.879,5.734,5.734,0,0,1-.41.938c-.316.645-.762,1.535-1.336,2.708-1.219,2.4-2.989,5.872-5.263,10.338-4.653,8.978-11.358,21.907-19.644,37.882-16.761,31.94-39.9,76-65.45,124.688-25.587,48.642-48.677,92.725-65.2,124.747-8.263,16-14.886,28.986-19.4,38-2.25,4.5-3.985,8.017-5.122,10.408a20.5,20.5,0,0,0-1.594,3.716,21.063,21.063,0,0,0,2.133-3.458c1.3-2.309,3.188-5.743,5.567-10.186,4.77-8.873,11.58-21.778,19.914-37.742,16.667-31.94,39.429-76.2,64.477-125.1Z" transform="translate(-39.269 25.032)" fill="#ebebeb"/>
          <path id="Trazado_788339" data-name="Trazado 788339" d="M273.543,328.045c16.866-52.147,32.127-99.324,43.192-133.537,5.6-17.031,10.15-30.826,13.292-40.4,1.594-4.735,2.836-8.416,3.7-10.959.434-1.219.762-2.168,1-2.836a5.538,5.538,0,0,1,.387-.949,6.651,6.651,0,0,1-.258,1c-.211.68-.5,1.641-.879,2.872-.82,2.555-2,6.259-3.516,11.018-3.141,9.576-7.677,23.372-13.268,40.414-11.393,34.108-27.1,81.156-44.458,133.139-17.394,51.947-33.065,99.019-44.2,133.162-5.567,17.066-10.01,30.908-13.01,40.484-1.5,4.794-2.637,8.521-3.376,11.065a19.508,19.508,0,0,0-.973,3.915,20.264,20.264,0,0,0,1.547-3.739c.914-2.485,2.215-6.165,3.856-10.912,3.282-9.494,7.912-23.278,13.549-40.32,11.287-34.1,26.595-81.273,43.415-133.408Z" transform="translate(-13.091 23.984)" fill="#ebebeb"/>
          <path id="Trazado_788340" data-name="Trazado 788340" d="M258.428,331.432c8.216-54.069,15.648-103,21.039-138.472,2.778-17.675,5.028-32,6.587-41.938.809-4.923,1.442-8.744,1.875-11.393.223-1.278.4-2.25.527-2.954a5.719,5.719,0,0,1,.223-1,4.767,4.767,0,0,1-.094,1.02c-.094.7-.234,1.688-.41,2.977-.4,2.649-.961,6.482-1.7,11.416-1.559,9.939-3.8,24.251-6.564,41.938-5.72,35.421-13.62,84.286-22.34,138.284-8.767,53.963-16.62,102.84-22.094,138.261-2.743,17.71-4.888,32.045-6.294,41.973-.7,4.958-1.219,8.814-1.535,11.44a19.872,19.872,0,0,0-.328,4.02,20.492,20.492,0,0,0,.914-3.927c.5-2.59,1.184-6.423,2.039-11.369,1.7-9.881,4.044-24.192,6.857-41.891,5.638-35.4,13.116-84.333,21.285-138.378Z" transform="translate(14.437 23.35)" fill="#ebebeb"/>
          <path id="Trazado_788341" data-name="Trazado 788341" d="M242.861,332.474c-.5-54.655-.961-104.118-1.3-139.972-.082-17.886-.141-32.362-.188-42.418.012-4.981.023-8.861.035-11.533.023-1.289.035-2.286.047-3a5.171,5.171,0,0,1,.059-1.02,5.781,5.781,0,0,1,.07,1.02c.012.715.035,1.711.07,3,.035,2.672.082,6.552.141,11.533.047,10.057.117,24.532.211,42.418V332.474c-.035,54.632,0,104.106.246,139.914.117,17.91.281,32.4.481,42.418.094,5,.2,8.9.3,11.533a22.018,22.018,0,0,0,.3,4.02,19.523,19.523,0,0,0,.27-4.02c.082-2.637.141-6.529.2-11.533.094-10.021.129-24.509.082-42.418-.082-35.819-.5-85.282-1.043-139.914Z" transform="translate(42.698 23.153)" fill="#ebebeb"/>
          <path id="Trazado_788342" data-name="Trazado 788342" d="M236.989,331.162c-9.248-53.917-17.6-102.711-23.676-138.073-2.93-17.652-5.31-31.951-6.962-41.879-.785-4.923-1.383-8.756-1.805-11.4-.188-1.278-.328-2.262-.434-2.965a5.546,5.546,0,0,1-.105-1.02,5.617,5.617,0,0,1,.234,1c.129.7.316,1.676.551,2.954.457,2.637,1.125,6.458,1.993,11.369,1.653,9.928,4.044,24.216,7,41.867,5.732,35.421,13.632,84.286,22.375,138.273,8.685,53.975,16.632,102.84,22.61,138.179,2.977,17.675,5.462,31.963,7.255,41.832.891,4.935,1.617,8.756,2.145,11.346a21.856,21.856,0,0,0,.949,3.927,19.847,19.847,0,0,0-.363-4.02c-.34-2.614-.9-6.47-1.653-11.428-1.5-9.916-3.786-24.227-6.693-41.914-5.8-35.362-14.135-84.168-23.419-138.05Z" transform="translate(61.263 23.375)" fill="#ebebeb"/>
          <path id="Trazado_788343" data-name="Trazado 788343" d="M231.052,327.5c-17.863-51.83-34.038-98.726-45.759-132.729-5.755-16.984-10.42-30.744-13.655-40.285-1.571-4.747-2.79-8.427-3.634-10.983-.387-1.231-.691-2.18-.914-2.872a5.865,5.865,0,0,1-.27-.985,6.164,6.164,0,0,1,.387.949c.246.668.586,1.606,1.02,2.825.879,2.532,2.168,6.2,3.809,10.924,3.247,9.553,7.923,23.29,13.69,40.273,11.393,34.1,27.122,81.144,44.493,133.127,17.324,51.971,33.088,99.019,44.7,133,5.814,17,10.572,30.732,13.948,40.191,1.688,4.735,3.024,8.4,3.962,10.877a19.51,19.51,0,0,0,1.582,3.727,20.2,20.2,0,0,0-1.008-3.915c-.762-2.532-1.934-6.247-3.481-11.029-3.083-9.553-7.666-23.348-13.4-40.367-11.463-34.038-27.6-80.957-45.5-132.752Z" transform="translate(79.566 24.034)" fill="#ebebeb"/>
          <path id="Trazado_788344" data-name="Trazado 788344" d="M225.329,321.578c-26.032-48.455-49.592-92.3-66.657-124.078-8.439-15.894-15.272-28.763-20.008-37.695-2.321-4.442-4.114-7.9-5.368-10.291-.586-1.16-1.043-2.051-1.36-2.7a4.936,4.936,0,0,1-.422-.938,7.426,7.426,0,0,1,.539.879c.352.621.832,1.5,1.465,2.637,1.278,2.368,3.141,5.8,5.521,10.209,4.747,8.931,11.592,21.789,20.043,37.683,16.773,31.928,39.922,75.987,65.5,124.665,25.528,48.677,48.712,92.713,65.7,124.5,8.486,15.894,15.413,28.728,20.277,37.566,2.426,4.419,4.337,7.83,5.673,10.139a22.09,22.09,0,0,0,2.157,3.446,19.625,19.625,0,0,0-1.641-3.7c-1.16-2.379-2.919-5.872-5.228-10.361-4.595-8.967-11.346-21.883-19.773-37.812C274.909,413.869,251.385,370,225.329,321.589Z" transform="translate(96.987 25.106)" fill="#ebebeb"/>
          <path id="Trazado_788345" data-name="Trazado 788345" d="M220.083,313.555l-85.8-112.428c-10.889-14.417-19.7-26.091-25.833-34.19-3-4.032-5.333-7.173-6.951-9.342-.762-1.055-1.36-1.864-1.782-2.45a6.691,6.691,0,0,1-.574-.856,8.053,8.053,0,0,1,.68.785c.445.563,1.067,1.36,1.875,2.379,1.653,2.145,4.032,5.251,7.1,9.236,6.13,8.1,14.956,19.762,25.857,34.178,21.707,28.986,51.654,68.99,84.743,113.178,33.041,44.2,63.024,84.18,84.907,112.99,10.936,14.405,19.844,26.032,26.068,34.014,3.106,4,5.544,7.079,7.232,9.154a20.805,20.805,0,0,0,2.684,3.071,20.9,20.9,0,0,0-2.215-3.411c-1.535-2.18-3.833-5.357-6.822-9.435-5.978-8.158-14.733-19.891-25.61-34.342-21.754-28.916-52.041-68.673-85.563-112.522Z" transform="translate(113.016 26.553)" fill="#ebebeb"/>
          <path id="Trazado_788346" data-name="Trazado 788346" d="M215.351,303.66c-40.121-38.3-76.433-72.963-102.746-98.093-13.069-12.6-23.641-22.786-30.99-29.877-3.61-3.528-6.423-6.282-8.369-8.181-.926-.926-1.641-1.641-2.145-2.157a7.562,7.562,0,0,1-.7-.762,7.149,7.149,0,0,1,.8.68c.527.492,1.266,1.184,2.239,2.075,1.969,1.864,4.829,4.571,8.486,8.052,7.349,7.079,17.933,17.265,31,29.853,26.079,25.353,62.063,60.34,101.832,99,39.711,38.668,75.729,73.62,101.961,98.785,13.116,12.577,23.77,22.715,31.2,29.666,3.716,3.469,6.611,6.154,8.6,7.947a21.611,21.611,0,0,0,3.141,2.625,21.254,21.254,0,0,0-2.731-3.036c-1.864-1.922-4.642-4.712-8.252-8.287-7.22-7.15-17.734-17.429-30.791-30.053-26.114-25.27-62.4-59.965-102.535-98.222Z" transform="translate(127.348 28.326)" fill="#ebebeb"/>
          <path id="Trazado_788347" data-name="Trazado 788347" d="M211.291,292.1c-45.759-31.776-87.181-60.527-117.2-81.367C79.172,200.27,67.088,191.8,58.707,185.911c-4.138-2.942-7.349-5.239-9.576-6.822-1.067-.774-1.887-1.371-2.473-1.805a5.741,5.741,0,0,1-.809-.645,6.447,6.447,0,0,1,.891.551c.6.41,1.442.973,2.543,1.711,2.25,1.547,5.5,3.786,9.682,6.669,8.392,5.884,20.477,14.346,35.409,24.8,29.818,21.11,70.971,50.224,116.425,82.4,45.419,32.2,86.595,61.277,116.53,82.164,14.968,10.443,27.122,18.847,35.561,24.591,4.22,2.872,7.513,5.075,9.775,6.552a22,22,0,0,0,3.528,2.122,20.867,20.867,0,0,0-3.188-2.59c-2.145-1.618-5.345-3.962-9.482-6.939-8.275-5.978-20.312-14.534-35.233-25.036-29.842-21.016-71.24-49.8-117-81.52Z" transform="translate(139.588 30.4)" fill="#ebebeb"/>
          <path id="Trazado_788348" data-name="Trazado 788348" d="M208.071,279.164c-50.318-24.427-95.843-46.532-128.849-62.555C62.8,208.533,49.509,202,40.273,197.468c-4.559-2.286-8.1-4.055-10.549-5.286-1.172-.609-2.075-1.067-2.731-1.407-.609-.328-.914-.5-.914-.516a8.885,8.885,0,0,1,.973.4q.985.457,2.778,1.3c2.461,1.184,6.036,2.907,10.631,5.122C49.7,201.618,63,208.135,79.421,216.2l128.251,63.692c50.037,24.9,95.385,47.376,128.31,63.446,16.468,8.041,29.818,14.487,39.078,18.883,4.63,2.192,8.24,3.88,10.7,4.981a22.064,22.064,0,0,0,3.833,1.559,21.844,21.844,0,0,0-3.563-2.075c-2.379-1.266-5.907-3.094-10.479-5.415-9.131-4.642-22.4-11.264-38.82-19.375-32.854-16.222-78.378-38.363-128.685-62.742Z" transform="translate(149.361 32.744)" fill="#ebebeb"/>
          <path id="Trazado_788349" data-name="Trazado 788349" d="M205.671,265.125C152.035,248.7,103.487,233.83,68.3,223.059,50.778,217.6,36.6,213.178,26.738,210.107c-4.864-1.559-8.662-2.766-11.276-3.6-1.254-.422-2.227-.738-2.919-.973a5.961,5.961,0,0,1-.985-.375,5.706,5.706,0,0,1,1.02.246c.7.2,1.688.492,2.954.856,2.625.8,6.435,1.946,11.334,3.434,9.857,3.059,24.04,7.466,41.574,12.917C103.522,233.7,151.918,249,205.4,265.9c53.436,16.937,101.855,32.2,136.983,43.039,17.558,5.427,31.787,9.752,41.656,12.67,4.935,1.453,8.767,2.567,11.381,3.282a22.262,22.262,0,0,0,4.032.949,21.693,21.693,0,0,0-3.845-1.5c-2.555-.891-6.341-2.157-11.229-3.751-9.775-3.188-23.946-7.7-41.481-13.2-35.069-10.994-83.606-25.9-137.229-42.278Z" transform="translate(156.52 35.307)" fill="#ebebeb"/>
          <path id="Trazado_788350" data-name="Trazado 788350" d="M204.2,250.368C148.574,242.351,98.232,235.1,61.733,229.833c-18.191-2.708-32.913-4.911-43.145-6.435-5.063-.8-9-1.407-11.721-1.828-1.313-.223-2.321-.387-3.036-.516a5.482,5.482,0,0,1-1.031-.223,5.1,5.1,0,0,1,1.055.094c.727.094,1.746.223,3.059.4,2.719.387,6.669.938,11.744,1.653,10.232,1.512,24.954,3.7,43.145,6.4,36.441,5.579,86.712,13.292,142.269,21.8,55.522,8.556,105.805,16.222,142.246,21.555,18.214,2.672,32.971,4.77,43.18,6.142,5.11.692,9.072,1.2,11.768,1.5a23.608,23.608,0,0,0,4.138.328,22.151,22.151,0,0,0-4.044-.891c-2.672-.492-6.611-1.16-11.7-1.981-10.162-1.653-24.9-3.95-43.1-6.693-36.417-5.5-86.759-12.8-142.375-20.77Z" transform="translate(160.837 38.003)" fill="#ebebeb"/>
          <path id="Trazado_788351" data-name="Trazado 788351" d="M203.664,235.638c-56.237.457-107.13.867-144.016,1.172-18.4.059-33.3.117-43.649.152-5.122-.023-9.107-.035-11.862-.047-1.324-.023-2.356-.035-3.083-.047A5.661,5.661,0,0,1,0,236.81a6.006,6.006,0,0,1,1.055-.07c.738-.012,1.758-.035,3.083-.07,2.754-.035,6.74-.07,11.862-.129,10.35-.047,25.247-.105,43.649-.176,36.886.023,87.779.047,144.028.082,56.214.07,107.118.059,143.969-.152,18.425-.105,33.335-.258,43.637-.445,5.157-.094,9.154-.188,11.862-.281a22.258,22.258,0,0,0,4.138-.281,23.291,23.291,0,0,0-4.138-.27c-2.719-.082-6.716-.141-11.873-.2-10.3-.105-25.224-.141-43.649-.105C310.77,234.771,259.866,235.146,203.664,235.638Z" transform="translate(162.242 40.392)" fill="#ebebeb"/>
          <path id="Trazado_788352" data-name="Trazado 788352" d="M204.1,229.549c-55.475,8.943-105.688,17.042-142.082,22.915-18.168,2.836-32.877,5.145-43.086,6.74-5.063.75-9.013,1.336-11.733,1.746q-1.969.264-3.059.422c-.692.082-1.043.117-1.043.106a6.532,6.532,0,0,1,1.031-.223c.727-.129,1.735-.3,3.036-.539,2.719-.445,6.646-1.09,11.7-1.922,10.209-1.606,24.919-3.915,43.086-6.763,36.441-5.544,86.724-13.2,142.293-21.649,55.546-8.4,105.829-16.1,142.187-21.883,18.179-2.883,32.889-5.286,43.039-7.033,5.075-.867,9.013-1.571,11.674-2.075a21.1,21.1,0,0,0,4.044-.926,22.685,22.685,0,0,0-4.138.352c-2.7.328-6.658.867-11.756,1.594-10.2,1.453-24.931,3.669-43.133,6.482-36.394,5.626-86.618,13.678-142.058,22.668Z" transform="translate(160.701 34.15)" fill="#ebebeb"/>
          <path id="Trazado_788353" data-name="Trazado 788353" d="M205.515,223.761c-53.342,17.335-101.609,33.018-136.6,44.387-17.476,5.591-31.635,10.1-41.457,13.245-4.876,1.524-8.674,2.708-11.3,3.516q-1.9.563-2.954.879a6.433,6.433,0,0,1-1.02.258,6.05,6.05,0,0,1,.973-.375c.692-.234,1.653-.563,2.907-1,2.614-.856,6.388-2.1,11.24-3.692,9.822-3.153,23.969-7.677,41.445-13.28,35.093-11.053,83.512-26.3,137.007-43.157,53.483-16.8,101.9-32.092,136.878-43.368,17.488-5.638,31.623-10.256,41.363-13.526,4.876-1.629,8.65-2.93,11.194-3.844a21.935,21.935,0,0,0,3.833-1.535,22.078,22.078,0,0,0-4.02.985c-2.6.738-6.435,1.875-11.358,3.376-9.834,2.989-24.028,7.431-41.551,13-35.034,11.123-83.313,26.771-136.62,44.13Z" transform="translate(156.206 27.924)" fill="#ebebeb"/>
          <path id="Trazado_788354" data-name="Trazado 788354" d="M207.789,218.283c-49.873,25.27-95,48.138-127.712,64.712-16.362,8.193-29.607,14.815-38.8,19.422-4.571,2.25-8.134,4-10.584,5.2-1.2.574-2.11,1.008-2.766,1.324a5.812,5.812,0,0,1-.961.41,6.257,6.257,0,0,1,.9-.527c.645-.34,1.547-.809,2.719-1.43,2.438-1.242,5.966-3.047,10.5-5.368,9.189-4.606,22.434-11.252,38.785-19.457,32.866-16.28,78.2-38.75,128.31-63.575,50.1-24.778,95.432-47.283,128.146-63.762,16.363-8.24,29.572-14.968,38.656-19.68,4.548-2.356,8.064-4.22,10.432-5.5a21.23,21.23,0,0,0,3.54-2.1,20.883,20.883,0,0,0-3.809,1.594c-2.45,1.125-6.048,2.836-10.666,5.075-9.224,4.466-22.528,11.018-38.925,19.187-32.8,16.339-77.945,39.172-127.771,64.465Z" transform="translate(148.952 22.02)" fill="#ebebeb"/>
          <path id="Trazado_788355" data-name="Trazado 788355" d="M211,213.214c-45.2,32.537-86.091,61.981-115.733,83.313-14.839,10.572-26.853,19.14-35.2,25.083l-9.623,6.751c-1.09.738-1.922,1.313-2.52,1.723a4.717,4.717,0,0,1-.891.551,7.532,7.532,0,0,1,.809-.656c.586-.434,1.395-1.031,2.45-1.817,2.2-1.594,5.4-3.915,9.517-6.892,8.334-5.954,20.348-14.522,35.175-25.106,29.842-21.074,71.018-50.154,116.507-82.293,45.5-32.08,86.653-61.2,116.307-82.457,14.827-10.619,26.794-19.269,35.022-25.317,4.114-3.024,7.29-5.392,9.424-7.021a21.13,21.13,0,0,0,3.165-2.614,21.619,21.619,0,0,0-3.516,2.145c-2.239,1.489-5.521,3.727-9.717,6.622-8.392,5.814-20.477,14.3-35.351,24.872-29.76,21.121-70.689,50.541-115.827,83.09Z" transform="translate(138.974 16.6)" fill="#ebebeb"/>
          <path id="Trazado_788356" data-name="Trazado 788356" d="M214.979,208.694c-39.429,38.972-75.12,74.241-100.988,99.793-12.963,12.694-23.465,22.961-30.756,30.1-3.634,3.5-6.47,6.236-8.427,8.123-.949.9-1.688,1.594-2.215,2.086a6.6,6.6,0,0,1-.785.68,8.952,8.952,0,0,1,.692-.774c.5-.516,1.219-1.231,2.133-2.168,1.922-1.911,4.712-4.688,8.3-8.252,7.29-7.138,17.781-17.417,30.732-30.123,26.1-25.329,62.121-60.281,101.914-98.9,39.8-38.574,75.8-73.549,101.7-99.031,12.952-12.741,23.383-23.09,30.545-30.3,3.575-3.61,6.341-6.423,8.181-8.357a21.718,21.718,0,0,0,2.708-3.059,21.348,21.348,0,0,0-3.118,2.649c-1.981,1.805-4.852,4.513-8.533,8.017-7.361,7.009-17.945,17.23-30.943,29.912C290.1,134.453,254.373,169.7,214.991,208.67Z" transform="translate(126.641 11.79)" fill="#ebebeb"/>
          <path id="Trazado_788357" data-name="Trazado 788357" d="M219.664,204.851c-32.713,44.458-62.332,84.684-83.793,113.846-10.783,14.5-19.5,26.232-25.563,34.378-3.036,4.02-5.392,7.138-7.021,9.295-.8,1.031-1.418,1.828-1.852,2.4a5.662,5.662,0,0,1-.668.8,6.059,6.059,0,0,1,.563-.867c.422-.586,1-1.407,1.758-2.461,1.594-2.18,3.9-5.345,6.869-9.4,6.048-8.158,14.768-19.891,25.54-34.4,21.731-28.974,51.713-68.943,84.848-113.108,33.147-44.118,63.106-84.122,84.614-113.2,10.76-14.534,19.41-26.349,25.317-34.553,2.954-4.1,5.228-7.3,6.74-9.494a21.7,21.7,0,0,0,2.18-3.423,21.333,21.333,0,0,0-2.661,3.094c-1.664,2.086-4.079,5.192-7.15,9.213-6.154,8.041-14.968,19.726-25.786,34.225-21.637,28.986-51.291,69.2-83.957,113.659Z" transform="translate(112.216 7.686)" fill="#ebebeb"/>
          <path id="Trazado_788358" data-name="Trazado 788358" d="M224.86,201.789c-25.165,48.888-47.939,93.123-64.442,125.18-8.31,15.952-15.05,28.869-19.726,37.847-2.344,4.431-4.173,7.876-5.439,10.244-.621,1.137-1.1,2.016-1.442,2.649a6.23,6.23,0,0,1-.527.879,5.358,5.358,0,0,1,.422-.938c.316-.645.762-1.535,1.336-2.708,1.219-2.4,3-5.872,5.274-10.326,4.665-8.978,11.393-21.895,19.691-37.859,16.808-31.916,39.992-75.952,65.614-124.606,25.646-48.619,48.806-92.666,65.368-124.665,8.287-16,14.933-28.974,19.445-37.976,2.262-4.5,4-8.005,5.134-10.4a20.853,20.853,0,0,0,1.606-3.716,21.06,21.06,0,0,0-2.133,3.458c-1.313,2.309-3.188,5.743-5.579,10.186-4.782,8.873-11.6,21.754-19.961,37.718-16.714,31.916-39.523,76.151-64.63,125.028Z" transform="translate(96.119 4.371)" fill="#ebebeb"/>
          <path id="Trazado_788359" data-name="Trazado 788359" d="M230.507,199.574c-16.937,52.123-32.268,99.289-43.368,133.479-5.626,17.031-10.186,30.815-13.35,40.391-1.606,4.735-2.848,8.416-3.716,10.959-.434,1.219-.762,2.168-1,2.836a5.544,5.544,0,0,1-.387.949,6.656,6.656,0,0,1,.258-1c.211-.68.5-1.641.879-2.872.82-2.555,2-6.259,3.54-11.006,3.153-9.576,7.7-23.36,13.315-40.391,11.428-34.085,27.2-81.121,44.634-133.08,17.464-51.924,33.194-98.984,44.376-133.1,5.591-17.066,10.057-30.9,13.057-40.473,1.5-4.794,2.649-8.521,3.387-11.053a21.2,21.2,0,0,0,.985-3.915,20.266,20.266,0,0,0-1.547,3.739c-.914,2.485-2.227,6.165-3.868,10.912-3.294,9.494-7.947,23.266-13.608,40.308-11.334,34.073-26.7,81.238-43.59,133.35Z" transform="translate(78.669 1.945)" fill="#ebebeb"/>
          <path id="Trazado_788360" data-name="Trazado 788360" d="M236.463,198.271c-8.287,54.057-15.788,102.981-21.227,138.448-2.8,17.675-5.075,31.987-6.646,41.926-.82,4.923-1.453,8.744-1.9,11.381-.223,1.278-.4,2.25-.527,2.954a5.723,5.723,0,0,1-.223,1,4.771,4.771,0,0,1,.094-1.02c.094-.7.234-1.688.41-2.977.4-2.649.973-6.482,1.711-11.416,1.571-9.939,3.821-24.251,6.611-41.926,5.767-35.409,13.725-84.262,22.528-138.249,8.838-53.952,16.761-102.817,22.27-138.237,2.766-17.71,4.923-32.045,6.341-41.961.715-4.958,1.231-8.814,1.559-11.44a21.9,21.9,0,0,0,.34-4.02,19.815,19.815,0,0,0-.926,3.927c-.5,2.59-1.2,6.423-2.051,11.358-1.711,9.881-4.079,24.192-6.915,41.879-5.685,35.386-13.221,84.309-21.461,138.355Z" transform="translate(60.312 0.47)" fill="#ebebeb"/>
          <path id="Trazado_788361" data-name="Trazado 788361" d="M243.353,197.886c.434,54.655.832,104.118,1.113,139.972.059,17.886.094,32.362.129,42.418-.023,4.981-.035,8.861-.047,11.533-.023,1.289-.035,2.286-.047,3a6.714,6.714,0,0,1-.059,1.02,5.778,5.778,0,0,1-.07-1.02c-.012-.715-.035-1.711-.07-3-.035-2.672-.07-6.552-.129-11.533-.035-10.057-.094-24.532-.152-42.418.047-35.855.105-85.317.176-139.972.105-54.632.129-104.106-.07-139.914-.094-17.91-.246-32.4-.422-42.418-.094-5-.188-8.9-.281-11.533a22.019,22.019,0,0,0-.3-4.02,19.912,19.912,0,0,0-.281,4.02c-.082,2.637-.152,6.529-.211,11.533-.117,10.021-.164,24.509-.141,42.418C242.521,93.791,242.873,143.254,243.353,197.886Z" transform="translate(40.717 0)" fill="#ebebeb"/>
          <path id="Trazado_788362" data-name="Trazado 788362" d="M258.349,198.439c9.178,53.928,17.476,102.723,23.489,138.1,2.907,17.664,5.263,31.951,6.9,41.879.774,4.923,1.371,8.756,1.793,11.4.188,1.278.328,2.262.434,2.965a5.537,5.537,0,0,1,.105,1.02,5.614,5.614,0,0,1-.234-1c-.129-.7-.316-1.676-.551-2.954-.457-2.637-1.125-6.458-1.969-11.369-1.641-9.928-4.009-24.216-6.939-41.879-5.685-35.421-13.526-84.3-22.188-138.308-8.615-53.987-16.5-102.863-22.422-138.214-2.954-17.675-5.427-31.975-7.208-41.832-.891-4.935-1.606-8.756-2.133-11.346a20.638,20.638,0,0,0-.949-3.927A19.853,19.853,0,0,0,226.843,7c.34,2.614.891,6.47,1.629,11.428,1.489,9.916,3.751,24.239,6.634,41.926,5.755,35.374,14.018,84.192,23.231,138.085Z" transform="translate(13.027 0.513)" fill="#ebebeb"/>
          <path id="Trazado_788363" data-name="Trazado 788363" d="M273.472,199.912c17.792,51.854,33.909,98.773,45.583,132.787,5.732,17,10.385,30.756,13.608,40.309,1.559,4.747,2.778,8.439,3.61,10.983.387,1.231.692,2.18.9,2.872a7.111,7.111,0,0,1,.27,1,6.159,6.159,0,0,1-.387-.949c-.246-.668-.586-1.618-1.02-2.837-.879-2.532-2.157-6.212-3.8-10.924-3.235-9.553-7.888-23.3-13.632-40.3-11.346-34.12-27.005-81.18-44.317-133.186-17.253-51.994-32.948-99.054-44.528-133.057-5.79-17.007-10.537-30.744-13.889-40.215-1.676-4.735-3.012-8.4-3.95-10.877a21.184,21.184,0,0,0-1.571-3.727,20.2,20.2,0,0,0,1.008,3.915c.762,2.532,1.922,6.259,3.458,11.029,3.071,9.564,7.63,23.36,13.35,40.391,11.416,34.049,27.486,80.992,45.325,132.8Z" transform="translate(-14.461 2.029)" fill="#ebebeb"/>
          <path id="Trazado_788364" data-name="Trazado 788364" d="M287.908,202.282c25.962,48.49,49.463,92.361,66.493,124.16,8.416,15.905,15.226,28.787,19.961,37.718,2.309,4.442,4.1,7.912,5.345,10.291.586,1.16,1.031,2.051,1.36,2.7a4.937,4.937,0,0,1,.422.938,7.427,7.427,0,0,1-.539-.879c-.352-.633-.832-1.5-1.465-2.637-1.278-2.368-3.129-5.8-5.509-10.209-4.735-8.931-11.557-21.813-20-37.706-16.738-31.951-39.828-76.034-65.333-124.747-25.458-48.7-48.584-92.772-65.532-124.582-8.463-15.905-15.378-28.752-20.23-37.589-2.426-4.419-4.325-7.841-5.65-10.139a20.354,20.354,0,0,0-2.157-3.446,19.936,19.936,0,0,0,1.629,3.7c1.16,2.391,2.919,5.884,5.2,10.361,4.583,8.967,11.322,21.907,19.726,37.835,16.8,31.881,40.262,75.776,66.259,124.219Z" transform="translate(-40.607 4.5)" fill="#ebebeb"/>
          <path id="Trazado_788365" data-name="Trazado 788365" d="M301.1,205.491c33.452,43.942,63.715,83.711,85.657,112.533,10.877,14.429,19.668,26.114,25.786,34.225,3,4.044,5.333,7.185,6.939,9.353.762,1.055,1.36,1.875,1.782,2.45a7.918,7.918,0,0,1,.574.856,7.294,7.294,0,0,1-.668-.785c-.445-.563-1.067-1.36-1.875-2.379-1.641-2.145-4.032-5.251-7.091-9.248-6.118-8.111-14.933-19.785-25.81-34.2-21.672-29.021-51.561-69.048-84.59-113.283-32.983-44.235-62.918-84.25-84.766-113.1-10.924-14.429-19.82-26.056-26.021-34.049-3.106-4-5.544-7.091-7.22-9.154a20.794,20.794,0,0,0-2.684-3.071,21.2,21.2,0,0,0,2.2,3.411c1.524,2.18,3.821,5.368,6.81,9.447,5.978,8.17,14.71,19.914,25.563,34.378,21.719,28.939,51.947,68.732,85.423,112.627Z" transform="translate(-64.597 7.854)" fill="#ebebeb"/>
          <path id="Trazado_788366" data-name="Trazado 788366" d="M312.925,209.465c40.074,38.351,76.339,73.057,102.617,98.21,13.045,12.612,23.618,22.821,30.943,29.912,3.61,3.54,6.411,6.294,8.357,8.193.926.926,1.641,1.641,2.145,2.157a7.569,7.569,0,0,1,.7.762,6.606,6.606,0,0,1-.785-.68c-.527-.492-1.266-1.184-2.227-2.075-1.969-1.875-4.817-4.583-8.486-8.064-7.337-7.079-17.91-17.288-30.967-29.889-26.044-25.388-61.981-60.41-101.7-99.113-39.664-38.714-75.636-73.713-101.832-98.9-13.092-12.6-23.747-22.739-31.154-29.7-3.7-3.481-6.6-6.165-8.591-7.959a22.381,22.381,0,0,0-3.141-2.637,21.251,21.251,0,0,0,2.731,3.036c1.864,1.922,4.642,4.724,8.24,8.3,7.208,7.162,17.71,17.441,30.756,30.1,26.079,25.306,62.32,60.047,102.406,98.351Z" transform="translate(-86.018 11.991)" fill="#ebebeb"/>
          <path id="Trazado_788367" data-name="Trazado 788367" d="M323.031,214.095c45.724,31.822,87.1,60.633,117.093,81.508,14.909,10.49,26.982,18.976,35.362,24.872,4.126,2.954,7.337,5.251,9.564,6.833,1.067.774,1.875,1.371,2.461,1.805a5.748,5.748,0,0,1,.809.645,6.449,6.449,0,0,1-.891-.551c-.6-.41-1.442-.973-2.532-1.711l-9.67-6.681c-8.38-5.884-20.465-14.37-35.374-24.849-29.795-21.145-70.9-50.306-116.319-82.539-45.372-32.244-86.513-61.383-116.425-82.3-14.956-10.467-27.1-18.883-35.538-24.626-4.22-2.872-7.513-5.087-9.764-6.564a20.9,20.9,0,0,0-3.528-2.121,21.055,21.055,0,0,0,3.176,2.59c2.145,1.617,5.333,3.962,9.471,6.951,8.263,5.989,20.289,14.557,35.2,25.083,29.806,21.051,71.17,49.9,116.893,81.672Z" transform="translate(-104.317 16.832)" fill="#ebebeb"/>
          <path id="Trazado_788368" data-name="Trazado 788368" d="M331.17,219.253c50.283,24.485,95.784,46.65,128.767,62.707,16.409,8.087,29.7,14.639,38.925,19.187,4.548,2.286,8.1,4.067,10.537,5.3,1.172.609,2.075,1.078,2.731,1.407a8.058,8.058,0,0,1,.9.516,6.1,6.1,0,0,1-.973-.41q-.985-.457-2.778-1.3c-2.461-1.2-6.036-2.919-10.631-5.134-9.224-4.548-22.516-11.088-38.937-19.164-32.83-16.351-78.12-38.914-128.169-63.856-50-24.954-95.315-47.493-128.228-63.61-16.456-8.064-29.795-14.534-39.054-18.929-4.63-2.2-8.24-3.88-10.7-4.993a21.052,21.052,0,0,0-3.821-1.559,21.983,21.983,0,0,0,3.551,2.075c2.379,1.278,5.907,3.106,10.467,5.439,9.131,4.653,22.387,11.3,38.8,19.422,32.831,16.269,78.32,38.468,128.6,62.895Z" transform="translate(-119.02 22.27)" fill="#ebebeb"/>
          <path id="Trazado_788369" data-name="Trazado 788369" d="M337.14,224.795c53.624,16.491,102.137,31.424,137.311,42.242,17.511,5.485,31.694,9.916,41.539,13,4.864,1.559,8.65,2.778,11.264,3.622,1.254.422,2.227.738,2.919.973a5.951,5.951,0,0,1,.985.375,7.5,7.5,0,0,1-1.02-.246c-.7-.2-1.688-.492-2.954-.867-2.625-.8-6.435-1.957-11.322-3.446-9.846-3.071-24.028-7.5-41.551-12.975-35.069-11.135-83.442-26.489-136.9-43.461C283.985,207,235.589,191.683,200.485,180.794c-17.558-5.45-31.776-9.787-41.633-12.717-4.923-1.465-8.767-2.579-11.369-3.294a21.846,21.846,0,0,0-4.032-.961,22.142,22.142,0,0,0,3.844,1.512c2.555.891,6.341,2.168,11.217,3.762,9.764,3.2,23.934,7.736,41.457,13.245,35.057,11.041,83.571,26.009,137.182,42.453Z" transform="translate(-129.772 28.191)" fill="#ebebeb"/>
          <path id="Trazado_788370" data-name="Trazado 788370" d="M340.819,230.613c55.616,8.087,105.958,15.413,142.434,20.711,18.191,2.731,32.913,4.946,43.133,6.482,5.063.8,8.99,1.418,11.709,1.852,1.313.223,2.321.4,3.036.516a7.02,7.02,0,0,1,1.031.223,4.976,4.976,0,0,1-1.043-.094c-.727-.094-1.746-.223-3.059-.4-2.719-.387-6.669-.949-11.744-1.664-10.221-1.535-24.954-3.727-43.133-6.458-36.429-5.626-86.7-13.4-142.234-21.977-55.511-8.627-105.782-16.351-142.223-21.731-18.214-2.7-32.971-4.806-43.18-6.189-5.1-.692-9.072-1.207-11.768-1.512a22.213,22.213,0,0,0-4.137-.328,22.275,22.275,0,0,0,4.044.9c2.672.492,6.611,1.172,11.686,2,10.162,1.664,24.884,3.973,43.086,6.74,36.405,5.544,86.747,12.9,142.34,20.945Z" transform="translate(-136.311 34.422)" fill="#ebebeb"/>
        </g>
      </g>
      <g id="Desk" transform="translate(41.258 551.484)">
        <path id="Trazado_788371" data-name="Trazado 788371" d="M32,470.815c0,.164,109.861.3,245.367.3s245.391-.141,245.391-.3-109.837-.3-245.391-.3S32,470.651,32,470.815Z" transform="translate(-32 -470.51)" fill="#263238"/>
      </g>
      <g id="Character" transform="translate(143.465 48.631)">
        <g id="Grupo_1053520" data-name="Grupo 1053520">
          <g id="Grupo_1053509" data-name="Grupo 1053509" transform="translate(0.481 407.144)">
            <g id="Grupo_1053508" data-name="Grupo 1053508" transform="translate(0 23.836)">
              <path id="Trazado_788372" data-name="Trazado 788372" d="M347.781,415.132s5.263,11.9,3.446,22.563.234,23.278-4.431,25.493-6.681-.352-6.951-5.357-.856-12.67-1.008-18.578a54.59,54.59,0,0,0-.481-7.5l-1.993-16.011,11.416-.621Z" transform="translate(-320.283 -408.169)" fill="#ffbf9d"/>
              <path id="Trazado_788373" data-name="Trazado 788373" d="M347.771,409.19s-7.314,29.174-7.29,32.784,2.344,8.685,2.344,8.685,2.215,12.776,3.423,14.323,13.1,3.587,13.1,3.587l7.63-4.349-3.094-6.634-6.587,1.078-1.512-5.474,4.278-6.318,3.657-30.475-15.941-7.2Z" transform="translate(-340.48 -409.19)" fill="#ffbf9d"/>
              <path id="Trazado_788374" data-name="Trazado 788374" d="M339.488,428.39a14.258,14.258,0,0,0,.41,1.5c.281.961.7,2.332,1.16,4.067a80.229,80.229,0,0,1,2.344,13.7c.117,1.348.176,2.672.223,3.962a31.961,31.961,0,0,0,.234,3.727,7.306,7.306,0,0,0,3.106,5.462,4.113,4.113,0,0,0,4.208.059,2.787,2.787,0,0,0,.867-.8.969.969,0,0,0,.188-.363,4.964,4.964,0,0,1-1.16.961,3.942,3.942,0,0,1-3.868-.223,6.983,6.983,0,0,1-2.778-5.169,33.088,33.088,0,0,1-.188-3.669c-.035-1.289-.094-2.625-.211-4a68.649,68.649,0,0,0-2.532-13.76c-.5-1.723-1-3.083-1.348-4.02a6.661,6.661,0,0,0-.633-1.43Z" transform="translate(-324.568 -405.886)" fill="#ff9a6c"/>
            </g>
            <path id="Trazado_788375" data-name="Trazado 788375" d="M356.111,419.652l5.274-18.015s-19.3-13.643-20.359-12.741-5.9,26.935-5.9,26.935l9.892,10.631,11.088-6.8Z" transform="translate(-328.613 -388.853)" fill="#ffbf9d"/>
          </g>
          <path id="Trazado_788376" data-name="Trazado 788376" d="M338.379,189.8c6.552-9.846,40.918-19.469,40.918-19.469l-9.236,7.7L350.112,285.547l-44.071,158.48L271.71,437.6s44.423-214.342,66.681-247.817Z" transform="translate(-271.71 -19.317)" fill="#ff725e"/>
          <g id="Grupo_1053511" data-name="Grupo 1053511" transform="translate(44.282 325.703)">
            <g id="Grupo_1053510" data-name="Grupo 1053510">
              <path id="Trazado_788377" data-name="Trazado 788377" d="M254.183,367.1l81.144,39.863s6.458,48.314.9,81.648H262.857C244.279,424.58,254.183,367.1,254.183,367.1Z" transform="translate(-251.546 -311.156)" fill="#263238"/>
              <path id="Trazado_788378" data-name="Trazado 788378" d="M171.761,416.213l85.317-69.283s34.284,52.17,23.5,104.059c-1.617,7.783-6.751,29.865-10.115,41.094H169.71c2.555-36.687,2.051-75.87,2.051-75.87Z" transform="translate(-99.817 -314.627)" fill="#263238"/>
              <path id="Trazado_788379" data-name="Trazado 788379" d="M185.811,376.451c-.316-.117,68.919,50.611,68.919,50.611l92.83-63.024-17.124-32.784s-47.505,20.254-72.143,15.179-51.619-27.064-51.619-27.064c-6.06,13.186-17.066,42.477-20.852,57.093Z" transform="translate(-183.572 -319.37)" fill="#263238"/>
            </g>
            <path id="Trazado_788380" data-name="Trazado 788380" d="M264.494,379.073c.3.422.715,1,1.254,1.746,1.113,1.582,2.731,3.868,4.817,6.822,4.208,6.025,10.314,14.78,18.027,25.857l.07.094v.117c-.891,9.682-1.219,20.922-1.817,33.44s-.164,24.731-.867,39.535l-.973-.047c.762-14.792.363-27.005,1.008-39.523.656-12.459,1.043-23.676,1.993-33.335-7.583-11.1-13.585-19.879-17.71-25.927q-3.042-4.5-4.677-6.927c-.5-.762-.891-1.36-1.184-1.793a5.348,5.348,0,0,1-.375-.621,5.6,5.6,0,0,1,.445.574Z" transform="translate(-216.391 -309.192)" fill="#455a64"/>
          </g>
          <g id="Grupo_1053512" data-name="Grupo 1053512" transform="translate(42.165)">
            <path id="Trazado_788381" data-name="Trazado 788381" d="M279.911,68.48A36.766,36.766,0,0,0,266.268,99.6c.445,5.708,2.016,12.225-1.7,16.585-3.68,4.313-10.9,4.2-14.429,8.638-4.149,5.228-.68,13.01-2.157,19.515a13.23,13.23,0,0,1-14.053,9.822,51.635,51.635,0,0,0,25.575,11.1q3.569-4.589,7.15-9.189c-2.708,3.212-1.993,8.345.633,11.627s6.681,5.075,10.69,6.353a65.461,65.461,0,0,0,57.351-9.318" transform="translate(-225.624 -36.845)" fill="#263238"/>
            <path id="Trazado_788382" data-name="Trazado 788382" d="M306.881,123.6c-1.43-4.384-3.833-8.439-4.794-12.94-2.075-9.682,2.649-20.582-2.051-29.291-3.34-6.2-10.467-9.236-17.206-11.311s-13.96-3.833-18.988-8.779c-3.68-3.622-5.778-8.615-9.447-12.26-5.228-5.181-12.952-6.939-20.312-7.4-7.548-.469-15.354.258-22.141,3.6S199.517,54.805,198.3,62.271c-.586,3.645-.141,7.455-1.289,10.959-1.266,3.856-4.29,6.857-6.154,10.455a19.41,19.41,0,0,0,4.853,23.254l51.83,66.95c10.889,4.114,37.273-.856,45.688-8.908s17.265-30.311,13.655-41.375Z" transform="translate(-145.206 -41.49)" fill="#263238"/>
            <path id="Trazado_788383" data-name="Trazado 788383" d="M220.721,94.563c2.133-15.2,13.69-33.159,28.787-30.381l46.6,15.659c4.583.844,1.3,8.322.856,12.963L286.839,197.9c.07.023,6.294,4.489,8.545,3.633a.633.633,0,0,1,.75.949c-5.591,8.123-32.01,43.649-59.238,32.807-6.083-2.426.633-21.59-.07-28.693l.809-18.132c.6-9.26.891-13.057.879-12.963,0,0-19.269-4.735-21.356-30.51-1.043-12.811,1.2-33.522,3.563-50.412Z" transform="translate(-168.848 -37.634)" fill="#ffbf9d"/>
            <path id="Trazado_788384" data-name="Trazado 788384" d="M271.073,109.988a3.279,3.279,0,0,0,2.9,3.54,3.118,3.118,0,0,0,3.587-2.684,3.279,3.279,0,0,0-2.9-3.54,3.144,3.144,0,0,0-3.6,2.684Z" transform="translate(-211.382 -30.169)" fill="#263238"/>
            <path id="Trazado_788385" data-name="Trazado 788385" d="M243.815,111.418a3.271,3.271,0,0,0,2.9,3.54,3.118,3.118,0,0,0,3.587-2.684,3.279,3.279,0,0,0-2.9-3.54,3.144,3.144,0,0,0-3.6,2.684Z" transform="translate(-152.173 -29.923)" fill="#263238"/>
            <path id="Trazado_788386" data-name="Trazado 788386" d="M269.589,101.332c.352.6,3.387-1.324,7.2-.774,3.809.492,6.247,3.165,6.74,2.684.246-.211-.059-1.242-1.113-2.438a8.687,8.687,0,0,0-11.135-1.535c-1.336.879-1.887,1.793-1.7,2.063Z" transform="translate(-215.641 -31.779)" fill="#263238"/>
            <path id="Trazado_788387" data-name="Trazado 788387" d="M239.6,103.826c.445.551,3.434-1.617,7.525-1.442,4.091.117,6.986,2.485,7.455,1.969.223-.234-.2-1.207-1.465-2.274a9.945,9.945,0,0,0-5.943-2.239,9.674,9.674,0,0,0-6.025,1.817c-1.3.985-1.782,1.934-1.559,2.18Z" transform="translate(-151.493 -31.449)" fill="#263238"/>
            <path id="Trazado_788388" data-name="Trazado 788388" d="M268.757,128.069c.035-.2-2.121-.738-5.626-1.465-.891-.164-1.723-.41-1.828-1.031a4.622,4.622,0,0,1,.8-2.614q1.512-3.165,3.176-6.622c4.431-9.447,7.712-17.242,7.337-17.406s-4.29,7.337-8.72,16.784c-1.067,2.332-2.1,4.548-3.071,6.681-.422,1-1.09,2.11-.738,3.481a2.252,2.252,0,0,0,1.371,1.43,5.884,5.884,0,0,0,1.512.328c3.551.469,5.755.656,5.778.457Z" transform="translate(-193.478 -31.605)" fill="#263238"/>
            <path id="Trazado_788389" data-name="Trazado 788389" d="M238.855,160.05a64.936,64.936,0,0,0,34.8-6.47s-9.939,17.206-35.245,12.87l.445-6.4Z" transform="translate(-169.202 -22.2)" fill="#ff9a6c"/>
            <path id="Trazado_788390" data-name="Trazado 788390" d="M263.447,132.918a5.559,5.559,0,0,0-1.8-2.145,4.426,4.426,0,0,0-3.036-.3,7.126,7.126,0,0,0-3.985,2.028,4.276,4.276,0,0,0-1.008,4.208h0c.4,1.465,2.59,2.274,4.079,2.532a6.75,6.75,0,0,0,4.384-.926,3.861,3.861,0,0,0,2.239-2.9,4.734,4.734,0,0,0-.879-2.5Z" transform="translate(-177.443 -26.199)" fill="#ff9a6c"/>
            <path id="Trazado_788391" data-name="Trazado 788391" d="M266.3,128.322c-.574-.082-.867,3.739-4.337,6.189s-7.5,1.723-7.572,2.25c-.07.234.844.809,2.555.985a9.552,9.552,0,0,0,6.306-1.664,8.334,8.334,0,0,0,3.4-5.216c.27-1.582-.082-2.555-.352-2.555Z" transform="translate(-181.022 -26.549)" fill="#263238"/>
            <path id="Trazado_788392" data-name="Trazado 788392" d="M238.531,91.826c.27.985,3.821.8,7.9,1.617,4.1.727,7.337,2.192,7.947,1.383.27-.387-.234-1.336-1.512-2.368a13.521,13.521,0,0,0-5.778-2.532,13.315,13.315,0,0,0-6.294.258c-1.559.492-2.379,1.184-2.262,1.653Z" transform="translate(-150.124 -33.198)" fill="#263238"/>
            <path id="Trazado_788393" data-name="Trazado 788393" d="M268.043,90.33c.645.856,3.469.234,6.8.457,3.34.117,6.107,1.008,6.81.223.316-.387-.07-1.219-1.242-2.063a10.524,10.524,0,0,0-5.427-1.735,10.289,10.289,0,0,0-5.544,1.184c-1.242.727-1.688,1.524-1.407,1.934Z" transform="translate(-211.927 -33.624)" fill="#263238"/>
            <path id="Trazado_788394" data-name="Trazado 788394" d="M273.84,83.681c-2.356-3.622-6.575-5.485-10.6-7.033A234.911,234.911,0,0,0,209.269,62.9c-2.3,3.786-.176,8.943,3.294,11.7s7.923,3.844,12.073,5.4,8.4,3.938,10.115,8.029c1.817,4.348.281,9.494,1.875,13.925,2.743,7.63,13.385,10.092,16.093,17.722,2.039,5.778-1.3,11.932-2.145,18a21.911,21.911,0,0,0,21.508,24.942q1.9-32.825,3.786-65.649c.258-4.559.434-9.471-2.051-13.292Z" transform="translate(-136.275 -37.806)" fill="#263238"/>
            <path id="Trazado_788395" data-name="Trazado 788395" d="M236.823,136.479c-3.458-3.094-7.794-5.778-9.166-10.209-2-6.458,3.176-14.042-.164-19.926-3.047-5.356-12.014-5.087-14.85-10.572-2.215-4.278.328-8.064-.516-11.826s-6.177-7.056-10-6.6l-29.889,43.321c-2.778,14.534-5.567,22.27-2.45,30.768,1.711,4.665,3.938,9.213,4.618,14.124s-.586,10.5-4.606,13.409c17.863,1.407,34.612-7.947,50.1-17q8.193-4.782,16.374-9.564a12.019,12.019,0,0,0,4.5-3.751c2.4-3.973-.5-9.084-3.95-12.178Z" transform="translate(-55.164 -35.327)" fill="#263238"/>
            <path id="Trazado_788396" data-name="Trazado 788396" d="M280.991,162.375a8.549,8.549,0,0,1-1.911.363,16.115,16.115,0,0,1-5.567-.4,17.2,17.2,0,0,1-7.759-4.184,16.973,16.973,0,0,1-5.11-10.443,17.48,17.48,0,0,1,.586-6.857,28.181,28.181,0,0,1,3.317-6.646,26.3,26.3,0,0,0,3.423-6.892c.656-2.485.656-5.439-.961-7.572-1.629-2.18-4.642-2.708-7.443-3.844a8.163,8.163,0,0,1-3.809-2.825,8.039,8.039,0,0,1-1.231-4.688c.035-3.27,1.43-6.259,2.028-9.306a9.989,9.989,0,0,0,.023-4.559A6.33,6.33,0,0,0,254,90.9c-2.579-1.84-5.872-2.133-9.037-2.415a19.5,19.5,0,0,1-9.213-2.708,17.388,17.388,0,0,1-6.306-6.833,28.543,28.543,0,0,1-2.321-8.568,40.577,40.577,0,0,0-1.746-8.029,17.781,17.781,0,0,0-4.208-6.329,20.624,20.624,0,0,0-12.366-5.6,20.39,20.39,0,0,0-11.065,2.309,24.455,24.455,0,0,0-6.88,5.239A32.005,32.005,0,0,0,186.6,64.06a2.538,2.538,0,0,1,.176-.469c.141-.293.3-.75.621-1.313a23.047,23.047,0,0,1,3.165-4.595,24.2,24.2,0,0,1,6.915-5.485,20.9,20.9,0,0,1,11.393-2.52,21.365,21.365,0,0,1,12.9,5.708,18.931,18.931,0,0,1,4.466,6.634,40.486,40.486,0,0,1,1.84,8.2,27.938,27.938,0,0,0,2.262,8.263A16.363,16.363,0,0,0,236.3,84.9a18.378,18.378,0,0,0,8.767,2.543c3.13.281,6.658.551,9.541,2.6a7.452,7.452,0,0,1,2.977,4.208,11.2,11.2,0,0,1-.012,5.028c-.656,3.223-2,6.118-2.028,9.131a7,7,0,0,0,1.043,4.1,7.124,7.124,0,0,0,3.364,2.473c1.336.563,2.766.949,4.149,1.535a8.464,8.464,0,0,1,3.669,2.637c1.875,2.532,1.782,5.755,1.078,8.392a27.172,27.172,0,0,1-3.575,7.115,27.311,27.311,0,0,0-3.282,6.423,16.783,16.783,0,0,0-.621,6.54,16.377,16.377,0,0,0,4.782,10.1,17.128,17.128,0,0,0,7.466,4.208,19.449,19.449,0,0,0,7.372.422Z" transform="translate(-115.811 -40.09)" fill="#455a64"/>
            <path id="Trazado_788397" data-name="Trazado 788397" d="M242.826,131.568a3.612,3.612,0,0,1,.586,1.465,6.4,6.4,0,0,1-.762,4.431,6.817,6.817,0,0,1-2.286,2.4,7.1,7.1,0,0,1-3.821,1.02,8.922,8.922,0,0,1-7.83-4.97,12.007,12.007,0,0,1-1.278-5.45,16.794,16.794,0,0,1,1.254-5.907c1.418-3.868,4-7.63,4.044-12.155a8.269,8.269,0,0,0-2.075-6.142c-1.594-1.618-4.055-2-6.493-2.028-2.45-.082-5.122.234-7.736-.8a6.7,6.7,0,0,1-3.176-2.684,9.49,9.49,0,0,1-1.3-3.938c-.328-2.79.316-5.427.645-7.947a17.629,17.629,0,0,0-.41-7.361A18.581,18.581,0,0,0,203.865,70.6c-3.868-2.332-8.357-2.59-12.389-2.825-4.067-.211-7.994-.469-11.311-1.782a24.035,24.035,0,0,1-12.389-10.666,16.686,16.686,0,0,1-2.122-5.673,32.873,32.873,0,0,0,2.473,5.474,23.934,23.934,0,0,0,4.431,5.4,23.1,23.1,0,0,0,7.865,4.77c3.212,1.219,7.021,1.43,11.1,1.617,4.032.211,8.685.41,12.835,2.86a19.525,19.525,0,0,1,8.814,11.463,18.269,18.269,0,0,1,.457,7.771c-.34,2.579-.949,5.157-.645,7.689.258,2.52,1.559,4.923,3.856,5.79,2.25.914,4.853.668,7.361.738,2.485.023,5.3.434,7.173,2.344a9.234,9.234,0,0,1,2.332,6.868,17.4,17.4,0,0,1-1.641,6.658c-.867,2.028-1.828,3.9-2.567,5.79a16.043,16.043,0,0,0-1.254,5.6,11.165,11.165,0,0,0,1.125,5.11,8.308,8.308,0,0,0,7.185,4.724,6.707,6.707,0,0,0,3.551-.856,6.493,6.493,0,0,0,2.192-2.18,6.424,6.424,0,0,0,.914-4.184,12.347,12.347,0,0,0-.387-1.5Z" transform="translate(-53.806 -40.086)" fill="#263238"/>
            <path id="Trazado_788398" data-name="Trazado 788398" d="M282.214,139.15a7.028,7.028,0,0,0,.059,4.677,6.138,6.138,0,0,0,3.716,3.762,6.462,6.462,0,0,0,6.564-1.793,5.9,5.9,0,0,0,1.535-3.739,12.4,12.4,0,0,0-.68-4.524c-.949-3.024-2.883-6.318-2.59-10.256a14.409,14.409,0,0,1,5.439-10.326,16.9,16.9,0,0,1,5.567-2.93,24.922,24.922,0,0,1,6.365-.914,32.817,32.817,0,0,0,6.177-.645,8.221,8.221,0,0,0,4.806-2.989,10.1,10.1,0,0,0,1.735-5.286,20.57,20.57,0,0,0-.457-5.509c-.727-3.575-1.8-7.044-1.606-10.455a15.823,15.823,0,0,1,3.188-8.685,20.475,20.475,0,0,1,5.825-4.923,39.452,39.452,0,0,0,4.653-3.212,11.933,11.933,0,0,0,2.93-3.762.67.67,0,0,1-.082.316,5.215,5.215,0,0,1-.363.879,9.542,9.542,0,0,1-2.227,2.872,36.236,36.236,0,0,1-4.606,3.4,20.088,20.088,0,0,0-5.556,4.876,15.193,15.193,0,0,0-2.919,8.287c-.152,3.212.9,6.587,1.676,10.221a21.2,21.2,0,0,1,.516,5.767,11.076,11.076,0,0,1-1.911,5.825,9.215,9.215,0,0,1-5.38,3.387,34.448,34.448,0,0,1-6.376.68,23.638,23.638,0,0,0-6.107.867,15.993,15.993,0,0,0-5.239,2.743,13.451,13.451,0,0,0-5.11,9.588c-.316,3.61,1.477,6.763,2.45,9.939a13.067,13.067,0,0,1,.656,4.841,6.641,6.641,0,0,1-1.805,4.184,7.076,7.076,0,0,1-7.279,1.84,6.545,6.545,0,0,1-3.9-4.184,6.693,6.693,0,0,1-.176-3.633,3.825,3.825,0,0,1,.492-1.172Z" transform="translate(-281.527 -36.99)" fill="#263238"/>
          </g>
          <g id="Grupo_1053514" data-name="Grupo 1053514" transform="translate(51.605 145.985)">
            <path id="Trazado_788399" data-name="Trazado 788399" d="M237.785,176.636s-24.192,41.445-32.866,60.879c-4.829,10.818-6.025,31.26,1.969,62.578,5.989,23.489-6.658,55.3-8.58,59.859-4.337,10.3,23.383,24.755,27.251,27.31,34.284,22.6,111.138-18.906,111.138-18.906l-21.133-47.2,17.792-39.875,6.587-103.813L307.1,166.04c-17.429,8.58-43.192,8.791-50.307,3.809l-19.011,6.786Z" transform="translate(-197.392 -166.04)" fill="#ff725e"/>
            <path id="Trazado_788400" data-name="Trazado 788400" d="M325.827,387.076s-.176-.059-.527-.141c-.375-.094-.891-.211-1.559-.363-.692-.164-1.535-.352-2.52-.586-.985-.316-2.1-.68-3.364-1.078-1.278-.375-2.6-1.031-4.114-1.629-1.489-.621-3.036-1.477-4.724-2.321a73.955,73.955,0,0,1-10.561-7.244,76.644,76.644,0,0,1-10.889-11.041c-.457-.527-.856-1.1-1.289-1.676s-.844-1.149-1.242-1.746c-.422-.586-.8-1.2-1.172-1.828a8.329,8.329,0,0,1-.516-.949l-.246-.481-.129-.481a16.853,16.853,0,0,1,.293-4.431c.246-1.5.551-3.024.9-4.559,1.383-6.13,3.176-12.495,5-19.105.914-3.305,1.864-6.658,2.766-10.08.445-1.711.891-3.446,1.278-5.2.2-.879.375-1.77.492-2.684a27.061,27.061,0,0,0,.105-2.754c-.129-7.267-.891-14.3-1.629-21.1v-.047c-2.942-11.616-5.521-22.645-5.966-32.772a43.249,43.249,0,0,1,.281-7.337,51.224,51.224,0,0,1,1.629-6.693,95.88,95.88,0,0,1,4.337-11.533,127.48,127.48,0,0,1,8.287-15.577c1.09-1.758,1.969-3.094,2.579-3.985.293-.434.516-.774.692-1.02a3.219,3.219,0,0,0,.223-.352,3.717,3.717,0,0,0-.27.316c-.176.223-.422.551-.727.985-.633.879-1.547,2.192-2.661,3.938a121.913,121.913,0,0,0-8.463,15.53,95.971,95.971,0,0,0-4.419,11.557,52.327,52.327,0,0,0-1.676,6.763,44.219,44.219,0,0,0-.316,7.419c.41,10.2,2.977,21.262,5.907,32.9v-.035c.727,6.775,1.489,13.819,1.606,21.027a25.466,25.466,0,0,1-.094,2.684,25.185,25.185,0,0,1-.481,2.625c-.387,1.746-.832,3.469-1.278,5.181-.9,3.423-1.84,6.775-2.754,10.08-1.828,6.611-3.61,12.975-4.981,19.14-.34,1.535-.645,3.071-.891,4.595a17.793,17.793,0,0,0-.281,4.606c.059.2.105.41.164.6l.258.516a8.812,8.812,0,0,0,.539.985c.375.645.774,1.266,1.2,1.852q.6.914,1.266,1.758c.434.563.844,1.149,1.3,1.676a76.7,76.7,0,0,0,11.018,11.053,73.265,73.265,0,0,0,10.666,7.22c1.711.832,3.258,1.676,4.77,2.286,1.524.574,2.86,1.219,4.149,1.582,1.278.387,2.4.727,3.4,1.031,1,.234,1.852.387,2.543.527.668.129,1.184.234,1.571.3a4.519,4.519,0,0,0,.539.082Z" transform="translate(-282.41 -159.115)" fill="#263238"/>
            <g id="Grupo_1053513" data-name="Grupo 1053513" transform="translate(1.855 88.388)" opacity="0.3">
              <path id="Trazado_788401" data-name="Trazado 788401" d="M309.839,336.3a142.781,142.781,0,0,0,3.223-52.323c-1.77-14.171-4.63-28.564-1.582-42.524-.105,12.87,2.567,22.868,5.989,38.128,3.223,14.37,1.2,21.356.973,26.747" transform="translate(-309.839 -241.45)"/>
            </g>
            <path id="Trazado_788402" data-name="Trazado 788402" d="M229.336,355.073s-6.318,2.883-12.108-5.966-12.823-38.539-13.807-41.715c-.621-2.016-2.8-64.172-2.8-64.172l10.115,58.992-2.532,5.661c2.977,8.064,5.427,11.733,8.38,19.515,4.313,11.311,9.06,25.646,12.752,27.685Z" transform="translate(-90.029 -152.757)" opacity="0.3"/>
          </g>
          <g id="Grupo_1053519" data-name="Grupo 1053519" transform="translate(164.258 151.015)">
            <path id="Trazado_788403" data-name="Trazado 788403" d="M160.959,254.548s10.4,101.844,26.654,112.252c4.067,2.6,9,3.423,14.112,3.2,18.191-.809,32.327-16.21,32.373-34.425.059-21.6-3.587-50.951-4.981-63.024-2.79-24.18-12.6-89.877-38.257-96.64s-29.9,30.053-29.9,30.053v48.6Z" transform="translate(-160.959 -169.514)" fill="#ff725e"/>
            <path id="Trazado_788404" data-name="Trazado 788404" d="M225.425,170.377s4.7,6.236,4.677,12.9c0,1.9-3.516,15.73-3.516,15.73l-14.522,11.158-27.122,8.756,2.168,15.155-23.336,3.962s-.457-17.957,0-29.267,14.089-22.692,14.089-22.692,11.323-13.632,16.163-12.928,4.618,6,2.309,9-8.779,10.162-8.779,10.162l26.794-2.309,8.087-6.927s-2.672-7.009-1.852-9.471a4.343,4.343,0,0,1,4.852-3.235Z" transform="translate(-160.022 -170.331)" fill="#ffbf9d"/>
            <path id="Trazado_788405" data-name="Trazado 788405" d="M187.633,186.661a14.145,14.145,0,0,0-2.532,1.524c-1.524,1.008-3.6,2.426-5.86,4.032-.152.105-.316.223-.457.316h.352a9,9,0,0,0-6.646-1.36,7.341,7.341,0,0,0-1.957.633c-.434.223-.645.375-.633.41.047.105.985-.422,2.649-.633a9.2,9.2,0,0,1,6.236,1.453l.176.117.176-.117c.141-.105.3-.211.457-.316,2.274-1.606,4.3-3.083,5.767-4.184a14.928,14.928,0,0,0,2.286-1.875Z" transform="translate(-124.984 -167.522)" fill="#ff9a6c"/>
            <g id="Grupo_1053516" data-name="Grupo 1053516" transform="translate(12.213 19.795)">
              <path id="Trazado_788406" data-name="Trazado 788406" d="M143.02,196.19c-.152.082,6.552,12.495,14.968,27.708s15.355,27.5,15.507,27.415-6.552-12.483-14.968-27.708-15.355-27.5-15.5-27.415Z" transform="translate(-91.542 -185.676)" fill="#263238"/>
              <path id="Trazado_788407" data-name="Trazado 788407" d="M177.645,187.22c-.164,0,.34,11.674,1.125,26.044s1.571,26.021,1.735,26.009-.34-11.662-1.125-26.044S177.809,187.208,177.645,187.22Z" transform="translate(-139.129 -187.22)" fill="#263238"/>
              <path id="Trazado_788408" data-name="Trazado 788408" d="M185.407,187.46c-.164-.012-1.289,12.741-2.5,28.494s-2.051,28.529-1.887,28.541,1.289-12.741,2.5-28.494S185.571,187.472,185.407,187.46Z" transform="translate(-147.993 -187.179)" fill="#263238"/>
              <g id="Grupo_1053515" data-name="Grupo 1053515" transform="translate(0 36.3)">
                <path id="Trazado_788409" data-name="Trazado 788409" d="M223.137,405.2,151.03,239.1,66.24,218.19,137.011,395.6Z" transform="translate(-51.19 -218.19)" fill="#455a64"/>
                <path id="Trazado_788410" data-name="Trazado 788410" d="M162.8,397.469l37.437-18.32-86.126-9.6L66.24,392.172Z" transform="translate(-28.287 -192.141)" fill="#455a64"/>
                <path id="Trazado_788411" data-name="Trazado 788411" d="M162.8,397.469l37.437-18.32-86.126-9.6L66.24,392.172Z" transform="translate(-28.287 -192.141)" opacity="0.3"/>
                <path id="Trazado_788412" data-name="Trazado 788412" d="M154.77,218.19l-1.9,7.748-13.151-.4L177.673,418.22,225.541,395.6Z" transform="translate(-139.72 -218.19)" fill="#455a64"/>
                <path id="Trazado_788413" data-name="Trazado 788413" d="M139.25,218.19s.07.223.223.656c.176.445.41,1.078.727,1.9.656,1.688,1.618,4.137,2.848,7.279,2.508,6.341,6.107,15.472,10.561,26.736,8.978,22.575,21.379,53.729,35.069,88.142,7.56,18.906,14.722,36.839,21.1,52.791l.375-.352c-11.815-5.919-22.5-11.276-31.74-15.894l-.211-.105-.094.223c-4.946,11.909-8.943,21.567-11.721,28.259-1.36,3.329-2.426,5.919-3.153,7.7q-.527,1.3-.809,2c-.176.457-.258.692-.258.692s.117-.223.316-.668c.2-.469.492-1.125.867-1.981.75-1.77,1.852-4.348,3.27-7.654,2.825-6.681,6.88-16.3,11.909-28.177l-.3.117c9.224,4.653,19.9,10.045,31.694,16l.656.328-.27-.68c-6.364-15.964-13.5-33.9-21.039-52.815-13.749-34.378-26.208-65.509-35.233-88.072-4.524-11.24-8.193-20.348-10.748-26.665-1.278-3.13-2.262-5.567-2.954-7.244-.34-.809-.6-1.43-.785-1.875-.176-.422-.281-.633-.281-.633Z" transform="translate(-124.2 -218.19)" fill="#263238"/>
                <path id="Trazado_788414" data-name="Trazado 788414" d="M166.78,224.8c-.164.047,8.873,34.495,20.184,76.937s20.605,76.831,20.77,76.784-8.873-34.483-20.184-76.937-20.606-76.819-20.77-76.773Z" transform="translate(-153.629 -217.052)" fill="#263238"/>
                <path id="Trazado_788415" data-name="Trazado 788415" d="M141.619,218.19l-1.9,7.748,40.941,153.709L212.39,395.6Z" transform="translate(-126.569 -218.19)" opacity="0.3"/>
              </g>
            </g>
            <g id="Grupo_1053518" data-name="Grupo 1053518" transform="translate(38.562 16.899)">
              <path id="Trazado_788416" data-name="Trazado 788416" d="M120.291,184.75c-.129.117,11.3,12.706,25.493,28.119s25.821,27.826,25.95,27.708-11.287-12.706-25.5-28.119-25.821-27.826-25.95-27.708Z" transform="translate(-89.476 -184.749)" fill="#263238"/>
              <g id="Grupo_1053517" data-name="Grupo 1053517" transform="translate(0.328 26.49)">
                <path id="Trazado_788417" data-name="Trazado 788417" d="M200.389,367.482,128.27,225.248l-84.79-17.9,70.771,151.9Z" transform="translate(-28.442 -207.35)" fill="#ff725e"/>
                <path id="Trazado_788418" data-name="Trazado 788418" d="M140.038,360.861l37.449-15.683L91.349,336.95,43.48,356.325Z" transform="translate(-5.539 -185.046)" fill="#ff725e"/>
                <path id="Trazado_788419" data-name="Trazado 788419" d="M140.038,360.861l37.449-15.683L91.349,336.95,43.48,356.325Z" transform="translate(-5.539 -185.046)" opacity="0.3"/>
                <path id="Trazado_788420" data-name="Trazado 788420" d="M132.008,207.35l-1.9,6.634-13.139-.34,37.941,164.985,47.869-19.375Z" transform="translate(-116.97 -207.35)" fill="#ff725e"/>
                <path id="Trazado_788421" data-name="Trazado 788421" d="M116.5,207.35s.07.2.234.574q.264.6.738,1.653c.668,1.477,1.641,3.6,2.883,6.329,2.543,5.509,6.2,13.444,10.725,23.243,9.119,19.621,21.7,46.685,35.585,76.585,7.255,15.554,14.147,30.334,20.359,43.637l.363-.375c-11.873-5.087-22.586-9.682-31.74-13.6l-.2-.082-.094.188c-4.946,10.2-8.943,18.472-11.721,24.2-1.36,2.848-2.426,5.063-3.165,6.6-.352.738-.609,1.313-.809,1.723-.176.387-.258.6-.258.6s.117-.188.316-.563c.211-.4.492-.973.867-1.7.762-1.524,1.852-3.716,3.27-6.54,2.825-5.72,6.88-13.948,11.9-24.122l-.281.105c9.142,3.95,19.844,8.58,31.694,13.714l.668.293-.3-.668c-6.189-13.3-13.069-28.1-20.312-43.661-13.96-29.865-26.583-56.905-35.749-76.515-4.595-9.764-8.31-17.664-10.9-23.161-1.289-2.708-2.3-4.829-2.989-6.282-.34-.7-.6-1.242-.8-1.629-.176-.363-.293-.551-.293-.551Z" transform="translate(-101.464 -207.35)" fill="#263238"/>
                <path id="Trazado_788422" data-name="Trazado 788422" d="M144.03,213.012c-.164.047,8.873,29.56,20.184,65.9,11.311,36.359,20.606,65.778,20.77,65.72s-8.873-29.549-20.184-65.907c-11.311-36.335-20.606-65.766-20.77-65.72Z" transform="translate(-130.891 -206.378)" fill="#263238"/>
                <path id="Trazado_788423" data-name="Trazado 788423" d="M118.869,207.35l-1.9,6.634L157.923,345.6l31.717,13.655Z" transform="translate(-103.831 -207.35)" opacity="0.3"/>
              </g>
              <path id="Trazado_788424" data-name="Trazado 788424" d="M200.063,217.974s-.3-.105-.891-.246q-.967-.229-2.567-.6c-2.3-.5-5.509-1.219-9.459-2.1-8.052-1.723-19.082-4.079-31.272-6.693q-2.989-.633-5.861-1.231l-.281-.059-.082.27q-.967,3.411-1.887,6.634l.293-.211c-4.77-.105-9.189-.211-13.139-.293h-.328l.07.3c1.336,5.614,2.438,10.268,3.235,13.573.387,1.571.7,2.837.938,3.762.105.4.188.715.258.985a1.016,1.016,0,0,0,.117.328,1.337,1.337,0,0,0-.035-.352c-.047-.27-.117-.6-.188-1-.2-.926-.469-2.2-.8-3.786-.738-3.329-1.77-7.994-3.024-13.632l-.246.3,13.139.387h.223l.059-.211q.932-3.217,1.911-6.622l-.352.211q2.866.615,5.861,1.242c12.2,2.543,23.231,4.841,31.307,6.517,3.962.8,7.2,1.442,9.506,1.911,1.078.2,1.946.363,2.59.492a4.752,4.752,0,0,0,.914.129Z" transform="translate(-134.59 -180.911)" fill="#263238"/>
            </g>
            <path id="Trazado_788425" data-name="Trazado 788425" d="M164.2,201.175a19.691,19.691,0,0,1,3-3.481,13.221,13.221,0,0,1,4.266-2.45c.867-.328,1.84-.445,2.872-.774a3.6,3.6,0,0,0,1.465-.856,3.088,3.088,0,0,0,.774-1.594c.2-1.16.082-2.215.234-3.212a13.385,13.385,0,0,1,.68-2.836,9.721,9.721,0,0,1,1.16-2.344,3.253,3.253,0,0,1,1.746-1.266,2.638,2.638,0,0,1,1.77-.047,1.756,1.756,0,0,1,.926.938c.316.7.328,1.172.387,1.16.023,0,.023-.117.012-.328a2.837,2.837,0,0,0-.188-.926A2,2,0,0,0,182.3,182a2.92,2.92,0,0,0-2.028-.047,3.739,3.739,0,0,0-2.028,1.371,10.1,10.1,0,0,0-1.278,2.45,13.457,13.457,0,0,0-.738,2.954c-.176,1.043-.059,2.168-.246,3.165a2.469,2.469,0,0,1-.621,1.289,3.073,3.073,0,0,1-1.231.715c-.926.3-1.957.457-2.872.809a13.09,13.09,0,0,0-4.372,2.661,12,12,0,0,0-2.18,2.661,4.265,4.265,0,0,0-.539,1.137Z" transform="translate(-114.117 -168.358)" fill="#ff9a6c"/>
            <path id="Trazado_788426" data-name="Trazado 788426" d="M164.037,170.482a22.613,22.613,0,0,0,1.3,2.063,24.407,24.407,0,0,1,2.356,5.333c1.348,4.384,1.43,8.17,1.641,8.146a7.736,7.736,0,0,0,.035-2.473,26.4,26.4,0,0,0-1.09-5.86,19.621,19.621,0,0,0-2.567-5.392,6.424,6.424,0,0,0-1.664-1.828Z" transform="translate(-99.888 -170.308)" fill="#ff9a6c"/>
            <path id="Trazado_788427" data-name="Trazado 788427" d="M158.981,182.32c-.152.07,2.977,7.7,7.009,17.066s7.408,16.89,7.572,16.82-2.977-7.7-7.009-17.066-7.408-16.89-7.56-16.82Z" transform="translate(-98.102 -168.268)" fill="#263238"/>
            <path id="Trazado_788428" data-name="Trazado 788428" d="M166.372,184.062c-.164.047,1.559,6.775,3.856,15.015s4.278,14.9,4.442,14.862-1.559-6.775-3.856-15.026-4.278-14.9-4.442-14.862Z" transform="translate(-107.872 -167.971)" fill="#263238"/>
            <path id="Trazado_788429" data-name="Trazado 788429" d="M186.35,190.261c.012.164,5.1-.211,11.334-.844s11.3-1.278,11.276-1.442-5.087.211-11.334.844A108.7,108.7,0,0,0,186.35,190.261Z" transform="translate(-165.58 -167.301)" fill="#ff9a6c"/>
            <path id="Trazado_788430" data-name="Trazado 788430" d="M197.9,180.541c-.141.082.6,1.43,2.028,2.626s2.86,1.711,2.919,1.559c.082-.164-1.184-.879-2.532-2.028s-2.274-2.262-2.426-2.157Z" transform="translate(-172.997 -168.576)" fill="#ff9a6c"/>
          </g>
          <path id="Trazado_788431" data-name="Trazado 788431" d="M208.618,226.87a2.554,2.554,0,0,0-.281.023c-.211.035-.481.07-.82.129-.762.129-1.828.3-3.188.539-2.825.5-6.892,1.219-12.014,2.133l-.164.035.023.176c1.559,14.288,4.442,37.226,9.424,62.731,2.11,10.842,4.442,21.121,6.786,30.4,2.145,9.306,4.243,17.722,7,24.45,1.383,3.329,3.024,6.329,5.263,8.216a20.656,20.656,0,0,0,6.2,4.009,18.516,18.516,0,0,0,4.513,1.207,11.279,11.279,0,0,0,1.629.105,2.924,2.924,0,0,0-.41-.059c-.27-.023-.668-.082-1.2-.164a19.569,19.569,0,0,1-4.442-1.3,20.724,20.724,0,0,1-6.06-4.032c-2.192-1.887-3.739-4.794-5.1-8.123-2.684-6.7-4.735-15.085-6.857-24.427-2.309-9.283-4.618-19.551-6.728-30.381-4.981-25.481-7.947-48.384-9.658-62.649l-.152.2c5.11-.985,9.166-1.758,11.991-2.3,1.36-.27,2.415-.481,3.176-.633.34-.07.6-.129.809-.176a.946.946,0,0,0,.27-.082Z" transform="translate(-32.147 -9.586)" fill="#263238"/>
        </g>
      </g>
      <g id="Speech_Bubble" data-name="Speech Bubble" transform="translate(124.667 196.164)">
        <g id="Grupo_1053522" data-name="Grupo 1053522" transform="translate(0 0)">
          <g id="Grupo_1053521" data-name="Grupo 1053521">
            <path id="Trazado_788432" data-name="Trazado 788432" d="M424.039,140.584l-4.583-13.8a46.476,46.476,0,1,0-11.569,11.944v.023l16.14,1.828Z" transform="translate(-334.244 -54.468)" fill="#fff"/>
            <path id="Trazado_788433" data-name="Trazado 788433" d="M424.209,140.625s-.375-.059-1.078-.141-1.746-.211-3.106-.387c-2.731-.328-6.751-.809-11.967-1.442l.094.234v-.023a.133.133,0,0,0-.176-.2,46.244,46.244,0,0,1-28.423,8.545,50.983,50.983,0,0,1-7.584-.949A46.023,46.023,0,0,1,365.956,57.7a46.773,46.773,0,0,1,21.063-2.192,45.274,45.274,0,0,1,18.742,6.822,46.565,46.565,0,0,1,13.292,12.846,45.91,45.91,0,0,1,6.81,15.331l.422,1.934a11.838,11.838,0,0,1,.328,1.911c.152,1.278.293,2.532.445,3.774a63.367,63.367,0,0,1-.082,7.185,46.253,46.253,0,0,1-7.478,21.438.139.139,0,0,0-.012.117c1.512,4.442,2.672,7.853,3.469,10.186.4,1.149.7,2.028.914,2.649.211.6.328.914.328.914s-.082-.281-.27-.867c-.2-.609-.481-1.489-.844-2.626-.762-2.368-1.887-5.837-3.34-10.338v.117a46.322,46.322,0,0,0,7.666-21.555,64.43,64.43,0,0,0,.117-7.255c-.141-1.254-.281-2.52-.434-3.809a12.358,12.358,0,0,0-.328-1.934c-.141-.645-.281-1.3-.422-1.957a46.641,46.641,0,0,0-20.266-28.564,45.871,45.871,0,0,0-18.988-6.939,47.242,47.242,0,0,0-21.356,2.2,46.331,46.331,0,0,0-18.824,12.284,18.87,18.87,0,0,0-1.852,2.133L343.3,73.7l-1.535,2.344a21.415,21.415,0,0,0-1.442,2.379c-.434.82-.867,1.641-1.289,2.45a25.327,25.327,0,0,0-1.09,2.532c-.328.856-.727,1.688-1.008,2.555-.258.879-.516,1.746-.774,2.614A46.116,46.116,0,0,0,335.2,109.6a46.733,46.733,0,0,0,21.074,30.967,46.2,46.2,0,0,0,15.577,6.177,52.137,52.137,0,0,0,7.666.926,45.254,45.254,0,0,0,7.208-.34,46.357,46.357,0,0,0,21.4-8.439l-.2-.211v.023a.127.127,0,0,0,0,.2.106.106,0,0,0,.082.035c5.274.551,9.33.985,12.084,1.278,1.336.141,2.356.246,3.071.316.68.07,1.02.094,1.02.094Z" transform="translate(-334.414 -54.508)" fill="#263238"/>
          </g>
          <path id="Trazado_788434" data-name="Trazado 788434" d="M355.82,98.211l6.47-7.161,13.725,11.029L396.41,78.66l6.669,6.493-27.369,30.111Z" transform="translate(-335.014 -50.352)" fill="#ff725e"/>
        </g>
      </g>
    </g>
  </g>
</svg>
