<svg xmlns="http://www.w3.org/2000/svg" xmlns:xlink="http://www.w3.org/1999/xlink" width="120" height="120" viewBox="0 0 120 120">
  <defs>
    <filter id="Elipse_7985" x="0" y="0" width="120" height="120" filterUnits="userSpaceOnUse">
      <feOffset dy="3" input="SourceAlpha"/>
      <feGaussianBlur stdDeviation="3" result="blur"/>
      <feFlood flood-opacity="0.161"/>
      <feComposite operator="in" in2="blur"/>
      <feComposite in="SourceGraphic"/>
    </filter>
  </defs>
  <g id="Grupo_1055062" data-name="Grupo 1055062" transform="translate(-897.291 -5778.202)">
    <g transform="matrix(1, 0, 0, 1, 897.29, 5778.2)" filter="url(#Elipse_7985)">
      <circle id="Elipse_7985-2" data-name="Elipse 7985" cx="51" cy="51" r="51" transform="translate(9 6)" fill="#ffc5ad"/>
    </g>
    <g id="Page-1" transform="translate(920.001 5780.005)">
      <g id="_009---Weight-Loss-Plan" data-name="009---Weight-Loss-Plan" transform="translate(-0.001 -0.006)">
        <path id="Shape" d="M67.054,17.9V55.736C46.364,47.277,25.69,71.935,5,63.46V17.9A4.9,4.9,0,0,1,9.9,13h9.8v3.266a3.276,3.276,0,0,0,3.266,3.266H49.091a3.276,3.276,0,0,0,3.266-3.266V13h9.8a4.9,4.9,0,0,1,4.9,4.9Z" transform="translate(1.534 6.606)" fill="#f3ba66"/>
        <path id="Shape-2" data-name="Shape" d="M14.266,19.532h4.9A3.276,3.276,0,0,1,15.9,16.266V13H11v3.266A3.276,3.276,0,0,0,14.266,19.532Z" transform="translate(5.332 6.606)" fill="#d38b22"/>
        <path id="Shape-3" data-name="Shape" d="M41.9,13H37a4.9,4.9,0,0,1,4.9,4.9V54.34a23.7,23.7,0,0,1,4.9,1.4V17.9A4.9,4.9,0,0,0,41.9,13Z" transform="translate(21.79 6.606)" fill="#d38b22"/>
        <path id="Shape-4" data-name="Shape" d="M67.054,49.866V62.652a4.9,4.9,0,0,1-4.9,4.9H9.9a4.9,4.9,0,0,1-4.9-4.9V57.59c20.69,8.475,41.364-16.183,62.054-7.724Z" transform="translate(1.534 28.806)" fill="#f3ba66"/>
        <path id="Shape-5" data-name="Shape" d="M35.719,48.2a23.861,23.861,0,0,1,6.991,1.674V62.656a4.9,4.9,0,0,1-4.9,4.9h4.9a4.9,4.9,0,0,0,4.9-4.9V49.869A25.062,25.062,0,0,0,35.719,48.2Z" transform="translate(20.98 28.802)" fill="#d38b22"/>
        <path id="Shape-6" data-name="Shape" d="M46.66,18.889v4.344A3.276,3.276,0,0,1,43.394,26.5H17.266A3.276,3.276,0,0,1,14,23.233V18.889a4.922,4.922,0,0,1,3.707-4.752l2.482-.621A4.736,4.736,0,0,0,23.8,8.748,6.808,6.808,0,0,1,23.863,7.6a6.532,6.532,0,0,1,13,.931v.049a5.168,5.168,0,0,0,3.9,5.013l2.188.539A4.922,4.922,0,0,1,46.66,18.889Z" transform="translate(7.231 -0.361)" fill="#9e9e9e"/>
        <path id="Shape-7" data-name="Shape" d="M37.573,14.134,35.384,13.6a5.168,5.168,0,0,1-3.9-5.013V8.533A6.532,6.532,0,0,0,24.133,2.05a6.354,6.354,0,0,0-1.633.456,6.506,6.506,0,0,1,4.083,6.027v.049a5.168,5.168,0,0,0,3.9,5.013l2.188.539a4.922,4.922,0,0,1,3.707,4.752V23.23A3.276,3.276,0,0,1,33.115,26.5h4.9A3.276,3.276,0,0,0,41.28,23.23V18.886A4.922,4.922,0,0,0,37.573,14.134Z" transform="translate(12.612 -0.358)" fill="#707070"/>
        <path id="Shape-8" data-name="Shape" d="M73.852,44.161V57.225c0,.914-.735,1.127-1.633.6A27.687,27.687,0,0,0,68.953,56.2C48.263,47.737,27.589,72.4,6.9,63.92a29,29,0,0,1-3.266-1.633A3.555,3.555,0,0,1,2,59.625V46.561c0-.9.735-1.127,1.633-.6A29,29,0,0,0,6.9,47.59c20.69,8.475,41.364-16.183,62.054-7.724A27.684,27.684,0,0,1,72.219,41.5,3.555,3.555,0,0,1,73.852,44.161Z" transform="translate(-0.365 22.476)" fill="#ffdc00"/>
        <rect id="Rectangle-path" width="13" height="13" rx="2" transform="translate(47 31)" fill="#f5f5f5"/>
        <g id="Grupo_1046014" data-name="Grupo 1046014">
          <path id="Shape-9" data-name="Shape" d="M35,58.532a1.633,1.633,0,0,0,1.633,1.633h4.9a1.633,1.633,0,0,0,1.633-1.633v-4.9a1.633,1.633,0,0,0-3.266,0V56.9H36.633A1.633,1.633,0,0,0,35,58.532Z" transform="translate(20.524 31.293)"/>
          <path id="Shape-10" data-name="Shape" d="M24.633,11.532A1.633,1.633,0,0,0,26.266,9.9V6.633a1.633,1.633,0,0,0-3.266,0V9.9A1.633,1.633,0,0,0,24.633,11.532Z" transform="translate(12.928 1.542)"/>
          <path id="Shape-11" data-name="Shape" d="M20.633,15.266H33.7A1.633,1.633,0,0,0,33.7,12H20.633a1.633,1.633,0,1,0,0,3.266Z" transform="translate(10.396 5.973)"/>
          <path id="Shape-12" data-name="Shape" d="M3.439,87.17A24.282,24.282,0,0,0,5.9,88.44v4.012a6.532,6.532,0,0,0,6.532,6.532H64.688a6.532,6.532,0,0,0,6.532-6.532V82.28c.268.145.537.268.805.425a2.864,2.864,0,0,0,2.9.194,2.45,2.45,0,0,0,1.19-2.2V67.631a5.149,5.149,0,0,0-2.438-4.074,24.374,24.374,0,0,0-2.461-1.279V25.5a6.532,6.532,0,0,0-6.532-6.532H56.476a6.506,6.506,0,0,0-4.9-5.779l-2.188-.549a3.526,3.526,0,0,1-2.663-3.47A8.165,8.165,0,0,0,30.477,8.008,8.328,8.328,0,0,0,30.4,9.44a3.147,3.147,0,0,1-2.376,3.127l-2.482.621a6.506,6.506,0,0,0-4.9,5.779H12.432A6.532,6.532,0,0,0,5.9,25.5V68.447c-.269-.145-.539-.269-.808-.426a2.864,2.864,0,0,0-2.9-.194A2.45,2.45,0,0,0,1,70.028V83.092A5.152,5.152,0,0,0,3.439,87.17Zm64.515,5.283a3.266,3.266,0,0,1-3.266,3.266H12.432a3.266,3.266,0,0,1-3.266-3.266V89.688a26.161,26.161,0,0,0,7.693,1.143c7.541,0,15-2.917,22.3-5.773,9.942-3.89,19.4-7.59,28.8-4.246ZM23.863,19.524a3.266,3.266,0,0,1,2.474-3.17l2.481-.621a6.426,6.426,0,0,0,4.844-6.4,5.149,5.149,0,0,1,.047-.877,4.92,4.92,0,0,1,4.223-4.148,5.5,5.5,0,0,1,.629-.038A4.855,4.855,0,0,1,41.8,5.5,4.928,4.928,0,0,1,43.459,9.2a6.769,6.769,0,0,0,5.137,6.6l2.187.547a3.266,3.266,0,0,1,2.474,3.168v4.342A1.633,1.633,0,0,1,51.624,25.5H25.5a1.633,1.633,0,0,1-1.633-1.633ZM9.166,25.5a3.266,3.266,0,0,1,3.266-3.266H20.6v1.633a4.9,4.9,0,0,0,4.9,4.9H51.624a4.9,4.9,0,0,0,4.9-4.9V22.233h8.165A3.266,3.266,0,0,1,67.954,25.5V61.054a25.762,25.762,0,0,0-6.434-1.1c-.034,0-.064-.021-.1-.021s-.046.013-.07.015a40.435,40.435,0,0,0-13.6,2.167l-.039.011c-2.18.684-4.35,1.47-6.508,2.3l-.024.01c-1.075.41-2.147.828-3.215,1.244-9.942,3.89-19.4,7.589-28.8,4.246Zm-4.9,45.808a26.437,26.437,0,0,0,2.561,1.21,1.825,1.825,0,0,0,.186.072c.173.07.346.131.519.2v7.038a1.633,1.633,0,0,0,3.266,0V73.808a25.534,25.534,0,0,0,3.266.524v3.4a1.633,1.633,0,1,0,3.266,0v-3.24a32.7,32.7,0,0,0,3.266-.232v3.028a1.633,1.633,0,1,0,3.266,0V73.733c1.091-.222,2.18-.49,3.266-.79v2.729a1.633,1.633,0,1,0,3.266,0v-3.71c1.092-.358,2.18-.743,3.266-1.143v5.814a1.633,1.633,0,0,0,3.266,0V69.59q1.117-.431,2.227-.869l1.039-.407V70.83a1.633,1.633,0,0,0,3.266,0V67.057q1.641-.617,3.266-1.174v2.642a1.633,1.633,0,1,0,3.266,0V64.838q1.633-.48,3.266-.839v2.918a1.633,1.633,0,0,0,3.266,0v-3.49a29.407,29.407,0,0,1,3.266-.253v6.558a1.633,1.633,0,1,0,3.266,0V63.35a22.643,22.643,0,0,1,8.982,3.026,2.048,2.048,0,0,1,.817,1.254V79.416A26.617,26.617,0,0,0,70.3,78.209a1.65,1.65,0,0,0-.217-.082C59.2,73.718,48.42,77.912,37.966,82c-11.379,4.452-22.124,8.655-32.874,2.345a2.051,2.051,0,0,1-.825-1.254Z" transform="translate(-0.999 -0.994)"/>
          <ellipse id="Oval" cx="2" cy="1.5" rx="2" ry="1.5" transform="translate(65 69)"/>
          <path id="Shape-13" data-name="Shape" d="M33.9,35.33h6.532a4.9,4.9,0,0,0,4.9-4.9V23.9a4.9,4.9,0,0,0-4.9-4.9H33.9A4.9,4.9,0,0,0,29,23.9v6.532A4.9,4.9,0,0,0,33.9,35.33ZM32.266,23.9A1.633,1.633,0,0,1,33.9,22.266h6.532A1.633,1.633,0,0,1,42.064,23.9v6.532a1.633,1.633,0,0,1-1.633,1.633H33.9a1.633,1.633,0,0,1-1.633-1.633Z" transform="translate(16.726 10.404)"/>
          <path id="Shape-14" data-name="Shape" d="M30.633,37.532A1.633,1.633,0,0,0,32.266,35.9,1.633,1.633,0,0,1,33.9,34.266h6.532A1.633,1.633,0,0,1,42.064,35.9a1.633,1.633,0,0,0,3.266,0,4.9,4.9,0,0,0-4.9-4.9H33.9A4.9,4.9,0,0,0,29,35.9,1.633,1.633,0,0,0,30.633,37.532Z" transform="translate(16.726 18)"/>
          <g id="barra-grafica_1_" data-name="barra-grafica (1)" transform="translate(10.73 7.22)">
            <path id="Trazado_775171" data-name="Trazado 775171" d="M48.1,240.044h6.853v12.564H48.1Z" transform="translate(-44.665 -200.571)" fill="#9e9e9e"/>
            <path id="Trazado_775172" data-name="Trazado 775172" d="M192.1,144.044h6.853v19.417H192.1Z" transform="translate(-178.386 -111.424)" fill="#d8ecfe"/>
            <path id="Trazado_775173" data-name="Trazado 775173" d="M336.1,64.044h6.853V89.171H336.1Z" transform="translate(-312.106 -37.134)" fill="#9e9e9e"/>
            <path id="Trazado_775174" data-name="Trazado 775174" d="M12,32.615,13.88,34.5,9.144,39.232,7.834,37.922a.571.571,0,0,0-.807,0L.174,44.775a.571.571,0,0,0,.793.822l.014-.014,6.449-6.449L8.74,40.443a.571.571,0,0,0,.807,0l5.14-5.14,1.881,1.881.571-5.14Z" transform="translate(0 -7.419)" fill="#d8ecfe"/>
            <g id="Grupo_1046035" data-name="Grupo 1046035" transform="translate(5.146 34.334)">
              <path id="Trazado_775175" data-name="Trazado 775175" d="M72.669,362.328a.571.571,0,0,1-.571-.571v-1.142a.571.571,0,1,1,1.142,0v1.142A.571.571,0,0,1,72.669,362.328Z" transform="translate(-72.098 -346.338)" fill="#fff"/>
              <path id="Trazado_775176" data-name="Trazado 775176" d="M72.669,299.47a.571.571,0,0,1-.571-.571v-2.284a.571.571,0,1,1,1.142,0V298.9A.571.571,0,0,1,72.669,299.47Z" transform="translate(-72.098 -286.907)" fill="#fff"/>
              <path id="Trazado_775177" data-name="Trazado 775177" d="M216.669,362.328a.571.571,0,0,1-.571-.571v-1.142a.571.571,0,1,1,1.142,0v1.142A.571.571,0,0,1,216.669,362.328Z" transform="translate(-205.819 -346.338)" fill="#fff"/>
              <path id="Trazado_775178" data-name="Trazado 775178" d="M216.669,254.9a.571.571,0,0,1-.571-.571v-5.711a.571.571,0,1,1,1.142,0v5.711A.571.571,0,0,1,216.669,254.9Z" transform="translate(-205.819 -242.333)" fill="#fff"/>
              <path id="Trazado_775179" data-name="Trazado 775179" d="M360.669,362.328a.571.571,0,0,1-.571-.571v-1.142a.571.571,0,1,1,1.142,0v1.142A.571.571,0,0,1,360.669,362.328Z" transform="translate(-339.539 -346.338)" fill="#fff"/>
              <path id="Trazado_775180" data-name="Trazado 775180" d="M360.669,180.608a.571.571,0,0,1-.571-.571V168.615a.571.571,0,1,1,1.142,0v11.421A.571.571,0,0,1,360.669,180.608Z" transform="translate(-339.539 -168.044)" fill="#fff"/>
            </g>
            <path id="Trazado_775182" data-name="Trazado 775182" d="M40.669,232.044a.571.571,0,0,0-.571.571v12.564a.571.571,0,0,0,.571.571h6.853a.571.571,0,0,0,.571-.571V232.615a.571.571,0,0,0-.571-.571Zm6.282,12.564H41.24V233.186h5.711Z" transform="translate(-37.236 -193.142)"/>
            <path id="Trazado_775183" data-name="Trazado 775183" d="M184.669,136.044a.571.571,0,0,0-.571.571v19.417a.571.571,0,0,0,.571.571h6.853a.571.571,0,0,0,.571-.571V136.615a.571.571,0,0,0-.571-.571Zm6.282,19.417H185.24V137.186h5.711Z" transform="translate(-170.957 -103.995)"/>
            <path id="Trazado_775184" data-name="Trazado 775184" d="M328.669,82.313h6.853a.571.571,0,0,0,.571-.571V56.615a.571.571,0,0,0-.571-.571h-6.853a.571.571,0,0,0-.571.571V81.742A.571.571,0,0,0,328.669,82.313Zm.571-25.127h5.711V81.171H329.24Z" transform="translate(-304.677 -29.706)"/>
            <path id="Trazado_775185" data-name="Trazado 775185" d="M.267,38.164a.571.571,0,0,0,.807,0l6.449-6.449,1.309,1.309a.571.571,0,0,0,.807,0l4.736-4.736,1.881,1.881a.571.571,0,0,0,.971-.343l.571-5.14a.571.571,0,0,0-.628-.628l-5.14.571a.571.571,0,0,0-.343.971l1.881,1.881L9.237,31.813,7.927,30.5a.571.571,0,0,0-.807,0L.267,37.356a.571.571,0,0,0,0,.807ZM16.585,25.272l-.361,3.249-2.888-2.888Z" transform="translate(-0.093 0)"/>
            <path id="Trazado_775186" data-name="Trazado 775186" d="M72.669,362.328a.571.571,0,0,0,.571-.571v-1.142a.571.571,0,1,0-1.142,0v1.142A.571.571,0,0,0,72.669,362.328Z" transform="translate(-66.952 -312.005)"/>
            <path id="Trazado_775187" data-name="Trazado 775187" d="M72.669,299.47a.571.571,0,0,0,.571-.571v-2.284a.571.571,0,1,0-1.142,0V298.9A.571.571,0,0,0,72.669,299.47Z" transform="translate(-66.952 -252.573)"/>
            <path id="Trazado_775188" data-name="Trazado 775188" d="M216.669,362.328a.571.571,0,0,0,.571-.571v-1.142a.571.571,0,1,0-1.142,0v1.142A.571.571,0,0,0,216.669,362.328Z" transform="translate(-200.672 -312.005)"/>
            <path id="Trazado_775189" data-name="Trazado 775189" d="M216.669,254.9a.571.571,0,0,0,.571-.571v-5.711a.571.571,0,1,0-1.142,0v5.711A.571.571,0,0,0,216.669,254.9Z" transform="translate(-200.672 -208)"/>
            <path id="Trazado_775190" data-name="Trazado 775190" d="M360.669,360.044a.571.571,0,0,0-.571.571v1.142a.571.571,0,0,0,1.142,0v-1.142A.571.571,0,0,0,360.669,360.044Z" transform="translate(-334.393 -312.005)"/>
            <path id="Trazado_775191" data-name="Trazado 775191" d="M360.669,168.044a.571.571,0,0,0-.571.571v11.421a.571.571,0,1,0,1.142,0V168.615A.571.571,0,0,0,360.669,168.044Z" transform="translate(-334.393 -133.71)"/>
          </g>
        </g>
      </g>
    </g>
  </g>
</svg>
