<svg xmlns="http://www.w3.org/2000/svg" xmlns:xlink="http://www.w3.org/1999/xlink" width="87.878" height="87.878" viewBox="0 0 87.878 87.878">
  <defs>
    <clipPath id="clip-path">
      <path id="path1977" d="M0-682.665H87.878v87.878H0Z" transform="translate(0 682.665)"/>
    </clipPath>
  </defs>
  <g id="g1971" opacity="0.42">
    <g id="g1973" transform="translate(0 0)">
      <g id="g1975" transform="translate(0 0)" clip-path="url(#clip-path)">
        <g id="g1981" transform="translate(20.915 39.756)">
          <path id="path1983" d="M0-22.111l11.735-2.905A12.327,12.327,0,0,1,21.92-23.04" transform="translate(0 25.378)" fill="none" stroke="#000" stroke-linecap="round" stroke-linejoin="round" stroke-miterlimit="10" stroke-width="2.2"/>
        </g>
        <g id="g1985" transform="translate(20.54 59.492)">
          <path id="path1987" d="M-62.08-7.648h0a3.858,3.858,0,0,0-5.456,0l-2.586,2.586a3.858,3.858,0,0,0,0,5.456,3.858,3.858,0,0,0,5.456,0l2.586-2.586A3.858,3.858,0,0,0-62.08-7.648Z" transform="translate(71.252 8.778)" fill="none" stroke="#000" stroke-linecap="round" stroke-linejoin="round" stroke-miterlimit="10" stroke-width="2.2"/>
        </g>
        <g id="g1989" transform="translate(25.996 64.948)">
          <path id="path1991" d="M-62.08-7.648h0a3.858,3.858,0,0,0-5.456,0l-2.586,2.586a3.858,3.858,0,0,0,0,5.456,3.858,3.858,0,0,0,5.456,0l2.586-2.586A3.858,3.858,0,0,0-62.08-7.648Z" transform="translate(71.252 8.778)" fill="none" stroke="#000" stroke-linecap="round" stroke-linejoin="round" stroke-miterlimit="10" stroke-width="2.2"/>
        </g>
        <g id="g1993" transform="translate(31.451 70.404)">
          <path id="path1995" d="M-62.08-7.648h0a3.858,3.858,0,0,0-5.456,0l-2.586,2.586a3.858,3.858,0,0,0,0,5.456,3.858,3.858,0,0,0,5.456,0l2.586-2.586A3.858,3.858,0,0,0-62.08-7.648Z" transform="translate(71.252 8.778)" fill="none" stroke="#000" stroke-linecap="round" stroke-linejoin="round" stroke-miterlimit="10" stroke-width="2.2"/>
        </g>
        <g id="g1997" transform="translate(36.907 75.86)">
          <path id="path1999" d="M-62.08-7.648h0a3.858,3.858,0,0,0-5.456,0l-2.586,2.586a3.858,3.858,0,0,0,0,5.456,3.858,3.858,0,0,0,5.456,0l2.586-2.586A3.858,3.858,0,0,0-62.08-7.648Z" transform="translate(71.252 8.778)" fill="none" stroke="#000" stroke-linecap="round" stroke-linejoin="round" stroke-miterlimit="10" stroke-width="2.2"/>
        </g>
        <g id="g2001" transform="translate(52.022 49.6)">
          <path id="path2003" d="M-.279-78.127l6.536,6.536a3.858,3.858,0,0,0,5.456,0,3.858,3.858,0,0,0,0-5.456L-.32-89.67" transform="translate(0.32 89.67)" fill="none" stroke="#000" stroke-linecap="round" stroke-linejoin="round" stroke-miterlimit="10" stroke-width="2.2"/>
        </g>
        <g id="g2005" transform="translate(46.608 58.415)">
          <path id="path2007" d="M0-55.392l6.536,6.536a3.858,3.858,0,0,0,5.456,0,3.858,3.858,0,0,0,0-5.456L2.728-63.576" transform="translate(0 63.576)" fill="none" stroke="#000" stroke-linecap="round" stroke-linejoin="round" stroke-miterlimit="10" stroke-width="2.2"/>
        </g>
        <g id="g2009" transform="translate(41.152 63.871)">
          <path id="path2011" d="M0-55.391l6.536,6.536a3.858,3.858,0,0,0,5.456,0,3.858,3.858,0,0,0,0-5.456L2.728-63.575" transform="translate(0 63.575)" fill="none" stroke="#000" stroke-linecap="round" stroke-linejoin="round" stroke-miterlimit="10" stroke-width="2.2"/>
        </g>
        <g id="g2013" transform="translate(65.031 60.876)">
          <path id="path2015" d="M0-20.275l6.1-3" transform="translate(0 23.271)" fill="none" stroke="#000" stroke-linecap="round" stroke-linejoin="round" stroke-miterlimit="10" stroke-width="2.2"/>
        </g>
        <g id="g2017" transform="translate(17.056 61.017)">
          <path id="path2019" d="M-31.225-14.832l-4.613-2.191" transform="translate(35.839 17.024)" fill="none" stroke="#000" stroke-linecap="round" stroke-linejoin="round" stroke-miterlimit="10" stroke-width="2.2"/>
        </g>
        <g id="g2021" transform="translate(1.716 28.511)">
          <path id="path2023" d="M0,0,20.145,10.461l-5.925,24.9L0,30.857Z" fill="none" stroke="#000" stroke-linecap="round" stroke-linejoin="round" stroke-miterlimit="10" stroke-width="2.2"/>
        </g>
        <g id="g2025" transform="translate(66.017 28.511)">
          <path id="path2027" d="M-136.347,0l-20.145,10.461,5.925,24.9,14.22-4.5Z" transform="translate(156.492)" fill="none" stroke="#000" stroke-linecap="round" stroke-linejoin="round" stroke-miterlimit="10" stroke-width="2.2"/>
        </g>
        <g id="g2029" transform="translate(52.419 14.255)">
          <path id="path2031" d="M0-21.175A10.649,10.649,0,0,1,7.553-24.3h3.7A10.682,10.682,0,0,1,21.93-13.622v1.849H5.523" transform="translate(0 24.304)" fill="none" stroke="#000" stroke-linecap="round" stroke-linejoin="round" stroke-miterlimit="10" stroke-width="2.2"/>
        </g>
        <g id="g2033" transform="translate(56.607 1.716)">
          <path id="path2035" d="M-35.282,0h0a5.213,5.213,0,0,1,5.213,5.213V7.326a5.213,5.213,0,0,1-5.213,5.213,5.213,5.213,0,0,1-5.213-5.213V5.213A5.213,5.213,0,0,1-35.282,0Z" transform="translate(40.495)" fill="none" stroke="#000" stroke-linecap="round" stroke-linejoin="round" stroke-miterlimit="10" stroke-width="2.2"/>
        </g>
        <g id="g2037" transform="translate(13.529 14.255)">
          <path id="path2039" d="M-148.432-21.175a10.649,10.649,0,0,0-7.553-3.129h-3.7a10.682,10.682,0,0,0-10.682,10.682v1.849h16.408" transform="translate(170.362 24.304)" fill="none" stroke="#000" stroke-linecap="round" stroke-linejoin="round" stroke-miterlimit="10" stroke-width="2.2"/>
        </g>
        <g id="g2041" transform="translate(20.846 1.716)">
          <path id="path2043" d="M-35.281,0h0a5.213,5.213,0,0,0-5.213,5.213V7.326a5.213,5.213,0,0,0,5.213,5.213,5.213,5.213,0,0,0,5.213-5.213V5.213A5.213,5.213,0,0,0-35.281,0Z" transform="translate(40.493)" fill="none" stroke="#000" stroke-linecap="round" stroke-linejoin="round" stroke-miterlimit="10" stroke-width="2.2"/>
        </g>
        <g id="g2045" transform="translate(35.836 39.335)">
          <path id="path2047" d="M-109.553-69.478l-10.224,3.949a4.383,4.383,0,0,1-5.259-1.707,4.383,4.383,0,0,1,1.082-5.912l7.054-5.19a7.22,7.22,0,0,1,5.985-1.2L-95.558-75.8" transform="translate(125.739 79.744)" fill="none" stroke="#000" stroke-linecap="round" stroke-linejoin="round" stroke-miterlimit="10" stroke-width="2.2"/>
        </g>
        <g id="g2049" transform="translate(30.14 15.526)">
          <path id="path2051" d="M-145.674-93.409h6.076v-2.036a11.764,11.764,0,0,0-11.764-11.765h-4.07A11.764,11.764,0,0,0-167.2-95.446v2.036h6.076" transform="translate(167.197 107.21)" fill="none" stroke="#000" stroke-linecap="round" stroke-linejoin="round" stroke-miterlimit="10" stroke-width="2.2"/>
        </g>
        <g id="g2053" transform="translate(38.198 1.716)">
          <path id="path2055" d="M-38.856,0h0A5.741,5.741,0,0,0-44.6,5.741V8.069a5.741,5.741,0,0,0,5.741,5.741,5.741,5.741,0,0,0,5.741-5.741V5.741A5.741,5.741,0,0,0-38.856,0Z" transform="translate(44.597)" fill="none" stroke="#000" stroke-linecap="round" stroke-linejoin="round" stroke-miterlimit="10" stroke-width="2.2"/>
        </g>
        <g id="g2057" transform="translate(43.939 15.526)">
          <path id="path2059" d="M0,0V4.061" transform="translate(0)" fill="none" stroke="#000" stroke-linecap="round" stroke-linejoin="round" stroke-miterlimit="10" stroke-width="2.2"/>
        </g>
        <g id="g2061" transform="translate(61.82 14.255)">
          <path id="path2063" d="M0,0V3.3" transform="translate(0)" fill="none" stroke="#000" stroke-linecap="round" stroke-linejoin="round" stroke-miterlimit="10" stroke-width="2.2"/>
        </g>
        <g id="g2065" transform="translate(26.058 14.255)">
          <path id="path2067" d="M0,0V3.3" transform="translate(0)" fill="none" stroke="#000" stroke-linecap="round" stroke-linejoin="round" stroke-miterlimit="10" stroke-width="2.2"/>
        </g>
        <g id="g2069" transform="translate(43.939 29.327)">
          <path id="path2071" d="M0,0H0" transform="translate(0)" fill="none" stroke="#000" stroke-linecap="round" stroke-linejoin="round" stroke-miterlimit="10" stroke-width="2.2"/>
        </g>
      </g>
    </g>
  </g>
</svg>
