<svg xmlns="http://www.w3.org/2000/svg" xmlns:xlink="http://www.w3.org/1999/xlink" width="130.912" height="130.912" viewBox="0 0 130.912 130.912">
  <defs>
    <filter id="Elipse_7984" x="0" y="0" width="130.912" height="130.912" filterUnits="userSpaceOnUse">
      <feOffset dy="3" input="SourceAlpha"/>
      <feGaussianBlur stdDeviation="3" result="blur"/>
      <feFlood flood-opacity="0.161"/>
      <feComposite operator="in" in2="blur"/>
      <feComposite in="SourceGraphic"/>
    </filter>
  </defs>
  <g id="Grupo_1047345" data-name="Grupo 1047345" transform="translate(-311.68 -1512.308)">
    <g transform="matrix(1, 0, 0, 1, 311.68, 1512.31)" filter="url(#Elipse_7984)">
      <circle id="Elipse_7984-2" data-name="Elipse 7984" cx="56.456" cy="56.456" r="56.456" transform="translate(9 6)" fill="#ffe6ea"/>
    </g>
    <g id="montaje" transform="translate(330.68 1528.308)">
      <path id="Trazado_779050" data-name="Trazado 779050" d="M89.371,2V7.825H2V2Z" transform="translate(0.456 0.456)" fill="#969faa"/>
      <g id="Grupo_1047350" data-name="Grupo 1047350" transform="translate(10.509 8.281)">
        <path id="Trazado_779051" data-name="Trazado 779051" d="M17.024,13.56a4.364,4.364,0,0,0,4.3,3.553,2.578,2.578,0,0,0,.335-.015L12.132,29.447a5.652,5.652,0,0,0-.626-1.121A5.748,5.748,0,0,0,7.53,25.908Z" transform="translate(-7.53 -2.551)" fill="#ccd1d9"/>
        <path id="Trazado_779052" data-name="Trazado 779052" d="M20.825,6v6.946a4.343,4.343,0,0,0-5.825,0V6Z" transform="translate(-4.122 -6)" fill="#ccd1d9"/>
        <path id="Trazado_779053" data-name="Trazado 779053" d="M45,12.946V6h5.825v6.946a4.343,4.343,0,0,0-5.825,0Z" transform="translate(9.563 -6)" fill="#ccd1d9"/>
        <path id="Trazado_779054" data-name="Trazado 779054" d="M47.1,17.113a4.364,4.364,0,0,0,4.3-3.553l9.494,12.348a5.748,5.748,0,0,0-3.975,2.417,5.652,5.652,0,0,0-.626,1.121L46.77,17.1A2.578,2.578,0,0,0,47.1,17.113Z" transform="translate(10.371 -2.551)" fill="#ccd1d9"/>
      </g>
      <path id="Trazado_779055" data-name="Trazado 779055" d="M56.506,28l.044.044a14.392,14.392,0,0,0-3.451,5.8l-.044-.015H22.708l-.058.029A14.628,14.628,0,0,0,19.14,28Z" transform="translate(8.275 12.317)" fill="#aab2bd"/>
      <path id="Trazado_779056" data-name="Trazado 779056" d="M89.371,58v5.825H2V58H89.371Z" transform="translate(0.456 26.002)" fill="#aab2bd"/>
      <path id="Trazado_779057" data-name="Trazado 779057" d="M43,38H63.387V58.387H43Z" transform="translate(19.16 16.879)" fill="#d3a06c"/>
      <path id="Trazado_779058" data-name="Trazado 779058" d="M25,38H45.387V58.387H25Z" transform="translate(10.948 16.879)" fill="#d3a06c"/>
      <path id="Trazado_779059" data-name="Trazado 779059" d="M7,38H27.387V58.387H7Z" transform="translate(2.737 16.879)" fill="#d3a06c"/>
      <path id="Trazado_779060" data-name="Trazado 779060" d="M4.941,29.039,5.2,28.85c.029.029.058.044.073.073a5.814,5.814,0,0,0,6.9.83l.218.364a8.75,8.75,0,0,0-4.572,7.689,9.748,9.748,0,0,0,1.456,5.286V50.4A14.535,14.535,0,0,1,4.941,29.039Z" transform="translate(0.456 12.705)" fill="#ffeaa7"/>
      <path id="Trazado_779061" data-name="Trazado 779061" d="M23.77,29.369a14.515,14.515,0,0,1,2.708,16.513V43.93H20.945A8.747,8.747,0,0,0,9.208,31.873l-.218-.364a5.832,5.832,0,0,0,2.927-5.053,6.07,6.07,0,0,0-.16-1.369l.1-.015c.5-.044,1-.073,1.514-.073a14.553,14.553,0,0,1,10.4,4.369Z" transform="translate(3.645 10.948)" fill="#ffeaa7"/>
      <path id="Trazado_779062" data-name="Trazado 779062" d="M58.018,26.456a5.832,5.832,0,0,0,2.927,5.053l-.218.364A8.746,8.746,0,0,0,48.99,43.93H43.456v1.951A14.6,14.6,0,0,1,42,39.562a14.6,14.6,0,0,1,4.121-10.15A14.524,14.524,0,0,1,56.562,25c.51,0,1.019.029,1.514.073l.1.015a6.07,6.07,0,0,0-.16,1.369Z" transform="translate(18.703 10.948)" fill="#ffeaa7"/>
      <path id="Trazado_779063" data-name="Trazado 779063" d="M57.976,30.5a5.746,5.746,0,0,0,4-1.6l.335.116a14.535,14.535,0,0,1-4.339,21.362v-7.31a9.748,9.748,0,0,0,1.456-5.286,8.75,8.75,0,0,0-4.572-7.689l.218-.364a5.7,5.7,0,0,0,2.9.772Z" transform="translate(24.57 12.727)" fill="#ffeaa7"/>
      <path id="Trazado_779064" data-name="Trazado 779064" d="M9.6,22.058a5.748,5.748,0,0,1,3.975,2.417A5.652,5.652,0,0,1,14.2,25.6v.015a4.459,4.459,0,0,1,.291.845,6.07,6.07,0,0,1,.16,1.369,5.832,5.832,0,0,1-2.927,5.053,5.814,5.814,0,0,1-6.9-.83c-.015-.029-.044-.044-.073-.073a.145.145,0,0,1-.058-.073A5.72,5.72,0,0,1,3,27.825,5.823,5.823,0,0,1,8.825,22a4.592,4.592,0,0,1,.772.058Z" transform="translate(0.912 9.58)" fill="#fcd770"/>
      <path id="Trazado_779065" data-name="Trazado 779065" d="M18.369,18.737a4.364,4.364,0,0,1-4.3-3.553A4.994,4.994,0,0,1,14,14.369a4.228,4.228,0,0,1,1.456-3.233v-.015a4.343,4.343,0,0,1,5.825,0v.015a4.228,4.228,0,0,1,1.456,3.233A4.335,4.335,0,0,1,18.7,18.708v.015A2.578,2.578,0,0,1,18.369,18.737Z" transform="translate(5.93 4.106)" fill="#fcd770"/>
      <path id="Trazado_779066" data-name="Trazado 779066" d="M58.825,22a5.823,5.823,0,0,1,5.825,5.825A5.72,5.72,0,0,1,62.96,31.9a.626.626,0,0,1-.131.146,5.814,5.814,0,0,1-6.9.83A5.832,5.832,0,0,1,53,27.825a6.07,6.07,0,0,1,.16-1.369,4.459,4.459,0,0,1,.291-.845V25.6a5.652,5.652,0,0,1,.626-1.121,5.748,5.748,0,0,1,3.975-2.417A4.592,4.592,0,0,1,58.825,22Z" transform="translate(23.721 9.58)" fill="#fcd770"/>
      <path id="Trazado_779067" data-name="Trazado 779067" d="M52.664,15.184a4.364,4.364,0,0,1-4.3,3.553,2.578,2.578,0,0,1-.335-.015v-.015A4.335,4.335,0,0,1,44,14.369a4.228,4.228,0,0,1,1.456-3.233v-.015a4.343,4.343,0,0,1,5.825,0v.015a4.228,4.228,0,0,1,1.456,3.233A5,5,0,0,1,52.664,15.184Z" transform="translate(19.616 4.106)" fill="#fcd770"/>
      <path id="Trazado_779068" data-name="Trazado 779068" d="M11,38h8.737v8.737H11Z" transform="translate(4.562 16.879)" fill="#b27946"/>
      <path id="Trazado_779069" data-name="Trazado 779069" d="M37.737,38v8.737H29V38h8.737Z" transform="translate(12.773 16.879)" fill="#b27946"/>
      <path id="Trazado_779070" data-name="Trazado 779070" d="M47,38h8.737v8.737H47Z" transform="translate(20.984 16.879)" fill="#b27946"/>
      <path id="Trazado_779071" data-name="Trazado 779071" d="M91.283,9.737V1H1V9.737H19.93v4.925a5.769,5.769,0,0,0-1.456,3.812c0,.122.029.237.036.36l-8.689,11.3c-.028,0-.055-.006-.084-.006a7.245,7.245,0,0,0-5.969,11.4A15.867,15.867,0,0,0,1,50.51,16.051,16.051,0,0,0,8.281,63.881V76.721H18.474v5.825H1v8.737H91.283V82.546H73.809V76.721H84V63.881A16.051,16.051,0,0,0,91.283,50.51a15.874,15.874,0,0,0-2.768-8.983,7.245,7.245,0,0,0-5.969-11.4c-.029,0-.057,0-.084.006l-8.689-11.3c.007-.122.036-.237.036-.36a5.775,5.775,0,0,0-1.456-3.812V9.737ZM3.912,3.912H88.371V6.825H3.912ZM70.9,18.474a2.912,2.912,0,1,1-2.912-2.912A2.915,2.915,0,0,1,70.9,18.474Zm-7.281-3.812a5.769,5.769,0,0,0-1.456,3.812,5.829,5.829,0,0,0,4.706,5.711l7.946,10.329a15.942,15.942,0,0,0-10.506,4.347H27.977a15.939,15.939,0,0,0-10.506-4.345l7.946-10.329a5.788,5.788,0,0,0,3.25-9.525V9.737H63.616ZM69.44,56.335h5.825V62.16H69.44ZM68.6,53.423A7.278,7.278,0,1,1,82.546,50.51a8.777,8.777,0,0,1-.486,2.912Zm6.666-13.106a10.15,10.15,0,0,0-9.754,13.106h-3.02a12.918,12.918,0,0,1-.332-2.912A13.122,13.122,0,0,1,75.265,37.4a7.213,7.213,0,0,0,.635,2.944c-.211-.013-.421-.032-.635-.032ZM31.923,44.685a15.983,15.983,0,0,0-1.5-2.912H61.858a15.892,15.892,0,0,0-1.5,2.912Zm-5.152,8.737a10.15,10.15,0,0,0-9.753-13.106c-.214,0-.424.019-.635.032a7.213,7.213,0,0,0,.635-2.944A13.122,13.122,0,0,1,30.124,50.51a12.918,12.918,0,0,1-.332,2.912ZM9.737,50.51a7.281,7.281,0,1,1,13.947,2.912H10.223a8.776,8.776,0,0,1-.486-2.912Zm7.281,5.825h5.825V62.16H17.018ZM24.3,15.562a2.912,2.912,0,1,1-2.912,2.912A2.915,2.915,0,0,1,24.3,15.562Zm1.456-5.825v3.119a5.231,5.231,0,0,0-2.912,0V9.737Zm-6.033,12.3a5.848,5.848,0,0,0,2.293,1.8l-6.789,8.824a7.243,7.243,0,0,0-2.3-1.782Zm-9.985,11A4.351,4.351,0,0,1,13.3,34.91a4.125,4.125,0,0,1,.679,1.456,4.634,4.634,0,0,1,.122,1.038,4.364,4.364,0,0,1-7.3,3.236l-.185-.2A4.289,4.289,0,0,1,5.369,37.4,4.374,4.374,0,0,1,9.737,33.036ZM3.912,50.51a12.977,12.977,0,0,1,1.98-6.927,7.144,7.144,0,0,0,2.842,1.008A10.13,10.13,0,0,0,6.825,50.51a11.309,11.309,0,0,0,1.456,5.637v4.076A13.116,13.116,0,0,1,3.912,50.51Zm7.281,5.825h2.912v8.737H25.755V56.335h2.912V73.809H11.193ZM21.387,76.721H31.58V57.111a15.841,15.841,0,0,0,1.456-6.6,16,16,0,0,0-.278-2.912H44.685v5.825H34.492v23.3H44.685v5.825h-23.3ZM37.4,73.809V56.335h2.912v8.737H51.966V56.335h2.912V73.809ZM49.054,62.16H43.229V56.335h5.825ZM88.371,88.371H3.912V85.458H88.371ZM70.9,82.546H47.6V76.721H57.791v-23.3H47.6V47.6H59.525a16,16,0,0,0-.278,2.912,15.841,15.841,0,0,0,1.456,6.6v19.61H70.9ZM81.09,73.809H63.616V56.335h2.912v8.737H78.178V56.335H81.09ZM84,60.223V56.147a11.309,11.309,0,0,0,1.456-5.637,10.13,10.13,0,0,0-1.911-5.919,7.123,7.123,0,0,0,2.841-1.008,12.982,12.982,0,0,1,1.982,6.927A13.119,13.119,0,0,1,84,60.223ZM86.915,37.4a4.289,4.289,0,0,1-1.255,3.041l-.172.169-.015.029a4.322,4.322,0,0,1-2.927,1.13A4.374,4.374,0,0,1,78.178,37.4a4.664,4.664,0,0,1,.119-1.03,4.182,4.182,0,0,1,.7-1.487A4.357,4.357,0,0,1,86.915,37.4Zm-7.556-6.532a7.2,7.2,0,0,0-2.3,1.782l-6.787-8.823a5.835,5.835,0,0,0,2.293-1.8ZM69.44,12.856a5.231,5.231,0,0,0-2.912,0V9.737H69.44Z"/>
    </g>
  </g>
</svg>
