<svg xmlns="http://www.w3.org/2000/svg" xmlns:xlink="http://www.w3.org/1999/xlink" width="610" height="250" viewBox="0 0 610 250">
  <defs>
    <clipPath id="clip-path">
      <rect id="Rectángulo_367169" data-name="Rectángulo 367169" width="610" height="250" transform="translate(180 1026)" fill="#1448d3" opacity="0.79"/>
    </clipPath>
    <filter id="Trazado_778663" x="-9" y="-6" width="58" height="74" filterUnits="userSpaceOnUse">
      <feOffset dy="3" input="SourceAlpha"/>
      <feGaussianBlur stdDeviation="3" result="blur"/>
      <feFlood flood-opacity="0.161"/>
      <feComposite operator="in" in2="blur"/>
      <feComposite in="SourceGraphic"/>
    </filter>
    <filter id="Trazado_778663-2" x="201" y="-6" width="58" height="74" filterUnits="userSpaceOnUse">
      <feOffset dy="3" input="SourceAlpha"/>
      <feGaussianBlur stdDeviation="3" result="blur-2"/>
      <feFlood flood-opacity="0.161"/>
      <feComposite operator="in" in2="blur-2"/>
      <feComposite in="SourceGraphic"/>
    </filter>
    <filter id="Trazado_778663-3" x="411" y="-6" width="58" height="74" filterUnits="userSpaceOnUse">
      <feOffset dy="3" input="SourceAlpha"/>
      <feGaussianBlur stdDeviation="3" result="blur-3"/>
      <feFlood flood-opacity="0.161"/>
      <feComposite operator="in" in2="blur-3"/>
      <feComposite in="SourceGraphic"/>
    </filter>
    <filter id="Trazado_778663-4" x="-9" y="127" width="58" height="74" filterUnits="userSpaceOnUse">
      <feOffset dy="3" input="SourceAlpha"/>
      <feGaussianBlur stdDeviation="3" result="blur-4"/>
      <feFlood flood-opacity="0.161"/>
      <feComposite operator="in" in2="blur-4"/>
      <feComposite in="SourceGraphic"/>
    </filter>
    <filter id="Trazado_778663-5" x="201" y="127" width="58" height="74" filterUnits="userSpaceOnUse">
      <feOffset dy="3" input="SourceAlpha"/>
      <feGaussianBlur stdDeviation="3" result="blur-5"/>
      <feFlood flood-opacity="0.161"/>
      <feComposite operator="in" in2="blur-5"/>
      <feComposite in="SourceGraphic"/>
    </filter>
    <filter id="Trazado_778663-6" x="411" y="127" width="58" height="74" filterUnits="userSpaceOnUse">
      <feOffset dy="3" input="SourceAlpha"/>
      <feGaussianBlur stdDeviation="3" result="blur-6"/>
      <feFlood flood-opacity="0.161"/>
      <feComposite operator="in" in2="blur-6"/>
      <feComposite in="SourceGraphic"/>
    </filter>
  </defs>
  <g id="Enmascarar_grupo_724" data-name="Enmascarar grupo 724" transform="translate(-180 -1026)" clip-path="url(#clip-path)">
    <g id="Grupo_1054382" data-name="Grupo 1054382">
      <g id="Grupo_1047220" data-name="Grupo 1047220">
        <rect id="Rectángulo_357249" data-name="Rectángulo 357249" width="190" height="112" transform="translate(180 1031)" fill="#ffa884" opacity="0.47"/>
        <g id="Grupo_1047219" data-name="Grupo 1047219" transform="translate(180 1026)">
          <path id="Trazado_778662" data-name="Trazado 778662" d="M3.793,0,7.586,5.058H0Z" transform="translate(36.207)" fill="#ff6e33"/>
          <g transform="matrix(1, 0, 0, 1, 0, 0)" filter="url(#Trazado_778663)">
            <path id="Trazado_778663-7" data-name="Trazado 778663" d="M0,0H40V56H0Z" fill="#ff8b5b"/>
          </g>
        </g>
        <path id="Trazado_791301" data-name="Trazado 791301" d="M12.354-6.682a7.808,7.808,0,0,1-1.488,5.11A5.142,5.142,0,0,1,6.671.225,5.17,5.17,0,0,1,2.448-1.583a7.8,7.8,0,0,1-1.494-5.1V-9.669a7.808,7.808,0,0,1,1.488-5.11,5.155,5.155,0,0,1,4.206-1.8,5.157,5.157,0,0,1,4.211,1.808,7.815,7.815,0,0,1,1.494,5.11Zm-3.785-3.47a5.832,5.832,0,0,0-.46-2.634,1.539,1.539,0,0,0-1.46-.87,1.5,1.5,0,0,0-1.421.809A5.494,5.494,0,0,0,4.75-10.4v4.178a5.876,5.876,0,0,0,.46,2.678,1.545,1.545,0,0,0,1.46.848A1.524,1.524,0,0,0,8.1-3.521a5.609,5.609,0,0,0,.472-2.589ZM22.708,0h-3.8V-12.084l-3.729,1.089V-13.87l7.176-2.482h.348Z" transform="translate(185.872 1059.396)" fill="#12263f"/>
      </g>
      <g id="Grupo_1047227" data-name="Grupo 1047227" transform="translate(210)">
        <rect id="Rectángulo_357249-2" data-name="Rectángulo 357249" width="190" height="112" transform="translate(180 1031)" fill="#ffa884" opacity="0.47"/>
        <g id="Grupo_1047219-2" data-name="Grupo 1047219" transform="translate(180 1026)">
          <path id="Trazado_778662-2" data-name="Trazado 778662" d="M3.793,0,7.586,5.058H0Z" transform="translate(36.207)" fill="#ff6e33"/>
          <g transform="matrix(1, 0, 0, 1, -210, 0)" filter="url(#Trazado_778663-2)">
            <path id="Trazado_778663-8" data-name="Trazado 778663" d="M0,0H40V56H0Z" transform="translate(210)" fill="#ff8b5b"/>
          </g>
        </g>
        <path id="Trazado_791302" data-name="Trazado 791302" d="M12.354-6.682a7.808,7.808,0,0,1-1.488,5.11A5.142,5.142,0,0,1,6.671.225,5.17,5.17,0,0,1,2.448-1.583a7.8,7.8,0,0,1-1.494-5.1V-9.669a7.808,7.808,0,0,1,1.488-5.11,5.155,5.155,0,0,1,4.206-1.8,5.157,5.157,0,0,1,4.211,1.808,7.815,7.815,0,0,1,1.494,5.11Zm-3.785-3.47a5.832,5.832,0,0,0-.46-2.634,1.539,1.539,0,0,0-1.46-.87,1.5,1.5,0,0,0-1.421.809A5.494,5.494,0,0,0,4.75-10.4v4.178a5.876,5.876,0,0,0,.46,2.678,1.545,1.545,0,0,0,1.46.848A1.524,1.524,0,0,0,8.1-3.521a5.609,5.609,0,0,0,.472-2.589ZM25.729,0H14.319V-2.471L19.575-8q1.943-2.212,1.943-3.515a2.445,2.445,0,0,0-.46-1.606,1.644,1.644,0,0,0-1.336-.55,1.664,1.664,0,0,0-1.4.736,3.023,3.023,0,0,0-.539,1.836h-3.8a5.37,5.37,0,0,1,.752-2.78,5.277,5.277,0,0,1,2.089-1.993,6.205,6.205,0,0,1,2.987-.719,6.1,6.1,0,0,1,4.082,1.224,4.37,4.37,0,0,1,1.432,3.515,5.1,5.1,0,0,1-.359,1.881,8.249,8.249,0,0,1-1.117,1.92,28.148,28.148,0,0,1-2.443,2.69L19.294-2.92h6.435Z" transform="translate(185.872 1059.396)" fill="#12263f"/>
      </g>
      <g id="Grupo_1047228" data-name="Grupo 1047228" transform="translate(420)">
        <rect id="Rectángulo_357249-3" data-name="Rectángulo 357249" width="190" height="112" transform="translate(180 1031)" fill="#ffa884" opacity="0.47"/>
        <g id="Grupo_1047219-3" data-name="Grupo 1047219" transform="translate(180 1026)">
          <path id="Trazado_778662-3" data-name="Trazado 778662" d="M3.793,0,7.586,5.058H0Z" transform="translate(36.207)" fill="#ff6e33"/>
          <g transform="matrix(1, 0, 0, 1, -420, 0)" filter="url(#Trazado_778663-3)">
            <path id="Trazado_778663-9" data-name="Trazado 778663" d="M0,0H40V56H0Z" transform="translate(420)" fill="#ff8b5b"/>
          </g>
        </g>
        <path id="Trazado_791303" data-name="Trazado 791303" d="M12.354-6.682a7.808,7.808,0,0,1-1.488,5.11A5.142,5.142,0,0,1,6.671.225,5.17,5.17,0,0,1,2.448-1.583a7.8,7.8,0,0,1-1.494-5.1V-9.669a7.808,7.808,0,0,1,1.488-5.11,5.155,5.155,0,0,1,4.206-1.8,5.157,5.157,0,0,1,4.211,1.808,7.815,7.815,0,0,1,1.494,5.11Zm-3.785-3.47a5.832,5.832,0,0,0-.46-2.634,1.539,1.539,0,0,0-1.46-.87,1.5,1.5,0,0,0-1.421.809A5.494,5.494,0,0,0,4.75-10.4v4.178a5.876,5.876,0,0,0,.46,2.678,1.545,1.545,0,0,0,1.46.848A1.524,1.524,0,0,0,8.1-3.521a5.609,5.609,0,0,0,.472-2.589Zm9.209.393h1.786a1.857,1.857,0,0,0,2.123-2.078,1.8,1.8,0,0,0-.505-1.32,1.916,1.916,0,0,0-1.426-.511,2.052,2.052,0,0,0-1.308.438,1.336,1.336,0,0,0-.556,1.089H14.105a3.874,3.874,0,0,1,.719-2.3,4.746,4.746,0,0,1,1.993-1.578,6.815,6.815,0,0,1,2.8-.567,6.7,6.7,0,0,1,4.29,1.247,4.144,4.144,0,0,1,1.561,3.425,3.454,3.454,0,0,1-.646,1.993A4.6,4.6,0,0,1,22.944-8.4a4.4,4.4,0,0,1,2.044,1.432,3.771,3.771,0,0,1,.741,2.375,4.219,4.219,0,0,1-1.685,3.5A6.992,6.992,0,0,1,19.62.225a7.251,7.251,0,0,1-2.982-.612,4.672,4.672,0,0,1-2.083-1.7,4.409,4.409,0,0,1-.708-2.465h3.807a1.7,1.7,0,0,0,.606,1.3,2.141,2.141,0,0,0,1.494.55,2.243,2.243,0,0,0,1.595-.556,1.858,1.858,0,0,0,.6-1.421,2.172,2.172,0,0,0-.618-1.752A2.582,2.582,0,0,0,19.62-6.94H17.778Z" transform="translate(185.872 1059.396)" fill="#12263f"/>
      </g>
      <path id="Trazado_791306" data-name="Trazado 791306" d="M45.2,13.3a4.107,4.107,0,0,1-1.344,2.84,4.581,4.581,0,0,1-3.117,1.02,4.436,4.436,0,0,1-2.395-.645,4.231,4.231,0,0,1-1.6-1.832,6.611,6.611,0,0,1-.586-2.758V10.859a6.659,6.659,0,0,1,.57-2.836,4.3,4.3,0,0,1,1.637-1.891,4.566,4.566,0,0,1,2.465-.664,4.386,4.386,0,0,1,3.031,1.023A4.276,4.276,0,0,1,45.2,9.383H43.234a2.81,2.81,0,0,0-.715-1.77,2.363,2.363,0,0,0-1.684-.543,2.309,2.309,0,0,0-1.98.941,4.7,4.7,0,0,0-.707,2.762v1.008a4.988,4.988,0,0,0,.66,2.813,2.191,2.191,0,0,0,1.934.969,2.555,2.555,0,0,0,1.75-.523,2.729,2.729,0,0,0,.742-1.742ZM48.8,17h-1.9V5h1.9Zm4.086,0h-1.9V8.547h1.9ZM50.875,6.352a1.008,1.008,0,0,1,.277-.727,1.048,1.048,0,0,1,.793-.289,1.061,1.061,0,0,1,.8.289,1,1,0,0,1,.281.727.977.977,0,0,1-.281.715,1.069,1.069,0,0,1-.8.285,1.056,1.056,0,0,1-.793-.285A.984.984,0,0,1,50.875,6.352Zm7.8,10.8a3.928,3.928,0,0,1-2.926-1.137,4.124,4.124,0,0,1-1.121-3.027v-.234a5.072,5.072,0,0,1,.488-2.262,3.716,3.716,0,0,1,1.371-1.551,3.625,3.625,0,0,1,1.969-.555,3.318,3.318,0,0,1,2.668,1.1,4.658,4.658,0,0,1,.941,3.117v.766H56.547a2.539,2.539,0,0,0,.7,1.656,2.1,2.1,0,0,0,1.543.609,2.571,2.571,0,0,0,2.125-1.055l1.023.977a3.418,3.418,0,0,1-1.355,1.176A4.244,4.244,0,0,1,58.68,17.156Zm-.227-7.242a1.6,1.6,0,0,0-1.262.547,2.835,2.835,0,0,0-.613,1.523H60.2v-.141a2.307,2.307,0,0,0-.508-1.441A1.586,1.586,0,0,0,58.453,9.914ZM65.3,8.547l.055.977A3.039,3.039,0,0,1,67.82,8.391q2.641,0,2.688,3.023V17h-1.9V11.523a1.741,1.741,0,0,0-.348-1.191,1.462,1.462,0,0,0-1.137-.387,1.829,1.829,0,0,0-1.711,1.039V17h-1.9V8.547ZM74.82,6.492V8.547h1.492V9.953H74.82v4.719a1.039,1.039,0,0,0,.191.7.888.888,0,0,0,.684.215,2.925,2.925,0,0,0,.664-.078v1.469a4.676,4.676,0,0,1-1.25.18q-2.188,0-2.187-2.414V9.953H71.531V8.547h1.391V6.492Zm6.664,10.664a3.928,3.928,0,0,1-2.926-1.137,4.124,4.124,0,0,1-1.121-3.027v-.234a5.072,5.072,0,0,1,.488-2.262A3.716,3.716,0,0,1,79.3,8.945a3.625,3.625,0,0,1,1.969-.555,3.318,3.318,0,0,1,2.668,1.1,4.658,4.658,0,0,1,.941,3.117v.766H79.352a2.539,2.539,0,0,0,.7,1.656,2.1,2.1,0,0,0,1.543.609,2.571,2.571,0,0,0,2.125-1.055l1.023.977a3.418,3.418,0,0,1-1.355,1.176A4.244,4.244,0,0,1,81.484,17.156Zm-.227-7.242A1.6,1.6,0,0,0,80,10.461a2.835,2.835,0,0,0-.613,1.523H83v-.141a2.307,2.307,0,0,0-.508-1.441A1.586,1.586,0,0,0,81.258,9.914ZM91.086,14.7a.861.861,0,0,0-.418-.773,4.445,4.445,0,0,0-1.387-.469,7.129,7.129,0,0,1-1.617-.516,2.158,2.158,0,0,1-1.422-1.992,2.25,2.25,0,0,1,.922-1.828,3.644,3.644,0,0,1,2.344-.734,3.792,3.792,0,0,1,2.449.75,2.38,2.38,0,0,1,.934,1.945h-1.9a1.17,1.17,0,0,0-.406-.91,1.557,1.557,0,0,0-1.078-.363,1.682,1.682,0,0,0-1.02.289.911.911,0,0,0-.395.773.769.769,0,0,0,.367.68,5.049,5.049,0,0,0,1.484.488,7.027,7.027,0,0,1,1.754.586,2.484,2.484,0,0,1,.945.816,2.082,2.082,0,0,1,.309,1.156,2.2,2.2,0,0,1-.945,1.848,4.031,4.031,0,0,1-2.477.707,4.371,4.371,0,0,1-1.852-.375,3.047,3.047,0,0,1-1.266-1.031,2.441,2.441,0,0,1-.453-1.414H87.8a1.338,1.338,0,0,0,.508,1.035,1.973,1.973,0,0,0,1.242.363,1.92,1.92,0,0,0,1.141-.285A.883.883,0,0,0,91.086,14.7Z" transform="translate(210.5 1106.587)" fill="#12263f"/>
      <path id="Trazado_791305" data-name="Trazado 791305" d="M26.781,7.219H23.234V17H21.273V7.219H17.758V5.625h9.023Zm5.227,3.063a4.7,4.7,0,0,0-.773-.062,1.741,1.741,0,0,0-1.758,1V17h-1.9V8.547h1.813l.047.945a2.139,2.139,0,0,1,1.906-1.1,1.777,1.777,0,0,1,.672.109ZM38.023,17a2.93,2.93,0,0,1-.219-.789,3.193,3.193,0,0,1-4.3.219,2.325,2.325,0,0,1-.8-1.8,2.4,2.4,0,0,1,1-2.074,4.865,4.865,0,0,1,2.871-.723h1.164v-.555a1.481,1.481,0,0,0-.367-1.051,1.456,1.456,0,0,0-1.117-.395,1.672,1.672,0,0,0-1.062.324,1,1,0,0,0-.414.824h-1.9a2.107,2.107,0,0,1,.461-1.3A3.071,3.071,0,0,1,34.6,8.734a4.4,4.4,0,0,1,1.77-.344,3.547,3.547,0,0,1,2.367.746,2.661,2.661,0,0,1,.906,2.1v3.813a4.321,4.321,0,0,0,.32,1.82V17Zm-2.086-1.367A2.159,2.159,0,0,0,37,15.359a1.827,1.827,0,0,0,.746-.734V13.031H36.719a2.8,2.8,0,0,0-1.586.367,1.189,1.189,0,0,0-.531,1.039,1.109,1.109,0,0,0,.363.871A1.407,1.407,0,0,0,35.938,15.633Zm13.109-2.773a5.078,5.078,0,0,1-.879,3.133,2.863,2.863,0,0,1-2.418,1.164,2.758,2.758,0,0,1-2.312-1.07L43.344,17H41.625V5h1.9V9.359a2.748,2.748,0,0,1,2.211-.969,2.9,2.9,0,0,1,2.43,1.148,5.162,5.162,0,0,1,.883,3.211Zm-1.9-.164a3.589,3.589,0,0,0-.484-2.062,1.613,1.613,0,0,0-1.406-.687,1.763,1.763,0,0,0-1.734,1.078v3.484a1.781,1.781,0,0,0,1.75,1.1,1.6,1.6,0,0,0,1.375-.664,3.477,3.477,0,0,0,.5-2.008ZM55.688,17a2.93,2.93,0,0,1-.219-.789,3.193,3.193,0,0,1-4.3.219,2.325,2.325,0,0,1-.8-1.8,2.4,2.4,0,0,1,1-2.074,4.865,4.865,0,0,1,2.871-.723h1.164v-.555a1.481,1.481,0,0,0-.367-1.051,1.456,1.456,0,0,0-1.117-.395,1.672,1.672,0,0,0-1.062.324,1,1,0,0,0-.414.824h-1.9a2.107,2.107,0,0,1,.461-1.3,3.071,3.071,0,0,1,1.254-.949,4.4,4.4,0,0,1,1.77-.344,3.547,3.547,0,0,1,2.367.746,2.661,2.661,0,0,1,.906,2.1v3.813a4.321,4.321,0,0,0,.32,1.82V17ZM53.6,15.633a2.159,2.159,0,0,0,1.059-.273,1.827,1.827,0,0,0,.746-.734V13.031H54.383A2.8,2.8,0,0,0,52.8,13.4a1.189,1.189,0,0,0-.531,1.039,1.109,1.109,0,0,0,.363.871A1.407,1.407,0,0,0,53.6,15.633Zm7.672-7.086v9.2a2.781,2.781,0,0,1-.645,1.98,2.47,2.47,0,0,1-1.887.684,3.794,3.794,0,0,1-1.008-.133v-1.5a2.925,2.925,0,0,0,.672.07q.945,0,.969-1.031V8.547Zm-2.062-2.2a1.008,1.008,0,0,1,.277-.727,1.048,1.048,0,0,1,.793-.289,1.061,1.061,0,0,1,.8.289,1,1,0,0,1,.281.727.977.977,0,0,1-.281.715,1.069,1.069,0,0,1-.8.285,1.056,1.056,0,0,1-.793-.285A.984.984,0,0,1,59.211,6.352ZM68.352,17a2.93,2.93,0,0,1-.219-.789,3.193,3.193,0,0,1-4.3.219,2.325,2.325,0,0,1-.8-1.8,2.4,2.4,0,0,1,1-2.074,4.865,4.865,0,0,1,2.871-.723H68.07v-.555A1.481,1.481,0,0,0,67.7,10.23a1.456,1.456,0,0,0-1.117-.395,1.672,1.672,0,0,0-1.062.324,1,1,0,0,0-.414.824h-1.9a2.107,2.107,0,0,1,.461-1.3,3.071,3.071,0,0,1,1.254-.949,4.4,4.4,0,0,1,1.77-.344,3.547,3.547,0,0,1,2.367.746,2.661,2.661,0,0,1,.906,2.1v3.813a4.321,4.321,0,0,0,.32,1.82V17Zm-2.086-1.367a2.159,2.159,0,0,0,1.059-.273,1.827,1.827,0,0,0,.746-.734V13.031H67.047a2.8,2.8,0,0,0-1.586.367,1.189,1.189,0,0,0-.531,1.039,1.109,1.109,0,0,0,.363.871A1.407,1.407,0,0,0,66.266,15.633ZM71.6,12.711a5.026,5.026,0,0,1,.906-3.137,2.9,2.9,0,0,1,2.43-1.184,2.759,2.759,0,0,1,2.172.938V5h1.9V17H77.289l-.094-.875a2.8,2.8,0,0,1-2.273,1.031,2.887,2.887,0,0,1-2.4-1.2A5.21,5.21,0,0,1,71.6,12.711Zm1.9.164a3.519,3.519,0,0,0,.5,2.012,1.61,1.61,0,0,0,1.41.723,1.793,1.793,0,0,0,1.7-1.039V10.961a1.766,1.766,0,0,0-1.687-1.016,1.622,1.622,0,0,0-1.422.73A3.918,3.918,0,0,0,73.5,12.875Zm7.133-.18a4.984,4.984,0,0,1,.492-2.238,3.6,3.6,0,0,1,1.383-1.531,3.9,3.9,0,0,1,2.047-.535,3.692,3.692,0,0,1,2.777,1.1,4.333,4.333,0,0,1,1.152,2.922l.008.445a5.029,5.029,0,0,1-.48,2.234,3.551,3.551,0,0,1-1.375,1.523,3.925,3.925,0,0,1-2.066.539,3.667,3.667,0,0,1-2.863-1.191,4.563,4.563,0,0,1-1.074-3.176Zm1.9.164A3.406,3.406,0,0,0,83.07,14.9a1.752,1.752,0,0,0,1.5.738,1.733,1.733,0,0,0,1.5-.75,3.762,3.762,0,0,0,.535-2.2,3.362,3.362,0,0,0-.551-2.031,1.856,1.856,0,0,0-2.973-.012A3.691,3.691,0,0,0,82.531,12.859Zm11.992-2.578a4.7,4.7,0,0,0-.773-.062,1.741,1.741,0,0,0-1.758,1V17h-1.9V8.547h1.813l.047.945a2.139,2.139,0,0,1,1.906-1.1,1.777,1.777,0,0,1,.672.109Zm4.922,6.875A3.928,3.928,0,0,1,96.52,16.02,4.124,4.124,0,0,1,95.4,12.992v-.234a5.072,5.072,0,0,1,.488-2.262,3.716,3.716,0,0,1,1.371-1.551,3.625,3.625,0,0,1,1.969-.555,3.318,3.318,0,0,1,2.668,1.1,4.658,4.658,0,0,1,.941,3.117v.766H97.313a2.539,2.539,0,0,0,.7,1.656,2.1,2.1,0,0,0,1.543.609,2.571,2.571,0,0,0,2.125-1.055l1.023.977a3.418,3.418,0,0,1-1.355,1.176A4.244,4.244,0,0,1,99.445,17.156Zm-.227-7.242a1.6,1.6,0,0,0-1.262.547,2.835,2.835,0,0,0-.613,1.523h3.617v-.141a2.307,2.307,0,0,0-.508-1.441A1.586,1.586,0,0,0,99.219,9.914Zm9.828,4.789a.861.861,0,0,0-.418-.773,4.445,4.445,0,0,0-1.387-.469,7.129,7.129,0,0,1-1.617-.516,2.158,2.158,0,0,1-1.422-1.992,2.25,2.25,0,0,1,.922-1.828,3.644,3.644,0,0,1,2.344-.734,3.792,3.792,0,0,1,2.449.75,2.38,2.38,0,0,1,.934,1.945h-1.9a1.17,1.17,0,0,0-.406-.91,1.557,1.557,0,0,0-1.078-.363,1.682,1.682,0,0,0-1.02.289.911.911,0,0,0-.395.773.769.769,0,0,0,.367.68,5.049,5.049,0,0,0,1.484.488,7.027,7.027,0,0,1,1.754.586,2.484,2.484,0,0,1,.945.816,2.082,2.082,0,0,1,.309,1.156,2.2,2.2,0,0,1-.945,1.848,4.031,4.031,0,0,1-2.477.707,4.371,4.371,0,0,1-1.852-.375,3.047,3.047,0,0,1-1.266-1.031,2.441,2.441,0,0,1-.453-1.414h1.844a1.338,1.338,0,0,0,.508,1.035,1.973,1.973,0,0,0,1.242.363,1.92,1.92,0,0,0,1.141-.285A.883.883,0,0,0,109.047,14.7Z" transform="translate(421 1106.587)" fill="#12263f"/>
      <path id="Trazado_791304" data-name="Trazado 791304" d="M22.5,12.773V17H20.527V5.625h4.352a4.4,4.4,0,0,1,3.027.992,3.334,3.334,0,0,1,1.121,2.625,3.224,3.224,0,0,1-1.1,2.6,4.617,4.617,0,0,1-3.074.93Zm0-1.586h2.375a2.339,2.339,0,0,0,1.609-.5,1.823,1.823,0,0,0,.555-1.434,1.967,1.967,0,0,0-.562-1.473,2.168,2.168,0,0,0-1.547-.566H22.5ZM35,10.281a4.7,4.7,0,0,0-.773-.062,1.741,1.741,0,0,0-1.758,1V17h-1.9V8.547h1.813l.047.945a2.139,2.139,0,0,1,1.906-1.1A1.777,1.777,0,0,1,35,8.5Zm.563,2.414a4.984,4.984,0,0,1,.492-2.238,3.6,3.6,0,0,1,1.383-1.531,3.9,3.9,0,0,1,2.047-.535,3.692,3.692,0,0,1,2.777,1.1,4.333,4.333,0,0,1,1.152,2.922l.008.445a5.029,5.029,0,0,1-.48,2.234,3.551,3.551,0,0,1-1.375,1.523,3.925,3.925,0,0,1-2.066.539,3.667,3.667,0,0,1-2.863-1.191,4.563,4.563,0,0,1-1.074-3.176Zm1.9.164A3.406,3.406,0,0,0,38,14.9a1.752,1.752,0,0,0,1.5.738,1.733,1.733,0,0,0,1.5-.75,3.762,3.762,0,0,0,.535-2.2,3.362,3.362,0,0,0-.551-2.031A1.856,1.856,0,0,0,38,10.652,3.691,3.691,0,0,0,37.457,12.859Zm10.43,1.734,1.789-6.047h1.961L48.707,17H47.059L44.105,8.547h1.969Zm8.656,2.563a3.928,3.928,0,0,1-2.926-1.137A4.124,4.124,0,0,1,52.5,12.992v-.234a5.072,5.072,0,0,1,.488-2.262,3.716,3.716,0,0,1,1.371-1.551,3.625,3.625,0,0,1,1.969-.555,3.318,3.318,0,0,1,2.668,1.1,4.658,4.658,0,0,1,.941,3.117v.766H54.41a2.539,2.539,0,0,0,.7,1.656,2.1,2.1,0,0,0,1.543.609,2.571,2.571,0,0,0,2.125-1.055l1.023.977a3.418,3.418,0,0,1-1.355,1.176A4.244,4.244,0,0,1,56.543,17.156Zm-.227-7.242a1.6,1.6,0,0,0-1.262.547,2.835,2.835,0,0,0-.613,1.523h3.617v-.141a2.307,2.307,0,0,0-.508-1.441A1.586,1.586,0,0,0,56.316,9.914Zm8.813,7.242A3.928,3.928,0,0,1,62.2,16.02a4.124,4.124,0,0,1-1.121-3.027v-.234A5.072,5.072,0,0,1,61.57,10.5a3.716,3.716,0,0,1,1.371-1.551,3.625,3.625,0,0,1,1.969-.555,3.318,3.318,0,0,1,2.668,1.1,4.658,4.658,0,0,1,.941,3.117v.766H63a2.539,2.539,0,0,0,.7,1.656,2.1,2.1,0,0,0,1.543.609,2.571,2.571,0,0,0,2.125-1.055l1.023.977a3.418,3.418,0,0,1-1.355,1.176A4.244,4.244,0,0,1,65.129,17.156ZM64.9,9.914a1.6,1.6,0,0,0-1.262.547,2.835,2.835,0,0,0-.613,1.523h3.617v-.141a2.307,2.307,0,0,0-.508-1.441A1.586,1.586,0,0,0,64.9,9.914Zm4.734,2.8a5.026,5.026,0,0,1,.906-3.137,2.9,2.9,0,0,1,2.43-1.184,2.759,2.759,0,0,1,2.172.938V5h1.9V17H75.324l-.094-.875a2.8,2.8,0,0,1-2.273,1.031,2.887,2.887,0,0,1-2.4-1.2A5.21,5.21,0,0,1,69.637,12.711Zm1.9.164a3.519,3.519,0,0,0,.5,2.012,1.61,1.61,0,0,0,1.41.723,1.793,1.793,0,0,0,1.7-1.039V10.961a1.766,1.766,0,0,0-1.687-1.016,1.622,1.622,0,0,0-1.422.73A3.918,3.918,0,0,0,71.535,12.875Zm7.133-.18a4.984,4.984,0,0,1,.492-2.238,3.6,3.6,0,0,1,1.383-1.531,3.9,3.9,0,0,1,2.047-.535,3.692,3.692,0,0,1,2.777,1.1,4.333,4.333,0,0,1,1.152,2.922l.008.445a5.029,5.029,0,0,1-.48,2.234,3.551,3.551,0,0,1-1.375,1.523,3.925,3.925,0,0,1-2.066.539,3.667,3.667,0,0,1-2.863-1.191,4.563,4.563,0,0,1-1.074-3.176Zm1.9.164a3.406,3.406,0,0,0,.539,2.043,1.752,1.752,0,0,0,1.5.738,1.733,1.733,0,0,0,1.5-.75,3.762,3.762,0,0,0,.535-2.2,3.362,3.362,0,0,0-.551-2.031,1.856,1.856,0,0,0-2.973-.012A3.691,3.691,0,0,0,80.566,12.859Zm11.992-2.578a4.7,4.7,0,0,0-.773-.062,1.741,1.741,0,0,0-1.758,1V17h-1.9V8.547h1.813l.047.945a2.139,2.139,0,0,1,1.906-1.1,1.777,1.777,0,0,1,.672.109Zm4.922,6.875a3.928,3.928,0,0,1-2.926-1.137,4.124,4.124,0,0,1-1.121-3.027v-.234a5.072,5.072,0,0,1,.488-2.262,3.716,3.716,0,0,1,1.371-1.551,3.625,3.625,0,0,1,1.969-.555,3.318,3.318,0,0,1,2.668,1.1,4.658,4.658,0,0,1,.941,3.117v.766H95.348a2.539,2.539,0,0,0,.7,1.656,2.1,2.1,0,0,0,1.543.609,2.571,2.571,0,0,0,2.125-1.055l1.023.977a3.418,3.418,0,0,1-1.355,1.176A4.244,4.244,0,0,1,97.48,17.156Zm-.227-7.242a1.6,1.6,0,0,0-1.262.547,2.835,2.835,0,0,0-.613,1.523H99v-.141a2.307,2.307,0,0,0-.508-1.441A1.586,1.586,0,0,0,97.254,9.914Zm9.828,4.789a.861.861,0,0,0-.418-.773,4.445,4.445,0,0,0-1.387-.469,7.129,7.129,0,0,1-1.617-.516,2.158,2.158,0,0,1-1.422-1.992,2.25,2.25,0,0,1,.922-1.828,3.644,3.644,0,0,1,2.344-.734,3.792,3.792,0,0,1,2.449.75,2.38,2.38,0,0,1,.934,1.945h-1.9a1.17,1.17,0,0,0-.406-.91,1.557,1.557,0,0,0-1.078-.363,1.682,1.682,0,0,0-1.02.289.911.911,0,0,0-.395.773.769.769,0,0,0,.367.68,5.049,5.049,0,0,0,1.484.488,7.027,7.027,0,0,1,1.754.586,2.484,2.484,0,0,1,.945.816,2.082,2.082,0,0,1,.309,1.156A2.2,2.2,0,0,1,108,16.449a4.031,4.031,0,0,1-2.477.707,4.371,4.371,0,0,1-1.852-.375,3.047,3.047,0,0,1-1.266-1.031,2.441,2.441,0,0,1-.453-1.414H103.8a1.338,1.338,0,0,0,.508,1.035,1.973,1.973,0,0,0,1.242.363,1.92,1.92,0,0,0,1.141-.285A.883.883,0,0,0,107.082,14.7Z" transform="translate(630.5 1106.587)" fill="#12263f"/>
      <g id="Grupo_1047223" data-name="Grupo 1047223" transform="translate(0 133)">
        <rect id="Rectángulo_357249-4" data-name="Rectángulo 357249" width="190" height="112" transform="translate(180 1031)" fill="#ffa884" opacity="0.47"/>
        <g id="Grupo_1047219-4" data-name="Grupo 1047219" transform="translate(180 1026)">
          <path id="Trazado_778662-4" data-name="Trazado 778662" d="M3.793,0,7.586,5.058H0Z" transform="translate(36.207)" fill="#ff6e33"/>
          <g transform="matrix(1, 0, 0, 1, 0, -133)" filter="url(#Trazado_778663-4)">
            <path id="Trazado_778663-10" data-name="Trazado 778663" d="M0,0H40V56H0Z" transform="translate(0 133)" fill="#ff8b5b"/>
          </g>
        </g>
        <path id="Trazado_791307" data-name="Trazado 791307" d="M12.354-6.682a7.808,7.808,0,0,1-1.488,5.11A5.142,5.142,0,0,1,6.671.225,5.17,5.17,0,0,1,2.448-1.583a7.8,7.8,0,0,1-1.494-5.1V-9.669a7.808,7.808,0,0,1,1.488-5.11,5.155,5.155,0,0,1,4.206-1.8,5.157,5.157,0,0,1,4.211,1.808,7.815,7.815,0,0,1,1.494,5.11Zm-3.785-3.47a5.832,5.832,0,0,0-.46-2.634,1.539,1.539,0,0,0-1.46-.87,1.5,1.5,0,0,0-1.421.809A5.494,5.494,0,0,0,4.75-10.4v4.178a5.876,5.876,0,0,0,.46,2.678,1.545,1.545,0,0,0,1.46.848A1.524,1.524,0,0,0,8.1-3.521a5.609,5.609,0,0,0,.472-2.589ZM22.708,0h-3.8V-12.084l-3.729,1.089V-13.87l7.176-2.482h.348Z" transform="translate(185.872 1059.396)" fill="#12263f"/>
      </g>
      <path id="Trazado_791308" data-name="Trazado 791308" d="M38.336,14.07a1.374,1.374,0,0,0-.527-1.156,6.345,6.345,0,0,0-1.9-.82,9.186,9.186,0,0,1-2.187-.922,2.919,2.919,0,0,1-1.555-2.547,2.772,2.772,0,0,1,1.121-2.266,4.538,4.538,0,0,1,2.91-.891,4.916,4.916,0,0,1,2.117.438,3.475,3.475,0,0,1,1.461,1.246A3.2,3.2,0,0,1,40.3,8.945H38.336a1.782,1.782,0,0,0-.559-1.395,2.305,2.305,0,0,0-1.6-.5,2.408,2.408,0,0,0-1.5.414,1.379,1.379,0,0,0-.535,1.156,1.247,1.247,0,0,0,.578,1.043,6.66,6.66,0,0,0,1.906.813,8.768,8.768,0,0,1,2.133.9,3.392,3.392,0,0,1,1.18,1.156,3.011,3.011,0,0,1,.375,1.527,2.707,2.707,0,0,1-1.09,2.262,4.727,4.727,0,0,1-2.957.84A5.557,5.557,0,0,1,34,16.7a3.812,3.812,0,0,1-1.609-1.262,3.144,3.144,0,0,1-.574-1.875h1.977a1.84,1.84,0,0,0,.641,1.5,2.805,2.805,0,0,0,1.836.531,2.437,2.437,0,0,0,1.551-.418A1.349,1.349,0,0,0,38.336,14.07ZM41.508,12.7A4.984,4.984,0,0,1,42,10.457a3.6,3.6,0,0,1,1.383-1.531,3.9,3.9,0,0,1,2.047-.535,3.692,3.692,0,0,1,2.777,1.1,4.333,4.333,0,0,1,1.152,2.922l.008.445a5.029,5.029,0,0,1-.48,2.234,3.551,3.551,0,0,1-1.375,1.523,3.925,3.925,0,0,1-2.066.539,3.667,3.667,0,0,1-2.863-1.191,4.563,4.563,0,0,1-1.074-3.176Zm1.9.164a3.406,3.406,0,0,0,.539,2.043,1.752,1.752,0,0,0,1.5.738,1.733,1.733,0,0,0,1.5-.75,3.762,3.762,0,0,0,.535-2.2,3.362,3.362,0,0,0-.551-2.031,1.856,1.856,0,0,0-2.973-.012A3.691,3.691,0,0,0,43.406,12.859Zm11.039,2.781a1.716,1.716,0,0,0,1.18-.414,1.415,1.415,0,0,0,.5-1.023h1.789a2.789,2.789,0,0,1-.492,1.473,3.228,3.228,0,0,1-1.25,1.082,3.725,3.725,0,0,1-1.7.4,3.6,3.6,0,0,1-2.812-1.148,4.555,4.555,0,0,1-1.039-3.172v-.2a4.479,4.479,0,0,1,1.031-3.09,3.571,3.571,0,0,1,2.813-1.16,3.473,3.473,0,0,1,2.457.879,3.148,3.148,0,0,1,1,2.309H56.125a1.738,1.738,0,0,0-.5-1.2,1.6,1.6,0,0,0-1.184-.469,1.671,1.671,0,0,0-1.422.668,3.408,3.408,0,0,0-.508,2.027v.3a3.465,3.465,0,0,0,.5,2.051A1.669,1.669,0,0,0,54.445,15.641ZM61.367,17h-1.9V8.547h1.9ZM59.352,6.352a1.008,1.008,0,0,1,.277-.727,1.048,1.048,0,0,1,.793-.289,1.061,1.061,0,0,1,.8.289,1,1,0,0,1,.281.727.977.977,0,0,1-.281.715,1.069,1.069,0,0,1-.8.285,1.056,1.056,0,0,1-.793-.285A.984.984,0,0,1,59.352,6.352Zm7.8,10.8A3.928,3.928,0,0,1,64.23,16.02a4.124,4.124,0,0,1-1.121-3.027v-.234A5.072,5.072,0,0,1,63.6,10.5a3.716,3.716,0,0,1,1.371-1.551,3.625,3.625,0,0,1,1.969-.555,3.318,3.318,0,0,1,2.668,1.1,4.658,4.658,0,0,1,.941,3.117v.766H65.023a2.539,2.539,0,0,0,.7,1.656,2.1,2.1,0,0,0,1.543.609,2.571,2.571,0,0,0,2.125-1.055l1.023.977a3.418,3.418,0,0,1-1.355,1.176A4.244,4.244,0,0,1,67.156,17.156ZM66.93,9.914a1.6,1.6,0,0,0-1.262.547,2.835,2.835,0,0,0-.613,1.523h3.617v-.141a2.307,2.307,0,0,0-.508-1.441A1.586,1.586,0,0,0,66.93,9.914Zm4.734,2.8a5.026,5.026,0,0,1,.906-3.137A2.9,2.9,0,0,1,75,8.391a2.759,2.759,0,0,1,2.172.938V5h1.9V17H77.352l-.094-.875a2.8,2.8,0,0,1-2.273,1.031,2.887,2.887,0,0,1-2.4-1.2A5.21,5.21,0,0,1,71.664,12.711Zm1.9.164a3.519,3.519,0,0,0,.5,2.012,1.61,1.61,0,0,0,1.41.723,1.793,1.793,0,0,0,1.7-1.039V10.961a1.766,1.766,0,0,0-1.687-1.016,1.622,1.622,0,0,0-1.422.73A3.918,3.918,0,0,0,73.563,12.875ZM86.1,17a2.93,2.93,0,0,1-.219-.789,3.193,3.193,0,0,1-4.3.219,2.325,2.325,0,0,1-.8-1.8,2.4,2.4,0,0,1,1-2.074,4.865,4.865,0,0,1,2.871-.723H85.82v-.555a1.481,1.481,0,0,0-.367-1.051,1.456,1.456,0,0,0-1.117-.395,1.672,1.672,0,0,0-1.062.324,1,1,0,0,0-.414.824h-1.9a2.107,2.107,0,0,1,.461-1.3,3.071,3.071,0,0,1,1.254-.949,4.4,4.4,0,0,1,1.77-.344,3.547,3.547,0,0,1,2.367.746,2.661,2.661,0,0,1,.906,2.1v3.813a4.321,4.321,0,0,0,.32,1.82V17Zm-2.086-1.367a2.159,2.159,0,0,0,1.059-.273,1.827,1.827,0,0,0,.746-.734V13.031H84.8a2.8,2.8,0,0,0-1.586.367,1.189,1.189,0,0,0-.531,1.039,1.109,1.109,0,0,0,.363.871A1.407,1.407,0,0,0,84.016,15.633Zm5.336-2.922a5.026,5.026,0,0,1,.906-3.137,2.9,2.9,0,0,1,2.43-1.184,2.759,2.759,0,0,1,2.172.938V5h1.9V17H95.039l-.094-.875a2.8,2.8,0,0,1-2.273,1.031,2.887,2.887,0,0,1-2.4-1.2A5.21,5.21,0,0,1,89.352,12.711Zm1.9.164a3.519,3.519,0,0,0,.5,2.012,1.61,1.61,0,0,0,1.41.723,1.793,1.793,0,0,0,1.7-1.039V10.961a1.766,1.766,0,0,0-1.687-1.016,1.622,1.622,0,0,0-1.422.73A3.918,3.918,0,0,0,91.25,12.875Z" transform="translate(214.5 1240.587)" fill="#12263f"/>
      <g id="Grupo_1047224" data-name="Grupo 1047224" transform="translate(210 133)">
        <rect id="Rectángulo_357249-5" data-name="Rectángulo 357249" width="190" height="112" transform="translate(180 1031)" fill="#ffa884" opacity="0.47"/>
        <g id="Grupo_1047219-5" data-name="Grupo 1047219" transform="translate(180 1026)">
          <path id="Trazado_778662-5" data-name="Trazado 778662" d="M3.793,0,7.586,5.058H0Z" transform="translate(36.207)" fill="#ff6e33"/>
          <g transform="matrix(1, 0, 0, 1, -210, -133)" filter="url(#Trazado_778663-5)">
            <path id="Trazado_778663-11" data-name="Trazado 778663" d="M0,0H40V56H0Z" transform="translate(210 133)" fill="#ff8b5b"/>
          </g>
        </g>
        <path id="Trazado_791309" data-name="Trazado 791309" d="M12.354-6.682a7.808,7.808,0,0,1-1.488,5.11A5.142,5.142,0,0,1,6.671.225,5.17,5.17,0,0,1,2.448-1.583a7.8,7.8,0,0,1-1.494-5.1V-9.669a7.808,7.808,0,0,1,1.488-5.11,5.155,5.155,0,0,1,4.206-1.8,5.157,5.157,0,0,1,4.211,1.808,7.815,7.815,0,0,1,1.494,5.11Zm-3.785-3.47a5.832,5.832,0,0,0-.46-2.634,1.539,1.539,0,0,0-1.46-.87,1.5,1.5,0,0,0-1.421.809A5.494,5.494,0,0,0,4.75-10.4v4.178a5.876,5.876,0,0,0,.46,2.678,1.545,1.545,0,0,0,1.46.848A1.524,1.524,0,0,0,8.1-3.521a5.609,5.609,0,0,0,.472-2.589ZM22.708,0h-3.8V-12.084l-3.729,1.089V-13.87l7.176-2.482h.348Z" transform="translate(185.872 1059.396)" fill="#12263f"/>
      </g>
      <path id="Trazado_791311" data-name="Trazado 791311" d="M49.207,13.3a4.107,4.107,0,0,1-1.344,2.84,4.581,4.581,0,0,1-3.117,1.02,4.436,4.436,0,0,1-2.395-.645,4.231,4.231,0,0,1-1.6-1.832,6.611,6.611,0,0,1-.586-2.758V10.859a6.659,6.659,0,0,1,.57-2.836,4.3,4.3,0,0,1,1.637-1.891,4.566,4.566,0,0,1,2.465-.664,4.386,4.386,0,0,1,3.031,1.023,4.276,4.276,0,0,1,1.336,2.891H47.238a2.81,2.81,0,0,0-.715-1.77A2.363,2.363,0,0,0,44.84,7.07a2.309,2.309,0,0,0-1.98.941,4.7,4.7,0,0,0-.707,2.762v1.008a4.988,4.988,0,0,0,.66,2.813,2.191,2.191,0,0,0,1.934.969,2.555,2.555,0,0,0,1.75-.523,2.729,2.729,0,0,0,.742-1.742ZM55.84,17a2.93,2.93,0,0,1-.219-.789,3.193,3.193,0,0,1-4.3.219,2.325,2.325,0,0,1-.8-1.8,2.4,2.4,0,0,1,1-2.074,4.865,4.865,0,0,1,2.871-.723h1.164v-.555a1.481,1.481,0,0,0-.367-1.051,1.456,1.456,0,0,0-1.117-.395,1.672,1.672,0,0,0-1.062.324,1,1,0,0,0-.414.824H50.7a2.107,2.107,0,0,1,.461-1.3,3.071,3.071,0,0,1,1.254-.949,4.4,4.4,0,0,1,1.77-.344,3.547,3.547,0,0,1,2.367.746,2.661,2.661,0,0,1,.906,2.1v3.813a4.321,4.321,0,0,0,.32,1.82V17Zm-2.086-1.367a2.159,2.159,0,0,0,1.059-.273,1.827,1.827,0,0,0,.746-.734V13.031H54.535a2.8,2.8,0,0,0-1.586.367,1.189,1.189,0,0,0-.531,1.039,1.109,1.109,0,0,0,.363.871A1.407,1.407,0,0,0,53.754,15.633Zm13.094-2.773a5.033,5.033,0,0,1-.891,3.129,3.094,3.094,0,0,1-4.617.254V20.25h-1.9V8.547h1.75l.078.859a2.788,2.788,0,0,1,2.273-1.016,2.881,2.881,0,0,1,2.426,1.152,5.167,5.167,0,0,1,.879,3.2ZM64.957,12.7a3.526,3.526,0,0,0-.5-2.008,1.638,1.638,0,0,0-1.441-.742,1.747,1.747,0,0,0-1.672.961v3.75a1.763,1.763,0,0,0,1.688.984,1.636,1.636,0,0,0,1.418-.73A3.881,3.881,0,0,0,64.957,12.7ZM70.473,17h-1.9V8.547h1.9ZM68.457,6.352a1.008,1.008,0,0,1,.277-.727,1.048,1.048,0,0,1,.793-.289,1.061,1.061,0,0,1,.8.289,1,1,0,0,1,.281.727.977.977,0,0,1-.281.715,1.069,1.069,0,0,1-.8.285,1.056,1.056,0,0,1-.793-.285A.984.984,0,0,1,68.457,6.352Zm6.461.141V8.547H76.41V9.953H74.918v4.719a1.039,1.039,0,0,0,.191.7.888.888,0,0,0,.684.215,2.925,2.925,0,0,0,.664-.078v1.469a4.676,4.676,0,0,1-1.25.18q-2.188,0-2.187-2.414V9.953H71.629V8.547H73.02V6.492ZM82.91,17a2.93,2.93,0,0,1-.219-.789,3.193,3.193,0,0,1-4.3.219,2.325,2.325,0,0,1-.8-1.8,2.4,2.4,0,0,1,1-2.074,4.865,4.865,0,0,1,2.871-.723h1.164v-.555a1.481,1.481,0,0,0-.367-1.051,1.456,1.456,0,0,0-1.117-.395,1.672,1.672,0,0,0-1.062.324,1,1,0,0,0-.414.824h-1.9a2.107,2.107,0,0,1,.461-1.3,3.071,3.071,0,0,1,1.254-.949,4.4,4.4,0,0,1,1.77-.344,3.547,3.547,0,0,1,2.367.746,2.661,2.661,0,0,1,.906,2.1v3.813a4.321,4.321,0,0,0,.32,1.82V17Zm-2.086-1.367a2.159,2.159,0,0,0,1.059-.273,1.827,1.827,0,0,0,.746-.734V13.031H81.605a2.8,2.8,0,0,0-1.586.367,1.189,1.189,0,0,0-.531,1.039,1.109,1.109,0,0,0,.363.871A1.407,1.407,0,0,0,80.824,15.633ZM88.535,17h-1.9V5h1.9Z" transform="translate(421 1240.587)" fill="#12263f"/>
      <g id="Grupo_1047226" data-name="Grupo 1047226" transform="translate(420 133)">
        <rect id="Rectángulo_357249-6" data-name="Rectángulo 357249" width="190" height="112" transform="translate(180 1031)" fill="#ffa884" opacity="0.47"/>
        <g id="Grupo_1047219-6" data-name="Grupo 1047219" transform="translate(180 1026)">
          <path id="Trazado_778662-6" data-name="Trazado 778662" d="M3.793,0,7.586,5.058H0Z" transform="translate(36.207)" fill="#ff6e33"/>
          <g transform="matrix(1, 0, 0, 1, -420, -133)" filter="url(#Trazado_778663-6)">
            <path id="Trazado_778663-12" data-name="Trazado 778663" d="M0,0H40V56H0Z" transform="translate(420 133)" fill="#ff8b5b"/>
          </g>
        </g>
        <path id="Trazado_791310" data-name="Trazado 791310" d="M12.354-6.682a7.808,7.808,0,0,1-1.488,5.11A5.142,5.142,0,0,1,6.671.225,5.17,5.17,0,0,1,2.448-1.583a7.8,7.8,0,0,1-1.494-5.1V-9.669a7.808,7.808,0,0,1,1.488-5.11,5.155,5.155,0,0,1,4.206-1.8,5.157,5.157,0,0,1,4.211,1.808,7.815,7.815,0,0,1,1.494,5.11Zm-3.785-3.47a5.832,5.832,0,0,0-.46-2.634,1.539,1.539,0,0,0-1.46-.87,1.5,1.5,0,0,0-1.421.809A5.494,5.494,0,0,0,4.75-10.4v4.178a5.876,5.876,0,0,0,.46,2.678,1.545,1.545,0,0,0,1.46.848A1.524,1.524,0,0,0,8.1-3.521a5.609,5.609,0,0,0,.472-2.589ZM22.708,0h-3.8V-12.084l-3.729,1.089V-13.87l7.176-2.482h.348Z" transform="translate(185.872 1059.396)" fill="#12263f"/>
      </g>
      <path id="Trazado_791312" data-name="Trazado 791312" d="M47.594,11.922H42.922v3.5h5.461V17H40.945V5.625h7.383V7.219H42.922v3.141h4.672ZM54.547,14.7a.861.861,0,0,0-.418-.773,4.445,4.445,0,0,0-1.387-.469,7.129,7.129,0,0,1-1.617-.516A2.158,2.158,0,0,1,49.7,10.953a2.25,2.25,0,0,1,.922-1.828,3.644,3.644,0,0,1,2.344-.734,3.792,3.792,0,0,1,2.449.75,2.38,2.38,0,0,1,.934,1.945h-1.9a1.17,1.17,0,0,0-.406-.91,1.557,1.557,0,0,0-1.078-.363,1.682,1.682,0,0,0-1.02.289.911.911,0,0,0-.395.773.769.769,0,0,0,.367.68,5.049,5.049,0,0,0,1.484.488,7.027,7.027,0,0,1,1.754.586,2.484,2.484,0,0,1,.945.816,2.082,2.082,0,0,1,.309,1.156,2.2,2.2,0,0,1-.945,1.848,4.031,4.031,0,0,1-2.477.707,4.371,4.371,0,0,1-1.852-.375,3.047,3.047,0,0,1-1.266-1.031,2.441,2.441,0,0,1-.453-1.414h1.844a1.338,1.338,0,0,0,.508,1.035,1.973,1.973,0,0,0,1.242.363,1.92,1.92,0,0,0,1.141-.285A.883.883,0,0,0,54.547,14.7Zm5.9-8.211V8.547h1.492V9.953H60.445v4.719a1.039,1.039,0,0,0,.191.7.888.888,0,0,0,.684.215,2.924,2.924,0,0,0,.664-.078v1.469a4.676,4.676,0,0,1-1.25.18q-2.187,0-2.187-2.414V9.953H57.156V8.547h1.391V6.492ZM68.438,17a2.93,2.93,0,0,1-.219-.789,3.193,3.193,0,0,1-4.3.219,2.325,2.325,0,0,1-.8-1.8,2.4,2.4,0,0,1,1-2.074,4.865,4.865,0,0,1,2.871-.723h1.164v-.555a1.481,1.481,0,0,0-.367-1.051,1.456,1.456,0,0,0-1.117-.395,1.672,1.672,0,0,0-1.062.324,1,1,0,0,0-.414.824H63.3a2.107,2.107,0,0,1,.461-1.3,3.071,3.071,0,0,1,1.254-.949,4.4,4.4,0,0,1,1.77-.344,3.547,3.547,0,0,1,2.367.746,2.661,2.661,0,0,1,.906,2.1v3.813a4.321,4.321,0,0,0,.32,1.82V17Zm-2.086-1.367a2.159,2.159,0,0,0,1.059-.273,1.827,1.827,0,0,0,.746-.734V13.031H67.133a2.8,2.8,0,0,0-1.586.367,1.189,1.189,0,0,0-.531,1.039,1.109,1.109,0,0,0,.363.871A1.407,1.407,0,0,0,66.352,15.633Zm5.336-2.922a5.026,5.026,0,0,1,.906-3.137,2.9,2.9,0,0,1,2.43-1.184,2.759,2.759,0,0,1,2.172.938V5h1.9V17H77.375l-.094-.875a2.8,2.8,0,0,1-2.273,1.031,2.887,2.887,0,0,1-2.4-1.2A5.21,5.21,0,0,1,71.688,12.711Zm1.9.164a3.519,3.519,0,0,0,.5,2.012,1.61,1.61,0,0,0,1.41.723,1.793,1.793,0,0,0,1.7-1.039V10.961a1.766,1.766,0,0,0-1.687-1.016,1.622,1.622,0,0,0-1.422.73A3.918,3.918,0,0,0,73.586,12.875Zm7.133-.18a4.984,4.984,0,0,1,.492-2.238,3.6,3.6,0,0,1,1.383-1.531,3.9,3.9,0,0,1,2.047-.535,3.692,3.692,0,0,1,2.777,1.1,4.333,4.333,0,0,1,1.152,2.922l.008.445a5.029,5.029,0,0,1-.48,2.234,3.551,3.551,0,0,1-1.375,1.523,3.925,3.925,0,0,1-2.066.539,3.667,3.667,0,0,1-2.863-1.191,4.563,4.563,0,0,1-1.074-3.176Zm1.9.164a3.406,3.406,0,0,0,.539,2.043,1.752,1.752,0,0,0,1.5.738,1.733,1.733,0,0,0,1.5-.75,3.762,3.762,0,0,0,.535-2.2,3.362,3.362,0,0,0-.551-2.031,1.856,1.856,0,0,0-2.973-.012A3.691,3.691,0,0,0,82.617,12.859Z" transform="translate(631 1240.587)" fill="#12263f"/>
      <path id="personas_1_" data-name="personas (1)" d="M47.188,27.7l-6.994-2.915V22.69a7.8,7.8,0,0,0,3.763-5.223h.157a2.352,2.352,0,0,0,.064-4.7l.768-1.781a6.332,6.332,0,0,0-3.19-8.271l-2.189-1a8.033,8.033,0,0,0-8.021.872l-1.22.92a4.881,4.881,0,0,0-3.411,6.308,8.13,8.13,0,0,0-3.575.087,6.308,6.308,0,0,0-3.533-7.19l-2.189-1A8.033,8.033,0,0,0,9.6,2.588l-1.22.92a4.883,4.883,0,0,0-3.159,6.915l1.171,2.34a2.352,2.352,0,0,0,.1,4.7h.157a7.809,7.809,0,0,0,3.763,5.221v2.094L3.412,27.7A3.909,3.909,0,0,0,1,31.315V41.767a.784.784,0,0,0,.784.784H7.271v6.271a.784.784,0,0,0,.784.784h34.49a.784.784,0,0,0,.784-.784V42.55h5.487a.784.784,0,0,0,.784-.784V31.315A3.909,3.909,0,0,0,47.188,27.7ZM27.944,11.766l2.188,1a4.764,4.764,0,0,1,2.4,6.223l-.235.537-.8-1.623a.784.784,0,0,0-1.176-.277l-1.254.941a6.271,6.271,0,0,1-7.525,0l-1.254-.941a.775.775,0,0,0-.65-.136.784.784,0,0,0-.522.412l-.866,1.739L17.6,18.345a3.315,3.315,0,0,1,2.963-4.8,3.661,3.661,0,0,1,3.052,1.633l.246.37,1.3-.87-.246-.369a5.221,5.221,0,0,0-2.956-2.135,6.438,6.438,0,0,1,5.983-.41Zm5.195,11.188h.784a.784.784,0,0,1,0,1.568h-.784ZM22.948,32a7.832,7.832,0,0,0,4.7,0v1.6L25.3,35.955,22.948,33.6ZM25.3,30.792a6.278,6.278,0,0,1-6.271-6.271v-2.95l1.064-2.13.5.377a7.839,7.839,0,0,0,9.406,0l.5-.377,1.064,2.13v2.95A6.278,6.278,0,0,1,25.3,30.792Zm-7.839-6.271h-.784a.784.784,0,1,1,0-1.568h.784ZM7.271,40.23v.753h-4.7V31.315a2.347,2.347,0,0,1,1.447-2.169l7.477-3.115a.784.784,0,0,0,.482-.726V22.22a.82.82,0,0,0-.454-.711A6.246,6.246,0,0,1,8.093,16.6a.784.784,0,0,0-.779-.7H6.487a.784.784,0,1,1,0-1.568h.784a.784.784,0,0,0,.784-.789l-.005-.784a.784.784,0,0,0-.082-.345L6.621,9.722A3.314,3.314,0,0,1,8.885,5a.8.8,0,0,0,.306-.14L10.54,3.844a6.442,6.442,0,0,1,6.428-.7l2.19.995a4.764,4.764,0,0,1,2.4,6.223l-.127.294a7.594,7.594,0,0,0-.857.553l-1.236.926h0a4.876,4.876,0,0,0-3.146,6.907l1.173,2.342h-.686a2.352,2.352,0,1,0,0,4.7h.941a7.857,7.857,0,0,0,3.763,5.21v2.033L10.141,36.454A3.93,3.93,0,0,0,7.271,40.23Zm34.49,7.807h-4.7V41.767H35.49v6.271H15.11V41.767H13.542v6.271h-4.7V40.23a2.357,2.357,0,0,1,1.725-2.265l11.373-3.159,2.812,2.812a.784.784,0,0,0,1.108,0l2.812-2.812,11.368,3.159a2.357,2.357,0,0,1,1.725,2.265Zm6.271-7.055h-4.7V40.23a3.93,3.93,0,0,0-2.871-3.776L29.219,33.332V31.3a7.857,7.857,0,0,0,3.763-5.21h.941a2.352,2.352,0,0,0,0-4.7H33.2l.768-1.78a6.332,6.332,0,0,0-3.19-8.271l-1.819-.829-.392-.784A3.314,3.314,0,0,1,30.833,5a.8.8,0,0,0,.306-.14l1.348-1.019a6.442,6.442,0,0,1,6.428-.7l2.19.995a4.764,4.764,0,0,1,2.4,6.223l-.9,2.086a.784.784,0,0,0-.064.314l.005.784a.784.784,0,0,0,.784.784h.784a.784.784,0,0,1,0,1.568h-.827a.784.784,0,0,0-.779.7,6.243,6.243,0,0,1-3.449,4.922.784.784,0,0,0-.435.7v3.085a.784.784,0,0,0,.482.724l7.48,3.117a2.347,2.347,0,0,1,1.447,2.169Z" transform="translate(249.7 1045.672)" fill="#12263f" opacity="0.9"/>
      <g id="_11-Teamwork" data-name="11-Teamwork" transform="translate(460.848 1046.697)" opacity="0.9">
        <path id="Trazado_778664" data-name="Trazado 778664" d="M39.433,48.793a5.411,5.411,0,0,0-1.352-.171h-.77A2.311,2.311,0,0,1,35,46.311V44h1.541v2.311a.77.77,0,0,0,.77.77h.77a6.959,6.959,0,0,1,1.737.22Z" transform="translate(-8.037 -10.104)" fill="#12263f"/>
        <path id="Trazado_778665" data-name="Trazado 778665" d="M39.881,59.407H16.77a.77.77,0,0,1-.77-.77V54.015a6.941,6.941,0,0,1,6.933-6.933h.77a.77.77,0,0,0,.77-.77V44h1.541v2.311A2.311,2.311,0,0,1,23.7,48.622h-.77a5.4,5.4,0,0,0-5.393,5.393v3.852h21.57V54.015A5.4,5.4,0,0,0,36.33,49.3l.747-1.347a6.941,6.941,0,0,1,3.575,6.067v4.622A.77.77,0,0,1,39.881,59.407Z" transform="translate(-3.674 -10.104)" fill="#12263f"/>
        <path id="Trazado_778666" data-name="Trazado 778666" d="M29.933,41.637A6.941,6.941,0,0,1,23,34.7V32.393a.77.77,0,0,1,.77-.77c5.9,0,10.015-2.03,10.015-3.852a.77.77,0,0,1,1.541,0c0,3.231.77,3.8.871,3.858a.77.77,0,0,1,.67.764V34.7A6.941,6.941,0,0,1,29.933,41.637Zm-5.393-8.485V34.7a5.393,5.393,0,1,0,10.785,0v-1.78a3.632,3.632,0,0,1-1.332-2.559C32.2,31.962,28.741,33.035,24.541,33.152ZM36.1,31.622Zm0,0Zm0,0Z" transform="translate(-5.281 -6.2)" fill="#12263f"/>
        <path id="Trazado_778667" data-name="Trazado 778667" d="M40.77,37.622H40V36.081h.77a.77.77,0,1,0,0-1.541H40V33h.77a2.311,2.311,0,0,1,0,4.622Z" transform="translate(-9.185 -7.578)" fill="#12263f"/>
        <path id="Trazado_778668" data-name="Trazado 778668" d="M23.081,37.622h-.77a2.311,2.311,0,0,1,0-4.622h.77v1.541h-.77a.77.77,0,0,0,0,1.541h.77Z" transform="translate(-4.593 -7.578)" fill="#12263f"/>
        <path id="Trazado_778669" data-name="Trazado 778669" d="M37.948,31.556H36.407V28.474a6.933,6.933,0,0,0-13.867,0v3.081H21V28.474a8.474,8.474,0,0,1,16.948,0Z" transform="translate(-4.822 -4.593)" fill="#12263f"/>
        <path id="Trazado_778670" data-name="Trazado 778670" d="M31.89,56.954H30.35a.77.77,0,0,1-.641-.343L28.168,54.3l1.282-.855,1.312,1.968h.716l1.31-1.968,1.282.855-1.541,2.311A.77.77,0,0,1,31.89,56.954Z" transform="translate(-6.468 -12.273)" fill="#12263f"/>
        <path id="Trazado_778671" data-name="Trazado 778671" d="M30.919,50.69a.77.77,0,0,1-.545-.226l-3.082-3.082,1.089-1.089,2.537,2.537,2.537-2.537,1.089,1.089-3.081,3.081A.77.77,0,0,1,30.919,50.69Z" transform="translate(-6.267 -10.63)" fill="#12263f"/>
        <path id="Trazado_778672" data-name="Trazado 778672" d="M35.69,54.933a.77.77,0,0,1-.545-.226l-3.852-3.852,1.089-1.089L34.919,52.3V48H36.46v6.163A.77.77,0,0,1,35.69,54.933Z" transform="translate(-7.186 -11.022)" fill="#12263f"/>
        <path id="Trazado_778673" data-name="Trazado 778673" d="M26.77,54.933a.77.77,0,0,1-.77-.77V48h1.541v4.3l2.537-2.537,1.089,1.089-3.852,3.852A.77.77,0,0,1,26.77,54.933Z" transform="translate(-5.97 -11.022)" fill="#12263f"/>
        <path id="Trazado_778674" data-name="Trazado 778674" d="M33.393,62.163H28.771a.77.77,0,0,1-.73-1.014l1.541-4.622a.77.77,0,0,1,.73-.527h1.541a.77.77,0,0,1,.73.527l1.541,4.622a.77.77,0,0,1-.73,1.014ZM29.84,60.622h2.484L31.3,57.541h-.43Z" transform="translate(-6.43 -12.859)" fill="#12263f"/>
        <rect id="Rectángulo_357250" data-name="Rectángulo 357250" width="4.205" height="1.051" transform="translate(15.662 45.098)" fill="#12263f"/>
        <path id="Trazado_778675" data-name="Trazado 778675" d="M1.541,37.867H0V34.015a6.941,6.941,0,0,1,6.933-6.933H7.7a.77.77,0,0,0,.77-.77V24h1.541v2.311A2.311,2.311,0,0,1,7.7,28.622h-.77a5.4,5.4,0,0,0-5.393,5.393Z" transform="translate(0 -5.511)" fill="#12263f"/>
        <path id="Trazado_778676" data-name="Trazado 778676" d="M16.178,47.081H.77a.77.77,0,0,1-.77-.77V44H1.541v1.541H16.178Z" transform="translate(0 -10.104)" fill="#12263f"/>
        <path id="Trazado_778677" data-name="Trazado 778677" d="M21.311,28.622A2.311,2.311,0,0,1,19,26.311V24h1.541v2.311a.77.77,0,0,0,.77.77Z" transform="translate(-4.363 -5.511)" fill="#12263f"/>
        <path id="Trazado_778678" data-name="Trazado 778678" d="M13.933,23.244A6.941,6.941,0,0,1,7,16.311V14H8.541v2.311a5.393,5.393,0,0,0,10.785,0V14h1.541v2.311a6.941,6.941,0,0,1-6.933,6.933Z" transform="translate(-1.607 -3.215)" fill="#12263f"/>
        <path id="Trazado_778679" data-name="Trazado 778679" d="M20.178,16.933h-.77V15.393h.77a.77.77,0,1,0,0-1.541h-.77a.77.77,0,0,1-.545-.226l-1-1-1,1a.77.77,0,0,1-1.089,0L14.015,11.86l-1.766,1.766a.77.77,0,0,1-1.089,0L9.393,11.86,7.626,13.626a.77.77,0,0,1-.545.226h-.77a.77.77,0,1,0,0,1.541h.77v1.541h-.77a2.311,2.311,0,1,1,0-4.622h.451l2.085-2.085a.77.77,0,0,1,1.089,0L11.7,11.992l1.766-1.766a.77.77,0,0,1,1.089,0l1.766,1.766,1-1a.77.77,0,0,1,1.089,0l1.315,1.315h.451a2.311,2.311,0,1,1,0,4.622Z" transform="translate(-0.919 -2.297)" fill="#12263f"/>
        <path id="Trazado_778680" data-name="Trazado 778680" d="M22.453,11.555H20.913V8.474a6.933,6.933,0,0,0-12.48-4.16L7.2,3.389A8.474,8.474,0,0,1,22.453,8.474Z" transform="translate(-1.653)" fill="#12263f"/>
        <path id="Trazado_778681" data-name="Trazado 778681" d="M6.541,13.071H5V9.99A8.412,8.412,0,0,1,5.706,6.6l1.411.616A6.9,6.9,0,0,0,6.541,9.99Z" transform="translate(-1.148 -1.516)" fill="#12263f"/>
        <path id="Trazado_778682" data-name="Trazado 778682" d="M15.89,36.954H14.35a.77.77,0,0,1-.641-.343L12.168,34.3l1.282-.855,1.312,1.968h.716l1.31-1.968,1.282.855-1.541,2.311A.77.77,0,0,1,15.89,36.954Z" transform="translate(-2.794 -7.68)" fill="#12263f"/>
        <path id="Trazado_778683" data-name="Trazado 778683" d="M14.919,30.69a.77.77,0,0,1-.545-.226l-3.082-3.082,1.089-1.089,2.537,2.537,2.537-2.537,1.089,1.089-3.081,3.081A.77.77,0,0,1,14.919,30.69Z" transform="translate(-2.593 -6.038)" fill="#12263f"/>
        <path id="Trazado_778684" data-name="Trazado 778684" d="M10.77,34.933a.77.77,0,0,1-.77-.77V28h1.541v4.3l2.537-2.537,1.089,1.089-3.852,3.852A.77.77,0,0,1,10.77,34.933Z" transform="translate(-2.296 -6.43)" fill="#12263f"/>
        <path id="Trazado_778685" data-name="Trazado 778685" d="M17.393,45.244H12.77a.77.77,0,0,1-.755-.924l1.541-7.7A.77.77,0,0,1,14.311,36h1.541a.77.77,0,0,1,.755.616l1.541,7.7a.77.77,0,0,1-.755.924ZM13.71,43.7h2.743L15.22,37.541h-.279Z" transform="translate(-2.756 -8.267)" fill="#12263f"/>
        <path id="Trazado_778686" data-name="Trazado 778686" d="M61.015,37.867H59.474V34.015a5.4,5.4,0,0,0-5.393-5.393h-.77A2.311,2.311,0,0,1,51,26.311V24h1.541v2.311a.77.77,0,0,0,.77.77h.77a6.941,6.941,0,0,1,6.933,6.933Z" transform="translate(-11.711 -5.511)" fill="#12263f"/>
        <path id="Trazado_778687" data-name="Trazado 778687" d="M58.407,47.081H43V45.541H57.637V44h1.541v2.311A.77.77,0,0,1,58.407,47.081Z" transform="translate(-9.874 -10.104)" fill="#12263f"/>
        <path id="Trazado_778688" data-name="Trazado 778688" d="M42,28.622V27.081a.77.77,0,0,0,.77-.77V24h1.541v2.311A2.311,2.311,0,0,1,42,28.622Z" transform="translate(-9.644 -5.511)" fill="#12263f"/>
        <path id="Trazado_778689" data-name="Trazado 778689" d="M45.933,23.244A6.941,6.941,0,0,1,39,16.311V14h1.541v2.311a5.393,5.393,0,0,0,10.785,0V14h1.541v2.311a6.941,6.941,0,0,1-6.933,6.933Z" transform="translate(-8.956 -3.215)" fill="#12263f"/>
        <path id="Trazado_778690" data-name="Trazado 778690" d="M52.178,16.7h-.77V15.163h.77a.77.77,0,0,0,0-1.541h-.77c-6.219,0-8.58-1.411-9.476-2.534L39.621,13.4a.77.77,0,0,1-.539.223h-.77a.77.77,0,0,0,0,1.541h.77V16.7h-.77a2.311,2.311,0,1,1,0-4.622h.451l2.856-2.856a.77.77,0,0,1,1.315.545c.077.611,1.766,2.311,8.474,2.311h.77a2.311,2.311,0,0,1,0,4.622Z" transform="translate(-8.267 -2.067)" fill="#12263f"/>
        <path id="Trazado_778691" data-name="Trazado 778691" d="M46.919,30.69a.77.77,0,0,1-.545-.226l-3.082-3.082,1.089-1.089,2.537,2.537,2.537-2.537,1.089,1.089-3.081,3.081A.77.77,0,0,1,46.919,30.69Z" transform="translate(-9.941 -6.038)" fill="#12263f"/>
        <path id="Trazado_778692" data-name="Trazado 778692" d="M51.767,32.622a.763.763,0,0,1-.286-.055l-3.852-1.541L48.2,29.6,51,30.714V28h1.541v3.852A.77.77,0,0,1,51.767,32.622Z" transform="translate(-10.937 -6.43)" fill="#12263f"/>
        <rect id="Rectángulo_357251" data-name="Rectángulo 357251" width="3.319" height="1.541" transform="matrix(0.929, -0.371, 0.371, 0.929, 33.61, 24.398)" fill="#12263f"/>
        <path id="Trazado_778693" data-name="Trazado 778693" d="M56.474,11.556H54.933V8.474A6.941,6.941,0,0,0,48,1.541V0a8.484,8.484,0,0,1,8.474,8.474Z" transform="translate(-11.022 0)" fill="#12263f"/>
        <path id="Trazado_778694" data-name="Trazado 778694" d="M39.162,5.393H37.621A4.457,4.457,0,0,1,33,.77a.77.77,0,0,1,.77-.77h9.244V1.541H34.638a2.806,2.806,0,0,0,2.984,2.311h1.541Z" transform="translate(-7.577 0)" fill="#12263f"/>
        <rect id="Rectángulo_357252" data-name="Rectángulo 357252" width="2.103" height="7.359" transform="translate(28.278 4.097)" fill="#12263f"/>
        <path id="Trazado_778695" data-name="Trazado 778695" d="M48.473,44.16l-1.347-.749,3.755-6.758V33h1.541v3.852a.77.77,0,0,1-.1.374Z" transform="translate(-10.822 -7.578)" fill="#12263f"/>
        <rect id="Rectángulo_357253" data-name="Rectángulo 357253" width="1.541" height="7.045" transform="translate(32.883 30.424) rotate(-29.057)" fill="#12263f"/>
        <path id="Trazado_778696" data-name="Trazado 778696" d="M47.89,34.954H46.35a.77.77,0,0,1-.641-.343L44.168,32.3l1.282-.855,1.312,1.968h.716l1.31-1.968,1.282.855-1.541,2.311A.77.77,0,0,1,47.89,34.954Z" transform="translate(-10.142 -7.221)" fill="#12263f"/>
        <rect id="Rectángulo_357254" data-name="Rectángulo 357254" width="5.608" height="1.542" transform="translate(33.926 32.143) rotate(-74.051)" fill="#12263f"/>
        <rect id="Rectángulo_357255" data-name="Rectángulo 357255" width="1.542" height="5.608" transform="translate(37.007 27.175) rotate(-15.945)" fill="#12263f"/>
        <path id="Trazado_778697" data-name="Trazado 778697" d="M48.31,43.5l-.883-1.262,7.087-4.961-1.123-1.684a.77.77,0,0,1,.1-.972L54.8,33.3V29h1.541v4.622a.77.77,0,0,1-.226.545l-1.094,1.094,1.19,1.786a.77.77,0,0,1-.2,1.058Z" transform="translate(-10.891 -6.659)" fill="#12263f"/>
        <rect id="Rectángulo_357256" data-name="Rectángulo 357256" width="1.541" height="6.583" transform="matrix(0.573, -0.819, 0.819, 0.573, 31.143, 33.064)" fill="#12263f"/>
      </g>
      <g id="cajas_1_" data-name="cajas (1)" transform="translate(666.779 1014.325)" opacity="0.9">
        <g id="Grupo_1047231" data-name="Grupo 1047231" transform="translate(25.78 72.304)">
          <g id="Grupo_1047230" data-name="Grupo 1047230">
            <path id="Trazado_778698" data-name="Trazado 778698" d="M238.671,396.247a2.481,2.481,0,1,0-1.482,3.179A2.488,2.488,0,0,0,238.671,396.247Zm-2.048,1.625a.827.827,0,1,1,.494-1.06A.823.823,0,0,1,236.623,397.873Z" transform="translate(-233.86 -394.615)" fill="#12263f"/>
          </g>
        </g>
        <g id="Grupo_1047233" data-name="Grupo 1047233" transform="translate(0 32.371)">
          <g id="Grupo_1047232" data-name="Grupo 1047232" transform="translate(0 0)">
            <path id="Trazado_778699" data-name="Trazado 778699" d="M56.391,66.312,55.26,63.2a.824.824,0,0,0-.422-.464l0,0-.038-.016-.036-.015-.009,0a.822.822,0,0,0-.55.005l-2.7.983-5.751-15.8h0l-2.261-6.214a.827.827,0,0,0-1.554.565l1.98,5.438L33.292,51.544h0L26.818,53.9,22.482,41.989l5.7-2.074L29.4,43.281a.829.829,0,0,0,.776.545.8.8,0,0,0,.283-.051l4.144-1.508a.825.825,0,0,0,.535-.895v0c0-.021-.008-.043-.013-.064l0-.018a.819.819,0,0,0-.024-.08l-1.225-3.366,5.7-2.073L40.8,39.134a.831.831,0,0,0,.777.545.809.809,0,0,0,.283-.051.828.828,0,0,0,.494-1.059l-1.508-4.144a.831.831,0,0,0-.649-.534.825.825,0,0,0-.41.04l-7.247,2.638h0l-.006,0-4.13,1.5-.007,0-.012.005L21.14,40.718a.826.826,0,0,0-.494,1.059l4.9,13.466,4.713,12.95a6.84,6.84,0,0,0-1.867-.3l-11.94-32.8a4.139,4.139,0,0,0-5.3-2.471h0L.546,36.447h0c-.019.007-.037.015-.055.023l-.021.009c-.018.008-.035.018-.052.028l-.021.012c-.016.01-.032.021-.047.032l-.021.014c-.014.011-.028.023-.041.035l-.021.018c-.013.012-.024.025-.036.037l-.02.02c-.011.013-.021.026-.032.04l-.018.023c-.009.013-.018.027-.027.04L.115,36.8c-.008.013-.015.028-.022.041l-.015.029c-.006.014-.012.028-.017.042s-.009.021-.013.032-.009.028-.013.042-.007.023-.01.035-.006.028-.008.042-.005.024-.007.036,0,.028,0,.043,0,.025,0,.037,0,.029,0,.044,0,.025,0,.037,0,.03,0,.044,0,.025,0,.037.006.029.009.044,0,.025.007.037.009.029.013.044.007.024.011.036h0v0l1.131,3.108c.008.023.02.045.03.067s.015.035.024.052.028.044.043.066.017.028.027.041a.794.794,0,0,0,.058.064c.009.01.017.021.027.03a.828.828,0,0,0,.071.058c.009.007.017.015.026.021a.807.807,0,0,0,.083.048l.025.014a.813.813,0,0,0,.09.036l.026.01a.841.841,0,0,0,.1.022l.026.006a.806.806,0,0,0,.126.01l.07,0,.014,0,.056-.007.026-.006.045-.01.047-.015.022-.007h0l9.832-3.546L23.732,69.594A6.888,6.888,0,1,0,35.15,74.916L55.9,67.372h0l.016-.007c.021-.008.042-.016.062-.026L56,67.326c.016-.008.033-.017.048-.026l.026-.018.042-.029.012-.01c.017-.014.034-.027.05-.042l.008-.008c.017-.016.033-.032.048-.049l.009-.011c.014-.017.028-.034.041-.051l0-.006c.014-.02.027-.04.04-.061L56.333,67c.011-.019.021-.038.031-.058s.007-.016.01-.024.014-.033.02-.049.007-.023.011-.035.009-.027.012-.041.009-.041.012-.062c0-.006,0-.011,0-.016A.824.824,0,0,0,56.391,66.312Zm-24.068-27.9L33.265,41l-2.59.943-.943-2.589Zm4.9,13.466.943,2.589-2.59.943-.942-2.589Zm-9.841,3.581,5.7-2.073,1.225,3.366a.824.824,0,0,0,1.059.494l4.144-1.508A.826.826,0,0,0,40,54.673l-1.225-3.366,5.7-2.074,5.468,15.024-16.5,6a6.931,6.931,0,0,0-1.026-.958ZM13.345,36.222c0-.013-.011-.026-.016-.039s-.01-.026-.016-.038-.012-.022-.018-.033-.014-.027-.022-.04l-.018-.026c-.009-.014-.018-.028-.029-.042l-.017-.02c-.011-.014-.023-.028-.035-.042l-.016-.016c-.014-.014-.027-.028-.042-.041l-.013-.01c-.016-.014-.032-.027-.049-.04l-.007,0c-.019-.014-.039-.027-.059-.039l0,0a.83.83,0,0,0-.373-.111h0c-.026,0-.051,0-.077,0h-.014c-.022,0-.045,0-.067.007l-.032.006-.049.01-.055.017-.025.007h0L2.452,39.275l-.566-1.554,9.83-3.546h0A2.483,2.483,0,0,1,14.9,35.657L26.7,68.075a6.743,6.743,0,0,0-1.554.567ZM33.006,77a5.238,5.238,0,1,1,.175-4A5.2,5.2,0,0,1,33.006,77Zm1.964-3.775a7.006,7.006,0,0,0-.235-.794,6.856,6.856,0,0,0-.33-.76l19.585-7.122.566,1.554Z" transform="translate(0 -32.371)" fill="#12263f"/>
          </g>
        </g>
      </g>
      <path id="equipo_2_" data-name="equipo (2)" d="M48.3,20.256H46.553l-2.609,1.373a3.873,3.873,0,0,0-.929-.382l-3.282-.821v-.373a5.471,5.471,0,0,0,2.338-4.471V14.22a5.6,5.6,0,0,0-5.286-5.648c-.148,0-.294,0-.44.009L37.2,6.589,33.07,2.464,30.638,4.047a13.178,13.178,0,0,0-2.916-1.21L27.121,0H21.183l-.6,2.838a13.163,13.163,0,0,0-2.916,1.21L15.234,2.465,11.112,6.587l.837,1.994c-.032,0-.062-.007-.094-.008a5.456,5.456,0,0,0-5.622,5.451v1.558a5.469,5.469,0,0,0,2.337,4.47v.374l-2.141.535L2.548,18.7H0V34.842L7.664,37.4H9.157l.186-.653,2.349,1.41a2.426,2.426,0,0,0,2.339,2.35,2.425,2.425,0,0,0,2.337,2.337,2.425,2.425,0,0,0,2.337,2.337A2.423,2.423,0,0,0,22.5,47.1l.69.609a2.372,2.372,0,0,0,1.568.592H24.9a2.372,2.372,0,0,0,2.368-2.34A2.37,2.37,0,0,0,29.6,43.626a2.37,2.37,0,0,0,2.337-2.34A2.4,2.4,0,0,0,34.28,38.9a2.282,2.282,0,0,0-.012-.234L48.3,31.645ZM40.513,14.22v1.362a3.911,3.911,0,0,1-1.95,3.371l-.39.225,0,2.465,3.892.972L33.5,27.126v-2.1a3.876,3.876,0,0,0-1.116-2.715l2.674-.668V19.176l-.389-.225a3.906,3.906,0,0,1-1.949-3.37V14.024a3.9,3.9,0,0,1,4.016-3.893,4.028,4.028,0,0,1,3.775,4.089ZM25.326,26.513,21.8,25.386a9.621,9.621,0,0,0-4.992-.227l-.447.1v-.231a2.336,2.336,0,0,1,1.77-2.268l4.463-1.115V19.176l-.389-.225a3.906,3.906,0,0,1-1.949-3.37V14.024a3.9,3.9,0,0,1,4.016-3.893,4.028,4.028,0,0,1,3.775,4.089v1.362a3.911,3.911,0,0,1-1.95,3.371l-.39.225,0,2.465,4.462,1.115a2.336,2.336,0,0,1,1.77,2.268v2.919l-.192.1h-.477l-4.79-1.369a4.911,4.911,0,0,0-1.156-.165ZM16.535,11.66a8.564,8.564,0,0,1,15.2-.063,5.418,5.418,0,0,0-.573,2.426v1.558a5.469,5.469,0,0,0,2.337,4.47v.374l-3.116.78-3.117-.78v-.373a5.471,5.471,0,0,0,2.338-4.471V14.22a5.6,5.6,0,0,0-5.286-5.648A5.455,5.455,0,0,0,18.7,14.024v1.558a5.469,5.469,0,0,0,2.337,4.47v.374l-3.116.78-3.117-.78v-.373a5.471,5.471,0,0,0,2.338-4.471V14.22a5.742,5.742,0,0,0-.6-2.559ZM12.952,6.949,15.441,4.46l2.191,1.426.419-.257a11.626,11.626,0,0,1,3.374-1.4l.479-.115.542-2.556h3.412L26.4,4.113l.479.115a11.637,11.637,0,0,1,3.374,1.4l.419.257,2.191-1.426,2.486,2.487-.884,2.069a5.446,5.446,0,0,0-1.645,1.093c-.032.031-.059.065-.091.1a10.118,10.118,0,0,0-17.183.047,5.5,5.5,0,0,0-1.719-1.218Zm-2.824,14.7V19.176l-.389-.225a3.906,3.906,0,0,1-1.949-3.37V14.024a3.9,3.9,0,0,1,4.016-3.893,4.028,4.028,0,0,1,3.775,4.089v1.362a3.911,3.911,0,0,1-1.95,3.371l-.39.225,0,2.465,2.673.668A3.876,3.876,0,0,0,14.8,25.027V25.6l-2.43.54.063-.221.03-1.44-4.109-2.4Zm-8.57-1.387h.568l5.6,3.268L4.9,34.833,1.558,33.718ZM7.917,35.838l-1.533-.511L9.13,24.342l1.777,1.036V25.6L7.982,35.838Zm5.327,2.243a.879.879,0,0,1,.256-.618l1.37-1.37a.874.874,0,0,1,1.236,1.236l-1.37,1.37a.874.874,0,0,1-1.491-.618Zm2.337,2.337a.879.879,0,0,1,.256-.618l1.37-1.37a.874.874,0,0,1,1.236,1.236l-1.37,1.37a.874.874,0,0,1-1.491-.618Zm2.337,2.337a.879.879,0,0,1,.256-.618l1.37-1.37A.874.874,0,0,1,20.78,42l-1.37,1.37a.874.874,0,0,1-1.491-.618Zm3.211,3.211a.874.874,0,0,1-.618-1.491l1.37-1.37a.874.874,0,0,1,1.236,1.236l-1.37,1.37A.879.879,0,0,1,21.13,45.967Zm3.768.779h-.144a.807.807,0,0,1-.537-.2l-.583-.514.585-.585a2.422,2.422,0,0,0,.491-.724l.708.59a.813.813,0,0,1-.52,1.437Zm6.987-7.012h-.135a.836.836,0,0,1-.536-.195l-4.225-3.521-1,1.2,4.1,3.418a.813.813,0,0,1-.521,1.437H29.4a.813.813,0,0,1-.52-.189L24.65,38.356l-1,1.2,4.1,3.419a.812.812,0,0,1-.52,1.436,1.287,1.287,0,0,1-.82-.3l-1.739-1.449A2.424,2.424,0,0,0,22.584,41.3a2.425,2.425,0,0,0-2.337-2.337,2.425,2.425,0,0,0-2.337-2.337,2.426,2.426,0,0,0-4.142-1.634l-1.37,1.37a2.4,2.4,0,0,0-.218.267L9.787,35.192l2.1-7.343,5.26-1.169a8.026,8.026,0,0,1,4.18.189l1.148.367-3.891,1.945a2.6,2.6,0,0,0-1.441,2.334v.154a2.609,2.609,0,0,0,3.953,2.238l2.9-1.74a1.608,1.608,0,0,1,1.868.18l6.583,5.924a.839.839,0,0,1-.56,1.462Zm14.861-9.052L33.62,37.246c-.043-.045-.087-.088-.134-.13L26.9,31.191a3.135,3.135,0,0,0-3.713-.359l-2.9,1.74a1.051,1.051,0,0,1-1.591-.9v-.154a1.045,1.045,0,0,1,.581-.94L23.625,28.4a3.386,3.386,0,0,1,2.428-.225l4.9,1.4,1.186.03,14.61-7.69Zm0,0" transform="translate(254.848 1184.696)" fill="#12263f" opacity="0.9"/>
      <g id="capital" transform="translate(461 1178.848)" opacity="0.9">
        <path id="Trazado_778700" data-name="Trazado 778700" d="M48.3,39.449a2.415,2.415,0,0,0-1.787-2.322,2.368,2.368,0,0,0,0-1.8,2.4,2.4,0,0,0,0-4.644,2.407,2.407,0,0,0-2.238-3.314h-4.76c-1.19-5.877-3.9-10.251-8.069-13.042a2.411,2.411,0,0,0-.857-4.669H30.31l1.536-3.053a3.448,3.448,0,0,0-3.081-5H26.43A2.42,2.42,0,0,0,24.152,0h-4.83a2.42,2.42,0,0,0-2.278,1.61H14.721a3.456,3.456,0,0,0-3.087,5.008l1.53,3.042h-.283a2.411,2.411,0,0,0-.864,4.664c-5.909,3.924-8.8,10.855-8.8,21.1A33.255,33.255,0,0,0,3.7,41.059H3.623A3.627,3.627,0,0,0,0,44.682,3.677,3.677,0,0,0,3.623,48.3H45.89a2.41,2.41,0,0,0,.628-4.737,2.368,2.368,0,0,0,0-1.8A2.415,2.415,0,0,0,48.3,39.449Zm-3.22,3.22a.805.805,0,0,1-.805.805H33.008a.805.805,0,0,1,0-1.61H44.279A.805.805,0,0,1,45.085,42.669ZM33.008,37.034a.805.805,0,0,1,0-1.61H44.279a.805.805,0,0,1,0,1.61Zm12.881-3.22H34.618a.805.805,0,0,1,0-1.61H45.89a.805.805,0,0,1,0,1.61Zm-.805-4.025a.805.805,0,0,1-.805.805H33.008a.805.805,0,0,1,0-1.61H44.279A.805.805,0,0,1,45.085,29.788ZM13.073,5.895A1.864,1.864,0,0,1,14.721,3.22h2.186v3.22a.805.805,0,1,0,1.61,0V2.415a.805.805,0,0,1,.805-.805h4.83a.805.805,0,0,1,.805.805V6.441a.805.805,0,1,0,1.61,0V3.22h2.2a1.859,1.859,0,0,1,1.642,2.665l-1.9,3.776H14.967Zm-.192,5.376H30.593a.805.805,0,0,1,0,1.61H12.881a.805.805,0,1,1,0-1.61ZM2.2,46.093a2,2,0,0,1,1.421-3.424H8.051a.805.805,0,0,0,0-1.61H5.344a31.571,31.571,0,0,1-.514-5.636c0-10.784,3.312-17.631,10.125-20.932H28.519c4.959,2.4,8.026,6.625,9.358,12.881H33.008a2.41,2.41,0,0,0-.628,4.737,2.368,2.368,0,0,0,0,1.8,2.4,2.4,0,0,0,0,4.644,2.368,2.368,0,0,0,0,1.8,2.4,2.4,0,0,0,0,4.644,2.316,2.316,0,0,0-.029,1.7H3.623a2.007,2.007,0,0,1-1.421-.6Zm43.688.6H34.618a.805.805,0,0,1,0-1.61H45.89a.805.805,0,0,1,0,1.61Zm0-6.441H34.618a.805.805,0,0,1,0-1.61H45.89a.805.805,0,0,1,0,1.61Z" fill="#12263f"/>
        <path id="Trazado_778701" data-name="Trazado 778701" d="M29.051,30.636a.805.805,0,0,0,1.61,0,4.835,4.835,0,0,0-4.025-4.758v-.072a.805.805,0,0,0-1.61,0v.072a4.825,4.825,0,0,0,0,9.516v6.4a3.22,3.22,0,0,1-2.415-3.106.805.805,0,0,0-1.61,0,4.835,4.835,0,0,0,4.025,4.758v.072a.805.805,0,0,0,1.61,0v-.072a4.825,4.825,0,0,0,0-9.516v-6.4A3.22,3.22,0,0,1,29.051,30.636Zm-6.441,0a3.22,3.22,0,0,1,2.415-3.106v6.212A3.22,3.22,0,0,1,22.61,30.636Zm6.441,8.051a3.22,3.22,0,0,1-2.415,3.106V35.58A3.22,3.22,0,0,1,29.051,38.686Z" transform="translate(-4.093 -4.873)" fill="#12263f"/>
      </g>
      <g id="auditor" transform="translate(671 1178.555)" opacity="0.9">
        <path id="Trazado_778702" data-name="Trazado 778702" d="M1.62,48.6H35.636a1.613,1.613,0,0,0,.681-.155A3.2,3.2,0,0,0,40.5,45.359V34.02a1.614,1.614,0,0,0-.81-1.395V30.511A11.335,11.335,0,1,0,31.728,9.551,13.769,13.769,0,0,0,4.859,13.772V26.731c0,3.136-1.644,4.9-3.046,5.456a1.56,1.56,0,0,0-.985,1.224,1.648,1.648,0,0,0,.592,1.532,15.57,15.57,0,0,0,2.041,1.37A9.7,9.7,0,0,0,0,43.739v3.24A1.62,1.62,0,0,0,1.62,48.6Zm14.33-1.62-2.335-6.236A1.627,1.627,0,0,0,12.1,39.689H9.328l1.828-4.268,2.14-1.069L17.5,46.978ZM7.269,14.656a1.839,1.839,0,0,1,.8,1.317,1.215,1.215,0,0,0,1.372.972c1.686-.26,7.353-1.441,9.471-5.722a.841.841,0,0,1,.96-.4c1.717.423,5.72,1.62,7.144,3.779a11.2,11.2,0,0,0-.046,9.6A8.961,8.961,0,0,1,24.2,28.2L21,30.756a3.9,3.9,0,0,1-4.754,0L13.06,28.2A9.259,9.259,0,0,1,9.739,21.68a1.62,1.62,0,0,0-1.255-1.489,2.013,2.013,0,0,1-1.317-.88c-.688-1.126-.688-1.764-.688-4.137a.533.533,0,0,1,.79-.517Zm22.148,24.4-1.451-3.386a8.1,8.1,0,0,1,6.05,3.24v6.453a3.206,3.206,0,0,0,.45,1.62H23.036l2.123-5.669h2.77a1.62,1.62,0,0,0,1.489-2.257Zm5.409-6.427a1.614,1.614,0,0,0-.81,1.395v2.488a9.787,9.787,0,0,0-1.62-1.164V29.675a11.225,11.225,0,0,0,2.43.841Zm-4.05,1.962a9.682,9.682,0,0,0-3.24-.567h-.619L24.3,32.709V30.2l.91-.729A10.4,10.4,0,0,0,28,25.963a11.415,11.415,0,0,0,2.781,2.771ZM15.238,32.019a5.422,5.422,0,0,0,6.779,0l.661-.527v1.587l-4.05,12.149-4.05-12.149V31.492Zm4.514,14.959,4.212-12.627,2.14,1.069,1.825,4.268h-2.77a1.626,1.626,0,0,0-1.517,1.053l-2.335,6.236Zm19.124-1.62a1.62,1.62,0,0,1-3.24,0V34.02h3.24ZM38.066,32.4h-1.62V30.739c.269.019.536.041.81.041s.541-.022.81-.041Zm8.909-12.959a9.719,9.719,0,1,1-9.719-9.719A9.719,9.719,0,0,1,46.975,19.441ZM18.628,1.623a12.091,12.091,0,0,1,11.689,8.871,11.407,11.407,0,0,0-2.43,2.575C26,10.936,22.422,9.775,20.262,9.242a2.447,2.447,0,0,0-2.794,1.263c-1.643,3.321-6.067,4.447-7.885,4.778A3.28,3.28,0,0,0,8.1,13.268a2.032,2.032,0,0,0-1.585-.243,12.154,12.154,0,0,1,12.114-11.4ZM2.4,33.7c1.88-.745,4.075-3.017,4.075-6.965V20.94a3.926,3.926,0,0,0,1.646.85,10.912,10.912,0,0,0,3.923,7.68l.91.729V32.71l-2.621,1.31H9.719a9.645,9.645,0,0,0-4.75,1.249A15.982,15.982,0,0,1,2.4,33.7ZM1.62,43.739a8.1,8.1,0,0,1,7.672-8.077L7.839,39.051a1.62,1.62,0,0,0,1.489,2.258H12.1l2.123,5.669H1.62Z" transform="translate(0 0)"/>
        <path id="Trazado_778703" data-name="Trazado 778703" d="M44.1,30.2a8.1,8.1,0,1,0,0-16.2.81.81,0,1,0,0,1.62,6.486,6.486,0,1,1-3.6,1.094.81.81,0,1,0-.9-1.346A8.1,8.1,0,0,0,44.1,30.2Z" transform="translate(-6.844 -2.658)"/>
        <path id="Trazado_778704" data-name="Trazado 778704" d="M42.81,21.43a.81.81,0,0,0,.572-.237l.81-.81a.81.81,0,1,0-1.145-1.145l-.81.81a.81.81,0,0,0,.573,1.383Z" transform="translate(-7.984 -3.608)"/>
        <path id="Trazado_778705" data-name="Trazado 778705" d="M43.237,26.242a.81.81,0,0,0,1.145,0l4.859-4.859A.81.81,0,1,0,48.1,20.237L43.237,25.1A.81.81,0,0,0,43.237,26.242Z" transform="translate(-8.174 -3.798)"/>
      </g>
    </g>
  </g>
</svg>
