<svg xmlns="http://www.w3.org/2000/svg" xmlns:xlink="http://www.w3.org/1999/xlink" width="295" height="350.688" viewBox="0 0 295 350.688">
  <defs>
    <filter id="Elipse_8020" x="14.908" y="25.843" width="263.563" height="263.563" filterUnits="userSpaceOnUse">
      <feOffset dy="3" input="SourceAlpha"/>
      <feGaussianBlur stdDeviation="3" result="blur"/>
      <feFlood flood-opacity="0.161"/>
      <feComposite operator="in" in2="blur"/>
      <feComposite in="SourceGraphic"/>
    </filter>
    <clipPath id="clip-path">
      <rect id="Rectángulo_356920" data-name="Rectángulo 356920" width="246.546" height="243.302" fill="none"/>
    </clipPath>
    <clipPath id="clip-path-3">
      <rect id="Rectángulo_356917" data-name="Rectángulo 356917" width="11.084" height="18.436" fill="none"/>
    </clipPath>
    <clipPath id="clip-path-4">
      <rect id="Rectángulo_356918" data-name="Rectángulo 356918" width="44.363" height="42.592" fill="none"/>
    </clipPath>
  </defs>
  <g id="Grupo_1046954" data-name="Grupo 1046954" transform="translate(-180 -578.987)">
    <rect id="Rectángulo_357152" data-name="Rectángulo 357152" width="295" height="350.688" rx="15" transform="translate(180 578.987)" fill="#f1cfd6"/>
    <g id="Grupo_1046950" data-name="Grupo 1046950" transform="translate(-53.013 -36.722)">
      <g transform="matrix(1, 0, 0, 1, 233.01, 615.71)" filter="url(#Elipse_8020)">
        <circle id="Elipse_8020-2" data-name="Elipse 8020" cx="122.782" cy="122.782" r="122.782" transform="translate(23.91 31.84)" fill="#ffe6ea"/>
      </g>
      <g id="Grupo_1046944" data-name="Grupo 1046944" transform="translate(256.921 649.812)">
        <g id="Grupo_1046859" data-name="Grupo 1046859" clip-path="url(#clip-path)">
          <g id="Grupo_1046858" data-name="Grupo 1046858">
            <g id="Grupo_1046857" data-name="Grupo 1046857" clip-path="url(#clip-path)">
              <path id="Trazado_777932" data-name="Trazado 777932" d="M85.946,124.167s4.753-3.527,6.593-1.993-2.453,4.6-2.453,4.6,6.746-3.986,9.353.613-7.82,7.973-7.82,7.973,9.2-2.607,9.813,1.227-9.353,2.76-9.353,2.76c9.238.169,12.646,4.625,10.58,10.426-3.566,10.011-13.8,0-13.8,0s9.812,5.366.613,11.805-16.405-6.286-16.405-6.286-2.453,16.252-11.959,13.186-5.979-7.666-5.979-7.666-4.6,4.293-6.593,1.84,2.913-5.673,2.913-5.673S45.93,162.65,39.8,158.97s2.607-9.659,2.607-9.659-6.265.921-6.878-4.292,9.331-5.367,9.331-5.367Z" transform="translate(-16.889 -57.942)" fill="#252028"/>
              <path id="Trazado_777933" data-name="Trazado 777933" d="M74.879,163.691s3.065,12.528-2.75,12.776-14.115-1.462-13.083,10.884,41.075,4.086,44.053-3.312c4.007-9.954-3.015-8.492-6.6-7.438-11.757,3.463-6.9-27.81-6.9-27.81Z" transform="translate(-28.05 -70.789)" fill="#f19c7c"/>
              <g id="Grupo_1046853" data-name="Grupo 1046853" transform="translate(46.829 81.683)" opacity="0.4">
                <g id="Grupo_1046852" data-name="Grupo 1046852">
                  <g id="Grupo_1046851" data-name="Grupo 1046851" clip-path="url(#clip-path-3)">
                    <path id="Trazado_777934" data-name="Trazado 777934" d="M90.12,174.249c6.093-3.593,9.177-11.245,10.291-18.436L89.327,167.032a30.7,30.7,0,0,1,.793,7.217" transform="translate(-89.327 -155.813)" fill="#d85a50"/>
                  </g>
                </g>
              </g>
              <path id="Trazado_777935" data-name="Trazado 777935" d="M72.294,99.258s-19.4-.84-19.6,26.1,27.263,21.372,33.287,4.687,1.9-31.721-13.685-30.789" transform="translate(-25.068 -47.203)" fill="#f19c7c"/>
              <path id="Trazado_777936" data-name="Trazado 777936" d="M90.407,96.544c-3.289-17.818-23.4-9.916-23.4-9.916s1.124-3.653-1.265-3.372-3.793,2.81-3.793,2.81-.281-4.074-3.513-4.074-2.388,3.793-2.388,3.793c-5.761-8.571-16.159,0-10.538,9.555,5.072,8.622,26.389,3.285,30.5,2.161.381,7.04,5.445,9.464,5.445,9.464-3.032,6.928.59,9.226.59,9.226.77-5.45,4.1-6.963,4.1-6.963a3.489,3.489,0,0,1,2.5.308c2.664-5.968,2.7-10.13,1.765-12.991" transform="translate(-20.883 -39.009)" fill="#252028"/>
              <path id="Trazado_777937" data-name="Trazado 777937" d="M69.352,139.884a4.189,4.189,0,0,1,.206.989,6.681,6.681,0,0,1,.018,1.014c-.012.169-.027.338-.051.506a4.516,4.516,0,0,1-.08.5,9.912,9.912,0,0,1-.257.986,8.825,8.825,0,0,1-.379.946l-.226.457-.259.438c-.167.3-.387.556-.581.831a4.24,4.24,0,0,1-.329.384l-.339.373-.051-.479a22.792,22.792,0,0,1,1.646,1.778,23.067,23.067,0,0,1-2.078-1.247l-.244-.161.193-.319c.332-.547.664-1.082.947-1.641.149-.275.291-.553.418-.838.072-.138.136-.281.194-.426s.13-.284.185-.429c.114-.29.237-.578.332-.877s.209-.595.287-.9a16.008,16.008,0,0,0,.449-1.889" transform="translate(-31.565 -66.551)" fill="#d85a50"/>
              <path id="Trazado_777938" data-name="Trazado 777938" d="M83.063,159.717a4.842,4.842,0,0,1-.754,1.452,5.117,5.117,0,0,1-.521.614,4.716,4.716,0,0,1-.684.6,3.391,3.391,0,0,1-.408.269,2.92,2.92,0,0,1-.443.244,4.288,4.288,0,0,1-.992.326,3.936,3.936,0,0,1-1.046.089,1.809,1.809,0,0,1-.508-.058l-.488-.1a6.986,6.986,0,0,1-.86-.339,4.389,4.389,0,0,1-.688-.43,2.607,2.607,0,0,1-.525-.423c-.144-.139-.263-.269-.36-.372-.193-.21-.294-.335-.294-.335s.156.061.413.176c.127.058.283.126.452.213a3.972,3.972,0,0,0,.587.239c.22.068.441.183.69.241s.508.125.774.172a6.762,6.762,0,0,0,.821.046,3.84,3.84,0,0,0,.83-.1,4.381,4.381,0,0,0,.809-.235,6.716,6.716,0,0,0,.756-.361c.234-.145.472-.275.678-.433s.4-.306.59-.444c.172-.153.342-.286.483-.415l.367-.339c.2-.19.319-.308.319-.308" transform="translate(-35.44 -75.987)" fill="#d85a50"/>
              <path id="Trazado_777939" data-name="Trazado 777939" d="M93.32,140.512a4.182,4.182,0,0,1,.045.473,5.485,5.485,0,0,1-.08,1.263,4.486,4.486,0,0,1-.225.835,3.625,3.625,0,0,1-.47.878,2.931,2.931,0,0,1-.815.752,2.965,2.965,0,0,1-.533.235c-.06.018-.063.026-.169.053l-.125.024-.251.048a2.2,2.2,0,0,1-1.21-.2,2.157,2.157,0,0,1-.851-.761,3.245,3.245,0,0,1-.432-.9,4.724,4.724,0,0,1-.19-.84,6.1,6.1,0,0,1-.052-1.261c.018-.3.047-.473.047-.473s.037.168.1.461.169.7.325,1.173a7.449,7.449,0,0,0,.293.733,3.567,3.567,0,0,0,.441.71,1.691,1.691,0,0,0,.628.5l.183.072.2.035a2.035,2.035,0,0,0,.388,0l.252-.041.126-.021c-.025,0,.052-.018.073-.026a2.218,2.218,0,0,0,.395-.16,2.643,2.643,0,0,0,.658-.533,4.649,4.649,0,0,0,.8-1.411,9.824,9.824,0,0,0,.349-1.162l.1-.46" transform="translate(-41.843 -66.85)" fill="#252028"/>
              <path id="Trazado_777940" data-name="Trazado 777940" d="M64.028,139.955a4.377,4.377,0,0,1,.047.465,5.571,5.571,0,0,1-.063,1.246,4.51,4.51,0,0,1-.207.826,3.509,3.509,0,0,1-.441.875,2.8,2.8,0,0,1-.786.763,2.764,2.764,0,0,1-.527.24,1.54,1.54,0,0,1-.167.053l-.123.024-.247.048a2.115,2.115,0,0,1-1.2-.225,2.243,2.243,0,0,1-.806-.782,3.431,3.431,0,0,1-.4-.894,4.707,4.707,0,0,1-.178-.828,6.26,6.26,0,0,1-.049-1.242c.018-.3.045-.467.045-.467l.1.454c.063.287.167.693.317,1.16a7.5,7.5,0,0,0,.281.729,3.875,3.875,0,0,0,.419.716,1.811,1.811,0,0,0,.6.521,1.417,1.417,0,0,0,.739.128l.248-.041.124-.02c-.024,0,.05-.018.071-.026a2.082,2.082,0,0,0,.384-.161,2.51,2.51,0,0,0,.632-.54,4.732,4.732,0,0,0,.756-1.412,10.439,10.439,0,0,0,.328-1.152l.1-.455" transform="translate(-28.007 -66.585)" fill="#252028"/>
              <path id="Trazado_777941" data-name="Trazado 777941" d="M92.967,131.509a7.374,7.374,0,1,1-8.276-6.345A7.374,7.374,0,0,1,92.967,131.509Z" transform="translate(-37.244 -59.518)" fill="none" stroke="#6f96bd" stroke-miterlimit="10" stroke-width="2"/>
              <path id="Trazado_777942" data-name="Trazado 777942" d="M58.035,132.409a7.089,7.089,0,1,1-7.971-6.225A7.152,7.152,0,0,1,58.035,132.409Z" transform="translate(-20.894 -60.005)" fill="none" stroke="#6f96bd" stroke-miterlimit="10" stroke-width="2"/>
              <line id="Línea_886" data-name="Línea 886" x1="12.327" y2="1.008" transform="translate(56.147 72.894)" fill="none" stroke="#6f96bd" stroke-miterlimit="10" stroke-width="2"/>
              <path id="Trazado_777943" data-name="Trazado 777943" d="M74.987,138.677s-2.138-4.377-3.835-.391" transform="translate(-33.851 -64.994)" fill="none" stroke="#6f96bd" stroke-miterlimit="10" stroke-width="2"/>
              <path id="Trazado_777944" data-name="Trazado 777944" d="M113.377,141.556s.853-9.463,6.153-7.8,1.776,17.162-6.4,11.854.246-4.051.246-4.051" transform="translate(-52.125 -63.542)" fill="#f19c7c"/>
              <path id="Trazado_777945" data-name="Trazado 777945" d="M119.838,146.7a8.307,8.307,0,0,0,1.024-.637,2.925,2.925,0,0,0,.428-.378.615.615,0,0,0,.193-.383c0-.082-.072-.165-.206-.256a1.5,1.5,0,0,0-.218-.12c-.083-.035-.163-.071-.253-.1a7.222,7.222,0,0,0-1.113-.286l-.391-.075.094-.424c.123-.555.281-1.087.441-1.626s.354-1.066.561-1.593a10.877,10.877,0,0,1,.742-1.554,5.686,5.686,0,0,1,.518-.748,1.942,1.942,0,0,1,.872-.643l.174-.036.044-.007.058,0h.065c.073,0,.13,0,.215.006.106.014.213.033.317.058a2.268,2.268,0,0,1,.277.115,1.679,1.679,0,0,1,.718.819,3.329,3.329,0,0,1,.22.91,4.981,4.981,0,0,1,.03.876,13.031,13.031,0,0,1-.622,3.306l.037-1.661c.008-.275-.005-.548-.007-.82s-.017-.542-.05-.806a6.338,6.338,0,0,0-.116-.774,2.569,2.569,0,0,0-.235-.677.891.891,0,0,0-.373-.386c-.038-.009-.074-.03-.108-.037a.293.293,0,0,1-.091-.015c-.052,0-.133,0-.2.007l-.052,0h-.019l.04,0h0l-.007,0a.079.079,0,0,1-.029.008,1.368,1.368,0,0,0-.414.37,4.736,4.736,0,0,0-.41.622c-.249.454-.475.941-.688,1.435s-.4,1.007-.59,1.516-.363,1.032-.536,1.542l-.3-.5a8,8,0,0,1,1.2.445,3.227,3.227,0,0,1,.293.166,2.011,2.011,0,0,1,.285.217,1.108,1.108,0,0,1,.251.316.733.733,0,0,1,.084.454.83.83,0,0,1-.172.382,1.549,1.549,0,0,1-.254.248,2.9,2.9,0,0,1-.555.331,5.669,5.669,0,0,1-1.174.386" transform="translate(-56.76 -65.577)" fill="#d85a50"/>
              <path id="Trazado_777946" data-name="Trazado 777946" d="M84.5,176.687l-16.139,5.868s.734,6.455-1.319,6.455-18.584-.147-18.731,7.482,2.151,47.682,2.151,47.682l1.908,9.39s13.373,1.447,32.739-3.982c0,0,30.054-45.168,14.356-59.692l-7.336-2.641s-6.308,1.467-7.629-10.563" transform="translate(-22.981 -84.061)" fill="#5d8584"/>
              <path id="Trazado_777947" data-name="Trazado 777947" d="M89.942,216.177c-3.623,6.086-8.814,10.875-16.128,12-4.712.727-10.751,1.491-15.476-.388-.787.594-2.294.6-2.5-.546-.059-.32-.127-.638-.2-.955-.145-.109-.288-.221-.428-.339-.486-.406-.352-.9.049-1.278a13.346,13.346,0,0,1-.438-3.311c-2.481-1.775-4.389-4.152-6.513-6.3-.084,8.344,2.156,47.368,2.156,47.368l1.907,9.39s13.373,1.447,32.74-3.981c0,0,21.162-31.809,18.689-50.623a100,100,0,0,0-13.856-1.043" transform="translate(-22.981 -102.321)" fill="#4e7b7c"/>
              <path id="Trazado_777948" data-name="Trazado 777948" d="M44.713,303s9.683,8.176,37.265-1.213c0,0,35.506,22.3,16.432,85.094H47.061S27.108,350.493,44.713,303" transform="translate(-17.819 -143.577)" fill="#765e69"/>
              <path id="Trazado_777949" data-name="Trazado 777949" d="M101.247,343.507A25.808,25.808,0,0,1,99,353.386C94.3,363.475,86.78,372.448,77.124,378.11c-10.468,6.139-22.208,8.637-34.195,9.431,2.83,12.059,6.736,19.187,6.736,19.187h51.35c8.883-29.246,5.925-49.7.232-63.221" transform="translate(-20.424 -163.428)" fill="#66525c"/>
              <path id="Trazado_777950" data-name="Trazado 777950" d="M108.52,223.9s-4.079,38.868-11.694,37.149-32.669-23.09-32.669-23.09l3.193-8.106,21.125,10.071s1.228-32.669,8.106-34.634S108.52,223.9,108.52,223.9" transform="translate(-30.523 -97.606)" fill="#f19c7c"/>
              <g id="Grupo_1046856" data-name="Grupo 1046856" transform="translate(33.633 107.552)" opacity="0.4">
                <g id="Grupo_1046855" data-name="Grupo 1046855">
                  <g id="Grupo_1046854" data-name="Grupo 1046854" clip-path="url(#clip-path-4)">
                    <path id="Trazado_777951" data-name="Trazado 777951" d="M129.454,231.6a64.328,64.328,0,0,1-17.061-4.192c1.048-9.446,3.137-20.971,7.136-22.114,6.877-1.965,11.939,18.61,11.939,18.61s-.575,3.24-1.574,7.8c-1.081-.023.638-.013-.44-.109" transform="translate(-87.106 -205.158)" fill="#d85a50"/>
                    <path id="Trazado_777952" data-name="Trazado 777952" d="M76.2,270.162c-6.592-5.138-12.046-9.79-12.046-9.79l3.193-8.106,9.443,4.5c-.217,4.464-.344,8.932-.59,13.394" transform="translate(-64.157 -227.57)" fill="#d85a50"/>
                  </g>
                </g>
              </g>
              <path id="Trazado_777953" data-name="Trazado 777953" d="M129.764,224.4s9.6-27.041-6.289-30.4c-12.773-2.7-16.212,26.037-16.212,26.037Z" transform="translate(-51.032 -92.214)" fill="#5d8584"/>
              <path id="Trazado_777954" data-name="Trazado 777954" d="M61.772,244.413a1.105,1.105,0,1,0,1.944,1.053L74.708,225.16a1.106,1.106,0,0,0-1.944-1.053Z" transform="translate(-29.325 -106.346)" fill="#252028"/>
              <path id="Trazado_777955" data-name="Trazado 777955" d="M47.632,266.447,39.28,223.216,9.8,226.409l8.352,42Z" transform="translate(-4.665 -106.198)" fill="#965450"/>
              <path id="Trazado_777956" data-name="Trazado 777956" d="M11.531,260.556s-2.948-7.86,3.439-11.3,11.79-4.667.245,1.965c0,0,24.318-10.071.491,2.7,0,0,24.318-8.843.737,2.457,0,0,21.861-5.65-1.228,3.438l1.719,10.071a53.535,53.535,0,0,1-5.4-9.334" transform="translate(-5.163 -117.255)" fill="#f19c7c"/>
              <path id="Trazado_777957" data-name="Trazado 777957" d="M355.177,156.927s-1.519,14.1,4.857,13.526,19.433-10.672,20.106,2.936-48.44,17.457-52.764,9.825-6.705-15.439,6.614-13.376,2.971-27.012,2.971-27.012Z" transform="translate(-154.132 -67.951)" fill="#965450"/>
              <path id="Trazado_777958" data-name="Trazado 777958" d="M371.239,168.071c-7.165-3.03-11.641-10.923-13.9-18.6l13.715,10.617a33.77,33.77,0,0,0,.186,7.983" transform="translate(-170.008 -71.113)" fill="#76413b"/>
              <path id="Trazado_777959" data-name="Trazado 777959" d="M340.326,135.483s-2.307-10.191-7.842-7.61.562,18.966,8.7,11.99-.858-4.38-.858-4.38" transform="translate(-157.17 -60.638)" fill="#965450"/>
              <path id="Trazado_777960" data-name="Trazado 777960" d="M357.177,84.678s22.776-4.438,26.916,24.9-28.359,27.964-37.354,10.652-6.684-34.3,10.438-35.554" transform="translate(-162.508 -40.173)" fill="#965450"/>
              <path id="Trazado_777961" data-name="Trazado 777961" d="M325.766,101.049s.635-3.813,4.194-3.3c0,0,3.559.381,5.084,9.277,0,0,4.448-2.288.508-12.709,0,0,7.117-3.94,3.177-11.184,0,0,6.227,7.879,20.08,6.736l-9.024-5.592s9.278,6.227,24.02,1.525c0,0-3.05-13.217-15.759-16.013L371.518,76.9s-2.541-12.073-21.1-12.073c-16.776,0-19.572,11.311-19.572,11.311s-5.465.254-8.642,6.609c-6.222,12.445,3.559,18.3,3.559,18.3" transform="translate(-152.309 -30.843)" fill="#352c38"/>
              <path id="Trazado_777962" data-name="Trazado 777962" d="M340.849,141.433a6.376,6.376,0,0,1-1.326-.272,3.18,3.18,0,0,1-.643-.285,1.651,1.651,0,0,1-.3-.231.883.883,0,0,1-.231-.376.759.759,0,0,1,.026-.481,1.151,1.151,0,0,1,.222-.364,2.142,2.142,0,0,1,.274-.27,3.417,3.417,0,0,1,.293-.218,8.626,8.626,0,0,1,1.237-.646l-.213.5c-.513-1.079-1.071-2.155-1.664-3.184-.3-.511-.622-1.011-.965-1.474a5.234,5.234,0,0,0-.548-.628,1.5,1.5,0,0,0-.545-.36.189.189,0,0,1-.045-.005l-.011,0h0l.036,0h-.021l-.057.005c-.072.008-.16.011-.219.022a.512.512,0,0,1-.115.036c-.04.015-.081.046-.125.064a1.051,1.051,0,0,0-.374.514,2.9,2.9,0,0,0-.154.792,6.839,6.839,0,0,0-.006.868c.006.294.042.591.073.888s.071.6.123.894c.093.6.206,1.2.312,1.8a14.947,14.947,0,0,1-1.106-3.52,5.512,5.512,0,0,1-.087-.951,3.608,3.608,0,0,1,.111-1.005,1.779,1.779,0,0,1,.64-.958,2.311,2.311,0,0,1,.272-.158c.1-.039.212-.073.319-.1.09-.019.155-.024.233-.036l.057-.008.014,0h.007l.043,0h.006l.046,0,.182.013a2.064,2.064,0,0,1,1,.557,6.149,6.149,0,0,1,.664.731,12.2,12.2,0,0,1,1.029,1.577c.3.542.592,1.087.845,1.648s.506,1.118.724,1.7l.142.377-.355.122a7.945,7.945,0,0,0-1.177.488c-.095.045-.178.1-.264.15a1.633,1.633,0,0,0-.224.171.65.65,0,0,0-.152.182.263.263,0,0,0-.04.17.728.728,0,0,0,.287.407,3.28,3.28,0,0,0,.532.344,8.98,8.98,0,0,0,1.219.524" transform="translate(-159.229 -62.929)" fill="#5e2626"/>
              <g id="Grupo_1046958" data-name="Grupo 1046958">
                <path id="Trazado_777963" data-name="Trazado 777963" d="M399.468,122.365l.58,1.2c.2.395.367.8.572,1.185l.278.592c.087.2.2.388.292.585l.579,1.166.611,1.144c.182.394.431.745.644,1.12.113.184.215.374.321.562a5.586,5.586,0,0,0,.357.535c.245.351.477.716.717,1.076l.176.264-.185.165c-.659.588-1.324,1.168-2.043,1.7.489-.748,1.029-1.447,1.576-2.139l-.009.428c-.293-.339-.6-.674-.883-1.022a6.225,6.225,0,0,1-.418-.532c-.124-.186-.253-.371-.371-.561-.231-.384-.5-.749-.7-1.15l-.6-1.2c-.1-.2-.173-.412-.26-.617l-.248-.622c-.172-.411-.29-.843-.429-1.265s-.244-.857-.335-1.293a10.87,10.87,0,0,1-.221-1.318" transform="translate(-190.052 -58.217)" fill="#5e2626"/>
                <path id="Trazado_777964" data-name="Trazado 777964" d="M363.341,118.713a3.87,3.87,0,0,1,.231-.681,7.194,7.194,0,0,1,.961-1.63,8.283,8.283,0,0,1,2-1.854,8.014,8.014,0,0,1,3-1.187,7.582,7.582,0,0,1,1.662-.094,7.421,7.421,0,0,1,1.576.247,7.876,7.876,0,0,1,1.371.511,7.992,7.992,0,0,1,1.11.649,7.461,7.461,0,0,1,.833.674,5.953,5.953,0,0,1,.571.589,7.059,7.059,0,0,1,.443.562s-.265-.05-.688-.169c-.208-.067-.473-.117-.761-.193s-.611-.149-.955-.231c-.17-.047-.351-.074-.535-.11s-.369-.082-.564-.1c-.383-.067-.784-.11-1.19-.144a11.709,11.709,0,0,0-1.238-.02,9.014,9.014,0,0,0-1.247.129,11.048,11.048,0,0,0-2.406.7,18.15,18.15,0,0,0-2.085,1.044c-.614.352-1.13.684-1.5.921l-.587.388" transform="translate(-172.864 -53.882)" fill="#252028"/>
                <path id="Trazado_777965" data-name="Trazado 777965" d="M399,113.782a3.007,3.007,0,0,1,.044-.587,5.253,5.253,0,0,1,.461-1.469,5.57,5.57,0,0,1,1.357-1.794,4.92,4.92,0,0,1,1.124-.746,4.776,4.776,0,0,1,1.371-.435,4.994,4.994,0,0,1,2.732.343,6.22,6.22,0,0,1,1.055.578,6.426,6.426,0,0,1,.795.674,5.131,5.131,0,0,1,.567.653,4.16,4.16,0,0,1,.367.555,4.792,4.792,0,0,1,.267.518s-.218-.047-.558-.157c-.166-.059-.376-.117-.6-.187s-.478-.158-.749-.233c-.264-.092-.555-.155-.844-.241-.295-.066-.594-.136-.9-.182-.151-.028-.3-.034-.451-.058s-.3-.01-.447-.028a5.232,5.232,0,0,0-.869.066,5.318,5.318,0,0,0-1.668.561,11.355,11.355,0,0,0-1.5.951c-.448.328-.831.637-1.111.858s-.446.36-.446.36" transform="translate(-189.826 -51.71)" fill="#252028"/>
                <path id="Trazado_777966" data-name="Trazado 777966" d="M378.611,146.276s6.839,9.637,14.3,1.865Z" transform="translate(-180.129 -69.592)" fill="#fff"/>
                <path id="Trazado_777967" data-name="Trazado 777967" d="M372.187,130.331c0,1.3-.484,2.351-1.081,2.351s-1.08-1.053-1.08-2.351.483-2.351,1.08-2.351,1.081,1.053,1.081,2.351" transform="translate(-176.045 -60.888)" fill="#252028"/>
                <path id="Trazado_777968" data-name="Trazado 777968" d="M406.975,126.452c0,1.3-.484,2.351-1.08,2.351s-1.08-1.053-1.08-2.351.483-2.351,1.08-2.351,1.08,1.053,1.08,2.351" transform="translate(-192.596 -59.042)" fill="#252028"/>
              </g>
              <path id="Trazado_777969" data-name="Trazado 777969" d="M332.742,288.958s-37.618,21.859-13.217,91h52.457s27.778-52.426-3.521-92.723Z" transform="translate(-148.101 -136.654)" fill="#6f96bd"/>
              <path id="Trazado_777970" data-name="Trazado 777970" d="M410.982,344.83s-13.895,16.267-26.773,18.979l1.356,24.74s22.029-21.012,25.418-43.718" transform="translate(-182.792 -164.057)" fill="#588aaf"/>
              <path id="Trazado_777971" data-name="Trazado 777971" d="M345.421,370.042q5.5,1.238,10.964,2.628c1.824.45,3.64.926,5.459,1.394s3.633.953,5.448,1.434l.477.126.012.514q.065,2.7.1,5.4l.076,5.4.038,5.4c.019,1.8.009,3.6.01,5.4q.006,5.4-.082,10.8c-.05,3.6-.134,7.2-.278,10.805l-.394,0c-.2-3.6-.341-7.2-.448-10.8s-.2-7.2-.251-10.8c-.028-1.8-.066-3.6-.074-5.4l-.047-5.4-.009-5.4q-.01-2.7.016-5.4l.489.64c-1.8-.536-3.6-1.063-5.4-1.616s-3.594-1.089-5.385-1.657q-5.382-1.67-10.726-3.473" transform="translate(-164.338 -176.052)" fill="#588aaf"/>
              <path id="Trazado_777972" data-name="Trazado 777972" d="M429.462,213.1s23.329,42.988,11.8,48.23c-9.8,4.452-20.707-37.483-20.707-37.483l9.7-9.436" transform="translate(-200.082 -101.386)" fill="#76413b"/>
              <path id="Trazado_777973" data-name="Trazado 777973" d="M331.62,235.189c-.465-.888-17.912-34.227-17.739-46.218.176-12.153,12.681-6.517,16.556-6.869s2.818-7.926,2.818-7.926l20.254,2.642c-.528,8.631,8.542,2.688,16.556,3.452,11.1,1.057,14.412,21.915,14.412,21.915-4.336,3.942-9.96,6.029-11.271,5.5.268,12.216-1.322,23.227-2.917,25.372,1.055.618-59.941,26.266-38.67,2.128" transform="translate(-149.332 -82.866)" fill="#ffa65b"/>
              <path id="Trazado_777974" data-name="Trazado 777974" d="M320.116,187.492a25.017,25.017,0,0,0,3.135,8.027c2.6,3.961,4.943,8.066,8.151,11.585a44.138,44.138,0,0,0,22.855,13.545c7.708,1.713,15.91,2.241,23.408-.269a40.365,40.365,0,0,1-7.745,19.5c-22.368,5.988-38.288,1.664-38.288,1.664s-17.925-34.087-17.749-46.239c.082-5.706,2.884-7.49,6.233-7.814" transform="translate(-149.333 -89.202)" fill="#e58b48"/>
              <path id="Trazado_777975" data-name="Trazado 777975" d="M331.493,257.388s-1.506-30.955-2.9-34.218-17.112-1.052-17.112-1.052-1.365,38.857,8.267,40.6,11.746-5.335,11.746-5.335" transform="translate(-148.159 -105.327)" fill="#965450"/>
              <path id="Trazado_777976" data-name="Trazado 777976" d="M315.809,236.854c-1.37-.145-2.77-.337-4.177-.577-.379-7.739-.154-14.159-.154-14.159s15.717-2.211,17.112,1.052c.648,1.516,1.121,6.737,1.442,11.895-4.159,2.255-9.709,2.265-14.223,1.789" transform="translate(-148.158 -105.327)" fill="#76413b"/>
              <path id="Trazado_777977" data-name="Trazado 777977" d="M330.2,216.092s1.461-26.611-12.217-28.75-11.068,27.472-11.068,27.472,8.667,3.287,23.285,1.278" transform="translate(-145.925 -89.078)" fill="#ffa65b"/>
              <path id="Trazado_777978" data-name="Trazado 777978" d="M385.4,225.3l5.3,53.764-39.5,2.19L347.3,224.9Z" transform="translate(-165.233 -106.999)" fill="#fff"/>
              <path id="Trazado_777979" data-name="Trazado 777979" d="M382.939,224.324l6.69,53.609-40.655,4.358-3.436-56.362Z" transform="translate(-164.394 -106.725)" fill="#352c38"/>
              <line id="Línea_887" data-name="Línea 887" x2="17.228" y2="18.249" transform="translate(203.92 118.19)" fill="none" stroke="#fff" stroke-linecap="round" stroke-linejoin="round" stroke-width="1.114"/>
              <line id="Línea_888" data-name="Línea 888" x1="11.534" y2="18.249" transform="translate(211.803 154.397)" fill="none" stroke="#fff" stroke-linecap="round" stroke-linejoin="round" stroke-width="1.114"/>
              <path id="Trazado_777980" data-name="Trazado 777980" d="M313.79,266.37s.73,23.652,6.716,26.133c3.776,1.566,61.172-11.1,51.828-15.767,0,0,3.066-.73.146-1.9,0,0,4.087-1.751-.292-2.627,0,0,2.627-2.044-1.46-2.336l-6.424.876s9.052-12.264-3.5-.584l-40.295,3.8Z" transform="translate(-149.289 -126.135)" fill="#965450"/>
              <path id="Trazado_777981" data-name="Trazado 777981" d="M427.16,252.782s-13.359-22.334-21.783-22.447-23.8,8.217-6.563,3.418c0,0-17.066,6.889,2,1.944,0,0-19.031,8.624,1.213,2.006,0,0-16.388,5.52,3.825,1.8,0,0,8.788,32.031,17.41,31.341s9.358-9.029,3.9-18.059" transform="translate(-186.015 -109.584)" fill="#965450"/>
              <path id="Trazado_777982" data-name="Trazado 777982" d="M417.528,231.7s-9.689-6.061-7.337-6.249,8.194,3.814,9.323,4.776-1.986,1.474-1.986,1.474" transform="translate(-194.978 -107.256)" fill="#965450"/>
              <path id="Trazado_777983" data-name="Trazado 777983" d="M180.517,288.742s-13.889,14.671-17.019,49.491-1.174,42.254-1.174,42.254h34.429l-1-31.264,3.813.763,7.754,30.5H243.31s4.8-66.849-24.843-92.136Z" transform="translate(-76.94 -137.186)" fill="#352c38"/>
              <path id="Trazado_777984" data-name="Trazado 777984" d="M201.572,294.173c4.772,1.512,9.989,1.622,14.968,1.657,7.308.05,14.477-.931,20.7-4.262q-1.555-1.654-3.247-3.217l-37.95.391a24.468,24.468,0,0,0-1.689,2.1,37.712,37.712,0,0,0,7.218,3.331" transform="translate(-92.466 -137.186)" fill="#252028"/>
              <path id="Trazado_777985" data-name="Trazado 777985" d="M180.566,381.569c3.521,6.151,9.04,11.382,13.812,16.33,3.5,3.624,7.022,7.41,10.825,10.844l-.487-15.17.269.018a107.341,107.341,0,0,1-24.418-12.022" transform="translate(-85.906 -181.536)" fill="#252028"/>
              <path id="Trazado_777986" data-name="Trazado 777986" d="M203.582,161.225s2.69,13.106-1.375,15.319-15.733-7.869-18.865,5.5,50.564,16.575,51.878,8.282-1.487-17.472-9.929-16.767-5.43-18.824-5.43-18.824Z" transform="translate(-87.165 -73.619)" fill="#ffac9d"/>
              <path id="Trazado_777987" data-name="Trazado 777987" d="M222.619,171.361a16.107,16.107,0,0,0,7.338-4.648,22.478,22.478,0,0,0,4.846-9.277l-12.733,5.073s1.28,5.111.549,8.853" transform="translate(-105.652 -74.902)" fill="#f28b8b"/>
              <path id="Trazado_777988" data-name="Trazado 777988" d="M210.42,83.2S190.042,83.06,190,109.7s34.323,25.194,36.227,2.172S218.057,84.023,210.42,83.2" transform="translate(-90.395 -39.582)" fill="#ffac9d"/>
              <path id="Trazado_777989" data-name="Trazado 777989" d="M260.86,117.965a4.007,4.007,0,0,0-4.7,1.99,94.208,94.208,0,0,1,.869,11.69c6.618.819,8.82-12.714,3.826-13.679" transform="translate(-121.873 -56.066)" fill="#ffac9d"/>
              <path id="Trazado_777990" data-name="Trazado 777990" d="M211.493,127.027a3.548,3.548,0,0,1,.187.984,5.9,5.9,0,0,1-.024,1.013,2.814,2.814,0,0,1-.084.5l-.11.5a2.084,2.084,0,0,1-.149.486l-.187.473-.19.474c-.071.154-.169.292-.252.439-.176.288-.342.583-.527.867a3.152,3.152,0,0,1-.309.4l-.324.386c-.219.255-.446.5-.667.751l-.155-.641c.268.108.53.233.794.352s.526.245.786.373c.522.257,1.037.528,1.539.839-.584-.086-1.153-.212-1.717-.353-.282-.07-.564-.14-.841-.222s-.559-.153-.834-.244l-.508-.168.353-.473c.19-.254.374-.512.568-.761l.294-.37a2.874,2.874,0,0,0,.278-.38c.158-.27.333-.528.5-.793.081-.133.177-.26.246-.4l.209-.417a8.912,8.912,0,0,0,.405-.845l.168-.438c.048-.148.132-.29.164-.443l.127-.456a2.621,2.621,0,0,0,.116-.463c.024-.156.071-.316.091-.474s.051-.323.052-.489" transform="translate(-98.921 -60.435)" fill="#fc6a5a"/>
              <path id="Trazado_777991" data-name="Trazado 777991" d="M261.158,131.918a3.428,3.428,0,0,0,.107-.813,1.617,1.617,0,0,0-.15-.737c-.034-.048-.06-.1-.094-.142l-.117-.115-.141-.086a.792.792,0,0,0-.156-.061,1.55,1.55,0,0,0-.342-.068c-.122,0-.248,0-.37,0l-.248,0-.054-.253a21,21,0,0,1-.457-3.473,11.878,11.878,0,0,1,.067-1.792,4.612,4.612,0,0,1,.223-.928,1.786,1.786,0,0,1,.66-.915l.15-.082a.457.457,0,0,1,.064-.028l.026-.008.051-.017.205-.066a3,3,0,0,1,.528-.082,2.711,2.711,0,0,1,1.006.127,2.328,2.328,0,0,1,.861.533,2.621,2.621,0,0,1,.566.8c.067.146.1.3.156.451s.058.306.087.457a3.935,3.935,0,0,1,.014.905,5.153,5.153,0,0,1-.136.874c-.06.286-.168.561-.252.836.013-.291.042-.577.045-.862a7.382,7.382,0,0,0-.031-.845,4.841,4.841,0,0,0-.141-.809c-.044-.126-.076-.256-.127-.377s-.109-.237-.175-.345a1.938,1.938,0,0,0-.479-.553,1.861,1.861,0,0,0-.624-.317,1.9,1.9,0,0,0-.7-.042,2.366,2.366,0,0,0-.32.064l-.2.074-.051.018-.025.009c.048-.018.008,0,.017,0a.229.229,0,0,1-.038.023.984.984,0,0,0-.3.482,4.209,4.209,0,0,0-.165.75,10.947,10.947,0,0,0-.093,1.65c0,1.12.078,2.264.183,3.391l-.3-.255c.154.02.306.034.457.062a2.02,2.02,0,0,1,.453.159,1.214,1.214,0,0,1,.213.124c.066.054.13.109.19.167l.146.206c.039.072.066.15.1.225a1.7,1.7,0,0,1,.015.9,2.856,2.856,0,0,1-.306.791" transform="translate(-123.283 -58.158)" fill="#fc6a5a"/>
              <path id="Trazado_777992" data-name="Trazado 777992" d="M214.908,147.67s.193.052.531.12.816.159,1.387.238c.287.035.6.071.922.092.325.038.67.022,1.022.04.353,0,.717-.026,1.082-.056a7.559,7.559,0,0,0,1.095-.175c.181-.04.365-.069.544-.115l.522-.173a7.7,7.7,0,0,0,.995-.4,7.958,7.958,0,0,0,.889-.482,6.005,6.005,0,0,0,.76-.513c.222-.179.463-.308.628-.476l.459-.409c.261-.225.419-.351.419-.351s-.1.171-.28.468c-.094.147-.206.329-.345.532a4.717,4.717,0,0,1-.534.627,4.3,4.3,0,0,1-.713.677,5.545,5.545,0,0,1-.906.636,5.958,5.958,0,0,1-1.072.519l-.578.208c-.2.056-.4.1-.6.144a8.418,8.418,0,0,1-1.217.16,9.38,9.38,0,0,1-1.182-.022,8.06,8.06,0,0,1-1.085-.169,7.165,7.165,0,0,1-.943-.255,7.743,7.743,0,0,1-1.332-.577,4.009,4.009,0,0,1-.467-.288" transform="translate(-102.245 -68.99)" fill="#fc6a5a"/>
              <path id="Trazado_777993" data-name="Trazado 777993" d="M202.385,117.792l-.554-.193c-.349-.117-.836-.284-1.41-.446a8.952,8.952,0,0,0-3.964-.385,5.312,5.312,0,0,0-.969.279,6.457,6.457,0,0,0-.9.441,8.78,8.78,0,0,0-.815.563c-.137.088-.246.207-.37.3a4.031,4.031,0,0,0-.343.3c-.218.2-.428.383-.6.563s-.343.326-.465.461c-.256.264-.425.411-.425.411s.025-.215.108-.586a4.181,4.181,0,0,1,.192-.656,5.385,5.385,0,0,1,.346-.826,6.15,6.15,0,0,1,.568-.918,6.021,6.021,0,0,1,.843-.911,5.4,5.4,0,0,1,2.506-1.213,5.8,5.8,0,0,1,2.739.2,6.765,6.765,0,0,1,3.169,2.132,3.593,3.593,0,0,1,.347.488" transform="translate(-91.14 -54.661)" fill="#6d3535"/>
              <path id="Trazado_777994" data-name="Trazado 777994" d="M235.263,113.928l-.56-.27c-.352-.169-.847-.4-1.433-.658a11.621,11.621,0,0,0-4.2-1.12,5.792,5.792,0,0,0-1.095.066,6.082,6.082,0,0,0-1.037.266,3.931,3.931,0,0,0-.49.193,3.863,3.863,0,0,0-.467.224,9.387,9.387,0,0,0-.848.5c-.252.181-.508.331-.711.5s-.406.291-.551.419c-.3.244-.5.377-.5.377s.061-.22.208-.6a4.62,4.62,0,0,1,.312-.655,5.892,5.892,0,0,1,1.293-1.656,3.994,3.994,0,0,1,.5-.4,3.945,3.945,0,0,1,.578-.365,4.123,4.123,0,0,1,.649-.3,4.806,4.806,0,0,1,.705-.225,5.786,5.786,0,0,1,1.5-.156,6.346,6.346,0,0,1,1.464.214,7.192,7.192,0,0,1,1.306.49,8.187,8.187,0,0,1,1.965,1.362,7.941,7.941,0,0,1,1.086,1.259,4.1,4.1,0,0,1,.324.543" transform="translate(-106.273 -52.361)" fill="#6d3535"/>
              <path id="Trazado_777995" data-name="Trazado 777995" d="M237.595,127.123l-.118-.494c-.079-.311-.2-.753-.375-1.259a5.823,5.823,0,0,0-.805-1.57,2.009,2.009,0,0,0-.665-.581,1.467,1.467,0,0,0-.852-.165,2.288,2.288,0,0,0-.879.2,1.741,1.741,0,0,0-.642.549,4.463,4.463,0,0,0-.608,1.609c-.105.526-.174.982-.228,1.3s-.092.5-.092.5-.035-.183-.079-.506a8.733,8.733,0,0,1-.089-1.353,4.789,4.789,0,0,1,.092-.928,3.079,3.079,0,0,1,.377-1.03,2.238,2.238,0,0,1,.9-.868,2.792,2.792,0,0,1,1.235-.3,2.843,2.843,0,0,1,.636.052,2.238,2.238,0,0,1,.62.243,2.7,2.7,0,0,1,.863.863,4.162,4.162,0,0,1,.449.969,5.7,5.7,0,0,1,.215.9,6.991,6.991,0,0,1,.085,1.357c-.014.327-.04.511-.04.511" transform="translate(-110.453 -58.151)" fill="#252028"/>
              <path id="Trazado_777996" data-name="Trazado 777996" d="M206.93,127.883l-.114-.5c-.074-.314-.18-.761-.346-1.274a5.436,5.436,0,0,0-.767-1.587,1.8,1.8,0,0,0-.664-.565,1.523,1.523,0,0,0-.857-.142,2.542,2.542,0,0,0-.9.209,1.851,1.851,0,0,0-.663.54,4.23,4.23,0,0,0-.63,1.6c-.108.526-.177.985-.232,1.3s-.093.5-.093.5-.035-.184-.079-.507a8.46,8.46,0,0,1-.086-1.358,4.57,4.57,0,0,1,.1-.932,3.007,3.007,0,0,1,.4-1.029,2.3,2.3,0,0,1,.92-.845,2.928,2.928,0,0,1,1.218-.308,2.342,2.342,0,0,1,1.27.261,2.537,2.537,0,0,1,.884.863,3.957,3.957,0,0,1,.434.985,5.725,5.725,0,0,1,.191.909,7.652,7.652,0,0,1,.055,1.361c-.018.327-.044.512-.044.512" transform="translate(-95.865 -58.513)" fill="#252028"/>
              <path id="Trazado_777997" data-name="Trazado 777997" d="M253.133,63.32s-7.117-12.2,5.338-15,13.471,15.5,8.642,19.571c0,0,5.846-5.338,2.8-15.5,0,0,10.167,21.605-7.879,20.335s-8.9-9.4-8.9-9.4" transform="translate(-119.327 -22.853)" fill="#76413b"/>
              <path id="Trazado_777998" data-name="Trazado 777998" d="M252.329,71.738s9.659-6.354,10.421,10.167Z" transform="translate(-120.049 -33.559)" fill="#352c38"/>
              <path id="Trazado_777999" data-name="Trazado 777999" d="M228.913,81.184s0,9.4,10.93,9.659c0,0,2.8,25.164-1.779,32.789,0,0,8.388-7.371,6.354-26.688,0,0,4.575-2.034,5.846,2.034,0,0,6.609-7.88,1.525-17.538-6.727-12.781-24.91-11.692-22.876-.254" transform="translate(-108.833 -34.362)" fill="#965450"/>
              <path id="Trazado_778000" data-name="Trazado 778000" d="M256.939,82.234A17.244,17.244,0,0,0,247.43,73.9c.3,4.778-1.012,10.034-3.636,13.3a11.658,11.658,0,0,1-4.214,3.292,13.448,13.448,0,0,0,5.413,1.145s2.8,25.163-1.779,32.788c0,0,8.388-7.371,6.354-26.688,0,0,4.576-2.034,5.846,2.034,0,0,6.609-7.88,1.525-17.538" transform="translate(-113.983 -35.158)" fill="#76413b"/>
              <path id="Trazado_778001" data-name="Trazado 778001" d="M211.8,72.845s-9.659-15.5-27.2,1.779c-14.164,13.958-3.559,44.481,8.388,48.294,0,0-13.217-11.438-6.863-33.552l-6.863,5.592s14.488,1.525,19.318-13.98a15.366,15.366,0,0,1-7.145,14.367s18.583.63,20.362-22.5" transform="translate(-84.602 -31.616)" fill="#965450"/>
              <path id="Trazado_778002" data-name="Trazado 778002" d="M171.466,304.439s1.223,4.232,7.315,4.232c2.288,0,4.668-4.593,4.668-4.593s13.582,9.613.493-2.5c0,0,18.908,5.415.237-2.5,0,0,17.877,3.758.5-1.668,0,0,13.75-2.87-2.817-1.645a6.444,6.444,0,0,0-3.031,4.181l-6.92-4.944Z" transform="translate(-81.577 -140.352)" fill="#ffac9d"/>
              <path id="Trazado_778003" data-name="Trazado 778003" d="M169.294,188.659s-10.813-1.793-17.5,7.162c-6.655,8.91-24.045,25.936-21.821,32.319s13.471,21.954,23.487,28.536l5.6-9.756-12.836-21.681-4.161,6.5,23.025-22.481Z" transform="translate(-61.742 -89.687)" fill="#6f96bd"/>
              <path id="Trazado_778004" data-name="Trazado 778004" d="M180.6,203.383a24.868,24.868,0,0,0-4.018-5.814c-.976,7.3-4.535,19.247-5.383,29.328l13.592-13.329.179-.876c-1.421-3.118-2.718-6.3-4.371-9.309" transform="translate(-81.448 -93.996)" fill="#588aaf"/>
              <path id="Trazado_778005" data-name="Trazado 778005" d="M176.306,185.781s4.108-7.042,17.605-4.7c0,0,4.108.2,3.13-6.064l21.322-2.348s-.783,7.629,3.13,7.629,16.236,1.565,15.454,10.759-7.434,32.472-11.542,42.254c0,0-19.757,5.673-37.95.391,0,0-12.519-15.062-6.259-31.3Z" transform="translate(-83.88 -82.152)" fill="#6f96bd"/>
              <path id="Trazado_778006" data-name="Trazado 778006" d="M234.774,189.127c.139,6.575-4.321,38.161-38.527,45.848-2.1.472-4.306.079-6.461.066a37.571,37.571,0,0,0,4.083,6.494c18.192,5.282,37.95-.391,37.95-.391,4.108-9.781,10.759-33.06,11.542-42.254.487-5.724-4.106-8.49-8.586-9.763" transform="translate(-90.293 -89.979)" fill="#588aaf"/>
              <path id="Trazado_778007" data-name="Trazado 778007" d="M280.844,304.345s-.474,6.457-6.178,4.318a34.339,34.339,0,0,1-5.789-3.606s-12.669,10.789-.714-2.445c0,0-18.348,7.084-.46-2.466,0,0-17.469,5.34-.645-1.617,0,0-13.952-1.629,2.658-1.89,0,0,4.952,1.167,5.966,4.145l3.876-5.794Z" transform="translate(-123.577 -140.345)" fill="#ffac9d"/>
              <path id="Trazado_778008" data-name="Trazado 778008" d="M260.3,187.4s10.61-2.752,18.072,5.568c7.425,8.279,26.267,23.683,24.623,30.24s-11.455,23.07-22.7,33.16l-6.447-9.217,12.7-25.38,4.726,6.1-30.79-26.48Z" transform="translate(-123.84 -88.951)" fill="#6f96bd"/>
            </g>
          </g>
        </g>
      </g>
    </g>
  </g>
</svg>
