<svg xmlns="http://www.w3.org/2000/svg" width="361" height="241" viewBox="0 0 361 241">
  <g id="_5740239" data-name="5740239" transform="translate(0 0.351)">
    <g id="_01" data-name="01" transform="translate(0 -0.079)">
      <g id="Grupo_1048982" data-name="Grupo 1048982">
        <rect id="_01-2" data-name="01" width="361" height="241" transform="translate(0 -0.271)" fill="#fff" opacity="0"/>
        <g id="Grupo_1048981" data-name="Grupo 1048981" transform="translate(33.984 25.442)">
          <g id="Grupo_1048907" data-name="Grupo 1048907" transform="translate(244.453 139.856)">
            <path id="Trazado_782644" data-name="Trazado 782644" d="M3639,2143.063s-6.127,12.644-8.311,13.209,3.127-11.833,3.127-11.833c-4.356.139-14.638,6.829-14.638,6.829s2.451,13.511.2,13.52-1.56-12.074-1.56-12.074c-4,1.787-7.26,7.146-7.26,7.146-3.835,8.538,7.326,13.022,7.326,13.022l2.48,3.912c2.481,3.912,12.285,3.351,17.554,1.541s2.713-3.031-.522-5.133-9.256-.658-11.186-1.4.582-2.05,4.226-2.239,5.915,3.187,11.815,2.988,8.925-11.735,8.925-11.735c-3.864,1.77-11.367.481-11.824-.871s10.247-2.594,11.859-3.226,4.1-4.339,1.431-10.767-13.637-2.894-13.637-2.894Z" transform="translate(-3609.75 -2142.092)" fill="#6fbd8d"/>
            <path id="Trazado_782645" data-name="Trazado 782645" d="M3697.576,2251.97a22.329,22.329,0,0,1-1.466,10.49l.269,2.082s2.139-7.472,3.679-8.659c0,0-7.706-8.317,27.411-28.093C3727.469,2227.79,3699.545,2240.992,3697.576,2251.97Z" transform="translate(-3689.449 -2221.18)" fill="#99b1da"/>
          </g>
          <path id="Trazado_782646" data-name="Trazado 782646" d="M760.9,464.674c-27.566.784-49.072,35.421-79.7,15.5-63.714-41.453-101.834-7.01-116.224,12.176-25.36,33.813-7.212,114.967,37.2,122.617,18.06,3.111,172.971,2.366,180.006-.138,48.772-17.354,59.695-54.578,36.269-108.828-7.01-16.234-31.322-42.071-57.559-41.324Z" transform="translate(-544.724 -450.467)" fill="#f5f5f7"/>
          <g id="Grupo_1048908" data-name="Grupo 1048908" transform="translate(18.818 156.161)">
            <path id="Trazado_782647" data-name="Trazado 782647" d="M712.125,2353.48l-27.575,25.883H930.86l-27.576-25.883Z" transform="translate(-684.55 -2353.48)" fill="#f0c36a"/>
            <rect id="Rectángulo_359719" data-name="Rectángulo 359719" width="246.31" height="5.474" transform="translate(0 25.883)" fill="#edb248"/>
          </g>
          <g id="Grupo_1048933" data-name="Grupo 1048933" transform="translate(136.742 7.727)">
            <g id="Grupo_1048909" data-name="Grupo 1048909" transform="translate(0 15.821)">
              <rect id="Rectángulo_359720" data-name="Rectángulo 359720" width="101.244" height="138.453" rx="50.622" fill="#d1dbed"/>
              <path id="Trazado_782648" data-name="Trazado 782648" d="M2277.878,682.67H2353.3a8.6,8.6,0,0,1,8.6,8.6V804.974a8.6,8.6,0,0,1-8.6,8.6h-75.421a8.6,8.6,0,0,1-8.6-8.6V691.268a8.6,8.6,0,0,1,8.6-8.6Z" transform="translate(-2264.966 -678.934)" fill="#fff"/>
            </g>
            <g id="Grupo_1048912" data-name="Grupo 1048912" transform="translate(39.931)">
              <path id="Trazado_782649" data-name="Trazado 782649" d="M2753.366,589.55h-20.19c-.258,0-.466.457-.466,1.02v9.33h5.9a1.32,1.32,0,0,1,1.191.752l.507,1.064c.076.159.326.448.5.448h4.914c.176,0,.426-.289.5-.448l.507-1.064a1.319,1.319,0,0,1,1.191-.752h5.9v-9.33c0-.564-.209-1.02-.466-1.02Z" transform="translate(-2732.58 -577.176)" fill="#7a8db0"/>
              <g id="Grupo_1048910" data-name="Grupo 1048910" transform="translate(0.129 21.679)" opacity="0.15">
                <path id="Trazado_782650" data-name="Trazado 782650" d="M2737.225,710.19H2732.7v1.044h5.236l-.244-.675A.516.516,0,0,0,2737.225,710.19Z" transform="translate(-2732.7 -710.19)" fill="#010101"/>
                <path id="Trazado_782651" data-name="Trazado 782651" d="M2938.914,710.559l-.244.675h5.236V710.19h-4.525A.516.516,0,0,0,2938.914,710.559Z" transform="translate(-2922.783 -710.19)" fill="#010101"/>
                <path id="Trazado_782652" data-name="Trazado 782652" d="M2842.192,725.11l-.44-1.2a.706.706,0,0,0-.627-.513h-1.779a.7.7,0,0,0-.626.513l-.44,1.2c-.076.206-.326.581-.5.581h4.914c-.176,0-.426-.375-.5-.581Z" transform="translate(-2829.675 -722.381)" fill="#010101"/>
              </g>
              <path id="Trazado_782653" data-name="Trazado 782653" d="M2786.754,445.438a54.454,54.454,0,0,1-1.3-8.729c0-.627.742-1.528,1.4-2.323a4.467,4.467,0,0,0,1.324-2.286c0-1.374-2.2-2.97-5.026-2.97s-5.026,1.6-5.026,2.97a4.464,4.464,0,0,0,1.324,2.286c.654.8,1.4,1.7,1.4,2.323a54.554,54.554,0,0,1-1.3,8.729c-1.086,4.938-1.962,6.41-2.263,6.5h-1.36v.835h1.36c.4,0,1.481,0,3.031-6.941a55.642,55.642,0,0,0,1.365-9.118c0-.926-.806-1.906-1.586-2.853-.532-.646-1.133-1.378-1.133-1.756,0-.84,1.8-2.136,4.192-2.136s4.191,1.3,4.191,2.136c0,.378-.6,1.11-1.133,1.756-.78.947-1.586,1.928-1.586,2.853a55.587,55.587,0,0,0,1.366,9.118c1.549,6.941,2.626,6.941,3.03,6.941h1.36v-.835l-1.348,0c-.312-.088-1.188-1.56-2.274-6.5Z" transform="translate(-2772.458 -429.13)" fill="#d1dbed"/>
              <g id="Grupo_1048911" data-name="Grupo 1048911" transform="translate(0 22.245)">
                <path id="Trazado_782654" data-name="Trazado 782654" d="M2736.151,717.846a.51.51,0,0,0-.468-.306h-4.525c-.112,0-.128.614-.128,1.371s.017,1.371.128,1.371h4.758a.508.508,0,0,0,.41-.207l.36-.487a.41.41,0,0,0,.046-.406l-.582-1.336Z" transform="translate(-2731.03 -717.538)" fill="#7a8db0"/>
                <path id="Trazado_782655" data-name="Trazado 782655" d="M2939.436,717.521h-4.525a.51.51,0,0,0-.467.306l-.583,1.336a.407.407,0,0,0,.046.406l.36.487a.51.51,0,0,0,.41.207h4.758c.112,0,.129-.614.129-1.371s-.017-1.371-.129-1.371Z" transform="translate(-2918.184 -717.52)" fill="#7a8db0"/>
                <path id="Trazado_782656" data-name="Trazado 782656" d="M2842.192,731.509l-.44-.923a.7.7,0,0,0-.627-.4h-1.779a.694.694,0,0,0-.626.4l-.44.923c-.076.159-.326.448-.5.448h4.914c-.176,0-.426-.289-.5-.448Z" transform="translate(-2829.546 -729.213)" fill="#7a8db0"/>
              </g>
            </g>
            <g id="Grupo_1048913" data-name="Grupo 1048913" transform="translate(15.064 122.831)">
              <rect id="Rectángulo_359721" data-name="Rectángulo 359721" width="11.458" height="1.16" fill="#d1dbed"/>
              <rect id="Rectángulo_359722" data-name="Rectángulo 359722" width="11.458" height="1.16" transform="translate(14.113)" fill="#d1dbed"/>
              <rect id="Rectángulo_359723" data-name="Rectángulo 359723" width="15.892" height="1.16" transform="translate(0 2.574)" fill="#d1dbed"/>
            </g>
            <g id="Grupo_1048915" data-name="Grupo 1048915" transform="translate(20.792 34.355)">
              <rect id="Rectángulo_359724" data-name="Rectángulo 359724" width="47.656" height="0.615" transform="translate(0.1 11.746)" fill="#99b1da"/>
              <g id="Grupo_1048914" data-name="Grupo 1048914">
                <path id="Trazado_782657" data-name="Trazado 782657" d="M2488.246,874.777a4.24,4.24,0,0,0-1.464-.257,4.331,4.331,0,0,0-1.491.268,3.3,3.3,0,0,0-1.622,1.2,4.606,4.606,0,0,0-.759,2.763,4.7,4.7,0,0,0,.77,2.8,3.44,3.44,0,0,0,1.622,1.2,4.289,4.289,0,0,0,1.48.257,4.1,4.1,0,0,0,1.463-.268,3.413,3.413,0,0,0,1.622-1.207,5.45,5.45,0,0,0,0-5.549,3.383,3.383,0,0,0-1.622-1.2ZM2488.2,881a1.948,1.948,0,0,1-1.42.562,2.01,2.01,0,0,1-1.447-.562,3.041,3.041,0,0,1-.748-2.255,2.975,2.975,0,0,1,.759-2.239,2,2,0,0,1,1.436-.557,1.954,1.954,0,0,1,1.42.557,2.993,2.993,0,0,1,.748,2.239A3.045,3.045,0,0,1,2488.2,881Z" transform="translate(-2482.91 -874.52)" fill="#99b1da"/>
                <path id="Trazado_782658" data-name="Trazado 782658" d="M2603.784,884.8q-.03-.325-.03-1.155a2.984,2.984,0,0,0-.268-1.475,1.638,1.638,0,0,0-.759-.562,1.69,1.69,0,0,0,.92-.718,2.2,2.2,0,0,0,.33-1.2,2.246,2.246,0,0,0-.47-1.4,2.435,2.435,0,0,0-2.058-.858h-4.069v8.028h1.655V882.3h1.72q.885,0,1.131.349a2.318,2.318,0,0,1,.191,1.174,7.857,7.857,0,0,0,.046.975,4.8,4.8,0,0,0,.133.658h1.857v-.224a.473.473,0,0,1-.33-.434Zm-1.8-4.1a1.525,1.525,0,0,1-.98.259h-1.972v-2.152h2.081a1.167,1.167,0,0,1,.961.371,1.22,1.22,0,0,1-.09,1.521Z" transform="translate(-2588.55 -877.206)" fill="#99b1da"/>
                <path id="Trazado_782659" data-name="Trazado 782659" d="M2710.255,877.42H2706.7v8.028h3.49a2.9,2.9,0,0,0,2.66-1.463,5.236,5.236,0,0,0,.672-2.741,4.643,4.643,0,0,0-.612-2.484,2.907,2.907,0,0,0-2.654-1.338Zm1.152,5.789a1.525,1.525,0,0,1-1.42.852h-1.633V878.8h1.611a1.681,1.681,0,0,1,1.185.393,2.881,2.881,0,0,1,.65,2.157A3.8,3.8,0,0,1,2711.407,883.209Z" transform="translate(-2689.438 -877.196)" fill="#99b1da"/>
                <path id="Trazado_782660" data-name="Trazado 782660" d="M2817.675,881.936h3.916v-1.408h-3.916v-1.7h4.249V877.42h-5.9v8.028h6.105v-1.431h-4.451Z" transform="translate(-2790.326 -877.196)" fill="#99b1da"/>
                <path id="Trazado_782661" data-name="Trazado 782661" d="M2923.583,884.8q-.03-.325-.03-1.155a2.984,2.984,0,0,0-.268-1.475,1.639,1.639,0,0,0-.759-.562,1.689,1.689,0,0,0,.92-.718,2.2,2.2,0,0,0,.33-1.2,2.246,2.246,0,0,0-.47-1.4,2.436,2.436,0,0,0-2.059-.858h-4.069v8.028h1.655V882.3h1.72q.885,0,1.131.349a2.318,2.318,0,0,1,.191,1.174,7.762,7.762,0,0,0,.046.975,4.839,4.839,0,0,0,.133.658h1.857v-.224a.472.472,0,0,1-.33-.434Zm-1.8-4.1a1.525,1.525,0,0,1-.98.259h-1.971v-2.152h2.08a1.167,1.167,0,0,1,.961.371,1.219,1.219,0,0,1-.09,1.521Z" transform="translate(-2883.683 -877.206)" fill="#99b1da"/>
                <path id="Trazado_782662" data-name="Trazado 782662" d="M3027.234,878.832a3.679,3.679,0,0,0-1.469-.639l-1.966-.47a1.668,1.668,0,0,1-.562-.224.725.725,0,0,1-.289-.622.825.825,0,0,1,.459-.754,1.975,1.975,0,0,1,.95-.207,1.706,1.706,0,0,1,1.355.47,1.328,1.328,0,0,1,.278.737h1.612a2.4,2.4,0,0,0-.65-1.665,3.869,3.869,0,0,0-5-.028,2.3,2.3,0,0,0-.573,1.578,1.961,1.961,0,0,0,.8,1.736,5.546,5.546,0,0,0,1.753.612l.874.2a4.163,4.163,0,0,1,1.054.349.728.728,0,0,1,.4.656.868.868,0,0,1-.546.841,2.7,2.7,0,0,1-1.131.191,1.823,1.823,0,0,1-1.409-.481,1.193,1.193,0,0,1-.289-.819h-1.611a2.516,2.516,0,0,0,.617,1.736,4.344,4.344,0,0,0,5.177.224,2.328,2.328,0,0,0,.8-1.89,1.9,1.9,0,0,0-.633-1.534Z" transform="translate(-2979.744 -874.529)" fill="#99b1da"/>
              </g>
            </g>
            <g id="Grupo_1048920" data-name="Grupo 1048920" transform="translate(10.438 48.578)">
              <g id="Grupo_1048916" data-name="Grupo 1048916" transform="translate(55.689)">
                <path id="Trazado_782663" data-name="Trazado 782663" d="M3070.64,1112.891h16.75V1096.14h-16.75Zm.789-15.962H3086.6V1112.1h-15.173Z" transform="translate(-3070.64 -1093.268)" fill="#ebebeb"/>
                <path id="Trazado_782664" data-name="Trazado 782664" d="M3117.5,1059.076a1.184,1.184,0,0,0-1.622.411l-7.416,12.447-4.1-4.959a1.183,1.183,0,1,0-1.824,1.508l5.169,6.253a1.184,1.184,0,0,0,.912.43.881.881,0,0,0,.091,0,1.183,1.183,0,0,0,.926-.574l8.275-13.889a1.183,1.183,0,0,0-.411-1.622Z" transform="translate(-3099.823 -1058.909)" fill="#99b1da"/>
              </g>
              <g id="Grupo_1048919" data-name="Grupo 1048919" transform="translate(0 5.153)">
                <g id="Grupo_1048917" data-name="Grupo 1048917" transform="translate(10.338 0.191)">
                  <rect id="Rectángulo_359725" data-name="Rectángulo 359725" width="37.212" height="1.634" fill="#d1dbed"/>
                  <rect id="Rectángulo_359726" data-name="Rectángulo 359726" width="34.294" height="1.634" transform="translate(0 7.3)" fill="#d1dbed"/>
                  <rect id="Rectángulo_359727" data-name="Rectángulo 359727" width="24.257" height="1.634" transform="translate(0 3.65)" fill="#d1dbed"/>
                </g>
                <g id="Grupo_1048918" data-name="Grupo 1048918">
                  <path id="Trazado_782665" data-name="Trazado 782665" d="M2348.67,1126.513l.343,1.321,1.665-.463v7.663h1.612v-9.315h-1.137Z" transform="translate(-2348.67 -1125.72)" fill="#d1dbed"/>
                  <path id="Trazado_782666" data-name="Trazado 782666" d="M2409.989,1231.23a.589.589,0,1,0,.589.589A.589.589,0,0,0,2409.989,1231.23Z" transform="translate(-2404.716 -1223.091)" fill="#d1dbed"/>
                </g>
              </g>
            </g>
            <g id="Grupo_1048926" data-name="Grupo 1048926" transform="translate(10.368 73.6)">
              <g id="Grupo_1048921" data-name="Grupo 1048921" transform="translate(55.889)">
                <path id="Trazado_782667" data-name="Trazado 782667" d="M3072.32,1437.291h16.75V1420.54h-16.75Zm.789-15.962h15.173V1436.5h-15.173Z" transform="translate(-3072.32 -1417.668)" fill="#ebebeb"/>
                <path id="Trazado_782668" data-name="Trazado 782668" d="M3119.176,1383.476a1.183,1.183,0,0,0-1.622.411l-7.416,12.446-4.1-4.959a1.183,1.183,0,1,0-1.824,1.508l5.169,6.253a1.184,1.184,0,0,0,.912.43c.03,0,.06,0,.091,0a1.184,1.184,0,0,0,.926-.574l8.275-13.889a1.183,1.183,0,0,0-.411-1.622Z" transform="translate(-3101.503 -1383.309)" fill="#99b1da"/>
              </g>
              <g id="Grupo_1048925" data-name="Grupo 1048925" transform="translate(0 5.153)">
                <g id="Grupo_1048922" data-name="Grupo 1048922">
                  <path id="Trazado_782669" data-name="Trazado 782669" d="M2351.918,1456.434c1.614-1.338,2.388-2.113,2.388-3.556a2.755,2.755,0,0,0-3.031-2.768,3.764,3.764,0,0,0-3.385,1.928l1.142.892c.709-.918,1.286-1.378,2.126-1.378a1.377,1.377,0,0,1,1.482,1.43c0,.827-.459,1.417-1.719,2.48l-3.162,2.69v1.273h6.639v-1.417h-4.369l1.889-1.574Z" transform="translate(-2347.76 -1450.11)" fill="#d1dbed"/>
                  <path id="Trazado_782670" data-name="Trazado 782670" d="M2448.554,1555.74a.584.584,0,1,0,.584.584A.584.584,0,0,0,2448.554,1555.74Z" transform="translate(-2440.24 -1547.592)" fill="#d1dbed"/>
                </g>
                <g id="Grupo_1048924" data-name="Grupo 1048924" transform="translate(10.716 0.191)">
                  <rect id="Rectángulo_359728" data-name="Rectángulo 359728" width="39.103" height="1.634" fill="#d1dbed"/>
                  <g id="Grupo_1048923" data-name="Grupo 1048923" transform="translate(0 3.65)">
                    <rect id="Rectángulo_359729" data-name="Rectángulo 359729" width="10.659" height="1.634" transform="translate(28.444)" fill="#d1dbed"/>
                    <rect id="Rectángulo_359730" data-name="Rectángulo 359730" width="25.49" height="1.634" fill="#d1dbed"/>
                  </g>
                </g>
              </g>
            </g>
            <g id="Grupo_1048930" data-name="Grupo 1048930" transform="translate(10.25 98.807)">
              <g id="Grupo_1048927" data-name="Grupo 1048927" transform="translate(56.006)">
                <path id="Trazado_782671" data-name="Trazado 782671" d="M3072.32,1764.081h16.75V1747.33h-16.75Zm.789-15.962h15.173v15.172h-15.173Z" transform="translate(-3072.32 -1744.458)" fill="#ebebeb"/>
                <path id="Trazado_782672" data-name="Trazado 782672" d="M3119.176,1710.266a1.183,1.183,0,0,0-1.622.411l-7.416,12.446-4.1-4.959a1.183,1.183,0,1,0-1.824,1.508l5.169,6.253a1.184,1.184,0,0,0,.912.43c.03,0,.06,0,.091,0a1.184,1.184,0,0,0,.926-.574l8.275-13.889a1.183,1.183,0,0,0-.411-1.622Z" transform="translate(-3101.503 -1710.099)" fill="#99b1da"/>
              </g>
              <g id="Grupo_1048928" data-name="Grupo 1048928" transform="translate(10.834 5.345)">
                <rect id="Rectángulo_359731" data-name="Rectángulo 359731" width="39.103" height="1.634" fill="#d1dbed"/>
                <rect id="Rectángulo_359732" data-name="Rectángulo 359732" width="25.49" height="1.634" transform="translate(0 3.649)" fill="#d1dbed"/>
              </g>
              <g id="Grupo_1048929" data-name="Grupo 1048929" transform="translate(0 5.241)">
                <path id="Trazado_782673" data-name="Trazado 782673" d="M2350.181,1781.8l2.5-2.568v-1.181h-5.944v1.374h3.89L2348.2,1782l.257.989h.732c1.258,0,2.067.5,2.067,1.387a1.389,1.389,0,0,1-1.553,1.387,2.933,2.933,0,0,1-2.363-1.181l-1.1,1.027a4.261,4.261,0,0,0,3.441,1.579,2.876,2.876,0,0,0,3.146-2.837c0-1.656-1.22-2.349-2.645-2.555Z" transform="translate(-2346.24 -1778.05)" fill="#d1dbed"/>
                <path id="Trazado_782674" data-name="Trazado 782674" d="M2438.062,1881.73a.572.572,0,1,0,.572.572A.572.572,0,0,0,2438.062,1881.73Z" transform="translate(-2430.452 -1873.733)" fill="#d1dbed"/>
              </g>
            </g>
            <g id="Grupo_1048932" data-name="Grupo 1048932" transform="translate(47.34 118.43)">
              <path id="Trazado_782675" data-name="Trazado 782675" d="M2881.193,2106.477a.487.487,0,0,0-.578.374,6.133,6.133,0,0,1-12-.058.486.486,0,1,0-.953.194,7.106,7.106,0,0,0,13.906.067.486.486,0,0,0-.373-.578Z" transform="translate(-2864.521 -2095.457)" fill="#d1dbed"/>
              <path id="Trazado_782676" data-name="Trazado 782676" d="M2874.458,2003.32a7.111,7.111,0,0,0-6.974,5.747.487.487,0,1,0,.956.185,6.137,6.137,0,0,1,6.02-4.958,6.024,6.024,0,0,1,5.947,4.633.487.487,0,0,0,.944-.237,7.093,7.093,0,0,0-6.891-5.369Z" transform="translate(-2864.359 -2000.325)" fill="#d1dbed"/>
              <path id="Trazado_782677" data-name="Trazado 782677" d="M2837.179,1964.49a10.1,10.1,0,1,0,10.1,10.1A10.111,10.111,0,0,0,2837.179,1964.49Zm0,18.816a8.716,8.716,0,1,1,8.716-8.716A8.726,8.726,0,0,1,2837.179,1983.306Z" transform="translate(-2827.08 -1964.49)" fill="#d1dbed"/>
              <g id="Grupo_1048931" data-name="Grupo 1048931" transform="translate(7.156 8.834)">
                <rect id="Rectángulo_359733" data-name="Rectángulo 359733" width="4" height="0.64" transform="translate(0.943)" fill="#d1dbed"/>
                <rect id="Rectángulo_359734" data-name="Rectángulo 359734" width="4" height="0.64" transform="translate(0.943 2.62)" fill="#d1dbed"/>
                <rect id="Rectángulo_359735" data-name="Rectángulo 359735" width="5.888" height="0.64" transform="translate(0 1.266)" fill="#d1dbed"/>
              </g>
            </g>
          </g>
          <g id="Grupo_1048934" data-name="Grupo 1048934" transform="translate(236.912 118.116)">
            <path id="Trazado_782678" data-name="Trazado 782678" d="M3532.553,1891.164c2.733-2.063,6.272-.635,10.753-3.892s.763-13.813.763-13.813c-2.072,3.407-8.58,6.352-9.646,5.542s6.6-7.406,7.518-8.744.9-5.526-4.552-9.12-12.12,4.923-12.12,4.923,1.89,13.048.489,14.636-3.793-10.84-3.793-10.84c-3.311,2.4-7.783,13.006-7.783,13.006s9.011,9.21,7.263,10.4-7.563-8.562-7.563-8.562c-2.17,3.493-1.883,9.372-1.883,9.372,1.51,8.652,12.542,6.266,12.542,6.266l3.986,1.736c3.985,1.736,11.309-3.857,14.452-8.035s.514-3.782-3.105-3.714-7.54,4.357-9.427,4.8S3529.821,1893.227,3532.553,1891.164Z" transform="translate(-3511.988 -1860.252)" fill="#56b87c"/>
            <path id="Trazado_782679" data-name="Trazado 782679" d="M3665.553,1967.072a20.948,20.948,0,0,1,4.377,8.923l1.3,1.476s-2.268-6.931-1.7-8.664c0,0-10.362-2.41,6.525-36.248,0,0-14.755,24.947-10.51,34.512Z" transform="translate(-3652.999 -1926.982)" fill="#99b1da"/>
          </g>
          <g id="Grupo_1048937" data-name="Grupo 1048937" transform="translate(20.903 18.779)">
            <g id="Grupo_1048935" data-name="Grupo 1048935" transform="translate(72.585)">
              <path id="Trazado_782680" data-name="Trazado 782680" d="M1725.622,587.432a.485.485,0,0,0,.841.255l13.7-15.267-15.373,9.212.832,5.8Z" transform="translate(-1719.222 -572.419)" fill="#c8674d"/>
              <path id="Trazado_782681" data-name="Trazado 782681" d="M1658.168,581.622l15.374-9.212-20.941,5.477Z" transform="translate(-1652.6 -572.41)" fill="#f19a6d"/>
              <path id="Trazado_782682" data-name="Trazado 782682" d="M1775.486,588.517l5.348-16.107-11.974,11.64Z" transform="translate(-1759.892 -572.41)" fill="#f19a6d"/>
            </g>
            <g id="Grupo_1048936" data-name="Grupo 1048936" transform="translate(0 16.126)">
              <path id="Trazado_782683" data-name="Trazado 782683" d="M1739.481,782.04l.163.052c.06-.191.12-.382.178-.572l-.163-.05q-.087.285-.178.57Z" transform="translate(-1660.193 -781.47)" fill="#c8674d"/>
              <path id="Trazado_782684" data-name="Trazado 782684" d="M1131.08,1106.27l1.195.134.019-.17-1.2-.134Z" transform="translate(-1098.722 -1081.06)" fill="#c8674d"/>
              <path id="Trazado_782685" data-name="Trazado 782685" d="M1387.854,1038.086l.17.018a3.413,3.413,0,0,0-.078-1.224l-.166.043a3.226,3.226,0,0,1,.073,1.162Z" transform="translate(-1335.621 -1017.179)" fill="#c8674d"/>
              <path id="Trazado_782686" data-name="Trazado 782686" d="M1376.841,1019.152l.154-.074a2.415,2.415,0,0,0-.788-.948l-.1.141A2.248,2.248,0,0,1,1376.841,1019.152Z" transform="translate(-1324.852 -999.875)" fill="#c8674d"/>
              <path id="Trazado_782687" data-name="Trazado 782687" d="M1356.273,1014.152l.052-.163a1.942,1.942,0,0,0-1.235.025l.056.161A1.763,1.763,0,0,1,1356.273,1014.152Z" transform="translate(-1305.453 -995.972)" fill="#c8674d"/>
              <path id="Trazado_782688" data-name="Trazado 782688" d="M1064.56,1100.531c.384.019.788.044,1.2.073l.012-.17c-.412-.029-.817-.054-1.2-.073l-.008.17Z" transform="translate(-1037.333 -1075.763)" fill="#c8674d"/>
              <path id="Trazado_782689" data-name="Trazado 782689" d="M1108.93,1103.95q.6.059,1.2.123l.019-.17q-.6-.065-1.2-.123l-.017.17Z" transform="translate(-1078.281 -1078.919)" fill="#c8674d"/>
              <path id="Trazado_782690" data-name="Trazado 782690" d="M1086.76,1101.971c.383.03.775.063,1.2.1l.016-.17c-.423-.04-.815-.073-1.2-.1l-.013.171Z" transform="translate(-1057.821 -1077.091)" fill="#c8674d"/>
              <path id="Trazado_782691" data-name="Trazado 782691" d="M1153.21,1108.77l1.195.136.019-.17-1.195-.136Z" transform="translate(-1119.145 -1083.367)" fill="#c8674d"/>
              <path id="Trazado_782692" data-name="Trazado 782692" d="M1219.7,1115.67c.412.034.816.064,1.2.089l.012-.17c-.383-.025-.786-.056-1.2-.089Z" transform="translate(-1180.506 -1089.735)" fill="#c8674d"/>
              <path id="Trazado_782693" data-name="Trazado 782693" d="M1335.527,1038.223a2.7,2.7,0,0,1-.014-1.156l-.167-.038a2.862,2.862,0,0,0,.014,1.229l.167-.036Z" transform="translate(-1287.177 -1017.318)" fill="#c8674d"/>
              <path id="Trazado_782694" data-name="Trazado 782694" d="M1264.215,1118.01l0,.171c.4.01.805.018,1.206.01l0-.171C1265.015,1118.029,1264.613,1118.02,1264.215,1118.01Z" transform="translate(-1221.583 -1092.051)" fill="#c8674d"/>
              <path id="Trazado_782695" data-name="Trazado 782695" d="M1241.921,1117.24c.41.024.815.043,1.2.057l.006-.171c-.386-.014-.79-.033-1.2-.056l-.01.17Z" transform="translate(-1201.012 -1091.184)" fill="#c8674d"/>
              <path id="Trazado_782696" data-name="Trazado 782696" d="M1042.34,1099.82c.387.005.791.016,1.2.032l.007-.17c-.41-.016-.815-.027-1.2-.032l0,.171Z" transform="translate(-1016.827 -1075.107)" fill="#c8674d"/>
              <path id="Trazado_782697" data-name="Trazado 782697" d="M1197.5,1113.62q.6.06,1.2.113l.016-.17q-.6-.053-1.2-.113Z" transform="translate(-1160.019 -1087.843)" fill="#c8674d"/>
              <path id="Trazado_782698" data-name="Trazado 782698" d="M1175.34,1111.28q.6.066,1.2.129l.018-.17q-.6-.063-1.195-.129Z" transform="translate(-1139.568 -1085.683)" fill="#c8674d"/>
              <path id="Trazado_782699" data-name="Trazado 782699" d="M834.95,1158.453l.11.131c.339-.283.62-.508.936-.748l-.1-.136C835.574,1157.941,835.292,1158.168,834.95,1158.453Z" transform="translate(-825.434 -1128.68)" fill="#c8674d"/>
              <path id="Trazado_782700" data-name="Trazado 782700" d="M801.341,1187.24l.111.13c.319-.274.635-.552.906-.792l-.113-.128c-.271.239-.587.518-.9.791Z" transform="translate(-794.416 -1155.212)" fill="#c8674d"/>
              <path id="Trazado_782701" data-name="Trazado 782701" d="M784.17,1201.774l.1.136c.294-.227.6-.475.939-.758l-.11-.131C784.768,1201.3,784.463,1201.549,784.17,1201.774Z" transform="translate(-778.571 -1168.658)" fill="#c8674d"/>
              <path id="Trazado_782702" data-name="Trazado 782702" d="M818.08,1172.581l.113.128c.288-.255.6-.527.9-.789l-.111-.13C818.679,1172.053,818.369,1172.325,818.08,1172.581Z" transform="translate(-809.865 -1141.683)" fill="#c8674d"/>
              <path id="Trazado_782703" data-name="Trazado 782703" d="M725.72,1236.846l.038.167a8.9,8.9,0,0,0,1.16-.353l-.061-.16a8.754,8.754,0,0,1-1.137.346Z" transform="translate(-724.629 -1201.401)" fill="#c8674d"/>
              <path id="Trazado_782704" data-name="Trazado 782704" d="M766.04,1215.465l.091.145c.326-.2.653-.427,1-.682l-.1-.138C766.686,1215.042,766.362,1215.262,766.04,1215.465Z" transform="translate(-761.839 -1181.366)" fill="#c8674d"/>
              <path id="Trazado_782705" data-name="Trazado 782705" d="M1286.45,1116.71l.008.171.11-.005c.371-.02.74-.052,1.094-.1l-.021-.17C1287.256,1116.657,1286.85,1116.691,1286.45,1116.71Z" transform="translate(-1242.108 -1090.759)" fill="#c8674d"/>
              <path id="Trazado_782706" data-name="Trazado 782706" d="M746.58,1227.511l.069.157a11.477,11.477,0,0,0,1.079-.55l-.086-.148A11.216,11.216,0,0,1,746.58,1227.511Z" transform="translate(-743.88 -1192.606)" fill="#c8674d"/>
              <path id="Trazado_782707" data-name="Trazado 782707" d="M932.08,1109.856l.051.163c.377-.117.765-.226,1.151-.323l-.042-.166C932.851,1109.628,932.46,1109.738,932.08,1109.856Z" transform="translate(-915.072 -1084.225)" fill="#c8674d"/>
              <path id="Trazado_782708" data-name="Trazado 782708" d="M852.56,1145.57l.1.139c.325-.234.657-.462.988-.676l-.093-.144c-.334.215-.669.444-1,.681Z" transform="translate(-841.685 -1116.858)" fill="#c8674d"/>
              <path id="Trazado_782709" data-name="Trazado 782709" d="M997.751,1100.2l.015.17c.39-.034.8-.062,1.2-.081l-.009-.171c-.4.019-.811.046-1.2.082Z" transform="translate(-975.677 -1075.541)" fill="#c8674d"/>
              <path id="Trazado_782710" data-name="Trazado 782710" d="M953.65,1105.137l.038.167c.383-.087.778-.166,1.174-.235l-.029-.168C954.434,1104.969,954.036,1105.049,953.65,1105.137Z" transform="translate(-934.978 -1079.952)" fill="#c8674d"/>
              <path id="Trazado_782711" data-name="Trazado 782711" d="M975.59,1101.974l.025.169c.386-.059.786-.11,1.188-.154l-.018-.17c-.4.043-.807.095-1.2.154Z" transform="translate(-955.226 -1077.11)" fill="#c8674d"/>
              <path id="Trazado_782712" data-name="Trazado 782712" d="M871.16,1134.149l.089.146c.341-.208.69-.408,1.039-.595l-.081-.15C871.856,1133.738,871.5,1133.94,871.16,1134.149Z" transform="translate(-858.851 -1106.392)" fill="#c8674d"/>
              <path id="Trazado_782713" data-name="Trazado 782713" d="M1020.055,1099.781c.388-.013.791-.019,1.2-.019v-.171c-.409,0-.815.006-1.2.019Z" transform="translate(-996.256 -1075.052)" fill="#c8674d"/>
              <path id="Trazado_782714" data-name="Trazado 782714" d="M890.68,1124.351l.077.153c.356-.179.72-.349,1.084-.507l-.068-.157c-.367.159-.734.331-1.093.511Z" transform="translate(-876.865 -1097.431)" fill="#c8674d"/>
              <path id="Trazado_782715" data-name="Trazado 782715" d="M911.04,1116.239l.064.159c.367-.148.744-.288,1.122-.416l-.055-.162c-.381.129-.762.269-1.132.419Z" transform="translate(-895.655 -1090.03)" fill="#c8674d"/>
              <path id="Trazado_782716" data-name="Trazado 782716" d="M1639.28,974.592l.134.106c.248-.31.5-.632.736-.956l-.137-.1C1639.772,973.963,1639.526,974.283,1639.28,974.592Z" transform="translate(-1567.722 -958.817)" fill="#c8674d"/>
              <path id="Trazado_782717" data-name="Trazado 782717" d="M1624.94,992.082l.127.113c.264-.3.528-.6.786-.916l-.132-.109C1625.465,991.481,1625.2,991.787,1624.94,992.082Z" transform="translate(-1554.488 -974.995)" fill="#c8674d"/>
              <path id="Trazado_782718" data-name="Trazado 782718" d="M1652.71,956.437l.139.1c.231-.322.463-.655.688-.991l-.142-.1c-.224.334-.455.666-.685.987Z" transform="translate(-1580.116 -942.03)" fill="#c8674d"/>
              <path id="Trazado_782719" data-name="Trazado 782719" d="M1593.4,1024.619l.113.129c.3-.261.6-.535.891-.815l-.118-.123c-.29.278-.588.551-.885.81Z" transform="translate(-1525.381 -1005.117)" fill="#c8674d"/>
              <path id="Trazado_782720" data-name="Trazado 782720" d="M1557.99,1052.934l.093.143c.335-.215.67-.444,1-.679l-.1-.139C1558.656,1052.494,1558.323,1052.72,1557.99,1052.934Z" transform="translate(-1492.702 -1031.373)" fill="#c8674d"/>
              <path id="Trazado_782721" data-name="Trazado 782721" d="M1665.28,937.745l.144.093c.218-.333.433-.676.643-1.02l-.146-.089c-.208.342-.424.683-.64,1.016Z" transform="translate(-1591.717 -924.754)" fill="#c8674d"/>
              <path id="Trazado_782722" data-name="Trazado 782722" d="M1609.65,1008.8l.12.121c.281-.279.562-.572.838-.869l-.126-.116c-.273.3-.554.587-.832.865Z" transform="translate(-1540.378 -990.471)" fill="#c8674d"/>
              <path id="Trazado_782723" data-name="Trazado 782723" d="M1576.18,1039.386l.1.137c.317-.24.635-.492.944-.751l-.109-.131C1576.81,1038.9,1576.5,1039.148,1576.18,1039.386Z" transform="translate(-1509.489 -1018.803)" fill="#c8674d"/>
              <path id="Trazado_782724" data-name="Trazado 782724" d="M1724.84,817.377l.16.061c.141-.37.281-.751.418-1.13l-.161-.058c-.136.378-.275.757-.417,1.126Z" transform="translate(-1646.682 -813.567)" fill="#c8674d"/>
              <path id="Trazado_782725" data-name="Trazado 782725" d="M1732.461,796.339l.161.056c.131-.377.261-.761.385-1.142l-.163-.053c-.124.38-.253.762-.384,1.138Z" transform="translate(-1653.715 -794.141)" fill="#c8674d"/>
              <path id="Trazado_782726" data-name="Trazado 782726" d="M1677.02,918.541l.147.087c.2-.341.4-.693.6-1.045l-.15-.083c-.2.351-.4.7-.6,1.041Z" transform="translate(-1602.551 -907.007)" fill="#c8674d"/>
              <path id="Trazado_782727" data-name="Trazado 782727" d="M1716.6,838.194l.157.066c.153-.367.3-.743.451-1.117l-.159-.062C1716.9,837.453,1716.753,837.827,1716.6,838.194Z" transform="translate(-1639.078 -832.791)" fill="#c8674d"/>
              <path id="Trazado_782728" data-name="Trazado 782728" d="M1687.99,898.952l.15.082c.189-.349.377-.708.56-1.066l-.152-.078c-.182.357-.37.714-.558,1.062Z" transform="translate(-1612.675 -888.91)" fill="#c8674d"/>
              <path id="Trazado_782729" data-name="Trazado 782729" d="M1698.21,879l.154.076c.177-.356.352-.72.521-1.085l-.155-.073c-.169.363-.344.726-.52,1.081Z" transform="translate(-1622.107 -870.48)" fill="#c8674d"/>
              <path id="Trazado_782730" data-name="Trazado 782730" d="M1707.74,858.766l.156.071c.164-.361.327-.731.485-1.1l-.157-.067c-.157.368-.32.737-.484,1.1Z" transform="translate(-1630.901 -851.792)" fill="#c8674d"/>
              <path id="Trazado_782731" data-name="Trazado 782731" d="M1518.95,1075.754l.067.157c.366-.157.734-.328,1.094-.508l-.076-.153C1519.677,1075.429,1519.313,1075.6,1518.95,1075.754Z" transform="translate(-1456.674 -1052.589)" fill="#c8674d"/>
              <path id="Trazado_782732" data-name="Trazado 782732" d="M1350.491,1095.1l.079.152a6.952,6.952,0,0,0,1.027-.65l-.1-.136a6.787,6.787,0,0,1-1,.634Z" transform="translate(-1301.208 -1070.327)" fill="#c8674d"/>
              <path id="Trazado_782733" data-name="Trazado 782733" d="M1368.736,1078.807l-.141-.1a5.283,5.283,0,0,1-.775.889l.046.051-.022-.012-.083.149a6.64,6.64,0,0,0,1.115.485l.054-.162a6.626,6.626,0,0,1-.969-.409A5.416,5.416,0,0,0,1368.736,1078.807Z" transform="translate(-1317.146 -1055.782)" fill="#c8674d"/>
              <path id="Trazado_782734" data-name="Trazado 782734" d="M1351.027,1078.069l.1-.14a5.325,5.325,0,0,1-.889-.778l-.126.115a5.491,5.491,0,0,0,.917.8Z" transform="translate(-1300.857 -1054.343)" fill="#c8674d"/>
              <path id="Trazado_782735" data-name="Trazado 782735" d="M1338.35,1019.389l.154.074a2.136,2.136,0,0,1,.752-.86l-.094-.143a2.316,2.316,0,0,0-.812.928Z" transform="translate(-1290.004 -1000.18)" fill="#c8674d"/>
              <path id="Trazado_782736" data-name="Trazado 782736" d="M1330.05,1105.951l.049.164a9.709,9.709,0,0,0,1.138-.418l-.069-.157A9.587,9.587,0,0,1,1330.05,1105.951Z" transform="translate(-1282.345 -1080.543)" fill="#c8674d"/>
              <path id="Trazado_782737" data-name="Trazado 782737" d="M1338.161,1058.81a4.367,4.367,0,0,0,.589,1.071l.137-.1a4.223,4.223,0,0,1-.566-1.029l-.161.059Z" transform="translate(-1289.829 -1037.362)" fill="#c8674d"/>
              <path id="Trazado_782738" data-name="Trazado 782738" d="M1382.451,1058.95a4.514,4.514,0,0,1-.431,1.094l.15.082a4.672,4.672,0,0,0,.447-1.135Z" transform="translate(-1330.306 -1037.547)" fill="#c8674d"/>
              <path id="Trazado_782739" data-name="Trazado 782739" d="M1476.881,1091.918l.039.167c.393-.093.781-.2,1.166-.311l-.049-.163c-.382.114-.767.216-1.157.308Z" transform="translate(-1417.849 -1067.688)" fill="#c8674d"/>
              <path id="Trazado_782740" data-name="Trazado 782740" d="M1498.23,1084.719l.053.162c.38-.125.761-.263,1.134-.412l-.063-.159c-.37.146-.747.284-1.124.408Z" transform="translate(-1437.552 -1060.95)" fill="#c8674d"/>
              <path id="Trazado_782741" data-name="Trazado 782741" d="M1388.7,1098.886a8.988,8.988,0,0,0,1.192.224l.021-.17a9.076,9.076,0,0,1-1.169-.22l-.043.165Z" transform="translate(-1336.47 -1074.249)" fill="#c8674d"/>
              <path id="Trazado_782742" data-name="Trazado 782742" d="M1538.9,1065.122l.08.151c.351-.187.7-.388,1.047-.6l-.089-.146c-.341.208-.69.407-1.038.592Z" transform="translate(-1475.085 -1042.696)" fill="#c8674d"/>
              <path id="Trazado_782743" data-name="Trazado 782743" d="M1308.481,1112.867l.026.169c.41-.064.809-.145,1.186-.24l-.042-.166c-.372.094-.766.174-1.171.237Z" transform="translate(-1262.438 -1087.086)" fill="#c8674d"/>
              <path id="Trazado_782744" data-name="Trazado 782744" d="M1455.14,1097.28l.026.169c.386-.061.785-.135,1.186-.221l-.035-.167C1455.918,1097.146,1455.523,1097.22,1455.14,1097.28Z" transform="translate(-1397.786 -1072.717)" fill="#c8674d"/>
              <path id="Trazado_782745" data-name="Trazado 782745" d="M1410.872,1102.22l-.012.17c.386.029.793.038,1.209.029l0-.171C1411.655,1102.257,1411.253,1102.248,1410.872,1102.22Z" transform="translate(-1356.921 -1077.479)" fill="#c8674d"/>
              <path id="Trazado_782746" data-name="Trazado 782746" d="M1433.111,1100.963l.01.17c.388-.022.792-.061,1.2-.114l-.022-.17c-.407.052-.807.091-1.191.113Z" transform="translate(-1377.455 -1076.215)" fill="#c8674d"/>
              <path id="Trazado_782747" data-name="Trazado 782747" d="M711.581,1242.333l.015.17c.2-.018.4-.043.6-.075l-.028-.169c-.194.032-.391.056-.588.073Z" transform="translate(-711.58 -1206.717)" fill="#c8674d"/>
            </g>
          </g>
          <g id="Grupo_1048938" data-name="Grupo 1048938" transform="translate(210.699 94.862)">
            <path id="Trazado_782748" data-name="Trazado 782748" d="M3294.691,2551.02l-.983,1.871-.738.917,5.107,3.656,2.769-4.57-.148-1.666Z" transform="translate(-3283.651 -2474.484)" fill="#f19a6d"/>
            <path id="Trazado_782749" data-name="Trazado 782749" d="M3189.284,2574.475c-.561.463-2.385,2.249-3.612,1.383a7.073,7.073,0,0,0-3.829-1.429l-9.448,4.076a.445.445,0,0,0-.247.433l.029,1.266a.432.432,0,0,0,.385.455h17.763l-.75-6.025c-.021-.167-.177-.252-.292-.158Z" transform="translate(-3172.148 -2496.087)" fill="#303359"/>
            <path id="Trazado_782750" data-name="Trazado 782750" d="M3670.682,2542.052l-1.024,1.866-.758.915,4.988,3.646,2.869-4.557-.579-2.642Z" transform="translate(-3630.583 -2465.495)" fill="#f19a6d"/>
            <path id="Trazado_782751" data-name="Trazado 782751" d="M3564.69,2574.685c-.569.461-2.429,2.244-3.628,1.379a6.869,6.869,0,0,0-3.772-1.425l-9.5,4.064a.456.456,0,0,0-.256.431l0,1.263a.418.418,0,0,0,.372.453h17.669l-.595-6.009c-.016-.167-.17-.252-.286-.157Z" transform="translate(-3518.575 -2496.281)" fill="#303359"/>
            <path id="Trazado_782752" data-name="Trazado 782752" d="M3276.022,1595.3c-.105,7.606,1.93,40.368,1.93,40.368l9.559.166s6.663-55.928,16.523-75.073l-25.887-1.892s-2.018,28.727-2.125,36.432Z" transform="translate(-3268.006 -1558.863)" fill="#2f4171"/>
            <path id="Trazado_782753" data-name="Trazado 782753" d="M3276.238,1955.73c-.118,2.417-.2,4.451-.216,5.821-.026,1.867.077,5.25.248,9.292a7.3,7.3,0,0,0,5.167-7.587c-.349-5.55-4.159-7.182-5.2-7.526Z" transform="translate(-3268.006 -1925.111)" fill="#143556" opacity="0.65"/>
            <path id="Trazado_782754" data-name="Trazado 782754" d="M3343.833,1593.794c-.43-7.725,1.351-23.631,2.146-34.047l-27.52-.967s.857,6.991,2.509,14.622a230.2,230.2,0,0,0,7.181,26.042c4.491,12.968,14.838,36.887,14.838,36.887l10.664-.243-8.911-36.3a31.843,31.843,0,0,1-.908-5.991Z" transform="translate(-3307.174 -1558.78)" fill="#34509c"/>
            <path id="Trazado_782755" data-name="Trazado 782755" d="M3426.96,1562.6l2.446,11.905,3.634,1.9-2.8-13.693Z" transform="translate(-3407.305 -1562.305)" fill="#3c5eaa"/>
            <path id="Trazado_782756" data-name="Trazado 782756" d="M3414.97,1995.417c.711,2.34,1.46,4.659,2.246,6.928.857,2.474,1.927,5.345,3.1,8.375,2.39-.347,5.355-5.7,2.008-11.056C3419.52,1995.182,3416.153,1995.234,3414.97,1995.417Z" transform="translate(-3396.24 -1961.682)" fill="#3c5eaa"/>
          </g>
          <g id="Grupo_1048945" data-name="Grupo 1048945" transform="translate(187.14 23.461)">
            <g id="Grupo_1048939" data-name="Grupo 1048939" transform="translate(0 10.762)">
              <path id="Trazado_782757" data-name="Trazado 782757" d="M2875.468,775.947c-.641.993-.436,4.485-.77,4.055-.489-.627-3.4-6.506-4.071-6.413s1.679,3.942,1.416,3.926-3.146-5.071-3.636-4.873c-.778.315,2.491,5.44,2.249,5.5s-2.738-4.08-3.056-3.885c-.628.383,1.4,3.849,1.73,4.623,0,0-2.048-2.976-2.563-2.672-.531.313,5.072,9.819,5.072,9.819s3.6,7.571,5.5,11.1l6.168-4.654s-5.952-8.866-6.478-10.251c0,0-.916-7.278-1.557-6.283Z" transform="translate(-2866.73 -772.636)" fill="#f19a6d"/>
              <path id="Trazado_782758" data-name="Trazado 782758" d="M2964.7,865.412a15.6,15.6,0,0,1,1.017-3.045l-1.033-.237.016,3.281Z" transform="translate(-2957.125 -855.227)" fill="#ef7c59"/>
            </g>
            <path id="Trazado_782759" data-name="Trazado 782759" d="M2967.083,936.232l-7.307-11L2953.01,931s6.594,20.432,15.138,19.505,21.332-9.369,21.332-9.369l5.144-17.57s-3.821,1.334-9.133,3.109-18.407,9.554-18.407,9.554Z" transform="translate(-2946.355 -901.166)" fill="#f0c36a"/>
            <path id="Trazado_782760" data-name="Trazado 782760" d="M2946.44,946.32l2.187,5.38,8.656-6.514-3.27-5.2Z" transform="translate(-2940.292 -916.319)" fill="#cf952c"/>
            <path id="Trazado_782761" data-name="Trazado 782761" d="M3307.255,934.18c-.866.3-1.941.665-3.175,1.082a32.911,32.911,0,0,0-5,6.162c-1.243,2.168-4.743,10.893-4.741,13.408l1.291,2.214a55.593,55.593,0,0,0,8.851-6.116l4.258-14.546-1.366.131Z" transform="translate(-3261.356 -910.957)" fill="#cf952c"/>
            <path id="Trazado_782762" data-name="Trazado 782762" d="M3328.352,909.366l-3.608-2.546.029.2-4.518,4.748-3.056.143,0-2.652-2.625.906c-.828.1-3.533,3.579-4.777,5.522a26.616,26.616,0,0,0-3.2,9.593l-2.974,31.837,28.665.961s6.96-26.642,6.567-36.519c-.255-6.418-10.5-12.191-10.5-12.191Z" transform="translate(-3269.92 -885.708)" fill="#fff"/>
            <path id="Trazado_782763" data-name="Trazado 782763" d="M3357.9,909.366l-3.608-2.546.029.2-4.519,4.748-2.565.12c.477,3.032.994,7.191.546,8.758-.738,2.582-3.689,12.545-5.534,12.545s-6.178-2.336-6.607-2.565l0,.054c.4.989,4.78,11.937,5.046,16.174.278,4.439-3.969,10.32-3.969,10.32l.027.063,25.09.841s6.96-26.642,6.567-36.519c-.255-6.418-10.5-12.191-10.5-12.191Z" transform="translate(-3299.471 -885.708)" fill="#d1dbed"/>
            <path id="Trazado_782764" data-name="Trazado 782764" d="M3284.04,962.333c0,7.133-2.46,29.025-2.46,29.025l2.706-.246s1.721-20.047,2.952-30.87a39.4,39.4,0,0,1,6.519-17.834l.123-1.968c-4.919,3.443-9.839,14.759-9.839,21.891Z" transform="translate(-3249.581 -916.735)" fill="#f0c36a"/>
            <path id="Trazado_782765" data-name="Trazado 782765" d="M3460.532,944.92c-2.9,2.634-9.044,4.917-9.044,4.917s-4.04,12.227-4.742,17.407-1.476,29.148-1.476,29.148l20.581.7s4.954-35.664,5.217-40.493S3468.258,946.325,3460.532,944.92Z" transform="translate(-3400.645 -920.869)" fill="#f0c36a"/>
            <path id="Trazado_782766" data-name="Trazado 782766" d="M3497.834,1088.61c-1.962,4.2-8.4,15.967-12.1,22.511-.2,2.808-.386,5.494-.542,7.775a6.984,6.984,0,0,0,7.663,2.736c6.087-1.6,11.9-17.669,14.045-26.221.275-2.194.512-4.151.689-5.716A5.144,5.144,0,0,0,3497.834,1088.61Z" transform="translate(-3437.485 -1050.638)" fill="#cf952c"/>
            <path id="Trazado_782767" data-name="Trazado 782767" d="M3449.424,983.826c-3.126-.649-6.6,3.672-6.6,3.672l-14.312,23.958-.831,9.684c7.9,4.456,11.27-.846,14.483-4.6,5.364-6.268,8.7-11.8,10.466-16.491a58.836,58.836,0,0,0,.714-9.252c-.1-2.539-1.867-4.974-3.918-6.968Z" transform="translate(-3384.412 -956.712)" fill="#cf952c"/>
            <g id="Grupo_1048940" data-name="Grupo 1048940" transform="translate(11.6 24.537)">
              <path id="Trazado_782768" data-name="Trazado 782768" d="M3047.605,957.173a2.836,2.836,0,0,0-1.329-2.165s-11.062-2.994-14.885-3.756c-1.174-.234-1.846.719-1.458,2.49l3.85,19.575a3.741,3.741,0,0,0,1.564,2.645l15.317,5c1.537.277,1.266-1,1.166-1.514l-4.225-22.276Z" transform="translate(-3028.843 -951.218)" fill="#e6ecf7"/>
              <path id="Trazado_782769" data-name="Trazado 782769" d="M3034.458,955.859l-16.237-4.2c-1.314-.109-1.2,1.171-.944,2.2l4.15,20.161c.311,1.354.528,1.97,1.328,2.435,2.793,1.625,17.428,6.14,17.35,5.739l-4.629-24.672a2.233,2.233,0,0,0-1.018-1.664Z" transform="translate(-3017.117 -951.622)" fill="#293555"/>
              <path id="Trazado_782770" data-name="Trazado 782770" d="M3173.253,1168.549a15.009,15.009,0,0,0-2.7-3.933c.154.846.607,2.565-.153,2.48a4.2,4.2,0,0,1-2.673-1.019c-.877-.613-3.777-4.249-4.448-4.144s3.174,5.279,3.007,5.415-1.812-1.271-2.4-1.714c-.743-.556-3.152-2.259-3.249-1.635s5.889,5.579,4.687,4.6c-.08-.065-4.6-4.12-4.944-3.292-.227.551,3.893,4.114,3.975,4.342s-3.183-3.223-3.481-2.548c-.13.3,1.473,2.044,2.061,2.565a138.766,138.766,0,0,0,16,12.62l2.885-6.4-8.071-5.334a14.738,14.738,0,0,0-.49-2Z" transform="translate(-3149.314 -1145.678)" fill="#f19a6d"/>
            </g>
            <path id="Trazado_782771" data-name="Trazado 782771" d="M3321.321,977.9c-3.59-2.195-7.5,3.949-7.5,3.949l-11.139,22.91-8.435-5.656-5.932,10.226,13.775,8.471c8.306,3.807,11.134-1.955,13.958-6.114,12.45-18.329,11.344-30.072,5.268-33.785Z" transform="translate(-3255.801 -950.871)" fill="#f0c36a"/>
            <path id="Trazado_782772" data-name="Trazado 782772" d="M3283.65,1263.976l5.249,3.4,4.96-11.767-3.864-2.422Z" transform="translate(-3251.491 -1205.36)" fill="#cf952c"/>
            <path id="Trazado_782773" data-name="Trazado 782773" d="M3468.5,894.628l-.779,1.232c1.993,3.207,9,.145,9.339-3.4C3474.077,891.17,3468.5,894.628,3468.5,894.628Z" transform="translate(-3421.363 -872.186)" fill="#57935e"/>
            <path id="Trazado_782774" data-name="Trazado 782774" d="M3498.042,907.011l-5.962,5.823c1.042,2.8.9,9.074.9,9.074,7.294-2.716,10.925-11,11.484-11.794-.938-.552-6.457-3.3-6.457-3.3l.032.2Z" transform="translate(-3443.844 -885.698)" fill="#cf952c"/>
            <path id="Trazado_782775" data-name="Trazado 782775" d="M3412.3,930.688l4.38-3.393.5-3.375c-1.338.243-3.52.744-5.306,1.062.372,1.117-.289,3.741.431,5.706Z" transform="translate(-3369.821 -901.489)" fill="#cf952c"/>
            <path id="Trazado_782776" data-name="Trazado 782776" d="M3412.349,921.253l4.176-2.664.328-3.52-5.333,1.338a37.029,37.029,0,0,0,.83,4.846Z" transform="translate(-3369.498 -893.321)" fill="#f0c36a"/>
            <path id="Trazado_782777" data-name="Trazado 782777" d="M3470.187,829.636l-.017.017c.285-.042.524-.086.683-.106a27.775,27.775,0,0,1-.4,6.249c-.579,3.177,3.174,3.114,5.162.465l3.008-3.618s-.674-5.068-.84-7.043l-7.593,4.036Z" transform="translate(-3423.624 -810.753)" fill="#f19a6d"/>
            <path id="Trazado_782778" data-name="Trazado 782778" d="M3478.22,866.777c.651.289,2.991.255,5.456-5.087-3.058.8-4.41,2.281-5.368,2.618A18.376,18.376,0,0,1,3478.22,866.777Z" transform="translate(-3431.053 -844.059)" fill="#ef7c59"/>
            <g id="Grupo_1048942" data-name="Grupo 1048942" transform="translate(42.99)">
              <path id="Trazado_782779" data-name="Trazado 782779" d="M3433.64,661.567c-4.2-.692-6.833.589-8.135,4.907-.066.219-.117.44-.171.663a5.683,5.683,0,0,0-.188,2.916s-1.912,6.657,1.317,10c.506.524,3.773.716,4.441.577,4.441-.922,4.95-7.668,4.95-7.668.126-.375,2.22-.519,2.34-.907,1.152-3.729.574-9.644-4.555-10.49Z" transform="translate(-3424.544 -659.209)" fill="#f19a6d"/>
              <path id="Trazado_782780" data-name="Trazado 782780" d="M3425.121,772.73c.009.022.017.044.027.065a16.4,16.4,0,0,0-.424,6.168,4.753,4.753,0,0,0,1.308-2.661,4.627,4.627,0,0,0-.912-3.581A.048.048,0,0,0,3425.121,772.73Z" transform="translate(-3424.546 -761.951)" fill="#ef7c59"/>
              <path id="Trazado_782781" data-name="Trazado 782781" d="M3536.659,789.48c-1.4,0-2.539,1.453-2.539,3.245a3.268,3.268,0,0,0,1.756,3.086,8.488,8.488,0,0,0,1.065-4.638c.082-.242.98-.388,1.64-.565A2.352,2.352,0,0,0,3536.659,789.48Z" transform="translate(-3525.632 -777.419)" fill="#ef7c59"/>
              <path id="Trazado_782782" data-name="Trazado 782782" d="M3456.994,838.715l-.094.227a2.672,2.672,0,0,0,.851.158,4.232,4.232,0,0,0,2.954-1.154l-.16-.186a3.628,3.628,0,0,1-3.553.955Z" transform="translate(-3454.368 -821.975)" fill="#2b2b2b"/>
              <path id="Trazado_782783" data-name="Trazado 782783" d="M3507.159,751.224c-.074-.038-1.875-.7-2.2-.315a.566.566,0,0,0,0,.636c.219.322.672.144,1.762.354.511.1.72.2.763.123.072-.127.245-.508-.319-.8Z" transform="translate(-3498.626 -741.712)" fill="#2f2f2f"/>
              <path id="Trazado_782784" data-name="Trazado 782784" d="M3437.589,746.079a.689.689,0,0,0-.557.673c.011.073.191.029.593.043.857.032,1.14.274,1.389.039a.6.6,0,0,0,.174-.55c-.136-.395-1.534-.224-1.6-.205Z" transform="translate(-3436.03 -737.317)" fill="#2f2f2f"/>
              <path id="Trazado_782785" data-name="Trazado 782785" d="M3509.2,778.386c-.177-.046-.379.141-.452.419s.012.541.189.587.38-.141.452-.419S3509.378,778.432,3509.2,778.386Z" transform="translate(-3502.194 -767.174)" fill="#2b2b2b"/>
              <path id="Trazado_782786" data-name="Trazado 782786" d="M3441.8,769.809c-.161-.042-.351.148-.423.425s0,.535.161.578.351-.148.423-.425S3441.958,769.852,3441.8,769.809Z" transform="translate(-3440.013 -759.26)" fill="#2b2b2b"/>
              <path id="Trazado_782787" data-name="Trazado 782787" d="M3434.037,633.136c-3.678-.254-3.763,1.6-8.392,2.033-3.137.293-.612,5.208-.612,5.208a4.811,4.811,0,0,1,.92-1.838c1.725,2.21,8.958,1.331,8.958,1.331l.218,6.543.325,1.749-.167.406c.349.872,1.183,1.027,1.641.207a31.205,31.205,0,0,0,2.862-7.377C3440.656,636.64,3437.8,633.4,3434.037,633.136Z" transform="translate(-3424.072 -633.112)" fill="#52261f"/>
              <path id="Trazado_782788" data-name="Trazado 782788" d="M3457.113,687.8c-7.509-.193-9.723-2.335-9.723-2.335S3447.438,688.768,3457.113,687.8Z" transform="translate(-3445.591 -681.431)" fill="#73504a"/>
              <path id="Trazado_782789" data-name="Trazado 782789" d="M3553.055,708.7l.074-6.255-.588-1.258S3550.767,708.292,3553.055,708.7Z" transform="translate(-3542.026 -695.939)" fill="#52261f"/>
              <g id="Grupo_1048941" data-name="Grupo 1048941" transform="translate(10.338 11.444)">
                <path id="Trazado_782790" data-name="Trazado 782790" d="M3560.987,781.563a2.383,2.383,0,1,0,1.32,2.91A2.266,2.266,0,0,0,3560.987,781.563Z" transform="translate(-3558.101 -781.47)" fill="#ef7c59"/>
                <path id="Trazado_782791" data-name="Trazado 782791" d="M3574.958,798.812a1.6,1.6,0,0,0-.916.993l-.061.144.155.024c.222.035.824.2.944.527l.23-.083c-.146-.4-.7-.587-.98-.653a1.277,1.277,0,0,1,.7-.718.958.958,0,0,1,.717.077l.127-.209a1.182,1.182,0,0,0-.917-.1Z" transform="translate(-3572.755 -797.425)" fill="#2b2b2b"/>
              </g>
              <path id="Trazado_782792" data-name="Trazado 782792" d="M3453.335,788.111l-.045-.241c-.257.048-1.549.309-1.748.738a.3.3,0,0,0,.013.286,3.245,3.245,0,0,0,1.006.938l.125-.211a3.046,3.046,0,0,1-.919-.848.062.062,0,0,1,0-.062c.107-.232.983-.491,1.571-.6Z" transform="translate(-3449.396 -775.933)" fill="#2b2b2b"/>
            </g>
            <g id="Grupo_1048943" data-name="Grupo 1048943" transform="translate(41.08 8.209)">
              <path id="Trazado_782793" data-name="Trazado 782793" d="M3412.395,742.562a1.855,1.855,0,0,1-.885-.784,3.082,3.082,0,0,0-2.391-1.657,3.757,3.757,0,0,0-3.2,1.328.4.4,0,0,1-.417.131,2.3,2.3,0,0,0-.373-.072,2.263,2.263,0,0,0-.376-.018.34.34,0,0,1-.339-.216,2.62,2.62,0,0,0-2.2-1.734,2.511,2.511,0,0,0-2.024.989,1.357,1.357,0,0,1-.7.451.152.152,0,0,0-.106.128l-.065.442a.144.144,0,0,0,.065.15.6.6,0,0,1,.292.544,2.368,2.368,0,0,0,1.844,2.562c2.4.482,2.491-2.609,3.475-2.474,1.026.14.029,3.18,2.819,3.741a3.086,3.086,0,0,0,3.668-2.047.9.9,0,0,1,.729-.538.21.21,0,0,0,.182-.159l.119-.572a.174.174,0,0,0-.107-.2Zm-8.229-.359c-.113.666-.925,2.715-2.613,2.384-1.579-.31-1.787-1.967-1.65-2.88a2.255,2.255,0,0,1,2.276-1.935,2.141,2.141,0,0,1,1.988,2.43Zm7.207,1.086a3.012,3.012,0,0,1-3.528,2.532c-2.028-.4-2.127-2.7-2-3.391a2.876,2.876,0,0,1,3.22-2.044A2.5,2.5,0,0,1,3411.372,743.288Z" transform="translate(-3399.306 -739.534)" fill="#1f1322"/>
              <path id="Trazado_782794" data-name="Trazado 782794" d="M3467.571,765.781c-.29-.036-.467.043-.581-.071,0,0,.071.136.149.146s.274.007.415.024.333.069.413.079.2-.106.2-.106c-.154.083-.3-.037-.6-.072Z" transform="translate(-3461.769 -763.691)" fill="#fff" opacity="0.3"/>
            </g>
            <path id="Trazado_782795" data-name="Trazado 782795" d="M3496.332,898.511c-1.734,1.817-4.252,4.236-4.252,4.236,1.041,2.8,1.864,6.067,1.864,6.067,7.9-2.942,10.523-8.786,10.523-8.786l-4.927-4.148a15.058,15.058,0,0,0-3.208,2.63Z" transform="translate(-3443.844 -875.611)" fill="#f0c36a"/>
            <g id="Grupo_1048944" data-name="Grupo 1048944" transform="translate(16.562 25.154)">
              <path id="Trazado_782796" data-name="Trazado 782796" d="M3108.7,971.39a.646.646,0,0,0-.66-.061.575.575,0,0,0-.253.543l.068,2.944a.989.989,0,0,0,.9,1h.009a.676.676,0,0,0,.488-.206.859.859,0,0,0,.228-.629l-.083-2.442A1.516,1.516,0,0,0,3108.7,971.39Zm.363,4.033a.4.4,0,0,1-.307.127h0a.734.734,0,0,1-.64-.74l-.068-2.944a.333.333,0,0,1,.123-.312.244.244,0,0,1,.121-.029.553.553,0,0,1,.274.089,1.252,1.252,0,0,1,.568.929l.083,2.441a.594.594,0,0,1-.153.438Z" transform="translate(-3105.754 -970.335)" fill="#34509c"/>
              <path id="Trazado_782797" data-name="Trazado 782797" d="M3082.377,962.844l4.5,1.1.211-2.1-5.537-1.4Z" transform="translate(-3081.542 -960.346)" fill="#34509c"/>
              <path id="Trazado_782798" data-name="Trazado 782798" d="M3149.09,975.58l1.35.354,0-.272Z" transform="translate(-3143.872 -974.318)" fill="#293555"/>
              <path id="Trazado_782799" data-name="Trazado 782799" d="M3081.44,959.316l5.545,1.4,1.019-.154-5.353-1.344Z" transform="translate(-3081.44 -959.22)" fill="#2f4171"/>
            </g>
          </g>
          <g id="Grupo_1048946" data-name="Grupo 1048946" transform="translate(264.309 76.689)">
            <path id="Trazado_782800" data-name="Trazado 782800" d="M3877.523,1332.155a.323.323,0,0,0,.535-.239l.066-3.911-10.954-4.815,10.352,8.965Z" transform="translate(-3867.17 -1323.189)" fill="#cf952c"/>
            <path id="Trazado_782801" data-name="Trazado 782801" d="M3878.134,1327.995l3.375-2.94-14.329-1.875Z" transform="translate(-3867.179 -1323.18)" fill="#f0c36a"/>
            <path id="Trazado_782802" data-name="Trazado 782802" d="M3872.071,1333.4l4.015-3.513-8.906-6.708Z" transform="translate(-3867.179 -1323.18)" fill="#f0c36a"/>
          </g>
          <g id="Grupo_1048948" data-name="Grupo 1048948" transform="translate(132.871 138.083)">
            <g id="Grupo_1048947" data-name="Grupo 1048947">
              <rect id="Rectángulo_359736" data-name="Rectángulo 359736" width="30.735" height="33.504" transform="translate(17.023)" fill="#a9bbce"/>
              <rect id="Rectángulo_359737" data-name="Rectángulo 359737" width="17.017" height="33.504" fill="#7a8db0"/>
            </g>
            <rect id="Rectángulo_359738" data-name="Rectángulo 359738" width="4.047" height="3.364" transform="translate(30.366)" fill="#e6e6e6"/>
          </g>
          <g id="Grupo_1048949" data-name="Grupo 1048949" transform="translate(11.594 122.701)">
            <path id="Trazado_782803" data-name="Trazado 782803" d="M629.437,1935.812s-1.248,13.1-3.67,12.714,2.443-14.493,2.443-14.493-9.942-8.886-14.6-9.755c0,0,3.659,14.2,1.405,13.229s-6.748-15.563-6.748-15.563-11.2-5.609-15.129.857-1.868,10.859-.241,11.8,12.922,4.047,12.207,5.424-8.989,1.521-12.847-1.017c0,0,1.344,12.895,7.65,14.083s9.3-2.063,13.187-1.259,6.365,2.63,4.17,3.1-8.426-2.069-12.248-.346-6.77,2.613-1.409,5.428,15.8,5.037,19.114,1.243l3.311-3.793s12.732-2.974,10.022-12.78c0,0-2.615-6.3-6.62-8.877Z" transform="translate(-590.885 -1919.687)" fill="#6fbd8d"/>
            <path id="Trazado_782804" data-name="Trazado 782804" d="M682,2008.71c34.462,27.047,24.809,34.709,24.809,34.709,1.459,1.53,3.311-3.793,3.311-3.793-.3-12.119-28.121-30.916-28.121-30.916Z" transform="translate(-674.972 -2001.843)" fill="#99b1da"/>
          </g>
          <g id="Grupo_1048952" data-name="Grupo 1048952" transform="translate(38.249 98.045)">
            <g id="Grupo_1048951" data-name="Grupo 1048951">
              <path id="Trazado_782842" data-name="Trazado 782842" d="M0,0H33.569V33.569H0Z" transform="translate(4.382 33.57)" fill="#f3ce90"/>
              <g id="Grupo_1048950" data-name="Grupo 1048950">
                <rect id="Rectángulo_359740" data-name="Rectángulo 359740" width="33.569" height="33.569" fill="#f3ce90"/>
                <rect id="Rectángulo_359741" data-name="Rectángulo 359741" width="5.427" height="3.669" transform="translate(14.071)" fill="#f3ce90"/>
              </g>
              <path id="Trazado_782805" data-name="Trazado 782805" d="M993.26,2041.367l29.187-6.117H993.26Z" transform="translate(-988.878 -2001.68)" fill="#d6875f"/>
            </g>
            <rect id="Rectángulo_359742" data-name="Rectángulo 359742" width="12.833" height="33.569" transform="translate(33.569)" fill="#f19a6d"/>
            <path id="Trazado_782843" data-name="Trazado 782843" d="M0,0H12.833V33.569H0Z" transform="translate(37.827 33.57)" fill="#d6875f"/>
          </g>
          <g id="Grupo_1048963" data-name="Grupo 1048963" transform="translate(75.211 44.449)">
            <g id="Grupo_1048955" data-name="Grupo 1048955" transform="translate(0)">
              <g id="Grupo_1048953" data-name="Grupo 1048953">
                <rect id="Rectángulo_359744" data-name="Rectángulo 359744" width="39.852" height="43.443" fill="#f3ce90"/>
                <rect id="Rectángulo_359745" data-name="Rectángulo 359745" width="22.064" height="43.443" transform="translate(39.86)" fill="#f19a6d"/>
              </g>
              <g id="Grupo_1048954" data-name="Grupo 1048954" transform="translate(16.121)">
                <rect id="Rectángulo_359746" data-name="Rectángulo 359746" width="7.61" height="19.09" fill="#fff"/>
                <rect id="Rectángulo_359747" data-name="Rectángulo 359747" width="5.247" height="4.362" transform="translate(32.839)" fill="#383838"/>
              </g>
            </g>
            <path id="Trazado_782806" data-name="Trazado 782806" d="M1986.47,907.008a12.728,12.728,0,0,0,13.745,12.885,14.11,14.11,0,0,0,4.149-.921V905.22h-17.78a14.156,14.156,0,0,0-.114,1.788Z" transform="translate(-1942.439 -905.219)" fill="#7a8db0"/>
            <g id="Grupo_1048958" data-name="Grupo 1048958" transform="translate(8.412 43.443)">
              <g id="Grupo_1048957" data-name="Grupo 1048957">
                <g id="Grupo_1048956" data-name="Grupo 1048956">
                  <rect id="Rectángulo_359748" data-name="Rectángulo 359748" width="39.852" height="43.443" fill="#e6ecf7"/>
                  <rect id="Rectángulo_359749" data-name="Rectángulo 359749" width="22.064" height="43.443" transform="translate(39.86)" fill="#d1dbed"/>
                </g>
                <rect id="Rectángulo_359750" data-name="Rectángulo 359750" width="5.247" height="43.441" transform="translate(48.96)" fill="#7a8db0"/>
              </g>
              <path id="Trazado_782807" data-name="Trazado 782807" d="M1524.7,1476.53l31.448-8.11H1524.7Z" transform="translate(-1524.7 -1468.42)" fill="#99b1da"/>
              <rect id="Rectángulo_359751" data-name="Rectángulo 359751" width="6.787" height="43.461" transform="translate(16.532)" fill="#7a8db0"/>
            </g>
            <g id="Grupo_1048962" data-name="Grupo 1048962" transform="translate(4.016 86.883)">
              <g id="Grupo_1048961" data-name="Grupo 1048961">
                <g id="Grupo_1048959" data-name="Grupo 1048959">
                  <rect id="Rectángulo_359752" data-name="Rectángulo 359752" width="39.852" height="43.443" fill="#f19a6d"/>
                  <rect id="Rectángulo_359753" data-name="Rectángulo 359753" width="22.064" height="43.443" transform="translate(39.86)" fill="#f3ce90"/>
                </g>
                <g id="Grupo_1048960" data-name="Grupo 1048960" transform="translate(15.206)">
                  <rect id="Rectángulo_359754" data-name="Rectángulo 359754" width="9.44" height="5.513" fill="#f3ce90"/>
                  <rect id="Rectángulo_359755" data-name="Rectángulo 359755" width="8.653" height="5.564" transform="translate(32.052)" fill="#f19a6d"/>
                </g>
              </g>
              <path id="Trazado_782808" data-name="Trazado 782808" d="M1467.71,2039.7l31.448-8.11H1467.71Z" transform="translate(-1467.71 -2031.59)" fill="#636363" opacity="0.44"/>
            </g>
          </g>
          <g id="Grupo_1048964" data-name="Grupo 1048964" transform="translate(119.829 28.048)">
            <path id="Trazado_782809" data-name="Trazado 782809" d="M2007.835,692.606a14.841,14.841,0,0,0-13.745,14.637,12.728,12.728,0,0,0,13.745,12.885,14.848,14.848,0,0,0,13.66-14.632,12.73,12.73,0,0,0-13.66-12.891Z" transform="translate(-1994.09 -692.579)" fill="#34509c"/>
            <path id="Trazado_782810" data-name="Trazado 782810" d="M2090.792,762.369a1.77,1.77,0,0,0-2.276.886l-4.727,9.626-3.582-5.757a1.644,1.644,0,0,0-2.333-.437,1.771,1.771,0,0,0-.582,2.378l5.165,8.294a1.574,1.574,0,0,0,1.455.731l.06,0a1.84,1.84,0,0,0,1.451-1.024l6.108-12.45A1.632,1.632,0,0,0,2090.792,762.369Z" transform="translate(-2070.65 -756.855)" fill="#fff"/>
          </g>
          <g id="Grupo_1048966" data-name="Grupo 1048966" transform="translate(37.105 29.2)">
            <path id="Trazado_782811" data-name="Trazado 782811" d="M976.09,721.762a1.929,1.929,0,0,0-2.343-1.395l-37.875,9.617a1.929,1.929,0,0,0-1.395,2.343l3.182,12.53A1.929,1.929,0,0,0,940,746.252l37.875-9.617a1.929,1.929,0,0,0,1.395-2.343Z" transform="translate(-933.432 -719.321)" fill="#8b919e"/>
            <path id="Trazado_782812" data-name="Trazado 782812" d="M963.3,708.972a1.929,1.929,0,0,0-2.343-1.395l-37.875,9.617a1.929,1.929,0,0,0-1.395,2.343l3.182,12.53a1.929,1.929,0,0,0,2.343,1.395l37.875-9.617a1.929,1.929,0,0,0,1.395-2.343Z" transform="translate(-921.628 -707.518)" fill="#fff"/>
            <g id="Grupo_1048965" data-name="Grupo 1048965" transform="translate(3.461 3.093)">
              <rect id="Rectángulo_359756" data-name="Rectángulo 359756" width="36.354" height="2.105" transform="translate(0 8.949) rotate(-14.25)" fill="#ebebeb"/>
              <rect id="Rectángulo_359757" data-name="Rectángulo 359757" width="36.354" height="2.105" transform="translate(1.12 13.359) rotate(-14.25)" fill="#ebebeb"/>
              <rect id="Rectángulo_359758" data-name="Rectángulo 359758" width="24.134" height="2.105" transform="translate(2.24 17.771) rotate(-14.25)" fill="#ebebeb"/>
            </g>
          </g>
          <g id="Grupo_1048969" data-name="Grupo 1048969" transform="translate(256.913 89.454)">
            <path id="Trazado_782813" data-name="Trazado 782813" d="M3824.742,1503.7a.988.988,0,0,0-1.212-.694l-29.64,8.049a.988.988,0,0,0-.694,1.212L3796,1522.6a.988.988,0,0,0,1.212.694l29.641-8.049a.988.988,0,0,0,.694-1.212Z" transform="translate(-3791.474 -1501.867)" fill="#8b919e"/>
            <g id="Grupo_1048968" data-name="Grupo 1048968">
              <path id="Trazado_782814" data-name="Trazado 782814" d="M3803.3,1489.759a1.487,1.487,0,0,0-1.824-1.045l-29.082,7.9a1.487,1.487,0,0,0-1.045,1.824l2.613,9.621a1.487,1.487,0,0,0,1.824,1.045l29.082-7.9a1.487,1.487,0,0,0,1.045-1.824Z" transform="translate(-3771.292 -1488.662)" fill="#fff"/>
              <g id="Grupo_1048967" data-name="Grupo 1048967" transform="translate(2.671 2.415)">
                <rect id="Rectángulo_359759" data-name="Rectángulo 359759" width="28.036" height="1.624" transform="translate(0 7.346) rotate(-15.19)" fill="#ebebeb"/>
                <rect id="Rectángulo_359760" data-name="Rectángulo 359760" width="28.036" height="1.624" transform="translate(0.92 10.731) rotate(-15.19)" fill="#ebebeb"/>
                <rect id="Rectángulo_359761" data-name="Rectángulo 359761" width="18.612" height="1.624" transform="translate(1.84 14.12) rotate(-15.19)" fill="#ebebeb"/>
              </g>
            </g>
          </g>
          <g id="Grupo_1048971" data-name="Grupo 1048971" transform="translate(20.053 100.525)">
            <path id="Trazado_782815" data-name="Trazado 782815" d="M738.221,1648.892,712,1642.479a1.332,1.332,0,0,0-1.611.977l-2.121,8.674a1.332,1.332,0,0,0,.977,1.611l26.22,6.413a1.333,1.333,0,0,0,1.611-.977l2.121-8.674A1.333,1.333,0,0,0,738.221,1648.892Z" transform="translate(-707.639 -1641.65)" fill="#8b919e"/>
            <path id="Trazado_782816" data-name="Trazado 782816" d="M730.551,1638.652l-26.22-6.413a1.333,1.333,0,0,0-1.611.977l-2.121,8.675a1.332,1.332,0,0,0,.977,1.61l26.22,6.413a1.333,1.333,0,0,0,1.611-.977l2.121-8.674A1.333,1.333,0,0,0,730.551,1638.652Z" transform="translate(-700.56 -1632.2)" fill="#fff"/>
            <g id="Grupo_1048970" data-name="Grupo 1048970" transform="translate(2.384 2.125)">
              <rect id="Rectángulo_359762" data-name="Rectángulo 359762" width="1.454" height="25.114" transform="translate(1.494 1.412) rotate(-76.26)" fill="#ebebeb"/>
              <rect id="Rectángulo_359763" data-name="Rectángulo 359763" width="1.454" height="25.114" transform="translate(0.747 4.467) rotate(-76.26)" fill="#ebebeb"/>
              <rect id="Rectángulo_359764" data-name="Rectángulo 359764" width="1.454" height="16.671" transform="translate(0 7.52) rotate(-76.26)" fill="#ebebeb"/>
            </g>
          </g>
          <g id="Grupo_1048973" data-name="Grupo 1048973" transform="translate(13.447 55.945)">
            <circle id="Elipse_8073" data-name="Elipse 8073" cx="6.218" cy="6.218" r="6.218" transform="matrix(0.05, -0.999, 0.999, 0.05, 0, 12.42)" fill="#99b1da"/>
            <g id="Grupo_1048972" data-name="Grupo 1048972" transform="translate(3.054 3.734)">
              <path id="Trazado_782817" data-name="Trazado 782817" d="M659.3,1108.174l-.56.56-1.189-1.189a.507.507,0,0,0-.719,0l-.722.722-.592-4.542a.509.509,0,1,0-1.009.131l.726,5.566a.509.509,0,0,0,.865.294l1.092-1.092,1.189,1.189a.509.509,0,0,0,.719,0l.919-.92a.508.508,0,0,0-.719-.719Z" transform="translate(-654.504 -1103.233)" fill="#fff"/>
              <path id="Trazado_782818" data-name="Trazado 782818" d="M660.476,1105.336l1.092-1.092a.509.509,0,0,0-.294-.864l-5.566-.726a.508.508,0,1,0-.131,1.008l4.542.592-.722.722a.507.507,0,0,0,0,.719l1.189,1.189-.56.56a.508.508,0,1,0,.719.719l.919-.919a.507.507,0,0,0,0-.719l-1.189-1.189Z" transform="translate(-655.086 -1102.65)" fill="#fff"/>
            </g>
          </g>
          <circle id="Elipse_8074" data-name="Elipse 8074" cx="6.218" cy="6.218" r="6.218" transform="translate(276.657 34.978) rotate(-9.22)" fill="#f5f5f7"/>
          <path id="Trazado_782819" data-name="Trazado 782819" d="M442.116,1254.036a3.787,3.787,0,1,0,5.3.789A3.786,3.786,0,0,0,442.116,1254.036Z" transform="translate(-440.582 -1181.994)" fill="#f5f5f7"/>
          <circle id="Elipse_8075" data-name="Elipse 8075" cx="4.088" cy="4.088" r="4.088" transform="translate(268.313 30.082) rotate(-9.22)" fill="#f5f5f7"/>
          <path id="Trazado_782820" data-name="Trazado 782820" d="M3735.61,813.4a2.32,2.32,0,1,0,2.32,2.32A2.321,2.321,0,0,0,3735.61,813.4Z" transform="translate(-3479.308 -776.032)" fill="#d1dbed"/>
          <path id="Trazado_782821" data-name="Trazado 782821" d="M608.5,1262.16a2.32,2.32,0,1,0,2.32,2.32A2.321,2.321,0,0,0,608.5,1262.16Z" transform="translate(-593.407 -1190.177)" fill="#fff"/>
          <path id="Trazado_782822" data-name="Trazado 782822" d="M1158.22,1255.55a4.351,4.351,0,1,0,4.35,4.351A4.351,4.351,0,0,0,1158.22,1255.55Z" transform="translate(-1098.851 -1184.077)" fill="#fff"/>
          <path id="Trazado_782823" data-name="Trazado 782823" d="M1651.333,374a2.984,2.984,0,1,0,2.984,2.984A2.984,2.984,0,0,0,1651.333,374Z" transform="translate(-1555.189 -370.525)" fill="#f5f5f7"/>
          <circle id="Elipse_8076" data-name="Elipse 8076" cx="11.822" cy="11.822" r="11.822" transform="translate(64.24 5.431) rotate(-13.28)" fill="#d1dbed"/>
          <path id="Trazado_782824" data-name="Trazado 782824" d="M1386.138,441.32l-1.9-3.85-1.9,3.85-4.248.617,3.074,3-.725,4.231,3.8-2,3.8,2-.726-4.231,3.074-3Z" transform="translate(-1305.776 -429.1)" fill="#fff"/>
          <g id="Grupo_1048975" data-name="Grupo 1048975" transform="translate(23.266 57.756)">
            <circle id="Elipse_8077" data-name="Elipse 8077" cx="13.62" cy="13.62" r="13.62" transform="matrix(0.989, -0.145, 0.145, 0.989, 0, 3.956)" fill="#d1dbed"/>
            <g id="Grupo_1048974" data-name="Grupo 1048974" transform="translate(5.165 6.22)">
              <path id="Trazado_782825" data-name="Trazado 782825" d="M813.584,1240.27a4.414,4.414,0,1,0,4.414,4.414A4.419,4.419,0,0,0,813.584,1240.27Zm0,7.465a3.051,3.051,0,1,1,3.051-3.051A3.055,3.055,0,0,1,813.584,1247.735Z" transform="translate(-809.17 -1233.951)" fill="#fff"/>
              <path id="Trazado_782826" data-name="Trazado 782826" d="M947.674,1242.88a4.414,4.414,0,1,0,4.414,4.414A4.419,4.419,0,0,0,947.674,1242.88Zm0,7.465a3.051,3.051,0,1,1,3.051-3.051A3.054,3.054,0,0,1,947.674,1250.345Z" transform="translate(-932.917 -1236.36)" fill="#fff"/>
              <path id="Trazado_782827" data-name="Trazado 782827" d="M865.609,1222.535a.668.668,0,0,0-.592-.274.683.683,0,0,0-.552.35l-2.717,4.9a.682.682,0,0,0,.589,1.012l6.414.076h.008a.682.682,0,0,0,.547-1.088l-3.7-4.98Zm-2.114,4.643,1.651-2.981,2.247,3.026Z" transform="translate(-857.614 -1217.329)" fill="#fff"/>
              <path id="Trazado_782828" data-name="Trazado 782828" d="M886.889,1180.164l-2.792-.906a.682.682,0,0,0-.42,1.3l2.792.906a.692.692,0,0,0,.211.034.682.682,0,0,0,.211-1.331Z" transform="translate(-877.495 -1177.615)" fill="#fff"/>
              <path id="Trazado_782829" data-name="Trazado 782829" d="M993.319,1179.237a.688.688,0,0,0-.752.6l-.916,8.3a.682.682,0,0,0,.6.752.63.63,0,0,0,.076,0,.682.682,0,0,0,.677-.607l.916-8.3A.681.681,0,0,0,993.319,1179.237Z" transform="translate(-977.572 -1177.623)" fill="#fff"/>
              <path id="Trazado_782830" data-name="Trazado 782830" d="M984.225,1161.488l-4.427-3.018a.682.682,0,1,0-.768,1.126l4.427,3.018a.682.682,0,1,0,.768-1.126Z" transform="translate(-965.654 -1158.351)" fill="#fff"/>
              <rect id="Rectángulo_359765" data-name="Rectángulo 359765" width="3.611" height="1.363" transform="translate(11.145 9.911)" fill="#fff"/>
              <path id="Trazado_782831" data-name="Trazado 782831" d="M898.552,1188.03a.682.682,0,0,0-.682.682v2.792a.682.682,0,1,0,1.364,0v-2.792A.682.682,0,0,0,898.552,1188.03Z" transform="translate(-891.028 -1185.741)" fill="#fff"/>
            </g>
          </g>
          <g id="Grupo_1048977" data-name="Grupo 1048977" transform="translate(259.914 38.641)">
            <circle id="Elipse_8078" data-name="Elipse 8078" cx="7.534" cy="7.534" r="7.534" transform="matrix(0.999, -0.05, 0.05, 0.999, 0, 0.752)" fill="#d1dbed"/>
            <g id="Grupo_1048976" data-name="Grupo 1048976" transform="translate(4.21 4.314)">
              <path id="Trazado_782832" data-name="Trazado 782832" d="M3870.9,887.7l-5.929,5.782a.639.639,0,0,0,.446,1.1.627.627,0,0,0,.446-.181l5.928-5.782a.639.639,0,0,0-.892-.915Z" transform="translate(-3864.782 -887.392)" fill="#fff"/>
              <circle id="Elipse_8079" data-name="Elipse 8079" cx="1.391" cy="1.391" r="1.391" transform="translate(0.089 2.78) rotate(-88.41)" fill="#fff"/>
              <path id="Trazado_782833" data-name="Trazado 782833" d="M3925.691,942.29a1.391,1.391,0,1,0,1.391,1.391A1.39,1.39,0,0,0,3925.691,942.29Z" transform="translate(-3919.709 -937.935)" fill="#fff"/>
            </g>
          </g>
          <g id="Grupo_1048978" data-name="Grupo 1048978" transform="translate(155.188 23.537)">
            <circle id="Elipse_8080" data-name="Elipse 8080" cx="8.142" cy="8.142" r="8.142" transform="translate(0 1.603) rotate(-5.65)" fill="#d1dbed"/>
            <path id="Trazado_782834" data-name="Trazado 782834" d="M2507.715,704.217c-.692-.231-3.645.617-5.689,3.23-1.384,1.769-4.767,2.383-4.69,3.075s1.615.615,4.075.615,3.153-4,4.229-3.691.539,3.691.539,3.691h1.153s.461-3.153.769-4.536S2508.127,704.354,2507.715,704.217Z" transform="translate(-2493.875 -698.775)" fill="#fff"/>
          </g>
          <g id="Grupo_1048980" data-name="Grupo 1048980" transform="translate(9.767 79.367)">
            <path id="Trazado_782835" data-name="Trazado 782835" d="M574.989,1357.89a7.789,7.789,0,1,0,7.789,7.789A7.789,7.789,0,0,0,574.989,1357.89Z" transform="translate(-567.2 -1357.89)" fill="#99b1da"/>
            <g id="Grupo_1048979" data-name="Grupo 1048979" transform="translate(2.542 4.192)">
              <path id="Trazado_782836" data-name="Trazado 782836" d="M609.976,1412.24h-9.157a.67.67,0,0,0-.67.669v5.855a.67.67,0,0,0,.67.669h9.157a.669.669,0,0,0,.67-.669v-5.855A.669.669,0,0,0,609.976,1412.24Zm-.67,5.854H601.49v-4.515h7.817Z" transform="translate(-600.15 -1412.24)" fill="#fff"/>
              <path id="Trazado_782837" data-name="Trazado 782837" d="M608.719,1417.193l-4.295-3.223-.8,1.071,4.708,3.533a.667.667,0,0,0,.4.134.684.684,0,0,0,.417-.145l4.448-3.533-.833-1.049Z" transform="translate(-603.352 -1413.837)" fill="#fff"/>
            </g>
          </g>
        </g>
      </g>
    </g>
  </g>
</svg>
