<svg xmlns="http://www.w3.org/2000/svg" xmlns:xlink="http://www.w3.org/1999/xlink" width="185.21" height="31.659" viewBox="0 0 185.21 31.659">
  <defs>
    <clipPath id="clip-path">
      <path id="Trazado_778658" data-name="Trazado 778658" d="M653.54,0a2.6,2.6,0,0,0-2.347,1.485l-3.159,6.548A1.929,1.929,0,0,1,646.591,9.1l-7.185,1.11a2.626,2.626,0,0,0-1.415,4.491l5.251,5.028a1.928,1.928,0,0,1,.57,1.7l-1.165,7.176a2.631,2.631,0,0,0,2.59,3.052h.005a2.612,2.612,0,0,0,1.239-.318l6.4-3.441a1.928,1.928,0,0,1,1.794-.016l6.465,3.325a2.626,2.626,0,0,0,3.785-2.8l-1.293-7.154a1.928,1.928,0,0,1,.539-1.712l5.16-5.121a2.626,2.626,0,0,0-1.5-4.465l-7.2-.981a1.929,1.929,0,0,1-1.461-1.042L655.9,1.442A2.593,2.593,0,0,0,653.576,0Z" transform="translate(-637.179)" fill="#fff"/>
    </clipPath>
    <clipPath id="clip-path-3">
      <path id="Trazado_778659" data-name="Trazado 778659" d="M441.147,0A2.6,2.6,0,0,0,438.8,1.485L435.64,8.033A1.929,1.929,0,0,1,434.2,9.1l-7.185,1.11A2.626,2.626,0,0,0,425.6,14.7l5.251,5.028a1.928,1.928,0,0,1,.57,1.7l-1.165,7.176a2.631,2.631,0,0,0,2.59,3.052h.005a2.612,2.612,0,0,0,1.239-.318l6.4-3.441a1.928,1.928,0,0,1,1.794-.016l6.465,3.325a2.626,2.626,0,0,0,3.785-2.8l-1.293-7.154a1.928,1.928,0,0,1,.539-1.712l5.16-5.121a2.626,2.626,0,0,0-1.5-4.465l-7.2-.981a1.929,1.929,0,0,1-1.461-1.042l-3.276-6.49A2.593,2.593,0,0,0,441.183,0Z" transform="translate(-424.786)" fill="#fff"/>
    </clipPath>
    <clipPath id="clip-path-4">
      <path id="Trazado_778660" data-name="Trazado 778660" d="M228.754,0a2.6,2.6,0,0,0-2.347,1.485l-3.159,6.548A1.929,1.929,0,0,1,221.805,9.1l-7.185,1.11a2.626,2.626,0,0,0-1.415,4.491l5.251,5.028a1.928,1.928,0,0,1,.57,1.7l-1.165,7.176a2.631,2.631,0,0,0,2.59,3.052h.005a2.612,2.612,0,0,0,1.239-.318l6.4-3.441a1.929,1.929,0,0,1,1.795-.016l6.465,3.325a2.626,2.626,0,0,0,3.785-2.8l-1.293-7.154a1.928,1.928,0,0,1,.539-1.712l5.16-5.121a2.626,2.626,0,0,0-1.5-4.465l-7.2-.981a1.928,1.928,0,0,1-1.461-1.042l-3.276-6.49A2.593,2.593,0,0,0,228.79,0Z" transform="translate(-212.393)" fill="#fff"/>
    </clipPath>
    <clipPath id="clip-path-5">
      <path id="Trazado_778661" data-name="Trazado 778661" d="M16.361,0a2.6,2.6,0,0,0-2.347,1.485L10.855,8.033A1.929,1.929,0,0,1,9.412,9.1L2.228,10.21A2.626,2.626,0,0,0,.813,14.7L6.064,19.73a1.928,1.928,0,0,1,.57,1.7L5.469,28.607a2.631,2.631,0,0,0,2.59,3.052h.005A2.613,2.613,0,0,0,9.3,31.341l6.4-3.441a1.928,1.928,0,0,1,1.794-.016l6.465,3.325a2.626,2.626,0,0,0,3.785-2.8l-1.293-7.154A1.929,1.929,0,0,1,27,19.542l5.16-5.121a2.626,2.626,0,0,0-1.5-4.465l-7.2-.981A1.928,1.928,0,0,1,22,7.933l-3.276-6.49A2.594,2.594,0,0,0,16.4,0Z" transform="translate(0)" fill="#fff"/>
    </clipPath>
  </defs>
  <g id="Grupo_1047204" data-name="Grupo 1047204" transform="translate(0)">
    <g id="Grupo_1047205" data-name="Grupo 1047205" transform="translate(114.205)">
      <g id="Grupo_1047204-2" data-name="Grupo 1047204" clip-path="url(#clip-path)">
        <rect id="Rectángulo_357241" data-name="Rectángulo 357241" width="34.462" height="32.205" transform="translate(-0.759)" fill="#fff"/>
      </g>
    </g>
    <g id="Grupo_1047212" data-name="Grupo 1047212" transform="translate(152.273)">
      <g id="Grupo_1047204-3" data-name="Grupo 1047204" clip-path="url(#clip-path)">
        <rect id="Rectángulo_357241-2" data-name="Rectángulo 357241" width="34.462" height="32.205" transform="translate(-0.759)" fill="#fff"/>
      </g>
    </g>
    <g id="Grupo_1047207" data-name="Grupo 1047207" transform="translate(76.136)">
      <g id="Grupo_1047206" data-name="Grupo 1047206" clip-path="url(#clip-path-3)">
        <rect id="Rectángulo_357242" data-name="Rectángulo 357242" width="34.462" height="32.205" transform="translate(-0.759)" fill="#fff"/>
      </g>
    </g>
    <g id="Grupo_1047209" data-name="Grupo 1047209" transform="translate(38.068)">
      <g id="Grupo_1047208" data-name="Grupo 1047208" clip-path="url(#clip-path-4)">
        <rect id="Rectángulo_357243" data-name="Rectángulo 357243" width="34.462" height="32.205" transform="translate(-0.759)" fill="#fff"/>
      </g>
    </g>
    <g id="Grupo_1047211" data-name="Grupo 1047211" transform="translate(0)">
      <g id="Grupo_1047210" data-name="Grupo 1047210" clip-path="url(#clip-path-5)">
        <rect id="Rectángulo_357244" data-name="Rectángulo 357244" width="34.462" height="32.205" transform="translate(-0.759)" fill="#fff"/>
      </g>
    </g>
  </g>
</svg>
