<svg xmlns="http://www.w3.org/2000/svg" xmlns:xlink="http://www.w3.org/1999/xlink" width="356" height="148.086" viewBox="0 0 356 148.086">
  <defs>
    <clipPath id="clip-path">
      <rect id="Rectángulo_359189" data-name="Rectángulo 359189" width="355.803" height="148.086" fill="none"/>
    </clipPath>
  </defs>
  <g id="Grupo_1048906" data-name="Grupo 1048906" transform="translate(0 -0.004)">
    <rect id="Rectángulo_359059" data-name="Rectángulo 359059" width="48.546" height="36.501" transform="translate(152.377 0.004)" fill="#eac58f"/>
    <rect id="Rectángulo_359060" data-name="Rectángulo 359060" width="27.54" height="36.501" transform="translate(194.253 0.004)" fill="#c69c6a"/>
    <rect id="Rectángulo_359061" data-name="Rectángulo 359061" width="10.07" height="16.249" transform="translate(156.145 3.376)" fill="#ffefde"/>
    <path id="Trazado_781387" data-name="Trazado 781387" d="M3876.852,0V8.5l.691-.941,1.073.476,1.059-.815.91,1.281,1.374-.965.709.5V0Z" transform="translate(-3706.305 -0.001)" fill="#c69c6a"/>
    <path id="Trazado_781388" data-name="Trazado 781388" d="M4738.788,0V7.237l.433-.56.665.822.441-.759.627.5.348-.534.3.569V0Z" transform="translate(-4530.323 -0.001)" fill="#a37652"/>
    <rect id="Rectángulo_359062" data-name="Rectángulo 359062" width="1.662" height="5.898" transform="translate(181.005 27.27)" fill="#aa835c"/>
    <rect id="Rectángulo_359063" data-name="Rectángulo 359063" width="0.538" height="5.898" transform="translate(183.445 27.27)" fill="#aa835c"/>
    <rect id="Rectángulo_359064" data-name="Rectángulo 359064" width="0.269" height="5.898" transform="translate(184.451 27.27)" fill="#aa835c"/>
    <rect id="Rectángulo_359065" data-name="Rectángulo 359065" width="0.269" height="5.898" transform="translate(186.805 27.27)" fill="#aa835c"/>
    <rect id="Rectángulo_359066" data-name="Rectángulo 359066" width="0.269" height="5.898" transform="translate(187.542 27.27)" fill="#aa835c"/>
    <rect id="Rectángulo_359067" data-name="Rectángulo 359067" width="0.499" height="5.898" transform="translate(190.076 27.27)" fill="#aa835c"/>
    <rect id="Rectángulo_359068" data-name="Rectángulo 359068" width="0.571" height="5.898" transform="translate(185.039 27.27)" fill="#aa835c"/>
    <rect id="Rectángulo_359069" data-name="Rectángulo 359069" width="0.888" height="5.898" transform="translate(188.193 27.27)" fill="#aa835c"/>
    <path id="Trazado_781389" data-name="Trazado 781389" d="M352.472,827.776l340.494.61L635.94,716.373Z" transform="translate(-336.967 -684.856)" fill="#efe6df"/>
    <g id="Grupo_1047928" data-name="Grupo 1047928" transform="translate(0 0.004)">
      <g id="Grupo_1047927" data-name="Grupo 1047927" transform="translate(0 0)" clip-path="url(#clip-path)">
        <path id="Trazado_781390" data-name="Trazado 781390" d="M355.8,3222.338c0,2.519-76.23,4.56-175.7,4.56S0,3224.857,0,3222.338s80.635-1.74,180.1-1.74,175.7-.779,175.7,1.74" transform="translate(0 -3078.812)" fill="#b27d56"/>
        <rect id="Rectángulo_359070" data-name="Rectángulo 359070" width="200.672" height="10.27" transform="translate(15.506 130.387)" fill="#59372c"/>
        <rect id="Rectángulo_359071" data-name="Rectángulo 359071" width="100.336" height="2.259" transform="translate(15.506 140.657)" fill="#ffd399"/>
        <rect id="Rectángulo_359072" data-name="Rectángulo 359072" width="100.336" height="2.259" transform="translate(15.506 128.128)" fill="#ffd399"/>
        <rect id="Rectángulo_359073" data-name="Rectángulo 359073" width="100.336" height="2.259" transform="translate(115.842 140.657)" fill="#b27d56"/>
        <rect id="Rectángulo_359074" data-name="Rectángulo 359074" width="100.336" height="2.259" transform="translate(115.842 128.128)" fill="#b27d56"/>
        <rect id="Rectángulo_359075" data-name="Rectángulo 359075" width="8.714" height="14.788" transform="translate(107.127 128.128)" fill="#ffd399"/>
        <rect id="Rectángulo_359076" data-name="Rectángulo 359076" width="8.714" height="14.788" transform="translate(115.842 128.128)" fill="#b27d56"/>
        <rect id="Rectángulo_359077" data-name="Rectángulo 359077" width="8.714" height="14.788" transform="translate(161.652 128.128)" fill="#b27d56"/>
        <rect id="Rectángulo_359078" data-name="Rectángulo 359078" width="8.714" height="14.788" transform="translate(207.463 128.128)" fill="#b27d56"/>
        <rect id="Rectángulo_359079" data-name="Rectángulo 359079" width="8.714" height="10.27" transform="translate(152.938 130.387)" fill="#ffd399"/>
        <rect id="Rectángulo_359080" data-name="Rectángulo 359080" width="8.714" height="10.27" transform="translate(198.749 130.387)" fill="#ffd399"/>
        <rect id="Rectángulo_359081" data-name="Rectángulo 359081" width="8.714" height="14.788" transform="translate(15.506 128.128)" fill="#ffd399"/>
        <rect id="Rectángulo_359082" data-name="Rectángulo 359082" width="8.714" height="10.27" transform="translate(24.22 130.387)" fill="#b27d56"/>
        <rect id="Rectángulo_359083" data-name="Rectángulo 359083" width="8.714" height="14.788" transform="translate(61.316 128.128)" fill="#ffd399"/>
        <rect id="Rectángulo_359084" data-name="Rectángulo 359084" width="8.714" height="10.27" transform="translate(70.031 130.387)" fill="#b27d56"/>
        <rect id="Rectángulo_359085" data-name="Rectángulo 359085" width="91.626" height="91.626" transform="translate(19.863 36.501)" fill="#ffb583"/>
        <rect id="Rectángulo_359086" data-name="Rectángulo 359086" width="100.336" height="91.626" transform="translate(111.484 36.501)" fill="#c4765b"/>
        <rect id="Rectángulo_359087" data-name="Rectángulo 359087" width="0.945" height="91.626" transform="translate(65.203 36.501)" fill="#c4765b"/>
        <rect id="Rectángulo_359088" data-name="Rectángulo 359088" width="0.945" height="91.626" transform="translate(161.18 36.501)" fill="#a55e4a"/>
        <rect id="Rectángulo_359089" data-name="Rectángulo 359089" width="0.508" height="91.626" transform="translate(162.125 36.501)" fill="#d8856f"/>
        <rect id="Rectángulo_359090" data-name="Rectángulo 359090" width="100.336" height="0.562" transform="translate(111.484 82.003)" fill="#a55e4a"/>
        <rect id="Rectángulo_359091" data-name="Rectángulo 359091" width="91.622" height="0.562" transform="translate(19.863 82.003)" fill="#c4765b"/>
        <rect id="Rectángulo_359092" data-name="Rectángulo 359092" width="100.331" height="0.623" transform="translate(111.489 82.565)" fill="#d8856f"/>
        <rect id="Rectángulo_359093" data-name="Rectángulo 359093" width="0.945" height="5.883" transform="translate(161.18 79.255)" fill="#a55e4a"/>
        <path id="Trazado_781391" data-name="Trazado 781391" d="M888.329,916.943c0,.382-2.981.382-2.981,0V823.058c0-.411,2.981-.411,2.981,0Z" transform="translate(-846.401 -786.556)" fill="#f7e7e2"/>
        <path id="Trazado_781392" data-name="Trazado 781392" d="M2014.26,919.67c0,.6-2.981.6-2.981,0V825.784a6.18,6.18,0,0,1,2.981,0Z" transform="translate(-1922.801 -789.283)" fill="#f7e7e2"/>
        <rect id="Rectángulo_359094" data-name="Rectángulo 359094" width="10.358" height="8.891" transform="translate(22.733 39.802)" fill="#ffefde"/>
        <rect id="Rectángulo_359095" data-name="Rectángulo 359095" width="0.876" height="6.05" transform="translate(56.393 72.72)" fill="#c4765b"/>
        <rect id="Rectángulo_359096" data-name="Rectángulo 359096" width="0.283" height="6.05" transform="translate(57.679 72.72)" fill="#c4765b"/>
        <rect id="Rectángulo_359097" data-name="Rectángulo 359097" width="0.283" height="6.05" transform="translate(58.21 72.72)" fill="#c4765b"/>
        <rect id="Rectángulo_359098" data-name="Rectángulo 359098" width="0.283" height="6.05" transform="translate(61.159 72.72)" fill="#c4765b"/>
        <rect id="Rectángulo_359099" data-name="Rectángulo 359099" width="0.283" height="6.05" transform="translate(61.689 72.72)" fill="#c4765b"/>
        <rect id="Rectángulo_359100" data-name="Rectángulo 359100" width="0.923" height="6.05" transform="translate(59.099 72.72)" fill="#c4765b"/>
        <rect id="Rectángulo_359101" data-name="Rectángulo 359101" width="0.301" height="6.05" transform="translate(60.42 72.72)" fill="#c4765b"/>
        <rect id="Rectángulo_359102" data-name="Rectángulo 359102" width="0.468" height="6.05" transform="translate(62.441 72.72)" fill="#c4765b"/>
        <rect id="Rectángulo_359103" data-name="Rectángulo 359103" width="10.358" height="8.891" transform="translate(68.391 39.802)" fill="#ffefde"/>
        <rect id="Rectángulo_359104" data-name="Rectángulo 359104" width="0.876" height="6.05" transform="translate(102.05 72.72)" fill="#c4765b"/>
        <rect id="Rectángulo_359105" data-name="Rectángulo 359105" width="0.283" height="6.05" transform="translate(103.337 72.72)" fill="#c4765b"/>
        <rect id="Rectángulo_359106" data-name="Rectángulo 359106" width="0.283" height="6.05" transform="translate(103.867 72.72)" fill="#c4765b"/>
        <rect id="Rectángulo_359107" data-name="Rectángulo 359107" width="0.283" height="6.05" transform="translate(106.816 72.72)" fill="#c4765b"/>
        <rect id="Rectángulo_359108" data-name="Rectángulo 359108" width="0.283" height="6.05" transform="translate(107.346 72.72)" fill="#c4765b"/>
        <rect id="Rectángulo_359109" data-name="Rectángulo 359109" width="0.923" height="6.05" transform="translate(104.757 72.72)" fill="#c4765b"/>
        <rect id="Rectángulo_359110" data-name="Rectángulo 359110" width="0.301" height="6.05" transform="translate(106.077 72.72)" fill="#c4765b"/>
        <rect id="Rectángulo_359111" data-name="Rectángulo 359111" width="0.468" height="6.05" transform="translate(108.098 72.72)" fill="#c4765b"/>
        <rect id="Rectángulo_359112" data-name="Rectángulo 359112" width="10.358" height="8.891" transform="translate(68.391 86.174)" fill="#ffefde"/>
        <rect id="Rectángulo_359113" data-name="Rectángulo 359113" width="0.876" height="6.05" transform="translate(102.05 119.092)" fill="#c4765b"/>
        <rect id="Rectángulo_359114" data-name="Rectángulo 359114" width="0.283" height="6.05" transform="translate(103.337 119.092)" fill="#c4765b"/>
        <rect id="Rectángulo_359115" data-name="Rectángulo 359115" width="0.283" height="6.05" transform="translate(103.867 119.092)" fill="#c4765b"/>
        <rect id="Rectángulo_359116" data-name="Rectángulo 359116" width="0.283" height="6.05" transform="translate(106.816 119.092)" fill="#c4765b"/>
        <rect id="Rectángulo_359117" data-name="Rectángulo 359117" width="0.283" height="6.05" transform="translate(107.346 119.092)" fill="#c4765b"/>
        <rect id="Rectángulo_359118" data-name="Rectángulo 359118" width="0.923" height="6.05" transform="translate(104.757 119.092)" fill="#c4765b"/>
        <rect id="Rectángulo_359119" data-name="Rectángulo 359119" width="0.301" height="6.05" transform="translate(106.077 119.092)" fill="#c4765b"/>
        <rect id="Rectángulo_359120" data-name="Rectángulo 359120" width="0.468" height="6.05" transform="translate(108.098 119.092)" fill="#c4765b"/>
        <rect id="Rectángulo_359121" data-name="Rectángulo 359121" width="10.358" height="8.891" transform="translate(22.733 86.174)" fill="#ffefde"/>
        <rect id="Rectángulo_359122" data-name="Rectángulo 359122" width="0.876" height="6.05" transform="translate(56.393 119.092)" fill="#c4765b"/>
        <rect id="Rectángulo_359123" data-name="Rectángulo 359123" width="0.283" height="6.05" transform="translate(57.679 119.092)" fill="#c4765b"/>
        <rect id="Rectángulo_359124" data-name="Rectángulo 359124" width="0.283" height="6.05" transform="translate(58.21 119.092)" fill="#c4765b"/>
        <rect id="Rectángulo_359125" data-name="Rectángulo 359125" width="0.283" height="6.05" transform="translate(61.159 119.092)" fill="#c4765b"/>
        <rect id="Rectángulo_359126" data-name="Rectángulo 359126" width="0.283" height="6.05" transform="translate(61.689 119.092)" fill="#c4765b"/>
        <rect id="Rectángulo_359127" data-name="Rectángulo 359127" width="0.923" height="6.05" transform="translate(59.099 119.092)" fill="#c4765b"/>
        <rect id="Rectángulo_359128" data-name="Rectángulo 359128" width="0.301" height="6.05" transform="translate(60.42 119.092)" fill="#c4765b"/>
        <rect id="Rectángulo_359129" data-name="Rectángulo 359129" width="0.468" height="6.05" transform="translate(62.441 119.092)" fill="#c4765b"/>
        <path id="Trazado_781393" data-name="Trazado 781393" d="M3089.124,837.864l-10.188-1.81v-6.3h10.188Z" transform="translate(-2943.49 -793.25)" fill="#a55e4a"/>
        <path id="Trazado_781394" data-name="Trazado 781394" d="M3089.124,1875.155l-10.188-.867v-10.195h10.188Z" transform="translate(-2943.49 -1782.089)" fill="#a55e4a"/>
        <rect id="Rectángulo_359130" data-name="Rectángulo 359130" width="10.189" height="9.225" transform="translate(185.476 36.501)" fill="#a55e4a"/>
        <path id="Trazado_781395" data-name="Trazado 781395" d="M4241.991,1879.073l-10.189.612v-8.516h10.189Z" transform="translate(-4045.641 -1788.855)" fill="#a55e4a"/>
        <path id="Trazado_781396" data-name="Trazado 781396" d="M3190.773,918.617c0,.556-2.981.556-2.981,0V824.732c0-.308,2.981-.308,2.981,0Z" transform="translate(-3047.557 -788.23)" fill="#dbc5bd"/>
        <path id="Trazado_781397" data-name="Trazado 781397" d="M4316.7,920.3c0,.622-2.981.622-2.981,0V826.416a7.318,7.318,0,0,1,2.981,0Z" transform="translate(-4123.956 -789.915)" fill="#dbc5bd"/>
        <rect id="Rectángulo_359131" data-name="Rectángulo 359131" width="147.723" height="7.56" transform="translate(165.982 133.693)" fill="#59372c"/>
        <rect id="Rectángulo_359132" data-name="Rectángulo 359132" width="73.862" height="1.663" transform="translate(165.982 141.253)" fill="#ffd399"/>
        <rect id="Rectángulo_359133" data-name="Rectángulo 359133" width="73.862" height="1.663" transform="translate(165.982 132.03)" fill="#ffd399"/>
        <rect id="Rectángulo_359134" data-name="Rectángulo 359134" width="73.862" height="1.663" transform="translate(239.844 141.253)" fill="#b27d56"/>
        <rect id="Rectángulo_359135" data-name="Rectángulo 359135" width="73.862" height="1.663" transform="translate(239.844 132.03)" fill="#b27d56"/>
        <rect id="Rectángulo_359136" data-name="Rectángulo 359136" width="6.415" height="10.886" transform="translate(233.429 132.03)" fill="#ffd399"/>
        <rect id="Rectángulo_359137" data-name="Rectángulo 359137" width="6.415" height="10.886" transform="translate(239.844 132.03)" fill="#b27d56"/>
        <rect id="Rectángulo_359138" data-name="Rectángulo 359138" width="6.415" height="10.886" transform="translate(273.567 132.03)" fill="#b27d56"/>
        <rect id="Rectángulo_359139" data-name="Rectángulo 359139" width="6.415" height="10.886" transform="translate(307.29 132.03)" fill="#b27d56"/>
        <rect id="Rectángulo_359140" data-name="Rectángulo 359140" width="6.415" height="7.56" transform="translate(267.152 133.693)" fill="#ffd399"/>
        <rect id="Rectángulo_359141" data-name="Rectángulo 359141" width="6.415" height="7.56" transform="translate(300.875 133.693)" fill="#ffd399"/>
        <rect id="Rectángulo_359142" data-name="Rectángulo 359142" width="6.415" height="10.886" transform="translate(165.982 132.03)" fill="#ffd399"/>
        <rect id="Rectángulo_359143" data-name="Rectángulo 359143" width="6.415" height="7.56" transform="translate(172.397 133.693)" fill="#b27d56"/>
        <rect id="Rectángulo_359144" data-name="Rectángulo 359144" width="6.415" height="10.886" transform="translate(199.705 132.03)" fill="#ffd399"/>
        <rect id="Rectángulo_359145" data-name="Rectángulo 359145" width="6.415" height="7.56" transform="translate(206.12 133.693)" fill="#b27d56"/>
        <rect id="Rectángulo_359146" data-name="Rectángulo 359146" width="67.446" height="56.764" transform="translate(169.19 75.266)" fill="#eac58f"/>
        <rect id="Rectángulo_359147" data-name="Rectángulo 359147" width="2.596" height="51.358" transform="translate(185.791 80.672)" fill="#c69c6a"/>
        <rect id="Rectángulo_359148" data-name="Rectángulo 359148" width="1.477" height="6.503" transform="translate(222.583 123.355)" fill="#a37652"/>
        <rect id="Rectángulo_359149" data-name="Rectángulo 359149" width="0.478" height="6.503" transform="translate(224.751 123.355)" fill="#a37652"/>
        <rect id="Rectángulo_359150" data-name="Rectángulo 359150" width="0.478" height="6.503" transform="translate(225.645 123.355)" fill="#a37652"/>
        <rect id="Rectángulo_359151" data-name="Rectángulo 359151" width="0.478" height="6.503" transform="translate(230.613 123.355)" fill="#a37652"/>
        <rect id="Rectángulo_359152" data-name="Rectángulo 359152" width="0.478" height="6.503" transform="translate(231.507 123.355)" fill="#a37652"/>
        <rect id="Rectángulo_359153" data-name="Rectángulo 359153" width="1.555" height="6.503" transform="translate(227.143 123.355)" fill="#a37652"/>
        <rect id="Rectángulo_359154" data-name="Rectángulo 359154" width="0.507" height="6.503" transform="translate(229.368 123.355)" fill="#a37652"/>
        <rect id="Rectángulo_359155" data-name="Rectángulo 359155" width="0.789" height="6.503" transform="translate(232.773 123.355)" fill="#a37652"/>
        <rect id="Rectángulo_359156" data-name="Rectángulo 359156" width="73.862" height="56.764" transform="translate(236.636 75.266)" fill="#c69c6a"/>
        <rect id="Rectángulo_359157" data-name="Rectángulo 359157" width="74.896" height="4.829" transform="translate(236.636 75.266)" fill="#c69c6a"/>
        <rect id="Rectángulo_359158" data-name="Rectángulo 359158" width="69.188" height="4.829" transform="translate(168.067 75.266)" fill="#eac58f"/>
        <rect id="Rectángulo_359159" data-name="Rectángulo 359159" width="141.308" height="1.155" transform="translate(169.19 80.094)" fill="#c69c6a"/>
        <path id="Trazado_781398" data-name="Trazado 781398" d="M5453.048,1823.108l-73.861-1.258v-1.156h73.861Z" transform="translate(-5142.551 -1740.6)" fill="#a37652"/>
        <rect id="Rectángulo_359160" data-name="Rectángulo 359160" width="3.716" height="51.936" transform="translate(273.059 80.094)" fill="#a37652"/>
        <rect id="Rectángulo_359161" data-name="Rectángulo 359161" width="1.164" height="4.829" transform="translate(274.335 75.266)" fill="#a37652"/>
        <rect id="Rectángulo_359162" data-name="Rectángulo 359162" width="10.71" height="15.352" transform="translate(172.589 87.89)" fill="#ffefde"/>
        <path id="Trazado_781399" data-name="Trazado 781399" d="M4218.819,1761.781c0,.342-1.989.342-1.989,0v-58.427c0-.465,1.989-.465,1.989,0Z" transform="translate(-4031.328 -1628.088)" fill="#f7e7e2"/>
        <rect id="Rectángulo_359163" data-name="Rectángulo 359163" width="2.596" height="51.358" transform="translate(217.584 80.672)" fill="#c69c6a"/>
        <path id="Trazado_781400" data-name="Trazado 781400" d="M4941.542,1765.146c0,.342-1.989.342-1.989,0v-58.427c0-.258,1.989-.258,1.989,0Z" transform="translate(-4722.256 -1631.453)" fill="#f7e7e2"/>
        <rect id="Rectángulo_359164" data-name="Rectángulo 359164" width="89.74" height="66.625" transform="translate(214.561 8.64)" fill="#ffa480"/>
        <rect id="Rectángulo_359165" data-name="Rectángulo 359165" width="16.239" height="66.625" transform="translate(288.062 8.64)" fill="#c66959"/>
        <rect id="Rectángulo_359166" data-name="Rectángulo 359166" width="18.359" height="15.759" transform="translate(219.138 13.102)" fill="#ffefde"/>
        <path id="Trazado_781401" data-name="Trazado 781401" d="M5604.118,196.413v11.5l1.754-2.068,2.316,1.438,2.443-1.1,2.1,1.733,3.169-1.306,1.636.676V196.413Z" transform="translate(-5357.586 -187.773)" fill="#f7ddc6"/>
        <path id="Trazado_781402" data-name="Trazado 781402" d="M6720.55,196.413v9.175l-.368-.719-.431.674-.777-.628-.545.959-.825-1.037-.536.707v-9.13Z" transform="translate(-6421.577 -187.773)" fill="#ddb99e"/>
        <rect id="Rectángulo_359167" data-name="Rectángulo 359167" width="1.553" height="10.723" transform="translate(270.348 13.47)" fill="#c66959"/>
        <rect id="Rectángulo_359168" data-name="Rectángulo 359168" width="0.502" height="10.723" transform="translate(272.629 13.47)" fill="#c66959"/>
        <rect id="Rectángulo_359169" data-name="Rectángulo 359169" width="0.502" height="10.723" transform="translate(273.569 13.47)" fill="#c66959"/>
        <rect id="Rectángulo_359170" data-name="Rectángulo 359170" width="0.502" height="10.723" transform="translate(278.795 13.47)" fill="#c66959"/>
        <rect id="Rectángulo_359171" data-name="Rectángulo 359171" width="0.502" height="10.723" transform="translate(279.735 13.47)" fill="#c66959"/>
        <rect id="Rectángulo_359172" data-name="Rectángulo 359172" width="1.636" height="10.723" transform="translate(275.145 13.47)" fill="#c66959"/>
        <rect id="Rectángulo_359173" data-name="Rectángulo 359173" width="0.533" height="10.723" transform="translate(277.486 13.47)" fill="#c66959"/>
        <rect id="Rectángulo_359174" data-name="Rectángulo 359174" width="0.83" height="10.723" transform="translate(281.067 13.47)" fill="#c66959"/>
        <path id="Trazado_781403" data-name="Trazado 781403" d="M5794.723,716.373l29.9,39.194v4.558h-33.3v-28.95Z" transform="translate(-5536.561 -684.859)" fill="#d37b63"/>
        <rect id="Rectángulo_359175" data-name="Rectángulo 359175" width="55.98" height="42.726" transform="translate(201.248 32.539)" fill="#eac58f"/>
        <rect id="Rectángulo_359176" data-name="Rectángulo 359176" width="10.13" height="42.726" transform="translate(247.099 32.539)" fill="#c69c6a"/>
        <rect id="Rectángulo_359177" data-name="Rectángulo 359177" width="15.237" height="7.832" transform="translate(204.103 44.923)" fill="#ffefde"/>
        <rect id="Rectángulo_359178" data-name="Rectángulo 359178" width="49.107" height="8.636" transform="translate(200.125 31.514)" fill="#eac58f"/>
        <rect id="Rectángulo_359179" data-name="Rectángulo 359179" width="10.212" height="8.636" transform="translate(247.951 31.514)" fill="#c69c6a"/>
        <path id="Trazado_781404" data-name="Trazado 781404" d="M4620.607,914.053l-45.851-.678V912.7h45.851Z" transform="translate(-4373.507 -872.546)" fill="#c69c6a"/>
        <rect id="Rectángulo_359180" data-name="Rectángulo 359180" width="10.13" height="1.357" transform="translate(247.099 40.15)" fill="#a37652"/>
        <path id="Trazado_781405" data-name="Trazado 781405" d="M5102.068,964.25h.625l.256-34.359h-.881Z" transform="translate(-4877.623 -888.985)" fill="#c69c6a"/>
        <rect id="Rectángulo_359181" data-name="Rectángulo 359181" width="1.662" height="5.898" transform="translate(233.39 66.448)" fill="#aa835c"/>
        <rect id="Rectángulo_359182" data-name="Rectángulo 359182" width="0.538" height="5.898" transform="translate(235.83 66.448)" fill="#aa835c"/>
        <rect id="Rectángulo_359183" data-name="Rectángulo 359183" width="0.269" height="5.898" transform="translate(236.836 66.448)" fill="#aa835c"/>
        <rect id="Rectángulo_359184" data-name="Rectángulo 359184" width="0.269" height="5.898" transform="translate(239.19 66.448)" fill="#aa835c"/>
        <rect id="Rectángulo_359185" data-name="Rectángulo 359185" width="0.269" height="5.898" transform="translate(239.927 66.448)" fill="#aa835c"/>
        <rect id="Rectángulo_359186" data-name="Rectángulo 359186" width="0.499" height="5.898" transform="translate(242.461 66.448)" fill="#aa835c"/>
        <rect id="Rectángulo_359187" data-name="Rectángulo 359187" width="0.571" height="5.898" transform="translate(237.424 66.448)" fill="#aa835c"/>
        <rect id="Rectángulo_359188" data-name="Rectángulo 359188" width="0.888" height="5.898" transform="translate(240.578 66.448)" fill="#aa835c"/>
        <path id="Trazado_781406" data-name="Trazado 781406" d="M5759.132,758.406h-.761l.534-43.752c0-.105.762-.105.762,0Z" transform="translate(-5505.055 -683.14)" fill="#ddb99e"/>
        <path id="Trazado_781407" data-name="Trazado 781407" d="M5078.689,758.356h-1.09l-.312-43.752a1.865,1.865,0,0,1,1.09,0Z" transform="translate(-4853.932 -683.09)" fill="#ffefde"/>
        <path id="Trazado_781408" data-name="Trazado 781408" d="M5758.371,947.811l.429-35.115h-.429Z" transform="translate(-5505.054 -872.546)" fill="#a37652"/>
      </g>
    </g>
  </g>
</svg>
