<svg xmlns="http://www.w3.org/2000/svg" width="272" height="198" viewBox="0 0 272 198">
  <g id="Grupo_1054329" data-name="Grupo 1054329" transform="translate(-571 4383)">
    <rect id="AdobeStock_590491381" width="272" height="198" rx="11" transform="translate(571 -4383)" fill="#2f3c4b"/>
    <g id="_7000947" data-name="7000947" transform="translate(565.21 -4365.088)">
      <g id="Background_Complete" data-name="Background Complete" transform="translate(35.849 5.088)">
        <g id="Grupo_1046420" data-name="Grupo 1046420" transform="translate(1.056 74.552)">
          <g id="Grupo_1046418" data-name="Grupo 1046418">
            <path id="Trazado_776340" data-name="Trazado 776340" d="M59.042,220.205s-2.745-.2-2.492,5.958a71.553,71.553,0,0,0,.88,9.437s-.08,1.365-1.137,1.1-3.046-1.6-4.027-.6c-1.019,1.029-.655,2.61.693,4.471s4.162,6.044,4.415,6.425.347,1.071-.4,1.005-5.809-1.781-6.477.669,3.947,7.015,4.44,7.524.523.828.322,1.137-1.847-.43-3.306-.856-3.227-.669-3.493.776,1.764,5.677,9.378,10.12L61.5,269.2l3.466-2.211c7.132-5.185,8.73-9.6,8.321-11.007s-2.145-.995-3.552-.423-2.974,1.469-3.2,1.185-.236-.61.2-1.164,4.578-5.559,3.667-7.93-5.774-.159-6.512-.017-.71-.561-.5-.96,2.592-4.849,3.75-6.834,1.362-3.594.243-4.516c-1.078-.891-2.922.631-3.947,1s-1.241-.977-1.241-.977a71.2,71.2,0,0,0-.066-9.475c-.364-6.152-3.14-5.656-3.14-5.656" transform="translate(-48.435 -220.202)" fill="#ebebeb"/>
            <path id="Trazado_776341" data-name="Trazado 776341" d="M79.66,236.12s.007.045.014.128.017.215.028.378c.024.34.055.828.1,1.456.083,1.262.191,3.091.315,5.351.25,4.519.544,10.764.846,17.661s.579,13.145.8,17.665c.114,2.256.208,4.083.274,5.351.031.627.055,1.116.073,1.456.007.163.01.288.014.378v.128s-.007-.045-.014-.128-.017-.215-.028-.378c-.024-.34-.055-.828-.1-1.452-.083-1.262-.191-3.091-.315-5.351-.25-4.519-.544-10.764-.846-17.665s-.579-13.142-.8-17.661c-.114-2.256-.208-4.083-.274-5.351-.031-.627-.055-1.116-.073-1.456-.007-.163-.01-.288-.014-.378v-.128Z" transform="translate(-68.838 -230.603)" fill="#e0e0e0"/>
            <path id="Trazado_776342" data-name="Trazado 776342" d="M67.289,271.74s.087.062.229.191.34.319.582.558c.482.478,1.133,1.158,1.837,1.92s1.31,1.435,1.792,1.962c.215.232.4.43.544.593a1.243,1.243,0,0,1,.191.225,1.18,1.18,0,0,1-.229-.187c-.142-.128-.34-.319-.579-.561-.478-.485-1.119-1.171-1.823-1.934l-1.806-1.948c-.215-.232-.4-.426-.548-.589a1.321,1.321,0,0,1-.191-.229Z" transform="translate(-60.754 -253.879)" fill="#e0e0e0"/>
            <path id="Trazado_776343" data-name="Trazado 776343" d="M83.269,275.478c-.028-.028,1.314-1.431,2.991-3.133s3.064-3.064,3.091-3.036-1.31,1.431-2.991,3.133S83.3,275.5,83.269,275.478Z" transform="translate(-71.196 -252.29)" fill="#e0e0e0"/>
            <path id="Trazado_776344" data-name="Trazado 776344" d="M83.22,310.184a2.587,2.587,0,0,1,.256-.163c.194-.111.433-.243.717-.4.6-.34,1.438-.811,2.339-1.365s1.7-1.078,2.277-1.466l.683-.457a1.027,1.027,0,0,1,.26-.152c.007.01-.076.08-.229.2s-.378.291-.658.492c-.561.409-1.355.95-2.263,1.5s-1.747,1.015-2.364,1.334c-.308.159-.561.281-.738.364a1.308,1.308,0,0,1-.281.114Z" transform="translate(-71.164 -276.38)" fill="#e0e0e0"/>
            <path id="Trazado_776345" data-name="Trazado 776345" d="M65.72,307.02a2.467,2.467,0,0,1,.253.118c.159.083.385.211.665.367.558.315,1.324.762,2.163,1.262s1.6.96,2.142,1.3c.274.17.492.308.641.409a1.127,1.127,0,0,1,.225.166,1.264,1.264,0,0,1-.253-.118c-.159-.083-.385-.211-.665-.367-.558-.315-1.324-.762-2.163-1.262s-1.6-.96-2.142-1.3c-.274-.17-.492-.308-.641-.409A1.127,1.127,0,0,1,65.72,307.02Z" transform="translate(-59.729 -276.932)" fill="#e0e0e0"/>
            <path id="Trazado_776346" data-name="Trazado 776346" d="M62.24,334.05s.118.049.322.156c.225.125.513.281.853.471.717.4,1.7.967,2.786,1.6s2.062,1.21,2.766,1.632l.832.509a1.554,1.554,0,0,1,.295.2,2.131,2.131,0,0,1-.322-.156c-.225-.125-.513-.281-.853-.471-.717-.4-1.7-.967-2.786-1.6s-2.062-1.21-2.766-1.632l-.832-.509A1.552,1.552,0,0,1,62.24,334.05Z" transform="translate(-57.455 -294.594)" fill="#e0e0e0"/>
            <path id="Trazado_776347" data-name="Trazado 776347" d="M84.427,336.755s.107-.083.319-.215c.232-.142.534-.322.891-.541.752-.457,1.788-1.1,2.911-1.826s2.128-1.421,2.849-1.923l.856-.6a2.439,2.439,0,0,1,.322-.2,1.855,1.855,0,0,1-.291.25c-.194.152-.475.371-.832.631-.707.523-1.7,1.227-2.831,1.962s-2.173,1.359-2.939,1.8c-.385.218-.7.388-.915.5a2.144,2.144,0,0,1-.347.166Z" transform="translate(-71.949 -292.894)" fill="#e0e0e0"/>
          </g>
          <g id="Grupo_1046419" data-name="Grupo 1046419" transform="translate(7.852 50.183)">
            <path id="Trazado_776348" data-name="Trazado 776348" d="M81.224,365H71.09L74.4,390.04h3.518Z" transform="translate(-71.09 -365)" fill="#e0e0e0"/>
            <path id="Trazado_776349" data-name="Trazado 776349" d="M72.61,371.942a.3.3,0,0,0,.055.09.622.622,0,0,0,.246.173,1.226,1.226,0,0,0,1.071-.132,8.3,8.3,0,0,1,1.314-.866,2.875,2.875,0,0,1,1.865.038,7.923,7.923,0,0,1,1.736.842,12.347,12.347,0,0,0,1.411.756,3.977,3.977,0,0,0,1.04.3,2.167,2.167,0,0,0,.295.021c.066,0,.1,0,.1-.007a5.375,5.375,0,0,1-1.39-.419,14.086,14.086,0,0,1-1.379-.78,7.674,7.674,0,0,0-1.764-.866,2.976,2.976,0,0,0-1.969-.021,2.583,2.583,0,0,0-.742.457,6.34,6.34,0,0,1-.579.451,1.186,1.186,0,0,1-.988.17,1.019,1.019,0,0,1-.322-.2Z" transform="translate(-72.083 -368.864)" fill="#f5f5f5"/>
            <path id="Trazado_776350" data-name="Trazado 776350" d="M73.669,383.724s.08-.1.239-.27a2.286,2.286,0,0,1,.811-.513,3.622,3.622,0,0,1,1.411-.211,14.909,14.909,0,0,1,1.764.239,6.179,6.179,0,0,0,1.806.076,5.082,5.082,0,0,0,1.421-.405,4.4,4.4,0,0,0,.853-.509,1.168,1.168,0,0,0,.27-.243,8.946,8.946,0,0,1-1.171.645,5.158,5.158,0,0,1-1.393.36,6.278,6.278,0,0,1-1.761-.087,13.258,13.258,0,0,0-1.785-.229,3.559,3.559,0,0,0-1.459.256,2.139,2.139,0,0,0-.814.579,1.511,1.511,0,0,0-.152.225c-.031.055-.042.083-.038.087Z" transform="translate(-72.775 -376.034)" fill="#f5f5f5"/>
            <path id="Trazado_776351" data-name="Trazado 776351" d="M82.852,392.988a1.278,1.278,0,0,0-.281-.146,2.859,2.859,0,0,0-.839-.18,5.316,5.316,0,0,0-1.268.073c-.471.076-.981.208-1.511.319a6.4,6.4,0,0,1-1.508.17,3.314,3.314,0,0,1-1.2-.26,2.811,2.811,0,0,1-.908-.676.748.748,0,0,0,.17.263,2.131,2.131,0,0,0,.69.516,3.183,3.183,0,0,0,1.241.3,6.117,6.117,0,0,0,1.549-.159c.537-.114,1.04-.25,1.5-.333a6.11,6.11,0,0,1,1.237-.107,4.784,4.784,0,0,1,1.126.208Z" transform="translate(-73.866 -382.83)" fill="#f5f5f5"/>
            <path id="Trazado_776352" data-name="Trazado 776352" d="M76.26,403.217a1.657,1.657,0,0,1,.984-.1,4.683,4.683,0,0,1,1.029.385,3.938,3.938,0,0,0,1.338.367,3.988,3.988,0,0,0,2.423-.561,3.572,3.572,0,0,0,.6-.464c.125-.132.187-.208.177-.215a9.066,9.066,0,0,1-.839.579,4.158,4.158,0,0,1-2.35.5,19.31,19.31,0,0,1-2.36-.7,1.541,1.541,0,0,0-.766.066A.5.5,0,0,0,76.26,403.217Z" transform="translate(-74.468 -389.586)" fill="#f5f5f5"/>
            <path id="Trazado_776353" data-name="Trazado 776353" d="M77.88,415.565a1.976,1.976,0,0,0,.846-.166c.509-.17,1.14-.561,1.875-.853a2.99,2.99,0,0,1,1.078-.225,1.78,1.78,0,0,1,1.494.738.489.489,0,0,0-.1-.215,1.366,1.366,0,0,0-.475-.43,1.98,1.98,0,0,0-.918-.246,3.011,3.011,0,0,0-1.137.222c-.762.3-1.372.707-1.861.9-.482.208-.808.25-.8.277Z" transform="translate(-75.527 -397.128)" fill="#f5f5f5"/>
            <path id="Trazado_776354" data-name="Trazado 776354" d="M79.313,424.638a2.325,2.325,0,0,0,.641.208,11.568,11.568,0,0,0,1.6.27,11.937,11.937,0,0,0,1.625.049,2.406,2.406,0,0,0,.669-.08c0-.049-1.026-.007-2.28-.132s-2.249-.364-2.263-.315Z" transform="translate(-76.461 -403.965)" fill="#f5f5f5"/>
          </g>
        </g>
        <g id="Grupo_1046425" data-name="Grupo 1046425" transform="translate(154.419 0)">
          <rect id="Rectángulo_356732" data-name="Rectángulo 356732" width="3.452" height="17.169" transform="matrix(1, -0.005, 0.005, 1, 41.523, 6.421)" fill="#e0e0e0"/>
          <g id="Grupo_1046421" data-name="Grupo 1046421" transform="translate(11.567 6.399)">
            <rect id="Rectángulo_356733" data-name="Rectángulo 356733" width="8.935" height="9.479" transform="matrix(1, -0.005, 0.005, 1, 0.065, 0.096)" fill="#ebebeb"/>
            <rect id="Rectángulo_356734" data-name="Rectángulo 356734" width="8.935" height="9.479" transform="matrix(1, -0.005, 0.005, 1, 8.958, 0.048)" fill="#f5f5f5"/>
            <path id="Trazado_776355" data-name="Trazado 776355" d="M524.4,30.881c5.937.049,11.891.014,17.828-.083a.1.1,0,0,0,0-.191c-5.937-.031-11.891,0-17.828.107a.082.082,0,0,0,0,.163h0Z" transform="translate(-524.325 -28.155)" fill="#e0e0e0"/>
          </g>
          <g id="Grupo_1046422" data-name="Grupo 1046422" transform="translate(5.994 15.68)">
            <rect id="Rectángulo_356735" data-name="Rectángulo 356735" width="16.233" height="7.725" transform="matrix(1, -0.005, 0.005, 1, 0.071, 0.175)" fill="#ebebeb"/>
            <rect id="Rectángulo_356736" data-name="Rectángulo 356736" width="16.233" height="7.725" transform="matrix(1, -0.005, 0.005, 1, 16.224, 0.088)" fill="#f5f5f5"/>
            <path id="Trazado_776356" data-name="Trazado 776356" d="M508.323,56.345c10.785.121,21.605.014,32.387-.159a.1.1,0,0,0,0-.191c-10.785-.055-21.605-.052-32.387.187a.082.082,0,0,0,0,.163Z" transform="translate(-508.245 -54.013)" fill="#e0e0e0"/>
          </g>
          <g id="Grupo_1046423" data-name="Grupo 1046423" transform="translate(0 23.588)">
            <rect id="Rectángulo_356737" data-name="Rectángulo 356737" width="62.892" height="2.766" fill="#e0e0e0"/>
            <rect id="Rectángulo_356738" data-name="Rectángulo 356738" width="2.554" height="9.441" transform="translate(10.297 1.331)" fill="#e0e0e0"/>
            <rect id="Rectángulo_356739" data-name="Rectángulo 356739" width="2.554" height="9.441" transform="translate(48.409 1.331)" fill="#e0e0e0"/>
          </g>
          <rect id="Rectángulo_356740" data-name="Rectángulo 356740" width="3.452" height="23.612" transform="matrix(1, -0.005, 0.005, 1, 44.888, 0.019)" fill="#ebebeb"/>
          <g id="Grupo_1046424" data-name="Grupo 1046424" transform="translate(48.336 4.4)">
            <rect id="Rectángulo_356741" data-name="Rectángulo 356741" width="5.361" height="19.134" transform="matrix(1, -0.005, 0.005, 1, 0.035, 0.029)" fill="#f5f5f5"/>
            <path id="Trazado_776357" data-name="Trazado 776357" d="M635.778,28.264a38.4,38.4,0,0,1-5.358,0,38.4,38.4,0,0,1,5.358,0Z" transform="translate(-630.42 -24.571)" fill="#e0e0e0"/>
            <path id="Trazado_776358" data-name="Trazado 776358" d="M635.778,25.944a38.4,38.4,0,0,1-5.358,0,38.4,38.4,0,0,1,5.358,0Z" transform="translate(-630.42 -23.055)" fill="#e0e0e0"/>
            <path id="Trazado_776359" data-name="Trazado 776359" d="M635.778,64.534a38.4,38.4,0,0,1-5.358,0,38.4,38.4,0,0,1,5.358,0Z" transform="translate(-630.42 -48.27)" fill="#e0e0e0"/>
            <path id="Trazado_776360" data-name="Trazado 776360" d="M635.778,62.214a38.4,38.4,0,0,1-5.358,0,38.4,38.4,0,0,1,5.358,0Z" transform="translate(-630.42 -46.755)" fill="#e0e0e0"/>
            <path id="Trazado_776361" data-name="Trazado 776361" d="M638.214,41.073c-.052,0-.094-1.93-.094-4.311s.042-4.311.094-4.311.094,1.93.094,4.311S638.266,41.073,638.214,41.073Z" transform="translate(-635.451 -27.367)" fill="#e0e0e0"/>
          </g>
          <rect id="Rectángulo_356742" data-name="Rectángulo 356742" width="5.836" height="14.442" transform="translate(53.75 9.105)" fill="#ebebeb"/>
          <path id="Trazado_776362" data-name="Trazado 776362" d="M624.422,14.891a.991.991,0,1,1-.991-.991A.991.991,0,0,1,624.422,14.891Z" transform="translate(-576.869 -10.846)" fill="#e0e0e0"/>
          <rect id="Rectángulo_356743" data-name="Rectángulo 356743" width="0.613" height="14.047" transform="translate(46.257 6.769)" fill="#e0e0e0"/>
        </g>
        <g id="Grupo_1046429" data-name="Grupo 1046429" transform="translate(0 0.534)">
          <rect id="Rectángulo_356744" data-name="Rectángulo 356744" width="36.584" height="53.025" transform="translate(1.841 0.001)" fill="#e0e0e0"/>
          <rect id="Rectángulo_356745" data-name="Rectángulo 356745" width="36.584" height="53.025" transform="translate(0.008 0.001)" fill="#f5f5f5"/>
          <g id="Grupo_1046426" data-name="Grupo 1046426" transform="translate(4.455 5.639)">
            <rect id="Rectángulo_356746" data-name="Rectángulo 356746" width="27.493" height="41.54" transform="translate(0.097 0.104)" fill="#fff"/>
            <path id="Trazado_776363" data-name="Trazado 776363" d="M85.83,64.544s0-.069-.007-.2,0-.333-.007-.589c0-.523-.007-1.286-.01-2.277-.007-1.989-.014-4.894-.024-8.557-.01-7.326-.028-17.7-.045-29.913l.09.09c-8.4,0-17.706.007-27.49.007h0l.1-.1c-.007,15.668-.014,30.117-.021,41.54l-.08-.08,20.011.042c2.388.01,4.256.014,5.528.021.634,0,1.119.007,1.452.01s.5.007.5.007-.163.007-.485.007-.811,0-1.435.01c-1.268,0-3.13.01-5.51.021l-20.06.042h-.08v-.08c-.007-11.419-.014-25.868-.021-41.54v-.1h.1c9.784,0,19.089.007,27.49.007h.09V23c-.017,12.237-.035,22.631-.045,29.971-.01,3.656-.017,6.55-.024,8.536,0,.984-.007,1.743-.01,2.26,0,.253,0,.444-.007.579s-.007.194-.007.194Z" transform="translate(-58.24 -22.9)" fill="#e0e0e0"/>
          </g>
          <path id="Trazado_776364" data-name="Trazado 776364" d="M141.868,6.629a6.576,6.576,0,0,1-.652.946c-.426.568-1.029,1.341-1.716,2.176s-1.331,1.577-1.809,2.1a6.188,6.188,0,0,1-.8.821,6.959,6.959,0,0,1,.7-.911c.492-.6,1.1-1.327,1.761-2.138s1.268-1.542,1.761-2.138A7.149,7.149,0,0,1,141.868,6.629Z" transform="translate(-105.175 -6.628)" fill="#e0e0e0"/>
          <g id="Grupo_1046427" data-name="Grupo 1046427" transform="translate(32.186 47.144)">
            <path id="Trazado_776365" data-name="Trazado 776365" d="M138.26,142.67a34.009,34.009,0,0,0,4.8,6" transform="translate(-138.259 -142.666)" fill="#fff"/>
            <path id="Trazado_776366" data-name="Trazado 776366" d="M143.05,148.658a5.55,5.55,0,0,1-.835-.759,26.335,26.335,0,0,1-1.809-2.041,25.867,25.867,0,0,1-1.591-2.215,5.62,5.62,0,0,1-.558-.984,8.187,8.187,0,0,1,.676.9c.4.565.97,1.341,1.632,2.17s1.293,1.549,1.757,2.069a7.381,7.381,0,0,1,.735.856Z" transform="translate(-138.256 -142.659)" fill="#e0e0e0"/>
          </g>
          <g id="Grupo_1046428" data-name="Grupo 1046428" transform="translate(0 47.071)">
            <path id="Trazado_776367" data-name="Trazado 776367" d="M45.4,148.362q2.4-2.958,4.793-5.912" transform="translate(-45.395 -142.449)" fill="#fff"/>
            <path id="Trazado_776368" data-name="Trazado 776368" d="M50.181,142.449a36.524,36.524,0,0,1-2.319,3.019,36,36,0,0,1-2.475,2.894,36.522,36.522,0,0,1,2.319-3.019A35.993,35.993,0,0,1,50.181,142.449Z" transform="translate(-45.387 -142.448)" fill="#e0e0e0"/>
          </g>
          <path id="Trazado_776369" data-name="Trazado 776369" d="M45.408,6.629a33.017,33.017,0,0,1,2.325,2.779,32.664,32.664,0,0,1,2.17,2.9,33.017,33.017,0,0,1-2.325-2.779A33.513,33.513,0,0,1,45.408,6.629Z" transform="translate(-45.399 -6.628)" fill="#e0e0e0"/>
          <rect id="Rectángulo_356747" data-name="Rectángulo 356747" width="9.205" height="26.138" transform="translate(14.276 14.175)" fill="#e0e0e0"/>
        </g>
        <g id="Grupo_1046430" data-name="Grupo 1046430" transform="translate(130.225 102.738)">
          <rect id="Rectángulo_356748" data-name="Rectángulo 356748" width="63.925" height="29.483" fill="#f5f5f5"/>
          <path id="Trazado_776370" data-name="Trazado 776370" d="M486.3,332.55H425.36V306.01H486.3v26.54Zm-60.542-.4H485.9V306.405H425.759Z" transform="translate(-423.898 -304.457)" fill="#e0e0e0"/>
          <rect id="Rectángulo_356749" data-name="Rectángulo 356749" width="15.616" height="29.483" transform="translate(63.925)" fill="#e0e0e0"/>
          <path id="Trazado_776371" data-name="Trazado 776371" d="M425.793,329.4h60.542a.08.08,0,0,0,0-.159H425.793a.08.08,0,0,0,0,.159Z" transform="translate(-424.129 -319.637)" fill="#e0e0e0"/>
          <path id="Trazado_776372" data-name="Trazado 776372" d="M513.374,314.222a66.4,66.4,0,0,0,.021-8.009.082.082,0,0,0-.163,0,66.4,66.4,0,0,0,.021,8.009.061.061,0,0,0,.121,0Z" transform="translate(-481.243 -304.539)" fill="#e0e0e0"/>
          <path id="Trazado_776373" data-name="Trazado 776373" d="M557.76,316.365a.825.825,0,1,1-.825-.825A.827.827,0,0,1,557.76,316.365Z" transform="translate(-509.333 -310.685)" fill="#e0e0e0"/>
          <path id="Trazado_776374" data-name="Trazado 776374" d="M466.08,316.365a.825.825,0,1,1-.825-.825A.827.827,0,0,1,466.08,316.365Z" transform="translate(-449.427 -310.685)" fill="#e0e0e0"/>
          <path id="Trazado_776375" data-name="Trazado 776375" d="M512.55,342.745a.825.825,0,1,1-.825-.825A.827.827,0,0,1,512.55,342.745Z" transform="translate(-479.792 -327.922)" fill="#e0e0e0"/>
          <path id="Trazado_776376" data-name="Trazado 776376" d="M436.989,386.59,433.7,405.1h1.851l6.068-18.51Z" transform="translate(-429.347 -357.111)" fill="#e0e0e0"/>
          <path id="Trazado_776377" data-name="Trazado 776377" d="M583.817,386.59l2.752,18.542h-1.851L579.19,386.59Z" transform="translate(-524.415 -357.111)" fill="#e0e0e0"/>
          <path id="Trazado_776378" data-name="Trazado 776378" d="M619.47,386.59l3.119,18.542h-1.854l-5.9-18.542Z" transform="translate(-547.709 -357.111)" fill="#e0e0e0"/>
          <path id="Trazado_776379" data-name="Trazado 776379" d="M512.39,366.815a.825.825,0,1,1-.825-.825A.827.827,0,0,1,512.39,366.815Z" transform="translate(-479.687 -343.65)" fill="#e0e0e0"/>
          <path id="Trazado_776380" data-name="Trazado 776380" d="M425.793,355.749h60.542a.08.08,0,0,0,0-.159H425.793a.08.08,0,0,0,0,.159Z" transform="translate(-424.129 -336.854)" fill="#e0e0e0"/>
        </g>
        <g id="Grupo_1046431" data-name="Grupo 1046431" transform="translate(75.287 136.265)">
          <path id="Trazado_776381" data-name="Trazado 776381" d="M266.8,407.31v11.208h34.463V407.31Z" transform="translate(-265.351 -404.177)" fill="#f5f5f5"/>
          <path id="Trazado_776382" data-name="Trazado 776382" d="M262.62,398.27V401.4h37.118V398.27H262.62Z" transform="translate(-262.62 -398.27)" fill="#e0e0e0"/>
          <path id="Trazado_776383" data-name="Trazado 776383" d="M314.8,412.611h17.353V401.4h1.206V398.27H314.08v2.842Z" transform="translate(-296.245 -398.27)" fill="#e0e0e0"/>
          <rect id="Rectángulo_356750" data-name="Rectángulo 356750" width="6.99" height="1.688" transform="translate(6.266 4.942)" fill="#e0e0e0"/>
          <rect id="Rectángulo_356751" data-name="Rectángulo 356751" width="8.976" height="3.563" transform="translate(5.368 8.737)" fill="#fff"/>
        </g>
        <g id="Grupo_1046432" data-name="Grupo 1046432" transform="translate(80.589 121.938)">
          <path id="Trazado_776384" data-name="Trazado 776384" d="M282.1,365.98v11.2h34.463v-11.2Z" transform="translate(-280.651 -362.844)" fill="#f5f5f5"/>
          <path id="Trazado_776385" data-name="Trazado 776385" d="M277.92,356.93v3.136h37.118V356.93H277.92Z" transform="translate(-277.92 -356.93)" fill="#e0e0e0"/>
          <path id="Trazado_776386" data-name="Trazado 776386" d="M330.1,371.271h17.353v-11.2h1.206V356.93H329.38v2.845Z" transform="translate(-311.546 -356.93)" fill="#e0e0e0"/>
          <rect id="Rectángulo_356752" data-name="Rectángulo 356752" width="6.99" height="1.688" transform="translate(6.266 4.942)" fill="#e0e0e0"/>
          <rect id="Rectángulo_356753" data-name="Rectángulo 356753" width="8.976" height="3.563" transform="translate(5.368 8.737)" fill="#fff"/>
        </g>
        <path id="Trazado_776387" data-name="Trazado 776387" d="M571.9,233.64a8.085,8.085,0,0,1,1.982-.859l.409-1.962,3.313-.059.478,1.944a8.033,8.033,0,0,1,2.01.79l1.674-1.1,2.384,2.3-1.04,1.712a8.084,8.084,0,0,1,.859,1.982l1.962.409.059,3.313-1.944.478a8.031,8.031,0,0,1-.79,2.01l1.1,1.674-2.3,2.384-1.712-1.04a8.086,8.086,0,0,1-1.982.859l-.409,1.962-3.313.059-.478-1.944a8.033,8.033,0,0,1-2.01-.79l-1.674,1.1-2.384-2.3,1.04-1.712a8.084,8.084,0,0,1-.859-1.982l-1.962-.409-.059-3.313,1.944-.478a8.033,8.033,0,0,1,.79-2.01l-1.1-1.674,2.3-2.384,1.712,1.04Zm1.768,4.415a3.556,3.556,0,1,0,5.032-.09,3.554,3.554,0,0,0-5.032.09Z" transform="translate(-385.734 -152.549)" fill="#ebebeb"/>
        <path id="Trazado_776388" data-name="Trazado 776388" d="M261.046,233.042a14.172,14.172,0,0,1,3.455-1.5l.71-3.421,5.777-.1.832,3.393a14.153,14.153,0,0,1,3.5,1.379l2.918-1.913,4.155,4.013-1.809,2.984a14.04,14.04,0,0,1,1.5,3.455l3.417.71.1,5.777-3.393.832a14.153,14.153,0,0,1-1.379,3.5l1.913,2.918-4.013,4.155-2.984-1.809a14.172,14.172,0,0,1-3.455,1.5l-.71,3.421-5.777.1-.832-3.393a14.151,14.151,0,0,1-3.5-1.379l-2.918,1.913-4.155-4.013,1.809-2.984a14.172,14.172,0,0,1-1.5-3.455l-3.417-.71-.1-5.777,3.393-.832a14.152,14.152,0,0,1,1.379-3.5l-1.913-2.918,4.013-4.155,2.984,1.809Zm3.078,7.694a6.2,6.2,0,1,0,8.765-.152A6.2,6.2,0,0,0,264.124,240.736Z" transform="translate(-179.865 -150.758)" fill="#ebebeb"/>
        <path id="Trazado_776389" data-name="Trazado 776389" d="M375.543,140.043a6.87,6.87,0,0,1,1.681-.731l.347-1.664,2.811-.049.406,1.65a6.774,6.774,0,0,1,1.705.672l1.421-.932,2.024,1.951-.88,1.452a6.87,6.87,0,0,1,.731,1.681l1.664.347.049,2.811-1.65.405a6.774,6.774,0,0,1-.672,1.705l.932,1.421-1.951,2.024-1.452-.88a6.871,6.871,0,0,1-1.681.731l-.347,1.664-2.811.049-.405-1.65a6.772,6.772,0,0,1-1.705-.672l-1.421.932-2.024-1.951.88-1.452a6.87,6.87,0,0,1-.731-1.681l-1.664-.347-.049-2.811,1.65-.405a6.773,6.773,0,0,1,.672-1.705l-.932-1.421,1.951-2.024,1.452.88Zm1.5,3.743a3.015,3.015,0,1,0,4.263-.076A3.013,3.013,0,0,0,377.04,143.786Z" transform="translate(-257.989 -91.675)" fill="#f5f5f5"/>
        <path id="Trazado_776390" data-name="Trazado 776390" d="M418.565,159.284A12.031,12.031,0,0,1,421.511,158l.607-2.918,4.928-.087.71,2.894a12.037,12.037,0,0,1,2.991,1.175l2.492-1.632,3.545,3.424-1.542,2.547a11.9,11.9,0,0,1,1.279,2.946l2.915.606.087,4.928-2.894.71a12.038,12.038,0,0,1-1.175,2.991l1.632,2.492-3.424,3.545-2.547-1.542a12.03,12.03,0,0,1-2.946,1.279l-.607,2.918-4.928.087-.71-2.894a12.173,12.173,0,0,1-2.991-1.175l-2.492,1.632-3.545-3.424,1.542-2.547a12.178,12.178,0,0,1-1.282-2.946l-2.918-.607-.087-4.928,2.894-.71a12.173,12.173,0,0,1,1.175-2.991l-1.632-2.492,3.424-3.545,2.547,1.542h0Zm2.627,6.564a5.287,5.287,0,1,0,7.476-.132A5.288,5.288,0,0,0,421.192,165.848Z" transform="translate(-283.734 -103.045)" fill="#ebebeb"/>
        <path id="Trazado_776391" data-name="Trazado 776391" d="M433.434,90.552a6.088,6.088,0,0,1,1.473-.641l.3-1.459,2.464-.042.353,1.445a5.986,5.986,0,0,1,1.494.589l1.244-.818,1.774,1.712-.773,1.272a6.088,6.088,0,0,1,.641,1.473l1.459.3.042,2.464-1.445.354a5.983,5.983,0,0,1-.589,1.494l.814,1.244-1.712,1.774-1.272-.773a6.089,6.089,0,0,1-1.473.641l-.3,1.459-2.464.042-.353-1.445a5.986,5.986,0,0,1-1.494-.589l-1.244.818-1.774-1.712.773-1.272a6.088,6.088,0,0,1-.641-1.473l-1.459-.3-.042-2.464,1.445-.354a5.986,5.986,0,0,1,.589-1.494l-.814-1.244,1.712-1.774,1.272.773Zm1.314,3.282a2.645,2.645,0,1,0,3.74-.066A2.644,2.644,0,0,0,434.747,93.834Z" transform="translate(-296.201 -59.533)" fill="#ebebeb"/>
      </g>
      <g id="Gears" transform="translate(80.436 59.027)">
        <g id="Grupo_1046434" data-name="Grupo 1046434" transform="translate(52.349 7.872)">
          <path id="Trazado_776392" data-name="Trazado 776392" d="M335.938,188.968a15.637,15.637,0,0,1,3.8-1.653l.783-3.764,6.356-.111.915,3.733a15.674,15.674,0,0,1,3.857,1.518l3.213-2.107L359.439,191l-1.993,3.285a15.637,15.637,0,0,1,1.653,3.8l3.76.783.111,6.356-3.733.915A15.674,15.674,0,0,1,357.72,210l2.1,3.213-4.415,4.575-3.285-1.993a15.638,15.638,0,0,1-3.8,1.653l-.783,3.764-6.356.111-.915-3.733a15.675,15.675,0,0,1-3.857-1.518l-3.213,2.107-4.575-4.415,1.993-3.285a15.5,15.5,0,0,1-1.653-3.8l-3.76-.783-.111-6.356,3.733-.915a15.675,15.675,0,0,1,1.518-3.857l-2.107-3.213,4.415-4.575,3.285,1.993h0Z" transform="translate(-325.09 -183.44)" fill="#ff725e"/>
          <g id="Grupo_1046433" data-name="Grupo 1046433" transform="translate(11.451 12.899)">
            <rect id="Rectángulo_356754" data-name="Rectángulo 356754" width="3.493" height="10.907" fill="#fff"/>
            <rect id="Rectángulo_356755" data-name="Rectángulo 356755" width="3.493" height="8.415" transform="translate(5.216 2.492)" fill="#fff"/>
            <rect id="Rectángulo_356756" data-name="Rectángulo 356756" width="3.493" height="4.998" transform="translate(10.044 5.912)" fill="#fff"/>
          </g>
        </g>
        <g id="Grupo_1046438" data-name="Grupo 1046438" transform="translate(0 7.1)">
          <path id="Trazado_776393" data-name="Trazado 776393" d="M184.888,186.738a15.637,15.637,0,0,1,3.8-1.653l.783-3.764,6.356-.111.915,3.733a15.674,15.674,0,0,1,3.857,1.518l3.213-2.107,4.575,4.415-1.993,3.285a15.638,15.638,0,0,1,1.653,3.8l3.76.783L211.92,203l-3.733.915a15.674,15.674,0,0,1-1.518,3.857l2.1,3.213-4.415,4.575-3.285-1.993a15.636,15.636,0,0,1-3.8,1.653l-.783,3.764-6.356.111-.915-3.733a15.675,15.675,0,0,1-3.857-1.518l-3.213,2.107-4.575-4.415,1.993-3.285a15.5,15.5,0,0,1-1.653-3.8l-3.76-.783-.111-6.356,3.733-.915a15.675,15.675,0,0,1,1.518-3.857l-2.107-3.213,4.415-4.575,3.285,1.993h0Z" transform="translate(-174.04 -181.21)" fill="#ff725e"/>
          <g id="Grupo_1046437" data-name="Grupo 1046437" transform="translate(8.283 7.985)">
            <g id="Grupo_1046436" data-name="Grupo 1046436">
              <path id="Trazado_776394" data-name="Trazado 776394" d="M211.822,225.855a10.866,10.866,0,0,1-10.352-7.711.173.173,0,1,1,.333-.1,10.451,10.451,0,1,0-.132-5.517.175.175,0,1,1-.34-.083,10.8,10.8,0,1,1,10.487,13.409Z" transform="translate(-200.153 -204.25)" fill="#fff"/>
              <path id="Trazado_776395" data-name="Trazado 776395" d="M217.8,228.767a7.536,7.536,0,0,1-7.229-5.483.174.174,0,1,1,.336-.094,7.165,7.165,0,1,0,0-3.864.174.174,0,0,1-.336-.094,7.507,7.507,0,1,1,7.229,9.531Z" transform="translate(-206.188 -210.458)" fill="#fff"/>
              <path id="Trazado_776396" data-name="Trazado 776396" d="M229.277,233.053a1.9,1.9,0,0,1-1.071-.329.172.172,0,0,1,.194-.284,1.554,1.554,0,0,0,.877.267,1.57,1.57,0,1,0-.742-2.953.174.174,0,0,1-.166-.3,1.917,1.917,0,1,1,.908,3.6Z" transform="translate(-217.667 -220.566)" fill="#fff"/>
              <g id="Grupo_1046435" data-name="Grupo 1046435" transform="translate(0 9.139)">
                <path id="Trazado_776397" data-name="Trazado 776397" d="M212.406,231.985l-2.8-1.365.055,1.216-7.441.177.083.544,7.448-.121.021,1.234Z" transform="translate(-200.737 -230.62)" fill="#fff"/>
                <path id="Trazado_776398" data-name="Trazado 776398" d="M201.468,233.6l-.042-.08a1.205,1.205,0,0,0-1.026-.652l-2.461-.094,1.067.967-.946,1.168,2.357-.049a1.212,1.212,0,0,0,1.137-.88h0l-.083-.381Z" transform="translate(-197.94 -232.031)" fill="#fff"/>
              </g>
            </g>
            <path id="Trazado_776399" data-name="Trazado 776399" d="M223.4,231.409a4.556,4.556,0,0,1-4.349-3.261.173.173,0,0,1,.333-.1,4.183,4.183,0,1,0,.01-2.377.17.17,0,0,1-.215.114.173.173,0,0,1-.114-.215,4.53,4.53,0,1,1,4.339,5.836Z" transform="translate(-211.726 -216.077)" fill="#fff"/>
          </g>
        </g>
        <g id="Grupo_1046439" data-name="Grupo 1046439" transform="translate(104.134 6.808)">
          <path id="Trazado_776400" data-name="Trazado 776400" d="M485.358,185.9a15.639,15.639,0,0,1,3.8-1.653l.783-3.764,6.356-.111.915,3.733a15.675,15.675,0,0,1,3.857,1.518l3.213-2.107,4.575,4.415-1.993,3.285a15.639,15.639,0,0,1,1.653,3.8l3.76.783.111,6.356-3.733.915a15.674,15.674,0,0,1-1.518,3.857l2.1,3.213-4.415,4.575-3.285-1.993a15.635,15.635,0,0,1-3.8,1.653l-.783,3.764-6.356.111-.915-3.733A15.674,15.674,0,0,1,485.829,213l-3.213,2.107-4.575-4.415,1.993-3.285a15.506,15.506,0,0,1-1.653-3.8l-3.76-.783-.111-6.356,3.733-.915a15.673,15.673,0,0,1,1.518-3.857l-2.107-3.213,4.415-4.575,3.286,1.993h0Z" transform="translate(-474.51 -180.37)" fill="#ff725e"/>
          <path id="Trazado_776401" data-name="Trazado 776401" d="M502.3,223.146l2.436-2.436,4.7,4.176,9.222-8.876,2.26,2.436-11.832,11.139Z" transform="translate(-492.669 -203.658)" fill="#fff"/>
        </g>
        <path id="Trazado_776402" data-name="Trazado 776402" d="M320.643,178.517a.824.824,0,0,1,.042-.107c.035-.08.08-.184.139-.312s.139-.308.229-.506a5.886,5.886,0,0,1,.34-.679c.139-.25.291-.53.461-.832s.392-.61.613-.95.492-.683.766-1.05.6-.731.936-1.119.728-.752,1.116-1.154a8.426,8.426,0,0,1,.634-.572c.222-.187.44-.388.672-.579s.482-.367.731-.555c.125-.094.246-.191.378-.281l.4-.263c.27-.173.537-.36.818-.534s.579-.329.87-.5.6-.312.915-.468.624-.315.957-.437l1-.4c.343-.111.693-.225,1.043-.336a18.895,18.895,0,0,1,9.025-.534c.36.073.721.142,1.074.211.35.094.7.187,1.036.281s.672.211,1,.319.655.215.964.354l.925.388c.3.139.586.291.873.433.142.073.284.142.426.215s.274.156.405.236c.267.156.534.312.79.464s.5.333.735.5.482.315.7.5c.433.35.877.658,1.244,1.012s.752.658,1.06,1,.634.634.884.953.509.6.721.873l.555.773a6.113,6.113,0,0,1,.416.634c.111.187.208.343.288.475s.128.218.173.295a.377.377,0,0,1,.052.1.933.933,0,0,1-.069-.094c-.049-.073-.111-.166-.187-.284s-.184-.284-.3-.464a6.414,6.414,0,0,0-.43-.624c-.17-.229-.36-.482-.565-.759s-.468-.551-.728-.859-.572-.61-.891-.939-.686-.648-1.064-.984-.811-.652-1.244-1c-.215-.177-.457-.322-.7-.485s-.482-.329-.735-.485-.52-.3-.787-.457c-.135-.076-.267-.159-.405-.232s-.281-.139-.426-.211c-.288-.139-.572-.291-.87-.426l-.918-.381c-.3-.139-.634-.236-.957-.35s-.652-.236-.995-.315-.683-.184-1.029-.274l-1.067-.208a18.859,18.859,0,0,0-8.945.53c-.347.111-.693.222-1.033.333q-.5.2-.988.4c-.329.121-.638.284-.95.43s-.62.284-.908.461-.582.329-.866.489-.544.354-.814.523c-.132.087-.267.173-.4.26s-.25.187-.374.277c-.246.187-.489.367-.728.548s-.451.385-.672.572-.44.364-.634.565c-.388.4-.79.745-1.116,1.137s-.669.731-.939,1.106-.558.693-.773,1.036-.44.645-.624.939-.329.575-.471.821a6.8,6.8,0,0,0-.353.669c-.094.194-.177.36-.243.5s-.114.229-.152.3-.055.1-.059.1Z" transform="translate(-269.833 -164.202)" fill="#263238"/>
        <path id="Trazado_776403" data-name="Trazado 776403" d="M341.36,163.582s.135-.107.4-.274.648-.388,1.137-.641a18.067,18.067,0,0,1,8.321-1.941c.551.007,1,.035,1.3.069a2.959,2.959,0,0,1,.475.069,2.433,2.433,0,0,1-.478,0c-.3-.014-.752-.021-1.3-.014a19.975,19.975,0,0,0-8.262,1.927c-.5.236-.891.437-1.158.586a2.5,2.5,0,0,1-.43.211Z" transform="translate(-283.372 -160.725)" fill="#263238"/>
        <path id="Trazado_776404" data-name="Trazado 776404" d="M513.059,270.63a.822.822,0,0,1-.042.107c-.035.08-.08.184-.139.312s-.139.308-.229.506a5.89,5.89,0,0,1-.34.679c-.139.25-.291.53-.461.832s-.392.61-.613.953-.492.683-.766,1.05-.6.731-.936,1.119-.728.752-1.116,1.154a8.413,8.413,0,0,1-.634.572c-.222.187-.44.388-.672.579s-.482.367-.731.555c-.125.094-.246.191-.378.281l-.4.263c-.27.173-.537.36-.818.534s-.579.329-.87.5-.6.312-.915.464-.624.315-.957.437l-1,.4c-.343.111-.693.225-1.043.336a18.894,18.894,0,0,1-9.025.534c-.36-.073-.721-.142-1.074-.211-.35-.094-.7-.187-1.036-.281s-.672-.211-1-.319-.655-.215-.963-.354l-.925-.388c-.3-.139-.586-.291-.873-.433-.142-.073-.284-.142-.426-.215s-.274-.156-.406-.236c-.267-.156-.534-.312-.79-.464s-.5-.333-.735-.5-.482-.315-.7-.5c-.433-.35-.877-.659-1.244-1.012s-.752-.658-1.06-1-.634-.634-.884-.953-.509-.6-.721-.873l-.555-.773a6.113,6.113,0,0,1-.416-.634c-.111-.187-.208-.343-.288-.475s-.128-.218-.173-.295a.375.375,0,0,1-.052-.1.94.94,0,0,1,.069.094c.049.073.111.166.187.284s.184.284.3.464a6.4,6.4,0,0,0,.43.624c.17.229.36.482.565.759s.468.551.728.859.572.61.891.939.686.648,1.064.984.811.652,1.244,1c.215.177.457.322.7.485s.482.329.735.485.52.3.787.457c.135.076.267.159.405.232s.281.139.426.211c.288.139.572.291.87.426l.918.381c.3.139.634.236.957.35s.652.236.995.315.683.184,1.029.274l1.067.208a18.859,18.859,0,0,0,8.945-.53c.347-.111.693-.222,1.033-.333q.5-.2.988-.4c.329-.121.638-.284.95-.43s.62-.284.908-.461.582-.329.866-.489.544-.353.814-.523c.132-.087.267-.173.4-.26s.25-.187.374-.277c.246-.184.489-.367.728-.548s.451-.385.672-.572.44-.364.634-.565c.388-.4.79-.745,1.116-1.137s.669-.731.939-1.106.558-.693.773-1.036.44-.645.624-.939.329-.575.471-.821a6.8,6.8,0,0,0,.354-.669c.094-.194.177-.36.243-.5s.114-.229.153-.3.055-.1.059-.1Z" transform="translate(-371.78 -232.533)" fill="#263238"/>
        <path id="Trazado_776405" data-name="Trazado 776405" d="M539.461,306.76s-.135.107-.4.274-.648.388-1.137.641a18.067,18.067,0,0,1-8.321,1.941c-.551-.007-1-.035-1.3-.069a2.96,2.96,0,0,1-.475-.069,2.84,2.84,0,0,1,.478,0c.3.014.752.021,1.3.014a19.974,19.974,0,0,0,8.262-1.927c.5-.236.891-.437,1.158-.586a2.5,2.5,0,0,1,.43-.211Z" transform="translate(-405.217 -256.149)" fill="#263238"/>
        <path id="Trazado_776406" data-name="Trazado 776406" d="M213.83,268.4a.824.824,0,0,1-.042.107c-.035.08-.08.184-.139.312s-.139.308-.229.506a5.888,5.888,0,0,1-.34.679c-.139.25-.291.53-.461.832s-.392.61-.613.95-.492.683-.766,1.05-.6.731-.936,1.119-.728.752-1.116,1.154a8.431,8.431,0,0,1-.634.572c-.222.187-.44.388-.672.579s-.482.367-.731.555c-.125.094-.246.191-.378.281l-.4.263c-.27.173-.537.36-.818.534l-.87.5c-.291.177-.6.312-.915.468s-.624.315-.957.437l-1,.4c-.343.111-.693.225-1.043.336a18.894,18.894,0,0,1-9.025.534c-.36-.073-.721-.142-1.074-.211-.35-.094-.7-.187-1.036-.281s-.672-.211-1-.319-.655-.215-.963-.354l-.925-.388c-.3-.139-.586-.291-.873-.433-.142-.073-.284-.142-.426-.215s-.274-.156-.405-.236c-.267-.156-.534-.312-.79-.464s-.5-.333-.735-.5-.482-.315-.7-.5c-.433-.35-.877-.659-1.244-1.012s-.752-.658-1.061-1-.634-.634-.884-.953-.509-.6-.721-.873l-.555-.773a6.113,6.113,0,0,1-.416-.634c-.111-.187-.208-.343-.288-.475s-.128-.218-.173-.295a.375.375,0,0,1-.052-.1.935.935,0,0,1,.069.094c.049.073.111.166.187.284s.184.284.3.464a6.4,6.4,0,0,0,.43.624c.17.229.36.482.565.759s.468.551.728.859.572.61.891.939.686.648,1.064.984.811.652,1.244,1c.215.177.457.322.7.485s.482.329.735.485.52.3.787.457c.135.076.267.159.405.232s.281.139.426.211c.288.139.572.291.87.426l.918.381c.3.139.634.236.957.35s.652.236.995.315.683.184,1.029.274l1.067.208a18.859,18.859,0,0,0,8.945-.53c.347-.111.693-.222,1.033-.333q.5-.2.988-.4c.329-.121.638-.284.95-.43s.62-.284.908-.461.582-.329.866-.489.544-.354.814-.523c.132-.087.267-.173.4-.26s.25-.187.374-.277c.246-.184.489-.367.728-.548s.451-.385.672-.572.44-.364.634-.565c.388-.4.79-.745,1.116-1.137s.669-.731.939-1.106.558-.693.773-1.036.44-.645.624-.939.329-.575.471-.821a6.8,6.8,0,0,0,.353-.669c.094-.194.177-.36.243-.5s.114-.229.152-.3.055-.1.059-.1Z" transform="translate(-176.254 -231.076)" fill="#263238"/>
        <path id="Trazado_776407" data-name="Trazado 776407" d="M240.241,304.53s-.135.107-.4.274-.648.388-1.137.641a18.066,18.066,0,0,1-8.321,1.941c-.551-.007-1-.035-1.3-.069a2.961,2.961,0,0,1-.475-.069,2.431,2.431,0,0,1,.478,0c.3.014.752.021,1.3.014a19.975,19.975,0,0,0,8.262-1.927c.5-.236.891-.437,1.158-.586a2.5,2.5,0,0,1,.43-.211Z" transform="translate(-209.698 -254.691)" fill="#263238"/>
      </g>
      <g id="Process" transform="translate(115.94 37.341)">
        <g id="Grupo_1046445" data-name="Grupo 1046445" transform="translate(0)">
          <g id="Grupo_1046440" data-name="Grupo 1046440" transform="translate(0 4.849)">
            <path id="Trazado_776408" data-name="Trazado 776408" d="M352.552,124.235h-69.9a5.913,5.913,0,0,1-5.913-5.912h0a5.913,5.913,0,0,1,5.913-5.912h69.9a5.913,5.913,0,0,1,5.912,5.912h0A5.913,5.913,0,0,1,352.552,124.235Z" transform="translate(-276.651 -112.316)" fill="#fafafa"/>
            <path id="Trazado_776409" data-name="Trazado 776409" d="M352.385,124.059s.156-.014.454-.031a6.291,6.291,0,0,0,1.31-.256,6.011,6.011,0,0,0,1.9-1.026,5.943,5.943,0,0,0,1.761-2.339,6.379,6.379,0,0,0,.419-1.7,6.132,6.132,0,0,0-.142-1.927,5.845,5.845,0,0,0-4.724-4.4,18.976,18.976,0,0,0-2.613-.087q-2.7,0-5.711.007l-62.553.028a5.825,5.825,0,0,0-4.426,9.607,5.783,5.783,0,0,0,3.691,1.989c.7.08,1.424.042,2.138.052h14.459c10.584.007,20.115.014,28.121.021s14.48.021,18.957.028l5.154.017c.586,0,1.036.007,1.341.01s.457.01.457.01-.156.007-.457.01-.752,0-1.341.01l-5.154.017c-4.481.007-10.955.017-18.957.028s-17.536.01-28.121.021H283.889c-.714-.01-1.428.028-2.159-.052a5.943,5.943,0,0,1-3.805-2.048,6,6,0,0,1,4.561-9.9l62.552.028q3,0,5.711.007a18.271,18.271,0,0,1,2.63.094,5.931,5.931,0,0,1,4.79,4.488,6.2,6.2,0,0,1,.139,1.955,6.372,6.372,0,0,1-.433,1.722,6.008,6.008,0,0,1-1.792,2.357,5.739,5.739,0,0,1-3.244,1.258c-.3.014-.457.014-.457.014Z" transform="translate(-276.484 -112.14)" fill="#263238"/>
          </g>
          <path id="Trazado_776410" data-name="Trazado 776410" d="M324.433,125.478H285.4a4.509,4.509,0,0,1-4.509-4.509h0a4.509,4.509,0,0,1,4.509-4.509h39.034a4.509,4.509,0,0,1,4.509,4.509h0A4.509,4.509,0,0,1,324.433,125.478Z" transform="translate(-279.363 -110.114)" fill="#ff725e"/>
          <g id="Grupo_1046441" data-name="Grupo 1046441" transform="translate(7.339 6.346)" opacity="0.4">
            <path id="Trazado_776411" data-name="Trazado 776411" d="M297.66,125.478l5.6-9.018h6l-5.486,9.018Z" transform="translate(-297.66 -116.46)" fill="#fff"/>
          </g>
          <g id="Grupo_1046442" data-name="Grupo 1046442" transform="translate(19.375 6.346)" opacity="0.4">
            <path id="Trazado_776412" data-name="Trazado 776412" d="M332.39,125.478l5.6-9.018h6l-5.49,9.018Z" transform="translate(-332.39 -116.46)" fill="#fff"/>
          </g>
          <g id="Grupo_1046443" data-name="Grupo 1046443" transform="translate(32.292 6.346)" opacity="0.4">
            <path id="Trazado_776413" data-name="Trazado 776413" d="M369.66,125.478l5.6-9.018h6l-5.486,9.018Z" transform="translate(-369.66 -116.46)" fill="#fff"/>
          </g>
          <g id="Grupo_1046444" data-name="Grupo 1046444" transform="translate(18.942 -15)">
            <path id="Trazado_776414" data-name="Trazado 776414" d="M365.813,100.539c0,1.368-1.028,2.222-2.674,2.222H361.9v1.694H360.48V98.31h2.66C364.785,98.31,365.813,99.164,365.813,100.539Zm-1.444,0c0-.674-.437-1.069-1.305-1.069H361.9V101.6h1.16C363.931,101.6,364.369,101.206,364.369,100.539Z" transform="translate(-360.48 -98.199)" fill="#fafafa"/>
            <path id="Trazado_776415" data-name="Trazado 776415" d="M373.527,104.456l-1.187-1.715h-1.306v1.715H369.61V98.31h2.66c1.646,0,2.674.854,2.674,2.229a2.006,2.006,0,0,1-1.264,1.944l1.382,1.979h-1.528Zm-1.333-4.993h-1.16v2.146h1.16c.868,0,1.306-.4,1.306-1.069s-.437-1.069-1.306-1.069Z" transform="translate(-363.27 -98.199)" fill="#fafafa"/>
            <path id="Trazado_776416" data-name="Trazado 776416" d="M378.35,101.34a3.366,3.366,0,1,1,3.361,3.18A3.182,3.182,0,0,1,378.35,101.34Zm5.292,0a1.924,1.924,0,1,0-1.924,1.965A1.875,1.875,0,0,0,383.642,101.34Z" transform="translate(-365.941 -98.153)" fill="#fafafa"/>
            <path id="Trazado_776417" data-name="Trazado 776417" d="M389.03,101.34a3.385,3.385,0,0,1,5.868-2.09l-.917.84a1.983,1.983,0,0,0-1.549-.722,1.965,1.965,0,1,0,0,3.93,1.956,1.956,0,0,0,1.549-.729l.917.84a3.381,3.381,0,0,1-5.868-2.083Z" transform="translate(-369.204 -98.153)" fill="#fafafa"/>
            <path id="Trazado_776418" data-name="Trazado 776418" d="M403.614,103.317v1.139H398.85V98.31H403.5v1.139h-3.229v1.333h2.854v1.1h-2.854v1.424h3.347Z" transform="translate(-372.205 -98.199)" fill="#fafafa"/>
            <path id="Trazado_776419" data-name="Trazado 776419" d="M406.64,103.8l.486-1.069a3.643,3.643,0,0,0,2.028.639c.84,0,1.187-.278,1.187-.66,0-1.153-3.576-.361-3.576-2.646,0-1.049.84-1.917,2.59-1.917a4.173,4.173,0,0,1,2.132.542l-.437,1.083a3.458,3.458,0,0,0-1.7-.486c-.84,0-1.167.319-1.167.7,0,1.132,3.576.354,3.576,2.611,0,1.028-.854,1.91-2.611,1.91a4.408,4.408,0,0,1-2.5-.708Z" transform="translate(-374.585 -98.15)" fill="#fafafa"/>
            <path id="Trazado_776420" data-name="Trazado 776420" d="M414.71,103.8l.486-1.069a3.643,3.643,0,0,0,2.028.639c.84,0,1.188-.278,1.188-.66,0-1.153-3.576-.361-3.576-2.646,0-1.049.84-1.917,2.59-1.917a4.174,4.174,0,0,1,2.132.542l-.438,1.083a3.458,3.458,0,0,0-1.7-.486c-.84,0-1.167.319-1.167.7,0,1.132,3.576.354,3.576,2.611,0,1.028-.854,1.91-2.611,1.91a4.408,4.408,0,0,1-2.5-.708Z" transform="translate(-377.051 -98.15)" fill="#fafafa"/>
          </g>
        </g>
      </g>
      <g id="Floor" transform="translate(30.79 155.605)">
        <path id="Trazado_776421" data-name="Trazado 776421" d="M248.918,439.48c0,.049-48.832.09-109.059.09s-109.069-.042-109.069-.09,48.821-.09,109.069-.09S248.918,439.432,248.918,439.48Z" transform="translate(-30.79 -439.39)" fill="#e0e0e0"/>
      </g>
      <g id="Character" transform="translate(33.289 21.251)">
        <g id="Grupo_1046447" data-name="Grupo 1046447" transform="translate(0 118.668)">
          <path id="Trazado_776422" data-name="Trazado 776422" d="M45.84,401.4l3.4-7.271,7.933,4.547-4.121,6.661s-3.206.568-4.63-.308-2.575-3.632-2.575-3.632Z" transform="translate(-43.123 -394.13)" fill="#ffbe9d"/>
          <g id="Grupo_1046446" data-name="Grupo 1046446" transform="translate(0 7.275)">
            <path id="Trazado_776423" data-name="Trazado 776423" d="M47.527,419.733l.405-.676a12.645,12.645,0,0,1-7.209-3.937l-2.714,4.991L53,428.352C53.7,426.872,47.527,419.733,47.527,419.733Z" transform="translate(-38.007 -415.12)" fill="#ff725e"/>
            <path id="Trazado_776424" data-name="Trazado 776424" d="M38,427.22l.662-1.22,14.15,8.377s.506.658.173,1.085L38,427.22Z" transform="translate(-38 -422.229)" fill="#263238"/>
            <path id="Trazado_776425" data-name="Trazado 776425" d="M62.854,427.933c-.042.073-.426-.1-.915-.059s-.849.239-.9.173.291-.43.884-.464.988.291.936.35Z" transform="translate(-53.049 -423.261)" fill="#263238"/>
            <path id="Trazado_776426" data-name="Trazado 776426" d="M66.806,432.676c-.021.08-.409.031-.825.2s-.672.461-.742.416c-.076-.028.111-.482.634-.686s.97,0,.932.066Z" transform="translate(-55.788 -426.49)" fill="#263238"/>
            <path id="Trazado_776427" data-name="Trazado 776427" d="M69.336,437.95c-.076-.021.024-.444.433-.742s.839-.27.835-.191-.333.177-.665.426-.527.537-.6.506Z" transform="translate(-58.46 -429.393)" fill="#263238"/>
          </g>
          <path id="Trazado_776428" data-name="Trazado 776428" d="M46.676,424.36a.449.449,0,1,1-.166-.613A.449.449,0,0,1,46.676,424.36Z" transform="translate(-43.121 -413.443)" fill="#263238"/>
        </g>
        <g id="Grupo_1046449" data-name="Grupo 1046449" transform="translate(37.755 120.616)">
          <path id="Trazado_776429" data-name="Trazado 776429" d="M148.95,408.043l3.93-8.293,8.006.128-4.1,8.072s-2.648,2.052-4.363,1.937a6.836,6.836,0,0,1-3.469-1.844Z" transform="translate(-148.253 -399.75)" fill="#ffbe9d"/>
          <g id="Grupo_1046448" data-name="Grupo 1046448" transform="translate(0 8.068)">
            <path id="Trazado_776430" data-name="Trazado 776430" d="M155.424,423.973l.045-.811a11.7,11.7,0,0,1-8.009-.132h0a3.418,3.418,0,0,0-.461,1.66l-.059,4.173,17.588.333c-.073-1.681-9.108-5.226-9.108-5.226Z" transform="translate(-146.94 -423.03)" fill="#ff725e"/>
            <path id="Trazado_776431" data-name="Trazado 776431" d="M146.95,437.178l.021-1.428,16.892.853s.776.357.679.9l-17.588-.333Z" transform="translate(-146.947 -431.342)" fill="#263238"/>
            <path id="Trazado_776432" data-name="Trazado 776432" d="M169.192,425.349c0,.087-.433.118-.863.385s-.658.624-.738.589c-.08-.017.059-.53.582-.846s1.04-.208,1.019-.128Z" transform="translate(-160.42 -424.489)" fill="#263238"/>
            <path id="Trazado_776433" data-name="Trazado 776433" d="M175.293,427.74c.017.083-.357.222-.655.579s-.392.742-.475.735c-.08.01-.132-.492.25-.929s.88-.468.88-.385Z" transform="translate(-164.691 -426.083)" fill="#263238"/>
            <path id="Trazado_776434" data-name="Trazado 776434" d="M180.255,431.468c-.08.017-.191-.416.038-.88s.634-.645.669-.575-.218.319-.4.7-.222.742-.308.749Z" transform="translate(-168.645 -427.583)" fill="#263238"/>
          </g>
          <path id="Trazado_776435" data-name="Trazado 776435" d="M152.681,430.528a.461.461,0,1,1-.444-.478A.459.459,0,0,1,152.681,430.528Z" transform="translate(-150.089 -419.548)" fill="#263238"/>
        </g>
        <g id="Grupo_1046455" data-name="Grupo 1046455" transform="translate(63.461)">
          <path id="Trazado_776436" data-name="Trazado 776436" d="M252.988,70.482a3.691,3.691,0,0,0,2.9-2.682.686.686,0,0,1,.2-.412.668.668,0,0,1,.388-.083,2.718,2.718,0,0,0,1.955-.894,2.123,2.123,0,0,0,.416-2.069,2.116,2.116,0,0,0,2.18-2.1,2.852,2.852,0,0,0-1.941-2.547,1.62,1.62,0,0,0,.634-1.83,3.209,3.209,0,0,0-1.248-1.618,2.484,2.484,0,0,0-2.6-.492,1.427,1.427,0,0,0-.568-1.5,3.127,3.127,0,0,0-4.162.26A2.827,2.827,0,0,0,250,53.213a1.336,1.336,0,0,0-1.612.239,1.716,1.716,0,0,0-.95-1.359,2.077,2.077,0,0,0-1.178-.367,1.032,1.032,0,0,0-.95.693,1.633,1.633,0,0,0-2.565,2,2.084,2.084,0,0,0-1.705,3.109c-.326-.128-.693.218-.693.568a1.117,1.117,0,0,0,.544.856q-.993,1.534-1.982,3.064a7.477,7.477,0,0,0-1.061,2.09,2.514,2.514,0,0,0,.364,2.232" transform="translate(-231.979 -51.723)" fill="#263238"/>
          <g id="Grupo_1046453" data-name="Grupo 1046453" transform="translate(0 3.977)">
            <g id="Grupo_1046452" data-name="Grupo 1046452">
              <path id="Trazado_776437" data-name="Trazado 776437" d="M244.011,75.022c1.469-2.554.461-6.748-2.142-8.1L232.987,63.2l-.846,1.338L221.11,81.724l6.086,9.094,4.6-5.621s3.462,1.549,6.814-2.111a52.515,52.515,0,0,0,5.4-8.058Z" transform="translate(-221.11 -63.2)" fill="#ffbe9d"/>
              <g id="Grupo_1046450" data-name="Grupo 1046450" transform="translate(18.985 11.563)">
                <path id="Trazado_776438" data-name="Trazado 776438" d="M277.068,102a.623.623,0,0,1-.853.194.6.6,0,0,1-.225-.828.628.628,0,0,1,.853-.2A.6.6,0,0,1,277.068,102Z" transform="translate(-275.899 -99.517)" fill="#263238"/>
                <path id="Trazado_776439" data-name="Trazado 776439" d="M277.937,98.081c-.111.024-.312-.53-.873-.9s-1.161-.36-1.175-.471c-.01-.052.139-.132.405-.142a1.72,1.72,0,0,1,1,.291,1.634,1.634,0,0,1,.638.8c.083.246.062.409.01.419Z" transform="translate(-275.889 -96.565)" fill="#263238"/>
              </g>
              <g id="Grupo_1046451" data-name="Grupo 1046451" transform="translate(13.332 8.139)">
                <path id="Trazado_776440" data-name="Trazado 776440" d="M261.928,93.174a.623.623,0,0,1-.853.194.6.6,0,0,1-.225-.828.628.628,0,0,1,.853-.2.6.6,0,0,1,.225.828Z" transform="translate(-260.354 -90.323)" fill="#263238"/>
                <path id="Trazado_776441" data-name="Trazado 776441" d="M261.627,88.2c-.111.024-.312-.53-.873-.9s-1.161-.36-1.175-.471c-.01-.052.139-.132.405-.142a1.72,1.72,0,0,1,1,.291,1.614,1.614,0,0,1,.638.8c.083.246.062.409.01.419Z" transform="translate(-259.579 -86.685)" fill="#263238"/>
              </g>
              <path id="Trazado_776442" data-name="Trazado 776442" d="M263.569,97.469a4.487,4.487,0,0,1,1.022.44c.152.08.308.142.4.059a.88.88,0,0,0,.187-.489c.1-.437.2-.9.3-1.379a22.905,22.905,0,0,1,.946-3.5,22.35,22.35,0,0,1-.665,3.566c-.114.478-.222.936-.326,1.372a1.006,1.006,0,0,1-.3.613.432.432,0,0,1-.374.055,1.063,1.063,0,0,1-.267-.128,4.344,4.344,0,0,1-.925-.613Z" transform="translate(-248.853 -82.411)" fill="#263238"/>
              <path id="Trazado_776443" data-name="Trazado 776443" d="M243.434,117.084a12.386,12.386,0,0,1-4.478-5.074s-.641,3.733,3.681,6.051l.8-.977Z" transform="translate(-232.75 -95.094)" fill="#eb996e"/>
              <path id="Trazado_776444" data-name="Trazado 776444" d="M256.5,108.024a1.211,1.211,0,0,0-.655-.977,1.111,1.111,0,0,0-.866-.08.7.7,0,0,0-.489.641.814.814,0,0,0,.613.676,2.556,2.556,0,0,0,1,.045.787.787,0,0,0,.27-.059.226.226,0,0,0,.139-.211" transform="translate(-242.921 -91.763)" fill="#eb996e"/>
              <path id="Trazado_776445" data-name="Trazado 776445" d="M257.068,104.6c.094.055-.308.669-.076,1.449s.925,1.144.873,1.234c-.017.045-.222.024-.5-.152a1.818,1.818,0,0,1-.752-.995,1.591,1.591,0,0,1,.1-1.189c.146-.27.315-.378.353-.347Z" transform="translate(-244.262 -90.249)" fill="#263238"/>
            </g>
            <path id="Trazado_776446" data-name="Trazado 776446" d="M264.668,82.57c-.156.118-.669-.329-1.379-.686s-1.362-.53-1.359-.724c0-.09.194-.173.506-.18a2.66,2.66,0,0,1,2.086,1.074c.177.26.218.461.146.516Z" transform="translate(-247.783 -74.817)" fill="#263238"/>
            <path id="Trazado_776447" data-name="Trazado 776447" d="M280.811,92.987c-.184.062-.482-.326-.943-.641s-.915-.485-.918-.679c0-.09.149-.18.4-.187a1.639,1.639,0,0,1,1.5,1.061c.076.239.045.409-.042.444Z" transform="translate(-258.904 -81.678)" fill="#263238"/>
          </g>
          <path id="Trazado_776448" data-name="Trazado 776448" d="M260.407,63.636a2.444,2.444,0,0,1-1.989,1.785,2.42,2.42,0,0,1-2.381-1.189.921.921,0,0,1-.7,1.005,1.72,1.72,0,0,1-1.286-.25,3.293,3.293,0,0,1-1.57-2.246,2.452,2.452,0,0,1-2.021.828,2.425,2.425,0,0,1-1.851-1.151,2.282,2.282,0,0,1-.984,2.371,2.195,2.195,0,0,1-3.227-2.62,2.477,2.477,0,0,1,1.293-3.708,1.491,1.491,0,0,1-.156-1.469,2.962,2.962,0,0,1,.974-1.185,4.7,4.7,0,0,1,3.521-1.081,3.155,3.155,0,0,1,2.655,2.353.7.7,0,0,0,.152.392.624.624,0,0,0,.558.055,4.8,4.8,0,0,1,2.551-.152,2.32,2.32,0,0,1,1.525,2.447,2.7,2.7,0,0,1,3.182.52,2.071,2.071,0,0,1-.412,3.022" transform="translate(-236.067 -53.66)" fill="#263238"/>
          <path id="Trazado_776449" data-name="Trazado 776449" d="M242.41,77.349a10.63,10.63,0,0,1-2.086,2.124,1.28,1.28,0,0,1-1.158.354.9.9,0,0,1-.489-.95,2.344,2.344,0,0,1,.471-1.04,31.128,31.128,0,0,1,2.6-3.168" transform="translate(-232.584 -66.717)" fill="#263238"/>
          <g id="Grupo_1046454" data-name="Grupo 1046454" transform="translate(5.066 9.746)">
            <path id="Trazado_776450" data-name="Trazado 776450" d="M239.169,80.79c-.035-.059-1.577-2.083-2.991-.017a1.877,1.877,0,0,0,.981,3c.045-.055,2.007-2.977,2.007-2.977Z" transform="translate(-235.726 -79.846)" fill="#ffbe9d"/>
            <path id="Trazado_776451" data-name="Trazado 776451" d="M238.389,83.965a.851.851,0,0,1-.132-.014.446.446,0,0,1-.27-.177,1.074,1.074,0,0,1,.139-1.078,1.466,1.466,0,0,1,.454-.447.5.5,0,0,1,.457-.09.218.218,0,0,1,.142.243c-.01.076-.052.107-.045.121s.069,0,.111-.1a.269.269,0,0,0,.007-.184.316.316,0,0,0-.163-.187.615.615,0,0,0-.593.062,1.442,1.442,0,0,0-.516.489,1.143,1.143,0,0,0-.09,1.251.455.455,0,0,0,.364.17c.1-.007.142-.045.135-.055Z" transform="translate(-237.043 -81.253)" fill="#eb996e"/>
          </g>
          <path id="Trazado_776452" data-name="Trazado 776452" d="M268.98,70.228s.017.021.052.059.094.09.173.156a3.372,3.372,0,0,0,.738.485,2.369,2.369,0,0,0,.6.2,1.766,1.766,0,0,0,1.521-.381,1.323,1.323,0,0,0,.461-.832l-.1.014a3.26,3.26,0,0,0,1.324,1.6,3.314,3.314,0,0,0,1.071.433,1.962,1.962,0,0,0,.606.035,1.135,1.135,0,0,0,.582-.229,1.627,1.627,0,0,0,.451-.572,4.862,4.862,0,0,0,.26-.648,2.367,2.367,0,0,0,.135-.672.8.8,0,0,0-.239-.627l-.087.083a1.965,1.965,0,0,0,1.1.665,2.152,2.152,0,0,0,1.171-.059,1.781,1.781,0,0,0,.846-.613,2.1,2.1,0,0,0,.246-2.066,1.309,1.309,0,0,0-.243-.381,4.162,4.162,0,0,1,.2.4,2.072,2.072,0,0,1,.087,1.216,2,2,0,0,1-.367.78,1.72,1.72,0,0,1-.808.572,2.008,2.008,0,0,1-1.112.045,1.872,1.872,0,0,1-1.029-.631l-.087.083a.667.667,0,0,1,.2.537,2.2,2.2,0,0,1-.128.634,2.408,2.408,0,0,1-.669,1.158,1.306,1.306,0,0,1-1.088.17,3.057,3.057,0,0,1-1.029-.412,3.2,3.2,0,0,1-1.286-1.539l-.08-.208-.024.222a1.24,1.24,0,0,1-.419.769,1.691,1.691,0,0,1-.721.371,1.734,1.734,0,0,1-.717.014,2.451,2.451,0,0,1-.589-.184,3.881,3.881,0,0,1-.745-.454c-.159-.125-.243-.194-.246-.191Z" transform="translate(-252.39 -61.627)" fill="#fff"/>
          <path id="Trazado_776453" data-name="Trazado 776453" d="M289.23,85.125a.547.547,0,0,0,.1.159,1.291,1.291,0,0,0,.388.322,1.27,1.27,0,0,0,.738.163.611.611,0,0,0,.416-.218.466.466,0,0,0,.066-.509l-.1.069a.189.189,0,0,1,.028.035,1.962,1.962,0,0,0,1.518.679,1.692,1.692,0,0,0,.506-.083c.114-.042.173-.073.17-.08a3.782,3.782,0,0,1-.676.076,1.957,1.957,0,0,1-1.421-.672c-.01-.01-.017-.021-.028-.031l-.405-.464.3.534a.355.355,0,0,1-.052.371.53.53,0,0,1-.336.18,1.253,1.253,0,0,1-.683-.125,2.155,2.155,0,0,1-.523-.4Z" transform="translate(-265.622 -73.186)" fill="#fff"/>
          <path id="Trazado_776454" data-name="Trazado 776454" d="M275.35,96.172c0,.021.184-.01.475,0a2.35,2.35,0,0,1,1.875,1.1c.156.246.218.419.239.412a1.042,1.042,0,0,0-.159-.457,2.177,2.177,0,0,0-1.948-1.14,1.046,1.046,0,0,0-.478.083Z" transform="translate(-256.552 -80.713)" fill="#eb996e"/>
          <path id="Trazado_776455" data-name="Trazado 776455" d="M259.49,85.615a2.576,2.576,0,0,0,.385.014,1.978,1.978,0,0,1,.863.26,2.05,2.05,0,0,1,.652.62c.128.194.184.336.2.329a.773.773,0,0,0-.125-.374,1.817,1.817,0,0,0-.665-.686,1.8,1.8,0,0,0-.922-.239A.763.763,0,0,0,259.49,85.615Z" transform="translate(-246.188 -73.819)" fill="#eb996e"/>
          <path id="Trazado_776456" data-name="Trazado 776456" d="M256.21,103.986s.062-.014.146-.028a.709.709,0,0,1,.326.014c.25.073.451.2.471.166a.713.713,0,0,0-.44-.288.594.594,0,0,0-.388.024c-.094.045-.128.1-.118.114Z" transform="translate(-244.042 -85.771)" fill="#eb996e"/>
          <path id="Trazado_776457" data-name="Trazado 776457" d="M254.5,103.49c.028.024.173-.1.371-.229s.374-.208.364-.243-.218,0-.433.135-.333.315-.3.336Z" transform="translate(-242.92 -85.233)" fill="#eb996e"/>
          <path id="Trazado_776458" data-name="Trazado 776458" d="M229.879,86.83a1.5,1.5,0,0,0-.5.021,2.572,2.572,0,0,0-1.223.579,2.313,2.313,0,0,0-.794,1.837,2.245,2.245,0,0,0,1.4,1.975,2.071,2.071,0,0,0,1.307.08,2.628,2.628,0,0,0,1.071-.565,2.328,2.328,0,0,0,.846-1.813,2.026,2.026,0,0,0-.485-1.265.967.967,0,0,0-.388-.312c-.014.017.132.121.312.371a2.075,2.075,0,0,1,.385,1.206A2.187,2.187,0,0,1,231,90.58a2.128,2.128,0,0,1-2.135.43,2.027,2.027,0,0,1-1.265-1.754,2.164,2.164,0,0,1,.683-1.695,2.723,2.723,0,0,1,1.13-.613c.3-.083.475-.094.471-.114Z" transform="translate(-225.197 -74.656)" fill="#455a64"/>
        </g>
        <g id="Grupo_1046456" data-name="Grupo 1046456" transform="translate(2.717 53.859)">
          <path id="Trazado_776459" data-name="Trazado 776459" d="M74.924,207.13c-6.3,4.89-7.257,12.646-7.687,17.1s-3.875,22.243-3.875,22.243-7.2,11.177-9.78,15.915-7.742,14.629-7.742,14.629l8.626,5.334s15.5-21.092,18.223-25.255,16.632-39.2,16.632-39.2l-14.4-10.751Z" transform="translate(-45.84 -207.13)" fill="#263238"/>
          <path id="Trazado_776460" data-name="Trazado 776460" d="M163.414,237.777c.433.832,11.87,29.056,11.572,31.878s-14.559,31.8-14.559,31.8l-10.546-4.467,10.844-24.066.3-3.306-10.1-19.124,3.268-14.112,9.222,1.4Z" transform="translate(-113.823 -226.243)" fill="#263238"/>
          <path id="Trazado_776461" data-name="Trazado 776461" d="M156.884,251.093c.045.021-1.147,2.859-2.665,6.339s-2.786,6.29-2.831,6.269,1.147-2.859,2.665-6.342,2.786-6.287,2.831-6.269Z" transform="translate(-114.807 -235.855)" fill="#455a64"/>
          <path id="Trazado_776462" data-name="Trazado 776462" d="M186.312,333.372a3.646,3.646,0,0,1-1.993-.01,3.714,3.714,0,0,1-1.781-.9,10.543,10.543,0,0,0,1.823.724,10.374,10.374,0,0,0,1.951.187Z" transform="translate(-135.162 -289.025)" fill="#455a64"/>
          <path id="Trazado_776463" data-name="Trazado 776463" d="M185.429,341.781c-.021.052-.78-.229-1.761-.4s-1.788-.184-1.788-.236a4.727,4.727,0,0,1,1.823.059,4.652,4.652,0,0,1,1.726.582Z" transform="translate(-134.733 -294.661)" fill="#455a64"/>
          <path id="Trazado_776464" data-name="Trazado 776464" d="M125.545,222.38a1.722,1.722,0,0,1-.2.18,7.046,7.046,0,0,1-.617.416,9.829,9.829,0,0,1-4.661,1.4,7.019,7.019,0,0,1-.742-.007c-.177-.014-.27-.024-.27-.038a10.033,10.033,0,0,1,1.005-.083,11.789,11.789,0,0,0,4.606-1.383c.548-.295.866-.509.884-.485Z" transform="translate(-93.678 -217.091)" fill="#455a64"/>
        </g>
        <g id="Grupo_1046461" data-name="Grupo 1046461" transform="translate(31.216 20.25)">
          <g id="Grupo_1046458" data-name="Grupo 1046458" transform="translate(34.071 9.041)">
            <path id="Trazado_776465" data-name="Trazado 776465" d="M232.7,137.325l9.229,11.919,19.359,7.926-2.059,4.131-24.749-8.446-8.1-16.615Z" transform="translate(-226.38 -136.24)" fill="#455a64"/>
            <g id="Grupo_1046457" data-name="Grupo 1046457" opacity="0.2">
              <path id="Trazado_776466" data-name="Trazado 776466" d="M232.7,137.325l9.229,11.919,19.359,7.926-2.059,4.131-24.749-8.446-8.1-16.615Z" transform="translate(-226.38 -136.24)"/>
            </g>
          </g>
          <path id="Trazado_776467" data-name="Trazado 776467" d="M218.129,113.226a1.063,1.063,0,0,1-.038-1.456l1.262-1.411a.517.517,0,0,1,.714-.111c1.757,1.272,8.408,6.321,8.394,7.767-.017,1.639-2.835,3.285-2.835,3.285l-7.493-8.079Z" transform="translate(-186.716 -110.152)" fill="#455a64"/>
          <path id="Trazado_776468" data-name="Trazado 776468" d="M202.463,125.59s12.359,17.079,15.582,19.051,23.463,4.751,23.463,4.751l.787-5.985-19.522-6.259s-12.736-18.77-13.062-19.311a6.963,6.963,0,0,0-5.611-2.215c-2.773.354-4.18,4.731-3.223,6.9.364.825,1.591,3.074,1.591,3.074Z" transform="translate(-175.448 -113.7)" fill="#455a64"/>
          <path id="Trazado_776469" data-name="Trazado 776469" d="M159.566,115.056a6.674,6.674,0,0,0-6.97,1.653c-1.826,1.705-18.545,25.13-19.723,26.7l-4.8,3.317c8.034,7.4,14.258,13.582,22.829,15.731l4.464-14.476L169.076,135.5l-9.506-20.444Z" transform="translate(-128.07 -113.116)" fill="#455a64"/>
          <path id="Trazado_776470" data-name="Trazado 776470" d="M202.16,139.37a1.689,1.689,0,0,1,.125.159c.087.125.194.284.326.478.277.416.69,1.015,1.206,1.747,1.029,1.466,2.52,3.445,4.249,5.562s3.348,3.992,4.519,5.355c.572.669,1.04,1.213,1.379,1.615.149.18.274.326.371.444s.125.159.118.163a.81.81,0,0,1-.146-.139c-.1-.111-.236-.25-.4-.423l-1.424-1.577c-1.192-1.338-2.828-3.2-4.561-5.323s-3.209-4.117-4.214-5.6c-.5-.742-.9-1.352-1.158-1.781l-.3-.5a1.016,1.016,0,0,1-.094-.18Z" transform="translate(-176.483 -129.244)" fill="#263238"/>
          <path id="Trazado_776471" data-name="Trazado 776471" d="M243.451,143.317s-.035-.007-.1-.024-.166-.052-.284-.087c-.256-.083-.624-.2-1.1-.357l-4.079-1.355-13.995-4.71-.028-.01-.017-.024c-1.265-1.868-2.62-3.868-4.017-5.933-2.149-3.178-4.193-6.207-6.055-8.962-.929-1.379-1.813-2.686-2.637-3.913a8.985,8.985,0,0,0-.627-.877,2.828,2.828,0,0,0-.378-.357,5.053,5.053,0,0,0-.4-.326,4.782,4.782,0,0,0-1.774-.752,4.872,4.872,0,0,0-5.015,2.346,5.5,5.5,0,0,0-.36.853,3.215,3.215,0,0,0-.159.662c-.045.308-.066.457-.083.558a4.287,4.287,0,0,1,.045-.565,3.177,3.177,0,0,1,.146-.669,4.466,4.466,0,0,1,2.142-2.689,5.012,5.012,0,0,1,3.306-.617,4.9,4.9,0,0,1,1.833.766,5.2,5.2,0,0,1,.409.333,3.032,3.032,0,0,1,.392.371,9.066,9.066,0,0,1,.641.891c.832,1.223,1.719,2.53,2.651,3.906,1.865,2.752,3.913,5.777,6.065,8.955,1.4,2.066,2.748,4.069,4.013,5.937l-.045-.035,13.974,4.772c1.726.6,3.105,1.074,4.062,1.4l1.085.385c.118.042.208.076.277.1s.094.038.094.038Z" transform="translate(-176.608 -113.614)" fill="#263238"/>
          <path id="Trazado_776472" data-name="Trazado 776472" d="M214.285,173.745a2.106,2.106,0,0,1-.18.236,7.347,7.347,0,0,1-.561.575,11.247,11.247,0,0,1-4.6,2.585,7.294,7.294,0,0,1-.783.18.9.9,0,0,1-.295.031c-.007-.028.4-.125,1.04-.336a13.4,13.4,0,0,0,4.55-2.561c.513-.437.8-.738.825-.717Z" transform="translate(-180.214 -151.701)" fill="#263238"/>
          <path id="Trazado_776473" data-name="Trazado 776473" d="M174.956,199.026s-.211.042-.6.08-.953.08-1.653.1a29.848,29.848,0,0,1-5.452-.354,29.422,29.422,0,0,1-5.292-1.355c-.658-.239-1.182-.447-1.539-.61a4.317,4.317,0,0,1-.548-.263,4.159,4.159,0,0,1,.575.2c.364.142.894.333,1.556.555a33.63,33.63,0,0,0,5.278,1.3,33.286,33.286,0,0,0,5.42.4c.7-.007,1.262-.024,1.65-.045a3.854,3.854,0,0,1,.607-.01Z" transform="translate(-148.849 -166.657)" fill="#263238"/>
          <path id="Trazado_776474" data-name="Trazado 776474" d="M192.159,196.988a3.984,3.984,0,0,1-.967.239,11.819,11.819,0,0,1-4.779-.191,3.914,3.914,0,0,1-.943-.315,8.927,8.927,0,0,1,.974.191,15.261,15.261,0,0,0,2.36.284,15.485,15.485,0,0,0,2.374-.1,8.442,8.442,0,0,1,.984-.114Z" transform="translate(-165.577 -166.716)" fill="#263238"/>
          <g id="Grupo_1046459" data-name="Grupo 1046459" transform="translate(27.83 13.332)" opacity="0.2">
            <path id="Trazado_776475" data-name="Trazado 776475" d="M208.37,148.62l5.542,9.4a23.92,23.92,0,0,1-4.415,2.572,33.94,33.94,0,0,0,5.115-1.917L217.533,160l-9.163-11.378Z" transform="translate(-208.37 -148.62)"/>
          </g>
          <g id="Grupo_1046460" data-name="Grupo 1046460" transform="translate(12.657 30.764)" opacity="0.2">
            <path id="Trazado_776476" data-name="Trazado 776476" d="M176.408,200.587a10.529,10.529,0,0,1-6.325,1.078,9.254,9.254,0,0,1-5.493-2.745s4.523,1.23,6.259,1.424S176.408,200.587,176.408,200.587Z" transform="translate(-164.59 -198.92)"/>
          </g>
          <path id="Trazado_776477" data-name="Trazado 776477" d="M139.8,209.8a7.838,7.838,0,0,0-1.747.766,5.547,5.547,0,0,0-1.234,1.126l-.069-.049c.1-.114.163-.173.177-.163s-.024.083-.107.215l-.069-.049a3.857,3.857,0,0,1,1.2-1.227,3.216,3.216,0,0,1,1.847-.617Z" transform="translate(-133.742 -175.261)" fill="#263238"/>
          <path id="Trazado_776478" data-name="Trazado 776478" d="M153.765,220.518a4.9,4.9,0,0,1-1.14,1.407,4.777,4.777,0,0,1-1.487,1.036c-.028-.045.641-.5,1.362-1.168S153.72,220.487,153.765,220.518Z" transform="translate(-143.143 -182.268)" fill="#263238"/>
          <path id="Trazado_776479" data-name="Trazado 776479" d="M168.018,232.239a6.649,6.649,0,0,1-2.45,2.8c-.035-.042.617-.568,1.289-1.341S167.969,232.211,168.018,232.239Z" transform="translate(-152.571 -189.927)" fill="#263238"/>
          <path id="Trazado_776480" data-name="Trazado 776480" d="M184.43,238.09a5.221,5.221,0,0,1-1.5,3.313c-.042-.035.475-.679.887-1.594s.565-1.726.62-1.716Z" transform="translate(-163.913 -193.751)" fill="#263238"/>
          <path id="Trazado_776481" data-name="Trazado 776481" d="M222.43,114.479c-.021-.01.017-.146.128-.347a1.9,1.9,0,0,1,.617-.645,2.691,2.691,0,0,1,.818-.343c.218-.052.357-.062.364-.038.021.059-.53.187-1.085.534s-.79.873-.842.842Z" transform="translate(-189.724 -112.075)" fill="#263238"/>
          <path id="Trazado_776482" data-name="Trazado 776482" d="M229.421,120.91a2.644,2.644,0,0,1,1.865-1.6c.021.052-.5.263-1.012.71S229.466,120.938,229.421,120.91Z" transform="translate(-194.293 -116.128)" fill="#263238"/>
          <path id="Trazado_776483" data-name="Trazado 776483" d="M238.529,126.848a4.944,4.944,0,0,1-2.461,2.45c-.028-.049.648-.451,1.324-1.13S238.481,126.821,238.529,126.848Z" transform="translate(-198.639 -121.062)" fill="#263238"/>
        </g>
        <g id="Grupo_1046462" data-name="Grupo 1046462" transform="translate(97.268 45.011)">
          <path id="Trazado_776484" data-name="Trazado 776484" d="M319.183,186.805l2.8-3.84,2.073-.454,4.481-.911s.523.312-.111,1.1l-.36.295,1.736-.045a1.332,1.332,0,0,1-.794,1.282l-2.925.849-1.1.333a12.249,12.249,0,0,0,3.109-.128,4.375,4.375,0,0,1,1.518-.253.785.785,0,0,1-.114,1.13c-.6.638-2.35.832-2.766.936a15.973,15.973,0,0,1-1.9.139,2.977,2.977,0,0,0,1.584.381c1-.01,2.027.021,2.027.021s.052.95-.558,1.137a22.459,22.459,0,0,1-3.3.135l-.742.405a17.413,17.413,0,0,1-2.676,2.384c-.693.3-2.513.835-2.513.835l.52-5.725Z" transform="translate(-318.66 -181.6)" fill="#ffbe9d"/>
          <path id="Trazado_776485" data-name="Trazado 776485" d="M337.2,185.757a2.447,2.447,0,0,1-.672.308,9.771,9.771,0,0,1-1.729.44,9.585,9.585,0,0,1-1.781.111,2.51,2.51,0,0,1-.735-.087c0-.055,1.126.017,2.488-.2s2.412-.624,2.433-.568Z" transform="translate(-327.56 -184.315)" fill="#eb996e"/>
        </g>
      </g>
      <g id="Plant" transform="translate(164.243 108.866)">
        <g id="Grupo_1046467" data-name="Grupo 1046467">
          <g id="Grupo_1046464" data-name="Grupo 1046464">
            <path id="Trazado_776486" data-name="Trazado 776486" d="M427.79,353s-7.375-8.487-10.158-16.978-1.463-7.514-1.463-7.514,3.757,8.245,6.609,12.227,7.933,9.829,7.933,9.829L427.79,353Z" transform="translate(-415.857 -320.175)" fill="#455a64"/>
            <path id="Trazado_776487" data-name="Trazado 776487" d="M453.011,331.964a.43.43,0,0,0-.8.274,111.206,111.206,0,0,1,1.383,14.518c-.049,5.9,0,8.176,0,8.176h3.071s-.544-12.185-1.237-15.9a25.513,25.513,0,0,0-2.416-7.063Z" transform="translate(-439.608 -322.313)" fill="#455a64"/>
            <path id="Trazado_776488" data-name="Trazado 776488" d="M459.36,351.958a32.564,32.564,0,0,0,2.527-9.167c.253-2.17-.2-5.1-.87-9.018a24.222,24.222,0,0,1-.388-4.339.733.733,0,0,1,1.376-.343,19.524,19.524,0,0,1,1.716,4.336c.742,3.864,1.584,5.795.943,9.461a56.8,56.8,0,0,1-3.022,9.312l-2.28-.246Z" transform="translate(-444.283 -320.33)" fill="#455a64"/>
            <path id="Trazado_776489" data-name="Trazado 776489" d="M467.333,343.35s8.1-17.4,8.657-19.983,2.471-8.533,2.693-8.193.561,3.48-.9,7.07-7.69,21.636-7.69,21.636H467.33" transform="translate(-449.491 -311.476)" fill="#455a64"/>
            <path id="Trazado_776490" data-name="Trazado 776490" d="M430.236,351.705a2.563,2.563,0,0,1-.225-.156c-.142-.107-.36-.263-.627-.478a28.238,28.238,0,0,1-2.176-1.92,36.488,36.488,0,0,1-5.874-7.541,49.545,49.545,0,0,1-4.01-8.685c-.409-1.154-.7-2.1-.9-2.759-.1-.329-.166-.586-.215-.759a1.7,1.7,0,0,1-.062-.267,1.667,1.667,0,0,1,.1.256c.062.187.142.437.246.749.211.652.527,1.591.95,2.738a52.684,52.684,0,0,0,4.044,8.64,38.021,38.021,0,0,0,5.812,7.541c.866.863,1.608,1.518,2.131,1.955.26.225.468.385.607.5a1.533,1.533,0,0,1,.2.184Z" transform="translate(-416.046 -320.611)" fill="#263238"/>
            <path id="Trazado_776491" data-name="Trazado 776491" d="M455.447,345.817s-.038-.18-.073-.509c-.038-.36-.09-.828-.149-1.4-.128-1.178-.329-2.8-.613-4.585s-.607-3.389-.853-4.547c-.121-.555-.218-1.015-.295-1.372a2.663,2.663,0,0,1-.09-.506,3.388,3.388,0,0,1,.156.492c.09.319.211.783.35,1.362.277,1.154.617,2.759.9,4.547s.468,3.417.565,4.6c.049.593.08,1.071.094,1.4a3.443,3.443,0,0,1,.007.516Z" transform="translate(-440.37 -323.068)" fill="#263238"/>
            <path id="Trazado_776492" data-name="Trazado 776492" d="M463.273,329.42s.038.073.1.222.142.378.243.648.229.627.347,1.036.277.87.4,1.393c.062.26.132.534.2.818s.118.586.177.894c.132.617.215,1.289.312,1.989a29.706,29.706,0,0,1-.329,9.2c-.149.693-.277,1.359-.454,1.965-.083.3-.152.6-.243.88s-.177.548-.26.8c-.156.513-.343.963-.492,1.362s-.295.738-.419,1.009-.215.468-.288.627a1.18,1.18,0,0,1-.111.215,1.115,1.115,0,0,1,.08-.229c.066-.163.152-.374.256-.638s.256-.613.392-1.015.319-.849.468-1.365c.08-.256.163-.523.246-.8s.149-.575.232-.88c.17-.607.295-1.265.437-1.958a30.713,30.713,0,0,0,.326-9.153c-.094-.7-.17-1.369-.295-1.982-.059-.308-.1-.61-.166-.894s-.128-.558-.187-.818c-.107-.523-.256-.984-.367-1.393s-.222-.759-.319-1.043-.159-.489-.211-.655a1.357,1.357,0,0,1-.062-.232Z" transform="translate(-446.3 -320.794)" fill="#263238"/>
            <path id="Trazado_776493" data-name="Trazado 776493" d="M481.1,316.21a.676.676,0,0,1-.007.08c-.01.062-.021.135-.035.225-.035.2-.08.492-.159.866-.156.749-.416,1.826-.821,3.133s-.957,2.842-1.612,4.523-1.414,3.521-2.131,5.476-1.293,3.854-1.82,5.583-1.019,3.282-1.5,4.561a28.905,28.905,0,0,1-1.279,2.977c-.166.343-.315.6-.412.78q-.068.12-.114.2a.3.3,0,0,1-.045.066.462.462,0,0,1,.028-.073c.028-.055.059-.125.1-.208.087-.18.225-.444.381-.79.326-.69.766-1.705,1.223-2.987s.946-2.835,1.463-4.568,1.078-3.639,1.813-5.6,1.483-3.792,2.145-5.472,1.227-3.2,1.643-4.5.7-2.367.873-3.112c.09-.371.146-.662.191-.859.021-.09.038-.163.052-.222a.349.349,0,0,1,.024-.076Z" transform="translate(-451.994 -312.162)" fill="#263238"/>
            <g id="Grupo_1046463" data-name="Grupo 1046463" transform="translate(2.952)">
              <path id="Trazado_776494" data-name="Trazado 776494" d="M425.555,304.732a.7.7,0,0,0-1.147.71,19.753,19.753,0,0,0,1.019,2.617c1.112,2.367,4.384,10.855,5.912,15.516s3.688,13.36,3.688,13.36l3.268-.53s-2.991-14.289-5.912-19.439C430.036,312.828,427.686,306.849,425.555,304.732Z" transform="translate(-424.374 -304.531)" fill="#455a64"/>
              <path id="Trazado_776495" data-name="Trazado 776495" d="M447.05,367.9s.069.135.17.392.229.631.378,1.1c.3.932.669,2.235,1.04,3.681s.679,2.766.894,3.719c.1.451.18.832.246,1.133a1.7,1.7,0,0,1,.066.419,2.141,2.141,0,0,1-.132-.406c-.08-.3-.18-.672-.3-1.119-.25-.984-.579-2.277-.943-3.7-.371-1.445-.721-2.748-.991-3.687-.128-.444-.239-.814-.322-1.112a1.944,1.944,0,0,1-.1-.412Z" transform="translate(-439.191 -345.938)" fill="#263238"/>
              <path id="Trazado_776496" data-name="Trazado 776496" d="M437.383,336.958a.412.412,0,0,1-.017-.087c-.01-.069-.021-.152-.038-.256-.035-.225-.066-.561-.135-.991-.121-.859-.333-2.1-.686-3.6a52.786,52.786,0,0,0-1.528-5.223c-.669-1.937-1.511-4.031-2.464-6.193-1.923-4.325-3.843-8.162-5.105-11-.638-1.414-1.133-2.572-1.459-3.376-.166-.4-.284-.717-.367-.929-.038-.1-.066-.18-.09-.243s-.028-.083-.024-.087a.488.488,0,0,1,.042.08c.028.062.062.142.107.236.1.222.229.527.4.918.343.8.856,1.944,1.508,3.351,1.289,2.821,3.227,6.647,5.154,10.983.953,2.17,1.792,4.266,2.457,6.214a48.7,48.7,0,0,1,1.5,5.247c.336,1.518.534,2.762.634,3.625.059.43.08.769.1.995q.01.156.021.26a.3.3,0,0,1,0,.09Z" transform="translate(-425.089 -304.818)" fill="#263238"/>
              <path id="Trazado_776497" data-name="Trazado 776497" d="M457.794,370.6s-.052-.194-.111-.548c-.066-.385-.149-.891-.253-1.5-.225-1.265-.568-3.012-1.064-4.911s-1.04-3.59-1.466-4.807c-.208-.586-.381-1.067-.509-1.435a3.613,3.613,0,0,1-.173-.534,3.74,3.74,0,0,1,.236.509c.142.333.336.814.565,1.417a48,48,0,0,1,1.518,4.8,49.99,49.99,0,0,1,1.015,4.932c.094.638.163,1.154.2,1.515a4.089,4.089,0,0,1,.045.558Z" transform="translate(-443.874 -338.724)" fill="#263238"/>
            </g>
          </g>
          <g id="Grupo_1046466" data-name="Grupo 1046466" transform="translate(8.191 31.406)">
            <rect id="Rectángulo_356757" data-name="Rectángulo 356757" width="12.757" height="15.544" transform="translate(2.63)" fill="#ff725e"/>
            <g id="Grupo_1046465" data-name="Grupo 1046465" transform="translate(2.63)" opacity="0.3">
              <rect id="Rectángulo_356758" data-name="Rectángulo 356758" width="12.757" height="15.544"/>
            </g>
            <rect id="Rectángulo_356759" data-name="Rectángulo 356759" width="11.319" height="15.544" fill="#ff725e"/>
          </g>
        </g>
      </g>
    </g>
  </g>
</svg>
