<svg xmlns="http://www.w3.org/2000/svg" width="272" height="198" viewBox="0 0 272 198">
  <g id="Grupo_1054373" data-name="Grupo 1054373" transform="translate(-571 3012)">
    <rect id="AdobeStock_590491381" width="272" height="198" rx="11" transform="translate(571 -3012)" fill="#354457"/>
    <g id="Grupo_1046758" data-name="Grupo 1046758" transform="translate(-487.184 -10747.01)">
      <g id="_7000947" data-name="7000947" transform="translate(1078.489 7776.497)">
        <g id="Background_Complete" data-name="Background Complete" transform="translate(0 0)">
          <g id="Grupo_1046549" data-name="Grupo 1046549" transform="translate(201.121 10.23)">
            <path id="Trazado_776729" data-name="Trazado 776729" d="M645.823,95.486a3.2,3.2,0,1,1-3.838-2.406A3.2,3.2,0,0,1,645.823,95.486Z" transform="translate(-630.713 -71.797)" fill="#ebebeb"/>
            <g id="Grupo_1046547" data-name="Grupo 1046547" transform="translate(0 0)">
              <path id="Trazado_776730" data-name="Trazado 776730" d="M614.59,65.255l24-5.513L636.5,58.218a6.638,6.638,0,0,1-2.564-3.883l-1.5-6.508a8.977,8.977,0,0,0-10.754-6.737h0a8.977,8.977,0,0,0-6.737,10.754l1.439,6.261a6.671,6.671,0,0,1-.462,4.317Z" transform="translate(-614.59 -38.05)" fill="#ebebeb"/>
              <rect id="Rectángulo_356792" data-name="Rectángulo 356792" width="2.416" height="5.136" rx="1.208" transform="translate(5.015 0.541) rotate(-12.94)" fill="#ebebeb"/>
            </g>
            <path id="Trazado_776731" data-name="Trazado 776731" d="M638.937,94.537c.011.049-5.315,1.316-11.9,2.825s-11.929,2.695-11.94,2.645,5.316-1.312,11.9-2.825,11.929-2.695,11.94-2.645Z" transform="translate(-614.92 -72.792)" fill="#e0e0e0"/>
            <path id="Trazado_776732" data-name="Trazado 776732" d="M639.81,101.752a5.348,5.348,0,0,0,3.266.384,5.139,5.139,0,0,0,2.973-1.817Z" transform="translate(-630.914 -76.536)" fill="#e0e0e0"/>
            <path id="Trazado_776733" data-name="Trazado 776733" d="M644.106,56.357a1.765,1.765,0,0,0-.36-.765.624.624,0,0,0-.772-.148h0a.672.672,0,0,0-.377.762c.233,1.03.744,3.3,1,4.67a5.312,5.312,0,0,1-.2,3.365,3.825,3.825,0,0,1-1.979,1.682,14.39,14.39,0,0,1-2.557.684,13.523,13.523,0,0,0-3.185,1.016,1.666,1.666,0,0,0-.7.54.652.652,0,0,0,.056.822.99.99,0,0,0,.787.116,40.983,40.983,0,0,0,8.25-1.771,2.2,2.2,0,0,0,1.742-2.854,46.294,46.294,0,0,0-1.7-8.109Z" transform="translate(-627.708 -47.437)" fill="#e0e0e0"/>
            <g id="Grupo_1046548" data-name="Grupo 1046548" transform="translate(4.822 5.107)" opacity="0.2">
              <path id="Trazado_776734" data-name="Trazado 776734" d="M628.26,47.395a.137.137,0,0,0,.021-.007.124.124,0,0,0,.028-.018Z" transform="translate(-628.26 -47.37)" fill="#fff"/>
            </g>
            <path id="Trazado_776735" data-name="Trazado 776735" d="M632.615,41.322c-.014.035-.543-.19-1.443-.374a9.433,9.433,0,0,0-1.6-.176,11.054,11.054,0,0,0-1.961.148,10.564,10.564,0,0,0-1.891.54,9.248,9.248,0,0,0-1.439.72c-.783.48-1.2.875-1.224.847a1.735,1.735,0,0,1,.282-.286,3.278,3.278,0,0,1,.363-.3,5.913,5.913,0,0,1,.511-.367,8.869,8.869,0,0,1,1.443-.765,9.255,9.255,0,0,1,3.919-.7,8.69,8.69,0,0,1,1.619.219,4.683,4.683,0,0,1,.6.169,3.278,3.278,0,0,1,.444.162,1.563,1.563,0,0,1,.363.173Z" transform="translate(-620.072 -37.88)" fill="#e0e0e0"/>
            <path id="Trazado_776736" data-name="Trazado 776736" d="M619.939,94.1c-.053-.021.258-.772.37-1.753s0-1.785.056-1.792a4.821,4.821,0,0,1-.427,3.545Z" transform="translate(-618.048 -70.219)" fill="#fff"/>
            <path id="Trazado_776737" data-name="Trazado 776737" d="M645.368,107.322a1.016,1.016,0,0,1-.483.229,2.452,2.452,0,0,1-2.409-.66c-.229-.243-.317-.434-.3-.444s.148.145.388.349a2.842,2.842,0,0,0,1.076.575,2.8,2.8,0,0,0,1.217.049,3.076,3.076,0,0,1,.511-.1Z" transform="translate(-632.444 -80.502)" fill="#fff"/>
            <path id="Trazado_776738" data-name="Trazado 776738" d="M630.578,34.77a5.008,5.008,0,0,0-.222.871,5.172,5.172,0,0,0,.106.892,1.029,1.029,0,0,1-.289-.9,1.04,1.04,0,0,1,.406-.857Z" transform="translate(-624.673 -34.107)" fill="#fff"/>
          </g>
          <path id="Trazado_776739" data-name="Trazado 776739" d="M59.751,125.317a7.776,7.776,0,0,1,1.853-.807l.382-1.836,3.1-.054.448,1.822a7.581,7.581,0,0,1,1.882.741l1.568-1.026,2.232,2.155-.972,1.6a7.663,7.663,0,0,1,.807,1.853l1.836.382.054,3.1-1.822.448a7.582,7.582,0,0,1-.741,1.882l1.026,1.568-2.152,2.232-1.6-.972a7.776,7.776,0,0,1-1.853.807l-.382,1.836-3.1.054-.448-1.822a7.583,7.583,0,0,1-1.882-.741l-1.568,1.026-2.232-2.155.972-1.6a7.663,7.663,0,0,1-.807-1.853l-1.836-.382-.054-3.1,1.822-.448a7.582,7.582,0,0,1,.741-1.882L56,126.577l2.152-2.232,1.6.972h0Zm1.654,4.131a3.327,3.327,0,1,0,4.7-.083A3.325,3.325,0,0,0,61.4,129.448Z" transform="translate(-15.63 -67.059)" fill="#e0e0e0" opacity="0.58"/>
          <path id="Trazado_776740" data-name="Trazado 776740" d="M662.417,257.823a7.511,7.511,0,0,1,1.831-.8l.377-1.813,3.065-.053.441,1.8a7.6,7.6,0,0,1,1.859.73l1.549-1.016,2.2,2.13-.959,1.584a7.478,7.478,0,0,1,.8,1.834l1.813.377.053,3.065-1.8.441a7.6,7.6,0,0,1-.73,1.859l1.016,1.548-2.127,2.2-1.584-.959a7.474,7.474,0,0,1-1.834.8l-.377,1.813-3.065.053-.441-1.8a7.6,7.6,0,0,1-1.859-.73l-1.549,1.016-2.2-2.127.959-1.584a7.477,7.477,0,0,1-.8-1.834l-1.813-.377-.053-3.065,1.8-.441a7.606,7.606,0,0,1,.73-1.859l-1.016-1.548,2.127-2.2,1.584.959h0Zm1.633,4.081a3.288,3.288,0,1,0,4.649-.081A3.288,3.288,0,0,0,664.05,261.9Z" transform="translate(-449.09 -192.051)" fill="#ebebeb" opacity="0.65"/>
          <path id="Trazado_776741" data-name="Trazado 776741" d="M27.519,257.831a4.828,4.828,0,0,1,1.185-.515l.243-1.171,1.979-.035.286,1.164a4.929,4.929,0,0,1,1.2.473l1-.656,1.425,1.376-.621,1.023a4.83,4.83,0,0,1,.515,1.185l1.171.243.035,1.979-1.164.286a4.931,4.931,0,0,1-.473,1.2l.656,1-1.376,1.425-1.023-.621a4.829,4.829,0,0,1-1.185.515l-.243,1.171-1.979.035-.286-1.164a4.931,4.931,0,0,1-1.2-.473l-1,.656-1.425-1.376.621-1.023a4.83,4.83,0,0,1-.515-1.185l-1.171-.243-.035-1.979,1.164-.286a4.931,4.931,0,0,1,.473-1.2l-.656-1,1.376-1.425,1.023.621h0Zm1.055,2.638a2.125,2.125,0,1,0,3.005-.053A2.127,2.127,0,0,0,28.574,260.47Z" transform="translate(-6.056 -189.978)" fill="#e0e0e0"/>
          <path id="Trazado_776742" data-name="Trazado 776742" d="M232.463,23a10.791,10.791,0,0,1,2.656-1.153l.547-2.628,4.437-.078.638,2.607a10.924,10.924,0,0,1,2.695,1.058l2.243-1.471,3.192,3.083-1.39,2.293a10.791,10.791,0,0,1,1.153,2.656l2.628.547.078,4.437-2.607.638a10.922,10.922,0,0,1-1.058,2.695l1.471,2.243-3.083,3.2-2.293-1.39a10.791,10.791,0,0,1-2.656,1.153l-.547,2.628-4.437.078-.638-2.607a10.924,10.924,0,0,1-2.695-1.058L230.555,43.4l-3.2-3.083,1.39-2.293a10.788,10.788,0,0,1-1.153-2.656l-2.628-.547-.078-4.437,2.607-.638a10.923,10.923,0,0,1,1.058-2.695L227.084,24.8l3.083-3.2L232.459,23h0Zm2.367,5.912a4.762,4.762,0,1,0,6.733-.12A4.76,4.76,0,0,0,234.83,28.91Z" transform="translate(-208.229 -19.14)" fill="#f5f5f5"/>
          <path id="Trazado_776743" data-name="Trazado 776743" d="M577.023,339.579a10.788,10.788,0,0,1,2.656-1.153l.547-2.628,4.437-.078.638,2.607A10.922,10.922,0,0,1,588,339.385l2.243-1.471L593.431,341l-1.39,2.293a10.794,10.794,0,0,1,1.153,2.656l2.628.547.078,4.437-2.607.638a10.928,10.928,0,0,1-1.058,2.695l1.471,2.243-3.083,3.2-2.293-1.39a10.789,10.789,0,0,1-2.656,1.153l-.547,2.628-4.437.078-.638-2.607a10.923,10.923,0,0,1-2.695-1.058l-2.243,1.471-3.2-3.083,1.39-2.293a10.789,10.789,0,0,1-1.153-2.656l-2.628-.547-.078-4.437,2.607-.638a10.927,10.927,0,0,1,1.058-2.695l-1.471-2.243,3.083-3.2,2.293,1.39h0Zm2.367,5.912a4.762,4.762,0,1,0,6.733-.12A4.76,4.76,0,0,0,579.39,345.49Z" transform="translate(-378.672 -247.044)" fill="#f5f5f5"/>
        </g>
        <g id="Desk" transform="translate(2.695 133.237)">
          <path id="Trazado_776744" data-name="Trazado 776744" d="M255.055,442.732c0,.049-50.69.092-113.2.092s-113.213-.042-113.213-.092,50.679-.092,113.213-.092S255.055,442.682,255.055,442.732Z" transform="translate(-28.64 -442.64)" fill="#f5f5f5"/>
        </g>
        <g id="Plant" transform="translate(21.129 77.856)">
          <g id="Grupo_1046641" data-name="Grupo 1046641">
            <g id="Grupo_1046640" data-name="Grupo 1046640">
              <path id="Trazado_776897" data-name="Trazado 776897" d="M89.724,357.738a12.627,12.627,0,0,1,7.83-.952,6.524,6.524,0,0,1,3.869,1.725c.966,1.065,1.15,2.945.039,3.862a3.689,3.689,0,0,1-2.437.617c-2.07-.025-4.367-.388-6.021.857-.942.709-1.57,1.891-2.7,2.24a2.669,2.669,0,0,1-2.935-1.305,4.556,4.556,0,0,1-.332-3.361,5.131,5.131,0,0,1,2.688-3.686Z" transform="translate(-65.765 -331.545)" fill="#455a64"/>
              <path id="Trazado_776898" data-name="Trazado 776898" d="M76.965,307.227c1.457,2.081,4.286,1.39,5.6.123a10.581,10.581,0,0,0,2.37-4.864c1.153-4.01,2.317-8.215,1.46-12.3a6.852,6.852,0,0,0-1.57-3.344,3.569,3.569,0,0,0-3.383-1.125c-1.429.377-2.314,1.774-2.956,3.1a29.307,29.307,0,0,0-2.9,12.578,10.168,10.168,0,0,0,1.376,5.823" transform="translate(-58.463 -285.629)" fill="#455a64"/>
              <path id="Trazado_776899" data-name="Trazado 776899" d="M42.108,336.55a6.806,6.806,0,0,0,1.058-6.261,12.053,12.053,0,0,0-3.707-5.379,20.008,20.008,0,0,0-6.638-3.919,7.085,7.085,0,0,0-2.988-.508,3.121,3.121,0,0,0-2.5,1.517c-.7,1.333-.028,2.949.695,4.268a50.8,50.8,0,0,0,4.36,6.642,11.808,11.808,0,0,0,4.8,4.109c1.993.762,4.06.674,5.118-.709" transform="translate(-27.035 -308.177)" fill="#455a64"/>
              <path id="Trazado_776900" data-name="Trazado 776900" d="M79.152,383.874a4.517,4.517,0,0,0,.131-.945c.067-.688.152-1.552.25-2.578a37.631,37.631,0,0,1,.578-3.785,29.187,29.187,0,0,1,1.376-4.465,16.472,16.472,0,0,1,2.279-4.039,8.515,8.515,0,0,1,2.882-2.395,8.028,8.028,0,0,1,2.427-.755,4.486,4.486,0,0,0,.942-.138,4.269,4.269,0,0,0-.956-.014,7.416,7.416,0,0,0-2.533.66,8.476,8.476,0,0,0-3.04,2.416,16.046,16.046,0,0,0-2.363,4.12,27.2,27.2,0,0,0-1.365,4.54,32.681,32.681,0,0,0-.5,3.831c-.081,1.1-.113,1.982-.127,2.6a4.228,4.228,0,0,0,.021.956Z" transform="translate(-60.748 -336.842)" fill="#263238"/>
              <path id="Trazado_776901" data-name="Trazado 776901" d="M79.364,351.937a3.874,3.874,0,0,0,.025-.437v-1.256c0-1.086,0-2.663.056-4.607.1-3.891.43-8.074,1.079-13.978.614-5.548,1.436-12.007,2.3-16.208.187-.956.374-1.813.55-2.568s.31-1.4.451-1.929c.12-.494.215-.9.293-1.22a2.037,2.037,0,0,0,.078-.434,1.849,1.849,0,0,0-.152.413c-.1.314-.215.712-.363,1.2-.162.522-.328,1.167-.515,1.919s-.4,1.608-.607,2.561a142.585,142.585,0,0,0-2.42,15.036c-.649,5.915-.942,11.3-.966,15.2-.025,1.951.018,3.527.067,4.617.032.508.056.924.078,1.252a1.728,1.728,0,0,0,.053.434Z" transform="translate(-60.78 -300.951)" fill="#263238"/>
              <path id="Trazado_776902" data-name="Trazado 776902" d="M57.313,358.941a7.349,7.349,0,0,0-.007-1.178c-.042-.758-.148-1.852-.36-3.189a42.516,42.516,0,0,0-1.037-4.649,37.958,37.958,0,0,0-1.943-5.5,29.319,29.319,0,0,0-5.707-8.889,14.441,14.441,0,0,0-1.344-1.249c-.2-.173-.388-.349-.575-.487s-.36-.247-.522-.36a7.2,7.2,0,0,0-.991-.635,35.106,35.106,0,0,1,3.249,2.9,30.839,30.839,0,0,1,5.566,8.857,43.215,43.215,0,0,1,1.954,5.45,47.291,47.291,0,0,1,1.1,4.6c.243,1.326.384,2.409.469,3.16a7.6,7.6,0,0,0,.145,1.168Z" transform="translate(-38.55 -316.166)" fill="#263238"/>
            </g>
            <path id="Trazado_776903" data-name="Trazado 776903" d="M52.76,403.61l1.372,13.82H70.347l1.009-13.82Z" transform="translate(-43.686 -361.996)" fill="#ff725e"/>
            <rect id="Rectángulo_356840" data-name="Rectángulo 356840" width="22.899" height="5.284" transform="translate(7.116 38.768)" fill="#ff725e"/>
            <path id="Trazado_776904" data-name="Trazado 776904" d="M71.6,410.076c0,.06-4.314.106-9.636.106s-9.64-.049-9.64-.106,4.314-.106,9.64-.106S71.6,410.019,71.6,410.076Z" transform="translate(-43.401 -366.112)" fill="#263238"/>
          </g>
        </g>
      </g>
      <g id="_7000947-2" data-name="7000947" transform="translate(1128.181 7755.009)">
        <g id="Background_Complete-2" data-name="Background Complete" transform="translate(0 0)">
          <g id="Grupo_1046765" data-name="Grupo 1046765" transform="translate(12 131.73)">
            <path id="Trazado_777372" data-name="Trazado 777372" d="M29.71,410.338a2.3,2.3,0,0,1-.632-2.817,2.514,2.514,0,0,1,1.332-.939,5.417,5.417,0,0,0,1.46-.757c.792-.674,1.009-1.792,1.533-2.69a3.367,3.367,0,0,1,2.916-1.75,3.68,3.68,0,0,1,3.012,2.44,10.906,10.906,0,0,1,.543,4.044,2.768,2.768,0,0,1-.585,2.121,2.735,2.735,0,0,1-1.977.457l-7.439-.23" transform="translate(-24.373 -389.879)" fill="#f5f5f5"/>
            <path id="Trazado_777373" data-name="Trazado 777373" d="M34.475,365.37H14.91l3.523,21.015a2.348,2.348,0,0,0,1.671,1.872l.067.019a1.573,1.573,0,0,0,.176.045,2.311,2.311,0,0,0,.4.045v.019l.1-.016h8.72a2.394,2.394,0,0,0,.479-.048,2.363,2.363,0,0,0,1.98-2.054l1.7-14.48.077-.575h-.01l.674-5.734Zm-3.693,13.406H28.773l.2-6.1H31.3l-.521,6.1Zm.716-6.1h1.923l-.716,6.1H30.977Zm-5.737,12.86-.121-5.3H28.53l-.176,5.3Zm-3.127-5.3h2.811l.121,5.3h-2.52Zm.217,5.3H20.5c-.224-1.431-.514-3.29-.831-5.3h2.776l.412,5.3Zm-.332-6.762-.473-6.1h3.223l.141,6.1Zm3.082,0-.141-6.1h3.316l-.2,6.1Zm-.176-7.561-.131-5.647h3.718l-.188,5.647Zm-.195,0h-3.3l-.438-5.647H25.1l.131,5.647Zm-3.5,0H18.238c-.125-.779-.24-1.517-.348-2.182-.364-2.284-.5-3.143-.578-3.466h3.98l.438,5.647Zm.115,1.463.473,6.1H19.43c-.1-.62-.195-1.246-.294-1.872-.227-1.441-.454-2.878-.668-4.229h3.376Zm-2.613,6.1H17.347l-1.022-6.1h1.949C18.571,374.563,18.9,376.662,19.235,378.776Zm.23,1.463c.287,1.834.572,3.641.831,5.3H18.481l-.888-5.3Zm9.078,5.3.176-5.3h1.933l-.454,5.3Zm.476-14.323.188-5.647h2.7l-.482,5.647h-2.4ZM17.13,365.568c.077.409.434,2.632.914,5.647H16.079l-.949-5.647Zm14.777,19.971H30.4l.454-5.3h1.68Zm1.68-14.323H31.619l.482-5.647h2.15l-.661,5.647Z" transform="translate(-14.91 -365.37)" fill="#e0e0e0"/>
          </g>
          <g id="Grupo_1046770" data-name="Grupo 1046770" transform="translate(40.133 106.029)">
            <g id="Grupo_1046766" data-name="Grupo 1046766" transform="translate(0 10.962)">
              <rect id="Rectángulo_356887" data-name="Rectángulo 356887" width="50.252" height="23.178" fill="#f5f5f5"/>
              <path id="Trazado_777374" data-name="Trazado 777374" d="M168.478,343.975H120.57V323.11h47.908Zm-47.595-.313h47.282V323.423H120.883v20.239Z" transform="translate(-119.42 -321.89)" fill="#e0e0e0"/>
              <rect id="Rectángulo_356888" data-name="Rectángulo 356888" width="12.276" height="23.178" transform="translate(50.252)" fill="#e0e0e0"/>
              <path id="Trazado_777375" data-name="Trazado 777375" d="M120.932,343.055h47.595a.062.062,0,0,0,0-.125H120.932a.062.062,0,0,0,0,.125Z" transform="translate(-119.626 -335.379)" fill="#e0e0e0"/>
              <path id="Trazado_777376" data-name="Trazado 777376" d="M195.625,329.583a51.752,51.752,0,0,0,.016-6.3.064.064,0,0,0-.128,0,51.749,51.749,0,0,0,.016,6.3.048.048,0,0,0,.1,0h0Z" transform="translate(-170.364 -321.968)" fill="#e0e0e0"/>
              <path id="Trazado_777377" data-name="Trazado 777377" d="M233.387,331.888a.648.648,0,1,1-.648-.648A.649.649,0,0,1,233.387,331.888Z" transform="translate(-195.317 -327.423)" fill="#e0e0e0"/>
              <path id="Trazado_777378" data-name="Trazado 777378" d="M155.2,331.888a.648.648,0,1,1-.648-.648A.649.649,0,0,1,155.2,331.888Z" transform="translate(-142.104 -327.423)" fill="#e0e0e0"/>
              <path id="Trazado_777379" data-name="Trazado 777379" d="M194.827,354.388a.648.648,0,1,1-.648-.648A.649.649,0,0,1,194.827,354.388Z" transform="translate(-169.075 -342.736)" fill="#e0e0e0"/>
              <path id="Trazado_777380" data-name="Trazado 777380" d="M130.267,391.85,127.68,406.4h1.457l4.769-14.55Z" transform="translate(-124.259 -368.672)" fill="#e0e0e0"/>
              <path id="Trazado_777381" data-name="Trazado 777381" d="M255.408,391.85l2.166,14.575h-1.457L251.77,391.85Z" transform="translate(-208.711 -368.672)" fill="#e0e0e0"/>
              <path id="Trazado_777382" data-name="Trazado 777382" d="M285.828,391.85l2.45,14.575h-1.453L282.19,391.85Z" transform="translate(-229.414 -368.672)" fill="#e0e0e0"/>
              <path id="Trazado_777383" data-name="Trazado 777383" d="M194.687,374.918a.648.648,0,1,1-.648-.648A.649.649,0,0,1,194.687,374.918Z" transform="translate(-168.979 -356.708)" fill="#e0e0e0"/>
              <path id="Trazado_777384" data-name="Trazado 777384" d="M120.932,365.525h47.595a.062.062,0,0,0,0-.125H120.932a.062.062,0,0,0,0,.125Z" transform="translate(-119.626 -350.671)" fill="#e0e0e0"/>
            </g>
            <g id="Grupo_1046769" data-name="Grupo 1046769" transform="translate(19.872 0)">
              <rect id="Rectángulo_356889" data-name="Rectángulo 356889" width="3.092" height="15.195" transform="matrix(0.005, 1, -1, 0.005, 15.195, 0)" fill="#e0e0e0"/>
              <g id="Grupo_1046767" data-name="Grupo 1046767" transform="translate(0.074 6.059)">
                <rect id="Rectángulo_356890" data-name="Rectángulo 356890" width="4.807" height="16.936" transform="matrix(0.005, 1, -1, 0.005, 16.936, 0.03)" fill="#f5f5f5"/>
                <path id="Trazado_777385" data-name="Trazado 777385" d="M222.133,308.744a34.785,34.785,0,0,1,0-4.8,34.778,34.778,0,0,1,0,4.8Z" transform="translate(-208.431 -303.94)" fill="#e0e0e0"/>
                <path id="Trazado_777386" data-name="Trazado 777386" d="M224.363,308.744a34.778,34.778,0,0,1,0-4.8,34.785,34.785,0,0,1,0,4.8Z" transform="translate(-209.948 -303.94)" fill="#e0e0e0"/>
                <path id="Trazado_777387" data-name="Trazado 777387" d="M187.313,308.744a34.785,34.785,0,0,1,0-4.8,34.785,34.785,0,0,1,0,4.8Z" transform="translate(-184.733 -303.94)" fill="#e0e0e0"/>
                <path id="Trazado_777388" data-name="Trazado 777388" d="M189.533,308.744a34.778,34.778,0,0,1,0-4.8,34.772,34.772,0,0,1,0,4.8Z" transform="translate(-186.244 -303.94)" fill="#e0e0e0"/>
                <path id="Trazado_777389" data-name="Trazado 777389" d="M194.57,311.523c0-.045,1.709-.083,3.817-.083s3.817.038,3.817.083-1.709.083-3.817.083S194.57,311.568,194.57,311.523Z" transform="translate(-189.729 -309.044)" fill="#e0e0e0"/>
              </g>
              <g id="Grupo_1046768" data-name="Grupo 1046768" transform="translate(2.481 2.968)">
                <rect id="Rectángulo_356891" data-name="Rectángulo 356891" width="3.092" height="20.897" transform="matrix(0.005, 1, -1, 0.005, 20.897, 0)" fill="#ebebeb"/>
                <path id="Trazado_777390" data-name="Trazado 777390" d="M240.967,298.5a1,1,0,1,1,.987-1A.992.992,0,0,1,240.967,298.5Z" transform="translate(-223.04 -295.786)" fill="#e0e0e0"/>
                <rect id="Rectángulo_356892" data-name="Rectángulo 356892" width="0.62" height="13.988" transform="translate(15.208 1.401) rotate(90)" fill="#e0e0e0"/>
              </g>
            </g>
          </g>
          <g id="Grupo_1046772" data-name="Grupo 1046772" transform="translate(24.162 0)">
            <circle id="Elipse_8009" data-name="Elipse 8009" cx="33.99" cy="33.99" r="33.99" transform="translate(0 48.07) rotate(-45)" fill="#e0e0e0"/>
            <circle id="Elipse_8010" data-name="Elipse 8010" cx="27.193" cy="27.193" r="27.193" transform="translate(9.613 48.07) rotate(-45)" fill="#fafafa"/>
            <circle id="Elipse_8011" data-name="Elipse 8011" cx="20.392" cy="20.392" r="20.392" transform="matrix(0.3, -0.954, 0.954, 0.3, 22.502, 61.41)" fill="#e0e0e0"/>
            <circle id="Elipse_8012" data-name="Elipse 8012" cx="13.595" cy="13.595" r="13.595" transform="translate(30.119 54.953) rotate(-65.97)" fill="#fafafa"/>
            <circle id="Elipse_8013" data-name="Elipse 8013" cx="6.797" cy="6.797" r="6.797" transform="matrix(0.891, -0.453, 0.453, 0.891, 38.93, 45.091)" fill="#e0e0e0"/>
            <g id="Grupo_1046771" data-name="Grupo 1046771" transform="translate(9.4 16.602)">
              <path id="Trazado_777391" data-name="Trazado 777391" d="M164.184,62.99,154.749,60.5l2.412-2.476L137.64,41.991l1.08-1.051,19.626,15.936,1.894-2.594Z" transform="translate(-124.467 -30.52)" fill="#ebebeb"/>
              <path id="Trazado_777392" data-name="Trazado 777392" d="M109.573,19.791l-.3.166a4.665,4.665,0,0,1-4.7-.064L96.4,14.977l5.5-.866-.591-5.791,7.529,5.156a4.663,4.663,0,0,1,1.811,5.261h0l-1.08,1.051Z" transform="translate(-96.4 -8.32)" fill="#ebebeb"/>
            </g>
          </g>
          <g id="Grupo_1046777" data-name="Grupo 1046777" transform="translate(116.39 106.074)">
            <g id="Grupo_1046774" data-name="Grupo 1046774">
              <g id="Grupo_1046773" data-name="Grupo 1046773">
                <path id="Trazado_777393" data-name="Trazado 777393" d="M391.54,351.9a8.075,8.075,0,0,1,2.147-5.334C394.335,349.247,391.54,351.9,391.54,351.9Z" transform="translate(-380.092 -327.995)" fill="#ebebeb"/>
                <path id="Trazado_777394" data-name="Trazado 777394" d="M401.3,357.232a8.08,8.08,0,0,1,5.75-.16C404.855,358.737,401.3,357.232,401.3,357.232Z" transform="translate(-386.734 -334.834)" fill="#ebebeb"/>
                <path id="Trazado_777395" data-name="Trazado 777395" d="M402.148,343.589a6.361,6.361,0,0,1,.783-4.469C403.873,341.081,402.148,343.589,402.148,343.589Z" transform="translate(-387.228 -322.925)" fill="#ebebeb"/>
                <path id="Trazado_777396" data-name="Trazado 777396" d="M364.66,333.52a12.925,12.925,0,0,1,7,5.178C367.765,338.7,364.66,333.52,364.66,333.52Z" transform="translate(-361.798 -319.114)" fill="#ebebeb"/>
                <path id="Trazado_777397" data-name="Trazado 777397" d="M387.442,317.044c-.236-4.913,4.565-10.474,4.565-10.474a21.332,21.332,0,0,1-4.565,10.474" transform="translate(-377.297 -300.772)" fill="#ebebeb"/>
                <path id="Trazado_777398" data-name="Trazado 777398" d="M383.449,295.56a13.165,13.165,0,0,1-1.725,7.037C381.047,299.438,383.449,295.56,383.449,295.56Z" transform="translate(-373.329 -293.279)" fill="#ebebeb"/>
                <path id="Trazado_777399" data-name="Trazado 777399" d="M369.775,318.378c-3.594-.386-5.545-3.958-5.545-3.958C368.574,315.637,369.775,318.378,369.775,318.378Z" transform="translate(-361.505 -306.115)" fill="#ebebeb"/>
                <path id="Trazado_777400" data-name="Trazado 777400" d="M357.33,371.248a8.069,8.069,0,0,1,5.647-1.089C361.08,372.155,357.33,371.248,357.33,371.248Z" transform="translate(-356.809 -343.966)" fill="#ebebeb"/>
                <path id="Trazado_777401" data-name="Trazado 777401" d="M381.325,378.88a5.276,5.276,0,0,1-2.415,2.718C379.063,379.941,381.325,378.88,381.325,378.88Z" transform="translate(-371.496 -349.985)" fill="#ebebeb"/>
                <path id="Trazado_777402" data-name="Trazado 777402" d="M375.866,376.884a6.373,6.373,0,0,1-4.3.767C372.953,376.21,375.866,376.884,375.866,376.884Z" transform="translate(-366.501 -348.519)" fill="#ebebeb"/>
                <path id="Trazado_777403" data-name="Trazado 777403" d="M382.343,338.564a.337.337,0,0,1-.006-.073c0-.057,0-.128,0-.214v-.824c0-.358,0-.8-.006-1.3s-.01-1.086-.035-1.725c-.032-1.278-.121-2.795-.252-4.482-.147-1.683-.351-3.53-.632-5.456-.569-3.859-1.345-7.309-1.968-9.784-.313-1.239-.578-2.239-.773-2.926-.089-.335-.163-.6-.214-.8-.022-.083-.038-.153-.051-.208a.3.3,0,0,1-.013-.073.459.459,0,0,1,.029.067c.019.054.042.121.067.2.061.192.141.457.243.786.211.684.5,1.68.821,2.916a91.077,91.077,0,0,1,2.016,9.79c.281,1.933.482,3.782.62,5.469.121,1.687.2,3.21.217,4.488.019.639.013,1.217.013,1.728s-.006.945-.019,1.3-.022.623-.029.824c0,.086-.01.157-.013.214A.227.227,0,0,1,382.343,338.564Z" transform="translate(-371.14 -303.583)" fill="#e0e0e0"/>
                <path id="Trazado_777404" data-name="Trazado 777404" d="M370.129,365.368c.026-.038,1.476.913,3.242,2.124s3.178,2.22,3.153,2.258-1.476-.914-3.242-2.124S370.107,365.406,370.129,365.368Z" transform="translate(-365.52 -340.788)" fill="#e0e0e0"/>
                <path id="Trazado_777405" data-name="Trazado 777405" d="M390.15,354.778a2.592,2.592,0,0,1,.224-.243l.645-.623,2.159-2.025,2.159-2.025c.256-.24.473-.444.655-.613a1.291,1.291,0,0,1,.252-.211,1.4,1.4,0,0,1-.211.256c-.141.16-.355.38-.62.652-.53.54-1.284,1.271-2.127,2.06S391.664,353.5,391.1,354c-.284.249-.517.45-.68.585A1.5,1.5,0,0,1,390.15,354.778Z" transform="translate(-379.146 -329.675)" fill="#e0e0e0"/>
                <path id="Trazado_777406" data-name="Trazado 777406" d="M355.7,358.08s3.712-.07,5.283,2.852A6.684,6.684,0,0,1,355.7,358.08Z" transform="translate(-355.7 -335.828)" fill="#ebebeb"/>
                <path id="Trazado_777407" data-name="Trazado 777407" d="M371.568,353.42s3.022,2.156,2.543,5.437A6.693,6.693,0,0,1,371.568,353.42Z" transform="translate(-366.498 -332.657)" fill="#ebebeb"/>
                <path id="Trazado_777408" data-name="Trazado 777408" d="M410.793,336.79s-1.191,4.156-4.983,4.9A7.788,7.788,0,0,1,410.793,336.79Z" transform="translate(-389.803 -321.339)" fill="#ebebeb"/>
                <path id="Trazado_777409" data-name="Trazado 777409" d="M366.41,288.42s4.737,3.089,4.213,8.113A10.193,10.193,0,0,1,366.41,288.42Z" transform="translate(-362.989 -288.42)" fill="#ebebeb"/>
              </g>
              <path id="Trazado_777410" data-name="Trazado 777410" d="M401.667,374.441s-.105.1-.307.246-.5.371-.85.648a21.409,21.409,0,0,0-2.565,2.409,21.1,21.1,0,0,0-2.121,2.808c-.24.38-.428.7-.556.914a1.993,1.993,0,0,1-.211.332,1.931,1.931,0,0,1,.156-.361c.109-.23.284-.553.514-.945a18.091,18.091,0,0,1,4.715-5.248c.364-.272.668-.479.885-.61a1.807,1.807,0,0,1,.342-.195Z" transform="translate(-382.485 -346.961)" fill="#e0e0e0"/>
              <path id="Trazado_777411" data-name="Trazado 777411" d="M402.572,372.077a8.082,8.082,0,0,1,1.086-5.647A7.966,7.966,0,0,1,402.572,372.077Z" transform="translate(-387.511 -341.511)" fill="#ebebeb"/>
              <path id="Trazado_777412" data-name="Trazado 777412" d="M412.83,377.028a5.879,5.879,0,0,1,4.133-.642A5.784,5.784,0,0,1,412.83,377.028Z" transform="translate(-394.581 -348.199)" fill="#ebebeb"/>
            </g>
            <g id="Grupo_1046776" data-name="Grupo 1046776" transform="translate(3.111 33.054)">
              <path id="Trazado_777413" data-name="Trazado 777413" d="M369.15,399.14l1.779,11.678h10.324l2.4-11.509Z" transform="translate(-367.965 -396.827)" fill="#ebebeb"/>
              <g id="Grupo_1046775" data-name="Grupo 1046775" transform="translate(2.364 8.513)">
                <path id="Trazado_777414" data-name="Trazado 777414" d="M384.846,422.441c0,.032-2.645.061-5.906.061s-5.909-.026-5.909-.061,2.645-.061,5.909-.061S384.846,422.406,384.846,422.441Z" transform="translate(-372.969 -421.157)" fill="#fafafa"/>
                <path id="Trazado_777415" data-name="Trazado 777415" d="M384.8,420.641c0,.032-2.664.061-5.948.061s-5.948-.026-5.948-.061,2.664-.061,5.948-.061S384.8,420.605,384.8,420.641Z" transform="translate(-372.881 -419.932)" fill="#fafafa"/>
                <path id="Trazado_777416" data-name="Trazado 777416" d="M384.735,418.611c0,.032-2.664.061-5.948.061s-5.948-.026-5.948-.061,2.664-.061,5.948-.061S384.735,418.576,384.735,418.611Z" transform="translate(-372.84 -418.55)" fill="#fafafa"/>
                <path id="Trazado_777417" data-name="Trazado 777417" d="M377.32,427.3a9.3,9.3,0,0,1-.316-1.469,9.773,9.773,0,0,1-.2-1.492,9.307,9.307,0,0,1,.316,1.469A9.777,9.777,0,0,1,377.32,427.3Z" transform="translate(-375.535 -422.49)" fill="#fafafa"/>
                <path id="Trazado_777418" data-name="Trazado 777418" d="M380.189,427.1a11.213,11.213,0,0,1-.128-1.434,10.9,10.9,0,0,1-.067-1.437,11.42,11.42,0,0,1,.195,2.875Z" transform="translate(-377.701 -422.416)" fill="#fafafa"/>
                <path id="Trazado_777419" data-name="Trazado 777419" d="M383.866,426.911a7.258,7.258,0,0,1-.268-1.469,7.373,7.373,0,0,1-.08-1.492,12.782,12.782,0,0,1,.2,1.479,12.228,12.228,0,0,1,.147,1.485Z" transform="translate(-380.097 -422.225)" fill="#fafafa"/>
                <path id="Trazado_777420" data-name="Trazado 777420" d="M387.123,427.026a11.957,11.957,0,0,1-.1-3,41.444,41.444,0,0,1,.1,3Z" transform="translate(-382.456 -422.279)" fill="#fafafa"/>
                <path id="Trazado_777421" data-name="Trazado 777421" d="M392.163,427.17a8.457,8.457,0,0,1-.109-1.418,8.245,8.245,0,0,1,.013-1.421,8.443,8.443,0,0,1,.109,1.418A8.246,8.246,0,0,1,392.163,427.17Z" transform="translate(-385.905 -422.484)" fill="#fafafa"/>
                <path id="Trazado_777422" data-name="Trazado 777422" d="M395.966,427.172a9.22,9.22,0,0,1-.048-1.466,8.614,8.614,0,0,1,.073-1.466,9.216,9.216,0,0,1,.048,1.466A8.611,8.611,0,0,1,395.966,427.172Z" transform="translate(-388.545 -422.422)" fill="#fafafa"/>
                <path id="Trazado_777423" data-name="Trazado 777423" d="M399.456,426.424a9.916,9.916,0,0,1,.089-1.533,10.209,10.209,0,0,1,.208-1.52,9.918,9.918,0,0,1-.089,1.533A10.21,10.21,0,0,1,399.456,426.424Z" transform="translate(-390.947 -421.83)" fill="#fafafa"/>
                <path id="Trazado_777424" data-name="Trazado 777424" d="M403.851,426.992a8.03,8.03,0,0,1,.556-2.562,11.727,11.727,0,0,1-.265,1.284,11.97,11.97,0,0,1-.291,1.278Z" transform="translate(-393.939 -422.552)" fill="#fafafa"/>
              </g>
              <path id="Trazado_777425" data-name="Trazado 777425" d="M365.443,391.9v2.185a.859.859,0,0,0,.859.859h14.949a.859.859,0,0,0,.859-.859V391.9H365.44Z" transform="translate(-365.44 -391.9)" fill="#ebebeb"/>
              <path id="Trazado_777426" data-name="Trazado 777426" d="M369.5,401.43l.125.7,13.8.984.348-1.68Z" transform="translate(-368.203 -398.386)" fill="#e0e0e0"/>
            </g>
          </g>
        </g>
        <g id="Plants" transform="translate(2.769 30.51)">
          <g id="Grupo_1046779" data-name="Grupo 1046779" transform="translate(0 1.904)">
            <g id="Grupo_1046778" data-name="Grupo 1046778">
              <path id="Trazado_777428" data-name="Trazado 777428" d="M0,139.494s3.274,13.41,17.929,10.337C17.929,149.831,13.681,136.252,0,139.494Z" transform="translate(0 -113.065)" fill="#fff"/>
              <path id="Trazado_777429" data-name="Trazado 777429" d="M22.17,199.073s6.727,10.03,17.843,3.1C40.013,202.168,32.433,192.292,22.17,199.073Z" transform="translate(-15.088 -152.334)" fill="#fff"/>
              <path id="Trazado_777430" data-name="Trazado 777430" d="M55.73,241.392s9.816,8.347,19.217-2C74.947,239.4,64.3,231.451,55.73,241.392Z" transform="translate(-37.928 -179.349)" fill="#fff"/>
              <path id="Trazado_777431" data-name="Trazado 777431" d="M72.47,151.26s-10.886,5.232-5.6,17.22C67.644,168.046,77.616,162.156,72.47,151.26Z" transform="translate(-44.523 -121.413)" fill="#fff"/>
              <path id="Trazado_777432" data-name="Trazado 777432" d="M91.09,196.51s-5.43,7.331,2.661,13.627C94.256,209.351,99,202.349,91.09,196.51Z" transform="translate(-60.78 -152.209)" fill="#fff"/>
              <path id="Trazado_777433" data-name="Trazado 777433" d="M15.968,92.25s-1.249,10.87,10.49,12.611C26.458,104.861,27.03,93.6,15.968,92.25Z" transform="translate(-10.841 -81.252)" fill="#fff"/>
              <path id="Trazado_777434" data-name="Trazado 777434" d="M55.112,57.82s-9.5,3.967-5.373,15.1C49.739,72.916,59.255,68.166,55.112,57.82Z" transform="translate(-33.144 -57.82)" fill="#fff"/>
              <path id="Trazado_777435" data-name="Trazado 777435" d="M62.131,107.54s-12.573,1.434-11.467,15.118C50.663,122.658,63.5,120.359,62.131,107.54Z" transform="translate(-34.433 -91.658)" fill="#fff"/>
              <path id="Trazado_777436" data-name="Trazado 777436" d="M78.788,149.975s-.054-.019-.16-.048l-.47-.125c-.415-.109-1.029-.252-1.8-.508a34.792,34.792,0,0,1-6.328-2.664,38.459,38.459,0,0,1-8.2-6.012,42.941,42.941,0,0,1-4.054-4.45q-.47-.628-.942-1.268c-.16-.214-.316-.428-.476-.642s-.294-.447-.444-.674l-.888-1.364-.818-1.434c-.137-.24-.272-.482-.409-.722l-.364-.738c-.24-.492-.486-.974-.719-1.463-.211-.5-.418-.99-.626-1.479-.1-.246-.211-.486-.307-.731s-.176-.5-.265-.741c-.176-.492-.351-.977-.524-1.463-.144-.492-.291-.977-.431-1.46-.07-.24-.141-.479-.214-.719s-.118-.482-.176-.719q-.168-.719-.335-1.418A42.462,42.462,0,0,1,48.9,109a43.937,43.937,0,0,1,.763-6.829c.169-.8.323-1.405.415-1.824.045-.2.08-.364.105-.476s.032-.163.032-.163-.019.054-.045.16-.067.268-.121.473c-.1.415-.262,1.029-.441,1.821a41.346,41.346,0,0,0,.1,17c.109.47.22.942.332,1.425.061.24.105.482.176.722s.141.479.211.722q.216.723.431,1.466.259.728.524,1.466c.089.246.176.5.265.744s.2.489.307.735q.311.738.629,1.485c.233.489.479.974.719,1.469.121.246.243.492.364.741.137.24.272.482.409.722q.412.723.821,1.437.45.69.891,1.37c.15.227.291.457.447.674s.319.431.479.645c.319.428.636.85.949,1.271a43.174,43.174,0,0,0,4.07,4.459,38.255,38.255,0,0,0,8.244,6.005,34.009,34.009,0,0,0,6.36,2.629c.776.246,1.393.38,1.811.482l.473.112a1.463,1.463,0,0,0,.163.032Z" transform="translate(-33.199 -86.329)" fill="#263238"/>
            </g>
            <path id="Trazado_777437" data-name="Trazado 777437" d="M98.563,215a2.453,2.453,0,0,0,.01.307c.016.2.045.482.086.831.086.7.23,1.664.438,2.722s.434,2.006.62,2.686c.093.342.172.613.23.8a1.336,1.336,0,0,0,.105.287,1.312,1.312,0,0,0-.051-.3c-.051-.224-.115-.492-.188-.815-.16-.687-.371-1.635-.578-2.69s-.367-2.012-.476-2.709q-.077-.484-.134-.824a1.305,1.305,0,0,0-.064-.3Z" transform="translate(-67.077 -164.786)" fill="#263238"/>
            <path id="Trazado_777438" data-name="Trazado 777438" d="M90.19,247.12a2.4,2.4,0,0,0,.31-.029c.227-.032.5-.073.834-.121.7-.105,1.677-.243,2.753-.371s2.057-.217,2.766-.278l.84-.073A1.3,1.3,0,0,0,98,246.2a1.4,1.4,0,0,0-.31-.013c-.2,0-.489.01-.843.029-.712.035-1.693.109-2.776.236s-2.054.281-2.753.412c-.351.064-.632.121-.827.166a1.4,1.4,0,0,0-.3.083Z" transform="translate(-61.381 -186.019)" fill="#263238"/>
            <path id="Trazado_777439" data-name="Trazado 777439" d="M48.763,207.44a3.3,3.3,0,0,0,.361.086c.262.051.6.118.993.195.84.166,2,.409,3.265.716s2.408.623,3.229.859l.974.281a1.788,1.788,0,0,0,.361.089,1.874,1.874,0,0,0-.345-.141c-.224-.083-.553-.195-.961-.326-.818-.262-1.955-.594-3.226-.9s-2.434-.533-3.281-.674c-.422-.07-.767-.121-1-.15a1.988,1.988,0,0,0-.371-.032Z" transform="translate(-33.185 -159.647)" fill="#263238"/>
            <path id="Trazado_777440" data-name="Trazado 777440" d="M72.912,175.26s-.086.115-.224.332-.323.543-.533.955a18.6,18.6,0,0,0-1.98,6.9c-.038.46-.054.834-.054,1.092a1.94,1.94,0,0,0,.013.4,2.026,2.026,0,0,0,.042-.4c.016-.256.048-.626.1-1.083a20.958,20.958,0,0,1,1.974-6.861c.2-.412.371-.744.492-.971a1.954,1.954,0,0,0,.176-.361Z" transform="translate(-47.722 -137.746)" fill="#263238"/>
            <path id="Trazado_777441" data-name="Trazado 777441" d="M33.2,155.678s.1.08.291.2c.214.141.486.316.8.527.677.447,1.594,1.1,2.555,1.872s1.782,1.543,2.364,2.111c.272.272.5.5.68.68a1.806,1.806,0,0,0,.259.24,1.731,1.731,0,0,0-.217-.278c-.147-.173-.367-.418-.652-.712a25.759,25.759,0,0,0-4.935-4c-.345-.214-.632-.38-.831-.489A1.6,1.6,0,0,0,33.2,155.678Z" transform="translate(-22.595 -124.419)" fill="#263238"/>
            <path id="Trazado_777442" data-name="Trazado 777442" d="M58.633,124.61a.71.71,0,0,0-.1.08c-.077.067-.166.15-.278.246-.24.217-.578.537-.987.942-.821.808-1.923,1.961-3.063,3.3s-2.105,2.61-2.769,3.549c-.332.47-.6.853-.773,1.124-.08.125-.144.227-.2.313s-.067.112-.061.115a.8.8,0,0,0,.086-.1q.091-.12.22-.3c.2-.278.476-.648.808-1.1.687-.923,1.661-2.178,2.8-3.517s2.223-2.495,3.025-3.319c.39-.4.712-.725.955-.971.1-.105.188-.195.259-.265a.451.451,0,0,0,.083-.1Z" transform="translate(-34.299 -103.275)" fill="#263238"/>
            <path id="Trazado_777443" data-name="Trazado 777443" d="M28.78,103.3s.089.128.272.339c.195.233.454.537.763.9.639.763,1.5,1.84,2.383,3.076s1.623,2.4,2.14,3.249c.246.412.45.751.607,1.013a2.43,2.43,0,0,0,.233.364,2.345,2.345,0,0,0-.185-.393c-.128-.249-.319-.6-.569-1.038-.5-.866-1.223-2.041-2.108-3.281s-1.763-2.309-2.421-3.057c-.329-.374-.6-.671-.8-.872a2.436,2.436,0,0,0-.313-.3Z" transform="translate(-19.587 -88.772)" fill="#263238"/>
            <path id="Trazado_777444" data-name="Trazado 777444" d="M56.023,70.986s-.08.137-.2.4-.284.639-.482,1.108c-.4.942-.926,2.252-1.469,3.715s-.993,2.8-1.3,3.776c-.157.486-.278.882-.355,1.156a2.489,2.489,0,0,0-.109.431,2.717,2.717,0,0,0,.163-.415c.1-.294.236-.677.4-1.144.335-.965.8-2.3,1.342-3.76s1.054-2.776,1.428-3.728c.179-.457.329-.837.441-1.128a2.7,2.7,0,0,0,.147-.418Z" transform="translate(-35.462 -66.776)" fill="#263238"/>
          </g>
          <g id="Grupo_1046781" data-name="Grupo 1046781" transform="translate(92.522)">
            <g id="Grupo_1046780" data-name="Grupo 1046780">
              <path id="Trazado_777445" data-name="Trazado 777445" d="M394.179,133.534s-3.274,13.41-17.929,10.337C376.25,143.871,380.5,130.292,394.179,133.534Z" transform="translate(-348.588 -107.105)" fill="#fff"/>
              <path id="Trazado_777446" data-name="Trazado 777446" d="M372.193,193.113s-6.727,10.03-17.843,3.1c0,0,7.58-9.877,17.843-3.1Z" transform="translate(-333.683 -146.374)" fill="#fff"/>
              <path id="Trazado_777447" data-name="Trazado 777447" d="M335.707,235.432s-9.816,8.347-19.217-2C316.49,233.435,327.136,225.491,335.707,235.432Z" transform="translate(-307.917 -173.389)" fill="#fff"/>
              <path id="Trazado_777448" data-name="Trazado 777448" d="M341.762,145.29s10.886,5.232,5.6,17.22C346.588,162.076,336.616,156.186,341.762,145.29Z" transform="translate(-324.117 -115.446)" fill="#fff"/>
              <path id="Trazado_777449" data-name="Trazado 777449" d="M327.84,190.55s5.43,7.331-2.661,13.627C324.675,203.391,319.934,196.389,327.84,190.55Z" transform="translate(-312.559 -146.249)" fill="#fff"/>
              <path id="Trazado_777450" data-name="Trazado 777450" d="M393.959,86.28s1.249,10.87-10.49,12.611C383.469,98.891,382.9,87.628,393.959,86.28Z" transform="translate(-353.497 -75.285)" fill="#fff"/>
              <path id="Trazado_777451" data-name="Trazado 777451" d="M361.384,51.86s9.5,3.967,5.373,15.1C366.757,66.956,357.241,62.206,361.384,51.86Z" transform="translate(-337.759 -51.86)" fill="#fff"/>
              <path id="Trazado_777452" data-name="Trazado 777452" d="M345.451,101.57s12.573,1.434,11.467,15.118C356.918,116.688,344.077,114.389,345.451,101.57Z" transform="translate(-327.557 -85.691)" fill="#fff"/>
              <path id="Trazado_777453" data-name="Trazado 777453" d="M289.65,144.015s.054-.019.16-.048l.47-.125c.415-.109,1.029-.252,1.8-.508a34.794,34.794,0,0,0,6.328-2.664,38.459,38.459,0,0,0,8.2-6.012,42.946,42.946,0,0,0,4.054-4.45q.47-.628.942-1.268c.16-.214.316-.428.476-.642s.294-.447.444-.674c.294-.45.591-.907.888-1.364l.818-1.434c.137-.24.272-.482.409-.722l.364-.738c.24-.492.486-.974.719-1.463.211-.5.418-.99.626-1.479.1-.246.211-.486.307-.731s.176-.5.265-.741c.176-.492.351-.977.524-1.463.144-.492.291-.977.431-1.46.07-.24.141-.479.214-.719s.118-.482.176-.719q.168-.719.335-1.418a42.463,42.463,0,0,0,.936-10.132,43.931,43.931,0,0,0-.763-6.829c-.169-.8-.323-1.405-.415-1.824-.045-.2-.08-.364-.105-.476s-.032-.163-.032-.163.019.054.045.16.067.268.121.473c.1.415.262,1.029.441,1.821a41.345,41.345,0,0,1-.1,17c-.109.47-.22.942-.332,1.425-.061.24-.105.482-.176.722s-.141.479-.211.722q-.216.723-.431,1.466-.259.728-.524,1.466c-.089.246-.176.5-.265.744s-.2.489-.307.735q-.311.738-.629,1.485c-.233.489-.479.974-.719,1.469-.121.246-.243.492-.364.741-.137.24-.272.482-.409.722q-.412.723-.821,1.437-.45.69-.891,1.37c-.15.227-.291.457-.447.674s-.319.431-.479.645c-.319.428-.636.85-.949,1.271a43.173,43.173,0,0,1-4.069,4.459,38.255,38.255,0,0,1-8.244,6.005,34.006,34.006,0,0,1-6.36,2.629c-.776.246-1.393.38-1.811.482l-.473.112a1.459,1.459,0,0,1-.163.032Z" transform="translate(-289.65 -80.369)" fill="#263238"/>
            </g>
            <path id="Trazado_777454" data-name="Trazado 777454" d="M330.633,209.036a2.463,2.463,0,0,1-.01.307c-.016.2-.045.482-.086.83-.086.7-.23,1.664-.438,2.722s-.434,2.006-.62,2.686c-.093.342-.172.613-.23.8a1.331,1.331,0,0,1-.105.287,1.313,1.313,0,0,1,.051-.3c.051-.224.115-.5.188-.815.16-.687.371-1.635.578-2.69s.367-2.012.476-2.709q.077-.484.134-.824a1.308,1.308,0,0,1,.064-.3Z" transform="translate(-316.527 -158.826)" fill="#263238"/>
            <path id="Trazado_777455" data-name="Trazado 777455" d="M325.54,241.15a2.4,2.4,0,0,1-.31-.029c-.227-.032-.5-.073-.834-.121-.7-.105-1.677-.243-2.753-.371s-2.057-.217-2.766-.278l-.84-.074a1.3,1.3,0,0,1-.307-.045,1.4,1.4,0,0,1,.31-.013c.2,0,.489.01.843.029.712.035,1.693.109,2.776.236s2.054.281,2.753.412c.351.064.632.121.827.166a1.394,1.394,0,0,1,.3.083Z" transform="translate(-308.76 -180.053)" fill="#263238"/>
            <path id="Trazado_777456" data-name="Trazado 777456" d="M364.034,201.48a3.306,3.306,0,0,1-.361.086c-.262.051-.6.118-.993.195-.84.166-2,.409-3.265.716s-2.408.623-3.229.859l-.974.281a1.789,1.789,0,0,1-.361.089,1.874,1.874,0,0,1,.345-.141c.224-.083.553-.195.962-.326.818-.262,1.955-.594,3.226-.9s2.434-.533,3.281-.674c.422-.07.767-.121,1-.15a1.988,1.988,0,0,1,.371-.032Z" transform="translate(-334.023 -153.687)" fill="#263238"/>
            <path id="Trazado_777457" data-name="Trazado 777457" d="M353.511,169.3s.086.115.224.332.323.543.533.955a18.6,18.6,0,0,1,1.98,6.9c.038.46.054.834.054,1.092a1.939,1.939,0,0,1-.013.4,2.028,2.028,0,0,1-.042-.4c-.016-.256-.048-.626-.1-1.083a20.956,20.956,0,0,0-1.974-6.861c-.2-.412-.371-.744-.492-.971a1.954,1.954,0,0,1-.176-.361Z" transform="translate(-333.109 -131.786)" fill="#263238"/>
            <path id="Trazado_777458" data-name="Trazado 777458" d="M384.353,149.718s-.1.08-.291.2c-.214.141-.486.316-.8.527-.677.447-1.594,1.1-2.555,1.872s-1.782,1.543-2.364,2.111c-.272.272-.5.5-.68.68a1.81,1.81,0,0,1-.259.24,1.728,1.728,0,0,1,.217-.278c.147-.172.367-.418.652-.712a25.756,25.756,0,0,1,4.935-4c.345-.214.632-.38.831-.489A1.6,1.6,0,0,1,384.353,149.718Z" transform="translate(-349.369 -118.459)" fill="#263238"/>
            <path id="Trazado_777459" data-name="Trazado 777459" d="M356.189,118.64a.706.706,0,0,1,.1.08c.077.067.166.15.278.246.24.217.578.537.987.942.821.808,1.923,1.961,3.063,3.3s2.105,2.61,2.769,3.549c.332.47.6.853.773,1.124.08.125.144.227.2.313s.067.112.061.115-.032-.032-.086-.1-.134-.179-.22-.3c-.2-.278-.476-.648-.808-1.1-.687-.923-1.661-2.178-2.8-3.517s-2.223-2.495-3.025-3.319c-.39-.4-.712-.725-.955-.971-.1-.105-.188-.195-.259-.265a.451.451,0,0,1-.083-.1Z" transform="translate(-334.935 -97.309)" fill="#263238"/>
            <path id="Trazado_777460" data-name="Trazado 777460" d="M389.966,97.343s-.089.128-.271.339c-.195.233-.454.537-.763.9-.639.763-1.5,1.84-2.383,3.076s-1.623,2.4-2.14,3.249c-.246.412-.45.751-.607,1.013a2.434,2.434,0,0,1-.233.364,2.5,2.5,0,0,1,.185-.393c.128-.249.319-.6.569-1.038.5-.866,1.223-2.041,2.108-3.281s1.763-2.309,2.421-3.057c.329-.374.6-.671.8-.872a2.433,2.433,0,0,1,.313-.3Z" transform="translate(-353.567 -82.812)" fill="#263238"/>
            <path id="Trazado_777461" data-name="Trazado 777461" d="M368.008,65.026s.08.137.2.4.284.639.486,1.108c.4.942.926,2.252,1.469,3.715s.993,2.8,1.3,3.776c.156.486.278.882.355,1.156a2.5,2.5,0,0,1,.109.431,2.717,2.717,0,0,1-.163-.415c-.1-.294-.236-.677-.4-1.144-.335-.965-.8-2.3-1.342-3.76s-1.054-2.776-1.428-3.728c-.179-.457-.329-.837-.441-1.128a2.708,2.708,0,0,1-.147-.418Z" transform="translate(-342.977 -60.816)" fill="#263238"/>
          </g>
        </g>
        <g id="Character" transform="translate(41.075 19.598)">
          <g id="Grupo_1046813" data-name="Grupo 1046813" transform="translate(0 0)">
            <g id="Grupo_1046782" data-name="Grupo 1046782" transform="translate(18.687 71.587)">
              <path id="Trazado_777462" data-name="Trazado 777462" d="M207.178,311.89s1.655,6.612,0,9.289c-.07.112-.141.224-.217.335a8.617,8.617,0,0,1-9.928,3.213l-18.613-6.376,1.421-5,11.95,1.476,12.752-3.469Z" transform="translate(-178.42 -289.144)" fill="#ffbe9d"/>
              <path id="Trazado_777463" data-name="Trazado 777463" d="M218.164,281.07s5.964,17.367,5.667,21.533-11.809,25.989-11.809,25.989l-5.047-2.319s1.936-6.123,3.226-11.48c.652-2.706.907-5.989,1.409-7.321a21.42,21.42,0,0,1,3.274-6.034l-8.123-16.7,11.407-3.67Z" transform="translate(-197.707 -268.529)" fill="#ffbe9d"/>
              <path id="Trazado_777464" data-name="Trazado 777464" d="M189.266,242.771a17.808,17.808,0,0,0-.543,9.414c1.22,4.574,12.669,23.321,12.669,23.321l13.256-7.669s-.511-16.706-5.127-26.027l-20.255.958Z" transform="translate(-185.139 -241.81)" fill="#263238"/>
              <path id="Trazado_777465" data-name="Trazado 777465" d="M252.653,329.52a1.129,1.129,0,0,1,.077.147c.045.1.109.246.176.441a7.42,7.42,0,0,1,.38,1.706,10.466,10.466,0,0,1-.073,2.591,14.8,14.8,0,0,1-.291,1.5c-.134.514-.3,1.038-.492,1.568-.754,2.118-1.568,3.983-2.156,5.331-.3.674-.543,1.214-.719,1.588-.083.173-.15.313-.2.428a.524.524,0,0,1-.083.144.586.586,0,0,1,.051-.156c.048-.118.105-.262.179-.438.169-.4.4-.945.671-1.607.562-1.358,1.358-3.229,2.108-5.338.188-.527.355-1.048.492-1.552s.224-1.009.3-1.485a11.035,11.035,0,0,0,.109-2.559,8.342,8.342,0,0,0-.326-1.7c-.115-.393-.2-.6-.188-.61Z" transform="translate(-226.636 -301.503)" fill="#eb996e"/>
              <path id="Trazado_777466" data-name="Trazado 777466" d="M218.946,356.908s0-.163.029-.45.077-.7.147-1.217a20.579,20.579,0,0,1,.91-3.945,17.988,17.988,0,0,1,1.821-3.616c.278-.438.511-.786.677-1.022a2.351,2.351,0,0,1,.272-.358,2.173,2.173,0,0,1-.217.393c-.166.275-.377.626-.632,1.048a20.239,20.239,0,0,0-1.766,3.61,23.78,23.78,0,0,0-.952,3.907c-.08.486-.147.891-.2,1.207a2.18,2.18,0,0,1-.093.441Z" transform="translate(-205.997 -312.922)" fill="#eb996e"/>
              <path id="Trazado_777467" data-name="Trazado 777467" d="M248.565,285.881a1.4,1.4,0,0,1-.061-.153c-.038-.121-.086-.265-.144-.444-.128-.412-.3-.965-.5-1.639-.428-1.383-1.032-3.29-1.747-5.382s-1.409-3.967-1.92-5.325c-.249-.661-.454-1.2-.607-1.6-.064-.176-.118-.319-.16-.438a.558.558,0,0,1-.045-.157.614.614,0,0,1,.077.144c.051.115.112.256.188.428.163.37.387.914.655,1.588.54,1.345,1.249,3.22,1.968,5.312s1.3,4.009,1.7,5.4c.2.7.355,1.262.454,1.655.045.182.083.332.112.454a.684.684,0,0,1,.029.16Z" transform="translate(-222.627 -261.499)" fill="#455a64"/>
              <path id="Trazado_777468" data-name="Trazado 777468" d="M216.947,272.239c-.019.026-.415-.3-1.121-.725a12,12,0,0,0-1.281-.664,12.932,12.932,0,0,0-1.664-.588,12.692,12.692,0,0,0-1.734-.326,11.953,11.953,0,0,0-1.441-.067c-.824.016-1.329.1-1.335.067a1.517,1.517,0,0,1,.351-.08,7.459,7.459,0,0,1,.977-.105,10.037,10.037,0,0,1,1.46.032,11.262,11.262,0,0,1,1.763.316,11.607,11.607,0,0,1,1.683.61,10.193,10.193,0,0,1,1.281.706,7.479,7.479,0,0,1,.8.581,1.47,1.47,0,0,1,.265.246Z" transform="translate(-198.803 -260.816)" fill="#455a64"/>
            </g>
            <g id="Grupo_1046785" data-name="Grupo 1046785" transform="translate(4.096 20.584)">
              <path id="Trazado_777469" data-name="Trazado 777469" d="M170.353,168.877c.1-2.191,2.683-4.942,2.016-11.161-.7-6.52-1.693-12.266-1.693-12.266l-4.913,1.2-.846-1.2-8.117,1.929-1.262,1.207-5.632,2.3a2.67,2.67,0,0,0-1.473,1.492l-3.939,9.973-8.526-5.734L132.74,161s10.733,9.848,13.537,9.564c2.514-.256,4.619-4.066,5.663-6.35l1.616,6.737a30.529,30.529,0,0,0-3.07,12.151l16.859.639a3.36,3.36,0,0,0,2.734-1.233l3.188-3.9s-3.012-7.535-2.916-9.727Z" transform="translate(-132.74 -125.227)" fill="#ff725e"/>
              <path id="Trazado_777470" data-name="Trazado 777470" d="M244.31,103.577l2.175-1,8.545-7.452L258.1,82.14l5.437,2.271s-.521,9.759-1.2,13.116-14.413,14.2-14.413,14.2l-3.616-8.152Z" transform="translate(-208.671 -82.14)" fill="#ff725e"/>
              <path id="Trazado_777471" data-name="Trazado 777471" d="M253.61,155.49a10.2,10.2,0,0,1,.157,1.108c.093.731.211,1.658.339,2.68.128,1.048.233,2,.294,2.686.029.345.051.623.057.818a1.131,1.131,0,0,1,0,.3,9.155,9.155,0,0,1-.172-1.108c-.093-.731-.211-1.658-.342-2.68-.128-1.048-.233-2-.291-2.686-.029-.345-.045-.626-.051-.818a1.273,1.273,0,0,1,.01-.3Z" transform="translate(-214.991 -132.06)" fill="#263238"/>
              <path id="Trazado_777472" data-name="Trazado 777472" d="M212.86,173.046s-.061-.054-.16-.163c-.109-.125-.256-.287-.434-.492-.383-.444-.917-1.067-1.572-1.824l-5.136-6.063c-1-1.195-1.958-2.335-2.824-3.364l-.035-.042.026-.045.62-1.092.08.105c-.371.077-.722.093-1.041.163l-.093.019.013-.093c.173-1.358.313-2.476.415-3.277.051-.377.093-.677.125-.9a2.2,2.2,0,0,1,.057-.316,1.989,1.989,0,0,1-.019.319c-.022.227-.051.527-.089.907-.086.8-.208,1.926-.358,3.284l-.08-.073c.335-.077.687-.1,1.038-.173l.157-.035-.077.141c-.195.351-.4.719-.613,1.1l-.01-.086,2.833,3.354c1.987,2.373,3.782,4.52,5.1,6.095.639.773,1.156,1.405,1.53,1.859.169.211.307.38.409.511a1.31,1.31,0,0,1,.134.185Z" transform="translate(-180.074 -132.176)" fill="#263238"/>
              <path id="Trazado_777473" data-name="Trazado 777473" d="M236.634,167.019a1.707,1.707,0,0,1,.019-.211c.022-.157.051-.355.086-.6.08-.524.208-1.281.371-2.214s.364-2.041.543-3.277a30.994,30.994,0,0,0,.361-4.044,22.465,22.465,0,0,0-.332-4.367l.057.061-1.115-.268-.169-.042.15-.089.815-.482-.019.1c-.355-.5-.617-.99-.862-1.409s-.447-.779-.62-1.086-.31-.527-.406-.684a1.913,1.913,0,0,1-.144-.24.411.411,0,0,1,.048.051c.029.035.073.093.125.166.105.15.256.374.434.668l.648,1.07c.252.412.527.9.878,1.383l.042.058-.061.035-.808.492-.019-.128,1.115.259.048.01.01.048a21.759,21.759,0,0,1,.348,4.4,30.018,30.018,0,0,1-.377,4.063c-.192,1.239-.4,2.348-.581,3.277-.176.914-.319,1.661-.425,2.2-.048.246-.086.444-.118.6a1.449,1.449,0,0,1-.051.208Z" transform="translate(-202.586 -127.071)" fill="#263238"/>
              <path id="Trazado_777474" data-name="Trazado 777474" d="M227.689,217.966a1.768,1.768,0,0,1-.249.157c-.166.093-.409.217-.712.364a24.927,24.927,0,0,1-4.964,1.757c-.329.077-.594.134-.783.163a1.158,1.158,0,0,1-.291.035,8.2,8.2,0,0,1,1.045-.313c.648-.182,1.536-.447,2.5-.789s1.824-.693,2.44-.958a8.684,8.684,0,0,1,1.009-.415Z" transform="translate(-192.596 -174.578)" fill="#263238"/>
              <path id="Trazado_777475" data-name="Trazado 777475" d="M232,225.89a4,4,0,0,1-.792.026c-.489,0-1.163.006-1.907.038s-1.415.086-1.9.128a4.537,4.537,0,0,1-.792.045,3.265,3.265,0,0,1,.779-.16,19.495,19.495,0,0,1,3.827-.163,3.258,3.258,0,0,1,.789.093Z" transform="translate(-196.618 -179.892)" fill="#263238"/>
              <path id="Trazado_777476" data-name="Trazado 777476" d="M239.313,210.7a9.544,9.544,0,0,1-.128-1.75,9.331,9.331,0,0,1,.038-1.754,9.54,9.54,0,0,1,.128,1.75A9.327,9.327,0,0,1,239.313,210.7Z" transform="translate(-205.176 -167.252)" fill="#263238"/>
              <path id="Trazado_777477" data-name="Trazado 777477" d="M238.191,221.743a5.254,5.254,0,0,1-.278-1.833,5.254,5.254,0,0,1,.278,1.833Z" transform="translate(-204.303 -175.902)" fill="#263238"/>
              <path id="Trazado_777478" data-name="Trazado 777478" d="M241.243,239.043s-.029-.169-.051-.476-.054-.751-.1-1.3c-.093-1.1-.259-2.61-.508-4.274s-.533-3.159-.767-4.236c-.115-.54-.214-.974-.281-1.275a2.567,2.567,0,0,1-.089-.473,3.2,3.2,0,0,1,.153.454c.089.3.2.728.335,1.265.262,1.073.565,2.568.818,4.236s.4,3.185.46,4.29c.035.553.048,1,.051,1.306a2.8,2.8,0,0,1-.013.479Z" transform="translate(-205.358 -180.735)" fill="#263238"/>
              <g id="Grupo_1046783" data-name="Grupo 1046783" transform="translate(22.203 27.822)" opacity="0.3">
                <path id="Trazado_777479" data-name="Trazado 777479" d="M202.292,169.451l.374.157-.415.965s6.4,7.813,8.136,9.324a12.191,12.191,0,0,1,2.172,2.07l-9.79-11.63.616-1.1Z" transform="translate(-202.25 -169.24)"/>
              </g>
              <g id="Grupo_1046784" data-name="Grupo 1046784" transform="translate(26.835 43.318)" opacity="0.3">
                <path id="Trazado_777480" data-name="Trazado 777480" d="M216.75,220.679q4.7-1.466,9.4-2.929a1.52,1.52,0,0,1-.54,1.489,3.777,3.777,0,0,1-1.5.7,19.375,19.375,0,0,1-7.328.738" transform="translate(-216.75 -217.75)"/>
              </g>
              <path id="Trazado_777481" data-name="Trazado 777481" d="M171.28,199.967a4.481,4.481,0,0,0-2.591-2.262,1.2,1.2,0,0,1,.521.1,3.351,3.351,0,0,1,1.108.645,3.43,3.43,0,0,1,.792,1.009,1.254,1.254,0,0,1,.172.5Z" transform="translate(-157.206 -160.786)" fill="#263238"/>
              <path id="Trazado_777482" data-name="Trazado 777482" d="M187.278,177.483a1.364,1.364,0,0,1,.051.15c.032.118.067.265.115.441.1.409.23.961.387,1.629.319,1.377.751,3.284,1.22,5.392s.869,4,1.175,5.4c.141.674.256,1.227.339,1.642.035.179.064.326.086.447a.823.823,0,0,1,.022.157,3.646,3.646,0,0,1-.169-.591c-.1-.409-.23-.961-.393-1.629-.323-1.377-.757-3.284-1.223-5.392s-.882-4.018-1.172-5.4c-.137-.674-.252-1.23-.335-1.642-.032-.179-.061-.326-.083-.447a.933.933,0,0,1-.019-.16Z" transform="translate(-169.857 -147.026)" fill="#263238"/>
              <path id="Trazado_777483" data-name="Trazado 777483" d="M136.836,192.262a.733.733,0,0,0,.022.4.484.484,0,0,0,.287.271.433.433,0,0,0,.463-.613.472.472,0,0,0-.339-.2c-.249-.032-.371.112-.39.089-.006-.006.01-.051.07-.1a.5.5,0,0,1,.326-.105.563.563,0,0,1,.46.233.576.576,0,0,1-.636.846.571.571,0,0,1-.351-.377.52.52,0,0,1,.01-.342c.035-.073.073-.1.08-.1Z" transform="translate(-135.452 -156.908)" fill="#263238"/>
              <path id="Trazado_777484" data-name="Trazado 777484" d="M288.808,87.695a.173.173,0,0,1,.118-.073.458.458,0,0,1,.364.1.74.74,0,0,1,.3.479.562.562,0,0,1-.383.575.639.639,0,0,1-.684-.121.559.559,0,0,1-.112-.556c.1-.307.281-.415.291-.4a3.024,3.024,0,0,0-.176.431.447.447,0,0,0,.105.418.494.494,0,0,0,.514.073.413.413,0,0,0,.291-.4.647.647,0,0,0-.217-.4.442.442,0,0,0-.284-.125c-.077,0-.118.022-.125.01Z" transform="translate(-238.664 -85.864)" fill="#263238"/>
            </g>
            <path id="Trazado_777485" data-name="Trazado 777485" d="M145.73,141.582a13.521,13.521,0,0,1,8.343-5.334,10.678,10.678,0,0,1,5.149.578,28.241,28.241,0,0,0,5.354,1.565,26.366,26.366,0,0,0,6.462-.16c.415-.048,1.952-.438,1.952-.891,0-.383-1.533-.706-1.952-.658a27.868,27.868,0,0,1-5.881.227,24.126,24.126,0,0,1-5.456-1.556,12.1,12.1,0,0,0-5.494-.677,13.063,13.063,0,0,0-5.242,1.865,16.769,16.769,0,0,0-4.331,3.945.8.8,0,0,0,0,1.1.779.779,0,0,0,1.1,0h0Z" transform="translate(-136.59 -97.255)" fill="#455a64"/>
            <g id="Grupo_1046786" data-name="Grupo 1046786" transform="translate(7.831 37.359)" opacity="0.3">
              <path id="Trazado_777486" data-name="Trazado 777486" d="M145.75,141.645a13.521,13.521,0,0,1,8.343-5.334,10.678,10.678,0,0,1,5.149.578,28.24,28.24,0,0,0,5.354,1.565,26.363,26.363,0,0,0,6.462-.16c.415-.048,1.945-.316,1.945-.77,0-.383-1.524-.831-1.945-.783a27.867,27.867,0,0,1-5.881.227,24.127,24.127,0,0,1-5.456-1.556,12.1,12.1,0,0,0-5.494-.677,13.062,13.062,0,0,0-5.242,1.865,16.825,16.825,0,0,0-4.331,3.945.8.8,0,0,0,0,1.1.779.779,0,0,0,1.1,0h0Z" transform="translate(-144.435 -134.655)"/>
            </g>
            <g id="Grupo_1046792" data-name="Grupo 1046792" transform="translate(24.865 20.827)">
              <path id="Trazado_777487" data-name="Trazado 777487" d="M212.423,87.544a1.56,1.56,0,0,0,.377-2.2,2.1,2.1,0,0,0-2.265-.664,1.2,1.2,0,0,0-.422-1.364,2.345,2.345,0,0,0-1.447-.415,1.83,1.83,0,0,0-1.757.84,1.047,1.047,0,0,0-.993-.645,2.3,2.3,0,0,0-2.357,1.968,2.1,2.1,0,0,0-1.246-.268.989.989,0,0,0-.853.843,1.26,1.26,0,0,0-1.156-.393,1.537,1.537,0,0,0-.859.294.76.76,0,0,0-.262.824,1.238,1.238,0,0,0-1.38.853,1.25,1.25,0,0,0,.731,1.457,1.537,1.537,0,0,0,.345,2.591.42.42,0,0,0-.163.639c.153.208.051.224.31.217.051.894.121,1.581.173,2.476a6.641,6.641,0,0,0,.233,1.872,2.574,2.574,0,0,0,1.524,1.262l10.663-3.98a2.721,2.721,0,0,0,.556-2.859.5.5,0,0,1-.061-.332.484.484,0,0,1,.192-.217,2.02,2.02,0,0,0,.773-1.383,1.568,1.568,0,0,0-.655-1.412Z" transform="translate(-197.762 -82.9)" fill="#263238"/>
              <g id="Grupo_1046790" data-name="Grupo 1046790" transform="translate(1.993 4.357)">
                <g id="Grupo_1046789" data-name="Grupo 1046789">
                  <path id="Trazado_777488" data-name="Trazado 777488" d="M215.7,100.453c-.24-2.156-2.667-4.207-4.8-3.878L204,98.237l.08,1.163,1.763,15.658,7.475,4.453-.438-7.7s2.731-.591,3.124-4.223a38.519,38.519,0,0,0-.3-7.139Z" transform="translate(-204 -96.541)" fill="#ffbe9d"/>
                  <g id="Grupo_1046787" data-name="Grupo 1046787" transform="translate(9.314 5.023)">
                    <path id="Trazado_777489" data-name="Trazado 777489" d="M234.514,117.788a.465.465,0,0,1-.422.489.441.441,0,0,1-.5-.393.465.465,0,0,1,.422-.489.442.442,0,0,1,.5.4Z" transform="translate(-233.456 -115.755)" fill="#263238"/>
                    <path id="Trazado_777490" data-name="Trazado 777490" d="M234.979,112.715c-.054.064-.415-.179-.91-.157s-.846.291-.9.233c-.029-.026.026-.137.179-.262a1.292,1.292,0,0,1,.719-.262,1.214,1.214,0,0,1,.728.2c.16.109.214.217.188.246Z" transform="translate(-233.157 -112.267)" fill="#263238"/>
                  </g>
                  <g id="Grupo_1046788" data-name="Grupo 1046788" transform="translate(4.468 5.458)">
                    <path id="Trazado_777491" data-name="Trazado 777491" d="M220.934,118.218a.465.465,0,0,1-.422.489.442.442,0,0,1-.5-.393.465.465,0,0,1,.422-.489.442.442,0,0,1,.5.4Z" transform="translate(-219.368 -116.482)" fill="#263238"/>
                    <path id="Trazado_777492" data-name="Trazado 777492" d="M219.809,114.072c-.054.064-.415-.179-.91-.153s-.846.291-.9.233c-.029-.026.026-.137.179-.262a1.292,1.292,0,0,1,.719-.262,1.214,1.214,0,0,1,.728.2C219.777,113.938,219.834,114.043,219.809,114.072Z" transform="translate(-217.987 -113.627)" fill="#263238"/>
                  </g>
                  <path id="Trazado_777493" data-name="Trazado 777493" d="M228.9,117.156a3.274,3.274,0,0,1,.8-.185c.125-.019.243-.051.262-.137a.667.667,0,0,0-.1-.374q-.2-.455-.422-.949a16.768,16.768,0,0,1-.965-2.492,16.581,16.581,0,0,1,1.16,2.408c.141.335.278.652.406.955a.748.748,0,0,1,.089.5.315.315,0,0,1-.2.195,1,1,0,0,1-.214.042,3.112,3.112,0,0,1-.815.038Z" transform="translate(-220.651 -107.755)" fill="#263238"/>
                  <path id="Trazado_777494" data-name="Trazado 777494" d="M221.411,142.1a9.111,9.111,0,0,1-4.871-1.061,4.893,4.893,0,0,0,5.047,2.172Z" transform="translate(-212.534 -126.826)" fill="#eb996e"/>
                  <path id="Trazado_777495" data-name="Trazado 777495" d="M226.227,129.109a.888.888,0,0,0-.818-.294.815.815,0,0,0-.549.329.519.519,0,0,0-.01.594.6.6,0,0,0,.658.134,1.959,1.959,0,0,0,.617-.409.511.511,0,0,0,.134-.153.163.163,0,0,0-.01-.185" transform="translate(-218.13 -118.498)" fill="#eb996e"/>
                  <path id="Trazado_777496" data-name="Trazado 777496" d="M225.167,127.26c.08-.01.109.53.588.894s1.048.275,1.057.351c.01.032-.121.112-.364.128a1.35,1.35,0,0,1-.882-.262,1.178,1.178,0,0,1-.457-.751C225.077,127.4,225.132,127.26,225.167,127.26Z" transform="translate(-218.36 -117.447)" fill="#263238"/>
                </g>
                <path id="Trazado_777497" data-name="Trazado 777497" d="M219.082,108.722c-.042.137-.54.1-1.118.195s-1.041.278-1.124.163c-.038-.057.038-.188.22-.329a1.9,1.9,0,0,1,.821-.335,1.881,1.881,0,0,1,.885.061c.217.077.329.179.313.243Z" transform="translate(-212.732 -104.605)" fill="#263238"/>
                <path id="Trazado_777498" data-name="Trazado 777498" d="M234.464,108.183c-.083.118-.428.016-.84.029s-.754.112-.84,0c-.038-.054.013-.173.16-.284a1.134,1.134,0,0,1,.674-.217,1.171,1.171,0,0,1,.68.195c.15.109.2.224.169.281Z" transform="translate(-223.581 -104.142)" fill="#263238"/>
              </g>
              <path id="Trazado_777499" data-name="Trazado 777499" d="M210.26,91.508l-.22-.093a1.527,1.527,0,0,0-1.07-1.974,1.982,1.982,0,0,0-2.115,1.076,1.71,1.71,0,0,0-1.971-.789,3.547,3.547,0,0,0-1.45,1.2c-.093.109-.211.227-.355.211a.494.494,0,0,1-.262-.166,2.321,2.321,0,0,0-2.6-.24,3.476,3.476,0,0,0-1.619,2.178,2.186,2.186,0,0,0-.061,1.128,1.1,1.1,0,0,0,.731.8,1.822,1.822,0,0,0,.846,2.766,1.489,1.489,0,0,0,.157.348,16.991,16.991,0,0,0-.07,1.974,1.762,1.762,0,0,0,.172.824.662.662,0,0,0,.706.351c.3-.083.716-.233.8-.533a9.539,9.539,0,0,0,.026-1.814,1.623,1.623,0,0,0,.821-2.837,1.791,1.791,0,0,0,1.6-.125,1.811,1.811,0,0,0,.84-1.374,2.41,2.41,0,0,0,1.91.648,1.262,1.262,0,0,0,.872-.412.677.677,0,0,0-.026-.9,1.775,1.775,0,0,0,1.933-.332,1.8,1.8,0,0,0,.4-1.926Z" transform="translate(-198.253 -87.323)" fill="#263238"/>
              <g id="Grupo_1046791" data-name="Grupo 1046791" transform="translate(0.981 11.922)">
                <path id="Trazado_777500" data-name="Trazado 777500" d="M202.847,120.3c-.054-.022-2.14-.569-2.009,1.549a1.592,1.592,0,0,0,2.223,1.492C203.061,123.281,202.847,120.3,202.847,120.3Z" transform="translate(-200.831 -120.222)" fill="#ffbe9d"/>
                <path id="Trazado_777501" data-name="Trazado 777501" d="M203.51,124.086a.624.624,0,0,1-.1.061.363.363,0,0,1-.275.022.919.919,0,0,1-.473-.792,1.259,1.259,0,0,1,.07-.533.419.419,0,0,1,.259-.3.187.187,0,0,1,.224.089c.032.057.022.1.032.1s.042-.038.019-.125a.238.238,0,0,0-.093-.128.281.281,0,0,0-.208-.042.515.515,0,0,0-.364.351,1.223,1.223,0,0,0-.089.6.962.962,0,0,0,.594.882.4.4,0,0,0,.332-.077c.061-.057.07-.105.064-.109Z" transform="translate(-201.974 -121.729)" fill="#eb996e"/>
              </g>
              <path id="Trazado_777502" data-name="Trazado 777502" d="M219.063,89.881a.422.422,0,0,0,.057.013c.038.006.1.013.169.019a2.537,2.537,0,0,0,.648-.032,1.772,1.772,0,0,0,.444-.141,1.371,1.371,0,0,0,.444-.329,1.348,1.348,0,0,0,.291-.562.992.992,0,0,0-.089-.7l-.058.054a2.417,2.417,0,0,0,1.485.374,2.379,2.379,0,0,0,.824-.211,1.389,1.389,0,0,0,.374-.243.849.849,0,0,0,.246-.39,1.272,1.272,0,0,0,.019-.537,3.557,3.557,0,0,0-.128-.5,1.613,1.613,0,0,0-.214-.457.578.578,0,0,0-.415-.268l-.016.086a1.454,1.454,0,0,0,.942-.083,1.6,1.6,0,0,0,.671-.546,1.319,1.319,0,0,0,.233-.731,1.56,1.56,0,0,0-.137-.645,1.5,1.5,0,0,0-.616-.687,1,1,0,0,0-.31-.121,3.222,3.222,0,0,1,.294.147,1.524,1.524,0,0,1,.581.684,1.475,1.475,0,0,1,.121.623,1.222,1.222,0,0,1-.23.69,1.5,1.5,0,0,1-.639.511,1.368,1.368,0,0,1-.885.073l-.016.086a.494.494,0,0,1,.351.233,1.538,1.538,0,0,1,.2.434,1.784,1.784,0,0,1,.109.981.969.969,0,0,1-.572.575,2.271,2.271,0,0,1-.792.2,2.353,2.353,0,0,1-1.434-.351l-.137-.089.083.144a.9.9,0,0,1,.086.639,1.24,1.24,0,0,1-.268.533,1.221,1.221,0,0,1-.418.319,1.768,1.768,0,0,1-.431.147,2.691,2.691,0,0,1-.639.054c-.15,0-.23-.01-.23-.006Z" transform="translate(-212.257 -83.138)" fill="#fff"/>
              <path id="Trazado_777503" data-name="Trazado 777503" d="M236.67,97.753a.435.435,0,0,0,.125.051.99.99,0,0,0,.371.022.929.929,0,0,0,.511-.227.473.473,0,0,0,.153-.31.345.345,0,0,0-.182-.332l-.032.086a.179.179,0,0,0,.032.006,1.443,1.443,0,0,0,1.2-.259,1.278,1.278,0,0,0,.265-.272.372.372,0,0,0,.067-.121,2.975,2.975,0,0,1-.371.339,1.436,1.436,0,0,1-1.137.22.093.093,0,0,1-.029-.006l-.441-.1.412.185a.259.259,0,0,1,.131.243.372.372,0,0,1-.121.252.909.909,0,0,1-.46.224,1.655,1.655,0,0,1-.486-.01Z" transform="translate(-224.242 -92.086)" fill="#fff"/>
            </g>
            <g id="Grupo_1046801" data-name="Grupo 1046801" transform="translate(37.38)">
              <g id="Grupo_1046794" data-name="Grupo 1046794" transform="translate(16.608 11.61)">
                <path id="Trazado_777504" data-name="Trazado 777504" d="M289.394,63.3l.236-1.326a22.915,22.915,0,0,1-.693-3.287c.08-.412.163-2.386.163-2.386l1.987-2.249a.708.708,0,0,1,.671.412s.907-.073,1.112.54a.518.518,0,0,1,.767.438,2.436,2.436,0,0,1,.054.575c.131.029.882.208.891.585a5.86,5.86,0,0,1-.316,1.687.62.62,0,0,1-.46.38h0l-.22,1.019a10.668,10.668,0,0,1-.572,2.453l-.284.463-.086,2.086Z" transform="translate(-288.932 -54.047)" fill="#ffbe9d"/>
                <g id="Grupo_1046793" data-name="Grupo 1046793" transform="translate(2.025 0.339)">
                  <path id="Trazado_777505" data-name="Trazado 777505" d="M296.65,56.592a3.963,3.963,0,0,0-.62-1.482l-.76.482a5.432,5.432,0,0,0,.31.754,1,1,0,0,0,.629.61c.166.042.383,0,.438-.166a.378.378,0,0,0,0-.2Z" transform="translate(-295.27 -55.11)" fill="#ffbe9d"/>
                  <path id="Trazado_777506" data-name="Trazado 777506" d="M295.27,55.6a.7.7,0,0,0,.035.157,3.548,3.548,0,0,0,.166.406c.038.086.077.179.118.275a1.268,1.268,0,0,0,.195.294.9.9,0,0,0,.316.23.535.535,0,0,0,.422.016.281.281,0,0,0,.157-.163.442.442,0,0,0,0-.214,2.553,2.553,0,0,0-.089-.374,3.749,3.749,0,0,0-.249-.6c-.086-.163-.163-.291-.22-.377s-.089-.131-.1-.128a.954.954,0,0,0,.073.141c.051.089.121.22.2.383a3.765,3.765,0,0,1,.233.6,2.566,2.566,0,0,1,.083.367.452.452,0,0,1,0,.185.209.209,0,0,1-.125.125.476.476,0,0,1-.374-.016.837.837,0,0,1-.3-.211,1.1,1.1,0,0,1-.188-.278c-.045-.1-.083-.192-.125-.272-.083-.166-.147-.3-.182-.393S295.273,55.6,295.27,55.6Z" transform="translate(-295.27 -55.116)" fill="#eb996e"/>
                </g>
                <path id="Trazado_777507" data-name="Trazado 777507" d="M299.046,58.263s0,.016-.006.045v.131a1.212,1.212,0,0,0,.125.46,1.486,1.486,0,0,0,.463.537.531.531,0,0,0,.415.089.379.379,0,0,0,.2-.121.357.357,0,0,0,.077-.23,2.111,2.111,0,0,0-.073-.444c-.035-.141-.07-.275-.109-.4-.077-.249-.147-.476-.208-.671s-.1-.345-.131-.454a1.368,1.368,0,0,0-.048-.166.872.872,0,0,0,.026.172c.022.109.057.268.112.46s.121.422.195.674c.035.128.07.259.105.4a2.141,2.141,0,0,1,.07.428.307.307,0,0,1-.064.192.312.312,0,0,1-.166.1.475.475,0,0,1-.371-.08,1.424,1.424,0,0,1-.454-.508,1.314,1.314,0,0,1-.141-.441,1.381,1.381,0,0,0-.019-.172Z" transform="translate(-295.811 -56.084)" fill="#eb996e"/>
                <path id="Trazado_777508" data-name="Trazado 777508" d="M300.415,61.48a.223.223,0,0,0-.019.051c-.01.032-.022.083-.035.15a1.732,1.732,0,0,0,0,.565,1.264,1.264,0,0,0,.374.747.681.681,0,0,0,.466.192.342.342,0,0,0,.252-.112.477.477,0,0,0,.109-.262,6.75,6.75,0,0,0-.016-1.025c-.026-.31-.045-.591-.064-.831s-.029-.428-.032-.559a1.447,1.447,0,0,0-.013-.208s0,.019-.006.054-.006.086-.006.153c0,.134,0,.326.013.562s.032.521.051.834a7.567,7.567,0,0,1,.013,1.013.414.414,0,0,1-.093.227.286.286,0,0,1-.208.093.643.643,0,0,1-.425-.172,1.233,1.233,0,0,1-.367-.712,2.175,2.175,0,0,1,.01-.757Z" transform="translate(-296.694 -58.228)" fill="#eb996e"/>
              </g>
              <g id="Grupo_1046795" data-name="Grupo 1046795">
                <path id="Trazado_777509" data-name="Trazado 777509" d="M237.128,60.777l.032-.077.048.067a.357.357,0,0,0,.153.121l.077.032-.067.048a.357.357,0,0,0-.121.153l-.032.077-.048-.067a.357.357,0,0,0-.153-.121l-.077-.032.067-.048A.357.357,0,0,0,237.128,60.777Z" transform="translate(-236.94 -46.965)" fill="#e0e0e0"/>
                <path id="Trazado_777510" data-name="Trazado 777510" d="M303.429,33.041l.054-.131.083.118a.626.626,0,0,0,.262.211l.131.054-.118.083a.626.626,0,0,0-.211.262l-.054.131-.083-.118a.626.626,0,0,0-.262-.211l-.131-.054.118-.083A.626.626,0,0,0,303.429,33.041Z" transform="translate(-281.967 -28.052)" fill="#e0e0e0"/>
                <path id="Trazado_777511" data-name="Trazado 777511" d="M300.023,17.924l.093-.224.137.2a1.038,1.038,0,0,0,.441.355l.224.093-.2.137a1.038,1.038,0,0,0-.355.441l-.093.224-.137-.2a1.038,1.038,0,0,0-.441-.355l-.224-.093.2-.137A1.038,1.038,0,0,0,300.023,17.924Z" transform="translate(-279.496 -17.7)" fill="#e0e0e0"/>
                <path id="Trazado_777512" data-name="Trazado 777512" d="M267.307,79.892l-.077-.227.233.057a1,1,0,0,0,.565-.026l.227-.077-.057.233a1,1,0,0,0,.026.565l.077.227-.233-.058a1,1,0,0,0-.565.026l-.227.077.057-.233A1,1,0,0,0,267.307,79.892Z" transform="translate(-257.555 -59.841)" fill="#e0e0e0"/>
              </g>
              <g id="Grupo_1046800" data-name="Grupo 1046800" transform="translate(3.964 0.392)">
                <g id="Grupo_1046798" data-name="Grupo 1046798">
                  <path id="Trazado_777513" data-name="Trazado 777513" d="M251.809,54.562c-.406.486-.824.965-1.217,1.463a1.868,1.868,0,0,0-.4,1.53,2.067,2.067,0,0,0,.971,1.319,7.8,7.8,0,0,0,5.168,1.658,4.965,4.965,0,0,0,3.185-1.827.4.4,0,0,0-.613-.511,4.2,4.2,0,0,1-2.367,1.5,4.887,4.887,0,0,1-2.415-.195,9.283,9.283,0,0,1-2.108-1.013,2.761,2.761,0,0,1-.9-.719,1.059,1.059,0,0,1,.1-1.227c.393-.5.811-.974,1.217-1.463a.4.4,0,0,0-.613-.511h0Z" transform="translate(-249.899 -43.085)" fill="#ff725e"/>
                  <path id="Trazado_777514" data-name="Trazado 777514" d="M279.823,21.58c.383-.46.763-.92,1.147-1.377a1.135,1.135,0,0,1,.875-.476,1.531,1.531,0,0,1,1.073.636,6.9,6.9,0,0,1,2.179,4.108,4.152,4.152,0,0,1-1.035,2.913c-.326.4.287.91.613.511a5.04,5.04,0,0,0,1.227-3.079,5.643,5.643,0,0,0-.751-2.8,10.113,10.113,0,0,0-1.62-2.166,2.649,2.649,0,0,0-1.233-.869,1.841,1.841,0,0,0-1.655.4,15.02,15.02,0,0,0-1.434,1.68.4.4,0,0,0,.613.511h0Z" transform="translate(-269.607 -18.928)" fill="#ff725e"/>
                  <path id="Trazado_777515" data-name="Trazado 777515" d="M296.4,62.413l-.84.636-.01-.01-.013.026-.022.016.01.01-.476.942a10.188,10.188,0,0,1,2.1,2.939l1.243-1.492.035-.042,1.243-1.492A10.211,10.211,0,0,1,296.4,62.41Z" transform="translate(-280.452 -48.521)" fill="#ff725e"/>
                  <path id="Trazado_777516" data-name="Trazado 777516" d="M294,59.5,292.168,61.7a.669.669,0,0,1-.942.086h0a.669.669,0,0,1-.086-.942l1.827-2.194a.669.669,0,0,1,.942-.086h0A.669.669,0,0,1,294,59.5Z" transform="translate(-277.686 -45.795)" fill="#ff725e"/>
                  <g id="Grupo_1046796" data-name="Grupo 1046796" transform="translate(0 0.441)">
                    <path id="Trazado_777517" data-name="Trazado 777517" d="M258.281,20.32,253.966,25.5l-.23.275-4.076,4.894c.077.121,9.832,9.113,14.416,3.258l.01-.013c4.932-5.568-5.673-13.537-5.807-13.592Z" transform="translate(-249.561 -20.316)" fill="#ff725e"/>
                    <path id="Trazado_777518" data-name="Trazado 777518" d="M258.07,20.312a.613.613,0,0,1,.1.061c.067.045.163.115.284.208.246.188.607.473,1.051.856a24.964,24.964,0,0,1,3.44,3.606,13.329,13.329,0,0,1,1.754,2.971,5.985,5.985,0,0,1,.364,3.907,4.911,4.911,0,0,1-1.019,1.894,5.839,5.839,0,0,1-1.664,1.5,5.037,5.037,0,0,1-2.233.642,7.824,7.824,0,0,1-2.38-.259,16.865,16.865,0,0,1-4.644-2.134c-.7-.441-1.354-.907-1.977-1.383-.313-.24-.613-.479-.907-.725-.144-.125-.291-.246-.431-.367s-.272-.233-.425-.4l-.035-.038.042-.051c2.559-3.051,4.724-5.632,6.254-7.459l1.786-2.108c.2-.236.361-.418.473-.553.051-.057.089-.1.121-.137s.042-.045.042-.042-.013.019-.038.054-.07.089-.118.15c-.112.137-.265.329-.463.572-.412.5-1,1.227-1.75,2.137-1.514,1.83-3.657,4.418-6.191,7.481l-.048-.054a.559.559,0,0,0,.057-.035h0l.01.013.019.019.051.048.1.093.208.185c.144.121.284.243.431.364.291.243.594.482.9.719.62.473,1.278.933,1.968,1.37a16.661,16.661,0,0,0,4.6,2.111,7.726,7.726,0,0,0,2.329.256,4.919,4.919,0,0,0,2.163-.62,5.686,5.686,0,0,0,1.62-1.463,4.844,4.844,0,0,0,1-1.834,5.846,5.846,0,0,0-.345-3.811,13.234,13.234,0,0,0-1.719-2.952,25.867,25.867,0,0,0-3.392-3.629c-.438-.393-.789-.684-1.029-.878l-.275-.22a.59.59,0,0,1-.093-.077Z" transform="translate(-249.35 -20.309)" fill="#263238"/>
                  </g>
                  <g id="Grupo_1046797" data-name="Grupo 1046797" transform="translate(8.497 0.445)" opacity="0.3">
                    <path id="Trazado_777519" data-name="Trazado 777519" d="M276.174,20.32c.626.524,1.246.993,1.811,1.508,3.814,3.466,6.274,7.388,4.906,10.717l-1.054,1.61s1.108-4.082-.968-7.031-4.919-6.3-4.919-6.3l.224-.508Z" transform="translate(-275.95 -20.32)"/>
                  </g>
                  <path id="Trazado_777520" data-name="Trazado 777520" d="M304.718,63.617l-5.382,6.462h0a2.078,2.078,0,0,1-.265-2.929l2.722-3.265a2.078,2.078,0,0,1,2.929-.265h0Z" transform="translate(-282.859 -49.015)" fill="#ff725e"/>
                  <rect id="Rectángulo_356893" data-name="Rectángulo 356893" width="11.285" height="5.43" transform="matrix(0.64, -0.768, 0.768, 0.64, 15.436, 22.145)" fill="#263238"/>
                  <rect id="Rectángulo_356894" data-name="Rectángulo 356894" width="7.982" height="2.661" transform="matrix(0.64, -0.768, 0.768, 0.64, 17.553, 21.799)" fill="#455a64"/>
                  <path id="Trazado_777521" data-name="Trazado 777521" d="M270.923,41.071l2.016.486,1.543-1.386.16,2.067,1.8,1.038-1.917.792-.431,2.025-1.345-1.575-2.064.214,1.086-1.766Z" transform="translate(-263.867 -33.385)" fill="#fff"/>
                  <path id="Trazado_777522" data-name="Trazado 777522" d="M264.339,57.549a.191.191,0,0,1-.026.019c-.019.013-.042.032-.073.057a1.8,1.8,0,0,1-.307.185,2.368,2.368,0,0,1-.54.179,3.543,3.543,0,0,1-.751.067,5.6,5.6,0,0,1-.907-.093c-.16-.032-.329-.064-.5-.1s-.345-.086-.524-.128a13.8,13.8,0,0,1-2.246-.834,20.913,20.913,0,0,1-2.1-1.153c-.626-.39-1.172-.763-1.629-1.083s-.821-.588-1.07-.77c-.125-.093-.22-.163-.288-.214-.032-.026-.057-.042-.073-.057l-.026-.019.026.016.077.054.291.208c.252.182.62.444,1.076.763s1.006.69,1.632,1.076a20.853,20.853,0,0,0,2.1,1.15,13.85,13.85,0,0,0,2.239.834c.179.045.351.093.521.131s.335.067.5.1a5.589,5.589,0,0,0,.9.1,3.73,3.73,0,0,0,.744-.061,2.357,2.357,0,0,0,.537-.172,2.072,2.072,0,0,0,.31-.179l.077-.054.026-.019Z" transform="translate(-252.025 -42.532)" fill="#fff"/>
                  <path id="Trazado_777523" data-name="Trazado 777523" d="M291.926,66.66a.282.282,0,0,0-.035.137.4.4,0,0,0,.131.3.85.85,0,0,0,.3.166.548.548,0,0,1,.137.051.593.593,0,0,1-.147-.026A.757.757,0,0,1,292,67.13a.411.411,0,0,1-.131-.332.238.238,0,0,1,.035-.105A.11.11,0,0,1,291.926,66.66Z" transform="translate(-278.283 -51.413)" fill="#fff"/>
                  <path id="Trazado_777524" data-name="Trazado 777524" d="M299.948,75.593s-.022.032-.061.083a2.177,2.177,0,0,0-.434,1.115,2.1,2.1,0,0,0,.131.91,2.4,2.4,0,0,0,.115.256.582.582,0,0,1,.048.093.127.127,0,0,1-.016-.022c-.01-.016-.026-.035-.042-.064a2.073,2.073,0,0,1-.128-.256,2.04,2.04,0,0,1-.144-.923,2.018,2.018,0,0,1,.291-.888,1.831,1.831,0,0,1,.166-.23c.022-.026.042-.045.051-.058l.019-.019Z" transform="translate(-283.42 -57.491)" fill="#fff"/>
                </g>
                <g id="Grupo_1046799" data-name="Grupo 1046799" transform="translate(13.103 13.171)">
                  <path id="Trazado_777525" data-name="Trazado 777525" d="M292.048,62.966a3.941,3.941,0,0,0,.863-1.265,1.325,1.325,0,0,0-.284-1.421q-1.116,1.284-2.236,2.568l2.5,3.271a2.235,2.235,0,0,0-.846-3.15Z" transform="translate(-290.383 -60.242)" fill="#ffbe9d"/>
                  <path id="Trazado_777526" data-name="Trazado 777526" d="M293.34,65.485s.006-.019.016-.057.026-.1.035-.169a2.138,2.138,0,0,0-.006-.655,2.326,2.326,0,0,0-.367-.93,2.182,2.182,0,0,0-.974-.815l.01.048a7.906,7.906,0,0,0,.517-.62,2.313,2.313,0,0,0,.387-.773,1.547,1.547,0,0,0,.016-.735,1.119,1.119,0,0,0-.348-.6l-.022-.019-.019.022c-.642.744-1.2,1.39-1.6,1.849-.192.227-.348.409-.457.54-.051.061-.089.109-.121.147a.266.266,0,0,0-.038.051s.016-.016.048-.045.073-.083.128-.141l.473-.527c.4-.46.965-1.1,1.613-1.837h-.042a1.05,1.05,0,0,1,.326.572,1.51,1.51,0,0,1-.016.706,2.352,2.352,0,0,1-.377.754,7.07,7.07,0,0,1-.511.616l-.029.032.038.016a2.168,2.168,0,0,1,.955.789,2.294,2.294,0,0,1,.374.907,2.178,2.178,0,0,1,.022.645c-.019.15-.038.23-.035.23Z" transform="translate(-290.369 -60.16)" fill="#eb996e"/>
                </g>
              </g>
            </g>
            <g id="Grupo_1046802" data-name="Grupo 1046802" transform="translate(57.523 15.06)">
              <path id="Trazado_777527" data-name="Trazado 777527" d="M300,68.495c.91-1.2,2.032-2.444,2.942-3.645" transform="translate(-300 -64.849)" fill="#ff725e"/>
              <path id="Trazado_777528" data-name="Trazado 777528" d="M302.948,64.849a12.733,12.733,0,0,1-1.409,1.875c-.393.466-.751.888-1.067,1.265a3.122,3.122,0,0,1-.466.5,12.735,12.735,0,0,1,1.409-1.875c.393-.466.751-.888,1.067-1.265A3.127,3.127,0,0,1,302.948,64.849Z" transform="translate(-300.003 -64.848)" fill="#263238"/>
            </g>
            <g id="Grupo_1046803" data-name="Grupo 1046803" transform="translate(13.452 94.394)">
              <path id="Trazado_777529" data-name="Trazado 777529" d="M168.157,320.928l-.4-.1s-4.418,6.123-5.724,5.877l3.415-13.486,4.44,1.319a7.958,7.958,0,0,0-1.731,6.389Z" transform="translate(-162.03 -313.217)" fill="#455a64"/>
              <path id="Trazado_777530" data-name="Trazado 777530" d="M178.763,319.34a.57.57,0,0,0-.533-.54.545.545,0,0,0-.54.524.6.6,0,0,0,.565.569.568.568,0,0,0,.5-.607" transform="translate(-172.688 -317.014)" fill="#fff"/>
              <path id="Trazado_777531" data-name="Trazado 777531" d="M165.455,313.213l1.067.316-3.664,12.809s-.412.533-.818.358l3.415-13.486Z" transform="translate(-162.037 -313.21)" fill="#263238"/>
              <path id="Trazado_777532" data-name="Trazado 777532" d="M178.8,334.138c-.064-.019-.013-.355-.141-.735s-.364-.62-.323-.674.4.141.546.6-.026.837-.083.808Z" transform="translate(-173.127 -326.488)" fill="#263238"/>
              <path id="Trazado_777533" data-name="Trazado 777533" d="M175.126,338.719c-.067,0-.109-.316-.329-.61s-.5-.434-.479-.5c.006-.064.4-.013.671.358s.2.763.137.747Z" transform="translate(-170.392 -329.8)" fill="#263238"/>
              <path id="Trazado_777534" data-name="Trazado 777534" d="M170.91,342.221c0-.064.355-.07.671.188s.383.6.323.62-.208-.227-.47-.434-.533-.307-.521-.374Z" transform="translate(-168.073 -332.929)" fill="#263238"/>
            </g>
            <g id="Grupo_1046804" data-name="Grupo 1046804" transform="translate(26.053 128.388)">
              <path id="Trazado_777535" data-name="Trazado 777535" d="M208.983,422.2l-.153.355s4.948,5,4.52,6.165l-11.87-5.216,1.9-3.878a7.424,7.424,0,0,0,5.606,2.575Z" transform="translate(-201.48 -419.63)" fill="#455a64"/>
              <path id="Trazado_777536" data-name="Trazado 777536" d="M208.2,425.229a.528.528,0,0,0-.578.406.512.512,0,0,0,.4.578.559.559,0,0,0,.61-.434c.019-.259-.22-.575-.479-.553" transform="translate(-205.656 -423.437)" fill="#fff"/>
              <path id="Trazado_777537" data-name="Trazado 777537" d="M201.49,429.783l.457-.933,11.209,5.341s.428.463.2.808Z" transform="translate(-201.487 -425.905)" fill="#263238"/>
              <path id="Trazado_777538" data-name="Trazado 777538" d="M221.661,428.5c-.029.057-.329-.045-.7.016s-.626.236-.668.192.192-.342.636-.409S221.7,428.454,221.661,428.5Z" transform="translate(-214.282 -425.522)" fill="#263238"/>
              <path id="Trazado_777539" data-name="Trazado 777539" d="M225.31,432.078c-.013.061-.307.051-.61.208s-.476.393-.53.364.051-.371.434-.562.731-.067.709-.013Z" transform="translate(-216.912 -428.037)" fill="#263238"/>
              <path id="Trazado_777540" data-name="Trazado 777540" d="M227.894,436.174c-.057-.01-.013-.335.278-.588s.613-.259.62-.2-.24.156-.473.364-.361.441-.422.422Z" transform="translate(-219.442 -430.332)" fill="#263238"/>
            </g>
            <path id="Trazado_777541" data-name="Trazado 777541" d="M204.7,129.36a.48.48,0,0,0-.514-.4l-.035.006a.464.464,0,1,0,.549.39Z" transform="translate(-176.993 -93.421)" fill="#455a64"/>
            <path id="Trazado_777542" data-name="Trazado 777542" d="M208.05,147.468l2.808,7.762,6.743,10.96.2-11.624-1.939-8.986h-.153l-1.393,5.938-1.849-2.236-4.207-2.926Z" transform="translate(-179.898 -104.732)" fill="#fafafa"/>
            <path id="Trazado_777543" data-name="Trazado 777543" d="M230.29,157.147a3.323,3.323,0,0,1-.428-.517c-.128-.163-.281-.361-.46-.572a3.438,3.438,0,0,0-.639-.613l.125-.054a2.325,2.325,0,0,1-.1.31c-.275.687-.591,1.262-.8,1.693s-.307.7-.326.7a1.97,1.97,0,0,1,.22-.744c.176-.444.479-1.038.744-1.706a2.439,2.439,0,0,0,.093-.284l.029-.115.093.064a3.121,3.121,0,0,1,.668.661c.176.22.319.425.438.6a2.538,2.538,0,0,1,.339.585Z" transform="translate(-193.246 -111.306)" fill="#263238"/>
            <path id="Trazado_777544" data-name="Trazado 777544" d="M231.454,180.148s-.054-.195-.125-.553c-.077-.383-.179-.894-.3-1.511-.259-1.275-.639-3.031-1.07-4.97s-.827-3.667-1.118-4.964c-.137-.616-.249-1.124-.332-1.5a4.037,4.037,0,0,1-.1-.556,4.1,4.1,0,0,1,.166.543c.1.351.227.862.383,1.495.316,1.265.735,3.012,1.166,4.954s.792,3.7,1.022,4.986c.112.642.2,1.163.249,1.524a3.778,3.778,0,0,1,.061.562Z" transform="translate(-193.752 -118.69)" fill="#263238"/>
            <path id="Trazado_777545" data-name="Trazado 777545" d="M174.14,142.144c-1.869,1.364-5.954,1.616-7.682,1.5-2.329-.153-4.839-1.131-7.094-1.722a16.547,16.547,0,0,0-6.794-.24,10.616,10.616,0,0,0-6.459,3.8l.955,1.025s3.185-2.658,6.1-3.044c2.795-.371,4.517.227,7.794,1.092a23.907,23.907,0,0,0,9.663.386,15.273,15.273,0,0,0,3.884-1.7l-.374-1.092Z" transform="translate(-137.744 -101.918)" fill="#455a64"/>
            <path id="Trazado_777546" data-name="Trazado 777546" d="M210.148,157.283a2.733,2.733,0,0,1,.275.192c.169.131.415.329.712.572.6.489,1.415,1.172,2.309,1.939l.048.042-.134.045c.157-.712.3-1.38.428-1.968l.026-.115.089.073c.508.412.933.76,1.223,1.009a3.142,3.142,0,0,1,.447.409,2.939,2.939,0,0,1-.5-.342c-.307-.227-.744-.559-1.262-.961l.115-.042c-.121.588-.259,1.255-.409,1.971l-.029.137-.105-.093-.048-.042c-.9-.763-1.7-1.463-2.278-1.974-.287-.256-.521-.466-.677-.613s-.243-.233-.233-.243Z" transform="translate(-181.326 -112.694)" fill="#263238"/>
            <g id="Grupo_1046812" data-name="Grupo 1046812" transform="translate(0 42.437)">
              <path id="Trazado_777547" data-name="Trazado 777547" d="M130.2,172.528c.019-.125-.648-2.638-.648-2.638l-3.191-1.46.559,2.916a13.763,13.763,0,0,0,1.147,1.019C128.126,172.343,130.2,172.528,130.2,172.528Z" transform="translate(-124.302 -162.719)" fill="#eb996e"/>
              <g id="Grupo_1046810" data-name="Grupo 1046810" transform="translate(2.189)">
                <g id="Grupo_1046806" data-name="Grupo 1046806" transform="translate(0 0.549)">
                  <path id="Trazado_777548" data-name="Trazado 777548" d="M135.278,156.171a4.261,4.261,0,1,1-4.606-3.884A4.261,4.261,0,0,1,135.278,156.171Z" transform="translate(-126.772 -152.272)" fill="#ff725e"/>
                  <g id="Grupo_1046805" data-name="Grupo 1046805" opacity="0.3">
                    <path id="Trazado_777549" data-name="Trazado 777549" d="M135.278,156.171a4.261,4.261,0,1,1-4.606-3.884A4.261,4.261,0,0,1,135.278,156.171Z" transform="translate(-126.772 -152.272)"/>
                  </g>
                </g>
                <path id="Trazado_777550" data-name="Trazado 777550" d="M135.278,154.451a4.261,4.261,0,1,1-4.606-3.884A4.261,4.261,0,0,1,135.278,154.451Z" transform="translate(-126.772 -150.552)" fill="#ff725e"/>
                <g id="Grupo_1046807" data-name="Grupo 1046807" transform="translate(0.978 1.126)" opacity="0.3">
                  <path id="Trazado_777551" data-name="Trazado 777551" d="M130.142,157.639a3.286,3.286,0,0,1,3-3.552c.048,0,.093,0,.141-.006a3.349,3.349,0,0,0-.438.006,3.283,3.283,0,0,0,.415,6.551,3.282,3.282,0,0,1-3.114-3Z" transform="translate(-129.833 -154.077)"/>
                </g>
                <g id="Grupo_1046808" data-name="Grupo 1046808" transform="translate(6.037 0.792)" opacity="0.3">
                  <path id="Trazado_777552" data-name="Trazado 777552" d="M145.67,153.886l.7-.856.537.454-.751.779Z" transform="translate(-145.67 -153.03)" fill="#fff"/>
                </g>
                <path id="Trazado_777553" data-name="Trazado 777553" d="M136.224,156.947a7.443,7.443,0,0,0-.2-.779,3.261,3.261,0,0,0-1.345-1.661,3.193,3.193,0,0,0-1.4-.476,3.229,3.229,0,0,0-1.667.287,3.08,3.08,0,0,0-.77.5,2.94,2.94,0,0,0-.616.738,3.192,3.192,0,0,0,.319,3.772,3.069,3.069,0,0,0,.731.623,3.021,3.021,0,0,0,.843.367,3.253,3.253,0,0,0,4.041-2.575,7.9,7.9,0,0,0,.067-.8,2.541,2.541,0,0,1,0,.815A3.267,3.267,0,0,1,135.2,159.7a3.3,3.3,0,0,1-1.345.754,3.353,3.353,0,0,1-1.77.013,3.349,3.349,0,0,1-1.658-1.029,3.339,3.339,0,0,1-.339-3.964,3.358,3.358,0,0,1,1.463-1.294,3.367,3.367,0,0,1,1.747-.287,3.3,3.3,0,0,1,1.453.514,3.26,3.26,0,0,1,1.342,1.741,2.547,2.547,0,0,1,.141.8Z" transform="translate(-128.689 -152.817)" fill="#263238"/>
                <path id="Trazado_777554" data-name="Trazado 777554" d="M130.059,152.594c.01.029-.236.093-.562.316a4.912,4.912,0,0,0-1.07,1.112,3.686,3.686,0,0,0-.642,1.39c-.089.387-.093.639-.118.639a1.491,1.491,0,0,1,0-.661,3.316,3.316,0,0,1,.623-1.469,4.15,4.15,0,0,1,1.14-1.112,1.208,1.208,0,0,1,.626-.217Z" transform="translate(-127.361 -151.937)" fill="#fff"/>
                <path id="Trazado_777555" data-name="Trazado 777555" d="M136.92,151.606c.013.045-.067.105-.176.134s-.208.016-.217-.029.067-.105.176-.134S136.91,151.561,136.92,151.606Z" transform="translate(-133.41 -151.239)" fill="#fff"/>
                <path id="Trazado_777556" data-name="Trazado 777556" d="M139.668,171.947a2.008,2.008,0,0,1-1.089.412,1.975,1.975,0,0,1-1.16-.112c.01-.048.517.032,1.137-.054S139.646,171.9,139.668,171.947Z" transform="translate(-134.018 -165.109)" fill="#fff"/>
                <path id="Trazado_777557" data-name="Trazado 777557" d="M150.364,166.725c-.042-.026.032-.211.089-.444s.089-.431.134-.431.093.214.026.473-.214.428-.252.4Z" transform="translate(-142.82 -160.963)" fill="#fff"/>
                <g id="Grupo_1046809" data-name="Grupo 1046809" transform="translate(3.427 3.168)" opacity="0.3">
                  <path id="Trazado_777558" data-name="Trazado 777558" d="M138.775,160.47v2.948h-.684v-2.4H137.5v-.546h1.271Z" transform="translate(-137.5 -160.47)"/>
                </g>
              </g>
              <g id="Grupo_1046811" data-name="Grupo 1046811" transform="translate(0 3.765)">
                <path id="Trazado_777559" data-name="Trazado 777559" d="M126.014,168.007a19.033,19.033,0,0,0-2.785-.517l.173-1s1.22-.364,1.549-.894a1.192,1.192,0,0,0,.026-1.105l-.674.195c.335-.345.144-1.019.144-1.019l-.751.16a.585.585,0,0,0,.077-.869l-.581.188c.355-.383-.272-.8-.272-.8s-2.645,2.064-2.817,2.345.208,1.041.208,1.041a1.666,1.666,0,0,0-.39.862c-.019.444.54.6.54.6a1.676,1.676,0,0,0,.048.7c.105.364,1.862,1.38,1.862,1.38l2.309,2.329L127,168.425s-.377-.173-.987-.425Z" transform="translate(-119.918 -162.34)" fill="#ffbe9d"/>
                <path id="Trazado_777560" data-name="Trazado 777560" d="M128.033,169.17a1.775,1.775,0,0,1-.575.233,11.556,11.556,0,0,0-1.4.447,2.491,2.491,0,0,0-.664.422c-.182.166-.329.335-.46.473a1.36,1.36,0,0,1-.482.39c-.013-.019.16-.172.4-.466a6.04,6.04,0,0,1,.444-.508,2.4,2.4,0,0,1,.7-.463,7.51,7.51,0,0,1,1.441-.409A3.663,3.663,0,0,1,128.033,169.17Z" transform="translate(-123.001 -166.985)" fill="#eb996e"/>
                <path id="Trazado_777561" data-name="Trazado 777561" d="M131.249,175.589c-.01.042-.546-.08-1.29-.048h-.109l.032-.1c.042-.147.083-.3.115-.47a5.351,5.351,0,0,0,.089-.668l.006-.067h.067a2.551,2.551,0,0,0,.738-.214,1.185,1.185,0,0,1,.291-.115c.01.013-.077.1-.246.2a1.968,1.968,0,0,1-.773.278l.073-.073a4.275,4.275,0,0,1-.08.693,4.671,4.671,0,0,1-.125.486l-.08-.1a2.8,2.8,0,0,1,1.294.208Z" transform="translate(-126.678 -170.21)" fill="#eb996e"/>
                <path id="Trazado_777562" data-name="Trazado 777562" d="M123.437,168.279a2.012,2.012,0,0,1,.38-.434c.144-.141.291-.287.447-.438a1.8,1.8,0,0,1,.294-.249,2.3,2.3,0,0,1,.364-.188,8.247,8.247,0,0,1,1.345-.4,2.323,2.323,0,0,1,.572-.1,1.806,1.806,0,0,1-.54.211c-.339.109-.818.233-1.31.434a2.44,2.44,0,0,0-.342.172,1.651,1.651,0,0,0-.275.224l-.47.412a2.036,2.036,0,0,1-.463.351Z" transform="translate(-122.313 -165.152)" fill="#eb996e"/>
                <path id="Trazado_777563" data-name="Trazado 777563" d="M122.067,166.085c-.016-.019.131-.166.38-.393l.441-.393.265-.227.141-.118.073-.061a.633.633,0,0,1,.1-.058,10.329,10.329,0,0,1,1.239-.463,1.7,1.7,0,0,1,.533-.125,1.889,1.889,0,0,1-.492.236c-.307.131-.751.288-1.2.5-.029.013-.048.029-.07.038l-.073.061-.141.118c-.093.073-.182.147-.271.22l-.463.364a1.915,1.915,0,0,1-.454.3Z" transform="translate(-121.38 -163.635)" fill="#eb996e"/>
              </g>
            </g>
          </g>
        </g>
        <g id="Stars" transform="translate(39.689 38.79)">
          <g id="Grupo_1046814" data-name="Grupo 1046814">
            <path id="Trazado_777564" data-name="Trazado 777564" d="M151.2,111.764l.121-.294.182.259a1.329,1.329,0,0,0,.585.466l.294.121-.259.182a1.329,1.329,0,0,0-.466.585l-.121.294-.182-.259a1.329,1.329,0,0,0-.585-.466l-.294-.121.259-.182A1.329,1.329,0,0,0,151.2,111.764Z" transform="translate(-139.325 -100.708)" fill="#ff725e"/>
            <path id="Trazado_777565" data-name="Trazado 777565" d="M275.855,217.454l.121-.294.182.259a1.329,1.329,0,0,0,.585.466l.294.121-.259.182a1.329,1.329,0,0,0-.466.585l-.121.294-.182-.259a1.329,1.329,0,0,0-.585-.466l-.294-.121.259-.182A1.329,1.329,0,0,0,275.855,217.454Z" transform="translate(-224.165 -172.638)" fill="#ff725e"/>
            <path id="Trazado_777566" data-name="Trazado 777566" d="M297.375,174.8l.121-.294.182.259a1.329,1.329,0,0,0,.585.466l.294.121-.259.182a1.329,1.329,0,0,0-.466.585l-.121.294-.182-.259a1.329,1.329,0,0,0-.585-.466l-.294-.121.259-.182A1.329,1.329,0,0,0,297.375,174.8Z" transform="translate(-238.811 -143.612)" fill="#ff725e"/>
            <path id="Trazado_777567" data-name="Trazado 777567" d="M116,107.009l.07-.169.105.15a.783.783,0,0,0,.339.272l.169.07-.15.105a.783.783,0,0,0-.272.339l-.07.169-.105-.15a.765.765,0,0,0-.339-.272l-.169-.07.15-.105A.783.783,0,0,0,116,107.009Z" transform="translate(-115.58 -97.557)" fill="#ff725e"/>
            <path id="Trazado_777568" data-name="Trazado 777568" d="M277.8,186.529l.07-.169.105.15a.783.783,0,0,0,.339.272l.169.07-.15.105a.783.783,0,0,0-.272.339l-.07.169-.105-.15a.765.765,0,0,0-.339-.272l-.169-.07.15-.105A.783.783,0,0,0,277.8,186.529Z" transform="translate(-225.697 -151.677)" fill="#ff725e"/>
            <path id="Trazado_777569" data-name="Trazado 777569" d="M130.8,78.24l.268-.46.243.476a2.234,2.234,0,0,0,.862.91l.46.268-.476.243a2.234,2.234,0,0,0-.91.862l-.268.46-.243-.476a2.234,2.234,0,0,0-.862-.91l-.46-.268.476-.243A2.234,2.234,0,0,0,130.8,78.24Z" transform="translate(-124.992 -77.78)" fill="#ff725e"/>
          </g>
        </g>
      </g>
    </g>
  </g>
</svg>
