<svg xmlns="http://www.w3.org/2000/svg" width="429.558" height="146.16" viewBox="0 0 429.558 146.16">
  <g id="Grupo_1042592" data-name="Grupo 1042592" transform="translate(-73.602 -76.16)">
    <g id="Grupo_1042540" data-name="Grupo 1042540">
      <path id="Trazado_770320" data-name="Trazado 770320" d="M341.04,190.62c-.19-.85-.4-1.67-.65-2.45a21.724,21.724,0,0,0-.84-2.27c-.16-.36-.32-.71-.49-1.05a15.727,15.727,0,0,0-1.15-1.92,12.349,12.349,0,0,0-1.39-1.66c-3.07-3.07-9.47-7.57-18.51-11.45a95.044,95.044,0,0,0-13.74-4.67c-.11-.19-.23-.37-.36-.56-.18.26-.5.68-.93,1.2a23.32,23.32,0,0,1-3.82-8.53c.26-.18.52-.37.77-.56a.554.554,0,0,0,.08-.06c.29-.22.57-.44.85-.67.03-.03.06-.05.09-.08.17-.14.34-.27.5-.42.11-.09.21-.19.32-.28.04-.03.07-.06.11-.09.26-.23.53-.47.78-.72a1.2,1.2,0,0,1,.12-.11c.16-.16.33-.31.49-.47.09-.09.17-.18.26-.26a1.594,1.594,0,0,1,.13-.13c.24-.25.48-.49.71-.75.05-.05.09-.1.14-.15.14-.15.28-.31.42-.47,11.05-5.17,18.84-15.51,19.82-32.17,1.77-29.93-20.68-41.25-38.86-41.67v-.02h-1.06v.02c-18.17.42-40.62,11.74-38.86,41.67,1.06,17.97,10.04,28.58,22.49,33.29.21.22.41.43.62.64.59.58,1.19,1.14,1.81,1.68s1.26,1.04,1.92,1.52c.15.11.3.21.45.32a23.073,23.073,0,0,1-3.66,8.53c-.32-.34-.59-.63-.8-.88-.1.16-.18.34-.27.5-.18-.22-.28-.35-.28-.35-16.42,4.2-27.93,11.7-32.4,16.16-8.07,8.08-5.21,28.86-5.21,41.04H341.7c0-8.75,1.48-21.95-.68-31.68Z" fill="gray" opacity="0.5"/>
      <g id="Grupo_1042539" data-name="Grupo 1042539">
        <g id="Grupo_1042534" data-name="Grupo 1042534">
          <g id="Grupo_1042530" data-name="Grupo 1042530">
            <path id="Trazado_770321" data-name="Trazado 770321" d="M313.36,122.45c.01-.37.03-.74.03-1.11,0-17.53-12.94-27.21-28.91-27.21s-28.91,9.68-28.91,27.21c0,.37.01.74.03,1.12-1.64.73-2.85,2.98-2.85,5.68,0,3.29,1.78,5.96,3.97,5.96a2.642,2.642,0,0,0,.92-.18c4.26,13.27,14.67,24.84,26.85,24.84s22.59-11.57,26.85-24.84a2.7,2.7,0,0,0,.93.18c2.19,0,3.97-2.67,3.97-5.96,0-2.71-1.22-4.97-2.87-5.69Z" fill="#ffe5cb"/>
            <path id="Trazado_770322" data-name="Trazado 770322" d="M284.48,159.61c-13.13,0-23.31-12.65-27.42-24.68-2.87.33-5.18-2.82-5.18-6.8,0-2.71,1.12-5.1,2.84-6.19v-.61c0-16.79,11.97-28.08,29.77-28.08s29.78,11.28,29.78,28.08v.6c1.73,1.08,2.85,3.48,2.85,6.2,0,3.82-2.12,6.82-4.84,6.82a2.173,2.173,0,0,1-.36-.02c-4.11,12.03-14.3,24.68-27.42,24.68Zm-26.3-26.82.28.85c3.75,11.67,13.49,24.23,26.02,24.23s22.28-12.57,26.03-24.24l.28-.86.85.31a1.814,1.814,0,0,0,.63.13c1.68,0,3.1-2.33,3.1-5.09,0-2.28-.97-4.29-2.35-4.89l-.54-.24.02-.59c.01-.36.02-.72.02-1.08,0-18.2-14.08-26.34-28.04-26.34s-28.04,8.14-28.04,26.34c0,.32.01.64.02.96l.02.58-.53.37c-1.37.61-2.34,2.62-2.34,4.89,0,2.76,1.42,5.09,3.1,5.09a1.722,1.722,0,0,0,.62-.13l.84-.3Z" fill="#e3c7aa"/>
          </g>
          <g id="Grupo_1042531" data-name="Grupo 1042531">
            <path id="Trazado_770323" data-name="Trazado 770323" d="M282.57,84.78c.37,0,.72.03,1.09.04s.72-.04,1.09-.04Z" fill="#339ecc"/>
            <path id="Trazado_770324" data-name="Trazado 770324" d="M283.66,78.22c-28.9.86-29.96,45.3-29.96,45.3s39.06-7.53,42.36-26.22c10.61,6.86,14.28,16.62,13.74,30.11-.33,8.4,28.04-35.74-26.14-49.19Z" fill="#f0de33"/>
          </g>
          <g id="Grupo_1042532" data-name="Grupo 1042532">
            <path id="Trazado_770325" data-name="Trazado 770325" d="M334.82,179.26c-4.47-4.47-15.98-11.96-32.4-16.16,0,0-.07.12-.21.31a10.162,10.162,0,1,1-17.42,10.37,10.164,10.164,0,0,1-19.24-4.58,10.067,10.067,0,0,1,1.58-5.43c-.36-.42-.55-.68-.55-.68-16.42,4.2-27.93,11.7-32.4,16.16-8.07,8.08-5.21,28.86-5.21,41.04H340.03c0-12.18,2.87-32.96-5.21-41.04Z" fill="#339ecc"/>
            <path id="Trazado_770326" data-name="Trazado 770326" d="M302.21,162.58a22.063,22.063,0,0,1-14.13,8.73l-3.14-.02v-.01l-4.07-.02c-7.2-1.38-12.15-6.46-13.75-8.31a10.159,10.159,0,0,0,8.59,15.6h18.14a10.166,10.166,0,0,0,8.35-15.97Z" fill="#339ecc"/>
            <path id="Trazado_770327" data-name="Trazado 770327" d="M303.03,164.19a22.032,22.032,0,0,1-14.13,8.73l-3.88-.02v-.01l-4.98-.02c-7.2-1.38-12.15-6.47-13.75-8.31-.99,1.57-2.4,3.43-2.4,5.43,0,5.62,5.38,10.17,11,10.17,3.94,0,8.19-2.25,9.9-5.52,1.7,3.27,5.96,5.52,9.89,5.52,5.62,0,11-4.55,11-10.17,0-2.16-1.5-4.15-2.64-5.8Z" fill="#fff"/>
          </g>
          <g id="Grupo_1042533" data-name="Grupo 1042533">
            <path id="Trazado_770328" data-name="Trazado 770328" d="M286.47,181.45a1.98,1.98,0,1,1-1.98-1.98A1.978,1.978,0,0,1,286.47,181.45Z" fill="#fff"/>
            <path id="Trazado_770329" data-name="Trazado 770329" d="M286.47,188.5a1.98,1.98,0,1,1-1.98-1.98A1.978,1.978,0,0,1,286.47,188.5Z" fill="#fff"/>
            <path id="Trazado_770330" data-name="Trazado 770330" d="M286.47,195.56a1.98,1.98,0,1,1-1.98-1.98A1.978,1.978,0,0,1,286.47,195.56Z" fill="#fff"/>
            <path id="Trazado_770331" data-name="Trazado 770331" d="M286.47,202.6a1.98,1.98,0,1,1-1.98-1.98A1.978,1.978,0,0,1,286.47,202.6Z" fill="#fff"/>
            <path id="Trazado_770332" data-name="Trazado 770332" d="M286.47,209.66a1.98,1.98,0,1,1-1.98-1.98A1.978,1.978,0,0,1,286.47,209.66Z" fill="#fff"/>
            <circle id="Elipse_7950" data-name="Elipse 7950" cx="1.98" cy="1.98" r="1.98" transform="translate(282.51 214.73)" fill="#fff"/>
          </g>
        </g>
        <g id="Grupo_1042538" data-name="Grupo 1042538">
          <path id="Trazado_770333" data-name="Trazado 770333" d="M286.72,209.39h-4.46l-21.01-40.4,2.28-.88c.55-.21,8.77-5.37,8.77-19.68v-2h24.41v2c0,14.24,8.85,19.62,8.99,19.68l2.28.88-21.24,40.4Z" fill="#f5d0a5"/>
          <path id="Trazado_770334" data-name="Trazado 770334" d="M284.2,76.18v-.02h-1.06v.02c-18.17.42-40.62,11.74-38.86,41.67,1.49,25.27,18.65,36.01,39.09,36.21h0a2.805,2.805,0,0,0,.29,0h.3c20.45-.21,37.6-10.95,39.09-36.22,1.77-29.93-20.68-41.25-38.86-41.67Z" fill="#492a1f"/>
          <path id="Trazado_770335" data-name="Trazado 770335" d="M314.25,121.94v-.6c0-16.79-11.97-28.08-29.78-28.08s-29.77,11.28-29.77,28.08v.61c-1.72,1.08-2.84,3.48-2.84,6.19,0,3.98,2.31,7.13,5.18,6.8,4.11,12.03,14.29,24.68,27.42,24.68s23.31-12.65,27.42-24.68c.12.01.24.02.36.02,2.71,0,4.84-3,4.84-6.82,0-2.72-1.13-5.12-2.85-6.2Z" fill="#ffe1b9"/>
          <path id="Trazado_770336" data-name="Trazado 770336" d="M314.25,121.94v-.6c0-16.53-11.59-27.71-28.94-28.06v66.31c12.72-.52,22.57-12.88,26.59-24.66.12.01.24.02.36.02,2.71,0,4.84-3,4.84-6.82,0-2.72-1.13-5.12-2.85-6.2Z" fill="#fed9ae"/>
          <g id="Grupo_1042535" data-name="Grupo 1042535">
            <path id="Trazado_770337" data-name="Trazado 770337" d="M282.57,84.78c.37,0,.72.03,1.09.04s.72-.04,1.09-.04Z" fill="#339ecc"/>
            <path id="Trazado_770338" data-name="Trazado 770338" d="M283.66,78.22c-28.9.86-29.96,45.3-29.96,45.3s39.06-7.53,42.36-26.22c10.61,6.86,14.28,16.62,13.74,30.11-.33,8.4,28.04-35.74-26.14-49.19Z" fill="#492a1f"/>
          </g>
          <g id="Grupo_1042536" data-name="Grupo 1042536">
            <path id="Trazado_770339" data-name="Trazado 770339" d="M334.82,179.26c-4.47-4.47-15.98-11.96-32.4-16.16,0,0-.07.12-.21.31a10.162,10.162,0,1,1-17.42,10.37,10.164,10.164,0,0,1-19.24-4.58,10.067,10.067,0,0,1,1.58-5.43c-.36-.42-.55-.68-.55-.68-16.42,4.2-27.93,11.7-32.4,16.16-8.07,8.08-5.21,28.86-5.21,41.04H340.03c0-12.18,2.87-32.96-5.21-41.04Z" fill="#69463a"/>
            <path id="Trazado_770340" data-name="Trazado 770340" d="M334.82,179.26c-4.47-4.47-15.98-11.96-32.4-16.16,0,0-.07.12-.21.31a10.162,10.162,0,1,1-17.42,10.37h0v46.51h55.24c0-12.18,2.87-32.96-5.21-41.04Z" fill="#523126"/>
            <path id="Trazado_770341" data-name="Trazado 770341" d="M302.21,162.58a22.063,22.063,0,0,1-14.13,8.73l-3.14-.02v-.01l-4.07-.02c-7.2-1.38-12.15-6.46-13.75-8.31a10.159,10.159,0,0,0,8.59,15.6h18.14a10.166,10.166,0,0,0,8.35-15.97Z" fill="#69463a"/>
            <path id="Trazado_770342" data-name="Trazado 770342" d="M303.03,164.19a22.032,22.032,0,0,1-14.13,8.73l-3.88-.02v-.01l-4.98-.02c-7.2-1.38-12.15-6.47-13.75-8.31-.99,1.57-2.4,3.43-2.4,5.43,0,5.62,5.38,10.17,11,10.17,3.94,0,8.19-2.25,9.9-5.52,1.7,3.27,5.96,5.52,9.89,5.52,5.62,0,11-4.55,11-10.17,0-2.16-1.5-4.15-2.64-5.8Z" fill="#fff"/>
            <path id="Trazado_770343" data-name="Trazado 770343" d="M302.21,162.58a22.063,22.063,0,0,1-14.13,8.73l-3.14-.02v-.01h-.15v7.26h9.07a10.166,10.166,0,0,0,8.35-15.97Z" fill="#523126"/>
            <path id="Trazado_770344" data-name="Trazado 770344" d="M303.03,164.19a22.032,22.032,0,0,1-14.13,8.73l-3.88-.02v-.01h-.24v1.74h0c1.7,3.27,5.96,5.52,9.89,5.52,5.62,0,11-4.55,11-10.17,0-2.16-1.5-4.15-2.64-5.8Z" fill="#e9e9e9"/>
          </g>
          <g id="Grupo_1042537" data-name="Grupo 1042537">
            <path id="Trazado_770345" data-name="Trazado 770345" d="M286.47,181.45a1.98,1.98,0,1,1-1.98-1.98A1.978,1.978,0,0,1,286.47,181.45Z" fill="#fff"/>
            <path id="Trazado_770346" data-name="Trazado 770346" d="M286.47,188.5a1.98,1.98,0,1,1-1.98-1.98A1.978,1.978,0,0,1,286.47,188.5Z" fill="#fff"/>
            <path id="Trazado_770347" data-name="Trazado 770347" d="M286.47,195.56a1.98,1.98,0,1,1-1.98-1.98A1.978,1.978,0,0,1,286.47,195.56Z" fill="#fff"/>
            <path id="Trazado_770348" data-name="Trazado 770348" d="M286.47,202.6a1.98,1.98,0,1,1-1.98-1.98A1.978,1.978,0,0,1,286.47,202.6Z" fill="#fff"/>
            <path id="Trazado_770349" data-name="Trazado 770349" d="M286.47,209.66a1.98,1.98,0,1,1-1.98-1.98A1.978,1.978,0,0,1,286.47,209.66Z" fill="#fff"/>
            <circle id="Elipse_7951" data-name="Elipse 7951" cx="1.98" cy="1.98" r="1.98" transform="translate(282.51 214.73)" fill="#fff"/>
          </g>
        </g>
      </g>
    </g>
    <g id="Grupo_1042543" data-name="Grupo 1042543">
      <path id="Trazado_770350" data-name="Trazado 770350" d="M490.33,170.34l7.32-25.69-23.38-8.77,24.89-.69,1.57-6.71c-15.54-16.24-2.33-48.78-2.33-48.78l-26.07.72c.35,12.74-12.33,14.86-17.42,15l3.39,122.1,44.86-1.25Z" fill="gray" opacity="0.5"/>
      <g id="Grupo_1042542" data-name="Grupo 1042542">
        <path id="Trazado_770351" data-name="Trazado 770351" d="M453.21,93.42c5.09-.14,17.77-2.26,17.42-15l26.07-.72s-13.21,32.54,2.33,48.78l-1.57,6.71-24.89.69,23.38,8.77-7.32,25.69,12.83,45.93-44.86,1.25-3.39-122.1Z" fill="#fff"/>
        <g id="Grupo_1042541" data-name="Grupo 1042541">
          <path id="Trazado_770352" data-name="Trazado 770352" d="M456.38,97.37a.378.378,0,0,0,.37-.38l-.02-1c.24-.01.59-.04,1.02-.09a.375.375,0,0,0,.33-.42.368.368,0,0,0-.42-.33,13.078,13.078,0,0,1-1.32.09.376.376,0,0,0-.38.38l.02,1.37a.371.371,0,0,0,.38.37h0Z" fill="#9f9f9f"/>
          <path id="Trazado_770353" data-name="Trazado 770353" d="M460.39,95.02a.381.381,0,0,1,.26-.47,17.053,17.053,0,0,0,2.24-.81.378.378,0,1,1,.31.69,18.437,18.437,0,0,1-2.33.84c-.03,0-.06.01-.1.01a.375.375,0,0,1-.37-.27Zm4.48-1.86a.374.374,0,0,1,.12-.52,14.883,14.883,0,0,0,1.91-1.4.376.376,0,1,1,.49.57,15.365,15.365,0,0,1-2,1.47.353.353,0,0,1-.19.06A.388.388,0,0,1,464.87,93.16Zm3.74-3.08a.379.379,0,0,1-.05-.53,15.693,15.693,0,0,0,1.38-1.93.386.386,0,0,1,.52-.13.377.377,0,0,1,.13.52,16.139,16.139,0,0,1-1.45,2.02.354.354,0,0,1-.28.13.384.384,0,0,1-.25-.09ZM471.22,86a.375.375,0,0,1-.2-.49,19.228,19.228,0,0,0,.79-2.25.374.374,0,0,1,.72.2,18.979,18.979,0,0,1-.82,2.34.369.369,0,0,1-.34.23A.27.27,0,0,1,471.22,86Z" fill="#9f9f9f"/>
          <path id="Trazado_770354" data-name="Trazado 770354" d="M472.56,82.15a.382.382,0,0,0,.36-.3c.07-.34.13-.7.19-1.06h1.05v-.01a.375.375,0,0,0-.01-.75l-1.37.02a.454.454,0,0,0-.37.32c-.07.46-.15.9-.23,1.33a.375.375,0,0,0,.29.44h.08Z" fill="#9f9f9f"/>
          <path id="Trazado_770355" data-name="Trazado 770355" d="M490.63,80.6l-1.99.02a.375.375,0,0,1-.01-.75h0l1.99-.02a.375.375,0,0,1,.01.75Zm-3.98.05-1.99.02a.375.375,0,0,1-.01-.75h0l1.99-.02a.375.375,0,0,1,.01.75Zm-3.98.05-1.99.02a.375.375,0,0,1-.01-.75h0l1.99-.02a.375.375,0,0,1,.01.75Zm-3.98.05-1.99.02a.375.375,0,0,1-.01-.75h0l1.99-.02a.375.375,0,0,1,.01.75Z" fill="#9f9f9f"/>
          <path id="Trazado_770356" data-name="Trazado 770356" d="M492.85,81.84a.376.376,0,0,0,.35-.25c.28-.81.46-1.26.46-1.27a.363.363,0,0,0-.04-.35.384.384,0,0,0-.31-.16l-1.36.02h0a.375.375,0,0,0,.01.75h.81c-.07.19-.17.45-.28.77a.379.379,0,0,0,.23.48.3.3,0,0,0,.13.02Z" fill="#9f9f9f"/>
          <path id="Trazado_770357" data-name="Trazado 770357" d="M493.76,123.57c-.38-.61-.75-1.24-1.08-1.87a.378.378,0,0,1,.67-.35c.33.61.68,1.23,1.06,1.82a.374.374,0,0,1-.12.52.353.353,0,0,1-.19.06.388.388,0,0,1-.33-.18Zm-2.03-3.81c-.29-.65-.56-1.32-.81-2a.373.373,0,0,1,.7-.26c.24.66.51,1.32.79,1.95a.385.385,0,0,1-.19.5.4.4,0,0,1-.15.03.374.374,0,0,1-.35-.22Zm-1.49-4.05c-.2-.69-.39-1.39-.55-2.08a.376.376,0,0,1,.28-.45.371.371,0,0,1,.45.28c.16.68.34,1.37.54,2.04a.375.375,0,0,1-.25.47.355.355,0,0,1-.1.02.375.375,0,0,1-.37-.27Zm-.98-4.19c-.12-.71-.23-1.42-.32-2.13a.378.378,0,1,1,.75-.09c.09.7.19,1.39.31,2.09a.376.376,0,0,1-.31.44h-.06a.386.386,0,0,1-.38-.31Zm-.53-4.27c-.05-.72-.09-1.43-.11-2.15a.385.385,0,0,1,.36-.39h0a.37.37,0,0,1,.38.36c.02.7.06,1.41.11,2.11a.366.366,0,0,1-.35.4h-.02a.374.374,0,0,1-.38-.35Zm.23-3.91a.371.371,0,0,1-.37-.38c0-.72.03-1.44.06-2.15a.378.378,0,0,1,.39-.36.372.372,0,0,1,.36.39c-.03.7-.05,1.41-.06,2.12a.376.376,0,0,1-.37.37h-.01Zm.17-4.26a.373.373,0,0,1-.34-.41c.06-.72.13-1.44.21-2.14a.378.378,0,1,1,.75.09c-.08.69-.15,1.4-.21,2.11a.4.4,0,0,1-.37.35h-.04Zm.47-4.24a.375.375,0,0,1-.32-.43c.11-.72.22-1.43.35-2.12a.377.377,0,1,1,.74.14c-.12.68-.24,1.38-.34,2.09a.374.374,0,0,1-.36.32h-.06Zm.73-4.21a.38.38,0,0,1-.29-.45c.15-.73.31-1.43.47-2.09a.381.381,0,0,1,.45-.28.376.376,0,0,1,.28.45c-.16.66-.32,1.35-.47,2.07a.382.382,0,0,1-.36.3h-.09Zm.97-4.16a.38.38,0,0,1-.27-.46c.2-.75.4-1.44.59-2.06a.376.376,0,1,1,.72.22c-.19.62-.38,1.3-.58,2.04a.364.364,0,0,1-.36.28.448.448,0,0,1-.11-.01Z" fill="#9f9f9f"/>
          <path id="Trazado_770358" data-name="Trazado 770358" d="M496.47,128.65a.374.374,0,0,0,.36-.3l.28-1.34a.337.337,0,0,0-.09-.32c-.3-.34-.59-.69-.87-1.04a.377.377,0,0,0-.59.47c.25.31.5.62.77.93l-.24,1.16a.375.375,0,0,0,.29.44h.08Z" fill="#9f9f9f"/>
          <path id="Trazado_770359" data-name="Trazado 770359" d="M494.48,131.71h0l1.37-.04a.382.382,0,0,0,.36-.3l.28-1.34a.373.373,0,0,0-.73-.15l-.22,1.05-1.07.03a.366.366,0,0,0-.36.39.378.378,0,0,0,.38.37Z" fill="#9f9f9f"/>
          <path id="Trazado_770360" data-name="Trazado 770360" d="M466.88,132.14a.385.385,0,0,1,.36-.39h.26a.37.37,0,0,1,.38.36.385.385,0,0,1-.36.39h-.26a.371.371,0,0,1-.38-.37Zm2.29-.07a.385.385,0,0,1,.36-.39l2.03-.06h0a.371.371,0,0,1,.38.37.385.385,0,0,1-.36.39l-2.03.06h0A.371.371,0,0,1,469.17,132.07Zm4.06-.12a.385.385,0,0,1,.36-.39l2.03-.06a.4.4,0,0,1,.39.37.385.385,0,0,1-.36.39l-2.03.06h0a.371.371,0,0,1-.38-.37Zm4.06-.12a.385.385,0,0,1,.36-.39l2.03-.06a.38.38,0,0,1,.03.76l-2.03.06h0a.371.371,0,0,1-.38-.37Zm4.06-.12a.385.385,0,0,1,.36-.39l2.03-.06h0a.371.371,0,0,1,.38.37.385.385,0,0,1-.36.39l-2.03.06h0A.371.371,0,0,1,481.35,131.71Zm4.06-.12a.385.385,0,0,1,.36-.39l2.03-.06a.408.408,0,0,1,.39.37.385.385,0,0,1-.36.39l-2.03.06h0a.371.371,0,0,1-.38-.37Zm4.06-.12a.385.385,0,0,1,.36-.39l2.03-.06h0a.371.371,0,0,1,.38.37.385.385,0,0,1-.36.39l-2.03.06h0A.371.371,0,0,1,489.47,131.47Z" fill="#9f9f9f"/>
          <path id="Trazado_770361" data-name="Trazado 770361" d="M465.87,133.08a.375.375,0,0,0,.29-.6.378.378,0,0,0,.17-.33.363.363,0,0,0-.38-.36h0l-1.37.04a.374.374,0,0,0-.36.31.37.37,0,0,0,.23.41l1.28.5a.752.752,0,0,0,.15.03Z" fill="#9f9f9f"/>
          <path id="Trazado_770362" data-name="Trazado 770362" d="M490.66,142.86l-.24-.09a.377.377,0,0,1,.28-.7l.24.09a.379.379,0,0,1-.13.73A.27.27,0,0,1,490.66,142.86Zm-2.1-.83-1.86-.73a.377.377,0,0,1,.28-.7l1.86.73a.379.379,0,0,1-.13.73A.27.27,0,0,1,488.56,142.03Zm-3.72-1.46-1.86-.73a.377.377,0,0,1,.28-.7l1.86.73a.379.379,0,0,1-.13.73A.27.27,0,0,1,484.84,140.57Zm-3.72-1.46-1.86-.73a.377.377,0,0,1,.28-.7l1.86.73a.379.379,0,0,1-.13.73A.27.27,0,0,1,481.12,139.11Zm-3.72-1.46-1.86-.73a.377.377,0,0,1,.28-.7l1.86.73a.379.379,0,0,1-.13.73A.27.27,0,0,1,477.4,137.65Zm-3.72-1.46-1.86-.73a.377.377,0,0,1,.28-.7l1.86.73a.379.379,0,0,1-.13.73A.27.27,0,0,1,473.68,136.19Zm-3.72-1.46L468.1,134a.377.377,0,0,1,.28-.7l1.86.73a.379.379,0,0,1-.13.73A.27.27,0,0,1,469.96,134.73Z" fill="#9f9f9f"/>
          <path id="Trazado_770363" data-name="Trazado 770363" d="M492.9,145.17a.363.363,0,0,0,.35-.27l.37-1.32a.371.371,0,0,0-.22-.45l-1.28-.5a.388.388,0,0,0-.49.21.38.38,0,0,0,.21.49l.96.38-.28.99a.366.366,0,0,0,.26.46.41.41,0,0,0,.11.01Z" fill="#9f9f9f"/>
          <path id="Trazado_770364" data-name="Trazado 770364" d="M497.44,209.57h0a.379.379,0,1,1,.48.24.426.426,0,0,1-.11.02.4.4,0,0,1-.37-.26Zm-.58-2.09-.57-2.07a.374.374,0,0,1,.72-.2l.57,2.07a.366.366,0,0,1-.26.46c-.03,0-.06.01-.09.01a.384.384,0,0,1-.37-.28Zm-1.15-4.14-.57-2.07a.374.374,0,0,1,.72-.2l.57,2.07a.366.366,0,0,1-.26.46c-.03,0-.06.01-.09.01a.384.384,0,0,1-.37-.28Zm-1.15-4.14-.57-2.07a.374.374,0,0,1,.72-.2l.57,2.07a.366.366,0,0,1-.26.46c-.03,0-.06.01-.09.01a.384.384,0,0,1-.37-.28Zm-1.15-4.14-.57-2.07a.374.374,0,0,1,.72-.2l.57,2.07a.366.366,0,0,1-.26.46c-.03,0-.06.01-.09.01a.384.384,0,0,1-.37-.28Zm-1.15-4.14-.57-2.07a.374.374,0,0,1,.72-.2l.57,2.07a.366.366,0,0,1-.26.46c-.03,0-.06.01-.09.01a.384.384,0,0,1-.37-.28Zm-1.15-4.14-.57-2.07a.374.374,0,0,1,.72-.2l.57,2.07a.366.366,0,0,1-.26.46c-.03,0-.06.01-.09.01a.384.384,0,0,1-.37-.28Zm-1.15-4.14-.57-2.07a.374.374,0,0,1,.72-.2l.57,2.07a.366.366,0,0,1-.26.46c-.03,0-.06.01-.09.01a.384.384,0,0,1-.37-.28Zm-1.15-4.14-.57-2.07a.374.374,0,0,1,.72-.2l.57,2.07a.366.366,0,0,1-.26.46c-.03,0-.06.01-.09.01a.384.384,0,0,1-.37-.28Zm-1.15-4.14-.57-2.07a.374.374,0,0,1,.72-.2l.57,2.07a.366.366,0,0,1-.26.46c-.03,0-.06.01-.09.01a.384.384,0,0,1-.37-.28Zm-1.15-4.14-.57-2.07a.374.374,0,0,1,.72-.2l.57,2.07a.366.366,0,0,1-.26.46c-.03,0-.06.01-.09.01a.384.384,0,0,1-.37-.28Zm.26-3.87a.371.371,0,0,1-.26-.46l.58-2.07a.375.375,0,0,1,.46-.26.371.371,0,0,1,.26.46l-.58,2.07a.372.372,0,0,1-.35.27.41.41,0,0,1-.11-.01Zm1.17-4.13a.371.371,0,0,1-.26-.46l.58-2.07a.375.375,0,0,1,.46-.26.371.371,0,0,1,.26.46l-.58,2.07a.372.372,0,0,1-.35.27.41.41,0,0,1-.11-.01Zm1.17-4.13a.371.371,0,0,1-.26-.46l.58-2.07a.375.375,0,0,1,.46-.26.371.371,0,0,1,.26.46l-.58,2.07a.372.372,0,0,1-.35.27.41.41,0,0,1-.11-.01Zm1.17-4.13a.371.371,0,0,1-.26-.46l.58-2.06a.375.375,0,0,1,.46-.26.371.371,0,0,1,.26.46l-.58,2.06a.372.372,0,0,1-.35.27.41.41,0,0,1-.11-.01Zm1.17-4.13a.371.371,0,0,1-.26-.46l.58-2.07a.375.375,0,0,1,.46-.26.371.371,0,0,1,.26.46l-.58,2.07a.372.372,0,0,1-.35.27.41.41,0,0,1-.11-.01Z" fill="#9f9f9f"/>
          <path id="Trazado_770365" data-name="Trazado 770365" d="M497.17,212.53h0l1.37-.06a.38.38,0,0,0,.29-.15.366.366,0,0,0,.06-.32l-.37-1.32a.374.374,0,0,0-.72.2l.24.87-.9.04a.366.366,0,0,0-.36.39.376.376,0,0,0,.38.36Z" fill="#9f9f9f"/>
          <path id="Trazado_770366" data-name="Trazado 770366" d="M460.94,213.69a.378.378,0,0,1,.36-.39l1.53-.07a.349.349,0,0,1,.39.36.378.378,0,0,1-.36.39l-1.53.07h0a.383.383,0,0,1-.38-.36Zm3.78-.16a.378.378,0,0,1,.36-.39l2.25-.1a.359.359,0,0,1,.39.36.378.378,0,0,1-.36.39l-2.25.1h0a.383.383,0,0,1-.38-.36Zm4.49-.19a.378.378,0,0,1,.36-.39l2.25-.1a.385.385,0,0,1,.39.36.378.378,0,0,1-.36.39l-2.25.1h0a.383.383,0,0,1-.38-.36Zm4.49-.19a.378.378,0,0,1,.36-.39l2.25-.1a.355.355,0,0,1,.39.36.378.378,0,0,1-.36.39l-2.25.1h0a.383.383,0,0,1-.38-.36Zm4.49-.19a.378.378,0,0,1,.36-.39l2.25-.1a.366.366,0,0,1,.39.36.378.378,0,0,1-.36.39l-2.25.1h0a.383.383,0,0,1-.38-.36Zm4.49-.19a.378.378,0,0,1,.36-.39l2.25-.1a.372.372,0,0,1,.39.36.378.378,0,0,1-.36.39l-2.25.1h0a.383.383,0,0,1-.38-.36Zm4.49-.19a.378.378,0,0,1,.36-.39l2.25-.1a.385.385,0,0,1,.39.36.378.378,0,0,1-.36.39l-2.25.1h0a.383.383,0,0,1-.38-.36Zm4.49-.19a.378.378,0,0,1,.36-.39l2.25-.1a.384.384,0,0,1,.39.36.378.378,0,0,1-.36.39l-2.25.1h0a.383.383,0,0,1-.38-.36Z" fill="#9f9f9f"/>
          <path id="Trazado_770367" data-name="Trazado 770367" d="M458.52,214.17h0l1.37-.06a.366.366,0,0,0,.36-.39.345.345,0,0,0-.39-.36l-.99.04-.02-.99a.378.378,0,0,0-.38-.37h0a.378.378,0,0,0-.37.38l.03,1.37a.357.357,0,0,0,.12.27.378.378,0,0,0,.27.1Z" fill="#9f9f9f"/>
          <path id="Trazado_770368" data-name="Trazado 770368" d="M458.45,210.12a.371.371,0,0,1-.38-.37l-.04-2.1a.371.371,0,0,1,.37-.38h0a.371.371,0,0,1,.38.37l.04,2.1a.371.371,0,0,1-.37.38Zm-.08-4.21a.371.371,0,0,1-.38-.37l-.04-2.1a.371.371,0,0,1,.37-.38h0a.371.371,0,0,1,.38.37l.04,2.1a.371.371,0,0,1-.37.38Zm-.08-4.2a.371.371,0,0,1-.38-.37l-.04-2.1a.371.371,0,0,1,.37-.38h0a.371.371,0,0,1,.38.37l.04,2.1a.371.371,0,0,1-.37.38Zm-.08-4.21a.371.371,0,0,1-.38-.37l-.04-2.1a.371.371,0,0,1,.37-.38h0a.371.371,0,0,1,.38.37l.04,2.1a.371.371,0,0,1-.37.38Zm-.08-4.2a.371.371,0,0,1-.38-.37l-.04-2.1a.371.371,0,0,1,.37-.38h0a.371.371,0,0,1,.38.37l.04,2.1a.371.371,0,0,1-.37.38Zm-.08-4.21a.371.371,0,0,1-.38-.37l-.04-2.1a.371.371,0,0,1,.37-.38h0a.371.371,0,0,1,.38.37l.04,2.1a.371.371,0,0,1-.37.38Zm-.08-4.21a.371.371,0,0,1-.38-.37l-.04-2.1a.371.371,0,0,1,.37-.38h0a.371.371,0,0,1,.38.37l.04,2.1a.371.371,0,0,1-.37.38Zm-.08-4.2a.371.371,0,0,1-.38-.37l-.04-2.1a.371.371,0,0,1,.37-.38h0a.371.371,0,0,1,.38.37l.04,2.1a.371.371,0,0,1-.37.38Zm-.08-4.21a.371.371,0,0,1-.38-.37l-.04-2.1a.371.371,0,0,1,.37-.38h0a.371.371,0,0,1,.38.37l.04,2.1a.371.371,0,0,1-.37.38Zm-.08-4.2a.371.371,0,0,1-.38-.37l-.04-2.1a.371.371,0,0,1,.37-.38h0a.371.371,0,0,1,.38.37l.04,2.1a.371.371,0,0,1-.37.38Zm-.08-4.21a.371.371,0,0,1-.38-.37l-.04-2.1a.371.371,0,0,1,.37-.38h0a.371.371,0,0,1,.38.37l.04,2.1a.371.371,0,0,1-.37.38Zm-.08-4.21a.371.371,0,0,1-.38-.37l-.04-2.1a.371.371,0,0,1,.37-.38h0a.371.371,0,0,1,.38.37l.04,2.1a.371.371,0,0,1-.37.38Zm-.08-4.2a.371.371,0,0,1-.38-.37l-.04-2.1a.371.371,0,0,1,.37-.38h0a.371.371,0,0,1,.38.37l.04,2.1a.371.371,0,0,1-.37.38Zm-.08-4.21a.371.371,0,0,1-.38-.37l-.04-2.1a.371.371,0,0,1,.37-.38h0a.371.371,0,0,1,.38.37l.04,2.1a.371.371,0,0,1-.37.38Zm-.08-4.21a.371.371,0,0,1-.38-.37l-.04-2.1a.371.371,0,0,1,.37-.38h0a.371.371,0,0,1,.38.37l.04,2.1a.371.371,0,0,1-.37.38Zm-.08-4.2a.371.371,0,0,1-.38-.37l-.04-2.1a.371.371,0,0,1,.37-.38h0a.371.371,0,0,1,.38.37l.04,2.1a.371.371,0,0,1-.37.38Zm-.08-4.21a.371.371,0,0,1-.38-.37l-.04-2.1a.371.371,0,0,1,.37-.38h0a.371.371,0,0,1,.38.37l.04,2.1a.371.371,0,0,1-.37.38Zm-.08-4.2a.371.371,0,0,1-.38-.37l-.04-2.1a.371.371,0,0,1,.37-.38h0a.371.371,0,0,1,.38.37l.04,2.1a.371.371,0,0,1-.37.38Zm-.08-4.21a.371.371,0,0,1-.38-.37l-.04-2.1a.371.371,0,0,1,.37-.38h0a.371.371,0,0,1,.38.37l.04,2.1a.371.371,0,0,1-.37.38Zm-.08-4.21a.371.371,0,0,1-.38-.37l-.04-2.1a.371.371,0,0,1,.37-.38h0a.371.371,0,0,1,.38.37l.04,2.1a.371.371,0,0,1-.37.38h0Zm-.08-4.2a.371.371,0,0,1-.38-.37l-.04-2.1a.371.371,0,0,1,.37-.38h0a.371.371,0,0,1,.38.37l.04,2.1a.371.371,0,0,1-.37.38Zm-.08-4.21a.371.371,0,0,1-.38-.37l-.04-2.1a.371.371,0,0,1,.37-.38h0a.371.371,0,0,1,.38.37l.04,2.1a.371.371,0,0,1-.37.38Zm-.08-4.2a.371.371,0,0,1-.38-.37l-.04-2.1a.371.371,0,0,1,.37-.38h0a.371.371,0,0,1,.38.37l.04,2.1a.371.371,0,0,1-.37.38Zm-.08-4.21a.371.371,0,0,1-.38-.37l-.04-2.1a.371.371,0,0,1,.37-.38h0a.371.371,0,0,1,.38.37l.04,2.1a.371.371,0,0,1-.37.38Zm-.08-4.21a.371.371,0,0,1-.38-.37l-.04-2.1a.371.371,0,0,1,.37-.38h0a.371.371,0,0,1,.38.37l.04,2.1a.371.371,0,0,1-.37.38Zm-.08-4.2a.371.371,0,0,1-.38-.37l-.04-2.1a.371.371,0,0,1,.37-.38h0a.371.371,0,0,1,.38.37l.04,2.1a.371.371,0,0,1-.37.38Zm-.08-4.21a.371.371,0,0,1-.38-.37l-.04-2.07a.371.371,0,0,1,.37-.38h0a.371.371,0,0,1,.38.37l.04,2.07a.371.371,0,0,1-.37.38Z" fill="#9f9f9f"/>
        </g>
      </g>
    </g>
    <g id="Grupo_1042545" data-name="Grupo 1042545">
      <path id="Trazado_770369" data-name="Trazado 770369" d="M466.81,170.91l-2.38-21.79-21.79,1.72,19.95-9.33-.9-5.56c-17.84-6.63-17.66-35.62-17.66-35.62l-20.89,9.77c4.41,9.4-5.19,15.46-9.26,17.37l28.57,60.89,28.19-12.94-3.83-4.51Z" fill="gray" opacity="0.5"/>
      <g id="Grupo_1042544" data-name="Grupo 1042544">
        <path id="Trazado_770370" data-name="Trazado 770370" d="M412.18,125.46l28.57,60.89,28.19-12.94-3.83-4.51-2.38-21.79-21.79,1.72,19.95-9.33-.9-5.56c-17.84-6.63-17.66-35.62-17.66-35.62l-20.89,9.77c4.41,9.4-5.19,15.46-9.26,17.37Z" fill="#c83347"/>
        <path id="Trazado_770371" data-name="Trazado 770371" d="M416.02,127.3a.318.318,0,0,0,.17-.42l-.34-.74c.19-.09.47-.24.8-.43a.31.31,0,0,0,.13-.43.319.319,0,0,0-.44-.1,10.708,10.708,0,0,1-1.04.54.351.351,0,0,0-.18.18.331.331,0,0,0,0,.24l.46,1.02a.32.32,0,0,0,.43.14h0Z" fill="#fff"/>
        <path id="Trazado_770372" data-name="Trazado 770372" d="M418.51,124.12a.3.3,0,0,1,.06-.44,16.045,16.045,0,0,0,1.55-1.4.341.341,0,0,1,.46-.03.3.3,0,0,1,0,.44,17.5,17.5,0,0,1-1.62,1.46.25.25,0,0,1-.07.04.352.352,0,0,1-.39-.07Zm3.03-2.98a.289.289,0,0,1-.07-.43,13.87,13.87,0,0,0,1.09-1.73.346.346,0,0,1,.44-.16.292.292,0,0,1,.14.41,13.43,13.43,0,0,1-1.15,1.81.3.3,0,0,1-.14.11.331.331,0,0,1-.32-.02Zm2.04-3.63a.287.287,0,0,1-.21-.38,13,13,0,0,0,.49-1.93.352.352,0,0,1,.38-.28.292.292,0,0,1,.27.34,13.028,13.028,0,0,1-.52,2.02.355.355,0,0,1-.18.2.36.36,0,0,1-.23.02Zm.8-3.97a.306.306,0,0,1-.32-.3,14.436,14.436,0,0,0-.09-1.96.338.338,0,0,1,.29-.36.3.3,0,0,1,.36.25,14.057,14.057,0,0,1,.09,2.04.314.314,0,0,1-.2.29.319.319,0,0,1-.14.03Z" fill="#fff"/>
        <path id="Trazado_770373" data-name="Trazado 770373" d="M424.21,110.2a.337.337,0,0,0,.2-.35c-.05-.28-.12-.57-.19-.86l.85-.38h0a.332.332,0,0,0,.18-.42.32.32,0,0,0-.43-.14l-1.11.5a.356.356,0,0,0-.19.37q.135.555.24,1.08a.3.3,0,0,0,.38.23.186.186,0,0,0,.07-.02Z" fill="#fff"/>
        <path id="Trazado_770374" data-name="Trazado 770374" d="M438.35,102.64l-1.6.72a.32.32,0,0,1-.43-.14.3.3,0,0,1,.18-.41h0l1.6-.72a.32.32,0,0,1,.43.14.3.3,0,0,1-.18.41Zm-3.21,1.44-1.6.72a.32.32,0,0,1-.43-.14.3.3,0,0,1,.18-.41h0l1.6-.72a.32.32,0,0,1,.43.14.3.3,0,0,1-.18.41Zm-3.21,1.44-1.6.72a.308.308,0,1,1-.25-.56l1.6-.72a.32.32,0,0,1,.43.14.3.3,0,0,1-.18.41h0Zm-3.21,1.44-1.6.72a.32.32,0,0,1-.43-.14.3.3,0,0,1,.18-.41h0l1.6-.72a.32.32,0,0,1,.43.14.3.3,0,0,1-.18.41Z" fill="#fff"/>
        <path id="Trazado_770375" data-name="Trazado 770375" d="M440.54,102.79a.336.336,0,0,0,.2-.31c-.03-.71-.03-1.11-.03-1.11a.275.275,0,0,0-.15-.25.339.339,0,0,0-.31-.01l-1.1.5h0a.332.332,0,0,0-.18.42.32.32,0,0,0,.43.14l.66-.3c0,.18.01.41.03.68a.3.3,0,0,0,.34.28.2.2,0,0,0,.11-.03Z" fill="#fff"/>
        <path id="Trazado_770376" data-name="Trazado 770376" d="M454.79,133.64c-.51-.32-1.01-.66-1.48-1.01a.3.3,0,0,1-.04-.44.332.332,0,0,1,.46-.06c.46.34.95.68,1.44.99a.287.287,0,0,1,.07.43.3.3,0,0,1-.14.11.333.333,0,0,1-.32-.02Zm-2.88-2.13c-.44-.38-.88-.79-1.3-1.21a.306.306,0,0,1,.02-.44.339.339,0,0,1,.46,0c.41.41.84.81,1.27,1.18a.3.3,0,0,1,0,.44.444.444,0,0,1-.11.08.357.357,0,0,1-.36-.04Zm-2.51-2.5c-.39-.44-.76-.9-1.12-1.36a.314.314,0,0,1,.08-.44.339.339,0,0,1,.46.05c.35.45.72.9,1.1,1.33a.309.309,0,0,1-.05.44.557.557,0,0,1-.08.05A.336.336,0,0,1,449.4,129.01Zm-2.15-2.79c-.33-.49-.65-.98-.95-1.48a.31.31,0,0,1,.13-.43.32.32,0,0,1,.45.1c.29.49.6.98.93,1.45a.3.3,0,0,1-.11.43c-.01,0-.03.02-.04.02a.324.324,0,0,1-.41-.1Zm-1.81-3c-.28-.52-.54-1.04-.79-1.56a.321.321,0,0,1,.17-.42h0a.316.316,0,0,1,.43.13c.25.52.5,1.03.78,1.54a.312.312,0,0,1-.15.42h-.02a.323.323,0,0,1-.42-.12Zm-1.08-3.01a.317.317,0,0,1-.42-.15c-.23-.54-.44-1.08-.65-1.63a.328.328,0,0,1,.2-.41.309.309,0,0,1,.42.17c.2.53.41,1.07.64,1.6a.324.324,0,0,1-.18.41h0Zm-1.24-3.24a.314.314,0,0,1-.41-.18c-.19-.56-.36-1.12-.52-1.67a.316.316,0,0,1,.23-.39.313.313,0,0,1,.4.2q.24.825.51,1.65a.322.322,0,0,1-.19.39.037.037,0,0,0-.03.01Zm-.99-3.34a.3.3,0,0,1-.39-.21c-.15-.58-.28-1.15-.4-1.7a.331.331,0,0,1,.25-.38.313.313,0,0,1,.39.22c.12.55.25,1.11.4,1.69a.33.33,0,0,1-.19.37c-.02,0-.03.01-.05.02Zm-.77-3.4a.3.3,0,0,1-.38-.23c-.11-.6-.21-1.18-.3-1.73a.338.338,0,0,1,.28-.37.3.3,0,0,1,.37.24c.09.55.18,1.12.29,1.71a.324.324,0,0,1-.2.35.185.185,0,0,1-.07.02Zm-.55-3.45a.3.3,0,0,1-.36-.25c-.08-.63-.14-1.22-.19-1.75a.323.323,0,0,1,.3-.35.3.3,0,0,1,.36.26c.05.53.11,1.11.19,1.73a.324.324,0,0,1-.2.33l-.09.03Z" fill="#fff"/>
        <path id="Trazado_770377" data-name="Trazado 770377" d="M458.62,136.48a.337.337,0,0,0,.2-.35l-.21-1.1a.3.3,0,0,0-.17-.21c-.35-.15-.7-.31-1.04-.47a.353.353,0,0,0-.45.14.294.294,0,0,0,.12.42c.3.15.61.29.92.42l.18.95a.3.3,0,0,0,.38.23.185.185,0,0,0,.07-.02Z" fill="#fff"/>
        <path id="Trazado_770378" data-name="Trazado 770378" d="M458,139.47h0l1.1-.52a.323.323,0,0,0,.19-.35l-.21-1.1a.3.3,0,0,0-.38-.23.34.34,0,0,0-.27.38l.16.86-.86.4a.321.321,0,0,0-.17.42.328.328,0,0,0,.43.14Z" fill="#fff"/>
        <path id="Trazado_770379" data-name="Trazado 770379" d="M435.77,149.55a.321.321,0,0,1,.17-.42l.21-.1h0a.311.311,0,0,1,.43.14.321.321,0,0,1-.17.42l-.21.1h0A.311.311,0,0,1,435.77,149.55Zm1.84-.86a.321.321,0,0,1,.17-.42l1.63-.76h0a.311.311,0,0,1,.43.14.321.321,0,0,1-.17.42l-1.63.76h0A.311.311,0,0,1,437.61,148.69Zm3.25-1.53a.321.321,0,0,1,.17-.42l1.63-.76h0a.311.311,0,0,1,.43.14.321.321,0,0,1-.17.42l-1.63.76h0A.311.311,0,0,1,440.86,147.16Zm3.25-1.53a.321.321,0,0,1,.17-.42l1.63-.76a.346.346,0,0,1,.43.14.321.321,0,0,1-.17.42l-1.63.76h0A.311.311,0,0,1,444.11,145.63Zm3.25-1.53a.321.321,0,0,1,.17-.42l1.63-.76h0a.311.311,0,0,1,.43.14.321.321,0,0,1-.17.42l-1.63.76h0A.311.311,0,0,1,447.36,144.1Zm3.25-1.53a.321.321,0,0,1,.17-.42l1.63-.76h0a.311.311,0,0,1,.43.14.321.321,0,0,1-.17.42l-1.63.76h0A.311.311,0,0,1,450.61,142.57Zm3.25-1.53a.321.321,0,0,1,.17-.42l1.63-.76a.338.338,0,0,1,.43.14.321.321,0,0,1-.17.42l-1.63.76h0A.311.311,0,0,1,453.86,141.04Z" fill="#fff"/>
        <path id="Trazado_770380" data-name="Trazado 770380" d="M435.26,150.62a.328.328,0,0,0,.2-.3.264.264,0,0,0-.16-.25.3.3,0,0,0,.03-.3.328.328,0,0,0-.43-.14h0l-1.1.52a.336.336,0,0,0-.19.36.306.306,0,0,0,.32.23l1.2-.08a.534.534,0,0,0,.13-.03Z" fill="#fff"/>
        <path id="Trazado_770381" data-name="Trazado 770381" d="M458.51,149.14h-.23a.276.276,0,0,1-.33-.27.347.347,0,0,1,.33-.33h.23a.276.276,0,0,1,.33.27.327.327,0,0,1-.2.3.277.277,0,0,1-.13.03Zm-1.97.13-1.74.11a.3.3,0,0,1-.33-.29.347.347,0,0,1,.33-.33l1.74-.11a.3.3,0,0,1,.33.29.327.327,0,0,1-.2.3.277.277,0,0,1-.13.03Zm-3.49.22-1.74.11a.3.3,0,0,1-.33-.29.347.347,0,0,1,.33-.33l1.74-.11a.3.3,0,0,1,.33.29.327.327,0,0,1-.2.3.277.277,0,0,1-.13.03Zm-3.49.22-1.74.11a.3.3,0,0,1-.33-.29.347.347,0,0,1,.33-.33l1.74-.11a.3.3,0,0,1,.33.29.327.327,0,0,1-.2.3.277.277,0,0,1-.13.03Zm-3.49.22-1.74.11a.3.3,0,0,1-.33-.29.347.347,0,0,1,.33-.33l1.74-.11a.3.3,0,0,1,.33.29.327.327,0,0,1-.2.3.277.277,0,0,1-.13.03Zm-3.49.22-1.74.11a.3.3,0,0,1-.33-.29.347.347,0,0,1,.33-.33l1.74-.11a.3.3,0,0,1,.33.29.327.327,0,0,1-.2.3.277.277,0,0,1-.13.03Zm-3.49.22-1.74.11a.3.3,0,0,1-.33-.29.347.347,0,0,1,.33-.33l1.74-.11a.3.3,0,0,1,.33.29.327.327,0,0,1-.2.3.277.277,0,0,1-.13.03Z" fill="#fff"/>
        <path id="Trazado_770382" data-name="Trazado 770382" d="M461.08,150.08a.338.338,0,0,0,.2-.33l-.12-1.12a.3.3,0,0,0-.33-.26l-1.2.08a.347.347,0,0,0-.33.33.3.3,0,0,0,.33.29l.9-.06.09.84a.312.312,0,0,0,.36.26.318.318,0,0,0,.09-.03Z" fill="#fff"/>
        <path id="Trazado_770383" data-name="Trazado 770383" d="M442.34,184.21a.321.321,0,0,1,.17-.42l1.69-.78a.309.309,0,1,1,.26.56l-1.69.78A.32.32,0,0,1,442.34,184.21Zm3.38-1.55a.321.321,0,0,1,.17-.42l1.69-.78a.309.309,0,1,1,.26.56l-1.69.78A.32.32,0,0,1,445.72,182.66Zm3.38-1.55a.321.321,0,0,1,.17-.42l1.69-.78a.309.309,0,1,1,.26.56l-1.69.78A.32.32,0,0,1,449.1,181.11Zm3.38-1.55a.321.321,0,0,1,.17-.42l1.69-.78a.309.309,0,1,1,.26.56l-1.69.78A.32.32,0,0,1,452.48,179.56Zm3.38-1.55a.321.321,0,0,1,.17-.42l1.69-.78a.309.309,0,1,1,.26.56l-1.69.78A.32.32,0,0,1,455.86,178.01Zm3.38-1.55a.321.321,0,0,1,.17-.42l1.69-.78a.309.309,0,1,1,.26.56l-1.69.78A.32.32,0,0,1,459.24,176.46Zm3.38-1.55a.321.321,0,0,1,.17-.42l1.69-.78a.309.309,0,1,1,.26.56l-1.69.78A.32.32,0,0,1,462.62,174.91Zm3.38-1.49-1.11-1.31a.309.309,0,0,1,.06-.44.328.328,0,0,1,.46.03l1.11,1.31a.309.309,0,0,1-.06.44.25.25,0,0,1-.07.04.335.335,0,0,1-.39-.08Zm-24.27,10.17a.32.32,0,0,1-.43-.14l-.71-1.56a.321.321,0,0,1,.17-.42h0a.32.32,0,0,1,.43.14l.71,1.56a.321.321,0,0,1-.17.42Zm22.05-12.8-.89-1.05a.721.721,0,0,1-.07-.15l-.04-.34a.338.338,0,0,1,.29-.36.3.3,0,0,1,.36.26l.03.25.84.99a.309.309,0,0,1-.06.44.25.25,0,0,1-.07.04.333.333,0,0,1-.39-.07Zm-23.47,9.68a.32.32,0,0,1-.43-.14l-.71-1.56a.321.321,0,0,1,.17-.42h0a.32.32,0,0,1,.43.14l.71,1.56a.321.321,0,0,1-.17.42Zm22.64-12.69a.3.3,0,0,1-.36-.26l-.19-1.71a.338.338,0,0,1,.29-.36.3.3,0,0,1,.36.26l.19,1.71a.324.324,0,0,1-.2.33Zm-24.07,9.57a.32.32,0,0,1-.43-.14l-.71-1.56a.321.321,0,0,1,.17-.42h0a.32.32,0,0,1,.43.14l.71,1.56a.321.321,0,0,1-.17.42Zm23.68-13a.3.3,0,0,1-.36-.26l-.19-1.71a.338.338,0,0,1,.29-.36.3.3,0,0,1,.36.26l.19,1.71a.324.324,0,0,1-.2.33Zm-25.11,9.89a.32.32,0,0,1-.43-.14l-.71-1.56a.321.321,0,0,1,.17-.42h0a.32.32,0,0,1,.43.14l.71,1.56a.321.321,0,0,1-.17.42Zm24.72-13.31a.3.3,0,0,1-.36-.26l-.19-1.71a.338.338,0,0,1,.29-.36.3.3,0,0,1,.36.26l.19,1.71a.324.324,0,0,1-.2.33Zm-26.15,10.2a.32.32,0,0,1-.43-.14l-.71-1.56a.321.321,0,0,1,.17-.42h0a.32.32,0,0,1,.43.14l.71,1.56a.321.321,0,0,1-.17.42Zm25.77-13.63a.3.3,0,0,1-.36-.26l-.19-1.71a.338.338,0,0,1,.29-.36.3.3,0,0,1,.36.26l.19,1.71a.324.324,0,0,1-.2.33ZM434.6,168.02a.32.32,0,0,1-.43-.14l-.71-1.56a.321.321,0,0,1,.17-.42h0a.32.32,0,0,1,.43.14l.71,1.56a.321.321,0,0,1-.17.42Zm26.81-13.94a.3.3,0,0,1-.36-.26l-.19-1.71a.338.338,0,0,1,.29-.36.3.3,0,0,1,.36.26l.19,1.71a.324.324,0,0,1-.2.33Zm-28.23,10.83a.32.32,0,0,1-.43-.14l-.71-1.56a.321.321,0,0,1,.17-.42h0a.32.32,0,0,1,.43.14l.71,1.56a.321.321,0,0,1-.17.42Zm-1.42-3.11a.32.32,0,0,1-.43-.14l-.71-1.56a.321.321,0,0,1,.17-.42h0a.32.32,0,0,1,.43.14l.71,1.56a.321.321,0,0,1-.17.42Zm-1.42-3.11a.32.32,0,0,1-.43-.14l-.71-1.56a.321.321,0,0,1,.17-.42h0a.32.32,0,0,1,.43.14l.71,1.56a.321.321,0,0,1-.17.42Zm-1.42-3.11a.32.32,0,0,1-.43-.14l-.71-1.56a.321.321,0,0,1,.17-.42h0a.32.32,0,0,1,.43.14l.71,1.56a.321.321,0,0,1-.17.42Zm-1.42-3.11a.32.32,0,0,1-.43-.14l-.71-1.56a.321.321,0,0,1,.17-.42h0a.32.32,0,0,1,.43.14l.71,1.56a.321.321,0,0,1-.17.42Zm-1.42-3.11a.32.32,0,0,1-.43-.14l-.71-1.56a.321.321,0,0,1,.17-.42h0a.32.32,0,0,1,.43.14l.71,1.56a.321.321,0,0,1-.17.42Zm-1.42-3.11a.32.32,0,0,1-.43-.14l-.71-1.56a.321.321,0,0,1,.17-.42h0a.32.32,0,0,1,.43.14l.71,1.56a.321.321,0,0,1-.17.42Zm-1.42-3.11a.32.32,0,0,1-.43-.14l-.71-1.56a.321.321,0,0,1,.17-.42h0a.32.32,0,0,1,.43.14l.71,1.56a.321.321,0,0,1-.17.42Zm-1.42-3.11a.32.32,0,0,1-.43-.14l-.71-1.56a.321.321,0,0,1,.17-.42h0a.32.32,0,0,1,.43.14l.71,1.56a.321.321,0,0,1-.17.42Zm-1.42-3.11a.32.32,0,0,1-.43-.14l-.71-1.56a.321.321,0,0,1,.17-.42h0a.32.32,0,0,1,.43.14l.71,1.56a.321.321,0,0,1-.17.42Zm-1.42-3.11a.32.32,0,0,1-.43-.14l-.71-1.56a.321.321,0,0,1,.17-.42h0a.32.32,0,0,1,.43.14l.71,1.56a.321.321,0,0,1-.17.42Zm-1.42-3.11a.32.32,0,0,1-.43-.14l-.71-1.56a.321.321,0,0,1,.17-.42h0a.32.32,0,0,1,.43.14l.71,1.56a.321.321,0,0,1-.17.42Z" fill="#fff"/>
      </g>
    </g>
    <g id="Grupo_1042563" data-name="Grupo 1042563">
      <path id="Trazado_770384" data-name="Trazado 770384" d="M238.04,214.16h-1.57l-3.73-24.61a4.069,4.069,0,0,0-4.23-3.08H214.63c-2.15,0-3.97,1.32-4.23,3.08l-3.73,24.61H205.1a1.342,1.342,0,0,0-1.34,1.35v2.53a1.349,1.349,0,0,0,1.34,1.35h32.96a1.342,1.342,0,0,0,1.34-1.35v-2.53a1.349,1.349,0,0,0-1.34-1.35Z" fill="gray" opacity="0.5"/>
      <g id="Grupo_1042562" data-name="Grupo 1042562">
        <g id="Grupo_1042546" data-name="Grupo 1042546">
          <path id="Trazado_770385" data-name="Trazado 770385" d="M234.77,212.16l-3.73-24.61a4.069,4.069,0,0,0-4.23-3.08h-6.94v27.68h14.91Z" fill="#8d8d8d"/>
          <path id="Trazado_770386" data-name="Trazado 770386" d="M219.86,184.48h-6.94c-2.15,0-3.97,1.32-4.23,3.08l-3.73,24.61h14.91V184.49Z" fill="#fff"/>
          <path id="Trazado_770387" data-name="Trazado 770387" d="M236.34,212.16H219.86v5.22h16.48a1.342,1.342,0,0,0,1.34-1.35V213.5a1.349,1.349,0,0,0-1.34-1.35Z" fill="#8d8d8d"/>
          <path id="Trazado_770388" data-name="Trazado 770388" d="M204.96,212.16h-1.57a1.342,1.342,0,0,0-1.34,1.35v2.53a1.349,1.349,0,0,0,1.34,1.35h16.48v-5.22H204.96Z" fill="#fff"/>
        </g>
        <g id="Grupo_1042547" data-name="Grupo 1042547">
          <ellipse id="Elipse_7952" data-name="Elipse 7952" cx="2.01" cy="2.02" rx="2.01" ry="2.02" transform="translate(212.25 188.26)" fill="#8d8d8d"/>
          <ellipse id="Elipse_7953" data-name="Elipse 7953" cx="2.01" cy="2.02" rx="2.01" ry="2.02" transform="translate(217.85 188.26)" fill="#8d8d8d"/>
          <ellipse id="Elipse_7954" data-name="Elipse 7954" cx="2.01" cy="2.02" rx="2.01" ry="2.02" transform="translate(223.46 188.26)" fill="#8d8d8d"/>
        </g>
        <g id="Grupo_1042548" data-name="Grupo 1042548">
          <path id="Trazado_770389" data-name="Trazado 770389" d="M213.44,198.62a2.01,2.01,0,1,1-2.01-2.02A2.012,2.012,0,0,1,213.44,198.62Z" fill="#8d8d8d"/>
          <path id="Trazado_770390" data-name="Trazado 770390" d="M219.07,198.62a2.01,2.01,0,1,1-2.01-2.02A2.012,2.012,0,0,1,219.07,198.62Z" fill="#8d8d8d"/>
          <path id="Trazado_770391" data-name="Trazado 770391" d="M224.69,198.62a2.01,2.01,0,1,1-2.01-2.02A2.012,2.012,0,0,1,224.69,198.62Z" fill="#8d8d8d"/>
          <path id="Trazado_770392" data-name="Trazado 770392" d="M230.32,198.62a2.01,2.01,0,1,1-2.01-2.02A2.012,2.012,0,0,1,230.32,198.62Z" fill="#8d8d8d"/>
        </g>
        <g id="Grupo_1042549" data-name="Grupo 1042549">
          <path id="Trazado_770393" data-name="Trazado 770393" d="M210.83,206.96a2.01,2.01,0,1,1-2.01-2.02A2.012,2.012,0,0,1,210.83,206.96Z" fill="#8d8d8d"/>
          <path id="Trazado_770394" data-name="Trazado 770394" d="M216.35,206.96a2.01,2.01,0,1,1-2.01-2.02A2.012,2.012,0,0,1,216.35,206.96Z" fill="#8d8d8d"/>
          <ellipse id="Elipse_7955" data-name="Elipse 7955" cx="2.01" cy="2.02" rx="2.01" ry="2.02" transform="translate(217.85 204.94)" fill="#8d8d8d"/>
          <path id="Trazado_770395" data-name="Trazado 770395" d="M227.4,206.96a2.01,2.01,0,1,1-2.01-2.02A2.012,2.012,0,0,1,227.4,206.96Z" fill="#8d8d8d"/>
          <ellipse id="Elipse_7956" data-name="Elipse 7956" cx="2.01" cy="2.02" rx="2.01" ry="2.02" transform="translate(228.91 204.94)" fill="#8d8d8d"/>
        </g>
        <g id="Grupo_1042550" data-name="Grupo 1042550">
          <path id="Trazado_770396" data-name="Trazado 770396" d="M221.43,206.96a1.566,1.566,0,0,0-1.57-1.57h0v3.14h0a1.573,1.573,0,0,0,1.57-1.57Z" fill="#8d8d8d"/>
          <path id="Trazado_770397" data-name="Trazado 770397" d="M218.3,206.96a1.566,1.566,0,0,0,1.57,1.57v-3.14a1.573,1.573,0,0,0-1.57,1.57Z" fill="#8d8d8d"/>
          <path id="Trazado_770398" data-name="Trazado 770398" d="M217.85,206.96a2.012,2.012,0,0,1,2.01-2.02v-.45a2.47,2.47,0,0,0,0,4.94v-.45A2.012,2.012,0,0,1,217.85,206.96Z" fill="#8d8d8d"/>
          <path id="Trazado_770399" data-name="Trazado 770399" d="M219.86,204.49h0v.45a2.02,2.02,0,0,1,0,4.04v.45h0a2.47,2.47,0,0,0,0-4.94Z" fill="#fff"/>
          <path id="Trazado_770400" data-name="Trazado 770400" d="M217.85,206.96a2.012,2.012,0,0,0,2.01,2.02v-.45a1.57,1.57,0,1,1,0-3.14v-.45A2.012,2.012,0,0,0,217.85,206.96Z" fill="#8d8d8d"/>
          <path id="Trazado_770401" data-name="Trazado 770401" d="M219.86,205.39a1.57,1.57,0,1,1,0,3.14h0v.45a2.02,2.02,0,0,0,0-4.04v.45Z" fill="#fff"/>
        </g>
        <g id="Grupo_1042551" data-name="Grupo 1042551">
          <path id="Trazado_770402" data-name="Trazado 770402" d="M226.85,206.96a1.566,1.566,0,0,0-1.57-1.57h0v3.14h0a1.579,1.579,0,0,0,1.57-1.57Z" fill="#8d8d8d"/>
          <path id="Trazado_770403" data-name="Trazado 770403" d="M223.71,206.96a1.566,1.566,0,0,0,1.57,1.57v-3.14a1.573,1.573,0,0,0-1.57,1.57Z" fill="#8d8d8d"/>
          <path id="Trazado_770404" data-name="Trazado 770404" d="M223.27,206.96a2.012,2.012,0,0,1,2.01-2.02v-.45a2.47,2.47,0,0,0,0,4.94v-.45A2.012,2.012,0,0,1,223.27,206.96Z" fill="#8d8d8d"/>
          <path id="Trazado_770405" data-name="Trazado 770405" d="M225.28,204.49h0v.45a2.02,2.02,0,0,1,0,4.04v.45h0a2.47,2.47,0,0,0,0-4.94Z" fill="#fff"/>
          <path id="Trazado_770406" data-name="Trazado 770406" d="M223.27,206.96a2.012,2.012,0,0,0,2.01,2.02v-.45a1.57,1.57,0,1,1,0-3.14v-.45A2.012,2.012,0,0,0,223.27,206.96Z" fill="#8d8d8d"/>
          <path id="Trazado_770407" data-name="Trazado 770407" d="M225.28,205.39a1.57,1.57,0,1,1,0,3.14h0v.45a2.02,2.02,0,0,0,0-4.04v.45Z" fill="#fff"/>
        </g>
        <g id="Grupo_1042552" data-name="Grupo 1042552">
          <path id="Trazado_770408" data-name="Trazado 770408" d="M232.38,206.96a1.566,1.566,0,0,0-1.57-1.57h0v3.14h0a1.579,1.579,0,0,0,1.57-1.57Z" fill="#8d8d8d"/>
          <path id="Trazado_770409" data-name="Trazado 770409" d="M229.24,206.96a1.566,1.566,0,0,0,1.57,1.57v-3.14a1.573,1.573,0,0,0-1.57,1.57Z" fill="#8d8d8d"/>
          <path id="Trazado_770410" data-name="Trazado 770410" d="M228.79,206.96a2.012,2.012,0,0,1,2.01-2.02v-.45a2.47,2.47,0,0,0,0,4.94v-.45A2.012,2.012,0,0,1,228.79,206.96Z" fill="#8d8d8d"/>
          <path id="Trazado_770411" data-name="Trazado 770411" d="M230.81,204.49h0v.45a2.02,2.02,0,0,1,0,4.04v.45h0a2.47,2.47,0,0,0,0-4.94Z" fill="#fff"/>
          <path id="Trazado_770412" data-name="Trazado 770412" d="M228.79,206.96a2.012,2.012,0,0,0,2.01,2.02v-.45a1.57,1.57,0,1,1,0-3.14v-.45A2.012,2.012,0,0,0,228.79,206.96Z" fill="#8d8d8d"/>
          <path id="Trazado_770413" data-name="Trazado 770413" d="M230.81,205.39a1.57,1.57,0,1,1,0,3.14h0v.45a2.02,2.02,0,0,0,0-4.04v.45Z" fill="#fff"/>
        </g>
        <g id="Grupo_1042553" data-name="Grupo 1042553">
          <path id="Trazado_770414" data-name="Trazado 770414" d="M215.9,206.96a1.566,1.566,0,0,0-1.57-1.57h0v3.14h0a1.579,1.579,0,0,0,1.57-1.57Z" fill="#8d8d8d"/>
          <path id="Trazado_770415" data-name="Trazado 770415" d="M212.77,206.96a1.566,1.566,0,0,0,1.57,1.57v-3.14a1.573,1.573,0,0,0-1.57,1.57Z" fill="#8d8d8d"/>
          <path id="Trazado_770416" data-name="Trazado 770416" d="M212.32,206.96a2.012,2.012,0,0,1,2.01-2.02v-.45a2.47,2.47,0,0,0,0,4.94v-.45A2.012,2.012,0,0,1,212.32,206.96Z" fill="#8d8d8d"/>
          <path id="Trazado_770417" data-name="Trazado 770417" d="M214.34,204.49h0v.45a2.02,2.02,0,0,1,0,4.04v.45h0a2.47,2.47,0,0,0,0-4.94Z" fill="#fff"/>
          <path id="Trazado_770418" data-name="Trazado 770418" d="M212.32,206.96a2.012,2.012,0,0,0,2.01,2.02v-.45a1.57,1.57,0,1,1,0-3.14v-.45A2.012,2.012,0,0,0,212.32,206.96Z" fill="#8d8d8d"/>
          <path id="Trazado_770419" data-name="Trazado 770419" d="M214.34,205.39a1.57,1.57,0,1,1,0,3.14h0v.45a2.02,2.02,0,0,0,0-4.04v.45Z" fill="#fff"/>
        </g>
        <g id="Grupo_1042554" data-name="Grupo 1042554">
          <path id="Trazado_770420" data-name="Trazado 770420" d="M210.38,206.96a1.566,1.566,0,0,0-1.57-1.57h0v3.14h0a1.579,1.579,0,0,0,1.57-1.57Z" fill="#8d8d8d"/>
          <path id="Trazado_770421" data-name="Trazado 770421" d="M207.25,206.96a1.566,1.566,0,0,0,1.57,1.57v-3.14a1.573,1.573,0,0,0-1.57,1.57Z" fill="#8d8d8d"/>
          <path id="Trazado_770422" data-name="Trazado 770422" d="M206.8,206.96a2.012,2.012,0,0,1,2.01-2.02v-.45a2.47,2.47,0,0,0,0,4.94v-.45A2.012,2.012,0,0,1,206.8,206.96Z" fill="#8d8d8d"/>
          <path id="Trazado_770423" data-name="Trazado 770423" d="M208.81,204.49h0v.45a2.02,2.02,0,0,1,0,4.04v.45h0a2.47,2.47,0,0,0,0-4.94Z" fill="#fff"/>
          <path id="Trazado_770424" data-name="Trazado 770424" d="M206.8,206.96a2.012,2.012,0,0,0,2.01,2.02v-.45a1.57,1.57,0,1,1,0-3.14v-.45A2.012,2.012,0,0,0,206.8,206.96Z" fill="#8d8d8d"/>
          <path id="Trazado_770425" data-name="Trazado 770425" d="M208.81,205.39a1.57,1.57,0,1,1,0,3.14h0v.45a2.02,2.02,0,0,0,0-4.04v.45Z" fill="#fff"/>
        </g>
        <g id="Grupo_1042555" data-name="Grupo 1042555">
          <path id="Trazado_770426" data-name="Trazado 770426" d="M212.99,198.62a1.566,1.566,0,0,0-1.57-1.57h0v3.14h0a1.573,1.573,0,0,0,1.57-1.57Z" fill="#8d8d8d"/>
          <path id="Trazado_770427" data-name="Trazado 770427" d="M209.86,198.62a1.566,1.566,0,0,0,1.57,1.57v-3.14a1.573,1.573,0,0,0-1.57,1.57Z" fill="#8d8d8d"/>
          <path id="Trazado_770428" data-name="Trazado 770428" d="M209.41,198.62a2.012,2.012,0,0,1,2.01-2.02v-.45a2.47,2.47,0,0,0,0,4.94v-.45A2.012,2.012,0,0,1,209.41,198.62Z" fill="#8d8d8d"/>
          <path id="Trazado_770429" data-name="Trazado 770429" d="M211.42,196.15h0v.45a2.02,2.02,0,0,1,0,4.04v.45h0a2.47,2.47,0,0,0,0-4.94Z" fill="#fff"/>
          <path id="Trazado_770430" data-name="Trazado 770430" d="M209.41,198.62a2.012,2.012,0,0,0,2.01,2.02v-.45a1.57,1.57,0,0,1,0-3.14v-.45A2.012,2.012,0,0,0,209.41,198.62Z" fill="#8d8d8d"/>
          <path id="Trazado_770431" data-name="Trazado 770431" d="M211.42,197.05a1.57,1.57,0,1,1,0,3.14h0v.45a2.02,2.02,0,0,0,0-4.04v.45Z" fill="#fff"/>
        </g>
        <g id="Grupo_1042556" data-name="Grupo 1042556">
          <path id="Trazado_770432" data-name="Trazado 770432" d="M218.62,198.62a1.566,1.566,0,0,0-1.57-1.57h0v3.14h0a1.573,1.573,0,0,0,1.57-1.57Z" fill="#8d8d8d"/>
          <path id="Trazado_770433" data-name="Trazado 770433" d="M215.48,198.62a1.566,1.566,0,0,0,1.57,1.57v-3.14a1.573,1.573,0,0,0-1.57,1.57Z" fill="#8d8d8d"/>
          <path id="Trazado_770434" data-name="Trazado 770434" d="M215.04,198.62a2.012,2.012,0,0,1,2.01-2.02v-.45a2.47,2.47,0,0,0,0,4.94v-.45A2.012,2.012,0,0,1,215.04,198.62Z" fill="#8d8d8d"/>
          <path id="Trazado_770435" data-name="Trazado 770435" d="M217.05,196.15h0v.45a2.02,2.02,0,0,1,0,4.04v.45h0a2.47,2.47,0,0,0,0-4.94Z" fill="#fff"/>
          <path id="Trazado_770436" data-name="Trazado 770436" d="M215.04,198.62a2.012,2.012,0,0,0,2.01,2.02v-.45a1.57,1.57,0,0,1,0-3.14v-.45A2.012,2.012,0,0,0,215.04,198.62Z" fill="#8d8d8d"/>
          <path id="Trazado_770437" data-name="Trazado 770437" d="M217.05,197.05a1.57,1.57,0,1,1,0,3.14h0v.45a2.02,2.02,0,0,0,0-4.04v.45Z" fill="#fff"/>
        </g>
        <g id="Grupo_1042557" data-name="Grupo 1042557">
          <path id="Trazado_770438" data-name="Trazado 770438" d="M224.24,198.62a1.566,1.566,0,0,0-1.57-1.57h0v3.14h0a1.573,1.573,0,0,0,1.57-1.57Z" fill="#8d8d8d"/>
          <path id="Trazado_770439" data-name="Trazado 770439" d="M221.11,198.62a1.566,1.566,0,0,0,1.57,1.57v-3.14a1.573,1.573,0,0,0-1.57,1.57Z" fill="#8d8d8d"/>
          <path id="Trazado_770440" data-name="Trazado 770440" d="M220.66,198.62a2.012,2.012,0,0,1,2.01-2.02v-.45a2.47,2.47,0,0,0,0,4.94v-.45A2.012,2.012,0,0,1,220.66,198.62Z" fill="#8d8d8d"/>
          <path id="Trazado_770441" data-name="Trazado 770441" d="M222.68,196.15h0v.45a2.02,2.02,0,0,1,0,4.04v.45h0a2.47,2.47,0,0,0,0-4.94Z" fill="#fff"/>
          <path id="Trazado_770442" data-name="Trazado 770442" d="M220.66,198.62a2.012,2.012,0,0,0,2.01,2.02v-.45a1.57,1.57,0,0,1,0-3.14v-.45A2.012,2.012,0,0,0,220.66,198.62Z" fill="#8d8d8d"/>
          <path id="Trazado_770443" data-name="Trazado 770443" d="M222.68,197.05a1.57,1.57,0,1,1,0,3.14h0v.45a2.02,2.02,0,0,0,0-4.04v.45Z" fill="#fff"/>
        </g>
        <g id="Grupo_1042558" data-name="Grupo 1042558">
          <path id="Trazado_770444" data-name="Trazado 770444" d="M229.87,198.62a1.566,1.566,0,0,0-1.57-1.57h0v3.14h0a1.573,1.573,0,0,0,1.57-1.57Z" fill="#8d8d8d"/>
          <path id="Trazado_770445" data-name="Trazado 770445" d="M226.74,198.62a1.566,1.566,0,0,0,1.57,1.57v-3.14a1.573,1.573,0,0,0-1.57,1.57Z" fill="#8d8d8d"/>
          <path id="Trazado_770446" data-name="Trazado 770446" d="M226.29,198.62a2.012,2.012,0,0,1,2.01-2.02v-.45a2.47,2.47,0,0,0,0,4.94v-.45A2.012,2.012,0,0,1,226.29,198.62Z" fill="#8d8d8d"/>
          <path id="Trazado_770447" data-name="Trazado 770447" d="M228.3,196.15h0v.45a2.02,2.02,0,0,1,0,4.04v.45h0a2.47,2.47,0,0,0,0-4.94Z" fill="#fff"/>
          <path id="Trazado_770448" data-name="Trazado 770448" d="M226.29,198.62a2.012,2.012,0,0,0,2.01,2.02v-.45a1.57,1.57,0,0,1,0-3.14v-.45A2.012,2.012,0,0,0,226.29,198.62Z" fill="#8d8d8d"/>
          <path id="Trazado_770449" data-name="Trazado 770449" d="M228.3,197.05a1.57,1.57,0,1,1,0,3.14h0v.45a2.02,2.02,0,0,0,0-4.04v.45Z" fill="#fff"/>
        </g>
        <g id="Grupo_1042559" data-name="Grupo 1042559">
          <path id="Trazado_770450" data-name="Trazado 770450" d="M221.43,190.28a1.566,1.566,0,0,0-1.57-1.57h0v3.14h0a1.573,1.573,0,0,0,1.57-1.57Z" fill="#8d8d8d"/>
          <path id="Trazado_770451" data-name="Trazado 770451" d="M218.3,190.28a1.566,1.566,0,0,0,1.57,1.57v-3.14a1.579,1.579,0,0,0-1.57,1.57Z" fill="#8d8d8d"/>
          <path id="Trazado_770452" data-name="Trazado 770452" d="M217.85,190.28a2.012,2.012,0,0,1,2.01-2.02v-.45a2.47,2.47,0,0,0,0,4.94v-.45A2.012,2.012,0,0,1,217.85,190.28Z" fill="#8d8d8d"/>
          <path id="Trazado_770453" data-name="Trazado 770453" d="M219.86,187.81h0v.45a2.02,2.02,0,0,1,0,4.04v.45h0a2.47,2.47,0,0,0,0-4.94Z" fill="#fff"/>
          <path id="Trazado_770454" data-name="Trazado 770454" d="M217.85,190.28a2.012,2.012,0,0,0,2.01,2.02v-.45a1.57,1.57,0,1,1,0-3.14v-.45A2.012,2.012,0,0,0,217.85,190.28Z" fill="#8d8d8d"/>
          <path id="Trazado_770455" data-name="Trazado 770455" d="M219.86,188.7a1.57,1.57,0,0,1,0,3.14h0v.45a2.02,2.02,0,0,0,0-4.04v.45Z" fill="#fff"/>
        </g>
        <g id="Grupo_1042560" data-name="Grupo 1042560">
          <path id="Trazado_770456" data-name="Trazado 770456" d="M215.42,190.28a1.566,1.566,0,0,0-1.57-1.57h0v3.14h0a1.573,1.573,0,0,0,1.57-1.57Z" fill="#8d8d8d"/>
          <path id="Trazado_770457" data-name="Trazado 770457" d="M212.28,190.28a1.566,1.566,0,0,0,1.57,1.57v-3.14a1.579,1.579,0,0,0-1.57,1.57Z" fill="#8d8d8d"/>
          <path id="Trazado_770458" data-name="Trazado 770458" d="M211.83,190.28a2.012,2.012,0,0,1,2.01-2.02v-.45a2.47,2.47,0,0,0,0,4.94v-.45A2.012,2.012,0,0,1,211.83,190.28Z" fill="#8d8d8d"/>
          <path id="Trazado_770459" data-name="Trazado 770459" d="M213.85,187.81h0v.45a2.02,2.02,0,0,1,0,4.04v.45h0a2.47,2.47,0,0,0,0-4.94Z" fill="#fff"/>
          <path id="Trazado_770460" data-name="Trazado 770460" d="M211.83,190.28a2.012,2.012,0,0,0,2.01,2.02v-.45a1.57,1.57,0,1,1,0-3.14v-.45A2.012,2.012,0,0,0,211.83,190.28Z" fill="#8d8d8d"/>
          <path id="Trazado_770461" data-name="Trazado 770461" d="M213.85,188.7a1.57,1.57,0,0,1,0,3.14h0v.45a2.02,2.02,0,0,0,0-4.04v.45Z" fill="#fff"/>
        </g>
        <g id="Grupo_1042561" data-name="Grupo 1042561">
          <path id="Trazado_770462" data-name="Trazado 770462" d="M227.04,190.28a1.566,1.566,0,0,0-1.57-1.57h0v3.14h0a1.573,1.573,0,0,0,1.57-1.57Z" fill="#8d8d8d"/>
          <path id="Trazado_770463" data-name="Trazado 770463" d="M223.9,190.28a1.566,1.566,0,0,0,1.57,1.57v-3.14a1.579,1.579,0,0,0-1.57,1.57Z" fill="#8d8d8d"/>
          <path id="Trazado_770464" data-name="Trazado 770464" d="M223.46,190.28a2.012,2.012,0,0,1,2.01-2.02v-.45a2.47,2.47,0,0,0,0,4.94v-.45A2.012,2.012,0,0,1,223.46,190.28Z" fill="#8d8d8d"/>
          <path id="Trazado_770465" data-name="Trazado 770465" d="M225.47,187.81h0v.45a2.02,2.02,0,0,1,0,4.04v.45h0a2.47,2.47,0,0,0,0-4.94Z" fill="#fff"/>
          <path id="Trazado_770466" data-name="Trazado 770466" d="M223.46,190.28a2.012,2.012,0,0,0,2.01,2.02v-.45a1.57,1.57,0,1,1,0-3.14v-.45A2.012,2.012,0,0,0,223.46,190.28Z" fill="#8d8d8d"/>
          <path id="Trazado_770467" data-name="Trazado 770467" d="M225.47,188.7a1.57,1.57,0,0,1,0,3.14h0v.45a2.02,2.02,0,0,0,0-4.04v.45Z" fill="#fff"/>
        </g>
      </g>
    </g>
    <g id="Grupo_1042565" data-name="Grupo 1042565">
      <path id="Trazado_770468" data-name="Trazado 770468" d="M364.92,159.4c-.41.65-.9,1.43-1.46,2.33s-1.17,1.94-1.83,3.07c-2.62,4.52-6.1,10.56-9.59,16.59-1.73,3.02-3.46,6.04-5.09,8.88s-3.13,5.49-4.42,7.76c-1.16,2.06-2.15,3.8-2.88,5.1a17.438,17.438,0,0,1-4.85-2.76c-5.64-4.55-4.54-9.67-1.16-15.96l-.54-.29c-3.53,6.55-4.66,11.9,1.31,16.72a18.323,18.323,0,0,0,4.93,2.82l-1.1,1.95-.04.08a1.84,1.84,0,1,0,3.27,1.66s.51-1,1.39-2.71a18.662,18.662,0,0,0,8.12-.32,10.728,10.728,0,0,0,.21,2.53,11.574,11.574,0,0,0,6.07,7.62l.29-.54a10.961,10.961,0,0,1-5.76-7.21,9.708,9.708,0,0,1-.19-2.58,15.833,15.833,0,0,0,3.74-1.71c2.68-1.67,3.62-4.04,3.37-5.65a1.91,1.91,0,0,0-1.32-1.66c-.64-.16-1.97-.07-3.78,2.32a12.469,12.469,0,0,0-2.59,6.24,18.036,18.036,0,0,1-7.88.4c.62-1.22,1.4-2.74,2.29-4.48,1.18-2.33,2.56-5.05,4.03-7.96s3.04-6.03,4.6-9.14c3.11-6.24,6.22-12.47,8.55-17.15.58-1.17,1.1-2.25,1.55-3.21s.82-1.81,1.14-2.51c.61-1.4.94-2.22.94-2.22s-.5.72-1.33,2ZM354.1,197.79c1.15-1.52,2.33-2.3,3.15-2.09a1.429,1.429,0,0,1,.22.08,1.414,1.414,0,0,1,.64,1.08c.22,1.41-.65,3.51-3.09,5.04a15.357,15.357,0,0,1-3.36,1.57,12.039,12.039,0,0,1,2.43-5.67Zm-12.4,7.08c-1.4,2.6-1.8,2.33-2.14,2.14-.28-.15-.61-.32.05-1.81l.65-1.22c.55.18,1.1.32,1.66.45-.08.15-.15.29-.23.43Zm.51-.99c-.56-.12-1.11-.27-1.66-.44l.5-.94h0c1.42-2.41,3.23-5.09,3.57-4.9C344.99,197.8,343.52,201.28,342.21,203.88Z" fill="gray" opacity="0.5"/>
      <g id="Grupo_1042564" data-name="Grupo 1042564">
        <path id="Trazado_770469" data-name="Trazado 770469" d="M343.73,197.58c1.18-2.33,2.56-5.05,4.03-7.96s3.04-6.03,4.6-9.14c3.11-6.24,6.22-12.47,8.55-17.15.58-1.17,1.1-2.25,1.55-3.21s.82-1.81,1.14-2.51c.61-1.4.94-2.22.94-2.22s-.5.72-1.33,2c-.41.65-.9,1.43-1.46,2.33s-1.17,1.94-1.83,3.07c-2.62,4.52-6.1,10.56-9.59,16.59-1.73,3.02-3.46,6.04-5.09,8.88s-3.13,5.49-4.42,7.76c-2.57,4.55-4.29,7.58-4.29,7.58l-.04.08a1.84,1.84,0,1,0,3.27,1.66s1.58-3.1,3.96-7.76Zm-5.86,7.43c-.34-.18-.79-.37.61-2.96s4.03-6.67,4.45-6.45-1.53,4.67-2.93,7.27-1.8,2.33-2.14,2.14Z" fill="#8d8d8d"/>
        <rect id="Rectngulo_355299" data-name="Rectngulo 355299" width="3.15" height="0.93" transform="matrix(0.474, -0.881, 0.881, 0.474, 337.05, 202.819)" fill="#8d8d8d"/>
        <path id="Trazado_770470" data-name="Trazado 770470" d="M343.73,197.58c1.18-2.33,2.56-5.05,4.03-7.96s3.04-6.03,4.6-9.14c3.11-6.24,6.22-12.47,8.55-17.15.58-1.17,1.1-2.25,1.55-3.21s.82-1.81,1.14-2.51c.61-1.4.94-2.22.94-2.22s-.5.72-1.33,2c-.41.65-.9,1.43-1.46,2.33s-1.17,1.94-1.83,3.07c-2.62,4.52-6.1,10.56-9.59,16.59-1.73,3.02-3.46,6.04-5.09,8.88s-3.13,5.49-4.42,7.76c-2.57,4.55-4.29,7.58-4.29,7.58l-.04.08a1.84,1.84,0,1,0,3.27,1.66s1.58-3.1,3.96-7.76Zm-5.86,7.43c-.34-.18-.79-.37.61-2.96s4.03-6.67,4.45-6.45-1.53,4.67-2.93,7.27-1.8,2.33-2.14,2.14Z" fill="#e4e4e4"/>
        <path id="Trazado_770471" data-name="Trazado 770471" d="M355.56,212.45a11.552,11.552,0,0,1-6.07-7.62,9.767,9.767,0,0,1-.21-2.53,18.951,18.951,0,0,1-16.57-3.47c-5.97-4.82-4.84-10.17-1.31-16.72l.54.29c-3.38,6.29-4.48,11.4,1.16,15.96a18.358,18.358,0,0,0,16.23,3.3,12.469,12.469,0,0,1,2.59-6.24c1.81-2.39,3.15-2.48,3.78-2.32a1.886,1.886,0,0,1,1.32,1.66c.25,1.61-.69,3.98-3.37,5.65a16.208,16.208,0,0,1-3.74,1.71,9.309,9.309,0,0,0,.19,2.58,10.961,10.961,0,0,0,5.76,7.21l-.29.54Zm.21-18.67a.584.584,0,0,0-.22-.08c-.82-.21-2,.57-3.15,2.09a11.94,11.94,0,0,0-2.43,5.67,15.357,15.357,0,0,0,3.36-1.57c2.44-1.52,3.31-3.63,3.09-5.04a1.414,1.414,0,0,0-.64-1.08Z" fill="#ff5e17"/>
        <path id="Trazado_770472" data-name="Trazado 770472" d="M340,202.87c-1.4,2.6-1.8,2.33-2.14,2.14l-.67,1.24a.07.07,0,0,0,.04.02,1.928,1.928,0,0,0,2.54-.94s1.58-3.1,3.96-7.76c1.18-2.33,2.56-5.05,4.03-7.96s3.04-6.03,4.6-9.14c3.11-6.24,6.22-12.47,8.55-17.15.58-1.17,1.1-2.25,1.55-3.21s.82-1.81,1.14-2.51c.61-1.4.94-2.22.94-2.22l-21.62,40.2c.42.23-1.53,4.67-2.93,7.27Z" fill="#fff"/>
      </g>
    </g>
    <g id="Grupo_1042568" data-name="Grupo 1042568">
      <g id="Grupo_1042566" data-name="Grupo 1042566" opacity="0.5">
        <path id="Trazado_770473" data-name="Trazado 770473" d="M432.2,215.29H421.99l-4.6,4.8h29.62l-3.83-4.8Z" fill="gray"/>
        <path id="Trazado_770474" data-name="Trazado 770474" d="M432.2,189.15h10.98l3.83-4.8H417.39l4.6,4.8Z" fill="gray"/>
        <path id="Trazado_770475" data-name="Trazado 770475" d="M432.2,190.04h-8.71c-.86,0-1.56.52-1.56,1.15v.92c0,.64.7,1.15,1.56,1.15h17.43c.86,0,1.56-.52,1.56-1.15v-.92c0-.64-.7-1.15-1.56-1.15h-8.71Z" fill="gray"/>
        <path id="Trazado_770476" data-name="Trazado 770476" d="M442.48,199.45c0-.64-.7-1.15-1.56-1.15H423.49c-.86,0-1.56.52-1.56,1.15v.92c0,.64.7,1.15,1.56,1.15h17.43c.86,0,1.56-.52,1.56-1.15Z" fill="gray"/>
        <path id="Trazado_770477" data-name="Trazado 770477" d="M442.48,203.58c0-.64-.7-1.15-1.56-1.15H423.49c-.86,0-1.56.52-1.56,1.15v.92c0,.64.7,1.15,1.56,1.15h17.43c.86,0,1.56-.52,1.56-1.15Z" fill="gray"/>
        <path id="Trazado_770478" data-name="Trazado 770478" d="M442.48,207.72c0-.64-.7-1.15-1.56-1.15H423.49c-.86,0-1.56.52-1.56,1.15v.92c0,.64.7,1.15,1.56,1.15h17.43c.86,0,1.56-.52,1.56-1.15Z" fill="gray"/>
        <path id="Trazado_770479" data-name="Trazado 770479" d="M440.92,210.7H423.49c-.86,0-1.56.52-1.56,1.15v.92c0,.64.7,1.15,1.56,1.15h17.43c.86,0,1.56-.52,1.56-1.15v-.92C442.48,211.21,441.78,210.7,440.92,210.7Z" fill="gray"/>
        <path id="Trazado_770480" data-name="Trazado 770480" d="M458.69,210.4l-3.94-1.21a3.36,3.36,0,0,1-1.74-1.59c-.29-.87.31-2.1.85-3.18a11.689,11.689,0,0,0,.69-1.58,5.8,5.8,0,0,0-.88-5.11,8.78,8.78,0,0,0-6.92-3.56H423.54c-.86,0-1.56.52-1.56,1.15v.92c0,.64.7,1.15,1.56,1.15h23.21a5.738,5.738,0,0,1,4.41,2.24,2.459,2.459,0,0,1,.44,2.22,9.6,9.6,0,0,1-.49,1.1c-.73,1.49-1.73,3.52-1.02,5.69a6.222,6.222,0,0,0,3.46,3.51l4.27,1.34a1.392,1.392,0,0,0,.44.07,1.561,1.561,0,0,0,1.49-1.15,1.625,1.625,0,0,0-1.05-2Z" fill="gray"/>
      </g>
      <g id="Grupo_1042567" data-name="Grupo 1042567">
        <path id="Trazado_770481" data-name="Trazado 770481" d="M415.69,218.09H430.5v-4.8H420.29Z" fill="#69463a"/>
        <path id="Trazado_770482" data-name="Trazado 770482" d="M445.31,218.09l-3.83-4.8H430.5v4.8Z" fill="#523126"/>
        <path id="Trazado_770483" data-name="Trazado 770483" d="M445.31,182.35H430.5v4.8h10.98Z" fill="#523126"/>
        <path id="Trazado_770484" data-name="Trazado 770484" d="M415.69,182.35l4.6,4.8H430.5v-4.8Z" fill="#69463a"/>
        <path id="Trazado_770485" data-name="Trazado 770485" d="M421.83,192.17c-.86,0-1.56.52-1.56,1.15v.92c0,.64.7,1.15,1.56,1.15h8.67v-3.22h-8.67Z" fill="#fff"/>
        <path id="Trazado_770486" data-name="Trazado 770486" d="M430.92,193.78a1.578,1.578,0,0,1,1.55-1.61H430.5v3.22h1.97A1.578,1.578,0,0,1,430.92,193.78Z" fill="#dedede"/>
        <path id="Trazado_770487" data-name="Trazado 770487" d="M421.79,188.04c-.86,0-1.56.52-1.56,1.15v.92c0,.64.7,1.15,1.56,1.15h8.71v-3.22h-8.71Z" fill="#fff"/>
        <path id="Trazado_770488" data-name="Trazado 770488" d="M440.78,190.11v-.92c0-.64-.7-1.15-1.56-1.15h-8.71v3.22h8.71c.86,0,1.56-.52,1.56-1.15Z" fill="#dedede"/>
        <path id="Trazado_770489" data-name="Trazado 770489" d="M439.22,199.52c.86,0,1.56-.52,1.56-1.15v-.92c0-.64-.7-1.15-1.56-1.15h-8.71v3.22h8.71Z" fill="#dedede"/>
        <path id="Trazado_770490" data-name="Trazado 770490" d="M420.23,197.45v.92c0,.64.7,1.15,1.56,1.15h8.71V196.3h-8.71c-.86,0-1.56.52-1.56,1.15Z" fill="#fff"/>
        <path id="Trazado_770491" data-name="Trazado 770491" d="M420.23,201.58v.92c0,.64.7,1.15,1.56,1.15h8.71v-3.22h-8.71c-.86,0-1.56.52-1.56,1.15Z" fill="#fff"/>
        <path id="Trazado_770492" data-name="Trazado 770492" d="M439.22,203.66c.86,0,1.56-.52,1.56-1.15v-.92c0-.64-.7-1.15-1.56-1.15h-8.71v3.22h8.71Z" fill="#dedede"/>
        <path id="Trazado_770493" data-name="Trazado 770493" d="M439.22,207.79c.86,0,1.56-.52,1.56-1.15v-.92c0-.64-.7-1.15-1.56-1.15h-8.71v3.22h8.71Z" fill="#dedede"/>
        <path id="Trazado_770494" data-name="Trazado 770494" d="M420.23,205.72v.92c0,.64.7,1.15,1.56,1.15h8.71v-3.22h-8.71c-.86,0-1.56.52-1.56,1.15Z" fill="#fff"/>
        <path id="Trazado_770495" data-name="Trazado 770495" d="M439.22,211.92c.86,0,1.56-.52,1.56-1.15v-.92c0-.64-.7-1.15-1.56-1.15h-8.71v3.22h8.71Z" fill="#dedede"/>
        <path id="Trazado_770496" data-name="Trazado 770496" d="M420.23,209.85v.92c0,.64.7,1.15,1.56,1.15h8.71V208.7h-8.71c-.86,0-1.56.52-1.56,1.15Z" fill="#fff"/>
        <path id="Trazado_770497" data-name="Trazado 770497" d="M456.99,208.4l-3.94-1.21a3.36,3.36,0,0,1-1.74-1.59c-.29-.87.31-2.1.85-3.18a11.689,11.689,0,0,0,.69-1.58,5.8,5.8,0,0,0-.88-5.11,8.78,8.78,0,0,0-6.92-3.56h-5.78c.86,0,1.56.52,1.56,1.15v.92c0,.64-.7,1.15-1.56,1.15h5.78a5.738,5.738,0,0,1,4.41,2.24,2.459,2.459,0,0,1,.44,2.22,9.6,9.6,0,0,1-.49,1.1c-.73,1.49-1.73,3.52-1.02,5.69a6.222,6.222,0,0,0,3.46,3.51l4.27,1.34a1.392,1.392,0,0,0,.44.07,1.561,1.561,0,0,0,1.49-1.15,1.625,1.625,0,0,0-1.05-2Z" fill="#dedede"/>
        <path id="Trazado_770498" data-name="Trazado 770498" d="M440.82,194.24v-.92c0-.64-.7-1.15-1.56-1.15h-6.79a1.611,1.611,0,0,0,0,3.22h6.79c.86,0,1.56-.52,1.56-1.15Z" fill="#dedede"/>
      </g>
    </g>
    <g id="Grupo_1042571" data-name="Grupo 1042571">
      <path id="Trazado_770499" data-name="Trazado 770499" d="M440.86,158.02l-.08.05a.442.442,0,0,0-.69-.37l-29.86,20.94,11.55-34.4-1.4-.58h0l-.77-.32L398.6,185.72l.04.14c-4.38,1.34-13.3,4.25-15.55,6.45q-.18-.27-.39-.54a6.954,6.954,0,0,0-2.71-2.02c-2.74-1.14-6.23-.63-9.34,1.36a8.906,8.906,0,0,0-4.17,5.89,6.578,6.578,0,0,0,1.42,5.25,6.064,6.064,0,0,0,2.39,1.81c2.42,1.01,5.54.36,9.03-1.87a14.055,14.055,0,0,0,2.27-1.8l1.72.63a.99.99,0,0,0,1.65-.76c-.14-1.18-1.74-2.29-.82-3.83,2.07-3.44,6.43-4.39,6.43-4.39,4.04-2.09,9.17.16,9.74.04,1.06.72-.09,5.37-1.55,5.8-5.93,1.78-15.9,17.21-13.67,19.49s5.21,4.82,10.03,3.49,8.02-12.06,8.85-14.59-2.07-5.99-1.74-7.19,1.58-2.08,2.35-4.44a32.152,32.152,0,0,0,.95-4.43l.97-.48s24.24-22.64,34.94-31.18c.36-.29-.23-.82-.59-.53ZM371.4,201.37a3.239,3.239,0,0,1-1.25-.96,3.648,3.648,0,0,1-.8-2.95,6.667,6.667,0,0,1,2.87-3.9c2.33-1.79,4.95-2.62,6.67-1.13.51.45,1.15.65,1.57,1.17a2.625,2.625,0,0,1,.66,2.14c-.21,1.3-1.43,2.76-3.35,3.99-2.62,1.67-4.87,2.26-6.36,1.64Zm22.76,16.14s-2.13,1.39-3.87.16c-2.06-1.47-2.59-4.64,1.95-10.77s7.09-5.26,7.09-5.26c1.93,1.24,3.54,8-5.18,15.87Z" fill="gray" opacity="0.5"/>
      <g id="Grupo_1042570" data-name="Grupo 1042570">
        <path id="Trazado_770500" data-name="Trazado 770500" d="M383.4,215.37c2.22,2.28,5.21,4.82,10.03,3.49s8.02-12.06,8.85-14.59-2.07-5.99-1.74-7.19,1.58-2.08,2.35-4.44a43.222,43.222,0,0,0,1.24-6.57s-6.57,3.29-5.51,4-.09,5.37-1.55,5.8c-5.93,1.78-15.9,17.21-13.67,19.49Zm14.24-15.72c1.93,1.24,3.54,8-5.18,15.87,0,0-2.13,1.39-3.87.16-2.06-1.47-2.59-4.64,1.95-10.77s7.09-5.26,7.09-5.26Z" fill="#96081b"/>
        <g id="Grupo_1042569" data-name="Grupo 1042569">
          <path id="Trazado_770501" data-name="Trazado 770501" d="M388.88,190.03s-4.36.96-6.43,4.39c-.93,1.54.67,2.65.82,3.83a.99.99,0,0,1-1.65.76l-4.73-1.72s5.12-2.99,4.04-5.82,18.48-8.35,18.48-8.35-.2,6.83-.77,6.94-5.7-2.13-9.74-.04Z" fill="#ab162a"/>
          <path id="Trazado_770502" data-name="Trazado 770502" d="M378.3,187.75a6.954,6.954,0,0,1,2.71,2.02,5.536,5.536,0,0,1,1.27,4.44c-.34,2.15-2,4.28-4.66,5.98-3.49,2.23-6.61,2.88-9.03,1.87a6.065,6.065,0,0,1-2.39-1.81,6.578,6.578,0,0,1-1.42-5.25,8.862,8.862,0,0,1,4.17-5.89c3.11-1.99,6.6-2.5,9.34-1.36Zm-8.59,11.62c1.48.62,3.74.04,6.36-1.64,1.92-1.23,3.14-2.68,3.35-3.99a2.634,2.634,0,0,0-.66-2.14c-.42-.52-1.06-.72-1.57-1.17-1.71-1.5-4.33-.67-6.67,1.13a6.709,6.709,0,0,0-2.87,3.9,3.685,3.685,0,0,0,.8,2.95,3.146,3.146,0,0,0,1.25.96Z" fill="#ab162a"/>
        </g>
        <path id="Trazado_770503" data-name="Trazado 770503" d="M404.82,187.74s24.24-22.64,34.94-31.18c.36-.29-.23-.82-.59-.53l-40.18,28.18.41,6.19,5.43-2.65Z" fill="#aaa"/>
        <path id="Trazado_770504" data-name="Trazado 770504" d="M404.05,187.42s24.24-22.64,34.94-31.19c.36-.29-.23-.82-.59-.53l-40.18,28.18.41,6.19,5.43-2.65Z" fill="#ddd"/>
        <path id="Trazado_770505" data-name="Trazado 770505" d="M399.39,190.39l5.43-2.65,15.26-45.5-1.39-.58-20.07,48.41Z" fill="#aaa"/>
        <path id="Trazado_770506" data-name="Trazado 770506" d="M398.62,190.07l5.43-2.65,15.27-45.5-1.4-.58-21.01,42.38Z" fill="#fff"/>
        <path id="Trazado_770507" data-name="Trazado 770507" d="M399.25,185.22a1.267,1.267,0,1,1,.67,1.69A1.286,1.286,0,0,1,399.25,185.22Z" fill="#ab162a"/>
      </g>
    </g>
    <g id="Grupo_1042580" data-name="Grupo 1042580">
      <g id="Grupo_1042575" data-name="Grupo 1042575">
        <rect id="Rectngulo_355300" data-name="Rectngulo 355300" width="41.28" height="44.02" transform="translate(97.458 127.085) rotate(-81.71)" fill="gray" opacity="0.5"/>
        <g id="Grupo_1042574" data-name="Grupo 1042574">
          <rect id="Rectngulo_355301" data-name="Rectngulo 355301" width="44.02" height="41.28" transform="translate(101.718 84.242) rotate(8.29)" fill="#fff"/>
          <g id="Grupo_1042573" data-name="Grupo 1042573">
            <rect id="Rectngulo_355302" data-name="Rectngulo 355302" width="37.51" height="40.37" transform="translate(97.846 123.492) rotate(-81.71)" fill="#fff"/>
            <g id="Grupo_1042572" data-name="Grupo 1042572">
              <path id="Trazado_770508" data-name="Trazado 770508" d="M137.79,129.61h-.04l-.74-.11a.3.3,0,1,1,.09-.59l.45.06.06-.45a.3.3,0,0,1,.59.09l-.11.74a.3.3,0,0,1-.3.26Z" fill="#9f9f9f"/>
              <path id="Trazado_770509" data-name="Trazado 770509" d="M135.51,129.28h-.04l-1.54-.22a.3.3,0,0,1-.25-.34.3.3,0,0,1,.34-.25l1.54.22a.3.3,0,0,1,.25.34.3.3,0,0,1-.3.26Zm-3.08-.45h-.04l-1.54-.22a.3.3,0,0,1,.09-.59l1.54.22a.3.3,0,0,1,.25.34.3.3,0,0,1-.3.26Zm-3.08-.45h-.04l-1.54-.22a.3.3,0,0,1-.25-.34.309.309,0,0,1,.34-.25l1.54.22a.3.3,0,0,1,.25.34.3.3,0,0,1-.3.26Zm-3.08-.45h-.04l-1.54-.22a.3.3,0,1,1,.09-.59l1.54.22a.3.3,0,0,1,.25.34.3.3,0,0,1-.3.26Zm-3.08-.45h-.04l-1.54-.22a.3.3,0,0,1-.25-.34.3.3,0,0,1,.34-.25l1.54.22a.3.3,0,0,1,.25.34.3.3,0,0,1-.3.26Zm-3.08-.45h-.04l-1.54-.22a.3.3,0,1,1,.09-.59l1.54.22a.3.3,0,0,1,.25.34.3.3,0,0,1-.3.26Zm-3.08-.45h-.04l-1.54-.22a.3.3,0,1,1,.09-.59l1.54.22a.3.3,0,0,1,.25.34.3.3,0,0,1-.3.26Zm-3.08-.45h-.04l-1.54-.22a.3.3,0,0,1-.25-.34.3.3,0,0,1,.34-.25l1.54.22a.3.3,0,0,1,.25.34.3.3,0,0,1-.3.26Zm-3.08-.45h-.04l-1.54-.22a.3.3,0,1,1,.09-.59l1.54.22a.3.3,0,0,1,.25.34.3.3,0,0,1-.3.26Zm-3.08-.45h-.04l-1.54-.22a.3.3,0,0,1-.25-.34.3.3,0,0,1,.34-.25l1.54.22a.3.3,0,0,1,.25.34.3.3,0,0,1-.3.26Zm-3.08-.45h-.04l-1.54-.22a.3.3,0,1,1,.09-.59l1.54.22a.3.3,0,0,1,.25.34.3.3,0,0,1-.3.26Zm-3.08-.45h-.04l-1.54-.22a.3.3,0,0,1,.09-.59l1.54.22a.3.3,0,0,1,.25.34.3.3,0,0,1-.3.26Z" fill="#9f9f9f"/>
              <path id="Trazado_770510" data-name="Trazado 770510" d="M98.58,123.9h-.04l-.74-.11a.3.3,0,0,1-.25-.34l.11-.74a.3.3,0,1,1,.59.09l-.07.45.45.06a.3.3,0,0,1,.25.34.3.3,0,0,1-.3.26Z" fill="#9f9f9f"/>
              <path id="Trazado_770511" data-name="Trazado 770511" d="M98.16,121.62h-.04a.3.3,0,0,1-.25-.34l.21-1.43a.3.3,0,1,1,.59.09l-.21,1.43a.3.3,0,0,1-.3.26Zm.42-2.85h-.04a.3.3,0,0,1-.25-.34L98.5,117a.3.3,0,1,1,.59.09l-.21,1.43a.3.3,0,0,1-.3.26Zm.42-2.85h-.04a.3.3,0,0,1-.25-.34l.21-1.43a.3.3,0,1,1,.59.09l-.21,1.43a.3.3,0,0,1-.3.26Zm.42-2.85h-.04a.3.3,0,0,1-.25-.34l.21-1.43a.291.291,0,0,1,.34-.25.3.3,0,0,1,.25.34l-.21,1.43a.3.3,0,0,1-.3.26Zm.42-2.85H99.8a.3.3,0,0,1-.25-.34l.21-1.43a.3.3,0,1,1,.59.09l-.21,1.43a.3.3,0,0,1-.3.26Zm.42-2.85h-.04a.3.3,0,0,1-.25-.34l.21-1.43a.3.3,0,1,1,.59.09l-.21,1.43a.3.3,0,0,1-.3.26Zm.42-2.85h-.04a.3.3,0,0,1-.25-.34l.21-1.43a.3.3,0,1,1,.59.09l-.21,1.43a.3.3,0,0,1-.3.26Zm.41-2.85h-.04a.3.3,0,0,1-.25-.34l.21-1.43a.3.3,0,0,1,.59.09l-.21,1.43a.3.3,0,0,1-.3.26Zm.42-2.85h-.04a.3.3,0,0,1-.25-.34l.21-1.43a.3.3,0,0,1,.59.09l-.21,1.43a.3.3,0,0,1-.3.26Zm.42-2.85h-.04a.3.3,0,0,1-.25-.34l.21-1.43a.291.291,0,0,1,.34-.25.3.3,0,0,1,.25.34l-.21,1.43a.3.3,0,0,1-.3.26Zm.41-2.85h-.04a.3.3,0,0,1-.25-.34l.21-1.43a.3.3,0,0,1,.59.09l-.21,1.43a.3.3,0,0,1-.3.26Zm.42-2.85h-.04a.3.3,0,0,1-.25-.34l.21-1.43a.3.3,0,0,1,.59.09l-.21,1.43a.3.3,0,0,1-.3.26Z" fill="#9f9f9f"/>
              <path id="Trazado_770512" data-name="Trazado 770512" d="M103.14,87.41h-.04a.3.3,0,0,1-.25-.34l.11-.74a.3.3,0,0,1,.34-.25l.74.11a.3.3,0,1,1-.09.59l-.45-.06-.06.44a.3.3,0,0,1-.3.26Z" fill="#9f9f9f"/>
              <path id="Trazado_770513" data-name="Trazado 770513" d="M140.91,92.16h-.04l-1.54-.22a.3.3,0,0,1,.09-.59l1.54.22a.3.3,0,0,1,.25.34.3.3,0,0,1-.3.26Zm-3.08-.45h-.04l-1.54-.22a.3.3,0,0,1,.09-.59l1.54.22a.3.3,0,0,1,.25.34.3.3,0,0,1-.3.26Zm-3.08-.45h-.04l-1.54-.22a.3.3,0,0,1,.09-.59l1.54.22a.3.3,0,0,1,.25.34.3.3,0,0,1-.3.26Zm-3.08-.45h-.04l-1.54-.22a.3.3,0,0,1-.25-.34.3.3,0,0,1,.34-.25l1.54.22a.3.3,0,0,1,.25.34.3.3,0,0,1-.3.26Zm-3.08-.45h-.04l-1.54-.22a.3.3,0,0,1,.09-.59l1.54.22a.3.3,0,0,1,.25.34.3.3,0,0,1-.3.26Zm-3.08-.45h-.04l-1.54-.22a.3.3,0,0,1-.25-.34.3.3,0,0,1,.34-.25l1.54.22a.3.3,0,0,1,.25.34.3.3,0,0,1-.3.26Zm-3.08-.45h-.04l-1.54-.22a.3.3,0,0,1,.09-.59l1.54.22a.3.3,0,0,1,.25.34.3.3,0,0,1-.3.26Zm-3.08-.45h-.04l-1.54-.22a.3.3,0,0,1-.25-.34.309.309,0,0,1,.34-.25l1.54.22a.3.3,0,0,1,.25.34.3.3,0,0,1-.3.26Zm-3.08-.45h-.04l-1.54-.22a.3.3,0,0,1,.09-.59l1.54.22a.3.3,0,0,1,.25.34.3.3,0,0,1-.3.26Zm-3.08-.45h-.04l-1.54-.22a.3.3,0,0,1-.25-.34.3.3,0,0,1,.34-.25l1.54.22a.3.3,0,0,1,.25.34.3.3,0,0,1-.3.26Zm-3.08-.45h-.04l-1.54-.22a.3.3,0,0,1,.09-.59l1.54.22a.3.3,0,0,1,.25.34.3.3,0,0,1-.3.26Zm-3.08-.45h-.04l-1.54-.22a.3.3,0,0,1-.25-.34.291.291,0,0,1,.34-.25l1.54.22a.3.3,0,0,1,.25.34.3.3,0,0,1-.3.26Z" fill="#9f9f9f"/>
              <path id="Trazado_770514" data-name="Trazado 770514" d="M143.09,93.23h-.04a.3.3,0,0,1-.25-.34l.06-.45-.45-.06a.3.3,0,0,1,.09-.59l.74.11a.3.3,0,0,1,.25.34l-.11.74a.3.3,0,0,1-.3.26Z" fill="#9f9f9f"/>
              <path id="Trazado_770515" data-name="Trazado 770515" d="M138.1,127.44h-.04a.3.3,0,0,1-.25-.34l.21-1.43a.291.291,0,0,1,.34-.25.3.3,0,0,1,.25.34l-.21,1.43a.3.3,0,0,1-.3.26Zm.42-2.85h-.04a.3.3,0,0,1-.25-.34l.21-1.43a.3.3,0,1,1,.59.09l-.21,1.43a.3.3,0,0,1-.3.26Zm.42-2.85h-.04a.3.3,0,0,1-.25-.34l.21-1.43a.3.3,0,1,1,.59.09l-.21,1.43a.3.3,0,0,1-.3.26Zm.42-2.85h-.04a.3.3,0,0,1-.25-.34l.21-1.43a.291.291,0,0,1,.34-.25.3.3,0,0,1,.25.34l-.21,1.43a.3.3,0,0,1-.3.26Zm.42-2.85h-.04a.3.3,0,0,1-.25-.34l.21-1.43a.3.3,0,1,1,.59.09l-.21,1.43a.3.3,0,0,1-.3.26Zm.42-2.85h-.04a.3.3,0,0,1-.25-.34l.21-1.43a.3.3,0,1,1,.59.09l-.21,1.43a.3.3,0,0,1-.3.26Zm.41-2.85h-.04a.3.3,0,0,1-.25-.34l.21-1.43a.3.3,0,0,1,.59.09l-.21,1.43a.3.3,0,0,1-.3.26Zm.42-2.85h-.04a.3.3,0,0,1-.25-.34l.21-1.43a.3.3,0,1,1,.59.09l-.21,1.43a.3.3,0,0,1-.3.26Zm.42-2.85h-.04a.3.3,0,0,1-.25-.34l.21-1.43a.291.291,0,0,1,.34-.25.3.3,0,0,1,.25.34l-.21,1.43a.3.3,0,0,1-.3.26Zm.41-2.85h-.04a.3.3,0,0,1-.25-.34l.21-1.43a.3.3,0,0,1,.34-.25.3.3,0,0,1,.25.34l-.21,1.43a.3.3,0,0,1-.3.26Zm.42-2.85h-.04a.3.3,0,0,1-.25-.34l.21-1.43a.291.291,0,0,1,.34-.25.3.3,0,0,1,.25.34l-.21,1.43a.3.3,0,0,1-.3.26Zm.42-2.85h-.04a.3.3,0,0,1-.25-.34l.21-1.43a.3.3,0,0,1,.59.09L143,95.84a.3.3,0,0,1-.3.26Z" fill="#9f9f9f"/>
            </g>
          </g>
        </g>
      </g>
      <g id="Grupo_1042579" data-name="Grupo 1042579">
        <path id="Trazado_770516" data-name="Trazado 770516" d="M130.06,102.14a10.878,10.878,0,1,0-3.07,15.08A10.865,10.865,0,0,0,130.06,102.14Zm-13.19,6.09a1.018,1.018,0,0,1-.31-.31,1.128,1.128,0,0,1,.01-1.23,1.018,1.018,0,0,1,.31-.31,1.322,1.322,0,0,1,.41-.17,1.125,1.125,0,0,1,1.13.48,1.014,1.014,0,0,1,.1.24l-.57-.13a.6.6,0,0,0-.27,1.17l.56.13a1.488,1.488,0,0,1-.13.13,1.128,1.128,0,0,1-1.23-.01Zm5.64-4.25a1.322,1.322,0,0,1,.17.41,1.107,1.107,0,0,1-.48,1.13,1.192,1.192,0,0,1-.2.08l.1-.58a.594.594,0,0,0-.49-.69.6.6,0,0,0-.69.49l-.09.54a.808.808,0,0,1-.16-.16,1.1,1.1,0,0,1-.16-.41,1.117,1.117,0,0,1,.48-1.13,1.1,1.1,0,0,1,1.53.31Zm-3.26,7.41a1.123,1.123,0,0,1,.47-.7.9.9,0,0,1,.21-.08l-.1.61a.6.6,0,0,0,1.18.2l.09-.56a1.063,1.063,0,0,1,.15.15,1.322,1.322,0,0,1,.17.41,1.088,1.088,0,0,1-.17.82,1.018,1.018,0,0,1-.31.31,1.1,1.1,0,0,1-1.53-.31,1.072,1.072,0,0,1-.16-.83Zm5.8-1.57a1.1,1.1,0,0,1-.41.16,1.107,1.107,0,0,1-1.13-.48,1.894,1.894,0,0,1-.09-.21l.56.13a.6.6,0,0,0,.27-1.17l-.58-.13a1,1,0,0,1,.15-.15,1.322,1.322,0,0,1,.41-.17,1.088,1.088,0,0,1,.82.17,1.018,1.018,0,0,1,.31.31,1.322,1.322,0,0,1,.17.41,1.088,1.088,0,0,1-.17.82,1.018,1.018,0,0,1-.31.31Z" fill="gray" opacity="0.35"/>
        <g id="Grupo_1042578" data-name="Grupo 1042578">
          <g id="Grupo_1042576" data-name="Grupo 1042576">
            <path id="Trazado_770517" data-name="Trazado 770517" d="M129.86,101.64a10.878,10.878,0,1,0-3.07,15.08A10.865,10.865,0,0,0,129.86,101.64Zm-8.8,8.86a1.1,1.1,0,1,1-1.53-.31A1.1,1.1,0,0,1,121.06,110.5Zm2.57-3.03a1.1,1.1,0,1,1-.31,1.53A1.1,1.1,0,0,1,123.63,107.47Zm-3.16-2.77a1.1,1.1,0,1,1,1.53.31A1.1,1.1,0,0,1,120.47,104.7Zm-2.57,3.03a1.1,1.1,0,1,1,.31-1.53A1.1,1.1,0,0,1,117.9,107.73Z" fill="#5ddaf2"/>
            <path id="Trazado_770518" data-name="Trazado 770518" d="M128.57,102.49a33.173,33.173,0,1,0,0,.01Zm-12.21,4.93a1.1,1.1,0,1,1,1.53.31A1.1,1.1,0,0,1,116.36,107.42Zm4.1-2.71a1.1,1.1,0,1,1,1.53.31A1.1,1.1,0,0,1,120.46,104.71Zm-1.25,7.02a1.1,1.1,0,1,1,1.53.31A1.1,1.1,0,0,1,119.21,111.73Zm4.1-2.71a1.1,1.1,0,1,1,1.53.31A1.1,1.1,0,0,1,123.31,109.02Z" fill="#26a3bb"/>
            <path id="Trazado_770519" data-name="Trazado 770519" d="M126.12,104.11a22.779,22.779,0,1,0,0,.01Zm-9.76,3.31a1.1,1.1,0,1,1,1.53.31A1.1,1.1,0,0,1,116.36,107.42Zm4.1-2.71a1.1,1.1,0,1,1,1.53.31A1.1,1.1,0,0,1,120.46,104.71Zm-1.25,7.02a1.1,1.1,0,1,1,1.53.31A1.1,1.1,0,0,1,119.21,111.73Zm4.1-2.71a1.1,1.1,0,1,1,1.53.31A1.1,1.1,0,0,1,123.31,109.02Z" fill="#5ddaf2"/>
          </g>
          <g id="Grupo_1042577" data-name="Grupo 1042577">
            <path id="Trazado_770520" data-name="Trazado 770520" d="M120.12,111.41h0a.6.6,0,0,1-.49-.69l1.08-6.39a.6.6,0,0,1,.69-.49h0a.6.6,0,0,1,.49.69l-1.08,6.39A.6.6,0,0,1,120.12,111.41Z" fill="#007985"/>
            <path id="Trazado_770521" data-name="Trazado 770521" d="M124.51,108.48h0a.606.606,0,0,1-.72.45l-6.32-1.46a.606.606,0,0,1-.45-.72h0a.606.606,0,0,1,.72-.45l6.32,1.46A.606.606,0,0,1,124.51,108.48Z" fill="#007985"/>
          </g>
        </g>
      </g>
    </g>
    <g id="Grupo_1042582" data-name="Grupo 1042582">
      <path id="Trazado_770522" data-name="Trazado 770522" d="M217.84,146.54l.06-.15c-.12-.06-11.78-6.09-23.78-1.03a31.415,31.415,0,0,1-3.54,1.21V131.1a7.019,7.019,0,0,0,.31-1.11,7.492,7.492,0,0,0-1.8-6.36c-4.66-5.53-14.79-7.37-22.57-4.08-5.42,2.29-9.04,6.16-9.92,10.64a10.675,10.675,0,0,0,.19,4.9v11.76a11.314,11.314,0,0,0,2.85,7.31c7.14,8.48,22.64,11.25,34.62,6.2a27.8,27.8,0,0,1,17.19-1.17,28.834,28.834,0,0,1,6.29,2.19h1.96V146.53h-1.86Zm-57.92-7.28a.143.143,0,0,0-.02-.03,18.584,18.584,0,0,1,6.75-4.67,18.871,18.871,0,0,1,2.33-.81v11.78A22.85,22.85,0,0,1,159.92,139.26Z" fill="gray" opacity="0.5"/>
      <g id="Grupo_1042581" data-name="Grupo 1042581">
        <path id="Trazado_770523" data-name="Trazado 770523" d="M216.14,144.54l-.11.27v14.58H218V144.54Z" fill="#aaa"/>
        <path id="Trazado_770524" data-name="Trazado 770524" d="M178.68,131.11a5.617,5.617,0,0,1-6.22-1.15,2.353,2.353,0,0,1-.55-1.98,2.955,2.955,0,0,1,1.87-2.06l.27.86a2.142,2.142,0,0,0-1.37,1.4,1.349,1.349,0,0,0,.34,1.14,4.948,4.948,0,0,0,5.39.93,3.555,3.555,0,0,0,2.29-2.38,2.379,2.379,0,0,0-.59-2.02c-1.77-2.1-5.66-2.78-8.66-1.52a5.751,5.751,0,0,0-3.71,3.9,3.954,3.954,0,0,0,.99,3.38c2.5,2.97,7.64,4.16,12.1,2.99v-5.11a5.047,5.047,0,0,1-2.13,1.6Z" fill="#c83347"/>
        <path id="Trazado_770525" data-name="Trazado 770525" d="M182.75,134.92c-5.03,2.12-11.58.93-14.6-2.65a5.662,5.662,0,0,1-.87-1.41v12.67a34.324,34.324,0,0,0,21.6,1.04V129.1A10.563,10.563,0,0,1,182.75,134.92Z" fill="#c83347"/>
        <path id="Trazado_770526" data-name="Trazado 770526" d="M202.05,142.25v4.81h-.79v-4.78a25.527,25.527,0,0,0-6.72,1.24v9.08h-.79v-8.81c-.35.13-.71.27-1.06.42a32.126,32.126,0,0,1-5.94,1.82v4.93h-.79v-4.78a35.739,35.739,0,0,1-6.27.56h-.07v8.88h-.79v-8.89a35.509,35.509,0,0,1-6.46-.74v4.98h-.79v-5.05h.44a30.6,30.6,0,0,1-7.74-2.8v8.6h-.79v-9.04a21.67,21.67,0,0,1-5.85-4.79,12.562,12.562,0,0,1-2.57-4.8v11.76a11.314,11.314,0,0,0,2.85,7.31c7.14,8.48,22.64,11.25,34.62,6.21a27.8,27.8,0,0,1,17.19-1.17V143.09a31.128,31.128,0,0,0-7.7-.84Z" fill="#c83347"/>
        <path id="Trazado_770527" data-name="Trazado 770527" d="M164.95,132.56a18.871,18.871,0,0,1,2.33-.81v-.9a4.687,4.687,0,0,1-.31-2.81,6.59,6.59,0,0,1,4.21-4.55c3.27-1.38,7.53-.6,9.49,1.74a3.388,3.388,0,0,1,.8,2.85,3.63,3.63,0,0,1-.65,1.43v5.11a12.127,12.127,0,0,0,1.67-.56c3.26-1.37,5.43-3.66,5.94-6.28a6.439,6.439,0,0,0-1.6-5.52c-4.46-5.3-14.22-7.04-21.74-3.86-5.17,2.18-8.6,5.82-9.42,9.99a10.367,10.367,0,0,0,2.53,8.84,18.584,18.584,0,0,1,6.75-4.67Z" fill="#ab162a"/>
        <path id="Trazado_770528" data-name="Trazado 770528" d="M216.14,144.54l.06-.15c-.12-.06-11.78-6.09-23.78-1.03a31.415,31.415,0,0,1-3.54,1.21,34.394,34.394,0,0,1-21.6-1.04,22.85,22.85,0,0,1-9.06-6.27.143.143,0,0,0-.02-.03,10.367,10.367,0,0,1-2.53-8.84c.82-4.17,4.26-7.81,9.42-9.99,7.52-3.17,17.28-1.44,21.74,3.86a6.47,6.47,0,0,1,1.6,5.52c-.52,2.61-2.68,4.9-5.94,6.28a12.127,12.127,0,0,1-1.67.56c-4.46,1.17-9.59-.02-12.1-2.99a3.954,3.954,0,0,1-.99-3.38,5.751,5.751,0,0,1,3.71-3.9c3-1.26,6.89-.59,8.66,1.52a2.34,2.34,0,0,1,.59,2.02,3.534,3.534,0,0,1-2.29,2.38,4.948,4.948,0,0,1-5.39-.93,1.349,1.349,0,0,1-.34-1.14,2.122,2.122,0,0,1,1.37-1.4l-.27-.86A2.934,2.934,0,0,0,171.9,128a2.33,2.33,0,0,0,.55,1.98,5.62,5.62,0,0,0,6.22,1.15,5.129,5.129,0,0,0,2.13-1.6,3.63,3.63,0,0,0,.65-1.43,3.348,3.348,0,0,0-.8-2.85c-1.97-2.34-6.22-3.12-9.49-1.74a6.59,6.59,0,0,0-4.21,4.55,4.764,4.764,0,0,0,.31,2.81,5.662,5.662,0,0,0,.87,1.41c3.02,3.58,9.57,4.77,14.6,2.65a10.592,10.592,0,0,0,6.13-5.82,7.019,7.019,0,0,0,.31-1.11,7.492,7.492,0,0,0-1.8-6.36c-4.66-5.53-14.79-7.37-22.57-4.08-5.42,2.29-9.04,6.16-9.92,10.64a10.675,10.675,0,0,0,.19,4.9,12.634,12.634,0,0,0,2.57,4.8,21.858,21.858,0,0,0,5.85,4.79v9.04h.79v-8.6a30.6,30.6,0,0,0,7.74,2.8h-.44v5.05h.79V146a35.307,35.307,0,0,0,6.46.74v8.89h.79v-8.88h.07a35.654,35.654,0,0,0,6.27-.56v4.78h.79v-4.93a31.894,31.894,0,0,0,5.94-1.82c.35-.15.71-.29,1.06-.42v8.81h.79v-9.08a25.528,25.528,0,0,1,6.72-1.24v4.78h.79v-4.81a30.658,30.658,0,0,1,7.7.84v14.11a28.834,28.834,0,0,1,6.29,2.19V144.82l.11-.27Z" fill="#fff"/>
      </g>
    </g>
    <g id="Grupo_1042584" data-name="Grupo 1042584">
      <path id="Trazado_770529" data-name="Trazado 770529" d="M93.13,106.52a11.043,11.043,0,1,0,.01,0Zm-2,18.51a.937.937,0,0,1-.28-.06,1.358,1.358,0,0,1-.68-.46,1.429,1.429,0,0,1-.31-1.02.937.937,0,0,1,.06-.28,1.374,1.374,0,0,1,.27-.49,1.532,1.532,0,0,1,.42-.34,1.367,1.367,0,0,1,1.07-.1,2.029,2.029,0,0,1,.26.11,1.421,1.421,0,0,1,.57.57,1.367,1.367,0,0,1,.1,1.07,2.029,2.029,0,0,1-.11.26,1.42,1.42,0,0,1-1.36.73Zm.56-7.22a1.471,1.471,0,0,1,.05-.55,1.4,1.4,0,0,1,.93-.93,1.43,1.43,0,0,1,.82,0,1.4,1.4,0,0,1-.82,2.68,1.43,1.43,0,0,1-.99-1.2Zm-5.35,4.31a1.4,1.4,0,0,1-.93.93,1.35,1.35,0,0,1-.82,0,1.416,1.416,0,0,1-.83-.68,1.345,1.345,0,0,1-.16-.79.937.937,0,0,1,.06-.28,1.374,1.374,0,0,1,.27-.49,1.4,1.4,0,0,1,1.49-.44,1.374,1.374,0,0,1,.49.27,1.412,1.412,0,0,1,.5,1.21.937.937,0,0,1-.06.28Zm-.91-6.23a2.613,2.613,0,0,1,0-.28.937.937,0,0,1,.06-.28,1.383,1.383,0,0,1,1.47-.98.937.937,0,0,1,.28.06,1.425,1.425,0,0,1,.68.46,1.406,1.406,0,0,1-.95,2.28,1.543,1.543,0,0,1-.56-.05,1.43,1.43,0,0,1-.99-1.2Z" fill="gray" opacity="0.5"/>
      <g id="Grupo_1042583" data-name="Grupo 1042583">
        <path id="Trazado_770530" data-name="Trazado 770530" d="M91.43,104.52a11.043,11.043,0,1,0,.01,0Zm-1.46,15.77a1.4,1.4,0,1,1-1.75.93A1.4,1.4,0,0,1,89.97,120.29Zm.07-5.03a1.4,1.4,0,1,1,.93,1.75A1.4,1.4,0,0,1,90.04,115.26Zm-5.33-.16a1.4,1.4,0,1,1,1.75-.93A1.4,1.4,0,0,1,84.71,115.1Zm-.07,5.03a1.4,1.4,0,1,1-.93-1.75A1.4,1.4,0,0,1,84.64,120.13Z" fill="#5ddaf2"/>
        <path id="Trazado_770531" data-name="Trazado 770531" d="M90.86,106.38a11.838,11.838,0,1,0,7.86,14.79,11.847,11.847,0,0,0-7.86-14.79Zm-7.98,14.67a1.4,1.4,0,1,1,1.75-.93A1.4,1.4,0,0,1,82.88,121.05Zm1.82-5.96a1.4,1.4,0,1,1,1.75-.93A1.4,1.4,0,0,1,84.7,115.09Zm4.44,7.88a1.4,1.4,0,1,1,1.75-.93A1.4,1.4,0,0,1,89.14,122.97Zm1.82-5.96a1.4,1.4,0,1,1,1.75-.93A1.4,1.4,0,0,1,90.96,117.01Z" fill="#26a3bb"/>
        <path id="Trazado_770532" data-name="Trazado 770532" d="M89.77,109.95a6.5,6.5,0,1,1-.01,0Zm-6.89,11.11a1.4,1.4,0,1,1,1.75-.93A1.4,1.4,0,0,1,82.88,121.06Zm1.82-5.96a1.4,1.4,0,1,1,1.75-.93A1.4,1.4,0,0,1,84.7,115.1Zm4.44,7.88a1.4,1.4,0,1,1,1.75-.93A1.4,1.4,0,0,1,89.14,122.98Zm1.82-5.96a1.4,1.4,0,1,1,1.75-.93A1.4,1.4,0,0,1,90.96,117.02Z" fill="#5ddaf2"/>
      </g>
    </g>
    <g id="Grupo_1042591" data-name="Grupo 1042591">
      <g id="Grupo_1042587" data-name="Grupo 1042587">
        <path id="Trazado_770533" data-name="Trazado 770533" d="M140.19,153.67l-.12-.08,4.35-7.84c1.9-7.05-6.76-12.84-17.47-14.77-10.03-1.82-18.96.26-21.5,4.67h-.02L77.83,181.8h0l-.42.67a4.757,4.757,0,0,0-.3.7c-.04.11-.07.22-.11.33s-.06.23-.09.35c-1.21,5.86,7.85,12.87,20.2,14.6,12.64,1.77,34.51,3.78,43.39,5.06l26.43-46.72c-8.62-1.25-14.45-1.38-26.74-3.11Z" fill="gray" opacity="0.5"/>
        <g id="Grupo_1042586" data-name="Grupo 1042586">
          <g id="Grupo_1042585" data-name="Grupo 1042585">
            <path id="Trazado_770534" data-name="Trazado 770534" d="M99.5,190.63c.46.01.9,0,1.34-.02C100.41,190.63,99.96,190.64,99.5,190.63Z" fill="#f2bf7e"/>
            <path id="Trazado_770535" data-name="Trazado 770535" d="M116.29,189.57a4.512,4.512,0,0,1-.4.79A5.329,5.329,0,0,0,116.29,189.57Z" fill="#e2804f"/>
            <path id="Trazado_770536" data-name="Trazado 770536" d="M79.51,177.08a3.233,3.233,0,0,0-.41.22A3.234,3.234,0,0,1,79.51,177.08Z" fill="#e2804f"/>
            <path id="Trazado_770537" data-name="Trazado 770537" d="M78.14,177.88c-.13.1-.28.19-.4.29A3.691,3.691,0,0,1,78.14,177.88Z" fill="#e2804f"/>
            <path id="Trazado_770538" data-name="Trazado 770538" d="M96.11,191.4c-6.66-1.19-11.55-4.73-10.92-7.89.59-3.01,6.16-4.53,12.45-3.41,5.97,1.07,10.4,4.26,9.88,7.12a2.775,2.775,0,0,1-.34.88,2.428,2.428,0,0,0-.14.2,3.517,3.517,0,0,1-.53.57,3.72,3.72,0,0,1-.45.33,4.325,4.325,0,0,1-.51.31,11.408,11.408,0,0,1-4.69,1.1c-.44.02-.88.03-1.34.02-.61-.02-1.24-.06-1.87-.13l.08,1.14c-.54-.06-1.07-.14-1.61-.23Z" fill="#69463a"/>
            <path id="Trazado_770539" data-name="Trazado 770539" d="M92.18,174.88c-.27-.01-.54-.02-.79-.02C91.66,174.86,91.92,174.87,92.18,174.88Z" fill="#e2804f"/>
            <path id="Trazado_770540" data-name="Trazado 770540" d="M76.39,179.45c-.09.11-.17.22-.26.34A2.047,2.047,0,0,1,76.39,179.45Z" fill="#e2804f"/>
            <path id="Trazado_770541" data-name="Trazado 770541" d="M116.53,188.72c.93-5.31-7.25-11.21-18.28-13.18a40.27,40.27,0,0,0-5-.6,2.449,2.449,0,0,1-.27-.02l-.81-.03c-.27-.01-.53-.02-.79-.02a25.888,25.888,0,0,0-11.87,2.22,2.322,2.322,0,0,0-.41.22,8,8,0,0,0-.95.58c-.13.09-.27.18-.4.29a7.225,7.225,0,0,0-1.35,1.29,3.044,3.044,0,0,0-.26.34l27.6-46.16h.02c2.54-4.4,11.47-6.47,21.5-4.65,10.7,1.94,19.37,7.72,17.47,14.77l-4.35,7.84-22.39,38.83-.09-.06a5.329,5.329,0,0,0,.4-.79,4.127,4.127,0,0,0,.24-.85Z" fill="#69463a"/>
            <path id="Trazado_770542" data-name="Trazado 770542" d="M85.18,183.51c-.63,3.17,4.26,6.7,10.92,7.89.54.09,1.08.17,1.61.23l-.08-1.14c.64.07,1.26.11,1.87.13.46.01.91,0,1.34-.02a11.368,11.368,0,0,0,4.69-1.1,3.3,3.3,0,0,0,.51-.31,5.222,5.222,0,0,0,.45-.33,3.516,3.516,0,0,0,.53-.57,2.428,2.428,0,0,0,.14-.2,2.721,2.721,0,0,0,.34-.88c.52-2.87-3.9-6.05-9.88-7.12-6.28-1.13-11.86.4-12.45,3.41Zm10.23,12.94c-12.35-1.73-21.41-8.74-20.2-14.6a2.252,2.252,0,0,1,.09-.35,1.826,1.826,0,0,1,.11-.33,5.264,5.264,0,0,1,.3-.7l.42-.67h0a3.846,3.846,0,0,1,.26-.34,7.912,7.912,0,0,1,1.35-1.29c.12-.1.27-.19.4-.29a7.52,7.52,0,0,1,.95-.58c.13-.08.27-.15.41-.22a26.152,26.152,0,0,1,11.87-2.22c.26,0,.53.01.79.02l.81.03a2.449,2.449,0,0,1,.27.02,42.51,42.51,0,0,1,5,.6c11.03,1.98,19.22,7.88,18.28,13.18a5.125,5.125,0,0,1-.24.85,4.189,4.189,0,0,1-.4.79l.09.06,22.39-38.83.12.08c12.28,1.73,18.12,1.86,26.74,3.11l-26.43,46.72c-8.88-1.28-30.75-3.29-43.39-5.06Z" fill="#523126"/>
            <path id="Trazado_770543" data-name="Trazado 770543" d="M106.05,189.21a5.222,5.222,0,0,0,.45-.33A3.72,3.72,0,0,1,106.05,189.21Z" fill="#f2bf7e"/>
            <path id="Trazado_770544" data-name="Trazado 770544" d="M107.17,188.11c-.05.07-.09.13-.14.2C107.07,188.24,107.13,188.18,107.17,188.11Z" fill="#f2bf7e"/>
            <path id="Trazado_770545" data-name="Trazado 770545" d="M93.25,174.94a2.449,2.449,0,0,1-.27-.02A2.449,2.449,0,0,1,93.25,174.94Z" fill="#f2bf7e"/>
            <path id="Trazado_770546" data-name="Trazado 770546" d="M105.54,189.51a3.3,3.3,0,0,0,.51-.31A4.325,4.325,0,0,1,105.54,189.51Z" fill="#f2bf7e"/>
          </g>
          <path id="Trazado_770547" data-name="Trazado 770547" d="M75.14,182.44a6.274,6.274,0,0,1,.89-2.15h0a.037.037,0,0,1,.03-.02h-.02a7.731,7.731,0,0,1,.62-.77,5.223,5.223,0,0,1,.71-.7,11.607,11.607,0,0,1,1.61-1.17h0a16,16,0,0,1,1.57-.74,12.593,12.593,0,0,1,1.61-.65l1.7-.47c.29-.07.57-.17.86-.23l.89-.13,1.78-.27a15.42,15.42,0,0,1,1.81-.13l1.82-.08c.61-.02,1.23,0,1.84.02h.01a39.261,39.261,0,0,1,15.9,4.09,22.852,22.852,0,0,1,3.72,2.4,13.573,13.573,0,0,1,3.13,3.32,7.046,7.046,0,0,1,1.26,4.23,5.585,5.585,0,0,1-1.58,3.51,13.205,13.205,0,0,1-6.68,3.33,30.873,30.873,0,0,1-7.85.62,40.4,40.4,0,0,1-8.14-1.23,29.953,29.953,0,0,1-7.99-3.3,17.96,17.96,0,0,1-3.58-2.8,8.937,8.937,0,0,1-2.35-4.01c-.7-3.31,1.48-5.44,3.68-6.56a19.113,19.113,0,0,1,7.43-1.9,33.418,33.418,0,0,1,8.01.46,31.629,31.629,0,0,1,8.07,2.56,20.959,20.959,0,0,1,3.82,2.36,11.133,11.133,0,0,1,3.09,3.57,5.737,5.737,0,0,1,.66,2.28,6.847,6.847,0,0,1-.06,1.17,5.4,5.4,0,0,1-2.98,3.75,12.473,12.473,0,0,1-3.59,1.37,20.937,20.937,0,0,1-3.9.54,30.867,30.867,0,0,1-8.13-.7,25.907,25.907,0,0,1-8.07-3.14,13.507,13.507,0,0,1-3.5-3.02,5.623,5.623,0,0,1-1.31-4.44,4.9,4.9,0,0,1,.32-.93,4.073,4.073,0,0,1,.55-.89,5.921,5.921,0,0,1,1.44-1.3,11.252,11.252,0,0,1,3.54-1.47,22.579,22.579,0,0,1,7.89-.39,26.525,26.525,0,0,1,4.06.75,23.435,23.435,0,0,1,4.04,1.43,16.7,16.7,0,0,1,3.82,2.37,7.665,7.665,0,0,1,2.68,3.88,4.082,4.082,0,0,1,.08,1.15,2.336,2.336,0,0,1-.07.57l-.13.46a4.445,4.445,0,0,1-1.13,1.66,8.566,8.566,0,0,1-3.37,1.75,20.422,20.422,0,0,1-7.9.46,23.445,23.445,0,0,1-8.1-2.43,12.083,12.083,0,0,1-3.59-2.75,4.327,4.327,0,0,1-1.13-4.18,4.8,4.8,0,0,1,2.72-2.61,12.272,12.272,0,0,1,3.71-.94,21.609,21.609,0,0,1,7.98.72,19.55,19.55,0,0,1,3.96,1.57,10.182,10.182,0,0,1,3.44,2.81,4,4,0,0,1,.83,2.04,2.852,2.852,0,0,1-.49,1.88,5.657,5.657,0,0,1-3.09,1.93,17.335,17.335,0,0,1-7.8.18,17.146,17.146,0,0,0,7.74-.31,5.466,5.466,0,0,0,2.98-1.94,2.787,2.787,0,0,0,.42-1.77,3.772,3.772,0,0,0-.8-1.88,9.87,9.87,0,0,0-3.35-2.64,19.07,19.07,0,0,0-3.88-1.47,21.025,21.025,0,0,0-7.8-.57,12.1,12.1,0,0,0-3.54.96,4.383,4.383,0,0,0-2.43,2.33,3.593,3.593,0,0,0,.99,3.5,11.16,11.16,0,0,0,3.34,2.51,22.471,22.471,0,0,0,7.8,2.27,19.417,19.417,0,0,0,7.57-.52,7.927,7.927,0,0,0,3.08-1.63,3.889,3.889,0,0,0,.92-1.33l.12-.46a3.583,3.583,0,0,0,.04-.4,3.231,3.231,0,0,0-.07-.87,6.452,6.452,0,0,0-2.28-3.19,16.128,16.128,0,0,0-3.55-2.16,22.512,22.512,0,0,0-3.84-1.35,24.477,24.477,0,0,0-3.92-.71,21.547,21.547,0,0,0-7.55.4,10.584,10.584,0,0,0-3.27,1.37,5.425,5.425,0,0,0-1.25,1.13,3.3,3.3,0,0,0-.43.67,4.117,4.117,0,0,0-.29.86,4.434,4.434,0,0,0,1.08,3.37,12.214,12.214,0,0,0,3.13,2.67,24.383,24.383,0,0,0,7.64,2.94,29.106,29.106,0,0,0,7.83.65,19.516,19.516,0,0,0,3.71-.53,11.931,11.931,0,0,0,3.33-1.28,5.576,5.576,0,0,0,2.29-2.33,5.932,5.932,0,0,0,.28-.87,6.619,6.619,0,0,0,.03-.81,4.432,4.432,0,0,0-.51-1.75,9.581,9.581,0,0,0-2.65-3.05,19.7,19.7,0,0,0-3.54-2.2,30.421,30.421,0,0,0-7.73-2.48,32.9,32.9,0,0,0-7.75-.47,18.3,18.3,0,0,0-7.09,1.77,6.991,6.991,0,0,0-2.64,2.19c-.16.23-.26.47-.4.7-.12.26-.19.6-.29.89l-.07.83c.04.3.05.6.11.9a7.612,7.612,0,0,0,2,3.4,17.058,17.058,0,0,0,3.31,2.59,29.2,29.2,0,0,0,7.66,3.19,39.21,39.21,0,0,0,7.94,1.28,30.23,30.23,0,0,0,7.65-.53,12.682,12.682,0,0,0,6.39-3.07,4.952,4.952,0,0,0,1.47-3.12,6.2,6.2,0,0,0-1.08-3.73,12.665,12.665,0,0,0-2.91-3.12,22.38,22.38,0,0,0-3.57-2.34,39.435,39.435,0,0,0-15.68-4.27h.01c-.62-.02-1.23-.06-1.84-.05l-1.82.05c-.6.04-1.22-.01-1.81.09l-1.77.23-.89.12c-.29.05-.57.14-.85.21l-1.7.43a12.6,12.6,0,0,0-1.62.62,14.931,14.931,0,0,0-1.57.7h0a10.2,10.2,0,0,0-1.62,1.13,5.752,5.752,0,0,0-.72.68,6.514,6.514,0,0,0-.63.76h-.02a6.745,6.745,0,0,0-.56,1.02,5.077,5.077,0,0,0-.37,1.12Z" fill="#fff"/>
        </g>
      </g>
      <g id="Grupo_1042590" data-name="Grupo 1042590">
        <path id="Trazado_770548" data-name="Trazado 770548" d="M168.61,170.39l-.12-.07,3.43-8.28c1.08-7.22-8.18-11.99-19.03-12.69-10.17-.67-18.81,2.41-20.83,7.08h-.02l-22.16,48.99v.01l-.34.72a4.713,4.713,0,0,0-.22.73c-.03.11-.05.23-.07.34s-.04.23-.05.35c-.53,5.96,9.26,11.89,21.73,12.21,12.76.32,34.72-.17,43.68.09l20.94-49.43c-8.7-.26-14.52.27-26.92-.05Z" fill="gray" opacity="0.5"/>
        <g id="Grupo_1042589" data-name="Grupo 1042589">
          <g id="Grupo_1042588" data-name="Grupo 1042588">
            <path id="Trazado_770549" data-name="Trazado 770549" d="M132.61,211.53c.46-.04.89-.1,1.33-.17C133.52,211.43,133.07,211.49,132.61,211.53Z" fill="#f2bf7e"/>
            <path id="Trazado_770550" data-name="Trazado 770550" d="M149.16,208.56a5.158,5.158,0,0,1-.3.83A4.351,4.351,0,0,0,149.16,208.56Z" fill="#e2804f"/>
            <path id="Trazado_770551" data-name="Trazado 770551" d="M111.2,200.34c-.14.08-.26.17-.39.26A2.645,2.645,0,0,1,111.2,200.34Z" fill="#e2804f"/>
            <path id="Trazado_770552" data-name="Trazado 770552" d="M109.94,201.29c-.12.11-.25.22-.36.33Q109.76,201.44,109.94,201.29Z" fill="#e2804f"/>
            <path id="Trazado_770553" data-name="Trazado 770553" d="M129.32,212.68c-6.75-.42-12.02-3.38-11.75-6.6.24-3.06,5.61-5.21,11.98-4.8,6.06.38,10.82,3.05,10.63,5.95a2.724,2.724,0,0,1-.24.92l-.12.21a4.189,4.189,0,0,1-.46.63,4.981,4.981,0,0,1-.41.38,3.43,3.43,0,0,1-.47.36,11.407,11.407,0,0,1-4.54,1.62c-.43.07-.87.13-1.33.17-.61.05-1.23.08-1.87.08l.21,1.12c-.54,0-1.08-.02-1.63-.05Z" fill="#40bdd5"/>
            <path id="Trazado_770554" data-name="Trazado 770554" d="M123.54,196.72c-.27.02-.54.04-.79.07C123.02,196.76,123.27,196.74,123.54,196.72Z" fill="#e2804f"/>
            <path id="Trazado_770555" data-name="Trazado 770555" d="M108.38,203.06c-.08.12-.15.24-.22.36A2.667,2.667,0,0,1,108.38,203.06Z" fill="#e2804f"/>
            <path id="Trazado_770556" data-name="Trazado 770556" d="M149.31,207.7c.32-5.38-8.48-10.31-19.66-11.02a42.325,42.325,0,0,0-5.03-.03c-.09,0-.18.01-.27.01l-.81.06c-.27.02-.53.04-.79.07a26.041,26.041,0,0,0-11.54,3.55,3.306,3.306,0,0,0-.39.26,7.433,7.433,0,0,0-.88.69q-.18.15-.36.33a7.6,7.6,0,0,0-1.2,1.43,2.667,2.667,0,0,0-.22.36l22.16-49h.02c2.02-4.66,10.66-7.74,20.83-7.07,10.86.71,20.12,5.47,19.03,12.69l-3.43,8.28-17.83,41.12-.09-.05a4.351,4.351,0,0,0,.3-.83,4.935,4.935,0,0,0,.14-.87Z" fill="#40bdd5"/>
            <path id="Trazado_770557" data-name="Trazado 770557" d="M117.57,206.08c-.27,3.22,4.99,6.17,11.75,6.6.55.03,1.09.05,1.63.05l-.21-1.12c.64,0,1.27-.03,1.87-.08.46-.04.9-.1,1.33-.17a11.562,11.562,0,0,0,4.54-1.62,3.43,3.43,0,0,0,.47-.36,4.981,4.981,0,0,0,.41-.38,3.377,3.377,0,0,0,.46-.63,2.245,2.245,0,0,0,.12-.21,2.908,2.908,0,0,0,.24-.92c.19-2.91-4.57-5.57-10.63-5.95-6.37-.4-11.74,1.75-11.98,4.8Zm11.63,11.69c-12.47-.31-22.26-6.24-21.73-12.21a2.108,2.108,0,0,1,.05-.35c.02-.11.04-.23.07-.34a5.475,5.475,0,0,1,.22-.73l.34-.72v-.01c.07-.12.14-.24.22-.36a7.594,7.594,0,0,1,1.2-1.43c.11-.11.24-.22.36-.33a10.317,10.317,0,0,1,.88-.69,3.776,3.776,0,0,1,.39-.26,25.955,25.955,0,0,1,11.54-3.55c.26-.03.52-.05.79-.07l.81-.06c.09,0,.18-.01.27-.01a42.325,42.325,0,0,1,5.03.03c11.19.71,19.99,5.64,19.66,11.02a5.091,5.091,0,0,1-.14.87,5.158,5.158,0,0,1-.3.83l.09.05,17.83-41.12.12.07c12.4.32,18.21-.21,26.92.05l-20.94,49.43c-8.97-.26-30.92.23-43.68-.09Z" fill="#108d99"/>
            <path id="Trazado_770558" data-name="Trazado 770558" d="M138.95,209.37a4.981,4.981,0,0,0,.41-.38A4.981,4.981,0,0,1,138.95,209.37Z" fill="#f2bf7e"/>
            <path id="Trazado_770559" data-name="Trazado 770559" d="M139.94,208.15a2.248,2.248,0,0,1-.12.21Z" fill="#f2bf7e"/>
            <path id="Trazado_770560" data-name="Trazado 770560" d="M124.61,196.65c-.09,0-.18.01-.27.01C124.43,196.66,124.52,196.65,124.61,196.65Z" fill="#f2bf7e"/>
            <path id="Trazado_770561" data-name="Trazado 770561" d="M138.48,209.74a3.43,3.43,0,0,0,.47-.36A3.43,3.43,0,0,1,138.48,209.74Z" fill="#f2bf7e"/>
          </g>
          <path id="Trazado_770562" data-name="Trazado 770562" d="M107.47,206.17a5.535,5.535,0,0,1,.22-1.16,6.714,6.714,0,0,1,.42-1.08h0s0-.02.03-.02h-.02a7.4,7.4,0,0,1,.53-.84,5.651,5.651,0,0,1,.62-.77,10.269,10.269,0,0,1,1.46-1.34h0a14.237,14.237,0,0,1,1.47-.91,11.845,11.845,0,0,1,1.53-.83l1.64-.66c.28-.11.54-.23.82-.32l.87-.23,1.73-.47a14.882,14.882,0,0,1,1.79-.33l1.8-.29c.6-.09,1.22-.13,1.83-.19h.01a39.288,39.288,0,0,1,16.26,2.25,22.771,22.771,0,0,1,3.96,1.96,13.587,13.587,0,0,1,3.49,2.94,7.038,7.038,0,0,1,1.73,4.06,5.554,5.554,0,0,1-1.17,3.67,13.286,13.286,0,0,1-6.26,4.07,31.157,31.157,0,0,1-7.73,1.51,40.021,40.021,0,0,1-8.23-.3,29.63,29.63,0,0,1-8.32-2.37,18.192,18.192,0,0,1-3.88-2.37,8.86,8.86,0,0,1-2.79-3.72c-1.07-3.21.86-5.57,2.91-6.94a18.957,18.957,0,0,1,7.17-2.73,33.225,33.225,0,0,1,8.01-.46,31.681,31.681,0,0,1,8.31,1.63,21.432,21.432,0,0,1,4.07,1.91,11.152,11.152,0,0,1,3.48,3.2,5.925,5.925,0,0,1,.92,2.19,6.186,6.186,0,0,1,.07,1.17,5.955,5.955,0,0,1-.18.96,6.207,6.207,0,0,1-2.35,3.11,12.421,12.421,0,0,1-3.41,1.77,21.086,21.086,0,0,1-3.81.98,30.4,30.4,0,0,1-8.16.23,26.1,26.1,0,0,1-8.37-2.2,13.766,13.766,0,0,1-3.82-2.6,5.653,5.653,0,0,1-1.81-4.27,4.687,4.687,0,0,1,.22-.96,3.564,3.564,0,0,1,.45-.94,6,6,0,0,1,1.28-1.46,11.109,11.109,0,0,1,3.35-1.86,22.627,22.627,0,0,1,7.79-1.29,27.435,27.435,0,0,1,4.12.28,24.03,24.03,0,0,1,4.18.96,16.941,16.941,0,0,1,4.07,1.92,7.674,7.674,0,0,1,3.1,3.55,4.16,4.16,0,0,1,.21,1.13,2.807,2.807,0,0,1,0,.58l-.07.47a4.465,4.465,0,0,1-.94,1.78,8.477,8.477,0,0,1-3.15,2.12,20.546,20.546,0,0,1-7.79,1.36,23.527,23.527,0,0,1-8.32-1.49,12.21,12.21,0,0,1-3.88-2.32,4.325,4.325,0,0,1-1.6-4.02,4.769,4.769,0,0,1,2.41-2.9,12.282,12.282,0,0,1,3.58-1.36,21.7,21.7,0,0,1,8.01-.2,19.131,19.131,0,0,1,4.11,1.11,10.329,10.329,0,0,1,3.74,2.4,4.024,4.024,0,0,1,1.06,1.93,2.9,2.9,0,0,1-.27,1.92,5.632,5.632,0,0,1-2.85,2.27,17.377,17.377,0,0,1-7.73,1.07,17.106,17.106,0,0,0,7.65-1.19,5.5,5.5,0,0,0,2.74-2.27,2.746,2.746,0,0,0,.22-1.8,3.769,3.769,0,0,0-1.01-1.78,9.823,9.823,0,0,0-3.62-2.24,19.443,19.443,0,0,0-4.02-1.02,21.255,21.255,0,0,0-7.82.32,12.166,12.166,0,0,0-3.41,1.36,4.345,4.345,0,0,0-2.15,2.59,3.566,3.566,0,0,0,1.39,3.36,11.1,11.1,0,0,0,3.61,2.11,22.461,22.461,0,0,0,8.01,1.36,19.693,19.693,0,0,0,7.47-1.37,7.985,7.985,0,0,0,2.88-1.97,3.821,3.821,0,0,0,.76-1.43l.07-.47a2.655,2.655,0,0,0,0-.4,2.981,2.981,0,0,0-.17-.86,6.427,6.427,0,0,0-2.63-2.91,16.107,16.107,0,0,0-3.77-1.74,22.7,22.7,0,0,0-3.97-.9,24.289,24.289,0,0,0-3.97-.26,21.8,21.8,0,0,0-7.46,1.25,10.364,10.364,0,0,0-3.09,1.73,5.125,5.125,0,0,0-1.11,1.27,3.109,3.109,0,0,0-.35.71,4.083,4.083,0,0,0-.2.88,4.45,4.45,0,0,0,1.45,3.22,12.4,12.4,0,0,0,3.41,2.3,24.4,24.4,0,0,0,7.92,2.05,29.7,29.7,0,0,0,7.85-.24,19.238,19.238,0,0,0,3.62-.95,11.719,11.719,0,0,0,3.16-1.65,5.589,5.589,0,0,0,2.01-2.58,6.5,6.5,0,0,0,.18-.9c-.03-.19,0-.54-.06-.81a4.529,4.529,0,0,0-.7-1.68,9.563,9.563,0,0,0-2.98-2.73,19.711,19.711,0,0,0-3.77-1.79,30.059,30.059,0,0,0-7.96-1.58,32.7,32.7,0,0,0-7.76.42,18.026,18.026,0,0,0-6.84,2.57,6.994,6.994,0,0,0-2.37,2.47c-.14.24-.2.5-.32.74-.08.27-.12.62-.18.92l.02.84c.08.29.12.59.21.88a7.59,7.59,0,0,0,2.37,3.15,16.363,16.363,0,0,0,3.58,2.19,29,29,0,0,0,7.97,2.3,38.858,38.858,0,0,0,8.03.37,30.038,30.038,0,0,0,7.54-1.4,12.757,12.757,0,0,0,6-3.78,4.873,4.873,0,0,0,1.1-3.27,6.18,6.18,0,0,0-1.5-3.58,12.9,12.9,0,0,0-3.24-2.77,22.031,22.031,0,0,0-3.82-1.92,39.326,39.326,0,0,0-16.06-2.45h.01c-.61.05-1.23.08-1.83.16l-1.8.26a14.69,14.69,0,0,0-1.78.3l-1.73.43-.87.22c-.28.09-.55.2-.82.3l-1.64.62a12.476,12.476,0,0,0-1.54.8,14.43,14.43,0,0,0-1.48.88h0a10.343,10.343,0,0,0-1.48,1.31,5.778,5.778,0,0,0-.63.76,6.2,6.2,0,0,0-.54.83h-.02a7.535,7.535,0,0,0-.44,1.07,5.463,5.463,0,0,0-.24,1.15Z" fill="#fff"/>
        </g>
      </g>
    </g>
  </g>
</svg>
