<svg xmlns="http://www.w3.org/2000/svg" xmlns:xlink="http://www.w3.org/1999/xlink" width="130.912" height="130.912" viewBox="0 0 130.912 130.912">
  <defs>
    <filter id="Elipse_7984" x="0" y="0" width="130.912" height="130.912" filterUnits="userSpaceOnUse">
      <feOffset dy="3" input="SourceAlpha"/>
      <feGaussianBlur stdDeviation="3" result="blur"/>
      <feFlood flood-opacity="0.161"/>
      <feComposite operator="in" in2="blur"/>
      <feComposite in="SourceGraphic"/>
    </filter>
  </defs>
  <g id="Grupo_1047339" data-name="Grupo 1047339" transform="translate(-311.43 -1512.123)">
    <g transform="matrix(1, 0, 0, 1, 311.43, 1512.12)" filter="url(#Elipse_7984)">
      <circle id="Elipse_7984-2" data-name="Elipse 7984" cx="56.456" cy="56.456" r="56.456" transform="translate(9 6)" fill="#ffe6ea"/>
    </g>
    <g id="barra-grafica_2_" data-name="barra-grafica (2)" transform="translate(327.196 1528.453)">
      <path id="Trazado_778931" data-name="Trazado 778931" d="M98.1,145.439H1.759a1.661,1.661,0,1,1,0-3.322H96.443V65.705a1.661,1.661,0,1,1,3.322,0v78.073A1.661,1.661,0,0,1,98.1,145.439Z" transform="translate(-0.078 -55.741)" fill="#5a6470"/>
      <path id="Trazado_778932" data-name="Trazado 778932" d="M48.1,240.044H68.031v36.545H48.1Z" transform="translate(-38.111 -195.196)" fill="#ff9801"/>
      <path id="Trazado_778933" data-name="Trazado 778933" d="M192.1,144.044h19.933v56.478H192.1Z" transform="translate(-152.211 -119.13)" fill="#d77f4a"/>
      <path id="Trazado_778934" data-name="Trazado 778934" d="M336.1,64.044h19.933v73.089H336.1Z" transform="translate(-266.311 -55.741)" fill="#b4dd7f"/>
      <path id="Trazado_778935" data-name="Trazado 778935" d="M34.9,33.705l5.47,5.47L26.6,52.951l-3.809-3.809a1.661,1.661,0,0,0-2.349,0L.507,69.075a1.661,1.661,0,0,0,2.308,2.39l.041-.041L21.615,52.665l3.809,3.809a1.661,1.661,0,0,0,2.349,0l14.95-14.95,5.47,5.47,1.661-14.95Z" transform="translate(0 -30.385)" fill="#ff9801"/>
      <g id="Grupo_1047308" data-name="Grupo 1047308" transform="translate(14.97 29.898)">
        <path id="Trazado_778936" data-name="Trazado 778936" d="M73.759,366.689a1.661,1.661,0,0,1-1.661-1.661v-3.322a1.661,1.661,0,1,1,3.322,0v3.322A1.661,1.661,0,0,1,73.759,366.689Z" transform="translate(-72.098 -320.177)" fill="#fff"/>
        <path id="Trazado_778937" data-name="Trazado 778937" d="M73.759,306.011A1.661,1.661,0,0,1,72.1,304.35v-6.645a1.661,1.661,0,0,1,3.322,0v6.645A1.661,1.661,0,0,1,73.759,306.011Z" transform="translate(-72.098 -269.466)" fill="#fff"/>
        <path id="Trazado_778938" data-name="Trazado 778938" d="M217.759,366.689a1.661,1.661,0,0,1-1.661-1.661v-3.322a1.661,1.661,0,1,1,3.322,0v3.322A1.661,1.661,0,0,1,217.759,366.689Z" transform="translate(-186.198 -320.177)" fill="#fff"/>
        <path id="Trazado_778939" data-name="Trazado 778939" d="M217.759,267.977a1.661,1.661,0,0,1-1.661-1.661V249.705a1.661,1.661,0,0,1,3.322,0v16.611A1.661,1.661,0,0,1,217.759,267.977Z" transform="translate(-186.198 -231.433)" fill="#fff"/>
        <path id="Trazado_778940" data-name="Trazado 778940" d="M361.759,366.689a1.661,1.661,0,0,1-1.661-1.661v-3.322a1.661,1.661,0,1,1,3.322,0v3.322A1.661,1.661,0,0,1,361.759,366.689Z" transform="translate(-300.298 -320.177)" fill="#fff"/>
        <path id="Trazado_778941" data-name="Trazado 778941" d="M361.759,204.589a1.661,1.661,0,0,1-1.661-1.661V169.705a1.661,1.661,0,1,1,3.322,0v33.222A1.661,1.661,0,0,1,361.759,204.589Z" transform="translate(-300.298 -168.044)" fill="#fff"/>
      </g>
      <path id="Trazado_778942" data-name="Trazado 778942" d="M98.1,64.044a1.661,1.661,0,0,0-1.661,1.661v76.411H1.759a1.661,1.661,0,1,0,0,3.322H98.1a1.661,1.661,0,0,0,1.661-1.661V65.705A1.661,1.661,0,0,0,98.1,64.044Z" transform="translate(-0.078 -55.741)"/>
      <path id="Trazado_778943" data-name="Trazado 778943" d="M41.759,232.044a1.661,1.661,0,0,0-1.661,1.661V270.25a1.661,1.661,0,0,0,1.661,1.661H61.693a1.661,1.661,0,0,0,1.661-1.661V233.705a1.661,1.661,0,0,0-1.661-1.661Zm18.272,36.545H43.42V235.366H60.031Z" transform="translate(-31.772 -188.857)"/>
      <path id="Trazado_778944" data-name="Trazado 778944" d="M185.759,136.044a1.661,1.661,0,0,0-1.661,1.661v56.478a1.661,1.661,0,0,0,1.661,1.661h19.933a1.661,1.661,0,0,0,1.661-1.661V137.705a1.661,1.661,0,0,0-1.661-1.661Zm18.272,56.478H187.42V139.366h16.611Z" transform="translate(-145.872 -112.791)"/>
      <path id="Trazado_778945" data-name="Trazado 778945" d="M329.759,132.455h19.933a1.661,1.661,0,0,0,1.661-1.661V57.705a1.661,1.661,0,0,0-1.661-1.661H329.759a1.661,1.661,0,0,0-1.661,1.661v73.089A1.661,1.661,0,0,0,329.759,132.455Zm1.661-73.089h16.611v69.767H331.42Z" transform="translate(-259.972 -49.402)"/>
      <path id="Trazado_778946" data-name="Trazado 778946" d="M.586,65.094a1.661,1.661,0,0,0,2.349,0L21.694,46.335,25.5,50.144a1.661,1.661,0,0,0,2.349,0L41.627,36.368l5.47,5.47a1.661,1.661,0,0,0,2.824-1l1.661-14.95a1.661,1.661,0,0,0-1.827-1.827l-14.95,1.661a1.661,1.661,0,0,0-1,2.824l5.47,5.47-12.6,12.6-3.809-3.809a1.661,1.661,0,0,0-2.349,0L.586,62.745a1.661,1.661,0,0,0,0,2.349Zm47.466-37.5L47,37.044l-8.4-8.4Z" transform="translate(-0.079 -24.055)"/>
      <path id="Trazado_778947" data-name="Trazado 778947" d="M73.759,366.689a1.661,1.661,0,0,0,1.661-1.661v-3.322a1.661,1.661,0,1,0-3.322,0v3.322A1.661,1.661,0,0,0,73.759,366.689Z" transform="translate(-57.128 -290.279)"/>
      <path id="Trazado_778948" data-name="Trazado 778948" d="M73.759,306.011a1.661,1.661,0,0,0,1.661-1.661v-6.645a1.661,1.661,0,0,0-3.322,0v6.645A1.661,1.661,0,0,0,73.759,306.011Z" transform="translate(-57.128 -239.568)"/>
      <path id="Trazado_778949" data-name="Trazado 778949" d="M217.759,366.689a1.661,1.661,0,0,0,1.661-1.661v-3.322a1.661,1.661,0,1,0-3.322,0v3.322A1.661,1.661,0,0,0,217.759,366.689Z" transform="translate(-171.227 -290.279)"/>
      <path id="Trazado_778950" data-name="Trazado 778950" d="M217.759,267.977a1.661,1.661,0,0,0,1.661-1.661V249.705a1.661,1.661,0,0,0-3.322,0v16.611A1.661,1.661,0,0,0,217.759,267.977Z" transform="translate(-171.227 -201.535)"/>
      <path id="Trazado_778951" data-name="Trazado 778951" d="M361.759,360.044a1.661,1.661,0,0,0-1.661,1.661v3.322a1.661,1.661,0,1,0,3.322,0v-3.322A1.661,1.661,0,0,0,361.759,360.044Z" transform="translate(-285.327 -290.279)"/>
      <path id="Trazado_778952" data-name="Trazado 778952" d="M361.759,168.044a1.661,1.661,0,0,0-1.661,1.661v33.222a1.661,1.661,0,1,0,3.322,0V169.705A1.661,1.661,0,0,0,361.759,168.044Z" transform="translate(-285.327 -138.146)"/>
    </g>
  </g>
</svg>
