<svg xmlns="http://www.w3.org/2000/svg" xmlns:xlink="http://www.w3.org/1999/xlink" width="120" height="120" viewBox="0 0 120 120">
  <defs>
    <filter id="Elipse_7964" x="0" y="0" width="120" height="120" filterUnits="userSpaceOnUse">
      <feOffset dy="3" input="SourceAlpha"/>
      <feGaussianBlur stdDeviation="3" result="blur"/>
      <feFlood flood-opacity="0.161"/>
      <feComposite operator="in" in2="blur"/>
      <feComposite in="SourceGraphic"/>
    </filter>
  </defs>
  <g id="Grupo_1054440" data-name="Grupo 1054440" transform="translate(-389.5 -13794.131)">
    <g transform="matrix(1, 0, 0, 1, 389.5, 13794.13)" filter="url(#Elipse_7964)">
      <circle id="Elipse_7964-2" data-name="Elipse 7964" cx="51" cy="51" r="51" transform="translate(9 6)" fill="#ffc5ad"/>
    </g>
    <g id="idea" transform="translate(394.051 13803.602)">
      <g id="Grupo_1052672" data-name="Grupo 1052672" transform="translate(19.237 1.455)">
        <g id="Grupo_1052670" data-name="Grupo 1052670">
          <g id="Grupo_1052668" data-name="Grupo 1052668" transform="translate(19.746)">
            <g id="Grupo_1052665" data-name="Grupo 1052665">
              <g id="Grupo_1052661" data-name="Grupo 1052661" transform="translate(22.116)">
                <path id="Trazado_786998" data-name="Trazado 786998" d="M332.8,27.078l-.252-4.982-4.961-.628a13.3,13.3,0,0,0-1.608-3.361l2.648-4.217L324.9,10.546l-3.959,3.04a13.5,13.5,0,0,0-3.53-1.249L316.279,7.5l-5.019.254-.636,4.926a13.5,13.5,0,0,0-3.387,1.6l-4.246-2.626-3.37,3.7,3.06,3.929a13.293,13.293,0,0,0-1.261,3.506l-4.872,1.125L296.8,28.9l4.961.628a13.3,13.3,0,0,0,1.608,3.361L300.721,37.1l3.727,3.344,3.959-3.04a13.5,13.5,0,0,0,3.531,1.249l1.129,4.837,5.018-.254.636-4.926a13.5,13.5,0,0,0,3.387-1.6l4.246,2.626,3.37-3.7-3.06-3.929a13.291,13.291,0,0,0,1.261-3.506Zm-17.775,5.338a6.928,6.928,0,1,1,6.62-7.271A6.953,6.953,0,0,1,315.022,32.415Z" transform="translate(-296.548 -7.5)" fill="#7974e3"/>
              </g>
              <g id="Grupo_1052664" data-name="Grupo 1052664" transform="translate(0 11.942)">
                <g id="Grupo_1052663" data-name="Grupo 1052663">
                  <path id="Trazado_786999" data-name="Trazado 786999" d="M182.511,111.344l31.457,13.792,14.006-31.945-5.782-14.844-21.148-9.272Z" transform="translate(-182.511 -69.075)" fill="#f0f0ff"/>
                  <g id="Grupo_1052662" data-name="Grupo 1052662" transform="translate(24.95 14.782)">
                    <path id="Trazado_787000" data-name="Trazado 787000" d="M323.914,154.627,311.159,183.72l6.507,2.853,14.006-31.945-3.636-9.334Z" transform="translate(-311.159 -145.293)" fill="#e8e8ff"/>
                  </g>
                  <path id="Trazado_787001" data-name="Trazado 787001" d="M368.237,116.886,363.7,127.169l10.324,4.56Z" transform="translate(-328.556 -107.614)" fill="#cfcfff"/>
                </g>
              </g>
            </g>
            <g id="Grupo_1052667" data-name="Grupo 1052667" transform="translate(29.84 44.29)">
              <g id="Grupo_1052666" data-name="Grupo 1052666">
                <path id="Trazado_787002" data-name="Trazado 787002" d="M336.372,269.387h24.862V294.17H336.372Z" transform="translate(-336.372 -262.886)" fill="#96e1ff"/>
                <path id="Trazado_787003" data-name="Trazado 787003" d="M470.682,260.652l-6.114,6.5V242.37l6.114-6.5Z" transform="translate(-439.706 -235.869)" fill="#ffc85e"/>
                <path id="Trazado_787004" data-name="Trazado 787004" d="M361.234,242.369H336.372l6.114-6.5h24.862Z" transform="translate(-336.372 -235.869)" fill="#fd6dc3"/>
              </g>
            </g>
            <path id="Trazado_787005" data-name="Trazado 787005" d="M285.217,376.042l2.873-2.876-2.332-3.341a10.833,10.833,0,0,0,1.152-2.809l4-.705-.017-4.08-4-.731a11,11,0,0,0-1.175-2.816l2.305-3.326-2.9-2.894-3.324,2.308a11,11,0,0,0-2.817-1.172l-.734-4-4.08-.013-.7,4a10.83,10.83,0,0,0-2.808,1.155l-3.343-2.329-2.873,2.876,2.332,3.341a10.834,10.834,0,0,0-1.152,2.809l-4,.705.017,4.079,4,.731a11,11,0,0,0,1.175,2.816l-2.305,3.326,2.9,2.894,3.324-2.308a11,11,0,0,0,2.817,1.172l.734,4,4.08.013.7-4a10.832,10.832,0,0,0,2.808-1.155Zm-12.561-8.2a5.123,5.123,0,1,1,7.271.023A5.142,5.142,0,0,1,272.656,367.839Z" transform="translate(-246.282 -283.243)" fill="#7974e3"/>
          </g>
          <g id="Grupo_1052669" data-name="Grupo 1052669" transform="translate(0 9.747)">
            <path id="Trazado_787006" data-name="Trazado 787006" d="M110.269,57.759c-.238,0-.476,0-.714.008A29.705,29.705,0,0,0,96.31,113.609V118.6a3.68,3.68,0,0,0,3.673,3.687h10.286Z" transform="translate(-80.698 -57.759)" fill="#ffe177"/>
            <path id="Trazado_787007" data-name="Trazado 787007" d="M190.424,390.46H180.138v8.133a6.615,6.615,0,0,0,6.615,6.615h3.671Z" transform="translate(-160.853 -325.936)" fill="#cfcfff"/>
          </g>
        </g>
        <g id="Grupo_1052671" data-name="Grupo 1052671" transform="translate(52.556 69.222)">
          <path id="Trazado_787008" data-name="Trazado 787008" d="M359.505,378.977l4-.705-.017-4.08-4-.731a11,11,0,0,0-1.175-2.816l2.305-3.326-2.9-2.894-3.324,2.308a10.991,10.991,0,0,0-2.7-1.141,14.15,14.15,0,0,1,1.215,20.835,10.77,10.77,0,0,0,1.566-.755L357.813,388l2.873-2.876-2.332-3.341A10.829,10.829,0,0,0,359.505,378.977Z" transform="translate(-351.688 -364.426)" fill="#6b64e8"/>
        </g>
      </g>
      <g id="Grupo_1052673" data-name="Grupo 1052673" transform="translate(4.449 0)">
        <path id="Trazado_787009" data-name="Trazado 787009" d="M156.665,45.672a1.47,1.47,0,0,0-1.449-1.382H138.48L141.2,38.1a1.474,1.474,0,0,0,.023-1.112l-1.39-3.569a14.952,14.952,0,0,0,2.243-1.04l3.486,2.156a1.459,1.459,0,0,0,1.841-.258l3.37-3.7a1.454,1.454,0,0,0,.072-1.873l-2.5-3.214a14.75,14.75,0,0,0,.759-2.112l4-.923a1.454,1.454,0,0,0,1.125-1.491l-.252-4.982a1.455,1.455,0,0,0-1.27-1.37l-4.07-.515a14.745,14.745,0,0,0-.968-2.025l2.166-3.45a1.454,1.454,0,0,0-.26-1.856l-3.727-3.344a1.455,1.455,0,0,0-1.857-.071l-3.251,2.5a14.951,14.951,0,0,0-2.141-.759l-.925-3.96A1.452,1.452,0,0,0,136.174,0l-5.019.253a1.455,1.455,0,0,0-1.369,1.266l-.521,4.033a14.939,14.939,0,0,0-2.054.971l-3.486-2.156a1.455,1.455,0,0,0-1.841.258l-3.37,3.7a1.454,1.454,0,0,0-.072,1.873l2.5,3.214a14.779,14.779,0,0,0-.615,1.634l-6.813-2.987a1.455,1.455,0,0,0-1.916.748L105.817,26V3.407a1.455,1.455,0,0,0-2.909,0V9.778A31.046,31.046,0,0,0,78.225,23.957a1.455,1.455,0,0,0,2.439,1.586,28.142,28.142,0,0,1,22.245-12.853V74.271H93.94a2.228,2.228,0,0,1-2.219-2.233V67.052a1.455,1.455,0,0,0-.765-1.281A28.256,28.256,0,0,1,77.381,32.515a1.455,1.455,0,0,0-2.777-.867A31.167,31.167,0,0,0,88.812,67.907v4.132a5.148,5.148,0,0,0,3.673,4.93v6.891a8.079,8.079,0,0,0,8.07,8.07h2.354v5.146a1.455,1.455,0,0,0,2.909,0V62.26l14.821,6.5-.333,1.9a12.288,12.288,0,0,0-1.43.588l-2.612-1.82a1.454,1.454,0,0,0-1.86.165l-2.873,2.875a1.455,1.455,0,0,0-.164,1.861l1.822,2.61a12.293,12.293,0,0,0-.587,1.431l-3.11.549a1.455,1.455,0,0,0-1.2,1.438l.017,4.08a1.455,1.455,0,0,0,1.193,1.425l3.129.571a12.447,12.447,0,0,0,.6,1.45l-1.8,2.592a1.454,1.454,0,0,0,.168,1.858l2.9,2.894a1.454,1.454,0,0,0,1.858.166l2.591-1.8a12.456,12.456,0,0,0,1.45.6l.574,3.129a1.454,1.454,0,0,0,1.426,1.192l4.08.013h0a1.455,1.455,0,0,0,1.433-1.2l.546-3.111a12.278,12.278,0,0,0,1.43-.588l2.612,1.82a1.453,1.453,0,0,0,1.86-.165l2.873-2.875a1.455,1.455,0,0,0,.164-1.861l-1.822-2.61a12.3,12.3,0,0,0,.587-1.431l3.11-.549a1.455,1.455,0,0,0,1.2-1.438l-.016-4.08a1.455,1.455,0,0,0-1.193-1.425l-2.941-.537c4.163-.019,8.391-.019,12.5-.019a1.483,1.483,0,0,0,1.334-.432l6.114-6.5a1.455,1.455,0,0,0,.4-1V45.745C156.67,45.72,156.666,45.7,156.665,45.672ZM151.851,47.2l-3.314,3.524H127.668l3.314-3.524ZM135.436,22.141a1.482,1.482,0,0,0-.771-.8l-5.521-2.421a5.52,5.52,0,1,1,7.264,5.72ZM134,26.46l1.571,4.033,1.662,4.266-5.772-2.55ZM123.8,12.345,121.49,9.383l1.732-1.9,3.218,1.99A1.455,1.455,0,0,0,128,9.45a12.039,12.039,0,0,1,3.022-1.427,1.455,1.455,0,0,0,1.01-1.2l.48-3.721,2.591-.131.853,3.653a1.455,1.455,0,0,0,1.127,1.095,12.035,12.035,0,0,1,3.15,1.115,1.455,1.455,0,0,0,1.556-.137l3-2.3,1.915,1.719-2,3.179a1.455,1.455,0,0,0,.02,1.578,11.852,11.852,0,0,1,1.432,2.994,1.454,1.454,0,0,0,1.2,1.006l3.752.475.129,2.549-3.685.851a1.454,1.454,0,0,0-1.1,1.122,11.833,11.833,0,0,1-1.123,3.123,1.455,1.455,0,0,0,.139,1.572l2.307,2.962-1.732,1.9-3.218-1.99a1.455,1.455,0,0,0-1.562.02,12.046,12.046,0,0,1-2.507,1.252l-1.308-3.357a8.391,8.391,0,1,0-11.071-9.637l-3.382-1.483a11.88,11.88,0,0,1,.925-2.31,1.454,1.454,0,0,0-.139-1.572ZM100.555,89.02a5.166,5.166,0,0,1-5.161-5.161V77.181h7.514V89.02Zm5.263-55.773,7.863-17.934,18.48,8.1-3.953,8.949a1.455,1.455,0,0,0,.743,1.918l9,3.974L135.3,44.29h-4.95a1.454,1.454,0,0,0-1.06.458l-6.114,6.5a2.672,2.672,0,0,0-.42,1.627V66.346h-.382l-16.561-7.261ZM137.563,83.3l-2.789.492a1.455,1.455,0,0,0-1.157,1.074,9.374,9.374,0,0,1-1,2.432,1.454,1.454,0,0,0,.062,1.568l1.635,2.342-1.151,1.152-2.344-1.633a1.455,1.455,0,0,0-1.568-.061,9.376,9.376,0,0,1-2.431,1,1.454,1.454,0,0,0-1.073,1.158l-.49,2.789-1.646-.005L123.1,92.8a1.455,1.455,0,0,0-1.063-1.145,9.552,9.552,0,0,1-2.445-1.017,1.455,1.455,0,0,0-1.57.058L115.7,92.309l-1.177-1.176,1.613-2.327a1.455,1.455,0,0,0,.056-1.57,9.56,9.56,0,0,1-1.02-2.444,1.455,1.455,0,0,0-1.146-1.062l-2.813-.514L111.2,81.57l2.789-.492A1.455,1.455,0,0,0,115.148,80a9.374,9.374,0,0,1,1-2.432A1.455,1.455,0,0,0,116.083,76l-1.635-2.342,1.151-1.152,2.343,1.633a1.454,1.454,0,0,0,1.568.061,9.387,9.387,0,0,1,2.431-1,1.454,1.454,0,0,0,1.073-1.158l.49-2.789,1.646.005.516,2.813a1.455,1.455,0,0,0,1.063,1.145,9.546,9.546,0,0,1,2.445,1.017,1.454,1.454,0,0,0,1.57-.058l2.326-1.615,1.177,1.176-1.613,2.327a1.455,1.455,0,0,0-.056,1.57,9.56,9.56,0,0,1,1.02,2.444,1.455,1.455,0,0,0,1.146,1.062l2.813.514Zm13-9.949c0-1.432,0-4.971,0-4.971a1.455,1.455,0,0,0-2.909,0v7.164c-3.672,0-7.422,0-11.126.019l.809-1.167a1.455,1.455,0,0,0-.167-1.858l-2.9-2.894a1.455,1.455,0,0,0-1.858-.166l-2.59,1.8a12.453,12.453,0,0,0-1.45-.6l-.574-3.129a1.729,1.729,0,0,0-2.1-1.194c-.024-1.616.151-10.063,0-12.655h21.958v7.089a1.455,1.455,0,0,0,2.909,0s0-5.469,0-7.972l3.2-3.4V69.951Z" transform="translate(-59.866 0)" fill="#060606"/>
        <path id="Trazado_787010" data-name="Trazado 787010" d="M309.738,390.994h-.021a6.552,6.552,0,0,0-6.558,6.586,6.642,6.642,0,0,0,6.613,6.607h.022a6.551,6.551,0,0,0,6.558-6.586,6.641,6.641,0,0,0-6.613-6.607Zm2.638,9.215a3.6,3.6,0,0,1-2.6,1.068,3.732,3.732,0,0,1-3.713-3.709,3.643,3.643,0,0,1,3.662-3.665,3.732,3.732,0,0,1,3.713,3.709,3.626,3.626,0,0,1-1.065,2.6Z" transform="translate(-245.226 -315.165)" fill="#060606"/>
        <path id="Trazado_787011" data-name="Trazado 787011" d="M75.018,53.6a1.49,1.49,0,0,0,1.029-2.483l-4.96-4.961a1.455,1.455,0,0,0-2.057,2.057l4.96,4.961A1.45,1.45,0,0,0,75.018,53.6Z" transform="translate(-56.159 -36.859)" fill="#060606"/>
        <path id="Trazado_787012" data-name="Trazado 787012" d="M12.874,204.487H5.86a1.455,1.455,0,0,0,0,2.909h7.014A1.455,1.455,0,0,0,12.874,204.487Z" transform="translate(-4.449 -164.829)" fill="#060606"/>
        <path id="Trazado_787013" data-name="Trazado 787013" d="M76.278,337.109l-4.96,4.961a1.455,1.455,0,0,0,2.057,2.057l4.96-4.961A1.455,1.455,0,0,0,76.278,337.109Z" transform="translate(-58.003 -271.383)" fill="#060606"/>
      </g>
    </g>
  </g>
</svg>
