<svg xmlns="http://www.w3.org/2000/svg" xmlns:xlink="http://www.w3.org/1999/xlink" width="120" height="120" viewBox="0 0 120 120">
  <defs>
    <filter id="Trazado_773071" x="0" y="0" width="120" height="120" filterUnits="userSpaceOnUse">
      <feOffset dy="3" input="SourceAlpha"/>
      <feGaussianBlur stdDeviation="3" result="blur"/>
      <feFlood flood-opacity="0.161"/>
      <feComposite operator="in" in2="blur"/>
      <feComposite in="SourceGraphic"/>
    </filter>
  </defs>
  <g id="Grupo_1054439" data-name="Grupo 1054439" transform="translate(-740 -13794.131)">
    <g transform="matrix(1, 0, 0, 1, 740, 13794.13)" filter="url(#Trazado_773071)">
      <path id="Trazado_773071-2" data-name="Trazado 773071" d="M51,0A51,51,0,1,1,0,51,51,51,0,0,1,51,0Z" transform="translate(9 6)" fill="#ffc5ad"/>
    </g>
    <g id="patron" transform="translate(719.182 13809.165)">
      <path id="Trazado_786968" data-name="Trazado 786968" d="M53.967,7.5h66.238V88.973H53.967Z" transform="translate(-6.268 -6.271)" fill="#e6f7fe"/>
      <path id="XMLID_195_" d="M0,0H4.305V81.473H0Z" transform="translate(113.937 82.702) rotate(180)" fill="#d3effd"/>
      <path id="Trazado_786969" data-name="Trazado 786969" d="M192.243,39.825H175.352v7.516a19.871,19.871,0,0,1-7.867,15.836L165.085,65v45.7h42.724V75.428l-3.846-3.091a19.871,19.871,0,0,1-6.946-11.155Z" transform="translate(-99.171 -33.297)" fill="#e7a52e"/>
      <path id="Trazado_786970" data-name="Trazado 786970" d="M320.617,72.337a19.872,19.872,0,0,1-6.946-11.155L308.9,39.825h-4.285l4.857,22.3a24.264,24.264,0,0,0,8.45,13.572l1.619,1.3a1.656,1.656,0,0,1,.619,1.291V110.7h4.305V75.428Z" transform="translate(-215.826 -33.297)" fill="#e49824"/>
      <g id="Grupo_1052660" data-name="Grupo 1052660" transform="translate(46.47)">
        <path id="Trazado_786971" data-name="Trazado 786971" d="M158.819,78.142a1.229,1.229,0,0,0-1.229,1.229v25.062a1.229,1.229,0,0,0,1.229,1.229h42.723a1.229,1.229,0,0,0,1.229-1.229V69.162a1.229,1.229,0,0,0-.459-.958l-3.848-3.092a18.71,18.71,0,0,1-6.516-10.464l-4.774-21.357a1.23,1.23,0,0,0-1.2-.961h-16.89a1.229,1.229,0,0,0-1.229,1.229v7.515a18.744,18.744,0,0,1-7.38,14.856l-2.4,1.82a1.23,1.23,0,0,0-.487.98v14.9a1.229,1.229,0,1,0,2.459,0V59.34l1.913-1.451a21.131,21.131,0,0,0,6.338-7.851,1.229,1.229,0,0,0,2.015-.946V47.174a1.228,1.228,0,0,0-.619-1.066,20.914,20.914,0,0,0,.619-5.034V34.789H184.99l4.559,20.4a21.179,21.179,0,0,0,7.375,11.844l3.388,2.723V82.2a1.23,1.23,0,0,0,0,2.41v18.6H170.289a1.23,1.23,0,0,0-2.409,0h-7.832V79.371A1.23,1.23,0,0,0,158.819,78.142Z" transform="translate(-139.373 -27.03)"/>
        <path id="Trazado_786972" data-name="Trazado 786972" d="M220.216,333.086a2.39,2.39,0,1,0,0-1.919Z" transform="translate(-191.734 -275.851)"/>
        <path id="Trazado_786973" data-name="Trazado 786973" d="M220.216,376a1.229,1.229,0,0,0,2.459,0V374.08a1.229,1.229,0,0,0-2.459,0Z" transform="translate(-191.734 -311.73)"/>
        <path id="Trazado_786974" data-name="Trazado 786974" d="M220.216,418.911a1.229,1.229,0,1,0,2.459,0v-1.918a1.229,1.229,0,0,0-2.459,0Z" transform="translate(-191.734 -347.607)"/>
        <path id="Trazado_786975" data-name="Trazado 786975" d="M220.216,290.175a1.229,1.229,0,0,0,2.459,0v-1.918a1.229,1.229,0,1,0-2.459,0Z" transform="translate(-191.734 -239.975)"/>
        <path id="Trazado_786976" data-name="Trazado 786976" d="M220.216,204.352a1.229,1.229,0,0,0,2.459,0v-1.918a1.229,1.229,0,0,0-2.459,0Z" transform="translate(-191.734 -168.221)"/>
        <path id="Trazado_786977" data-name="Trazado 786977" d="M220.216,247.263a2.39,2.39,0,1,0,0-1.918Z" transform="translate(-191.734 -204.097)"/>
        <path id="Trazado_786978" data-name="Trazado 786978" d="M221.445,162.669a1.229,1.229,0,0,0,1.229-1.229V159.52a1.229,1.229,0,1,0-2.459,0v1.919A1.229,1.229,0,0,0,221.445,162.669Z" transform="translate(-191.734 -132.342)"/>
        <path id="Trazado_786979" data-name="Trazado 786979" d="M374.091,251.969h1.759a1.229,1.229,0,1,0,0-2.459h-1.759a1.229,1.229,0,0,0,0,2.459Z" transform="translate(-319.357 -208.608)"/>
        <path id="Trazado_786980" data-name="Trazado 786980" d="M334.747,251.969h1.759a1.229,1.229,0,0,0,0-2.459h-1.759a1.229,1.229,0,1,0,0,2.459Z" transform="translate(-286.462 -208.608)"/>
        <path id="Trazado_786981" data-name="Trazado 786981" d="M295.4,251.969h1.759a1.229,1.229,0,1,0,0-2.459H295.4a1.229,1.229,0,0,0,0,2.459Z" transform="translate(-253.568 -208.608)"/>
        <path id="Trazado_786982" data-name="Trazado 786982" d="M256.058,251.969h1.759a1.229,1.229,0,1,0,0-2.459h-1.759a1.229,1.229,0,1,0,0,2.459Z" transform="translate(-220.673 -208.608)"/>
        <path id="Trazado_786983" data-name="Trazado 786983" d="M295.4,338.843h1.759a1.229,1.229,0,0,0,0-2.459H295.4a1.229,1.229,0,0,0,0,2.459Z" transform="translate(-253.568 -281.241)"/>
        <path id="Trazado_786984" data-name="Trazado 786984" d="M334.747,338.843h1.759a1.229,1.229,0,0,0,0-2.459h-1.759a1.229,1.229,0,1,0,0,2.459Z" transform="translate(-286.462 -281.241)"/>
        <path id="Trazado_786985" data-name="Trazado 786985" d="M256.058,338.843h1.759a1.229,1.229,0,0,0,0-2.459h-1.759a1.229,1.229,0,1,0,0,2.459Z" transform="translate(-220.673 -281.241)"/>
        <path id="Trazado_786986" data-name="Trazado 786986" d="M374.091,338.843h1.759a1.229,1.229,0,0,0,0-2.459h-1.759a1.229,1.229,0,0,0,0,2.459Z" transform="translate(-319.357 -281.241)"/>
        <path id="Trazado_786987" data-name="Trazado 786987" d="M345.476,433.579a1.229,1.229,0,0,0,1.229,1.229h6.624a1.229,1.229,0,0,0,0-2.459h-6.624A1.229,1.229,0,0,0,345.476,433.579Z" transform="translate(-296.46 -361.475)"/>
        <path id="Trazado_786988" data-name="Trazado 786988" d="M365.679,401.253a1.229,1.229,0,0,0,1.229,1.229h3.312a1.229,1.229,0,0,0,0-2.459h-3.312A1.229,1.229,0,0,0,365.679,401.253Z" transform="translate(-313.351 -334.448)"/>
        <path id="Trazado_786989" data-name="Trazado 786989" d="M81.032,67.109h6.624a1.229,1.229,0,0,0,0-2.459H81.032a1.229,1.229,0,0,0,0,2.459Z" transform="translate(-74.339 -54.052)"/>
        <path id="Trazado_786990" data-name="Trazado 786990" d="M81.032,34.784h3.312a1.229,1.229,0,1,0,0-2.459H81.032a1.229,1.229,0,1,0,0,2.459Z" transform="translate(-74.339 -27.026)"/>
        <path id="Trazado_786991" data-name="Trazado 786991" d="M81.032,99.435h6.624a1.229,1.229,0,0,0,0-2.459H81.032a1.229,1.229,0,0,0,0,2.459Z" transform="translate(-74.339 -81.079)"/>
        <path id="Trazado_786992" data-name="Trazado 786992" d="M81.032,434.809h3.312a1.229,1.229,0,0,0,0-2.459H81.032a1.229,1.229,0,0,0,0,2.459Z" transform="translate(-74.339 -361.475)"/>
        <path id="Trazado_786993" data-name="Trazado 786993" d="M81.032,467.134H86a1.229,1.229,0,1,0,0-2.459H81.032a1.229,1.229,0,1,0,0,2.459Z" transform="translate(-74.339 -388.501)"/>
        <path id="Trazado_786994" data-name="Trazado 786994" d="M81.032,338.843h3.312a1.229,1.229,0,0,0,0-2.459H81.032a1.229,1.229,0,0,0,0,2.459Z" transform="translate(-74.339 -281.241)"/>
        <path id="Trazado_786995" data-name="Trazado 786995" d="M81.032,251.969h3.312a1.229,1.229,0,1,0,0-2.459H81.032a1.229,1.229,0,1,0,0,2.459Z" transform="translate(-74.339 -208.608)"/>
        <path id="Trazado_786996" data-name="Trazado 786996" d="M113.937,0H47.7A1.229,1.229,0,0,0,46.47,1.229V21.378a1.229,1.229,0,0,0,2.459,0V2.459h63.778v8.716a1.229,1.229,0,0,0,2.459,0V1.229A1.229,1.229,0,0,0,113.937,0Z" transform="translate(-46.47)"/>
        <path id="Trazado_786997" data-name="Trazado 786997" d="M113.937,95.67a1.229,1.229,0,0,0-1.229,1.229v64.56H48.929V107.1a1.229,1.229,0,0,0-2.459,0v55.587a1.229,1.229,0,0,0,1.229,1.229h66.237a1.229,1.229,0,0,0,1.229-1.229V96.9A1.229,1.229,0,0,0,113.937,95.67Z" transform="translate(-46.47 -79.987)"/>
      </g>
    </g>
  </g>
</svg>
