<svg xmlns="http://www.w3.org/2000/svg" xmlns:xlink="http://www.w3.org/1999/xlink" width="120" height="120" viewBox="0 0 120 120">
  <defs>
    <filter id="Elipse_7966" x="0" y="0" width="120" height="120" filterUnits="userSpaceOnUse">
      <feOffset dy="3" input="SourceAlpha"/>
      <feGaussianBlur stdDeviation="3" result="blur"/>
      <feFlood flood-opacity="0.161"/>
      <feComposite operator="in" in2="blur"/>
      <feComposite in="SourceGraphic"/>
    </filter>
    <clipPath id="clip-path">
      <path id="path5844" d="M0-682.665H95.314v95.314H0Z" transform="translate(0 682.665)"/>
    </clipPath>
  </defs>
  <g id="Grupo_1054441" data-name="Grupo 1054441" transform="translate(-1090.51 -13794.131)">
    <g transform="matrix(1, 0, 0, 1, 1090.51, 13794.13)" filter="url(#Elipse_7966)">
      <circle id="Elipse_7966-2" data-name="Elipse 7966" cx="51" cy="51" r="51" transform="translate(9 6)" fill="#ffc5ad"/>
    </g>
    <g id="g5838" transform="translate(1102.853 14487.481)">
      <g id="g5840" transform="translate(0 -682.665)">
        <g id="g5842" clip-path="url(#clip-path)">
          <g id="g5848" transform="translate(1.396 26.209)">
            <path id="path5850" d="M-534.214-337.084h-80.861a5.832,5.832,0,0,1-5.831-5.832v-43.037a5.832,5.832,0,0,1,5.831-5.832h80.861a5.831,5.831,0,0,1,5.831,5.832v43.037a5.831,5.831,0,0,1-5.831,5.832" transform="translate(620.905 391.786)" fill="#685e67"/>
          </g>
          <g id="g5852" transform="translate(81.479 26.209)">
            <path id="path5854" d="M-76.654-35.941V7.1a5.832,5.832,0,0,1-5.831,5.832h-6.609A5.832,5.832,0,0,0-83.263,7.1V-35.941a5.832,5.832,0,0,0-5.831-5.832h6.609a5.832,5.832,0,0,1,5.831,5.832" transform="translate(89.093 41.773)" fill="#554e55"/>
          </g>
          <g id="g5856" transform="translate(1.396 26.21)">
            <path id="path5858" d="M-112.1-337.075h68.5a5.831,5.831,0,0,0,5.831-5.831v-43.038a5.831,5.831,0,0,0-5.831-5.831h-80.86a5.831,5.831,0,0,0-5.831,5.831v43.038a5.831,5.831,0,0,0,5.831,5.831h5.467" transform="translate(130.286 391.775)" fill="none" stroke="#000" stroke-linecap="round" stroke-linejoin="round" stroke-miterlimit="10" stroke-width="2"/>
          </g>
          <g id="g5860" transform="translate(6.255 31.068)">
            <path id="path5862" d="M-475.238-73.671V-52.6a2.333,2.333,0,0,0,2.333,2.333h1.018a2.333,2.333,0,0,1,2.333,2.333v5.347a1.945,1.945,0,0,1-1.943,1.944h-78.917a1.945,1.945,0,0,1-1.944-1.944v-41.1a1.945,1.945,0,0,1,1.944-1.944H-471.5a1.945,1.945,0,0,1,1.943,1.944v5.347A2.333,2.333,0,0,1-471.887-76h-1.018a2.333,2.333,0,0,0-2.333,2.333" transform="translate(552.359 85.626)" fill="#f2eff2"/>
          </g>
          <g id="g5864" transform="translate(24.011 31.068)">
            <path id="path5866" d="M-127.76-73.947l-17.082,3.012a.989.989,0,0,1-1.143-.8l-2.508-14.212h19.619l1.914,10.855a.987.987,0,0,1-.8,1.145" transform="translate(148.493 85.946)" fill="#e1dde1"/>
          </g>
          <g id="g5868" transform="translate(50.851 31.068)">
            <path id="path5870" d="M-12.959,0h9.811L-7.612,15.1a.933.933,0,0,1-1.033.657l-5.626-.851a.93.93,0,0,1-.78-1.059Z" transform="translate(15.062)" fill="#e1dde1"/>
          </g>
          <g id="g5872" transform="translate(63.645 31.068)">
            <path id="path5874" d="M-61.833,0l-2.558,16.913a.931.931,0,0,1-1.059.782l-5.626-.851a.93.93,0,0,1-.791-.933L-71.668,0Z" transform="translate(71.867)" fill="#e1dde1"/>
          </g>
          <g id="g5876" transform="translate(76.209 31.068)">
            <path id="path5878" d="M-44.166-73.671V-52.6a2.333,2.333,0,0,0,2.333,2.333h1.018a2.333,2.333,0,0,1,2.333,2.333v5.347a1.945,1.945,0,0,1-1.944,1.944h-7.167a1.945,1.945,0,0,0,1.944-1.944v-5.347a2.333,2.333,0,0,0-2.333-2.333H-49A2.333,2.333,0,0,1-51.333-52.6V-73.671A2.333,2.333,0,0,1-49-76h1.018a2.333,2.333,0,0,0,2.333-2.333v-5.347a1.945,1.945,0,0,0-1.944-1.944h7.167a1.945,1.945,0,0,1,1.944,1.944v5.347A2.333,2.333,0,0,1-40.815-76h-1.018a2.333,2.333,0,0,0-2.333,2.333" transform="translate(51.333 85.626)" fill="#e1dde1"/>
          </g>
          <g id="g5880" transform="translate(6.256 31.069)">
            <path id="path5882" d="M-498.276,0h-78.916a1.944,1.944,0,0,0-1.944,1.944V43.038a1.944,1.944,0,0,0,1.944,1.944h78.916a1.943,1.943,0,0,0,1.944-1.944V37.691a2.332,2.332,0,0,0-2.333-2.332h-1.018a2.332,2.332,0,0,1-2.332-2.333V11.955a2.332,2.332,0,0,1,2.332-2.332h1.018a2.332,2.332,0,0,0,2.333-2.332V1.944A1.944,1.944,0,0,0-498.276,0Z" transform="translate(579.136)" fill="none" stroke="#000" stroke-linecap="round" stroke-linejoin="round" stroke-miterlimit="10" stroke-width="2"/>
          </g>
          <g id="g5884" transform="translate(12.284 36.393)">
            <path id="path5886" d="M-51.841-39.448a4.435,4.435,0,0,1-3.977,2.47,4.436,4.436,0,0,1-4.436-4.436,4.436,4.436,0,0,1,4.436-4.436A4.421,4.421,0,0,1-52.73-44.6l-3.1,3.5" transform="translate(60.253 45.849)" fill="none" stroke="#000" stroke-linecap="round" stroke-linejoin="round" stroke-miterlimit="10" stroke-width="2"/>
          </g>
          <g id="g5888" transform="translate(24.679 56.43)">
            <path id="path5890" d="M-246.353-177.183h-34a2.864,2.864,0,0,1-2.844-2.524l-3.135-26.229h45.957l-3.135,26.229a2.864,2.864,0,0,1-2.844,2.524" transform="translate(286.331 205.935)" fill="#e66631"/>
          </g>
          <g id="g5892" transform="translate(49.49 59.694)">
            <path id="path5894" d="M-122.927-41.575l-.752,6.3-18-7.221a1.91,1.91,0,0,1-1.06-2.484l.859-2.14a1.908,1.908,0,0,1,2.482-1.06Z" transform="translate(142.875 48.321)" fill="#c44713"/>
          </g>
          <g id="g5896" transform="translate(25.876 59.694)">
            <path id="path5898" d="M-115.534-35.868l-18,7.223-.752-6.3,16.467-6.609a1.91,1.91,0,0,1,2.484,1.06l.859,2.14a1.909,1.909,0,0,1-1.062,2.482" transform="translate(134.282 41.688)" fill="#c44713"/>
          </g>
          <g id="g5900" transform="translate(59.366 56.43)">
            <path id="path5902" d="M-69.445,0l-3.136,26.228a2.863,2.863,0,0,1-2.843,2.524h-5.291a2.863,2.863,0,0,0,2.845-2.524L-74.734,0Z" transform="translate(80.714)" fill="#c44713"/>
          </g>
          <g id="g5904" transform="translate(24.679 56.43)">
            <path id="path5906" d="M-246.353-177.183h-34a2.864,2.864,0,0,1-2.844-2.524l-3.135-26.229h45.957l-3.135,26.229A2.864,2.864,0,0,1-246.353-177.183Z" transform="translate(286.331 205.935)" fill="none" stroke="#000" stroke-linecap="round" stroke-linejoin="round" stroke-miterlimit="10" stroke-width="2"/>
          </g>
          <g id="g5908" transform="translate(21.691 49.571)">
            <path id="path5910" d="M-302.364-56.045h-46.2a2.864,2.864,0,0,1-2.864-2.864v-3.367a2.864,2.864,0,0,1,2.864-2.864h46.2a2.864,2.864,0,0,1,2.864,2.864v3.367a2.864,2.864,0,0,1-2.864,2.864" transform="translate(351.431 65.14)" fill="#e66631"/>
          </g>
          <g id="g5912" transform="translate(65.038 49.571)">
            <path id="path5914" d="M-52.9-17.649v3.366a2.864,2.864,0,0,1-2.864,2.864h-5.721a2.864,2.864,0,0,0,2.864-2.864v-3.366a2.864,2.864,0,0,0-2.864-2.864h5.721A2.864,2.864,0,0,1-52.9-17.649" transform="translate(61.487 20.513)" fill="#c44713"/>
          </g>
          <g id="g5916" transform="translate(21.691 49.571)">
            <path id="path5918" d="M-203.156,0h-30.1a2.864,2.864,0,0,0-2.864,2.864V6.231a2.864,2.864,0,0,0,2.864,2.864h46.2a2.864,2.864,0,0,0,2.864-2.864V2.864A2.864,2.864,0,0,0-187.056,0h-9.207" transform="translate(236.123)" fill="none" stroke="#000" stroke-linecap="round" stroke-linejoin="round" stroke-miterlimit="10" stroke-width="2"/>
          </g>
          <g id="g5920" transform="translate(49.49 55.988)">
            <path id="path5922" d="M-153.873-94.666l-23.771-9.54a1.909,1.909,0,0,1-1.061-2.483l.859-2.14a1.91,1.91,0,0,1,2.483-1.061l23.771,9.54a1.91,1.91,0,0,1,1.061,2.483l-.859,2.14a1.909,1.909,0,0,1-2.483,1.061" transform="translate(178.843 110.029)" fill="#fde265"/>
          </g>
          <g id="g5924" transform="translate(70.5 64.077)">
            <path id="path5926" d="M-45-25.1l-.859,2.141A1.91,1.91,0,0,1-48.345-21.9l-3.961-1.589a1.91,1.91,0,0,0,2.483-1.061l.859-2.141a1.91,1.91,0,0,0-1.061-2.483l3.961,1.589A1.91,1.91,0,0,1-45-25.1" transform="translate(52.305 29.169)" fill="#fdd330"/>
          </g>
          <g id="g5928" transform="translate(49.49 55.988)">
            <path id="path5930" d="M-153.873-94.666l-23.771-9.54a1.909,1.909,0,0,1-1.061-2.483l.859-2.14a1.91,1.91,0,0,1,2.483-1.061l23.771,9.54a1.91,1.91,0,0,1,1.061,2.483l-.859,2.14A1.909,1.909,0,0,1-153.873-94.666Z" transform="translate(178.843 110.029)" fill="none" stroke="#000" stroke-linecap="round" stroke-linejoin="round" stroke-miterlimit="10" stroke-width="2"/>
          </g>
          <g id="g5932" transform="translate(17.374 55.988)">
            <path id="path5934" d="M-153.872-.85l-23.771,9.54a1.91,1.91,0,0,0-1.061,2.483l.859,2.14a1.909,1.909,0,0,0,2.483,1.061l23.771-9.54a1.91,1.91,0,0,0,1.061-2.483l-.859-2.14A1.909,1.909,0,0,0-153.872-.85" transform="translate(178.843 0.988)" fill="#fde265"/>
          </g>
          <g id="g5936" transform="translate(38.384 55.988)">
            <path id="path5938" d="M-45-20.577l-.859-2.141a1.91,1.91,0,0,0-2.483-1.061l-3.961,1.59a1.91,1.91,0,0,1,2.483,1.061l.859,2.14A1.91,1.91,0,0,1-50.024-16.5l3.961-1.589A1.91,1.91,0,0,0-45-20.577" transform="translate(52.305 23.917)" fill="#fdd330"/>
          </g>
          <g id="g5940" transform="translate(17.374 55.988)">
            <path id="path5942" d="M-153.872-.85l-23.771,9.54a1.91,1.91,0,0,0-1.061,2.483l.859,2.14a1.909,1.909,0,0,0,2.483,1.061l23.771-9.54a1.91,1.91,0,0,0,1.061-2.483l-.859-2.14A1.909,1.909,0,0,0-153.872-.85Z" transform="translate(178.843 0.988)" fill="none" stroke="#000" stroke-linecap="round" stroke-linejoin="round" stroke-miterlimit="10" stroke-width="2"/>
          </g>
          <g id="g5944" transform="translate(34.465 70.343)">
            <path id="path5946" d="M-33.4-91.448h-5.419v-12.13a2.71,2.71,0,0,1,2.71-2.71,2.71,2.71,0,0,1,2.71,2.71Z" transform="translate(38.815 106.288)" fill="#685e67"/>
          </g>
          <g id="g5948" transform="translate(34.465 70.343)">
            <path id="path5950" d="M-33.4-91.448h-5.419v-12.13a2.71,2.71,0,0,1,2.71-2.71,2.71,2.71,0,0,1,2.71,2.71Z" transform="translate(38.815 106.288)" fill="none" stroke="#000" stroke-linecap="round" stroke-linejoin="round" stroke-miterlimit="10" stroke-width="2"/>
          </g>
          <g id="g5952" transform="translate(44.948 70.343)">
            <path id="path5954" d="M-33.4-91.448h-5.419v-12.13a2.71,2.71,0,0,1,2.71-2.71,2.71,2.71,0,0,1,2.71,2.71Z" transform="translate(38.815 106.288)" fill="#685e67"/>
          </g>
          <g id="g5956" transform="translate(44.948 70.343)">
            <path id="path5958" d="M-33.4-91.448h-5.419v-12.13a2.71,2.71,0,0,1,2.71-2.71,2.71,2.71,0,0,1,2.71,2.71Z" transform="translate(38.815 106.288)" fill="none" stroke="#000" stroke-linecap="round" stroke-linejoin="round" stroke-miterlimit="10" stroke-width="2"/>
          </g>
          <g id="g5960" transform="translate(55.43 70.343)">
            <path id="path5962" d="M-33.394-91.448h-5.419v-12.13a2.709,2.709,0,0,1,2.71-2.71,2.71,2.71,0,0,1,2.71,2.71Z" transform="translate(38.813 106.288)" fill="#685e67"/>
          </g>
          <g id="g5964" transform="translate(55.43 70.343)">
            <path id="path5966" d="M-33.394-91.448h-5.419v-12.13a2.709,2.709,0,0,1,2.71-2.71,2.71,2.71,0,0,1,2.71,2.71Z" transform="translate(38.813 106.288)" fill="none" stroke="#000" stroke-linecap="round" stroke-linejoin="round" stroke-miterlimit="10" stroke-width="2"/>
          </g>
          <g id="g5968" transform="translate(17.049 13.149)">
            <path id="path5970" d="M-184.008-5.028l1.214,6.887a.987.987,0,0,1-.8,1.144l-4.437.782,2.659,15.08a.987.987,0,0,1-.8,1.144l-17.083,3.012a.987.987,0,0,1-1.144-.8l-2.659-15.08-4.437.782a.987.987,0,0,1-1.144-.8L-213.853.235a.987.987,0,0,1,.8-1.144l8.129-1.433a.977.977,0,0,1,1.059.541,5.13,5.13,0,0,0,5.549,2.9,5.131,5.131,0,0,0,4.224-4.624.977.977,0,0,1,.81-.871l8.13-1.433a.987.987,0,0,1,1.144.8" transform="translate(213.868 5.843)" fill="#fcdd45"/>
          </g>
          <g id="g5972" transform="translate(38.318 13.148)">
            <path id="path5974" d="M-52.95-5.034l1.214,6.884a.989.989,0,0,1-.8,1.145l-4.437.782,2.659,15.081a.986.986,0,0,1-.8,1.143l-4.715.832a.986.986,0,0,0,.8-1.143l-2.5-14.164a.931.931,0,0,1,.755-1.078l3.52-.621a.987.987,0,0,0,.8-1.143L-57.667-4.2A.988.988,0,0,0-58.81-5l4.715-.831a.988.988,0,0,1,1.145.8" transform="translate(61.542 5.851)" fill="#f8c52d"/>
          </g>
          <g id="g5976" transform="translate(17.049 13.149)">
            <path id="path5978" d="M-184.008-5.028l1.214,6.887a.987.987,0,0,1-.8,1.144l-4.437.782,2.659,15.08a.987.987,0,0,1-.8,1.144l-17.083,3.012a.987.987,0,0,1-1.144-.8l-2.659-15.08-4.437.782a.987.987,0,0,1-1.144-.8L-213.853.235a.987.987,0,0,1,.8-1.144l8.129-1.433a.977.977,0,0,1,1.059.541,5.13,5.13,0,0,0,5.549,2.9,5.131,5.131,0,0,0,4.224-4.624.977.977,0,0,1,.81-.871l8.13-1.433A.987.987,0,0,1-184.008-5.028Z" transform="translate(213.868 5.843)" fill="none" stroke="#000" stroke-linecap="round" stroke-linejoin="round" stroke-miterlimit="10" stroke-width="2"/>
          </g>
          <g id="g5980" transform="translate(30.447 24.28)">
            <path id="path5982" d="M0-23.273l2.753,2.153,3.7-5.93" transform="translate(0 27.049)" fill="none" stroke="#000" stroke-linecap="round" stroke-linejoin="round" stroke-miterlimit="10" stroke-width="2"/>
          </g>
          <g id="g5984" transform="translate(54.516 10.132)">
            <path id="path5986" d="M-124.85-59.19l-20.26-3.063.869-5.751a.931.931,0,0,1,1.059-.781L-124.762-66a.931.931,0,0,1,.781,1.059Z" transform="translate(145.11 68.796)" fill="#c9f0fd"/>
          </g>
          <g id="g5988" transform="translate(70.624 12.3)">
            <path id="path5990" d="M-30.946-10.4l-.869,5.75-4.153-.628.869-5.75a.931.931,0,0,0-.781-1.059l4.153.628a.931.931,0,0,1,.781,1.059" transform="translate(35.968 12.084)" fill="#9ce6fb"/>
          </g>
          <g id="g5992" transform="translate(54.516 10.132)">
            <path id="path5994" d="M-124.85-59.19l-20.26-3.063.869-5.751a.931.931,0,0,1,1.059-.781L-124.762-66a.931.931,0,0,1,.781,1.059Z" transform="translate(145.11 68.796)" fill="none" stroke="#000" stroke-linecap="round" stroke-linejoin="round" stroke-miterlimit="10" stroke-width="2"/>
          </g>
          <g id="g5996" transform="translate(50.85 14.489)">
            <path id="path5998" d="M-23.887-4.88l-3.866,25.571a.931.931,0,0,0,.781,1.059l5.625.851a.931.931,0,0,0,1.032-.657l5.594-18.92-.249,19.728a.931.931,0,0,0,.792.932l5.626.85a.931.931,0,0,0,1.059-.781L-3.627-1.817a.931.931,0,0,0-.781-1.059l-18.42-2.785a.931.931,0,0,0-1.059.781" transform="translate(27.764 5.672)" fill="#21c1f8"/>
          </g>
          <g id="g6000" transform="translate(65.91 16.656)">
            <path id="path6002" d="M-55.928-10.4l-3.866,25.571a.931.931,0,0,1-1.059.781L-65,15.329a.931.931,0,0,0,1.059-.781l3.866-25.571a.931.931,0,0,0-.781-1.059l4.151.628a.931.931,0,0,1,.781,1.059" transform="translate(65.004 12.083)" fill="#1faaee"/>
          </g>
          <g id="g6004" transform="translate(50.85 14.489)">
            <path id="path6006" d="M-133.589-123.955l2.458-16.26a.931.931,0,0,0-.781-1.059l-18.42-2.785a.931.931,0,0,0-1.059.781l-3.866,25.571a.931.931,0,0,0,.781,1.059l5.625.851a.931.931,0,0,0,1.032-.657l5.594-18.92-.249,19.728a.931.931,0,0,0,.792.932l5.626.85a.931.931,0,0,0,1.059-.781l.385-2.549" transform="translate(155.268 144.07)" fill="none" stroke="#000" stroke-linecap="round" stroke-linejoin="round" stroke-miterlimit="10" stroke-width="2"/>
          </g>
          <g id="g6008" transform="translate(63.893 16.335)">
            <path id="path6010" d="M0-42.21l1.035-6.85" transform="translate(0 49.06)" fill="none" stroke="#000" stroke-linecap="round" stroke-linejoin="round" stroke-miterlimit="10" stroke-width="2"/>
          </g>
          <g id="g6012" transform="translate(69.728 16.639)">
            <path id="path6014" d="M-1.32,0l-.165,1.089A4.377,4.377,0,0,0,1.232,5.813l1.722.682" transform="translate(1.534)" fill="none" stroke="#000" stroke-linecap="round" stroke-linejoin="round" stroke-miterlimit="10" stroke-width="2"/>
          </g>
          <g id="g6016" transform="translate(54.046 15.144)">
            <path id="path6018" d="M-36.992,0l-.165,1.089A4.376,4.376,0,0,1-41.148,4.8l-1.846.142" transform="translate(42.995)" fill="none" stroke="#000" stroke-linecap="round" stroke-linejoin="round" stroke-miterlimit="10" stroke-width="2"/>
          </g>
          <g id="g6020" transform="translate(68.412 12.051)">
            <path id="path6022" d="M-4.059,0l-.659,4.357" transform="translate(4.717)" fill="none" stroke="#000" stroke-linecap="round" stroke-linejoin="round" stroke-miterlimit="10" stroke-width="2"/>
          </g>
          <g id="g6024" transform="translate(61.579 11.018)">
            <path id="path6026" d="M0-26.849l.659-4.357" transform="translate(0 31.207)" fill="none" stroke="#000" stroke-linecap="round" stroke-linejoin="round" stroke-miterlimit="10" stroke-width="2"/>
          </g>
        </g>
      </g>
    </g>
  </g>
</svg>
