<svg xmlns="http://www.w3.org/2000/svg" xmlns:xlink="http://www.w3.org/1999/xlink" width="132.107" height="132.107" viewBox="0 0 132.107 132.107">
  <defs>
    <filter id="Elipse_8045" x="0" y="0" width="132.107" height="132.107" filterUnits="userSpaceOnUse">
      <feOffset dy="3" input="SourceAlpha"/>
      <feGaussianBlur stdDeviation="3" result="blur"/>
      <feFlood flood-opacity="0.161"/>
      <feComposite operator="in" in2="blur"/>
      <feComposite in="SourceGraphic"/>
    </filter>
  </defs>
  <g id="Grupo_1047344" data-name="Grupo 1047344" transform="translate(-1151.843 -1512.502)">
    <g transform="matrix(1, 0, 0, 1, 1151.84, 1512.5)" filter="url(#Elipse_8045)">
      <circle id="Elipse_8045-2" data-name="Elipse 8045" cx="57.054" cy="57.054" r="57.054" transform="translate(9 6)" fill="#ffc5ad"/>
    </g>
    <g id="produccion_5_" data-name="produccion (5)" transform="translate(1166.843 1524.502)">
      <g id="Grupo_1047373" data-name="Grupo 1047373" transform="translate(1.633 1.633)">
        <g id="Grupo_1047351" data-name="Grupo 1047351" transform="translate(57.142 3.265)">
          <path id="Trazado_779072" data-name="Trazado 779072" d="M37.224,19.359l-.914-3.722A9.627,9.627,0,0,1,36,13.171,10.145,10.145,0,0,1,46.171,3h9.045A10.173,10.173,0,0,1,65.387,13.171a9.627,9.627,0,0,1-.31,2.465l-.914,3.69v.033a3.18,3.18,0,0,0-.408-.033H60.489a3.275,3.275,0,0,0-3.265-3.265H54.955A19.5,19.5,0,0,1,44.163,12.8l-2.3,2.3a3.275,3.275,0,0,0-.963,2.318v1.91H37.633a3.18,3.18,0,0,0-.408.033Z" transform="translate(-36 -3)" fill="#656d78"/>
        </g>
        <g id="Grupo_1047352" data-name="Grupo 1047352" transform="translate(50.611 39.493)">
          <path id="Trazado_779073" data-name="Trazado 779073" d="M40.163,49.418a4.617,4.617,0,0,1,.669-.049h2.6v8.163h-4.9A6.529,6.529,0,0,1,32,51V36.847A11.436,11.436,0,0,1,42.286,25.484l2.906-.294,3.135,7.853,4.9-3.265,4.9,3.265,3.135-7.853,2.906.294A11.436,11.436,0,0,1,74.448,36.847V51a6.529,6.529,0,0,1-6.53,6.53h-4.9V49.369h2.6a4.617,4.617,0,0,1,.669.049V39.573a1.637,1.637,0,0,0-1.633-1.633H41.8a1.637,1.637,0,0,0-1.633,1.633Z" transform="translate(-32 -25.19)" fill="#fcd770"/>
        </g>
        <g id="Grupo_1047353" data-name="Grupo 1047353" transform="translate(63.803 39.183)">
          <path id="Trazado_779074" data-name="Trazado 779074" d="M48.113,28.265,53.01,25l3.135.31L53.01,33.163l-4.9-3.265-4.9,3.265L40.08,25.31,43.215,25Z" transform="translate(-40.08 -25)" fill="#ffc729"/>
        </g>
        <g id="Grupo_1047354" data-name="Grupo 1047354" transform="translate(58.774 52.244)">
          <path id="Trazado_779075" data-name="Trazado 779075" d="M61.489,33H38.633A1.637,1.637,0,0,0,37,34.633v9.845a4.617,4.617,0,0,1,.669-.049h5.045a4.082,4.082,0,0,1,0,8.163H57.408a4.082,4.082,0,0,1,0-8.163h5.045a4.617,4.617,0,0,1,.669.049V34.633A1.637,1.637,0,0,0,61.489,33Z" transform="translate(-37 -33)" fill="#d3a06c"/>
        </g>
        <g id="Grupo_1047355" data-name="Grupo 1047355" transform="translate(68.57 52.244)">
          <path id="Trazado_779076" data-name="Trazado 779076" d="M49.53,33v4.9A1.637,1.637,0,0,1,47.9,39.53H44.633A1.637,1.637,0,0,1,43,37.9V33Z" transform="translate(-43 -33)" fill="#b27946"/>
        </g>
        <g id="Grupo_1047356" data-name="Grupo 1047356" transform="translate(75.101 63.672)">
          <path id="Trazado_779077" data-name="Trazado 779077" d="M53.53,40v8.163H51.082a4.082,4.082,0,0,1,0-8.163Z" transform="translate(-47 -40)" fill="#f0d0b4"/>
        </g>
        <g id="Grupo_1047357" data-name="Grupo 1047357" transform="translate(62.04 63.672)">
          <path id="Trazado_779078" data-name="Trazado 779078" d="M44.339,41.192a4.087,4.087,0,0,1-2.89,6.971H39V40h2.449A4.085,4.085,0,0,1,44.339,41.192Z" transform="translate(-39 -40)" fill="#f0d0b4"/>
        </g>
        <g id="Grupo_1047358" data-name="Grupo 1047358" transform="translate(81.631 19.591)">
          <path id="Trazado_779079" data-name="Trazado 779079" d="M54.673,13.033a3.262,3.262,0,0,1,2.857,3.233,3.289,3.289,0,0,1-3.265,3.265H51V13h3.265A3.18,3.18,0,0,1,54.673,13.033Z" transform="translate(-51 -13)" fill="#f0d0b4"/>
        </g>
        <g id="Grupo_1047359" data-name="Grupo 1047359" transform="translate(62.04 13.061)">
          <path id="Trazado_779080" data-name="Trazado 779080" d="M58.591,22.061V22.7a11.049,11.049,0,0,1-4.9,9.159v3.265l-4.9,3.265-4.9-3.265V31.857A11.014,11.014,0,0,1,39,22.7V13.62a3.275,3.275,0,0,1,.963-2.318l2.3-2.3a19.5,19.5,0,0,0,10.792,3.265h2.269a3.275,3.275,0,0,1,3.265,3.265Z" transform="translate(-39 -9)" fill="#f0d0b4"/>
        </g>
        <g id="Grupo_1047360" data-name="Grupo 1047360" transform="translate(55.509 19.591)">
          <path id="Trazado_779081" data-name="Trazado 779081" d="M37.857,13.033A3.18,3.18,0,0,1,38.265,13H41.53v6.53H38.265A3.289,3.289,0,0,1,35,16.265,3.262,3.262,0,0,1,37.857,13.033Z" transform="translate(-35 -13)" fill="#f0d0b4"/>
        </g>
        <g id="Grupo_1047361" data-name="Grupo 1047361" transform="translate(3.265)">
          <path id="Trazado_779082" data-name="Trazado 779082" d="M35.652,2.633V5.9A1.637,1.637,0,0,1,34.02,7.53H4.633A1.637,1.637,0,0,1,3,5.9V2.633A1.637,1.637,0,0,1,4.633,1H34.02A1.637,1.637,0,0,1,35.652,2.633Z" transform="translate(-3 -1)" fill="#aab2bd"/>
        </g>
        <g id="Grupo_1047362" data-name="Grupo 1047362" transform="translate(16.326 6.53)">
          <path id="Trazado_779083" data-name="Trazado 779083" d="M11,5h6.53V18.061H11Z" transform="translate(-11 -5)" fill="#ccd1d9"/>
        </g>
        <g id="Grupo_1047363" data-name="Grupo 1047363" transform="translate(14.694 19.591)">
          <path id="Trazado_779084" data-name="Trazado 779084" d="M19.8,14.633v1.633a4.9,4.9,0,1,1-9.8,0V14.633A1.637,1.637,0,0,1,11.633,13h6.53A1.637,1.637,0,0,1,19.8,14.633Z" transform="translate(-10 -13)" fill="#aab2bd"/>
        </g>
        <g id="Grupo_1047364" data-name="Grupo 1047364" transform="translate(13.061 37.55)">
          <path id="Trazado_779085" data-name="Trazado 779085" d="M22.061,32.555v6.139H9V32.555a1.59,1.59,0,0,1,.033-.392,5.8,5.8,0,0,1,3.233-4.9V25.633A1.637,1.637,0,0,1,13.9,24h3.265A1.637,1.637,0,0,1,18.8,25.633v1.633a5.986,5.986,0,0,1,3.233,4.9A1.59,1.59,0,0,1,22.061,32.555Z" transform="translate(-9 -24)" fill="#e6e9ed"/>
        </g>
        <g id="Grupo_1047365" data-name="Grupo 1047365" transform="translate(3.265 53.877)">
          <path id="Trazado_779086" data-name="Trazado 779086" d="M29.285,42.163A2.642,2.642,0,0,1,26.82,40.5l-2.6-6.5-2.6,6.5a2.642,2.642,0,0,1-2.465,1.665H3v14.22c.18-.212.359-.408.555-.6a13.085,13.085,0,0,1,9.241-3.82H45.448v-9.8Z" transform="translate(-3 -34)" fill="#d3a06c"/>
        </g>
        <g id="Grupo_1047366" data-name="Grupo 1047366" transform="translate(24.489 52.244)">
          <path id="Trazado_779087" data-name="Trazado 779087" d="M17.633,33H35.591a2.683,2.683,0,0,1,2.367,1.453l2.253,4.522a2.642,2.642,0,0,1-2.367,3.82H21.061A2.642,2.642,0,0,1,18.6,41.13l-2.6-6.5V33Z" transform="translate(-16 -33)" fill="#b27946"/>
        </g>
        <g id="Grupo_1047367" data-name="Grupo 1047367" transform="translate(0 52.244)">
          <path id="Trazado_779088" data-name="Trazado 779088" d="M25.489,33v1.633l-2.6,6.5A2.642,2.642,0,0,1,20.428,42.8H3.645a2.642,2.642,0,0,1-2.367-3.82l2.253-4.522A2.683,2.683,0,0,1,5.9,33H25.489Z" transform="translate(-1 -33)" fill="#b27946"/>
        </g>
        <g id="Grupo_1047368" data-name="Grupo 1047368" transform="translate(0 71.835)">
          <path id="Trazado_779089" data-name="Trazado 779089" d="M85.9,45a13.061,13.061,0,1,1,0,26.122H14.061a13.059,13.059,0,0,1-9.8-21.7c.18-.212.359-.408.555-.6A13.085,13.085,0,0,1,14.061,45H85.9Z" transform="translate(-1 -45)" fill="#ccd1d9"/>
        </g>
        <g id="Grupo_1047369" data-name="Grupo 1047369" transform="translate(75.101 78.366)">
          <circle id="Elipse_8048" data-name="Elipse 8048" cx="6.5" cy="6.5" r="6.5" transform="translate(0.267 0.001)" fill="#969faa"/>
        </g>
        <g id="Grupo_1047370" data-name="Grupo 1047370" transform="translate(53.877 78.366)">
          <circle id="Elipse_8049" data-name="Elipse 8049" cx="6.5" cy="6.5" r="6.5" transform="translate(0.491 0.001)" fill="#969faa"/>
        </g>
        <g id="Grupo_1047371" data-name="Grupo 1047371" transform="translate(31.02 78.366)">
          <circle id="Elipse_8050" data-name="Elipse 8050" cx="6.5" cy="6.5" r="6.5" transform="translate(0.348 0.001)" fill="#969faa"/>
        </g>
        <g id="Grupo_1047372" data-name="Grupo 1047372" transform="translate(9.796 78.366)">
          <circle id="Elipse_8051" data-name="Elipse 8051" cx="6.5" cy="6.5" r="6.5" transform="translate(-0.429 0.001)" fill="#969faa"/>
        </g>
      </g>
      <g id="Grupo_1047374" data-name="Grupo 1047374" transform="translate(0 0)">
        <path id="Trazado_779090" data-name="Trazado 779090" d="M79.468,48a8.178,8.178,0,0,0-8,6.53H66.242a8.163,8.163,0,0,0-16,0h-6.86a8.163,8.163,0,0,0-16,0H22.161a8.163,8.163,0,1,0,0,3.265h5.228a8.163,8.163,0,0,0,16,0h6.86a8.163,8.163,0,0,0,16,0H71.47a8.163,8.163,0,1,0,8-9.8Zm-65.3,13.061a4.9,4.9,0,1,1,4.9-4.9A4.9,4.9,0,0,1,14.163,61.061Zm21.224,0a4.9,4.9,0,1,1,4.9-4.9A4.9,4.9,0,0,1,35.387,61.061Zm22.857,0a4.9,4.9,0,1,1,4.9-4.9A4.9,4.9,0,0,1,58.244,61.061Zm21.224,0a4.9,4.9,0,1,1,4.9-4.9A4.9,4.9,0,0,1,79.468,61.061Z" transform="translate(3.796 30.366)"/>
        <path id="Trazado_779091" data-name="Trazado 779091" d="M93.091,73.4a8.127,8.127,0,0,0,3.234-6.464V52.791a13.018,13.018,0,0,0-11.761-13L80,39.338v-.952a12.583,12.583,0,0,0,4.841-9h1.69a4.881,4.881,0,0,0,2.343-9.172l.57-2.279A11.807,11.807,0,0,0,77.986,3.265H68.951A11.807,11.807,0,0,0,57.494,17.936l.57,2.279a4.881,4.881,0,0,0,2.343,9.172H62.1a12.589,12.589,0,0,0,4.841,9v.952l-4.565.457a13.018,13.018,0,0,0-11.761,13v3.966l-1.074-2.149a4.252,4.252,0,0,0-3.824-2.364H29.387V48.27l1.829-1.1A13.049,13.049,0,0,0,28.628,23.6l-.873-.291v-.457a3.255,3.255,0,0,0-1.633-2.811V9.8h9.8a3.269,3.269,0,0,0,3.265-3.265V3.265A3.269,3.269,0,0,0,35.918,0H6.53A3.269,3.269,0,0,0,3.265,3.265V6.531A3.269,3.269,0,0,0,6.53,9.8h9.8v10.25a3.255,3.255,0,0,0-1.633,2.811v.457l-.873.291a13.049,13.049,0,0,0-2.588,23.569l1.829,1.1v3.974H6.53a4.253,4.253,0,0,0-3.824,2.362L.451,59.119a4.263,4.263,0,0,0,2.815,6.052V77.313a14.679,14.679,0,0,0,11.428,23.91H86.529A14.682,14.682,0,0,0,93.091,73.4ZM68.152,42.5l3.6,2.4L69.339,46.5l-1.585-3.966Zm10.632,0,.4.039L77.6,46.5,75.187,44.9Zm7.745-16.377H84.9V22.857h1.633a1.633,1.633,0,1,1,0,3.265ZM68.951,6.53h9.035a8.545,8.545,0,0,1,8.289,10.615l-.612,2.446H84.594A4.891,4.891,0,0,0,80,16.326H77.719a17.768,17.768,0,0,1-9.879-2.991l-1.113-.743-3.255,3.255a4.872,4.872,0,0,0-1.432,3.463v.281h-.766l-.612-2.446A8.545,8.545,0,0,1,68.951,6.53ZM58.774,24.489a1.634,1.634,0,0,1,1.633-1.633H62.04v3.265H60.407A1.634,1.634,0,0,1,58.774,24.489ZM65.3,28.4V19.312a1.645,1.645,0,0,1,.478-1.154l1.394-1.394a21,21,0,0,0,10.543,2.828H80a1.634,1.634,0,0,1,1.633,1.633V28.4a9.343,9.343,0,0,1-4.171,7.793l-.727.485v3.265l-3.265,2.176L70.2,39.942V36.677l-.727-.485A9.346,9.346,0,0,1,65.3,28.4ZM53.877,52.791A9.765,9.765,0,0,1,62.7,43.044l1.673-.168,3.43,8.576,5.667-3.776,5.667,3.776,3.43-8.576,1.673.168a9.765,9.765,0,0,1,8.821,9.747V66.938a4.9,4.9,0,0,1-4.9,4.9H84.9v-4.9h.957a3.915,3.915,0,0,1,2.787,1.154l2.31-2.309a7.154,7.154,0,0,0-2.789-1.7V55.509a3.255,3.255,0,0,0-1.611-2.8,3.9,3.9,0,0,1,1.135-2.576l-2.31-2.309a7.125,7.125,0,0,0-2.044,4.42H63.607a7.126,7.126,0,0,0-2.044-4.42l-2.31,2.309a3.9,3.9,0,0,1,1.135,2.576,3.253,3.253,0,0,0-1.613,2.8V64.08a7.154,7.154,0,0,0-2.789,1.7l2.31,2.309a3.915,3.915,0,0,1,2.787-1.154h.957v4.9H58.774a4.9,4.9,0,0,1-4.9-4.9ZM66.121,66.938a2.449,2.449,0,0,1,0,4.9H65.3v-4.9Zm0-3.265H62.04V55.509h6.53v3.265a3.269,3.269,0,0,0,3.265,3.265H75.1a3.269,3.269,0,0,0,3.265-3.265V55.509H84.9v8.163H80.815A5.72,5.72,0,0,0,75.1,69.386a5.656,5.656,0,0,0,.573,2.449H71.262a5.656,5.656,0,0,0,.573-2.449,5.72,5.72,0,0,0-5.714-5.714Zm5.714-8.163H75.1v3.265H71.835Zm6.53,13.877a2.452,2.452,0,0,1,2.449-2.449h.816v4.9h-.816A2.452,2.452,0,0,1,78.366,69.386ZM50.611,64.365v2.573a8.079,8.079,0,0,0,1.675,4.9H48.979V65.171A4.244,4.244,0,0,0,50.611,64.365Zm-29.544.94a4.241,4.241,0,0,0,3.422-1.726v8.256h-9.8A14.607,14.607,0,0,0,6.53,74.32V65.3Zm6.687-1.724A4.244,4.244,0,0,0,31.177,65.3H45.713v6.53H27.755Zm18.862-7.513,2.256,4.513a1,1,0,0,1,.106.451A1.01,1.01,0,0,1,47.97,62.04H31.177a1,1,0,0,1-.937-.635l-2.359-5.9H45.713A1,1,0,0,1,46.616,56.068ZM19.591,16.326h3.265v3.265H19.591Zm-1.633,6.53h6.53v1.633a3.265,3.265,0,0,1-6.53,0ZM6.53,3.265H35.918l0,3.265H6.53ZM22.857,9.8v3.265H19.591V9.8ZM8.163,35.983a9.776,9.776,0,0,1,6.69-9.283l.229-.077a6.489,6.489,0,0,0,12.284,0l.229.077a9.785,9.785,0,0,1,1.94,17.673l-.738.442a7.479,7.479,0,0,0-2.674-3.3v-.7a3.269,3.269,0,0,0-3.265-3.265H19.591a3.269,3.269,0,0,0-3.265,3.265v.7a7.479,7.479,0,0,0-2.674,3.3l-.738-.442a9.834,9.834,0,0,1-4.751-8.392Zm8.163,11.748a4.253,4.253,0,0,1,2.362-3.824l.9-.451V40.816h3.265v2.642l.9.451a4.255,4.255,0,0,1,2.362,3.824v3.381l-.452,1.131H16.326ZM3.371,60.578l2.256-4.513a1.006,1.006,0,0,1,.9-.557H24.364L22,61.4a1,1,0,0,1-.937.635H4.274a1.01,1.01,0,0,1-.9-1.461ZM86.529,97.957H14.694a11.428,11.428,0,1,1,0-22.857H86.529a11.428,11.428,0,1,1,0,22.857Z" transform="translate(0 0)"/>
        <path id="Trazado_779092" data-name="Trazado 779092" d="M46.713,21.713a5.531,5.531,0,0,0,3.941-1.633l.478-.478-2.309-2.309-.478.478a2.362,2.362,0,0,1-3.265,0l-.478-.478L42.293,19.6l.477.478A5.537,5.537,0,0,0,46.713,21.713Z" transform="translate(26.756 10.94)"/>
      </g>
    </g>
  </g>
</svg>
