<svg xmlns="http://www.w3.org/2000/svg" xmlns:xlink="http://www.w3.org/1999/xlink" width="120" height="120" viewBox="0 0 120 120">
  <defs>
    <filter id="Elipse_8081" x="0" y="0" width="120" height="120" filterUnits="userSpaceOnUse">
      <feOffset dy="3" input="SourceAlpha"/>
      <feGaussianBlur stdDeviation="3" result="blur"/>
      <feFlood flood-opacity="0.161"/>
      <feComposite operator="in" in2="blur"/>
      <feComposite in="SourceGraphic"/>
    </filter>
  </defs>
  <g id="Grupo_1054443" data-name="Grupo 1054443" transform="translate(-13511.5 -2094.132)">
    <g transform="matrix(1, 0, 0, 1, 13511.5, 2094.13)" filter="url(#Elipse_8081)">
      <circle id="Elipse_8081-2" data-name="Elipse 8081" cx="51" cy="51" r="51" transform="translate(9 6)" fill="#ffc5ad"/>
    </g>
    <g id="hilo" transform="translate(13528.725 2097.024)">
      <path id="Trazado_787014" data-name="Trazado 787014" d="M69.287,120.173v-4.231a.83.83,0,0,0-.83-.83H54.85a.831.831,0,0,0-.83.83v4.231Z" transform="translate(-45.047 -87.482)" fill="#efe2dd"/>
      <path id="Trazado_787015" data-name="Trazado 787015" d="M54.02,463.722v4.248a.831.831,0,0,0,.83.83H68.456a.83.83,0,0,0,.83-.83v-4.248Z" transform="translate(-45.047 -378.19)" fill="#efe2dd"/>
      <path id="Trazado_787016" data-name="Trazado 787016" d="M59,120.173v-4.231a.831.831,0,0,1,.83-.83H54.85a.831.831,0,0,0-.83.83v4.231Z" transform="translate(-45.047 -87.482)" fill="#e1d3ce"/>
      <path id="Trazado_787017" data-name="Trazado 787017" d="M59,467.97v-4.248H54.02v4.248a.831.831,0,0,0,.83.83h4.983A.831.831,0,0,1,59,467.97Z" transform="translate(-45.047 -378.19)" fill="#e1d3ce"/>
      <path id="Trazado_787018" data-name="Trazado 787018" d="M35.729,198.426H9.991A2.492,2.492,0,0,1,7.5,195.935V148.076a2.491,2.491,0,0,1,2.491-2.491H35.729a2.491,2.491,0,0,1,2.491,2.491v47.858A2.492,2.492,0,0,1,35.729,198.426Z" transform="translate(-6.254 -112.895)" fill="#fff"/>
      <path id="Trazado_787019" data-name="Trazado 787019" d="M35.729,198.426H9.991A2.492,2.492,0,0,1,7.5,195.935V148.076a2.491,2.491,0,0,1,2.491-2.491H35.729a2.491,2.491,0,0,1,2.491,2.491v47.858A2.492,2.492,0,0,1,35.729,198.426Z" transform="translate(-6.254 -112.895)" fill="#47a920"/>
      <path id="Trazado_787020" data-name="Trazado 787020" d="M38.321,312.8V289.26l-3.528-3.528L7.881,312.645l-.26.462a2.491,2.491,0,0,0,2.471,2.189H35.83a2.491,2.491,0,0,0,2.491-2.491Z" transform="translate(-6.355 -229.764)" fill="#68ca44"/>
      <path id="Trazado_787021" data-name="Trazado 787021" d="M55.383,145.585H31.068l26.806,26.806V148.076A2.492,2.492,0,0,0,55.383,145.585Z" transform="translate(-25.908 -112.895)" fill="#4fc123"/>
      <path id="Trazado_787022" data-name="Trazado 787022" d="M245.864,130.634h39.193v53.939H245.864Z" transform="translate(-205.027 -100.427)" fill="#fe76a8"/>
      <path id="Trazado_787023" data-name="Trazado 787023" d="M245.864,130.634h6.672v53.939h-6.672Z" transform="translate(-205.027 -100.427)" fill="#fe5694"/>
      <path id="Trazado_787024" data-name="Trazado 787024" d="M268.256,97.35h-43.4a1.661,1.661,0,0,1-1.661-1.661V92.381a1.661,1.661,0,0,1,1.661-1.661h43.4a1.661,1.661,0,0,1,1.661,1.661v3.308A1.661,1.661,0,0,1,268.256,97.35Z" transform="translate(-186.121 -67.143)" fill="#dc8758"/>
      <path id="Trazado_787025" data-name="Trazado 787025" d="M231.5,95.689V92.381a1.661,1.661,0,0,1,1.661-1.661h-8.3a1.661,1.661,0,0,0-1.661,1.661v3.308a1.661,1.661,0,0,0,1.661,1.661h8.3A1.661,1.661,0,0,1,231.5,95.689Z" transform="translate(-186.121 -67.143)" fill="#d77f4a"/>
      <path id="Trazado_787026" data-name="Trazado 787026" d="M268.256,461.012h-43.4a1.661,1.661,0,0,1-1.661-1.661v-3.308a1.661,1.661,0,0,1,1.661-1.661h43.4a1.661,1.661,0,0,1,1.661,1.661v3.308A1.661,1.661,0,0,1,268.256,461.012Z" transform="translate(-186.121 -370.402)" fill="#dc8758"/>
      <path id="Trazado_787027" data-name="Trazado 787027" d="M231.5,459.351v-3.308a1.661,1.661,0,0,1,1.661-1.661h-8.3a1.661,1.661,0,0,0-1.661,1.661v3.308a1.661,1.661,0,0,0,1.661,1.661h8.3A1.661,1.661,0,0,1,231.5,459.351Z" transform="translate(-186.121 -370.402)" fill="#d77f4a"/>
      <path id="Trazado_787028" data-name="Trazado 787028" d="M29.475,31.445h-3.99V28.459a2.078,2.078,0,0,0-2.076-2.076H9.8a2.078,2.078,0,0,0-2.076,2.076v2.985H5.254V26.274a3.362,3.362,0,0,1,3.358-3.358H13.83a5.856,5.856,0,0,0,5.85-5.85V11.45a1.246,1.246,0,1,0-2.491,0v5.616a3.362,3.362,0,0,1-3.358,3.358H8.612a5.856,5.856,0,0,0-5.85,5.85v5.3A3.744,3.744,0,0,0,0,35.182V83.04a3.741,3.741,0,0,0,3.737,3.737h3.99v3A2.078,2.078,0,0,0,9.8,91.856H23.409a2.078,2.078,0,0,0,2.076-2.076v-3h3.99a3.741,3.741,0,0,0,3.737-3.737V35.182A3.742,3.742,0,0,0,29.475,31.445Zm-19.257-2.57H22.994v2.57H10.218ZM2.491,35.182a1.247,1.247,0,0,1,1.246-1.246h.907l.927.927-3.08,3.08Zm0,6.286,4.842-4.842,1.255,1.255-6.1,6.1Zm0,6.033.014-.013,7.845-7.845L11.606,40.9,2.491,50.012Zm0,5.9a1.241,1.241,0,0,0,.4-.268L13.368,42.659l1.255,1.255L2.491,56.046Zm0,6.056a1.241,1.241,0,0,0,.359-.249L16.385,45.676l1.241,1.241L2.491,62.051Zm0,6.115,16.9-16.9,1.255,1.255L2.491,68.085Zm0,6a1.245,1.245,0,0,0,.174-.144L22.4,51.7l1.255,1.255L2.491,74.119Zm0,6.064,22.93-22.93,1.255,1.255L2.491,80.153Zm7.838-1.8,8.448,8.448H16.258c-.024-.029-.05-.058-.078-.086L9.074,77.094ZM3.737,84.286a1.246,1.246,0,0,1-1.13-.725L4.3,81.873l2.413,2.413Zm2.32-4.175,1.255-1.255,5.43,5.43H10.232Zm16.936,9.253H10.218V86.778H22.994ZM22.3,84.286,12.092,74.077l1.255-1.255L24.811,84.286Zm8.42-3.619L24.958,74.9A1.246,1.246,0,1,0,23.2,76.666l7.2,7.2a1.242,1.242,0,0,1-.926.415H28.328c-.022-.026-.044-.051-.068-.075L15.108,71.059l1.241-1.241,2.612,2.612a1.246,1.246,0,0,0,1.762-1.762l-2.612-2.612L19.366,66.8,30.721,78.156Zm0-6.034L21.128,65.04l1.255-1.255,8.337,8.337Zm0-6.034-6.576-6.576L25.4,60.768l5.257,5.257c.02.02.042.038.063.057Zm0-6.034-3.558-3.558,1.276-1.276,2.282,2.282Zm0-6.076L8.168,33.936h2.511l19.99,19.99c.017.017.035.032.052.048Zm0-6.034L14.2,33.936h2.511L30.721,47.944Zm0-6.034L20.236,33.936h2.511l7.974,7.974Zm0-6.034-4.45-4.45h3.2a1.247,1.247,0,0,1,1.246,1.246Z" transform="translate(0 0)"/>
      <path id="Trazado_787029" data-name="Trazado 787029" d="M261.143,92.341H262a2.91,2.91,0,0,0,2.907-2.907V86.127A2.91,2.91,0,0,0,262,83.22H218.6a2.91,2.91,0,0,0-2.907,2.907v3.308a2.91,2.91,0,0,0,2.907,2.907h.859v51.282H218.6a2.91,2.91,0,0,0-2.907,2.907v3.308a2.91,2.91,0,0,0,2.907,2.907H262a2.91,2.91,0,0,0,2.907-2.907V146.53A2.91,2.91,0,0,0,262,143.623h-.859Zm-2.491,16.691v1.56h-36.7v-1.56Zm-36.7-2.491v-1.56h36.7v1.56Zm36.7,6.543v1.56h-36.7v-1.56Zm0,4.051v1.56h-36.7v-1.56Zm0,4.051v1.56h-36.7v-1.56Zm0,4.051v1.56h-36.7v-1.56Zm0,4.051v1.56h-36.7v-1.56Zm0,4.051v1.56h-36.7v-1.56Zm0-30.851h-36.7v-1.56h36.7Zm-36.7,34.9h36.7v1.56h-36.7Zm-3.766-47.958V86.127a.416.416,0,0,1,.415-.415H262a.416.416,0,0,1,.415.415v3.308a.416.416,0,0,1-.415.415H218.6A.416.416,0,0,1,218.184,89.434Zm40.467,2.907v2.045h-5.314a1.246,1.246,0,0,0,0,2.491h5.314v1.56h-36.7v-1.56h25.518a1.246,1.246,0,0,0,0-2.491H221.95V92.341Zm-22.921,51.282a1.246,1.246,0,1,0,0,2.491H262a.416.416,0,0,1,.415.415v3.308a.416.416,0,0,1-.415.415H218.6a.416.416,0,0,1-.415-.415V146.53a.416.416,0,0,1,.415-.415h11.207a1.246,1.246,0,1,0,0-2.491H221.95v-2.179h36.7v2.179Z" transform="translate(-179.867 -60.888)"/>
    </g>
  </g>
</svg>
