<svg xmlns="http://www.w3.org/2000/svg" width="72.271" height="80.317" viewBox="0 0 72.271 80.317">
  <g id="Grupo_1053045" data-name="Grupo 1053045" transform="translate(-349.27 -366.64)">
    <g id="Grupo_1053031" data-name="Grupo 1053031" transform="translate(390.999 366.651)">
      <rect id="Rectángulo_363923" data-name="Rectángulo 363923" width="30.542" height="50.39" fill="#d7ba76"/>
      <rect id="Rectángulo_363924" data-name="Rectángulo 363924" width="13.117" height="5.907" transform="translate(1.348 43.18)" fill="#fcf7ea"/>
      <rect id="Rectángulo_363925" data-name="Rectángulo 363925" width="0.777" height="5.028" transform="translate(2.057 43.614)" fill="#354546"/>
      <rect id="Rectángulo_363926" data-name="Rectángulo 363926" width="0.263" height="5.028" transform="translate(3.302 43.614)" fill="#354546"/>
      <rect id="Rectángulo_363927" data-name="Rectángulo 363927" width="0.263" height="5.028" transform="translate(11.803 43.614)" fill="#354546"/>
      <rect id="Rectángulo_363928" data-name="Rectángulo 363928" width="0.777" height="5.028" transform="translate(4.548 43.614)" fill="#354546"/>
      <rect id="Rectángulo_363929" data-name="Rectángulo 363929" width="0.388" height="5.028" transform="translate(5.793 43.614)" fill="#354546"/>
      <rect id="Rectángulo_363930" data-name="Rectángulo 363930" width="0.388" height="5.028" transform="translate(3.896 43.614)" fill="#354546"/>
      <rect id="Rectángulo_363931" data-name="Rectángulo 363931" width="1.303" height="5.028" transform="translate(6.524 43.614)" fill="#354546"/>
      <rect id="Rectángulo_363932" data-name="Rectángulo 363932" width="0.777" height="5.028" transform="translate(10.775 43.614)" fill="#354546"/>
      <rect id="Rectángulo_363933" data-name="Rectángulo 363933" width="0.777" height="5.028" transform="translate(9.004 43.614)" fill="#354546"/>
      <rect id="Rectángulo_363934" data-name="Rectángulo 363934" width="0.388" height="5.028" transform="translate(8.295 43.614)" fill="#354546"/>
      <rect id="Rectángulo_363935" data-name="Rectángulo 363935" width="0.388" height="5.028" transform="translate(10.021 43.614)" fill="#354546"/>
      <rect id="Rectángulo_363936" data-name="Rectángulo 363936" width="1.28" height="5.028" transform="translate(12.249 43.614)" fill="#354546"/>
      <rect id="Rectángulo_363937" data-name="Rectángulo 363937" width="0.948" height="50.39" transform="translate(15.265)" fill="#b59d63"/>
      <rect id="Rectángulo_363938" data-name="Rectángulo 363938" width="30.542" height="4.319" fill="#b59d63"/>
      <g id="Grupo_1053028" data-name="Grupo 1053028" transform="translate(18.739 42.768)">
        <g id="Grupo_1053026" data-name="Grupo 1053026">
          <rect id="Rectángulo_363939" data-name="Rectángulo 363939" width="0.811" height="3.256" transform="translate(0.811 1.748)" fill="#b59d63"/>
          <path id="Trazado_787484" data-name="Trazado 787484" d="M402.19,406.182l1.223-2.1,1.211,2.1Z" transform="translate(-402.19 -404.08)" fill="#b59d63"/>
        </g>
        <g id="Grupo_1053027" data-name="Grupo 1053027" transform="translate(2.685)">
          <rect id="Rectángulo_363940" data-name="Rectángulo 363940" width="0.811" height="3.256" transform="translate(0.811 1.748)" fill="#b59d63"/>
          <path id="Trazado_787485" data-name="Trazado 787485" d="M404.54,406.182l1.223-2.1,1.211,2.1Z" transform="translate(-404.54 -404.08)" fill="#b59d63"/>
        </g>
        <rect id="Rectángulo_363941" data-name="Rectángulo 363941" width="5.119" height="0.514" transform="translate(0 5.359)" fill="#b59d63"/>
      </g>
      <g id="Grupo_1053029" data-name="Grupo 1053029" transform="translate(4.936)">
        <rect id="Rectángulo_363942" data-name="Rectángulo 363942" width="3.359" height="8.284" fill="#b59d63"/>
      </g>
      <g id="Grupo_1053030" data-name="Grupo 1053030" transform="translate(21.618)">
        <rect id="Rectángulo_363943" data-name="Rectángulo 363943" width="3.359" height="8.284" fill="#b59d63"/>
      </g>
    </g>
    <g id="Grupo_1053037" data-name="Grupo 1053037" transform="translate(353.863 366.64)">
      <rect id="Rectángulo_363944" data-name="Rectángulo 363944" width="30.737" height="16.202" fill="#d7ba76"/>
      <rect id="Rectángulo_363945" data-name="Rectángulo 363945" width="13.197" height="5.942" transform="translate(1.36 8.935)" fill="#fcf7ea"/>
      <rect id="Rectángulo_363946" data-name="Rectángulo 363946" width="0.777" height="5.062" transform="translate(2.068 9.381)" fill="#354546"/>
      <rect id="Rectángulo_363947" data-name="Rectángulo 363947" width="0.263" height="5.062" transform="translate(3.325 9.381)" fill="#354546"/>
      <rect id="Rectángulo_363948" data-name="Rectángulo 363948" width="0.263" height="5.062" transform="translate(11.883 9.381)" fill="#354546"/>
      <rect id="Rectángulo_363949" data-name="Rectángulo 363949" width="0.777" height="5.062" transform="translate(4.582 9.381)" fill="#354546"/>
      <rect id="Rectángulo_363950" data-name="Rectángulo 363950" width="0.388" height="5.062" transform="translate(5.839 9.381)" fill="#354546"/>
      <rect id="Rectángulo_363951" data-name="Rectángulo 363951" width="0.388" height="5.062" transform="translate(3.919 9.381)" fill="#354546"/>
      <rect id="Rectángulo_363952" data-name="Rectángulo 363952" width="1.303" height="5.062" transform="translate(6.57 9.381)" fill="#354546"/>
      <rect id="Rectángulo_363953" data-name="Rectángulo 363953" width="0.777" height="5.062" transform="translate(10.843 9.381)" fill="#354546"/>
      <rect id="Rectángulo_363954" data-name="Rectángulo 363954" width="0.777" height="5.062" transform="translate(9.061 9.381)" fill="#354546"/>
      <rect id="Rectángulo_363955" data-name="Rectángulo 363955" width="0.388" height="5.062" transform="translate(8.353 9.381)" fill="#354546"/>
      <rect id="Rectángulo_363956" data-name="Rectángulo 363956" width="0.388" height="5.062" transform="translate(10.089 9.381)" fill="#354546"/>
      <rect id="Rectángulo_363957" data-name="Rectángulo 363957" width="1.291" height="5.062" transform="translate(12.34 9.381)" fill="#354546"/>
      <rect id="Rectángulo_363958" data-name="Rectángulo 363958" width="0.96" height="16.202" transform="translate(15.368)" fill="#b59d63"/>
      <rect id="Rectángulo_363959" data-name="Rectángulo 363959" width="30.737" height="4.342" fill="#b59d63"/>
      <g id="Grupo_1053034" data-name="Grupo 1053034" transform="translate(18.865 8.524)">
        <g id="Grupo_1053032" data-name="Grupo 1053032">
          <rect id="Rectángulo_363960" data-name="Rectángulo 363960" width="0.811" height="3.279" transform="translate(0.811 1.76)" fill="#b59d63"/>
          <path id="Trazado_787486" data-name="Trazado 787486" d="M369.8,376.225l1.223-2.125,1.223,2.125Z" transform="translate(-369.8 -374.1)" fill="#b59d63"/>
        </g>
        <g id="Grupo_1053033" data-name="Grupo 1053033" transform="translate(2.708)">
          <rect id="Rectángulo_363961" data-name="Rectángulo 363961" width="0.811" height="3.279" transform="translate(0.811 1.76)" fill="#b59d63"/>
          <path id="Trazado_787487" data-name="Trazado 787487" d="M372.17,376.225l1.223-2.125,1.223,2.125Z" transform="translate(-372.17 -374.1)" fill="#b59d63"/>
        </g>
        <rect id="Rectángulo_363962" data-name="Rectángulo 363962" width="5.142" height="0.514" transform="translate(0 5.405)" fill="#b59d63"/>
      </g>
      <g id="Grupo_1053035" data-name="Grupo 1053035" transform="translate(4.97)">
        <rect id="Rectángulo_363963" data-name="Rectángulo 363963" width="3.382" height="8.341" fill="#b59d63"/>
      </g>
      <g id="Grupo_1053036" data-name="Grupo 1053036" transform="translate(21.756)">
        <rect id="Rectángulo_363964" data-name="Rectángulo 363964" width="3.382" height="8.341" fill="#b59d63"/>
      </g>
    </g>
    <g id="Grupo_1053043" data-name="Grupo 1053043" transform="translate(349.27 383.357)">
      <rect id="Rectángulo_363965" data-name="Rectángulo 363965" width="30.542" height="34.199" fill="#d7ba76"/>
      <rect id="Rectángulo_363966" data-name="Rectángulo 363966" width="13.117" height="5.907" transform="translate(1.348 26.977)" fill="#fcf7ea"/>
      <rect id="Rectángulo_363967" data-name="Rectángulo 363967" width="0.777" height="5.028" transform="translate(2.057 27.412)" fill="#354546"/>
      <rect id="Rectángulo_363968" data-name="Rectángulo 363968" width="0.263" height="5.028" transform="translate(3.314 27.412)" fill="#354546"/>
      <rect id="Rectángulo_363969" data-name="Rectángulo 363969" width="0.263" height="5.028" transform="translate(11.815 27.412)" fill="#354546"/>
      <rect id="Rectángulo_363970" data-name="Rectángulo 363970" width="0.777" height="5.028" transform="translate(4.559 27.412)" fill="#354546"/>
      <rect id="Rectángulo_363971" data-name="Rectángulo 363971" width="0.388" height="5.028" transform="translate(5.805 27.412)" fill="#354546"/>
      <rect id="Rectángulo_363972" data-name="Rectángulo 363972" width="0.388" height="5.028" transform="translate(3.896 27.412)" fill="#354546"/>
      <rect id="Rectángulo_363973" data-name="Rectángulo 363973" width="1.303" height="5.028" transform="translate(6.536 27.412)" fill="#354546"/>
      <rect id="Rectángulo_363974" data-name="Rectángulo 363974" width="0.777" height="5.028" transform="translate(10.775 27.412)" fill="#354546"/>
      <rect id="Rectángulo_363975" data-name="Rectángulo 363975" width="0.777" height="5.028" transform="translate(9.004 27.412)" fill="#354546"/>
      <rect id="Rectángulo_363976" data-name="Rectángulo 363976" width="0.388" height="5.028" transform="translate(8.307 27.412)" fill="#354546"/>
      <rect id="Rectángulo_363977" data-name="Rectángulo 363977" width="0.388" height="5.028" transform="translate(10.032 27.412)" fill="#354546"/>
      <rect id="Rectángulo_363978" data-name="Rectángulo 363978" width="1.28" height="5.028" transform="translate(12.26 27.412)" fill="#354546"/>
      <rect id="Rectángulo_363979" data-name="Rectángulo 363979" width="0.96" height="34.199" transform="translate(15.277)" fill="#b59d63"/>
      <rect id="Rectángulo_363980" data-name="Rectángulo 363980" width="30.542" height="4.319" fill="#b59d63"/>
      <g id="Grupo_1053040" data-name="Grupo 1053040" transform="translate(18.75 26.566)">
        <g id="Grupo_1053038" data-name="Grupo 1053038">
          <rect id="Rectángulo_363981" data-name="Rectángulo 363981" width="0.811" height="3.256" transform="translate(0.811 1.748)" fill="#b59d63"/>
          <path id="Trazado_787488" data-name="Trazado 787488" d="M365.68,406.622l1.211-2.1,1.211,2.1Z" transform="translate(-365.68 -404.52)" fill="#b59d63"/>
        </g>
        <g id="Grupo_1053039" data-name="Grupo 1053039" transform="translate(2.685)">
          <rect id="Rectángulo_363982" data-name="Rectángulo 363982" width="0.811" height="3.256" transform="translate(0.811 1.748)" fill="#b59d63"/>
          <path id="Trazado_787489" data-name="Trazado 787489" d="M368.03,406.622l1.211-2.1,1.223,2.1Z" transform="translate(-368.03 -404.52)" fill="#b59d63"/>
        </g>
        <rect id="Rectángulo_363983" data-name="Rectángulo 363983" width="5.119" height="0.514" transform="translate(0 5.37)" fill="#b59d63"/>
      </g>
      <g id="Grupo_1053041" data-name="Grupo 1053041" transform="translate(4.948)">
        <rect id="Rectángulo_363984" data-name="Rectángulo 363984" width="3.359" height="8.284" fill="#b59d63"/>
      </g>
      <g id="Grupo_1053042" data-name="Grupo 1053042" transform="translate(21.63)">
        <rect id="Rectángulo_363985" data-name="Rectángulo 363985" width="3.359" height="8.284" fill="#b59d63"/>
      </g>
    </g>
    <g id="Grupo_1053376" data-name="Grupo 1053376" transform="translate(0 4)">
      <g id="Grupo_1053374" data-name="Grupo 1053374" transform="translate(360.217 373.508)">
        <path id="Trazado_787490" data-name="Trazado 787490" d="M358.85,410.95a.259.259,0,0,0,.046.011c8.513,2.182,16.02,4.228,21.881,5.782,1.017.263,2,.526,2.914.754l.091,3.416c-.948-.057-1.92-.149-2.9-.251a136.9,136.9,0,0,1-20.887-4.3l-1.131-5.416Z" transform="translate(-358.85 -352.059)" fill="#eab99a"/>
        <path id="Trazado_787491" data-name="Trazado 787491" d="M406.862,410.95a.259.259,0,0,1-.046.011c-8.513,2.182-16.02,4.228-21.881,5.782-1.017.263-2,.526-2.914.754l-.091,3.416c.948-.057,1.92-.149,2.9-.251a136.9,136.9,0,0,0,20.887-4.3l1.143-5.416Z" transform="translate(-355.558 -352.059)" fill="#eab99a"/>
        <path id="Trazado_787492" data-name="Trazado 787492" d="M397.557,376.607c0,9.5-14.626,32.7-14.626,32.7s-14.111-23.207-14.111-32.7,6.433-17.2,14.363-17.2,14.363,7.7,14.363,17.2Z" transform="translate(-357.428 -359.41)" fill="#7d4c2e"/>
        <path id="Trazado_787493" data-name="Trazado 787493" d="M390.03,368.26s7.324,11.952-4.148,20.556h0l-8.055-.7s-5-5.485-3.794-10.775h0l16-9.084Z" transform="translate(-356.711 -358.148)" fill="#5d2c10"/>
        <path id="Trazado_787494" data-name="Trazado 787494" d="M372.846,394.318c-.1.3-1.188,3.394-2.685,7.416-.114.3-.24.617-.354.937-.434,1.154-.891,2.365-1.36,3.611.011,0,0,.011,0,.011-.114.32-.251.64-.366.971-.366.937-.743,1.9-1.108,2.857l-.1.274c-.96,2.457-.857,4.856-1.04,6.913a2.971,2.971,0,0,1-2.982,2.674h-.011c-2.468-1.611-3.074-1.531-3.7-4.776a4.621,4.621,0,0,1-.217-2.034,109.349,109.349,0,0,1,7.45-21.184,1.182,1.182,0,0,1,.08-.24,3.4,3.4,0,0,1,3.874-1.714,1.373,1.373,0,0,1,.274.069,3.493,3.493,0,0,1,.857.4,3.348,3.348,0,0,1,1.417,3.8Z" transform="translate(-358.849 -355.058)" fill="#eab99a"/>
        <path id="Trazado_787495" data-name="Trazado 787495" d="M405.28,415.217c-.617,3.245-1.211,3.165-3.7,4.776h-.023a2.952,2.952,0,0,1-2.971-2.674c-.183-2.057-.08-4.456-1.04-6.913l-.08-.274c-.366-.96-.754-1.931-1.131-2.891-.743-1.92-1.451-3.8-2.068-5.519-1.5-4.022-2.594-7.119-2.685-7.416a3.352,3.352,0,0,1,1.394-3.8,2.957,2.957,0,0,1,.857-.4,2.585,2.585,0,0,1,.286-.069,3.375,3.375,0,0,1,3.851,1.714c.034.08.069.149.1.24a110.338,110.338,0,0,1,7.427,21.184,4.62,4.62,0,0,1-.217,2.034Z" transform="translate(-354.204 -355.058)" fill="#eab99a"/>
        <path id="Trazado_787496" data-name="Trazado 787496" d="M399.3,402.643a4.564,4.564,0,0,1,1.417,3.165,4.206,4.206,0,0,1-.674,2.24,7.337,7.337,0,0,1-3.428,2.742.6.6,0,0,1-.114.069,5.511,5.511,0,0,1-.891.331,1.069,1.069,0,0,1-.251.08.479.479,0,0,0-.046.171h0a36.589,36.589,0,0,0-2.777,10.524H374.664a36.544,36.544,0,0,0-2.708-10.341,2.259,2.259,0,0,0-.137-.354,9.121,9.121,0,0,1-1.063-.388,11.137,11.137,0,0,1-1.794-.971,6.575,6.575,0,0,1-1.817-1.828,4.3,4.3,0,0,1-.686-2.274,4.564,4.564,0,0,1,1.417-3.165L365.5,393.9a3.333,3.333,0,0,1,3.382-3.062h4.171a9.943,9.943,0,0,0,3.714-.788,5.858,5.858,0,0,0,1.771-1.211,4.119,4.119,0,0,0,.583-.686,8.08,8.08,0,0,0,1.325-3.8h6.284a8.125,8.125,0,0,0,1.325,3.8,4.663,4.663,0,0,0,.571.686,5.914,5.914,0,0,0,1.782,1.211,9.943,9.943,0,0,0,3.714.788h3.953a3.371,3.371,0,0,1,3.6,3.062l-2.365,8.741Z" transform="translate(-357.902 -355.853)" fill="#eab99a"/>
        <path id="Trazado_787499" data-name="Trazado 787499" d="M391.271,374.808c0,6.353-3.9,14.02-8.741,14.02a3.178,3.178,0,0,1-.663-.057c-4.548-.651-8.147-7.907-8.147-13.963s3.565-11.038,8.113-11.483c.217-.011.434-.034.663-.034,4.845,0,8.787,5.153,8.787,11.518Z" transform="translate(-356.729 -358.857)" fill="#eab99a"/>
        <path id="Trazado_787500" data-name="Trazado 787500" d="M389.945,374.8c0,6.056-3.554,13.312-8.078,13.963-4.548-.651-8.147-7.907-8.147-13.963a3.2,3.2,0,0,1,.034-.571c.149-4.228,2.034-7.861,4.742-9.667a7.48,7.48,0,0,1,2.434-1.086h.057a.25.25,0,0,1,.057-.034,6.106,6.106,0,0,1,.777-.126,6.871,6.871,0,0,1,1.645.377c3.3,1.188,5.827,4.8,6.364,9.3a15.792,15.792,0,0,1,.114,1.805Z" transform="translate(-356.729 -358.852)" fill="#f5c4a5"/>
        <path id="Trazado_787501" data-name="Trazado 787501" d="M372.89,366.65s1.68,3.965,8.833,5.05,8.6,4.331,9.324,6.49c0,0,3.965-9.381-2.045-12.98s-13.46-4.57-16.111,1.44Z" transform="translate(-356.848 -358.995)" fill="#7d4c2e"/>
        <path id="Trazado_787502" data-name="Trazado 787502" d="M379.969,382.392a6.611,6.611,0,0,1-6.879-6.136l.834-.046a5.713,5.713,0,0,0,6.044,5.347v.846Z" transform="translate(-356.819 -357.014)" fill="#606060"/>
        <path id="Trazado_787503" data-name="Trazado 787503" d="M373.536,378.754h0a.688.688,0,0,1-.686-.686v-2.422a.688.688,0,0,1,.686-.686h0a.688.688,0,0,1,.686.686v2.422A.688.688,0,0,1,373.536,378.754Z" transform="translate(-356.853 -357.192)" fill="#606060"/>
        <rect id="Rectángulo_363986" data-name="Rectángulo 363986" width="1.383" height="2.559" rx="0.5" transform="translate(22.509 25.641) rotate(-90)" fill="#404040"/>
        <path id="Trazado_787504" data-name="Trazado 787504" d="M400.876,407.325c.366.96.754,1.931,1.131,2.891l.08.274a11.523,11.523,0,0,1,.617,2.285,15,15,0,0,0,3.554-1.348c.994-.56,1.874-1.257,2.811-1.9a112.851,112.851,0,0,0-6.456-17.448c-.034-.08-.069-.149-.1-.24a3.375,3.375,0,0,0-3.851-1.714h-3.7a9.943,9.943,0,0,1-3.714-.788l-6.821,6.273-6.833-6.273a9.943,9.943,0,0,1-3.714.788h-3.668a3.411,3.411,0,0,0-3.874,1.714.849.849,0,0,0-.08.24,110.5,110.5,0,0,0-6.6,17.928c1.794,1.668,4.091,2.457,6.41,3.234a12.44,12.44,0,0,1,.708-2.742l.1-.274c.366-.96.743-1.92,1.108-2.857A6.426,6.426,0,0,0,369.8,409.2a7.12,7.12,0,0,0,2.982,1.714,36.546,36.546,0,0,1,2.708,10.341h17.871a36.427,36.427,0,0,1,2.777-10.512h0c.114-.046.206-.1.32-.149a8,8,0,0,0,.88-.457.3.3,0,0,0,.114-.069,7.337,7.337,0,0,0,3.428-2.742Z" transform="translate(-358.736 -355.141)" fill="#a0a0a0"/>
      </g>
      <g id="Grupo_1053375" data-name="Grupo 1053375" transform="translate(363.324 419.876)">
        <path id="Trazado_787505" data-name="Trazado 787505" d="M406.1,420.294H362.347a.778.778,0,0,1-.777-.777h0a.785.785,0,0,1,.777-.777H406.1a.778.778,0,0,1,.777.777h0A.785.785,0,0,1,406.1,420.294Z" transform="translate(-361.57 -397.316)" fill="#303030"/>
        <path id="Trazado_787506" data-name="Trazado 787506" d="M365.513,399.99h36.221a1.556,1.556,0,0,1,1.554,1.554v19.973a1.556,1.556,0,0,1-1.554,1.554h-36.21a1.556,1.556,0,0,1-1.554-1.554V401.544a1.556,1.556,0,0,1,1.554-1.554Z" transform="translate(-361.228 -399.99)" fill="#404040"/>
        <path id="Trazado_787507" data-name="Trazado 787507" d="M383.509,409.1a2.4,2.4,0,1,1-2.4-2.4A2.4,2.4,0,0,1,383.509,409.1Z" transform="translate(-359.125 -399.033)" fill="#909090"/>
      </g>
    </g>
  </g>
</svg>
