<svg xmlns="http://www.w3.org/2000/svg" xmlns:xlink="http://www.w3.org/1999/xlink" width="132.107" height="132.107" viewBox="0 0 132.107 132.107">
  <defs>
    <filter id="Trazado_789751" x="0" y="0" width="132.107" height="132.107" filterUnits="userSpaceOnUse">
      <feOffset dy="3" input="SourceAlpha"/>
      <feGaussianBlur stdDeviation="3" result="blur"/>
      <feFlood flood-opacity="0.161"/>
      <feComposite operator="in" in2="blur"/>
      <feComposite in="SourceGraphic"/>
    </filter>
  </defs>
  <g id="Grupo_1047342" data-name="Grupo 1047342" transform="translate(-1151.593 -1512.123)">
    <g transform="matrix(1, 0, 0, 1, 1151.59, 1512.12)" filter="url(#Trazado_789751)">
      <path id="Trazado_789751-2" data-name="Trazado 789751" d="M57.054,0A57.054,57.054,0,1,1,0,57.054,57.054,57.054,0,0,1,57.054,0Z" transform="translate(9 6)" fill="#ffe6ea"/>
    </g>
    <g id="marketing" transform="translate(1166.012 1521.112)">
      <g id="Grupo_1046033" data-name="Grupo 1046033" transform="translate(1.666 1.666)">
        <g id="Grupo_1046015" data-name="Grupo 1046015" transform="translate(0 3.331)">
          <path id="Trazado_775145" data-name="Trazado 775145" d="M68.625,87.281v6.662a6.661,6.661,0,0,1-6.662,6.662H8.662A6.661,6.661,0,0,1,2,93.943V10.662A6.661,6.661,0,0,1,8.662,4H21.987v6.662H10.328a1.671,1.671,0,0,0-1.666,1.666V92.278a1.671,1.671,0,0,0,1.666,1.666H60.3a1.671,1.671,0,0,0,1.666-1.666v-5Z" transform="translate(-2 -4)" fill="#ffeaa7"/>
        </g>
        <g id="Grupo_1046016" data-name="Grupo 1046016" transform="translate(59.962 31.913)">
          <path id="Trazado_775146" data-name="Trazado 775146" d="M44.662,21.177V62.534H38V22.559a16.458,16.458,0,0,0,6.662-1.4Z" transform="translate(-38 -21.16)" fill="#ffeaa7"/>
        </g>
        <g id="Grupo_1046017" data-name="Grupo 1046017" transform="translate(6.662 9.994)">
          <path id="Trazado_775147" data-name="Trazado 775147" d="M49.206,27.9a16.606,16.606,0,0,1-6.563-13.242,17.031,17.031,0,0,1,.333-3.348,2.232,2.232,0,0,1-.333.017H22.656A3.341,3.341,0,0,1,19.325,8H7.666A1.671,1.671,0,0,0,6,9.666V89.615a1.671,1.671,0,0,0,1.666,1.666H57.634A1.671,1.671,0,0,0,59.3,89.615v-58.3A16.5,16.5,0,0,1,49.206,27.9Z" transform="translate(-6 -8)" fill="#f0d0b4"/>
        </g>
        <g id="Grupo_1046018" data-name="Grupo 1046018" transform="translate(36.644 73.287)">
          <path id="Trazado_775148" data-name="Trazado 775148" d="M37.325,52.662v6.662L25.566,54.911a2.4,2.4,0,0,1,0-4.5L37.325,46Z" transform="translate(-24 -46)" fill="#aab2bd"/>
        </g>
        <g id="Grupo_1046019" data-name="Grupo 1046019" transform="translate(86.612 73.287)">
          <path id="Trazado_775149" data-name="Trazado 775149" d="M65.376,47.949a6.666,6.666,0,0,1-4.714,11.376H54V46h6.662A6.7,6.7,0,0,1,65.376,47.949Z" transform="translate(-54 -46)" fill="#aab2bd"/>
        </g>
        <g id="Grupo_1046020" data-name="Grupo 1046020" transform="translate(49.968 79.949)">
          <path id="Trazado_775150" data-name="Trazado 775150" d="M68.644,50v6.662H32V50Z" transform="translate(-32 -50)" fill="#4fc1e9"/>
        </g>
        <g id="Grupo_1046021" data-name="Grupo 1046021" transform="translate(49.968 73.287)">
          <path id="Trazado_775151" data-name="Trazado 775151" d="M68.644,46v6.662H32V46H68.644Z" transform="translate(-32 -46)" fill="#b4dd7f"/>
        </g>
        <g id="Grupo_1046022" data-name="Grupo 1046022" transform="translate(13.325 31.647)">
          <path id="Trazado_775152" data-name="Trazado 775152" d="M42.113,25.081a20.023,20.023,0,1,0,7.862,15.907A19.913,19.913,0,0,0,42.113,25.081Z" transform="translate(-10 -21)" fill="#e6e9ed"/>
        </g>
        <g id="Grupo_1046023" data-name="Grupo 1046023" transform="translate(36.644 44.972)">
          <path id="Trazado_775153" data-name="Trazado 775153" d="M24,29h6.662V45.656H24Z" transform="translate(-24 -29)" fill="#fcd770"/>
        </g>
        <g id="Grupo_1046024" data-name="Grupo 1046024" transform="translate(29.981 41.64)">
          <path id="Trazado_775154" data-name="Trazado 775154" d="M26.662,30.331V46.987H20V27h6.662Z" transform="translate(-20 -27)" fill="#fcd770"/>
        </g>
        <g id="Grupo_1046025" data-name="Grupo 1046025" transform="translate(23.319 51.634)">
          <path id="Trazado_775155" data-name="Trazado 775155" d="M16,33h6.662v9.994H16Z" transform="translate(-16 -33)" fill="#fcd770"/>
        </g>
        <g id="Grupo_1046026" data-name="Grupo 1046026" transform="translate(19.987 0)">
          <path id="Trazado_775156" data-name="Trazado 775156" d="M40.65,5.331V8.662a16.538,16.538,0,0,0-3,6.646,2.232,2.232,0,0,1-.333.017H17.331A3.341,3.341,0,0,1,14,11.994V5.331A3.341,3.341,0,0,1,17.331,2H37.319A3.341,3.341,0,0,1,40.65,5.331Z" transform="translate(-14 -2)" fill="#b4dd7f"/>
        </g>
        <g id="Grupo_1046027" data-name="Grupo 1046027" transform="translate(84.946 16.656)">
          <path id="Trazado_775157" data-name="Trazado 775157" d="M62.994,12l3.331,6.662H56.331L53,12h9.994Z" transform="translate(-53 -12)" fill="#cf9e76"/>
        </g>
        <g id="Grupo_1046028" data-name="Grupo 1046028" transform="translate(84.946 9.994)">
          <path id="Trazado_775158" data-name="Trazado 775158" d="M66.325,8l-3.331,6.662H53L56.331,8Z" transform="translate(-53 -8)" fill="#cf9e76"/>
        </g>
        <g id="Grupo_1046029" data-name="Grupo 1046029" transform="translate(43.306 0)">
          <path id="Trazado_775159" data-name="Trazado 775159" d="M61.312,18.656a16.571,16.571,0,0,1-9.994,15.257A16.655,16.655,0,0,1,28,18.656a17.031,17.031,0,0,1,.333-3.348,16.66,16.66,0,0,1,32.979,3.348Z" transform="translate(-28 -2)" fill="#e6e9ed"/>
        </g>
        <g id="Grupo_1046030" data-name="Grupo 1046030" transform="translate(53.619 10.258)">
          <circle id="Elipse_7992" data-name="Elipse 7992" cx="6.504" cy="6.504" r="6.504" transform="translate(0 0)" fill="#ff826e"/>
        </g>
        <g id="Grupo_1046031" data-name="Grupo 1046031" transform="translate(73.287 36.644)">
          <path id="Trazado_775160" data-name="Trazado 775160" d="M59.325,24A13.309,13.309,0,1,1,51,26.915,13.321,13.321,0,0,1,59.325,24Z" transform="translate(-46 -24)" fill="#e6e9ed"/>
        </g>
        <g id="Grupo_1046032" data-name="Grupo 1046032" transform="translate(79.949 43.306)">
          <path id="Trazado_775161" data-name="Trazado 775161" d="M61.843,32.247a2.709,2.709,0,0,1,0,4.83L53.9,41.042A2.7,2.7,0,0,1,50,38.627V30.7a2.7,2.7,0,0,1,3.9-2.415Z" transform="translate(-50 -28)" fill="#ff826e"/>
        </g>
      </g>
      <g id="Grupo_1046034" data-name="Grupo 1046034" transform="translate(0 0)">
        <path id="Trazado_775162" data-name="Trazado 775162" d="M95.94,74.287H70.956V35.621A18.269,18.269,0,0,0,72.716,34.6l5.958,7.447a15.205,15.205,0,1,0,2.61-2.072l-5.971-7.464a18.264,18.264,0,0,0,5.553-11.524h5.716l3.331,6.662h13.718l-4.164-8.328,4.164-8.328H89.914l-3.331,6.662H80.866A18.3,18.3,0,0,0,50.9,5.267,4.991,4.991,0,0,0,45.972,1H25.984a4.99,4.99,0,0,0-4.69,3.331H9.328A8.338,8.338,0,0,0,1,12.659V95.94a8.338,8.338,0,0,0,8.328,8.328h53.3a8.338,8.338,0,0,0,8.328-8.328v-5H95.94a8.328,8.328,0,1,0,0-16.656Zm5-21.653A11.659,11.659,0,1,1,89.278,40.975,11.674,11.674,0,0,1,100.937,52.634ZM91.972,24.319l-1.666-3.331h6.269l1.666,3.331Zm0-9.994h6.269l-1.666,3.331H90.307Zm-70.679,0a4.99,4.99,0,0,0,4.69,3.331H44.391c-.05.55-.085,1.1-.085,1.666A18.258,18.258,0,0,0,50.264,32.8l-2.54,3.333a21.849,21.849,0,1,0,2.642,2.027l2.543-3.338a18.168,18.168,0,0,0,8.053,2.733V74.287H52.331L40.283,78.806a4.069,4.069,0,0,0,0,7.62l12.047,4.517h8.631v3.331H10.994V14.325Zm23.012,48.3H40.975V49.3h3.331Zm-6.662,0H34.312V45.972h3.331Zm-6.662,0H27.65V55.965h3.331ZM50.1,65.959a18.3,18.3,0,0,1-28.245,0Zm2.177-3.331h-4.64V45.972H40.975V42.64H30.981v9.994H24.319v9.994h-4.64a18.322,18.322,0,1,1,32.6,0ZM41.454,83.308a.739.739,0,0,1,0-1.384l9.514-3.568v8.518Zm12.845,4.3V84.281H87.612v3.331Zm33.312-6.662H54.3V77.618H87.612ZM67.625,74.287H64.293V37.559a18.024,18.024,0,0,0,3.331-.626Zm-5-69.956A15.007,15.007,0,0,1,77.52,17.656H70.788a8.328,8.328,0,1,0,0,3.331H77.52A14.988,14.988,0,1,1,62.628,4.331Zm4.69,16.656a5,5,0,1,1,0-3.331H60.962v3.331ZM24.319,6a1.667,1.667,0,0,1,1.666-1.666H45.972A1.667,1.667,0,0,1,47.637,6V8.82a18.217,18.217,0,0,0-2.618,5.5l-19.035.008a1.667,1.667,0,0,1-1.666-1.666ZM67.625,95.94a5,5,0,0,1-5,5H9.328a5,5,0,0,1-5-5V12.659a5,5,0,0,1,5-5H20.987v3.331H10.994a3.335,3.335,0,0,0-3.331,3.331V94.274a3.335,3.335,0,0,0,3.331,3.331H60.962a3.335,3.335,0,0,0,3.331-3.331V90.943h3.331ZM95.94,87.612h-5V77.618h5a5,5,0,1,1,0,9.994Z" transform="translate(-1 -1)"/>
        <path id="Trazado_775163" data-name="Trazado 775163" d="M49,39.3a4.362,4.362,0,0,0,6.311,3.9l7.937-3.967a4.363,4.363,0,0,0,0-7.8L55.311,27.46A4.362,4.362,0,0,0,49,31.361Zm3.331-7.935a1.03,1.03,0,0,1,1.029-1.029,1.02,1.02,0,0,1,.46.108l7.935,3.967a1.03,1.03,0,0,1,0,1.842L53.82,40.217a1.058,1.058,0,0,1-1.489-.921Z" transform="translate(30.949 16.306)"/>
        <path id="Trazado_775164" data-name="Trazado 775164" d="M9,49H28.987v3.331H9Z" transform="translate(4.325 30.949)"/>
        <path id="Trazado_775165" data-name="Trazado 775165" d="M9,53H28.987v3.331H9Z" transform="translate(4.325 33.612)"/>
        <path id="Trazado_775166" data-name="Trazado 775166" d="M9,13h3.331v3.331H9Z" transform="translate(4.325 6.987)"/>
        <path id="Trazado_775167" data-name="Trazado 775167" d="M13,13H32.987v3.331H13Z" transform="translate(6.987 6.987)"/>
        <path id="Trazado_775168" data-name="Trazado 775168" d="M9,17h3.331v3.331H9Z" transform="translate(4.325 9.65)"/>
        <path id="Trazado_775169" data-name="Trazado 775169" d="M13,17H32.987v3.331H13Z" transform="translate(6.987 9.65)"/>
      </g>
    </g>
  </g>
</svg>
