<svg xmlns="http://www.w3.org/2000/svg" width="55.307" height="56.467" viewBox="0 0 55.307 56.467">
  <g id="_x31_40" transform="translate(-2.7 -2)">
    <path id="Trazado_775047" data-name="Trazado 775047" d="M52.616,43.819a27.5,27.5,0,0,1-4.853,2.912.869.869,0,0,0,.706,1.588,24.127,24.127,0,0,0,5.47-3.353c.529-.353,1.059-1.059,2.029-.794a7.709,7.709,0,0,0,1.147.618,1.33,1.33,0,0,1,.176,1.588c-.265.441-.441.441-4.059,4.059-2.206,2.206-6.97,6.794-9.617,8.382-2.294,1.323-6.794,1.765-8.382,1.765-2.647,0-4.147-.971-5.911-1.765-4.941-2.029-10.411-2.823-15.087-.176a.908.908,0,1,0,.882,1.588c3.706-2.029,8.47-1.588,12.44-.176,2.647.971,3.97,2.382,7.764,2.382,2.206,0,6.794-.529,9.176-1.941,3.882-2.294,8.558-7.411,13.676-12.176a3.17,3.17,0,0,0,.706-3.97,5.666,5.666,0,0,0-1.765-1.412,3.538,3.538,0,0,0-4.5.882Z" transform="translate(-1.302 -4.762)" fill="#12263f"/>
    <path id="Trazado_775048" data-name="Trazado 775048" d="M3.582,60.74a.882.882,0,0,0,0,1.765H9.935a.834.834,0,0,0,.882-.882v-12a9.438,9.438,0,0,0,2.735-2.382c1.059-1.323,1.5-3,5.029-3.529,7.941-1.059,12.44,4.764,24.087,5.911,1.765.353,2.47,2.823.529,3.088-1.412.176-2.559-.618-5.911-1.323-3.529-.794-7.852-.794-11.117.794a.779.779,0,0,0-.353,1.147.8.8,0,0,0,1.147.353c2.912-1.412,6.794-1.323,9.882-.706,3.441.794,4.588,1.588,6.529,1.412,2.647-.353,3.441-3.088,1.853-5.117A4.566,4.566,0,0,0,41.7,47.682c-4.147-.441-9.882-2.647-13.676-4.411a21.672,21.672,0,0,0-6.264-1.5v-.265A3.445,3.445,0,0,1,25.2,38.065h9.97a3.445,3.445,0,0,1,3.441,3.441v2.823a.882.882,0,1,0,1.765,0V41.506A5.215,5.215,0,0,0,35.168,36.3H25.287a5.215,5.215,0,0,0-5.206,5.206v.176c-4.941.088-6.441,2.382-6.617,2.47-1.235,1.323-.882,1.676-2.735,3.088V45.564a.834.834,0,0,0-.882-.882H3.582a.834.834,0,0,0-.882.882V56.152a.834.834,0,0,0,.882.882.834.834,0,0,0,.882-.882V46.446H9.053V60.475H3.582Z" transform="translate(0 -4.037)" fill="#12263f"/>
    <path id="Trazado_775049" data-name="Trazado 775049" d="M27.4,27.723A5.823,5.823,0,1,0,33.223,21.9,5.817,5.817,0,0,0,27.4,27.723Zm9.882,0a4.059,4.059,0,1,1-4.059-4.059,4.105,4.105,0,0,1,4.059,4.059Z" transform="translate(-2.907 -2.342)" fill="#12263f"/>
    <path id="Trazado_775050" data-name="Trazado 775050" d="M5.782,29H17.517a.834.834,0,0,0,.882-.882,12.086,12.086,0,0,1,3.176-8.205.876.876,0,0,0-1.323-1.147,14.116,14.116,0,0,0-3.617,8.558H6.665V24.5a.834.834,0,0,1,.882-.882H13.9a1.809,1.809,0,0,0,1.676-1.147c.176-.529.441-1.059.618-1.588a1.741,1.741,0,0,0-.353-2.029l-4.5-4.5a.853.853,0,0,1,0-1.235l4.588-4.588a.853.853,0,0,1,1.235,0l4.5,4.5a1.892,1.892,0,0,0,2.029.353,11.783,11.783,0,0,1,1.588-.618,1.725,1.725,0,0,0,1.147-1.676V4.647a.884.884,0,0,1,.882-.882h6.441a.834.834,0,0,1,.882.882V11a1.809,1.809,0,0,0,1.147,1.676c.529.176,1.059.441,1.588.618A1.741,1.741,0,0,0,39.4,12.94c3.176-3.088,4.147-4.235,4.588-4.588a.754.754,0,0,1,1.147.088l4.588,4.588a.853.853,0,0,1,0,1.235l-4.5,4.5a1.892,1.892,0,0,0-.353,2.029,11.784,11.784,0,0,1,.618,1.588,1.725,1.725,0,0,0,1.676,1.147h6.353a.884.884,0,0,1,.882.882v2.823H44.515a14.058,14.058,0,0,0-21-11.205.908.908,0,0,0,.882,1.588,12.46,12.46,0,0,1,6.176-1.676A12.2,12.2,0,0,1,42.75,28.116a.834.834,0,0,0,.882.882H55.367a.834.834,0,0,0,.882-.882V24.41A2.6,2.6,0,0,0,53.6,21.763H47.25A14.711,14.711,0,0,0,46.544,20l4.5-4.5a2.558,2.558,0,0,0,0-3.706L46.456,7.206a2.558,2.558,0,0,0-3.706,0l-4.588,4.5A10.516,10.516,0,0,0,36.4,11V4.647A2.6,2.6,0,0,0,33.751,2H27.31a2.6,2.6,0,0,0-2.647,2.647V11a14.71,14.71,0,0,0-1.765.706l-4.5-4.5a2.558,2.558,0,0,0-3.706,0l-4.588,4.588a2.558,2.558,0,0,0,0,3.706l4.5,4.5a10.516,10.516,0,0,0-.706,1.765H7.547A2.6,2.6,0,0,0,4.9,24.41v3.706A.884.884,0,0,0,5.782,29Z" transform="translate(-0.259)" fill="#12263f"/>
  </g>
</svg>
