<svg id="Grupo_1047089" data-name="Grupo 1047089" xmlns="http://www.w3.org/2000/svg" xmlns:xlink="http://www.w3.org/1999/xlink" width="295" height="350.688" viewBox="0 0 295 350.688">
  <defs>
    <filter id="Elipse_8020" x="15" y="25.843" width="263.563" height="263.563" filterUnits="userSpaceOnUse">
      <feOffset dy="3" input="SourceAlpha"/>
      <feGaussianBlur stdDeviation="3" result="blur"/>
      <feFlood flood-opacity="0.161"/>
      <feComposite operator="in" in2="blur"/>
      <feComposite in="SourceGraphic"/>
    </filter>
    <clipPath id="clip-path">
      <path id="Trazado_778286" data-name="Trazado 778286" d="M208.315,343.7c22.78,0,36.211-1.071,37.993-3.742s-1.249-41.17-1.249-41.17-3.773-18-1.505-31.544,11.6-19.158,11.6-19.158h0a15.792,15.792,0,0,0-1.176-1.338c-9.8-9.8-34.355-18.489-34.355-18.489l-11.3-.4-11.3.4s-24.552,8.691-34.355,18.489a14.923,14.923,0,0,0-1.176,1.338h0s9.328,5.613,11.6,19.158-1.505,31.544-1.505,31.544-3.031,38.5-1.249,41.17S185.535,343.7,208.315,343.7Z" transform="translate(-161.48 -227.86)" fill="none"/>
    </clipPath>
  </defs>
  <rect id="Rectángulo_357152" data-name="Rectángulo 357152" width="295" height="350.688" rx="15" fill="#f1cfd6"/>
  <g id="Grupo_1047087" data-name="Grupo 1047087" transform="translate(24 31.843)">
    <g transform="matrix(1, 0, 0, 1, -24, -31.84)" filter="url(#Elipse_8020)">
      <circle id="Elipse_8020-2" data-name="Elipse 8020" cx="122.782" cy="122.782" r="122.782" transform="translate(24 31.84)" fill="#ffe6ea"/>
    </g>
    <g id="Grupo_1047000" data-name="Grupo 1047000" transform="translate(22 17.779)">
      <g id="Grupo_1046999" data-name="Grupo 1046999" transform="translate(41)">
        <g id="Grupo_1046984" data-name="Grupo 1046984">
          <g id="Grupo_1046964" data-name="Grupo 1046964" transform="translate(25.218 191.6)">
            <path id="Trazado_778275" data-name="Trazado 778275" d="M184.152,430.77s-.444,13.546,0,14.795l.444,1.249a2.527,2.527,0,0,0-.638,1.96c.1,1.249-.789,18.181-.789,18.181h77.172s-6.836-23.172-7.16-23.883-1.573-.711-1.573-.711,1.186-1.427,1.573-1.782-.862-9.8-.862-9.8H184.152Z" transform="translate(-183.165 -430.77)" fill="#0f3945"/>
            <g id="Grupo_1046963" data-name="Grupo 1046963" transform="translate(0 11.581)">
              <path id="Trazado_778276" data-name="Trazado 778276" d="M185.9,457.388s34.575,2.676,67.013-4.458" transform="translate(-184.468 -452.93)" fill="none" stroke="#3f6476" stroke-linecap="round" stroke-linejoin="round" stroke-width="1.5"/>
              <line id="Línea_935" data-name="Línea 935" y1="20.407" transform="translate(38.589 4.191)" fill="none" stroke="#3f6476" stroke-linecap="round" stroke-linejoin="round" stroke-width="1.5"/>
              <path id="Trazado_778277" data-name="Trazado 778277" d="M267.986,459.41s1.463,13.19.753,15.328-7.128,5.879-7.128,5.879" transform="translate(-220.612 -456.024)" fill="none" stroke="#3f6476" stroke-linecap="round" stroke-linejoin="round" stroke-width="1.5"/>
              <path id="Trazado_778278" data-name="Trazado 778278" d="M190.644,462.06s.183,11.628-.888,13.232-6.6,4.635-6.6,4.635" transform="translate(-183.16 -457.289)" fill="none" stroke="#3f6476" stroke-linecap="round" stroke-linejoin="round" stroke-width="1.5"/>
              <path id="Trazado_778279" data-name="Trazado 778279" d="M305.81,454.65s1.317,11.847,2.744,13.5,8.273,3.23,8.273,3.23" transform="translate(-241.714 -453.751)" fill="none" stroke="#3f6476" stroke-linecap="round" stroke-linejoin="round" stroke-width="1.5"/>
            </g>
          </g>
          <path id="Trazado_778280" data-name="Trazado 778280" d="M147.717,281.15S135.89,330.556,135,339.514s4.635,13.232,8.022,13.232,10.5-4.635,11.931-10.337,7.316-38.3,6.6-42.241S147.717,281.15,147.717,281.15Z" transform="translate(-134.906 -167.741)" fill="#f1674d"/>
          <g id="Grupo_1046965" data-name="Grupo 1046965" transform="translate(93.186 144.906)">
            <path id="Trazado_778281" data-name="Trazado 778281" d="M335.143,341.42s-1.129,37.094-.6,43.511,1.662,7.792,2.2,15.547,0,23.82,0,23.82H323.092s-4.437-21.855-4.432-27.112.455-11.361,0-15.662-5.44-38.317-5.44-38.317l21.923-1.782Z" transform="translate(-313.22 -341.42)" fill="#ff8b66"/>
            <path id="Trazado_778282" data-name="Trazado 778282" d="M328.9,434.448c-.376-1.416,4.019,1.96,9.25-1.145s-1.484,6.046-3.6,6.208S329.291,435.916,328.9,434.448Z" transform="translate(-320.695 -384.979)" fill="#f1674d"/>
          </g>
          <g id="Grupo_1046975" data-name="Grupo 1046975" transform="translate(1.138 85.554)">
            <path id="Trazado_778283" data-name="Trazado 778283" d="M242.322,246.742c-9.8-9.8-34.355-18.489-34.355-18.489l-11.3-.4-11.3.4S160.807,236.943,151,246.742s-14.256,45.983-13.9,47.054,22.811,4.991,22.811,4.991-3.031,38.5-1.249,41.17,15.213,3.742,37.993,3.742,36.211-1.071,37.993-3.742-1.249-41.17-1.249-41.17,22.456-3.919,22.811-4.991-4.1-37.251-13.9-47.054Z" transform="translate(-137.082 -227.85)" fill="#ffa65b"/>
            <g id="Grupo_1046967" data-name="Grupo 1046967" transform="translate(12.75 0.005)" clip-path="url(#clip-path)">
              <g id="Grupo_1046966" data-name="Grupo 1046966" transform="translate(2.069 42.503)">
                <path id="Trazado_778284" data-name="Trazado 778284" d="M165.44,309.19l8.963,10.692,8.963-10.692,8.963,10.692,8.963-10.692,8.968,10.692,8.963-10.692,8.963,10.692,8.968-10.692,8.968,10.692,8.968-10.692" transform="translate(-165.44 -309.19)" fill="none" stroke="#ee8f3f" stroke-miterlimit="10" stroke-width="13"/>
                <path id="Trazado_778285" data-name="Trazado 778285" d="M165.44,347.72l8.963,10.7,8.963-10.7,8.963,10.7,8.963-10.7,8.968,10.7,8.963-10.7,8.963,10.7,8.968-10.7,8.968,10.7,8.968-10.7" transform="translate(-165.44 -327.584)" fill="#ffa65b" stroke="#ee8f3f" stroke-miterlimit="10" stroke-width="13"/>
              </g>
            </g>
            <g id="Grupo_1046968" data-name="Grupo 1046968" transform="translate(42.622 59.346)">
              <path id="Trazado_778287" data-name="Trazado 778287" d="M218.64,349.254s15.861-6.951,33.509-7.844" transform="translate(-218.64 -341.41)" fill="none" stroke="#bc2e46" stroke-linecap="round" stroke-linejoin="round" stroke-width="1.5"/>
              <path id="Trazado_778288" data-name="Trazado 778288" d="M247.63,351s13.013-1.6,23.35,0" transform="translate(-232.48 -345.647)" fill="none" stroke="#bc2e46" stroke-linecap="round" stroke-linejoin="round" stroke-width="1.5"/>
            </g>
            <g id="Grupo_1046973" data-name="Grupo 1046973" transform="translate(0.004 1.448)">
              <g id="Grupo_1046969" data-name="Grupo 1046969" transform="translate(0 61.823)">
                <path id="Trazado_778289" data-name="Trazado 778289" d="M137.09,348.92s.455.11,1.27.3" transform="translate(-137.09 -348.92)" fill="none" stroke="#f26b7f" stroke-linecap="round" stroke-linejoin="round" stroke-width="1"/>
                <path id="Trazado_778290" data-name="Trazado 778290" d="M143.47,350.42c4.04.935,11.126,2.529,17.664,3.747" transform="translate(-140.136 -349.636)" fill="none" stroke="#f26b7f" stroke-linecap="round" stroke-linejoin="round" stroke-width="1" stroke-dasharray="0 0 5.08 4.07"/>
                <path id="Trazado_778291" data-name="Trazado 778291" d="M179.28,357.96c.434.078.862.157,1.286.23" transform="translate(-157.232 -353.236)" fill="none" stroke="#f26b7f" stroke-linecap="round" stroke-linejoin="round" stroke-width="1"/>
              </g>
              <g id="Grupo_1046970" data-name="Grupo 1046970" transform="translate(95.823 62.534)">
                <path id="Trazado_778292" data-name="Trazado 778292" d="M320.45,358.247s.465-.057,1.291-.167" transform="translate(-320.45 -354.004)" fill="none" stroke="#f26b7f" stroke-linecap="round" stroke-linejoin="round" stroke-width="1"/>
                <path id="Trazado_778293" data-name="Trazado 778293" d="M326.9,354.589c4.029-.58,11.048-1.688,17.554-3.219" transform="translate(-323.529 -350.8)" fill="none" stroke="#f26b7f" stroke-linecap="round" stroke-linejoin="round" stroke-width="1" stroke-dasharray="0 0 5.02 4.02"/>
                <path id="Trazado_778294" data-name="Trazado 778294" d="M362.45,350.6c.429-.1.847-.209,1.27-.319" transform="translate(-340.501 -350.28)" fill="none" stroke="#f26b7f" stroke-linecap="round" stroke-linejoin="round" stroke-width="1"/>
              </g>
              <g id="Grupo_1046971" data-name="Grupo 1046971" transform="translate(21.129 108.141)">
                <path id="Trazado_778295" data-name="Trazado 778295" d="M177.52,437.55s.444.068,1.291.178" transform="translate(-177.52 -437.55)" fill="none" stroke="#f26b7f" stroke-linecap="round" stroke-linejoin="round" stroke-width="1"/>
                <path id="Trazado_778296" data-name="Trazado 778296" d="M184.06,438.275c9.814,1.16,39.409,3.935,71.12-.125" transform="translate(-180.642 -437.836)" fill="none" stroke="#f26b7f" stroke-linecap="round" stroke-linejoin="round" stroke-width="1" stroke-dasharray="0 0 5.13 4.1"/>
                <path id="Trazado_778297" data-name="Trazado 778297" d="M322.19,437.728c.434-.057.862-.115,1.3-.178" transform="translate(-246.586 -437.55)" fill="none" stroke="#f26b7f" stroke-linecap="round" stroke-linejoin="round" stroke-width="1"/>
              </g>
              <g id="Grupo_1046972" data-name="Grupo 1046972" transform="translate(45.476)">
                <path id="Trazado_778298" data-name="Trazado 778298" d="M224.11,230.62a8.992,8.992,0,0,0,.413,1.239" transform="translate(-224.11 -230.62)" fill="none" stroke="#f26b7f" stroke-linecap="round" stroke-linejoin="round" stroke-width="1"/>
                <path id="Trazado_778299" data-name="Trazado 778299" d="M226.64,235.65c1.7,2.785,5.419,6.454,13.107,6.229,8.309-.24,11.434-4.379,12.589-7.039" transform="translate(-225.318 -232.635)" fill="none" stroke="#f26b7f" stroke-linecap="round" stroke-linejoin="round" stroke-width="1" stroke-dasharray="0 0 4.78 3.83"/>
                <path id="Trazado_778300" data-name="Trazado 778300" d="M276.49,231.89a7.018,7.018,0,0,0,.3-1.27" transform="translate(-249.116 -230.62)" fill="none" stroke="#f26b7f" stroke-linecap="round" stroke-linejoin="round" stroke-width="1"/>
              </g>
            </g>
            <g id="Grupo_1046974" data-name="Grupo 1046974" transform="translate(12.75 20.23)">
              <path id="Trazado_778301" data-name="Trazado 778301" d="M161.48,266.56s9.328,5.613,11.6,19.158-1.505,31.544-1.505,31.544" transform="translate(-161.48 -266.56)" fill="none" stroke="#bc2e46" stroke-linecap="round" stroke-linejoin="round" stroke-width="1.5"/>
              <path id="Trazado_778302" data-name="Trazado 778302" d="M329.464,266.56s-9.328,5.613-11.6,19.158,1.505,31.544,1.505,31.544" transform="translate(-235.793 -266.56)" fill="none" stroke="#bc2e46" stroke-linecap="round" stroke-linejoin="round" stroke-width="1.5"/>
            </g>
          </g>
          <g id="Grupo_1046983" data-name="Grupo 1046983" transform="translate(25.48)">
            <g id="Grupo_1046976" data-name="Grupo 1046976" transform="translate(23.934 71.784)">
              <path id="Trazado_778303" data-name="Trazado 778303" d="M251.409,215.678c-2.137-6.282-.794-14.168-.794-14.168h-20.36s1.343,7.886-.794,14.168c0,0,3.418,6.8,10.645,7.2v.021c.11,0,.219-.005.329-.01s.219.01.329.01v-.021c7.222-.4,10.645-7.2,10.645-7.2Z" transform="translate(-229.46 -201.505)" fill="#ff8b66"/>
              <path id="Trazado_778304" data-name="Trazado 778304" d="M241.5,201.5H230.99a35.568,35.568,0,0,1,.366,3.679c2.3,2.529,6.109,5.916,10.144,6.078,3.4.141,6.883-2.111,9.433-4.28a37.719,37.719,0,0,1,.418-5.477H241.5Z" transform="translate(-230.19 -201.5)" fill="#f1674d"/>
            </g>
            <g id="Grupo_1046982" data-name="Grupo 1046982">
              <g id="Grupo_1046978" data-name="Grupo 1046978" transform="translate(5.395)">
                <path id="Trazado_778305" data-name="Trazado 778305" d="M196.178,116.541s-2.853-13.9-2.049-23.438,2.764-16.4,13.19-15.192c0,0,14.795-12.166,24.771-13.587s11.5,5.79,8.466,11.048c0,0,10.159-3.209,13.546,1.071s-1.427,11.5-1.427,11.5,7.755-.622,10.159,3.475-5.879,10.959-5.879,10.959,4.547,1.96,4.635,6.417-7.572,7.755-7.572,7.755H196.183Z" transform="translate(-193.986 -64.14)" fill="#6b282f"/>
                <g id="Grupo_1046977" data-name="Grupo 1046977" transform="translate(39.171 10.902)">
                  <path id="Trazado_778306" data-name="Trazado 778306" d="M290.7,90.49s-5.1,9.135-21.761,14.037" transform="translate(-268.94 -87.621)" fill="none" stroke="#8e393e" stroke-linecap="round" stroke-linejoin="round" stroke-width="1"/>
                  <path id="Trazado_778307" data-name="Trazado 778307" d="M299.391,85a26.006,26.006,0,0,1-6.721,11.5" transform="translate(-280.269 -85)" fill="none" stroke="#8e393e" stroke-linecap="round" stroke-linejoin="round" stroke-width="1"/>
                </g>
                <path id="Trazado_778308" data-name="Trazado 778308" d="M301.666,129.656s-8.555,2.78-21.3-1.056" transform="translate(-235.226 -94.913)" fill="none" stroke="#8e393e" stroke-linecap="round" stroke-linejoin="round" stroke-width="1"/>
                <path id="Trazado_778309" data-name="Trazado 778309" d="M303.22,106.83s11.941-1.458,13.9,3.8-5.524,11.941-5.524,11.941,4.238,4.27.355,8.774" transform="translate(-246.135 -84.432)" fill="none" stroke="#6b282f" stroke-linecap="round" stroke-linejoin="round" stroke-width="1"/>
              </g>
              <path id="Trazado_778310" data-name="Trazado 778310" d="M226.987,90.49c-16.969,0-27.624,15.62-26.281,32.751,1.406,17.909,14.669,28.069,26.281,27.671,11.607.4,24.876-9.757,26.281-27.671,1.343-17.125-9.313-32.751-26.281-32.751Z" transform="translate(-191.745 -76.719)" fill="#ff8b66"/>
              <path id="Trazado_778311" data-name="Trazado 778311" d="M253.932,143.95a43.684,43.684,0,0,0-1.28,12.652s3.062-2.226,4.578-1.071-.533,4.724-3.386,6.684" transform="translate(-216.583 -102.241)" fill="none" stroke="#aa4841" stroke-linecap="round" stroke-linejoin="round" stroke-width="1.5"/>
              <path id="Trazado_778312" data-name="Trazado 778312" d="M232.982,154.725c0,1.526-.789,2.764-1.761,2.764s-1.761-1.239-1.761-2.764.789-2.765,1.761-2.765S232.982,153.2,232.982,154.725Z" transform="translate(-205.526 -106.065)" fill="#0f3945"/>
              <path id="Trazado_778313" data-name="Trazado 778313" d="M271.612,154.725c0,1.526-.789,2.764-1.761,2.764s-1.761-1.239-1.761-2.764.789-2.765,1.761-2.765S271.612,153.2,271.612,154.725Z" transform="translate(-223.968 -106.065)" fill="#0f3945"/>
              <path id="Trazado_778314" data-name="Trazado 778314" d="M237.91,181.13s7.395,6.506,15.15,0" transform="translate(-209.56 -119.991)" fill="none" stroke="#aa4841" stroke-linecap="round" stroke-linejoin="round" stroke-width="1.5"/>
              <path id="Trazado_778315" data-name="Trazado 778315" d="M219.31,137.816a6.085,6.085,0,0,1,1.139-3.538,8.562,8.562,0,0,1,6.924-3.81,5.805,5.805,0,0,1,2.09.334c.225.078,1.118.34,1.207.585.251.178-.862.256-.92.261a10.816,10.816,0,0,0-2,.361,14.335,14.335,0,0,0-3.4,1.448,15.867,15.867,0,0,0-3.1,2.393,16.32,16.32,0,0,0-1.359,1.521c-.052.068-.564.894-.6.449Z" transform="translate(-200.676 -95.804)" fill="#6b282f"/>
              <path id="Trazado_778316" data-name="Trazado 778316" d="M264.777,131.476a5.03,5.03,0,0,1,3.125-.742,7.82,7.82,0,0,1,3.637,1.15,8.2,8.2,0,0,1,2.786,2.827,5.985,5.985,0,0,1,.69,1.693,3.391,3.391,0,0,1,.188,1.536c-.146.34-.366-.115-.512-.3-.371-.465-.758-.909-1.15-1.354a13.334,13.334,0,0,0-2.989-2.5,15.41,15.41,0,0,0-3.559-1.651,12.457,12.457,0,0,0-1.573-.361c-.089-.016-.993-.031-.643-.287Z" transform="translate(-222.348 -95.929)" fill="#6b282f"/>
              <path id="Trazado_778317" data-name="Trazado 778317" d="M209.093,93.5s9.449,5.79,15.417-4.28c3.7-6.24,4.108-18.521,4.129-23.135-9.616,3.125-21.327,12.751-21.327,12.751-10.426-1.2-12.386,5.66-13.19,15.192-.528,6.308.538,14.518,1.322,19.362,9.642.538,13.65-19.9,13.65-19.9Z" transform="translate(-188.588 -65.066)" fill="#8e393e"/>
              <g id="Grupo_1046979" data-name="Grupo 1046979" transform="translate(6.908 20.789)">
                <path id="Trazado_778318" data-name="Trazado 778318" d="M196.88,103.92s3.616,9.407,11.816,14.094" transform="translate(-196.88 -103.92)" fill="none" stroke="#6b282f" stroke-linecap="round" stroke-linejoin="round" stroke-width="1"/>
                <path id="Trazado_778319" data-name="Trazado 778319" d="M208.9,127.941s-5.43-6.883-6.971-14.471" transform="translate(-199.291 -108.479)" fill="none" stroke="#6b282f" stroke-linecap="round" stroke-linejoin="round" stroke-width="1"/>
              </g>
              <g id="Grupo_1046980" data-name="Grupo 1046980" transform="translate(0 40.833)">
                <path id="Trazado_778322" data-name="Trazado 778322" d="M197.108,162.58l-4.353-13.269s-2.132-8.3-7.212-6.872S186.128,161.953,197.108,162.58Z" transform="translate(-183.662 -142.274)" fill="#ff8b66"/>
                <path id="Trazado_778323" data-name="Trazado 778323" d="M184.97,155.811c1.667,5.519,6.287,11.957,12.762,12.323l-4.108-12.511C191.487,154.353,187.191,152.435,184.97,155.811Z" transform="translate(-184.287 -147.833)" fill="#f1674d"/>
              </g>
              <g id="Grupo_1046981" data-name="Grupo 1046981" transform="translate(56.967 40.833)">
                <path id="Trazado_778324" data-name="Trazado 778324" d="M292.67,162.58l4.353-13.269s2.132-8.3,7.212-6.872S303.65,161.953,292.67,162.58Z" transform="translate(-292.67 -142.274)" fill="#ff8b66"/>
                <path id="Trazado_778325" data-name="Trazado 778325" d="M305.432,155.811c-1.667,5.519-6.287,11.957-12.762,12.323l4.108-12.511C298.915,154.353,303.211,152.435,305.432,155.811Z" transform="translate(-292.67 -147.833)" fill="#f1674d"/>
              </g>
            </g>
          </g>
        </g>
        <g id="Grupo_1046997" data-name="Grupo 1046997" transform="translate(3.317 99.236)">
          <g id="Grupo_1046994" data-name="Grupo 1046994" transform="translate(43.462)">
            <path id="Trazado_778341" data-name="Trazado 778341" d="M249,289.378a2.387,2.387,0,0,1-2.357,2.294H227.68a2.357,2.357,0,0,1-2.331-2.3l-.93-32.553a2.586,2.586,0,0,1,2.451-2.791h21.045a2.556,2.556,0,0,1,2.42,2.791Z" transform="translate(-224.418 -254.03)" fill="#adbec8"/>
            <path id="Trazado_778342" data-name="Trazado 778342" d="M248.986,293.126a2.368,2.368,0,0,1-2.341,2.268H227.784a2.339,2.339,0,0,1-2.315-2.273l-.92-32.657a2.563,2.563,0,0,1,2.435-2.754h20.925a2.527,2.527,0,0,1,2.4,2.754l-1.322,32.662Z" transform="translate(-224.48 -255.787)" fill="#cfd9db"/>
            <g id="Grupo_1046993" data-name="Grupo 1046993" transform="translate(18.95 4.348)">
              <path id="Trazado_778343" data-name="Trazado 778343" d="M264.939,272.107a2.284,2.284,0,0,1-2.19,2.273h0a2.142,2.142,0,0,1-2.069-2.273l.152-7.374a2.348,2.348,0,0,1,2.232-2.383h0a2.21,2.21,0,0,1,2.106,2.388l-.23,7.374Z" transform="translate(-260.679 -262.35)" fill="#113945"/>
              <g id="Grupo_1046991" data-name="Grupo 1046991" transform="translate(1.019 1.009)">
                <path id="Trazado_778344" data-name="Trazado 778344" d="M265.232,265.707a1.407,1.407,0,0,1-1.338,1.416,1.324,1.324,0,0,1-1.265-1.416,1.406,1.406,0,0,1,1.338-1.427A1.327,1.327,0,0,1,265.232,265.707Z" transform="translate(-262.629 -264.28)" fill="#adbec8"/>
                <path id="Trazado_778345" data-name="Trazado 778345" d="M265.168,266.451a.6.6,0,0,1-.575.606.569.569,0,0,1-.543-.606.609.609,0,0,1,.575-.611A.57.57,0,0,1,265.168,266.451Z" transform="translate(-263.308 -265.025)" fill="#113945"/>
              </g>
              <g id="Grupo_1046992" data-name="Grupo 1046992" transform="translate(0.941 4.703)">
                <path id="Trazado_778346" data-name="Trazado 778346" d="M265.056,272.751a1.388,1.388,0,0,1-1.322,1.39,1.305,1.305,0,0,1-1.254-1.39,1.387,1.387,0,0,1,1.327-1.4,1.305,1.305,0,0,1,1.254,1.4Z" transform="translate(-262.479 -271.35)" fill="#adbec8"/>
                <path id="Trazado_778347" data-name="Trazado 778347" d="M264.988,273.481a.594.594,0,0,1-.57.6.562.562,0,0,1-.538-.6.6.6,0,0,1,.57-.6A.564.564,0,0,1,264.988,273.481Z" transform="translate(-263.148 -272.08)" fill="#113945"/>
              </g>
              <path id="Trazado_778348" data-name="Trazado 778348" d="M264.831,280a.825.825,0,0,1-.794.826.777.777,0,0,1-.747-.826.826.826,0,0,1,.794-.831A.772.772,0,0,1,264.831,280Z" transform="translate(-261.925 -270.38)" fill="#ffb878"/>
            </g>
          </g>
          <g id="Grupo_1046996" data-name="Grupo 1046996" transform="translate(0 6.753)">
            <path id="Trazado_778349" data-name="Trazado 778349" d="M187.966,303.219c-2.085,2.456-24.7,40.956-34.512,46.882s-13.122-6.177-11.988-14.115,17.12-19.765,22.054-25.33c6.323-7.133,13.608-15.563,14.617-18.338s-1.259-9.166,1.134-11.816,5.508-9.945,5.508-9.945l.455,10.4s6.579-3.324,10.358-5.027,7.813-1.981,8.759-2.6,6.255-6.041,7.065-6.355,1.9,2.4,0,5.3c0,0,1.693,1.385-.387,5.419,0,0,1.542,1.7-.4,5.357a4.276,4.276,0,0,1,.779,3.026,17.723,17.723,0,0,1-3.261,6.616c-1.1,1.071-18.453,8.471-20.188,10.525Z" transform="translate(-141.252 -266.953)" fill="#ff8b66"/>
            <g id="Grupo_1046995" data-name="Grupo 1046995" transform="translate(60.834 5.329)">
              <path id="Trazado_778350" data-name="Trazado 778350" d="M266.988,277.15s-3.355,4.411-4.233,5.733-1.254,3.026-2.576,3.339-2.519.5-2.519.5" transform="translate(-257.66 -277.15)" fill="none" stroke="#aa4841" stroke-linecap="round" stroke-linejoin="round" stroke-width="1.5"/>
              <path id="Trazado_778351" data-name="Trazado 778351" d="M268.039,287.52s-2.3,3.59-2.874,4.85a10.227,10.227,0,0,1-1.411,2.707,17.464,17.464,0,0,1-3.083,1.134" transform="translate(-259.097 -282.101)" fill="none" stroke="#aa4841" stroke-linecap="round" stroke-linejoin="round" stroke-width="1.5"/>
              <path id="Trazado_778352" data-name="Trazado 778352" d="M270.282,297.76s-2.137,4.411-2.477,5.419-.491,1.385-1.615,1.7" transform="translate(-261.732 -286.989)" fill="none" stroke="#aa4841" stroke-linecap="round" stroke-linejoin="round" stroke-width="1.5"/>
            </g>
          </g>
        </g>
      </g>
      <g id="_7000947" data-name="7000947" transform="translate(0 12.084)" opacity="0.77">
        <g id="Grupo_1046998" data-name="Grupo 1046998">
          <g id="Grupo_1046990" data-name="Grupo 1046990">
            <g id="Grupo_1046985" data-name="Grupo 1046985">
              <path id="Trazado_778326" data-name="Trazado 778326" d="M407.584,150c.333-4.386-10.615-8.385-28.464-11.228h0l3.847-76.06.02-.1c18.986,3.269,30.62,7.817,30.248,12.762l-5.646,74.634Z" transform="translate(-215.146 -62.071)" fill="#8cbddd" opacity="0.3"/>
              <path id="Trazado_778327" data-name="Trazado 778327" d="M50.25,149.312,44.541,74c-.368-4.862,10.816-9.233,29.13-12.33l-.025-.157,4.087,76.766c-17.256,2.808-27.807,6.719-27.484,11.037Z" transform="translate(-44.532 -61.51)" fill="#8cbddd" opacity="0.3"/>
              <path id="Trazado_778328" data-name="Trazado 778328" d="M50.259,162.305,44.55,86.99c.72,9.5,45.362,17.241,99.476,17.422,53.85.181,97.883-7.2,98.594-16.609l-5.646,74.634c-.632,8.366-42.156,15.065-92.968,15.065s-93.115-6.758-93.752-15.2Z" transform="translate(-44.541 -74.503)" fill="#8cbddd" opacity="0.3"/>
            </g>
            <path id="Trazado_778329" data-name="Trazado 778329" d="M338.39,231.377V215.17c8.846-.779,16.859-1.789,23.764-2.98l.02.1v16.207l-.024-.142c-6.861,1.206-14.879,2.23-23.754,3.019h0Z" transform="translate(-194.377 -138.345)" fill="#8cbddd" opacity="0.5"/>
            <path id="Trazado_778330" data-name="Trazado 778330" d="M103.008,160.448,101.778,144c-6.886-.99-13-2.132-18.148-3.4l1.637,16.628h0C90.329,158.429,96.3,159.512,103.008,160.448Z" transform="translate(-64.469 -101.84)" fill="#8cbddd" opacity="0.5"/>
            <g id="Grupo_1046988" data-name="Grupo 1046988" transform="translate(152.192 37.628)">
              <path id="Trazado_778331" data-name="Trazado 778331" d="M355.08,172.674l.27-20.319c28.155-2.872,48.464-7.91,48.929-14.065l-1.808,22.975h0C396.947,166.195,379.246,170.312,355.08,172.674Z" transform="translate(-355.08 -138.29)" fill="#8cbddd" opacity="0.5"/>
              <g id="Grupo_1046987" data-name="Grupo 1046987" transform="translate(7.827 13.918)" opacity="0.8">
                <g id="Grupo_1046986" data-name="Grupo 1046986">
                  <path id="Trazado_778332" data-name="Trazado 778332" d="M371.56,176c7.086-.872,13.536-1.9,19.118-3.043" transform="translate(-371.31 -169.887)" fill="none" stroke="#8cbddd" stroke-miterlimit="10" stroke-width="2"/>
                  <path id="Trazado_778333" data-name="Trazado 778333" d="M371.39,182.244c7.033-.867,13.443-1.877,19-3.014" transform="translate(-371.223 -173.084)" fill="none" stroke="#8cbddd" stroke-miterlimit="10" stroke-width="2"/>
                  <path id="Trazado_778334" data-name="Trazado 778334" d="M371.22,188.49c6.979-.858,13.345-1.857,18.873-2.98" transform="translate(-371.137 -176.287)" fill="none" stroke="#8cbddd" stroke-miterlimit="10" stroke-width="2"/>
                  <path id="Trazado_778335" data-name="Trazado 778335" d="M371.05,194.73c6.93-.848,13.247-1.838,18.75-2.95" transform="translate(-371.05 -179.484)" fill="none" stroke="#8cbddd" stroke-miterlimit="10" stroke-width="2"/>
                  <path id="Trazado_778336" data-name="Trazado 778336" d="M371.73,169.768c7.14-.882,13.634-1.916,19.236-3.078" transform="translate(-371.397 -166.69)" fill="none" stroke="#8cbddd" stroke-miterlimit="10" stroke-width="2"/>
                </g>
              </g>
              <path id="Trazado_778337" data-name="Trazado 778337" d="M431.214,154.33c-3.313,2.068-8.973,3.955-16.369,5.6h0l-.456,12.232c7.042-1.544,12.556-3.3,16.016-5.224h0l.809-12.6Z" transform="translate(-385.323 -146.469)" fill="#8cbddd" opacity="0.8"/>
            </g>
            <g id="Grupo_1046989" data-name="Grupo 1046989" transform="translate(6.032 55.237)">
              <path id="Trazado_778338" data-name="Trazado 778338" d="M99.937,229.912c-17.579-2.607-32.732-6-39.456-9.851h0L56.84,174.22c6.944,4.229,21.059,7.959,39.932,10.806l3.161,44.891Z" transform="translate(-56.84 -174.22)" fill="#8cbddd" opacity="0.5"/>
              <path id="Trazado_778339" data-name="Trazado 778339" d="M79.92,201.6l5.489,11.242L96.225,217.3l-6.92,6.268,3.107,12.747L82.15,227.706l-8.983,2.94.951-11.257L66.36,209.48l9.86.98Z" transform="translate(-61.694 -188.182)" fill="#8cbddd" opacity="0.8"/>
            </g>
            <path id="Trazado_778340" data-name="Trazado 778340" d="M247.707,197.84H178.429l-2.509-55.57h74.3Z" transform="translate(-111.53 -102.691)" fill="#8cbddd" opacity="0.5"/>
          </g>
        </g>
      </g>
    </g>
  </g>
</svg>
