<svg id="Grupo_1054920" data-name="Grupo 1054920" xmlns="http://www.w3.org/2000/svg" xmlns:xlink="http://www.w3.org/1999/xlink" width="66.33" height="66.33" viewBox="0 0 66.33 66.33">
  <defs>
    <linearGradient id="linear-gradient" x1="-0.011" y1="0.027" x2="0.823" y2="0.799" gradientUnits="objectBoundingBox">
      <stop offset="0"/>
      <stop offset="1" stop-opacity="0"/>
    </linearGradient>
  </defs>
  <path id="Trazado_736833" data-name="Trazado 736833" d="M33.165,0A33.165,33.165,0,1,1,0,33.165,33.165,33.165,0,0,1,33.165,0Z" fill="#f2642a"/>
  <g id="numero-3" transform="translate(6.03 6.03)">
    <path id="Trazado_736848" data-name="Trazado 736848" d="M27.135,0A27.135,27.135,0,1,1,0,27.135,27.135,27.135,0,0,1,27.135,0Z" transform="translate(0 0)" fill="#ff6e33"/>
    <path id="Trazado_736846" data-name="Trazado 736846" d="M199.977,146.123l-17.7-17.7H163.7v6.17l5.649,5.649-.972,1.6v1.509l6.176,6.176a3.189,3.189,0,0,1-1.412.367l-3.173-3.173h-6.947a9.556,9.556,0,0,0,2.717,6.654L180.7,168.33A27.163,27.163,0,0,0,199.977,146.123Z" transform="translate(-145.981 -115.135)" opacity="0.49" fill="url(#linear-gradient)"/>
    <path id="Trazado_736847" data-name="Trazado 736847" d="M176.844,138.364a8.189,8.189,0,0,1,6.363,8.307c0,5.5-4.266,9.447-10.205,9.447-5.817,0-9.816-3.8-9.978-9.4h6.948a3.012,3.012,0,0,0,3.048,3.176,3.1,3.1,0,0,0,3.148-3.34c0-1.978-1.345-3.206-3.451-3.206H168.38v-1.509l4.408-7.246H163.7v-6.17h18.573v1.244Z" transform="translate(-145.981 -115.135)" fill="#fff"/>
  </g>
</svg>
