<svg xmlns="http://www.w3.org/2000/svg" width="58.132" height="58.132" viewBox="0 0 58.132 58.132">
  <g id="recursos" transform="translate(-0.001)">
    <g id="Grupo_1045944" data-name="Grupo 1045944" transform="translate(28.613 11.354)">
      <g id="Grupo_1045943" data-name="Grupo 1045943">
        <path id="Trazado_775052" data-name="Trazado 775052" d="M253.135,100a1.135,1.135,0,1,0,1.135,1.135A1.136,1.136,0,0,0,253.135,100Z" transform="translate(-252 -99.999)" fill="#12263f"/>
      </g>
    </g>
    <g id="Grupo_1045946" data-name="Grupo 1045946" transform="translate(0.001)">
      <g id="Grupo_1045945" data-name="Grupo 1045945" transform="translate(0)">
        <path id="Trazado_775053" data-name="Trazado 775053" d="M57.273,23.877l-4.236-1.059a23.461,23.461,0,0,0-2.878-6.976l2.24-3.733a1.136,1.136,0,0,0-.171-1.387L47.41,5.9a1.135,1.135,0,0,0-1.387-.171L42.29,7.974A23.462,23.462,0,0,0,35.314,5.1L34.256.86a1.135,1.135,0,0,0-1.1-.86H26.342a1.135,1.135,0,0,0-1.1.86L24.169,5.145a23.465,23.465,0,0,0-6.885,2.877L13.473,5.734a1.135,1.135,0,0,0-1.387.171L7.268,10.722A1.135,1.135,0,0,0,7.1,12.11l2.324,3.872a23.438,23.438,0,0,0-2.789,6.793l-4.41,1.1a1.135,1.135,0,0,0-.86,1.1v6.812a1.135,1.135,0,0,0,.86,1.1l4.459,1.115a23.537,23.537,0,0,0,2.755,6.66L3.27,46.834h0l-1.6,1.605a5.676,5.676,0,1,0,8.027,8.028L11.3,54.863h0l6.168-6.168a23.558,23.558,0,0,0,6.659,2.755l1.115,4.459a1.135,1.135,0,0,0,1.1.86h6.812a1.135,1.135,0,0,0,1.1-.86l1.1-4.41a23.475,23.475,0,0,0,6.793-2.787l3.873,2.324a1.136,1.136,0,0,0,1.387-.171l4.817-4.817a1.135,1.135,0,0,0,.171-1.387l-2.287-3.812a23.448,23.448,0,0,0,2.877-6.884l4.285-1.072a1.135,1.135,0,0,0,.86-1.1V24.978A1.136,1.136,0,0,0,57.273,23.877ZM8.086,54.863A3.405,3.405,0,1,1,3.27,50.046l.8-.8L8.889,54.06Zm8.421-8.42-.005.005L10.5,52.454,5.678,47.637l6.007-6.007,0,0,4.887-4.887.006-.006,3.945-3.944a10.248,10.248,0,0,0,4.817,4.817L21.4,41.55l-.006.006Zm16.021-19.4A1.135,1.135,0,0,0,31.092,25.6L21.807,28.7c0-.1-.007-.209-.007-.314a7.948,7.948,0,1,1,7.948,7.948c-.105,0-.21,0-.314-.007ZM27.248,35.7l-.169.169a7.958,7.958,0,0,1-4.817-4.817l.169-.169,7.225-2.408Zm28.614-4.8h0l-4.1,1.026a1.135,1.135,0,0,0-.836.867,21.215,21.215,0,0,1-3.094,7.4,1.136,1.136,0,0,0-.028,1.212L50,45.068l-3.564,3.564-3.71-2.226a1.135,1.135,0,0,0-1.2.021,21.24,21.24,0,0,1-7.321,3,1.135,1.135,0,0,0-.874.837L32.268,54.5H27.228l-1.069-4.275a1.135,1.135,0,0,0-.865-.835,21.341,21.341,0,0,1-6.17-2.351l3.286-3.286A17.029,17.029,0,1,0,35.734,12.439a1.135,1.135,0,0,0-.8,2.125,14.759,14.759,0,1,1-10.8,27.466l3.623-3.623a10.212,10.212,0,1,0-8.028-8.029L16.1,34a14.754,14.754,0,0,1,8.46-19.438,1.135,1.135,0,0,0-.8-2.125,17.024,17.024,0,0,0-9.38,23.282L11.1,39.008a21.329,21.329,0,0,1-2.351-6.17,1.135,1.135,0,0,0-.835-.865L3.634,30.9V25.865l4.232-1.058a1.135,1.135,0,0,0,.837-.874,21.2,21.2,0,0,1,3-7.32,1.136,1.136,0,0,0,.021-1.2L9.5,11.7l3.564-3.564,3.655,2.194a1.135,1.135,0,0,0,1.212-.028,21.232,21.232,0,0,1,7.4-3.094,1.135,1.135,0,0,0,.867-.836l1.026-4.1h5.039l1.015,4.06a1.136,1.136,0,0,0,.876.837,21.233,21.233,0,0,1,7.49,3.09,1.136,1.136,0,0,0,1.208.025l3.575-2.145L50,11.7,47.85,15.276a1.135,1.135,0,0,0,.025,1.209,21.231,21.231,0,0,1,3.09,7.49,1.135,1.135,0,0,0,.837.876l4.059,1.015Z" transform="translate(-0.001)" fill="#12263f"/>
      </g>
    </g>
  </g>
</svg>
