<svg xmlns="http://www.w3.org/2000/svg" xmlns:xlink="http://www.w3.org/1999/xlink" width="120" height="120" viewBox="0 0 120 120">
  <defs>
    <filter id="Elipse_8024" x="0" y="0" width="120" height="120" filterUnits="userSpaceOnUse">
      <feOffset dy="3" input="SourceAlpha"/>
      <feGaussianBlur stdDeviation="3" result="blur"/>
      <feFlood flood-opacity="0.161"/>
      <feComposite operator="in" in2="blur"/>
      <feComposite in="SourceGraphic"/>
    </filter>
  </defs>
  <g id="Grupo_1054387" data-name="Grupo 1054387" transform="translate(-388.279 -1872.106)">
    <g transform="matrix(1, 0, 0, 1, 388.28, 1872.11)" filter="url(#Elipse_8024)">
      <circle id="Elipse_8024-2" data-name="Elipse 8024" cx="51" cy="51" r="51" transform="translate(9 6)" fill="#ffc5ad"/>
    </g>
    <g id="portapapeles" transform="translate(409.906 1887.555)">
      <g id="Icons" transform="translate(1.46 1.46)">
        <path id="Trazado_775092" data-name="Trazado 775092" d="M62.3,28.7V9.379A4.379,4.379,0,0,0,57.926,5H5.379A4.379,4.379,0,0,0,1,9.379V76.522A4.379,4.379,0,0,0,5.379,80.9H45.563Z" transform="translate(-1 0.839)" fill="sienna"/>
        <path id="Trazado_775093" data-name="Trazado 775093" d="M45.272,5H40.893a4.379,4.379,0,0,1,4.379,4.379V28.7L28.53,80.9h4.379L49.651,28.7V9.379A4.379,4.379,0,0,0,45.272,5Z" transform="translate(11.654 0.839)" fill="#783e22"/>
        <path id="Trazado_775094" data-name="Trazado 775094" d="M54.628,26.545V10.46A1.46,1.46,0,0,0,53.168,9H6.46A1.46,1.46,0,0,0,5,10.46v61.3a1.46,1.46,0,0,0,1.46,1.46H35.886Z" transform="translate(0.839 2.677)" fill="#f5f5f5"/>
        <path id="Trazado_775095" data-name="Trazado 775095" d="M44.821,9H40.442a1.46,1.46,0,0,1,1.46,1.46V26.545L23.16,73.224h4.379L46.281,26.545V10.46A1.46,1.46,0,0,0,44.821,9Z" transform="translate(9.186 2.677)" fill="#cfd8dc"/>
        <path id="Trazado_775096" data-name="Trazado 775096" d="M70.238,31.218a27.764,27.764,0,1,1-3.97-3.97" transform="translate(8.174 8.193)" fill="#f44335"/>
        <path id="Trazado_775097" data-name="Trazado 775097" d="M62.175,31.217l-3.97-3.97A27.533,27.533,0,0,0,40.689,21c-.686,0-1.36.054-2.033.1a27.51,27.51,0,0,1,15.17,6.145l3.97,3.97A27.7,27.7,0,0,1,38.5,76.355c.73.057,1.451.111,2.189.111A27.719,27.719,0,0,0,62.175,31.217Z" transform="translate(16.237 8.193)" fill="#c81e1e"/>
        <circle id="Elipse_7987" data-name="Elipse 7987" cx="20.435" cy="20.435" r="20.435" transform="translate(36.491 36.491)" fill="#f5f5f5"/>
        <path id="Trazado_775098" data-name="Trazado 775098" d="M40.689,26a20.468,20.468,0,0,0-2.189.121,20.435,20.435,0,0,1,0,40.628A20.435,20.435,0,1,0,40.689,26Z" transform="translate(16.237 10.491)" fill="#cfd8dc"/>
        <circle id="Elipse_7988" data-name="Elipse 7988" cx="13.137" cy="13.137" r="13.137" transform="translate(43.789 43.789)" fill="#f44335"/>
        <path id="Trazado_775099" data-name="Trazado 775099" d="M40.689,31a13.2,13.2,0,0,0-2.189.2,13.121,13.121,0,0,1,0,25.879A13.137,13.137,0,1,0,40.689,31Z" transform="translate(16.237 12.789)" fill="#c81e1e"/>
        <circle id="Elipse_7989" data-name="Elipse 7989" cx="5.839" cy="5.839" r="5.839" transform="translate(51.087 51.087)" fill="#f5f5f5"/>
        <path id="Trazado_775100" data-name="Trazado 775100" d="M40.689,36a5.788,5.788,0,0,0-2.189.438,5.825,5.825,0,0,1,0,10.8A5.839,5.839,0,1,0,40.689,36Z" transform="translate(16.237 15.087)" fill="#cfd8dc"/>
        <path id="Trazado_775101" data-name="Trazado 775101" d="M61.764,23.919,59.3,21.453a1.552,1.552,0,0,0-2.189,0l-4.655,4.655a1.553,1.553,0,0,0-.454,1.1v2.459a1.552,1.552,0,0,0,1.552,1.552h2.459a1.553,1.553,0,0,0,1.1-.454l4.655-4.655a1.552,1.552,0,0,0,0-2.189Z" transform="translate(22.442 8.193)" fill="#ff9801"/>
        <path id="Trazado_775102" data-name="Trazado 775102" d="M61.577,23.919l-2.465-2.465a1.552,1.552,0,0,0-2.189,0l-1.092,1.093L57.2,23.914a1.552,1.552,0,0,1,0,2.189l-4.655,4.659a1.523,1.523,0,0,1-.139.092,1.527,1.527,0,0,0,.96.362h2.459a1.553,1.553,0,0,0,1.1-.454l4.655-4.655a1.552,1.552,0,0,0,0-2.189Z" transform="translate(22.628 8.193)" fill="#f57c00"/>
        <path id="Trazado_775103" data-name="Trazado 775103" d="M43.112,6.839v5.839a1.46,1.46,0,0,1-1.46,1.46H12.46A1.46,1.46,0,0,1,11,12.677V6.839a1.46,1.46,0,0,1,1.46-1.46h4.379L17.633,3A2.919,2.919,0,0,1,20.4,1H33.709a2.919,2.919,0,0,1,2.773,2l.791,2.382h4.379a1.46,1.46,0,0,1,1.46,1.46Z" transform="translate(3.596 -1)" fill="#9e9e9e"/>
        <g id="Grupo_1045990" data-name="Grupo 1045990" transform="translate(32.927)">
          <path id="Trazado_775104" data-name="Trazado 775104" d="M27.937,1H23.558a2.919,2.919,0,0,1,2.773,2l.791,2.382H31.5L30.707,3A2.919,2.919,0,0,0,27.937,1Z" transform="translate(-23.558 -1)" fill="#707070"/>
          <path id="Trazado_775105" data-name="Trazado 775105" d="M33.379,4H29a1.46,1.46,0,0,1,1.46,1.46V11.3A1.46,1.46,0,0,1,29,12.758h4.379a1.46,1.46,0,0,0,1.46-1.46V5.46A1.46,1.46,0,0,0,33.379,4Z" transform="translate(-21.057 0.379)" fill="#707070"/>
        </g>
      </g>
      <g id="Icons_copy" data-name="Icons copy" transform="translate(0 0)">
        <path id="Trazado_775106" data-name="Trazado 775106" d="M5.839,84.659H45.745A29.145,29.145,0,0,0,82.09,41.4L86.7,36.795a3.011,3.011,0,0,0,0-4.259l-.2-.194.654-.661a1.46,1.46,0,1,0-2.079-2.049l-.646.651-.2-.2a3.083,3.083,0,0,0-4.258,0l-4.607,4.6A29.117,29.117,0,0,0,64.224,29.81V11.677a5.839,5.839,0,0,0-5.839-5.839H49.222a2.909,2.909,0,0,0-2.514-1.46H43.382l-.461-1.385A4.379,4.379,0,0,0,38.767,0H25.458a4.379,4.379,0,0,0-4.147,3l-.469,1.384H17.516A2.909,2.909,0,0,0,15,5.839H5.839A5.839,5.839,0,0,0,0,11.677V78.821A5.839,5.839,0,0,0,5.839,84.659Zm52.547,0A26.274,26.274,0,1,1,74.442,37.628v1.69a2.973,2.973,0,0,0,.127.819l-1.79,1.791a21.971,21.971,0,1,0,2.064,2.064l1.788-1.79a2.973,2.973,0,0,0,.819.127h1.69a26.236,26.236,0,0,1-20.755,42.33Zm4.379-26.274a4.379,4.379,0,1,1-4.379-4.379,4.307,4.307,0,0,1,1.876.438l-2.908,2.908a1.46,1.46,0,1,0,2.064,2.064l2.909-2.906a4.307,4.307,0,0,1,.438,1.876ZM62.4,52.3a7.32,7.32,0,1,0,2.064,2.064L67.6,51.233a11.715,11.715,0,1,1-2.061-2.061Zm5.212-5.212a14.62,14.62,0,1,0,2.064,2.064l3.1-3.1a19.029,19.029,0,1,1-2.065-2.065Zm9.78-10.3,4.782-4.653,1.235,1.235v.009h.009l1.21,1.212v.13L79.914,39.41l-2.553-.092ZM61.3,11.677V29.355a29.03,29.03,0,0,0-2.919-.162V14.6a2.919,2.919,0,0,0-2.919-2.919H49.628V8.758h8.758A2.919,2.919,0,0,1,61.3,11.677ZM17.516,7.3h4.379a1.46,1.46,0,0,0,1.385-1l.794-2.382a1.46,1.46,0,0,1,1.384-1H38.767a1.46,1.46,0,0,1,1.384,1L40.944,6.3a1.46,1.46,0,0,0,1.385,1h4.379v5.839H17.516Zm29.193,8.758a2.909,2.909,0,0,0,2.514-1.46h6.244V29.339a29.117,29.117,0,0,0-17.894,8.612H27.733a1.46,1.46,0,1,0,0,2.919h7.354a29.073,29.073,0,0,0-4.934,10.217h-2.42a1.46,1.46,0,1,0,0,2.919h1.825a28,28,0,0,0,.223,10.217H27.733a1.46,1.46,0,1,0,0,2.919h2.805A29.126,29.126,0,0,0,35.087,75.9H8.758V14.6H15a2.909,2.909,0,0,0,2.514,1.46ZM2.919,11.677A2.919,2.919,0,0,1,5.839,8.758H14.6v2.919H8.758A2.919,2.919,0,0,0,5.839,14.6V75.9a2.919,2.919,0,0,0,2.919,2.919H37.573a29.6,29.6,0,0,0,3.372,2.919H5.839a2.919,2.919,0,0,1-2.919-2.919Z" transform="translate(0 0)"/>
        <circle id="Elipse_7990" data-name="Elipse 7990" cx="1.46" cy="1.46" r="1.46" transform="translate(30.652 5.839)"/>
        <path id="Trazado_775107" data-name="Trazado 775107" d="M10.428,21.871l1.46,1.46a1.46,1.46,0,0,0,1.032.428h.1a1.46,1.46,0,0,0,1.064-.584l4.379-5.839a1.46,1.46,0,1,0-2.335-1.752l-3.369,4.493-.27-.27a1.46,1.46,0,1,0-2.064,2.064Z" transform="translate(4.596 6.895)"/>
        <path id="Trazado_775108" data-name="Trazado 775108" d="M19.46,19.919H39.895a1.46,1.46,0,1,0,0-2.919H19.46a1.46,1.46,0,1,0,0,2.919Z" transform="translate(8.274 7.814)"/>
        <path id="Trazado_775109" data-name="Trazado 775109" d="M16.13,24.584l-3.369,4.493-.27-.27a1.46,1.46,0,1,0-2.064,2.064l1.46,1.459a1.46,1.46,0,0,0,1.032.428h.1a1.46,1.46,0,0,0,1.064-.584l4.379-5.839a1.46,1.46,0,1,0-2.335-1.752Z" transform="translate(4.596 11.031)"/>
        <path id="Trazado_775110" data-name="Trazado 775110" d="M16.13,33.584l-3.369,4.493-.27-.27a1.46,1.46,0,1,0-2.064,2.064l1.46,1.459a1.46,1.46,0,0,0,1.032.428h.1a1.46,1.46,0,0,0,1.064-.584l4.379-5.839a1.46,1.46,0,1,0-2.335-1.752Z" transform="translate(4.596 15.168)"/>
        <path id="Trazado_775111" data-name="Trazado 775111" d="M16.13,42.584l-3.369,4.493-.27-.27a1.46,1.46,0,1,0-2.064,2.064l1.46,1.459a1.46,1.46,0,0,0,1.032.428h.1a1.46,1.46,0,0,0,1.064-.584l4.379-5.839a1.46,1.46,0,0,0-2.335-1.752Z" transform="translate(4.596 19.305)"/>
      </g>
    </g>
  </g>
</svg>
