<svg xmlns="http://www.w3.org/2000/svg" xmlns:xlink="http://www.w3.org/1999/xlink" width="120" height="120" viewBox="0 0 120 120">
  <defs>
    <filter id="Trazado_787962" x="0" y="0" width="120" height="120" filterUnits="userSpaceOnUse">
      <feOffset dy="3" input="SourceAlpha"/>
      <feGaussianBlur stdDeviation="3" result="blur"/>
      <feFlood flood-opacity="0.161"/>
      <feComposite operator="in" in2="blur"/>
      <feComposite in="SourceGraphic"/>
    </filter>
  </defs>
  <g id="Grupo_1054924" data-name="Grupo 1054924" transform="translate(-739.678 -18515.176)">
    <g transform="matrix(1, 0, 0, 1, 739.68, 18515.18)" filter="url(#Trazado_787962)">
      <path id="Trazado_787962-2" data-name="Trazado 787962" d="M51,0A51,51,0,1,1,0,51,51,51,0,0,1,51,0Z" transform="translate(9 6)" fill="#ffc5ad"/>
    </g>
    <g id="salario" transform="translate(743.665 18525)">
      <g id="Grupo_1053490" data-name="Grupo 1053490" transform="translate(9.173 1.386)">
        <g id="Grupo_1053474" data-name="Grupo 1053474" transform="translate(18.196)">
          <g id="Grupo_1053473" data-name="Grupo 1053473">
            <g id="Grupo_1053472" data-name="Grupo 1053472">
              <g id="Grupo_1053469" data-name="Grupo 1053469">
                <g id="Grupo_1053468" data-name="Grupo 1053468">
                  <path id="Trazado_788103" data-name="Trazado 788103" d="M151.044,23.586s9-11.682,6.413-15.034c-.882-1.142-1.634.409-3.459.409-2.143,0-2.143-1.4-4.287-1.4s-2.143,1.4-4.287,1.4-2.143-1.4-4.286-1.4-2.143,1.4-4.286,1.4c-1.826,0-2.576-1.571-3.464-.429-2.59,3.333,6.28,15.053,6.28,15.053-39.172,25.752-26.542,60.773-3.414,60.773H154.6c23.2,0,35.75-34.936-3.553-60.773Z" transform="translate(-114.473 -7.559)" fill="#eabc6b"/>
                </g>
              </g>
              <g id="Grupo_1053470" data-name="Grupo 1053470" transform="translate(23.657)">
                <path id="Trazado_788104" data-name="Trazado 788104" d="M256.329,23.586s9-11.682,6.413-15.034c-.882-1.142-1.634.409-3.459.409-2.144,0-2.144-1.4-4.287-1.4s-2.143,1.4-4.287,1.4c-.105,0-.2-.006-.3-.012-.861,3.691-4.742,9.443-6.963,12.522.875,1.283,1.5,2.115,1.5,2.115q-.784.515-1.538,1.036c37.426,25.725,24.9,59.737,2.014,59.737h14.452c23.2,0,35.75-34.936-3.553-60.773Z" transform="translate(-243.415 -7.559)" fill="#e8ae4d"/>
              </g>
              <g id="Grupo_1053471" data-name="Grupo 1053471" transform="translate(20.22 13.61)">
                <path id="Trazado_788105" data-name="Trazado 788105" d="M242.707,88.311a31.315,31.315,0,0,1-15.629,0,3.337,3.337,0,0,1-2.2-4.368l.022-.062a3.079,3.079,0,0,1,3.634-2.052,25.444,25.444,0,0,0,12.711,0,3.079,3.079,0,0,1,3.634,2.052l.022.062A3.337,3.337,0,0,1,242.707,88.311Z" transform="translate(-224.683 -81.738)" fill="#ffe07d"/>
              </g>
            </g>
          </g>
        </g>
        <g id="Grupo_1053489" data-name="Grupo 1053489" transform="translate(0 52.117)">
          <g id="Grupo_1053488" data-name="Grupo 1053488">
            <g id="Grupo_1053487" data-name="Grupo 1053487">
              <g id="Grupo_1053486" data-name="Grupo 1053486">
                <g id="Grupo_1053485" data-name="Grupo 1053485">
                  <g id="Grupo_1053484" data-name="Grupo 1053484">
                    <g id="Grupo_1053483" data-name="Grupo 1053483">
                      <g id="Grupo_1053482" data-name="Grupo 1053482">
                        <g id="Grupo_1053481" data-name="Grupo 1053481">
                          <g id="Grupo_1053480" data-name="Grupo 1053480">
                            <g id="Grupo_1053479" data-name="Grupo 1053479" transform="translate(7.263 4.821)">
                              <g id="Grupo_1053478" data-name="Grupo 1053478">
                                <g id="Grupo_1053475" data-name="Grupo 1053475">
                                  <path id="Trazado_788106" data-name="Trazado 788106" d="M54.883,343.767,74.8,351.181a15.158,15.158,0,0,0,5.287.952h20.528a15.158,15.158,0,0,0,8.113-2.354l25.7-16.287a4.511,4.511,0,0,0,.734-5.911c-1.4-2.051-3.705-2.408-6.246-1.207L103.9,337.392l.03-4.06a7.267,7.267,0,0,0-6.213-6.476L82.474,325.1c-3.515-.5-5.272-1.675-8.337-3.468A27.313,27.313,0,0,0,60.347,317.9H54.883Z" transform="translate(-54.883 -317.896)" fill="#ffddce"/>
                                </g>
                                <g id="Grupo_1053476" data-name="Grupo 1053476">
                                  <path id="Trazado_788107" data-name="Trazado 788107" d="M54.883,343.767,74.8,351.181a15.158,15.158,0,0,0,5.287.952h20.528a15.158,15.158,0,0,0,8.113-2.354l25.7-16.287a4.511,4.511,0,0,0,.734-5.911c-1.4-2.051-3.705-2.408-6.246-1.207L103.9,337.392l.03-4.06a7.267,7.267,0,0,0-6.213-6.476L82.474,325.1c-3.515-.5-5.272-1.675-8.337-3.468A27.313,27.313,0,0,0,60.347,317.9H54.883Z" transform="translate(-54.883 -317.896)" fill="#ffddce"/>
                                </g>
                                <path id="Trazado_788108" data-name="Trazado 788108" d="M135.168,362.254c-1.4-2.051-3.705-2.408-6.246-1.206l-6.883,3.031.6.949a4.512,4.512,0,0,1-.734,5.911l-14.977,9.49a15.155,15.155,0,0,1-6.309,1.377H80.09a15.156,15.156,0,0,1-5.287-.952l-19.919-7.414v5L74.8,385.854a15.158,15.158,0,0,0,5.287.952h20.528a15.158,15.158,0,0,0,8.113-2.354l25.7-16.287a4.512,4.512,0,0,0,.734-5.911Z" transform="translate(-54.884 -352.569)" fill="#ffcbbe"/>
                                <g id="Grupo_1053477" data-name="Grupo 1053477" transform="translate(47.174 11.254)">
                                  <path id="Trazado_788109" data-name="Trazado 788109" d="M312,379.236v.1l.065-.028C312.048,379.282,312.026,379.259,312,379.236Z" transform="translate(-312.004 -379.236)" fill="#f5dbcc"/>
                                </g>
                              </g>
                            </g>
                            <path id="Trazado_788110" data-name="Trazado 788110" d="M26.844,326.279a2.617,2.617,0,0,1-2.617,2.617H17.912a2.617,2.617,0,0,1-2.617-2.617V294.237a2.617,2.617,0,0,1,2.617-2.617h6.316a2.617,2.617,0,0,1,2.617,2.617Z" transform="translate(-15.295 -291.62)" fill="#407093"/>
                          </g>
                        </g>
                      </g>
                    </g>
                  </g>
                </g>
              </g>
            </g>
          </g>
        </g>
      </g>
      <g id="Grupo_1053491" data-name="Grupo 1053491" transform="translate(7.797 -0.001)">
        <path id="Trazado_788111" data-name="Trazado 788111" d="M97.858,67.235c-1.752-2.575-4.725-3.2-7.954-1.684l-1.711.754a28.3,28.3,0,0,0,1.69-18.22c-1.543-6.956-5.269-13.694-11.076-20.028a1.376,1.376,0,0,0-2.028,1.859C82.254,35.888,85.759,42.2,87.2,48.68c1.513,6.824.633,13.861-3.229,19.485L66.841,75.7l.014-1.934a1.34,1.34,0,0,0-.007-.146,8.622,8.622,0,0,0-7.389-7.7l-.035,0L44.2,64.165c-5.853-.833-7.36-4.341-15.287-6.341A29.619,29.619,0,0,1,31.1,43.269C34.113,35.8,40.008,28.54,48.181,22.222c3.046,2.16,16.636,2.429,19.678-.358,1.558,1.183,3.045,2.4,4.43,3.637a1.376,1.376,0,1,0,1.83-2.054c-1.518-1.353-3.152-2.687-4.865-3.977a4.9,4.9,0,0,0-1.643-4.881c4.308-6.534,5.561-10.81,3.83-13.051a2.4,2.4,0,0,0-3.3-.508A2.207,2.207,0,0,1,65.5.936a4.946,4.946,0,0,0-5.793,0,2.218,2.218,0,0,1-2.78,0,4.946,4.946,0,0,0-5.793,0,2.19,2.19,0,0,1-2.636.088,2.4,2.4,0,0,0-3.3.492c-1.692,2.177-.56,6.319,3.457,12.631a4.48,4.48,0,0,0-.7.467,9.289,9.289,0,0,0-8-3.024A10.082,10.082,0,0,1,33.11,9.971a1.376,1.376,0,1,0-1.532,2.285,12.812,12.812,0,0,0,8.682,2.067A6.723,6.723,0,0,1,46.4,17.012q-.025.088-.047.177A23.611,23.611,0,0,0,42,17.664c-4.171.868-7.267,2.85-8.953,5.732a1.376,1.376,0,1,0,2.375,1.39c2.509-4.288,8.633-4.812,11.065-4.845.01.03.023.06.034.09-8.68,6.7-14.722,14.162-17.968,22.207A32.655,32.655,0,0,0,26.093,57.26a28.63,28.63,0,0,0-3.995-.309v-.832a4,4,0,0,0-3.993-3.992H11.79A4,4,0,0,0,7.8,56.119V88.161a4,4,0,0,0,3.993,3.993h6.316A4,4,0,0,0,22.1,88.161V87.77L35.875,92.9a16.483,16.483,0,0,0,5.767,1.038H62.17a16.509,16.509,0,0,0,8.849-2.568C98.4,74.008,96.741,75.088,96.9,74.948a5.9,5.9,0,0,0,.958-7.713Zm-32.581-47a29.819,29.819,0,0,1-14.955,0c-2.159-.546-1.534-4.4.787-3.815a26.829,26.829,0,0,0,13.381,0C66.77,15.847,67.471,19.68,65.277,20.235ZM47.245,3.472l.032.016a4.881,4.881,0,0,0,5.367-.25c2.344-1.534,2.6.926,5.676.926a4.779,4.779,0,0,0,2.9-.926,2.219,2.219,0,0,1,2.781,0,4.907,4.907,0,0,0,5.39.246c.283,1.02-.358,4.063-4.437,10.137-2.026-.034-4.966,1.955-13.288.1C47.59,7.572,46.961,4.5,47.245,3.472Zm47.9,69.35-25.6,16.222a13.761,13.761,0,0,1-7.376,2.14H41.642a13.737,13.737,0,0,1-4.808-.866L22.1,84.834V70.018a1.376,1.376,0,1,0-2.751,0V88.162A1.242,1.242,0,0,1,18.105,89.4H11.79a1.242,1.242,0,0,1-1.241-1.241V56.12a1.242,1.242,0,0,1,1.241-1.241h6.316a1.242,1.242,0,0,1,1.241,1.241v7.466a1.376,1.376,0,1,0,2.751,0V59.7c11.381.087,13.94,6.086,21.737,7.189l.035,0,15.22,1.752A5.877,5.877,0,0,1,64.1,73.828l-.019,2.617H49.89a1.376,1.376,0,0,0,0,2.752H65.45A1.424,1.424,0,0,0,66,79.082l25.03-11.02c1.8-.8,3.441-.914,4.554.721A3.143,3.143,0,0,1,95.147,72.823Z" transform="translate(-7.797 0.001)"/>
        <path id="Trazado_788112" data-name="Trazado 788112" d="M247.665,189.254a1.376,1.376,0,0,0,1.376-1.376V185.6a8.061,8.061,0,0,0,6.606-6.669,7.056,7.056,0,0,0-4.861-8.072c-.63-.223-1.21-.436-1.745-.641v-8.772a5.658,5.658,0,0,1,2.676,1.175,1.376,1.376,0,0,0,1.858-2.029,8.527,8.527,0,0,0-4.534-1.924v-1.957a1.376,1.376,0,1,0-2.751,0v2.068a10.125,10.125,0,0,0-1.021.249,6.653,6.653,0,0,0-4.553,5.222,5.819,5.819,0,0,0,1.891,5.735,16.668,16.668,0,0,0,3.683,2.081v10.88a7.307,7.307,0,0,1-4.279-1.484,1.376,1.376,0,1,0-1.506,2.3,10.076,10.076,0,0,0,5.785,1.932v2.184A1.376,1.376,0,0,0,247.665,189.254Zm-3.36-21.436a3.1,3.1,0,0,1-.885-3.06,3.936,3.936,0,0,1,2.643-3.1c.077-.023.152-.043.227-.063v7.432A11.6,11.6,0,0,1,244.305,167.817Zm5.564,5.633a4.33,4.33,0,0,1,3.065,5.022,5.359,5.359,0,0,1-3.893,4.313v-9.633C249.309,173.25,249.583,173.349,249.869,173.45Z" transform="translate(-197.301 -126.833)"/>
      </g>
    </g>
  </g>
</svg>
