<svg xmlns="http://www.w3.org/2000/svg" xmlns:xlink="http://www.w3.org/1999/xlink" width="120" height="120" viewBox="0 0 120 120">
  <defs>
    <filter id="Elipse_8094" x="0" y="0" width="120" height="120" filterUnits="userSpaceOnUse">
      <feOffset dy="3" input="SourceAlpha"/>
      <feGaussianBlur stdDeviation="3" result="blur"/>
      <feFlood flood-opacity="0.161"/>
      <feComposite operator="in" in2="blur"/>
      <feComposite in="SourceGraphic"/>
    </filter>
  </defs>
  <g id="Grupo_1054925" data-name="Grupo 1054925" transform="translate(-1159.678 -18515.176)">
    <g transform="matrix(1, 0, 0, 1, 1159.68, 18515.18)" filter="url(#Elipse_8094)">
      <circle id="Elipse_8094-2" data-name="Elipse 8094" cx="51" cy="51" r="51" transform="translate(9 6)" fill="#ffc5ad"/>
    </g>
    <g id="metodo-de-pago" transform="translate(1171.935 18523.977)">
      <path id="Trazado_788113" data-name="Trazado 788113" d="M107.34,372.017V386.9c8.479.374,6.033,1.872,20.785,8.505a13.962,13.962,0,0,0,10.862-.185l.009,0,28.983-10.377c.943-.434,5.7-3.019,3.824-7.833-2.194-5.133-7.839-2.992-8.312-2.838l-15.131,4.183" transform="translate(-87.186 -302.15)" fill="#eac092"/>
      <g id="Grupo_1053492" data-name="Grupo 1053492" transform="translate(20.154 60.086)">
        <path id="Trazado_788114" data-name="Trazado 788114" d="M124.46,335.93l16.851,5.34a5.536,5.536,0,0,0,6.839-3.811h0c.836-2.941-.87-6-4.24-7.253l-14.949-5.074s-3.192-5.212-10.791-5.212c-4.8,0-8.935,3.878-10.83,7.273v6.779" transform="translate(-107.341 -319.921)" fill="#fedbab"/>
      </g>
      <path id="Trazado_788115" data-name="Trazado 788115" d="M154.628,387.611a1.845,1.845,0,0,1-.366-.038,1.815,1.815,0,0,1-.353-.107,1.89,1.89,0,0,1-.323-.173,1.826,1.826,0,0,1-.518-.518,1.738,1.738,0,0,1-.173-.325,1.765,1.765,0,0,1-.107-.351,1.8,1.8,0,0,1,0-.732,1.82,1.82,0,0,1,.107-.353,1.778,1.778,0,0,1,.173-.323,1.825,1.825,0,0,1,.518-.518,1.9,1.9,0,0,1,.323-.173,1.819,1.819,0,0,1,.353-.107,1.851,1.851,0,0,1,.732,0,1.763,1.763,0,0,1,.351.107,1.851,1.851,0,0,1,.325.173,1.825,1.825,0,0,1,.518.518,1.9,1.9,0,0,1,.173.323,1.958,1.958,0,0,1,.107.353,1.8,1.8,0,0,1,0,.732,1.9,1.9,0,0,1-.107.351,1.855,1.855,0,0,1-.173.325,1.826,1.826,0,0,1-.518.518,1.847,1.847,0,0,1-.325.173,1.759,1.759,0,0,1-.351.107A1.845,1.845,0,0,1,154.628,387.611Z" transform="translate(-124.07 -311.767)"/>
      <rect id="Rectángulo_365047" data-name="Rectángulo 365047" width="7.113" height="20.172" transform="translate(13.041 67.119)" fill="#eaecf0"/>
      <rect id="Rectángulo_365048" data-name="Rectángulo 365048" width="11.164" height="23.672" transform="translate(1.878 67.119)" fill="#3688c8"/>
      <path id="Trazado_788116" data-name="Trazado 788116" d="M86.366,325.892l-.023-.056c-1.728-4.044-5.781-5.538-10.577-3.9l-13.081,3.617a8.575,8.575,0,0,0-5.31-5.229l-.05-.018-14.378-4.88a14.83,14.83,0,0,0-11.964-5.505c-4.905,0-9.244,3.365-11.727,7.033H1.878A1.878,1.878,0,0,0,0,318.832V342.5a1.878,1.878,0,0,0,1.878,1.878H13.041a1.878,1.878,0,0,0,1.878-1.878v-1.621h5.235a1.878,1.878,0,0,0,1.878-1.878v-.54c3.052.266,4.056.845,6.858,2.461a113.638,113.638,0,0,0,11.28,5.759l.082.035a16.853,16.853,0,0,0,6.041,1.139,14.966,14.966,0,0,0,6.221-1.332l28.913-10.352c.051-.018.1-.039.152-.062C84.34,334.842,88.458,331.259,86.366,325.892Zm-75.2,14.734H3.755V320.71h7.408Zm7.113-3.5H14.918V320.71h3.358Zm61.8-4.459-28.9,10.347-.085.033-.076.033a12.169,12.169,0,0,1-9.35.159,108.758,108.758,0,0,1-10.9-5.568c-3.072-1.772-4.553-2.626-8.734-2.971V319.58c1.78-2.917,5.231-5.9,8.952-5.9,6.381,0,9.085,4.15,9.191,4.318a1.878,1.878,0,0,0,1,.795l14.922,5.065c2.383.895,3.643,2.935,3.064,4.971a3.658,3.658,0,0,1-4.495,2.525L37.84,326.019a1.878,1.878,0,1,0-1.134,3.58l16.851,5.34.054.016a7.37,7.37,0,0,0,5.636-.655,7.364,7.364,0,0,0,3.522-4.448q.065-.228.115-.456l14.1-3.905c2.036-.7,4.709-.946,5.9,1.795C84.11,330.5,80.909,332.272,80.077,332.669Z" transform="translate(0 -251.714)"/>
      <path id="Trazado_788117" data-name="Trazado 788117" d="M77.313,26.7,60.637,10.023,39.729,30.931,75.456,66.658l19.73-19.73" transform="translate(-32.27 -8.122)" fill="#26cfad"/>
      <path id="Trazado_788118" data-name="Trazado 788118" d="M151.764,113.963h0l0-.011a8.825,8.825,0,1,0,9.427,9.026" transform="translate(-116.595 -92.538)" fill="#ffd36c"/>
      <path id="Trazado_788119" data-name="Trazado 788119" d="M229.884,49.732V34.846c-8.479-.374-6.033-1.872-20.785-8.505a13.962,13.962,0,0,0-10.862.185l-.009,0-8.744,3.131,9.022,9.022" transform="translate(-153.907 -20.549)" fill="#eac092"/>
      <g id="Grupo_1053493" data-name="Grupo 1053493" transform="translate(7.459 1.901)">
        <path id="Trazado_788120" data-name="Trazado 788120" d="M39.729,90.716l7.088-7.088a10.035,10.035,0,0,1,0,14.176Z" transform="translate(-39.729 -69.808)" fill="#00b192"/>
        <path id="Trazado_788121" data-name="Trazado 788121" d="M192.264,261.232a10.035,10.035,0,0,1,14.176,0l-7.088,7.088Z" transform="translate(-163.625 -211.685)" fill="#00b192"/>
        <path id="Trazado_788122" data-name="Trazado 788122" d="M113.333,17.111l7.088-7.088,7.088,7.088A10.035,10.035,0,0,1,113.333,17.111Z" transform="translate(-99.513 -10.023)" fill="#00b192"/>
        <path id="Trazado_788123" data-name="Trazado 788123" d="M288.608,182.048a10.037,10.037,0,0,0,2.331,10.517l5.91-5.91" transform="translate(-241.392 -149.749)" fill="#00b192"/>
      </g>
      <g id="Grupo_1053494" data-name="Grupo 1053494" transform="translate(34.958 17.402)">
        <path id="Trazado_788124" data-name="Trazado 788124" d="M210.09,98.138,193.239,92.8a5.535,5.535,0,0,0-6.839,3.811h0c-.836,2.941.87,6,4.24,7.253l14.955,5.076-.006,0s3.191,5.212,10.791,5.212c4.8,0,8.935-3.878,10.83-7.273V100.1" transform="translate(-186.19 -92.585)" fill="#fedbab"/>
      </g>
      <path id="Trazado_788125" data-name="Trazado 788125" d="M341.128,127.252a1.848,1.848,0,0,1-.366-.038,1.894,1.894,0,0,1-.351-.107,1.853,1.853,0,0,1-.325-.173,1.824,1.824,0,0,1-.518-.518,1.854,1.854,0,0,1-.173-.325,1.759,1.759,0,0,1-.107-.351,1.8,1.8,0,0,1,0-.732,1.814,1.814,0,0,1,.107-.353,1.906,1.906,0,0,1,.173-.323,1.824,1.824,0,0,1,.518-.518,1.854,1.854,0,0,1,.325-.173,1.764,1.764,0,0,1,.351-.107,1.87,1.87,0,0,1,1.085.107,1.907,1.907,0,0,1,.323.173,1.877,1.877,0,0,1,.691.841,1.827,1.827,0,0,1,.109.353,1.9,1.9,0,0,1,0,.732,1.771,1.771,0,0,1-.109.351,1.736,1.736,0,0,1-.173.325,1.824,1.824,0,0,1-.518.518,1.906,1.906,0,0,1-.323.173,1.987,1.987,0,0,1-.351.107A1.881,1.881,0,0,1,341.128,127.252Z" transform="translate(-275.554 -100.292)"/>
      <rect id="Rectángulo_365049" data-name="Rectángulo 365049" width="7.113" height="20.172" transform="translate(75.977 11.759)" fill="#eaecf0"/>
      <rect id="Rectángulo_365050" data-name="Rectángulo 365050" width="11.164" height="23.672" transform="translate(83.089 8.26)" fill="#3688c8"/>
      <path id="Trazado_788126" data-name="Trazado 788126" d="M118.369,6.382H107.206a1.878,1.878,0,0,0-1.878,1.878V9.881h-5.235a1.878,1.878,0,0,0-1.878,1.878v.54c-3.052-.266-4.056-.845-6.858-2.461a113.611,113.611,0,0,0-11.28-5.759l-.083-.035a15.974,15.974,0,0,0-12.26.193L60.179,6.941,53.811.573a1.878,1.878,0,0,0-2.655,0L30.248,21.481a1.862,1.862,0,0,0,0,2.655L65.975,59.864a2.029,2.029,0,0,0,2.655,0L87.719,40.776c.5.043,1.011.066,1.545.066,4.905,0,9.244-3.365,11.727-7.033h17.379a1.878,1.878,0,0,0,1.878-1.878V8.26A1.878,1.878,0,0,0,118.369,6.382ZM57.245,23.795a8.312,8.312,0,0,0,5.626,6.644l.05.018,3.754,1.274a6.948,6.948,0,1,1-9.43-7.936ZM61,16.464A7.36,7.36,0,0,0,57.942,19.7a10.7,10.7,0,1,0,12.3,13.247l6.339,2.151a11.987,11.987,0,0,0,1.989,9.516L74.286,48.9a11.931,11.931,0,0,0-13.967,0l-19.1-19.1a11.932,11.932,0,0,0,0-13.969L45.5,11.54a11.932,11.932,0,0,0,13.969,0L63.529,15.6A7.41,7.41,0,0,0,61,16.464ZM81.28,41.9a8.212,8.212,0,0,1-1.2-3.9,14.6,14.6,0,0,0,3.311,1.793ZM52.483,4.556l4.279,4.279a8.186,8.186,0,0,1-8.559,0ZM38.51,18.529a8.186,8.186,0,0,1,0,8.559l-4.279-4.28ZM67.3,55.881,63.024,51.6a8.175,8.175,0,0,1,8.557,0ZM89.264,37.086a13.666,13.666,0,0,1-1.959-.138H87.3a10.754,10.754,0,0,1-6.955-3.806c-.038-.056-.2-.27-.226-.305a1.871,1.871,0,0,0-1.035-.86L64.154,26.909c-2.382-.894-3.642-2.934-3.064-4.969v-.009a3.658,3.658,0,0,1,4.493-2.518l16.822,5.331a1.878,1.878,0,0,0,1.134-3.58l-13.378-4.24-.117-.117,0,0L63.116,9.878,69.07,7.746l.065-.025.02-.008.076-.033a12.168,12.168,0,0,1,9.35-.159,108.76,108.76,0,0,1,10.9,5.568c3.072,1.772,4.553,2.626,8.734,2.971V31.183C96.436,34.1,92.985,37.086,89.264,37.086Zm12.707-23.45h3.358V30.054h-3.358Zm14.521,16.418h-7.408V10.137h7.408Z" transform="translate(-24.116)"/>
    </g>
  </g>
</svg>
