<svg xmlns="http://www.w3.org/2000/svg" width="97.654" height="108" viewBox="0 0 97.654 108">
  <g id="ventas_1_" data-name="ventas (1)" transform="translate(-0.499)">
    <path id="Trazado_788127" data-name="Trazado 788127" d="M247.445,189.88H233.5v-48.7a5.564,5.564,0,0,1,5.564-5.564h2.82a5.564,5.564,0,0,1,5.564,5.564Zm0,0" transform="translate(-183.849 -107.013)" fill="#abebf4"/>
    <path id="Trazado_788128" data-name="Trazado 788128" d="M247.445,280.238a75.8,75.8,0,0,1-13.949,4.969v18.784h13.949Zm0,0" transform="translate(-183.849 -221.125)" fill="#8ed7e8"/>
    <path id="Trazado_788129" data-name="Trazado 788129" d="M152.59,238.525H138.641v-36.4a4.852,4.852,0,0,1,4.852-4.852h4.245a4.853,4.853,0,0,1,4.852,4.852Zm0,0" transform="translate(-109.003 -155.658)" fill="#b2e59c"/>
    <path id="Trazado_788130" data-name="Trazado 788130" d="M342.3,125.112H328.355V68.924a5.529,5.529,0,0,1,5.529-5.529h2.891a5.529,5.529,0,0,1,5.53,5.529Zm0,0" transform="translate(-258.699 -50.023)" fill="#ffde55"/>
    <path id="Trazado_788131" data-name="Trazado 788131" d="M342.3,218.594a91.018,91.018,0,0,1-13.95,9.856v19.124H342.3Zm0,0" transform="translate(-258.695 -172.484)" fill="#ffcd00"/>
    <path id="Trazado_788132" data-name="Trazado 788132" d="M109.477,250.976l28.048-14.888a4.691,4.691,0,0,1,6.8,5.079,13.589,13.589,0,0,1-4.651,8.066l-2.875,2.329a1.95,1.95,0,0,0,1.227,3.466l11.527,0a18.243,18.243,0,0,0,10.5-3.321l12.882-9.059a6.056,6.056,0,0,1,7.328,9.632l-16.874,13.865a18.24,18.24,0,0,1-7.243,3.624l-36.984,9.056Zm0,0" transform="translate(-85.991 -185.847)" fill="#ffe2d9"/>
    <path id="Trazado_788133" data-name="Trazado 788133" d="M125.016,312.045c-10.622-3.117-9.831-17.651-9.831-17.651l-5.708,3.03,9.682,27.855,28.191-6.9c-5.939-1.65-15.495-4.325-22.334-6.331Zm0,0" transform="translate(-85.99 -232.295)" fill="#ffcfc2"/>
    <path id="Trazado_788134" data-name="Trazado 788134" d="M31.777,308.758l10.48,27.97a8.171,8.171,0,0,1-5.841,10.835l-10.023,2.277a8.171,8.171,0,0,1-9.717-5.912l-5.4-20.768a8.416,8.416,0,0,1,5.833-10.209Zm0,0" transform="translate(-8.29 -243.629)" fill="#8ed7e8"/>
    <path id="Trazado_788135" data-name="Trazado 788135" d="M42.257,348.317l-1.634-4.361a27.03,27.03,0,0,0-12.4-2.2,8.2,8.2,0,0,1-8.557-8.443,56.567,56.567,0,0,1,1.266-9.873l-3.825,1.093a8.417,8.417,0,0,0-5.833,10.21l5.4,20.768a8.171,8.171,0,0,0,9.717,5.913l10.023-2.277a8.171,8.171,0,0,0,5.841-10.835Zm0,0" transform="translate(-8.29 -255.218)" fill="#7ac1dd"/>
    <path id="Trazado_788136" data-name="Trazado 788136" d="M81.121,431.389a4.651,4.651,0,1,1-4.651-4.651A4.651,4.651,0,0,1,81.121,431.389Zm0,0" transform="translate(-56.277 -336.722)" fill="#ffeb99"/>
    <path id="Trazado_788137" data-name="Trazado 788137" d="M65.893,7.5H53.242a3.284,3.284,0,1,0,0,6.569h4.5l-13.194,12.7L38.3,23.534a3.285,3.285,0,0,0-3.841.6L8.941,49.848A3.285,3.285,0,0,0,13.6,54.475l23.816-24,6.2,3.209a3.286,3.286,0,0,0,3.787-.551l15.2-14.629v5.04a3.284,3.284,0,1,0,6.569,0V10.784s0-.007,0-.01A3.042,3.042,0,0,0,65.893,7.5Zm0,0" transform="translate(-5.909 -5.918)" fill="#97f7e5"/>
    <path id="Trazado_788138" data-name="Trazado 788138" d="M98.254,100.526c-4.963-4.941-10.7-.316-10.7-.316V74.2a1.582,1.582,0,1,0-3.164,0v28.235s-7.544,5.947-10.786,7.4V63.005a3.952,3.952,0,0,1,3.948-3.948h2.891a3.952,3.952,0,0,1,3.948,3.948v4.719a1.582,1.582,0,1,0,3.164,0V63.005a7.119,7.119,0,0,0-7.112-7.111H77.552a7.119,7.119,0,0,0-7.112,7.111v48.084a16.611,16.611,0,0,1-2.9.539V78.276A7.155,7.155,0,0,0,60.4,71.129h-2.82a7.155,7.155,0,0,0-7.146,7.147V94.395l-2.9,1.538V90.568A6.442,6.442,0,0,0,41.1,84.134H36.857a6.441,6.441,0,0,0-6.434,6.434v14.448l-5.166,2.741L10.752,111.9a10,10,0,0,0-6.929,12.128l1.622,6.243a1.582,1.582,0,1,0,3.062-.8l-1.622-6.243a6.794,6.794,0,0,1,4.737-8.29l13.262-3.79,9.968,26.6a7.086,7.086,0,0,1-4.71,8.737l-10.023,2.277A6.559,6.559,0,0,1,12.283,144l-2.034-7.829a1.582,1.582,0,0,0-3.063.8L9.221,144.8a9.7,9.7,0,0,0,9.4,7.3c3.2,0,12.221-2.524,12.221-2.524a9.75,9.75,0,0,0,7.38-11.523L72.9,129.569a19.952,19.952,0,0,0,7.871-3.939L97.64,111.765a7.5,7.5,0,0,0,.614-11.239ZM57.578,74.293H60.4a3.987,3.987,0,0,1,3.982,3.983v33.431l-9.983,0c-.917-.008-.282-.614-.232-.655l2.875-2.329a15.033,15.033,0,0,0,5.206-8.98,6.273,6.273,0,0,0-8.651-7V78.276a3.987,3.987,0,0,1,3.982-3.983ZM33.587,90.568a3.274,3.274,0,0,1,3.27-3.27H41.1a3.274,3.274,0,0,1,3.27,3.27v7.043l-10.785,5.725Zm62.045,18.753L78.759,123.186a16.759,16.759,0,0,1-6.615,3.31l-34.929,8.552L27.822,109.98,54.642,95.743a3.109,3.109,0,0,1,4.5,3.365,11.957,11.957,0,0,1-4.1,7.153l-2.875,2.329a3.532,3.532,0,0,0,2.222,6.277l11.528,0h.007a19.727,19.727,0,0,0,11.4-3.609L90.218,102.2a4.458,4.458,0,0,1,5.774.532c.887.907,2.624,3.6-.359,6.584Zm0,0" transform="translate(-2.367 -44.104)"/>
    <path id="Trazado_788139" data-name="Trazado 788139" d="M76.785,425.472a6.233,6.233,0,1,0-6.233,6.233A6.24,6.24,0,0,0,76.785,425.472Zm-9.3,0a3.069,3.069,0,1,1,3.069,3.069A3.072,3.072,0,0,1,67.484,425.472Zm0,0" transform="translate(-50.359 -330.804)"/>
    <path id="Trazado_788140" data-name="Trazado 788140" d="M8.818,49.672l23-23.174,5.172,2.675a4.865,4.865,0,0,0,5.611-.817l12.518-12.05S54.772,22.5,59.984,22.5a4.873,4.873,0,0,0,4.866-4.867V4.866c0-.015,0-.03,0-.046A4.606,4.606,0,0,0,59.984,0H47.333a4.872,4.872,0,0,0-4.866,4.866c0,5.349,5.444,4.866,5.444,4.866l-9.55,9.192-5.248-2.714a4.848,4.848,0,0,0-5.69.894L1.909,42.816A4.872,4.872,0,0,0,1.935,49.7a4.8,4.8,0,0,0,6.883-.026ZM4.154,45.044,29.669,19.334a1.437,1.437,0,0,1,1.991-.312l6.255,3.235a1.582,1.582,0,0,0,1.824-.265l13.194-12.7a1.582,1.582,0,0,0-1.1-2.722h-4.5a1.7,1.7,0,0,1,0-3.406H59.984a1.487,1.487,0,0,1,1.7,1.692c0,.014,0,.028,0,.043V17.628a1.7,1.7,0,1,1-3.4,0v-5.04a1.582,1.582,0,0,0-2.68-1.14L40.4,26.077a1.7,1.7,0,0,1-1.963.286l-6.2-3.209a1.583,1.583,0,0,0-1.85.291l-23.816,24a1.631,1.631,0,0,1-2.408.009,1.7,1.7,0,0,1-.01-2.408Zm0,0"/>
  </g>
</svg>
