<svg xmlns="http://www.w3.org/2000/svg" xmlns:xlink="http://www.w3.org/1999/xlink" width="120" height="120" viewBox="0 0 120 120">
  <defs>
    <filter id="Elipse_8022" x="0" y="0" width="120" height="120" filterUnits="userSpaceOnUse">
      <feOffset dy="3" input="SourceAlpha"/>
      <feGaussianBlur stdDeviation="3" result="blur"/>
      <feFlood flood-opacity="0.161"/>
      <feComposite operator="in" in2="blur"/>
      <feComposite in="SourceGraphic"/>
    </filter>
  </defs>
  <g id="Grupo_1054386" data-name="Grupo 1054386" transform="translate(-740 -1872.106)">
    <g transform="matrix(1, 0, 0, 1, 740, 1872.11)" filter="url(#Elipse_8022)">
      <circle id="Elipse_8022-2" data-name="Elipse 8022" cx="51" cy="51" r="51" transform="translate(9 6)" fill="#ffc5ad"/>
    </g>
    <g id="analisis_1_" data-name="analisis (1)" transform="translate(718.341 1880.944)">
      <path id="Trazado_789766" data-name="Trazado 789766" d="M138.956,127.842a2.541,2.541,0,0,1-2.541,2.541H86.254a2.541,2.541,0,0,1-2.541-2.541V56.635a2.541,2.541,0,0,1,2.541-2.541h50.162a2.541,2.541,0,0,1,2.541,2.541v71.207Z" transform="translate(-34.278 -38.702)" fill="#f39a8b"/>
      <path id="Trazado_789767" data-name="Trazado 789767" d="M138.957,62.833A23.682,23.682,0,0,0,104.29,92.987a4.236,4.236,0,0,1-.776,4.919l-4.307,4.307-3.872.989a4.239,4.239,0,0,0-1.946,1.108l-9.675,9.675v15.958a2.542,2.542,0,0,0,3.055-.411l15.92-15.92a4.239,4.239,0,0,0,1.108-1.946l.989-3.872,4.116-4.116a4.231,4.231,0,0,1,5.044-.709,23.7,23.7,0,0,0,25.011-1.325Z" transform="translate(-34.279 -42.414)" fill="#e77c6a"/>
      <path id="Trazado_789768" data-name="Trazado 789768" d="M136.416,54.094h-4.234v60.2a12.7,12.7,0,0,1-12.7,12.7H83.713v.847a2.541,2.541,0,0,0,2.541,2.541h50.162a2.541,2.541,0,0,0,2.541-2.541V56.635A2.541,2.541,0,0,0,136.416,54.094Z" transform="translate(-34.278 -38.702)" fill="#e77c6a"/>
      <path id="Trazado_789769" data-name="Trazado 789769" d="M185.55,10.041A2.541,2.541,0,0,0,183.009,7.5H132.847a2.541,2.541,0,0,0-2.541,2.541V81.248a2.541,2.541,0,0,0,2.541,2.541h25.519c5.615,0,9.685-3.546,13.656-7.516l6.012-6.012c3.971-3.971,7.516-8.041,7.516-13.656V10.041Z" transform="translate(-72.979 0)" fill="#f2fbff"/>
      <path id="Trazado_789770" data-name="Trazado 789770" d="M185.551,92.256V72.221a23.681,23.681,0,1,0-42.559,20.765,4.236,4.236,0,0,1-.776,4.919l-4.307,4.307-3.872.989a4.239,4.239,0,0,0-1.946,1.108l-1.783,1.783v17.568a2.535,2.535,0,0,0,.156.877l10.928-10.928a4.239,4.239,0,0,0,1.108-1.946l.989-3.872,4.116-4.116a4.231,4.231,0,0,1,5.044-.709,23.693,23.693,0,0,0,32.9-10.713Z" transform="translate(-72.981 -42.414)" fill="#dff6fd"/>
      <path id="Trazado_789771" data-name="Trazado 789771" d="M183.009,7.5h-4.234V50.977a11.01,11.01,0,0,1-11.01,11.01h-1.477a5.928,5.928,0,0,0-5.928,5.928v1.477A11.01,11.01,0,0,1,149.35,80.4H130.306v.847a2.541,2.541,0,0,0,2.541,2.541h25.519c5.615,0,9.685-3.546,13.656-7.516l6.012-6.012c3.971-3.971,7.516-8.041,7.516-13.656V10.041A2.54,2.54,0,0,0,183.009,7.5Z" transform="translate(-72.979 0)" fill="#dff6fd"/>
      <rect id="Rectángulo_366923" data-name="Rectángulo 366923" width="39.46" height="7.892" transform="translate(65.219 18.023)" fill="#46cc8d"/>
      <path id="Trazado_789772" data-name="Trazado 789772" d="M201.365,38.562a23.685,23.685,0,0,0-21.1,34.424,4.236,4.236,0,0,1-.776,4.919l-4.307,4.307,2.444,5,3.137.583,4.116-4.116a4.231,4.231,0,0,1,5.044-.709,23.677,23.677,0,1,0,11.445-44.406Z" transform="translate(-110.253 -25.801)" fill="#0055a3"/>
      <path id="Trazado_789773" data-name="Trazado 789773" d="M253.036,104.828l-28.68,1.929a18.416,18.416,0,1,0,28.68-1.929Z" transform="translate(-148.357 -80.843)" fill="#99e6fc"/>
      <path id="Trazado_789774" data-name="Trazado 789774" d="M287.239,104.828l-4.155.279a18.426,18.426,0,0,1-20.852,26.6,18.415,18.415,0,0,0,25.006-26.883Z" transform="translate(-182.561 -80.843)" fill="#62dbfb"/>
      <path id="Trazado_789775" data-name="Trazado 789775" d="M269.223,75.588a18.416,18.416,0,0,0-28.68,1.929h28.68V75.588Z" transform="translate(-164.544 -51.602)" fill="#08b865"/>
      <path id="Trazado_789776" data-name="Trazado 789776" d="M357.32,73.146a18.48,18.48,0,0,1,5.539,7.3h3.361V78.512A18.406,18.406,0,0,0,357.32,73.146Z" transform="translate(-261.542 -54.527)" fill="#09a755"/>
      <path id="Trazado_789777" data-name="Trazado 789777" d="M155.829,305.724l.989-3.872-5.58-5.58-3.872.989a4.233,4.233,0,0,0-1.01.4l3.605,7.326,5.466,1.745A4.221,4.221,0,0,0,155.829,305.724Z" transform="translate(-86.31 -239.861)" fill="#fea95c"/>
      <path id="Trazado_789778" data-name="Trazado 789778" d="M60.046,304.488a4.236,4.236,0,0,0-.936.706l-15.92,15.92a2.541,2.541,0,0,0,0,3.593l5.708,5.708a2.541,2.541,0,0,0,3.593,0l15.92-15.92a4.23,4.23,0,0,0,.706-.936Z" transform="translate(0 -246.685)" fill="#fe9738"/>
      <path id="Trazado_789779" data-name="Trazado 789779" d="M75.561,304.488a4.236,4.236,0,0,0-.936.706l-.873.873,1.23,1.23a4.233,4.233,0,0,1-.006,5.994c-2.181,2.172-6.195,6.15-13.746,13.737q-.052.052-.106.1l3.288,3.288a2.541,2.541,0,0,0,3.593,0l15.92-15.92a4.23,4.23,0,0,0,.706-.936Z" transform="translate(-15.516 -246.685)" fill="#fe860a"/>
      <path id="Trazado_789780" data-name="Trazado 789780" d="M289.441,307.411a21.172,21.172,0,0,1-14.971,6.2h-2.24a11.01,11.01,0,0,0,11.01-11.01v-4.864a2.541,2.541,0,0,1,2.541-2.541h4.864a11.01,11.01,0,0,0,11.01-11.01v2.24a21.172,21.172,0,0,1-6.2,14.971Z" transform="translate(-189.084 -229.823)" fill="#f2fbff"/>
      <path id="Trazado_789781" data-name="Trazado 789781" d="M289.441,307.411a21.172,21.172,0,0,1-14.971,6.2h-2.24a11.01,11.01,0,0,0,11.01-11.01v-4.864a2.541,2.541,0,0,1,2.541-2.541h4.864a11.01,11.01,0,0,0,11.01-11.01v2.24a21.172,21.172,0,0,1-6.2,14.971Z" transform="translate(-189.084 -229.823)" fill="none" stroke="#000" stroke-linecap="round" stroke-linejoin="round" stroke-miterlimit="10" stroke-width="2"/>
      <path id="Trazado_789782" data-name="Trazado 789782" d="M155.427,306.735a4.231,4.231,0,0,0,.4-1.01l.989-3.872-5.58-5.58-3.872.989a4.233,4.233,0,0,0-1.01.4" transform="translate(-86.31 -239.861)" fill="none" stroke="#000" stroke-linecap="round" stroke-linejoin="round" stroke-miterlimit="10" stroke-width="2"/>
      <path id="Trazado_789783" data-name="Trazado 789783" d="M62.983,319.923l5.428-5.428a4.231,4.231,0,0,0,.706-.936l-9.071-9.071a4.236,4.236,0,0,0-.936.706l-15.92,15.92a2.541,2.541,0,0,0,0,3.593l5.708,5.708a2.541,2.541,0,0,0,3.593,0l6.307-6.307" transform="translate(0 -246.685)" fill="none" stroke="#000" stroke-linecap="round" stroke-linejoin="round" stroke-miterlimit="10" stroke-width="2"/>
      <line id="Línea_1029" data-name="Línea 1029" x2="16.368" transform="translate(86.264 31.176)" fill="none" stroke="#000" stroke-linecap="round" stroke-linejoin="round" stroke-miterlimit="10" stroke-width="2"/>
      <line id="Línea_1030" data-name="Línea 1030" x2="31.008" transform="translate(72.698 36.437)" fill="none" stroke="#000" stroke-linecap="round" stroke-linejoin="round" stroke-miterlimit="10" stroke-width="2"/>
      <line id="Línea_1031" data-name="Línea 1031" x2="29.109" transform="translate(73.46 41.698)" fill="none" stroke="#000" stroke-linecap="round" stroke-linejoin="round" stroke-miterlimit="10" stroke-width="2"/>
      <line id="Línea_1032" data-name="Línea 1032" x2="32.329" transform="translate(72.35 60.113)" fill="none" stroke="#000" stroke-linecap="round" stroke-linejoin="round" stroke-miterlimit="10" stroke-width="2"/>
      <line id="Línea_1033" data-name="Línea 1033" x2="27.143" transform="translate(69.644 65.374)" fill="none" stroke="#000" stroke-linecap="round" stroke-linejoin="round" stroke-miterlimit="10" stroke-width="2"/>
      <line id="Línea_1034" data-name="Línea 1034" x2="15.398" transform="translate(65.585 70.635)" fill="none" stroke="#000" stroke-linecap="round" stroke-linejoin="round" stroke-miterlimit="10" stroke-width="2"/>
      <line id="Línea_1035" data-name="Línea 1035" x2="20.788" transform="translate(75.999 46.96)" fill="none" stroke="#000" stroke-linecap="round" stroke-linejoin="round" stroke-miterlimit="10" stroke-width="2"/>
      <path id="Trazado_789784" data-name="Trazado 789784" d="M180.761,87.793l4.116-4.116a4.231,4.231,0,0,1,5.044-.709,23.659,23.659,0,1,0-9.656-9.983,4.236,4.236,0,0,1-.776,4.919l-4.307,4.307" transform="translate(-110.253 -25.801)" fill="none" stroke="#000" stroke-linecap="round" stroke-linejoin="round" stroke-miterlimit="10" stroke-width="2"/>
      <path id="Trazado_789785" data-name="Trazado 789785" d="M414.717,117.28a18.349,18.349,0,0,0-4.848-12.452" transform="translate(-305.19 -80.843)" fill="none" stroke="#000" stroke-linecap="round" stroke-linejoin="round" stroke-miterlimit="10" stroke-width="2"/>
      <path id="Trazado_789786" data-name="Trazado 789786" d="M224.356,116.219a18.417,18.417,0,1,0,32.52,16.547" transform="translate(-148.357 -90.304)" fill="none" stroke="#000" stroke-linecap="round" stroke-linejoin="round" stroke-miterlimit="10" stroke-width="2"/>
      <path id="Trazado_789787" data-name="Trazado 789787" d="M269.223,75.588a18.416,18.416,0,0,0-28.68,1.929h28.68V75.588Z" transform="translate(-164.544 -51.602)" fill="none" stroke="#000" stroke-linecap="round" stroke-linejoin="round" stroke-miterlimit="10" stroke-width="2"/>
      <path id="Trazado_789788" data-name="Trazado 789788" d="M187.911,69.625H176.9v7.892h4.679" transform="translate(-111.681 -51.602)" fill="none" stroke="#000" stroke-linecap="round" stroke-linejoin="round" stroke-miterlimit="10" stroke-width="2"/>
      <path id="Trazado_789789" data-name="Trazado 789789" d="M198.779,359.283q.041-.061.08-.123Q198.82,359.222,198.779,359.283Z" transform="translate(-129.854 -292.097)" fill="none" stroke="#000" stroke-linecap="round" stroke-linejoin="round" stroke-miterlimit="10" stroke-width="2"/>
      <path id="Trazado_789790" data-name="Trazado 789790" d="M91.6,54.094H86.254a2.541,2.541,0,0,0-2.541,2.541v50.251" transform="translate(-34.278 -38.702)" fill="none" stroke="#000" stroke-linecap="round" stroke-linejoin="round" stroke-miterlimit="10" stroke-width="2"/>
      <path id="Trazado_789791" data-name="Trazado 789791" d="M83.713,406.657v5a2.541,2.541,0,0,0,2.541,2.541h50.162a2.541,2.541,0,0,0,2.541-2.541V395.782" transform="translate(-34.278 -322.516)" fill="none" stroke="#000" stroke-linecap="round" stroke-linejoin="round" stroke-miterlimit="10" stroke-width="2"/>
      <path id="Trazado_789792" data-name="Trazado 789792" d="M130.306,429.005v2.355a2.541,2.541,0,0,0,2.541,2.541h25.519" transform="translate(-72.979 -350.112)" fill="none" stroke="#000" stroke-linecap="round" stroke-linejoin="round" stroke-miterlimit="10" stroke-width="2"/>
      <line id="Línea_1036" data-name="Línea 1036" y1="10.15" transform="translate(112.571 46.455)" fill="none" stroke="#000" stroke-linecap="round" stroke-linejoin="round" stroke-miterlimit="10" stroke-width="2"/>
      <line id="Línea_1037" data-name="Línea 1037" y2="34.017" transform="translate(57.327 26.274)" fill="none" stroke="#000" stroke-linecap="round" stroke-linejoin="round" stroke-miterlimit="10" stroke-width="2"/>
      <path id="Trazado_789793" data-name="Trazado 789793" d="M185.55,26.42V10.041A2.541,2.541,0,0,0,183.009,7.5H132.847a2.541,2.541,0,0,0-2.541,2.541V20.346" transform="translate(-72.979 0)" fill="none" stroke="#000" stroke-linecap="round" stroke-linejoin="round" stroke-miterlimit="10" stroke-width="2"/>
    </g>
  </g>
</svg>
