<svg xmlns="http://www.w3.org/2000/svg" xmlns:xlink="http://www.w3.org/1999/xlink" width="120" height="120" viewBox="0 0 120 120">
  <defs>
    <filter id="Elipse_8028" x="0" y="0" width="120" height="120" filterUnits="userSpaceOnUse">
      <feOffset dy="3" input="SourceAlpha"/>
      <feGaussianBlur stdDeviation="3" result="blur"/>
      <feFlood flood-opacity="0.161"/>
      <feComposite operator="in" in2="blur"/>
      <feComposite in="SourceGraphic"/>
    </filter>
  </defs>
  <g id="Grupo_1054385" data-name="Grupo 1054385" transform="translate(-1090.51 -1872.106)">
    <g transform="matrix(1, 0, 0, 1, 1090.51, 1872.11)" filter="url(#Elipse_8028)">
      <circle id="Elipse_8028-2" data-name="Elipse 8028" cx="51" cy="51" r="51" transform="translate(9 6)" fill="#ffc5ad"/>
    </g>
    <g id="ventas_2_" data-name="ventas (2)" transform="translate(1108.118 1881.69)">
      <path id="Trazado_789752" data-name="Trazado 789752" d="M245.744,183.264H233.5V140.507a4.886,4.886,0,0,1,4.886-4.886h2.477a4.885,4.885,0,0,1,4.886,4.886Zm0,0" transform="translate(-189.842 -110.502)" fill="#abebf4"/>
      <path id="Trazado_789753" data-name="Trazado 789753" d="M245.744,280.238A66.559,66.559,0,0,1,233.5,284.6V301.1h12.248Zm0,0" transform="translate(-189.842 -228.333)" fill="#8ed7e8"/>
      <path id="Trazado_789754" data-name="Trazado 789754" d="M150.889,233.495H138.641V201.531a4.26,4.26,0,0,1,4.26-4.261h3.728a4.261,4.261,0,0,1,4.261,4.261Zm0,0" transform="translate(-112.556 -160.732)" fill="#b2e59c"/>
      <path id="Trazado_789755" data-name="Trazado 789755" d="M340.6,117.587H328.355V68.25A4.855,4.855,0,0,1,333.21,63.4h2.538A4.855,4.855,0,0,1,340.6,68.25Zm0,0" transform="translate(-267.132 -51.653)" fill="#ffde55"/>
      <path id="Trazado_789756" data-name="Trazado 789756" d="M340.6,218.594a79.918,79.918,0,0,1-12.249,8.654V244.04H340.6Zm0,0" transform="translate(-267.128 -178.107)" fill="#ffcd00"/>
      <path id="Trazado_789757" data-name="Trazado 789757" d="M109.477,249.093,134.1,236.02a4.119,4.119,0,0,1,5.968,4.46,11.932,11.932,0,0,1-4.084,7.082l-2.524,2.045a1.712,1.712,0,0,0,1.077,3.043l10.121,0a16.018,16.018,0,0,0,9.221-2.916l11.311-7.954a5.317,5.317,0,0,1,6.434,8.458l-14.816,12.174a16.015,16.015,0,0,1-6.36,3.182l-32.475,7.951Zm0,0" transform="translate(-88.794 -191.905)" fill="#ffe2d9"/>
      <path id="Trazado_789758" data-name="Trazado 789758" d="M123.121,309.892c-9.327-2.737-8.632-15.5-8.632-15.5l-5.012,2.66,8.5,24.458,24.753-6.061c-5.215-1.449-13.606-3.8-19.611-5.559Zm0,0" transform="translate(-88.794 -239.867)" fill="#ffcfc2"/>
      <path id="Trazado_789759" data-name="Trazado 789759" d="M29.244,308.758l9.2,24.56a7.174,7.174,0,0,1-5.129,9.513l-8.8,2a7.175,7.175,0,0,1-8.532-5.191L11.245,321.4a7.389,7.389,0,0,1,5.122-8.964Zm0,0" transform="translate(-8.561 -251.571)" fill="#8ed7e8"/>
      <path id="Trazado_789760" data-name="Trazado 789760" d="M38.446,345.284l-1.435-3.83a23.733,23.733,0,0,0-10.884-1.927,7.2,7.2,0,0,1-7.514-7.413,49.669,49.669,0,0,1,1.111-8.669l-3.359.959a7.39,7.39,0,0,0-5.122,8.965l4.74,18.235a7.175,7.175,0,0,0,8.532,5.192l8.8-2a7.175,7.175,0,0,0,5.129-9.513Zm0,0" transform="translate(-8.56 -263.537)" fill="#7ac1dd"/>
      <path id="Trazado_789761" data-name="Trazado 789761" d="M79.987,430.822a4.083,4.083,0,1,1-4.083-4.083A4.084,4.084,0,0,1,79.987,430.822Zm0,0" transform="translate(-58.112 -347.699)" fill="#ffeb99"/>
      <path id="Trazado_789762" data-name="Trazado 789762" d="M58.832,7.5H47.724a2.884,2.884,0,0,0,0,5.768h3.953L40.092,24.42,34.6,21.578a2.885,2.885,0,0,0-3.372.53L8.825,44.684a2.884,2.884,0,0,0,4.094,4.063L33.83,27.675l5.448,2.818a2.886,2.886,0,0,0,3.325-.484L55.948,17.164v4.426a2.884,2.884,0,1,0,5.768,0V10.384s0-.006,0-.009A2.671,2.671,0,0,0,58.832,7.5Zm0,0" transform="translate(-6.102 -6.111)" fill="#97f7e5"/>
      <path id="Trazado_789763" data-name="Trazado 789763" d="M86.7,95.084c-4.358-4.338-9.395-.278-9.395-.278V71.968a1.389,1.389,0,1,0-2.778,0V96.76s-6.624,5.222-9.471,6.5V62.138a3.47,3.47,0,0,1,3.466-3.466H71.06a3.47,3.47,0,0,1,3.466,3.466v4.144a1.389,1.389,0,0,0,2.778,0V62.138a6.251,6.251,0,0,0-6.245-6.244H68.522a6.251,6.251,0,0,0-6.245,6.244v42.221a14.585,14.585,0,0,1-2.542.473V75.547a6.283,6.283,0,0,0-6.275-6.276H50.984a6.283,6.283,0,0,0-6.275,6.276V89.7l-2.542,1.35V86.34a5.656,5.656,0,0,0-5.65-5.65H32.789a5.656,5.656,0,0,0-5.649,5.65V99.026L22.6,101.433l-12.737,3.64a8.779,8.779,0,0,0-6.084,10.649L5.208,121.2a1.389,1.389,0,1,0,2.689-.7l-1.425-5.481a5.966,5.966,0,0,1,4.159-7.279l11.645-3.328,8.752,23.359a6.222,6.222,0,0,1-4.136,7.671l-8.8,2a5.759,5.759,0,0,1-6.881-4.186l-1.786-6.875a1.389,1.389,0,0,0-2.689.7l1.787,6.875a8.519,8.519,0,0,0,8.254,6.414c2.806,0,10.731-2.216,10.731-2.216a8.561,8.561,0,0,0,6.48-10.118l30.445-7.454a17.519,17.519,0,0,0,6.911-3.459l14.816-12.174a6.589,6.589,0,0,0,.539-9.869ZM50.984,72.049H53.46a3.5,3.5,0,0,1,3.5,3.5V104.9l-8.765,0c-.805-.007-.247-.539-.2-.575l2.524-2.045a13.2,13.2,0,0,0,4.571-7.885,5.508,5.508,0,0,0-7.6-6.149v-12.7a3.5,3.5,0,0,1,3.5-3.5ZM29.918,86.34a2.875,2.875,0,0,1,2.871-2.872h3.728a2.875,2.875,0,0,1,2.872,2.872v6.185l-9.47,5.027ZM84.4,102.806,69.582,114.98a14.716,14.716,0,0,1-5.808,2.906L33.1,125.4l-8.248-22.011,23.55-12.5a2.73,2.73,0,0,1,3.955,2.955,10.5,10.5,0,0,1-3.6,6.281l-2.524,2.045a3.1,3.1,0,0,0,1.951,5.512l10.122,0h.007a17.321,17.321,0,0,0,10.014-3.169l11.311-7.954a3.914,3.914,0,0,1,5.07.467c.778.8,2.3,3.162-.315,5.782Zm0,0" transform="translate(-2.444 -45.542)"/>
      <path id="Trazado_789764" data-name="Trazado 789764" d="M75.265,424.712a5.473,5.473,0,1,0-5.473,5.473A5.479,5.479,0,0,0,75.265,424.712Zm-8.167,0a2.694,2.694,0,1,1,2.694,2.694A2.7,2.7,0,0,1,67.1,424.712Zm0,0" transform="translate(-52.001 -341.588)"/>
      <path id="Trazado_789765" data-name="Trazado 789765" d="M7.8,43.615,28,23.266l4.541,2.349a4.272,4.272,0,0,0,4.927-.717L48.456,14.318s-.3,5.434,4.274,5.434A4.279,4.279,0,0,0,57,15.478V4.273c0-.013,0-.027,0-.041A4.044,4.044,0,0,0,52.73,0H41.622a4.278,4.278,0,0,0-4.273,4.273c0,4.7,4.78,4.273,4.78,4.273l-8.385,8.071-4.608-2.383a4.257,4.257,0,0,0-5,.785L1.737,37.595a4.278,4.278,0,0,0,.023,6.043A4.213,4.213,0,0,0,7.8,43.615Zm-4.1-4.063,22.4-22.576A1.262,1.262,0,0,1,27.86,16.7l5.492,2.84a1.389,1.389,0,0,0,1.6-.233L46.538,8.158a1.389,1.389,0,0,0-.963-2.39H41.622a1.5,1.5,0,0,1,0-2.99H52.73a1.306,1.306,0,0,1,1.494,1.486c0,.012,0,.025,0,.038V15.478a1.495,1.495,0,1,1-2.99,0V11.053a1.389,1.389,0,0,0-2.353-1L35.538,22.9a1.494,1.494,0,0,1-1.723.251L28.367,20.33a1.39,1.39,0,0,0-1.624.255L5.831,41.658a1.432,1.432,0,0,1-2.114.008,1.5,1.5,0,0,1-.009-2.114Zm0,0" transform="translate(0)"/>
    </g>
  </g>
</svg>
