<svg xmlns="http://www.w3.org/2000/svg" xmlns:xlink="http://www.w3.org/1999/xlink" width="110" height="110" viewBox="0 0 110 110">
  <defs>
    <filter id="Elipse_8145" x="0" y="0" width="110" height="110" filterUnits="userSpaceOnUse">
      <feOffset dy="3" input="SourceAlpha"/>
      <feGaussianBlur stdDeviation="3" result="blur"/>
      <feFlood flood-opacity="0.161"/>
      <feComposite operator="in" in2="blur"/>
      <feComposite in="SourceGraphic"/>
    </filter>
  </defs>
  <g id="Grupo_1055089" data-name="Grupo 1055089" transform="translate(-171 -2486)">
    <g transform="matrix(1, 0, 0, 1, 171, 2486)" filter="url(#Elipse_8145)">
      <circle id="Elipse_8145-2" data-name="Elipse 8145" cx="46" cy="46" r="46" transform="translate(9 6)" fill="#fff"/>
    </g>
    <path id="recursos-humanos" d="M58.9,58.458c0-.041-.01-.093-.01-.134a3.8,3.8,0,0,0-1.913-2.613.637.637,0,0,0-.2-.072c-1.121-.278-2.263-.535-3.394-.782-.021-.237-.041-.566-.072-1.049v-.021a8.84,8.84,0,0,0,1.893-4.7c.288-2.685-.7-4.608-2.572-5.02a8.118,8.118,0,0,0-3.518-.062L47.1,40.828a16.057,16.057,0,0,0,.987-2.376l4.166-.926a.824.824,0,0,0,.648-.8V30.83a.824.824,0,0,0-.648-.8L48.087,29.1a14.862,14.862,0,0,0-.987-2.376l2.294-3.6a.825.825,0,0,0-.113-1.029L45.1,17.921a.825.825,0,0,0-1.029-.113l-3.6,2.294a16.056,16.056,0,0,0-2.376-.987l-.926-4.166a.824.824,0,0,0-.8-.648h-5.9a.824.824,0,0,0-.8.648l-.926,4.166a14.862,14.862,0,0,0-2.376.987l-3.6-2.294a.825.825,0,0,0-1.029.113L17.559,22.1a.825.825,0,0,0-.113,1.029l2.294,3.6a16.057,16.057,0,0,0-.987,2.376l-4.166.926a.824.824,0,0,0-.648.8v5.9a.824.824,0,0,0,.648.8l4.166.926a14.862,14.862,0,0,0,.987,2.376l-2.006,3.148a8.156,8.156,0,0,0-3.384.093c-1.882.411-2.88,2.335-2.592,5.009a8.915,8.915,0,0,0,1.779,4.557c-.031.576-.062.957-.082,1.214-1.131.237-2.273.5-3.394.782a1.1,1.1,0,0,0-.2.072,3.814,3.814,0,0,0-1.913,2.6.543.543,0,0,0-.01.134C7.9,59.7,7.89,60.968,7.91,62.212a1.842,1.842,0,0,0,1.831,1.8h.021c4.269-.041,8.589-.041,12.858,0h.021a1.835,1.835,0,0,0,1.831-1.8c.021-1.245.01-2.51-.031-3.754,0-.041-.01-.093-.01-.134a3.763,3.763,0,0,0-1.913-2.6.637.637,0,0,0-.2-.072c-1.121-.278-2.263-.535-3.394-.782-.021-.237-.041-.566-.072-1.049V53.8a8.84,8.84,0,0,0,1.893-4.7,3.051,3.051,0,0,0,.031-.432l.967.967a.833.833,0,0,0,.586.237.77.77,0,0,0,.442-.134l3.6-2.294a15.1,15.1,0,0,0,2.582,1.049c.01.2.021.381.041.586a8.915,8.915,0,0,0,1.779,4.557c-.031.566-.062.957-.082,1.214-1.131.237-2.273.5-3.394.782a1.1,1.1,0,0,0-.2.072,3.814,3.814,0,0,0-1.913,2.6.543.543,0,0,0-.01.134c-.041,1.245-.051,2.51-.031,3.754a1.842,1.842,0,0,0,1.831,1.8H27c4.269-.041,8.589-.041,12.858,0h.021a1.835,1.835,0,0,0,1.831-1.8c.021-1.245.021-2.51-.031-3.754,0-.041-.01-.093-.01-.134a3.763,3.763,0,0,0-1.913-2.6.637.637,0,0,0-.2-.072c-1.121-.278-2.263-.535-3.394-.782-.021-.237-.041-.566-.072-1.049v-.021a8.84,8.84,0,0,0,1.893-4.7c.021-.216.041-.432.041-.638a16.456,16.456,0,0,0,2.458-1.008l3.6,2.294a.825.825,0,0,0,1.029-.1l1.09-1.09c.01.175.021.36.041.545a8.915,8.915,0,0,0,1.779,4.557c-.031.576-.062.957-.082,1.214-1.131.237-2.273.5-3.394.782a1.1,1.1,0,0,0-.2.072,3.814,3.814,0,0,0-1.913,2.6.543.543,0,0,0-.01.134c-.041,1.245-.051,2.51-.031,3.754a1.842,1.842,0,0,0,1.831,1.8h.021c4.269-.041,8.589-.041,12.858,0h.021a1.835,1.835,0,0,0,1.831-1.8c-.01-1.224-.021-2.489-.062-3.734ZM21.807,57.213a2.19,2.19,0,0,1,.987,1.368c.041,1.193.051,2.407.021,3.6a.184.184,0,0,1-.185.185c-4.279-.041-8.609-.041-12.888,0a.184.184,0,0,1-.185-.185c-.021-1.193-.01-2.407.021-3.6a2.137,2.137,0,0,1,.987-1.368c1.255-.309,2.53-.6,3.806-.854a.8.8,0,0,0,.638-.648,7.711,7.711,0,0,0,.093-.823,2.931,2.931,0,0,0,1.152.247,2.845,2.845,0,0,0,1.018-.2c.041.473.062.658.082.761a.826.826,0,0,0,.638.648C19.276,56.617,20.552,56.9,21.807,57.213ZM19.1,48.923c-.257,2.4-1.615,4.567-2.849,4.567s-2.6-2.181-2.86-4.577c-.072-.679-.2-2.9,1.317-3.23h.021a6.351,6.351,0,0,1,3.045,0H17.8C19.3,46,19.184,48.244,19.1,48.923Zm19.945,8.291a2.19,2.19,0,0,1,.987,1.368c.041,1.193.051,2.407.021,3.6a.184.184,0,0,1-.185.185c-4.279-.041-8.609-.041-12.888,0a.184.184,0,0,1-.185-.185c-.021-1.193-.01-2.407.021-3.6a2.137,2.137,0,0,1,.987-1.368c1.255-.309,2.53-.6,3.806-.854a.8.8,0,0,0,.638-.648,7.71,7.71,0,0,0,.093-.823,2.931,2.931,0,0,0,1.152.247,2.845,2.845,0,0,0,1.018-.2c.041.473.062.658.082.761a.826.826,0,0,0,.638.648C36.505,56.617,37.781,56.9,39.046,57.213Zm-2.705-8.291c-.257,2.4-1.615,4.567-2.849,4.567s-2.6-2.181-2.86-4.577c-.072-.679-.2-2.9,1.317-3.23h.021a6.351,6.351,0,0,1,3.045,0h.021C36.526,46,36.413,48.244,36.341,48.923ZM44.405,48l-3.456-2.191a.8.8,0,0,0-.843-.021,13.558,13.558,0,0,1-2.232,1A3.289,3.289,0,0,0,35.4,44.078a7.981,7.981,0,0,0-3.816,0,3.333,3.333,0,0,0-2.5,2.746,13.334,13.334,0,0,1-2.355-1.039.851.851,0,0,0-.843.021L22.434,48l-1.625-1.625a.751.751,0,0,0-.36-.206A3.335,3.335,0,0,0,19.3,44.582L21.385,41.3a.8.8,0,0,0,.021-.843,13.771,13.771,0,0,1-1.214-2.932.818.818,0,0,0-.617-.576l-3.991-.885V31.488l3.991-.885a.818.818,0,0,0,.617-.576A13.771,13.771,0,0,1,21.405,27.1a.851.851,0,0,0-.021-.843L19.194,22.8l3.24-3.24,3.456,2.191a.8.8,0,0,0,.843.021,13.771,13.771,0,0,1,2.932-1.214.818.818,0,0,0,.576-.617l.885-3.991H35.7l.885,3.991a.818.818,0,0,0,.576.617,13.668,13.668,0,0,1,2.942,1.224.851.851,0,0,0,.843-.021l3.456-2.191,3.24,3.24-2.191,3.456a.8.8,0,0,0-.021.843,13.771,13.771,0,0,1,1.214,2.932.818.818,0,0,0,.617.576l3.991.885v4.577l-3.991.885a.818.818,0,0,0-.617.576,13.771,13.771,0,0,1-1.214,2.932.851.851,0,0,0,.021.843l2.129,3.343a3.387,3.387,0,0,0-1.049,1.491.824.824,0,0,0-.5.237Zm4.773-2.325H49.2a6.351,6.351,0,0,1,3.045,0h.021c1.491.319,1.368,2.561,1.3,3.24-.257,2.4-1.615,4.567-2.849,4.567s-2.6-2.181-2.86-4.577C47.789,48.234,47.666,46,49.178,45.672Zm8.105,16.509a.184.184,0,0,1-.185.185c-4.279-.041-8.609-.041-12.888,0a.2.2,0,0,1-.2-.185c-.021-1.193-.01-2.407.021-3.6a2.137,2.137,0,0,1,.987-1.368c1.255-.309,2.53-.6,3.806-.854a.8.8,0,0,0,.638-.648,7.709,7.709,0,0,0,.093-.823,2.931,2.931,0,0,0,1.152.247,2.845,2.845,0,0,0,1.018-.2c.041.473.062.658.082.761a.826.826,0,0,0,.638.648c1.265.257,2.551.545,3.806.854a2.19,2.19,0,0,1,.987,1.368c.062,1.2.062,2.417.041,3.61ZM33.42,24.123a9.659,9.659,0,1,0,9.659,9.659A9.666,9.666,0,0,0,33.42,24.123Zm0,17.661a8.013,8.013,0,1,1,8.013-8.013A8.022,8.022,0,0,1,33.42,41.784Zm5-11.777a.826.826,0,0,1,.041,1.162L32.6,37.505a.832.832,0,0,1-.607.267.8.8,0,0,1-.607-.267l-3-3.25a.822.822,0,0,1,1.2-1.121l2.407,2.592,5.266-5.688a.835.835,0,0,1,1.162-.031Z" transform="translate(192.57 2498.844)" fill="#ff6e33"/>
  </g>
</svg>
