<svg xmlns="http://www.w3.org/2000/svg" xmlns:xlink="http://www.w3.org/1999/xlink" width="120" height="120" viewBox="0 0 120 120">
  <defs>
    <filter id="Elipse_8022" x="0" y="0" width="120" height="120" filterUnits="userSpaceOnUse">
      <feOffset dy="3" input="SourceAlpha"/>
      <feGaussianBlur stdDeviation="3" result="blur"/>
      <feFlood flood-opacity="0.161"/>
      <feComposite operator="in" in2="blur"/>
      <feComposite in="SourceGraphic"/>
    </filter>
  </defs>
  <g id="Grupo_1054375" data-name="Grupo 1054375" transform="translate(-740 -1872.106)">
    <g transform="matrix(1, 0, 0, 1, 740, 1872.11)" filter="url(#Elipse_8022)">
      <circle id="Elipse_8022-2" data-name="Elipse 8022" cx="51" cy="51" r="51" transform="translate(9 6)" fill="#ffc5ad"/>
    </g>
    <g id="_x34_0_Verification" transform="translate(725.47 1875.624)">
      <g id="Grupo_1047132" data-name="Grupo 1047132" transform="translate(34.819 7.217)">
        <path id="Trazado_778433" data-name="Trazado 778433" d="M113.647,33.432,91.762,97.087a4.925,4.925,0,0,1-6.259,3.056l-42.183-14.5a4.925,4.925,0,0,1-3.056-6.259L62.148,15.727a4.925,4.925,0,0,1,6.259-3.056l42.183,14.5A4.925,4.925,0,0,1,113.647,33.432Z" transform="translate(-39.06 -11.465)" fill="#e77c6a"/>
        <path id="Trazado_778434" data-name="Trazado 778434" d="M148.311,58.014v57.719a3.858,3.858,0,0,1-3.858,3.858H97.706a3.858,3.858,0,0,1-3.858-3.858V46.287a3.858,3.858,0,0,1,3.858-3.858h35.013Z" transform="translate(-83.185 -36.068)" fill="#e8f1f8"/>
        <path id="Trazado_778435" data-name="Trazado 778435" d="M148.311,65.152v57.719a3.859,3.859,0,0,1-3.858,3.858H97.706a3.859,3.859,0,0,1-3.858-3.858v-9.32a50.147,50.147,0,0,0,40.444-62.41Z" transform="translate(-83.185 -43.206)" opacity="0.12"/>
        <path id="Trazado_778436" data-name="Trazado 778436" d="M159.037,106.686H142.051a4.784,4.784,0,0,1,0-9.567h16.987a4.784,4.784,0,1,1,0,9.567Z" transform="translate(-118.76 -80.878)" fill="#f14f4a"/>
        <path id="Trazado_778437" data-name="Trazado 778437" d="M324.614,58.014H312.879a3.858,3.858,0,0,1-3.858-3.858V42.429Z" transform="translate(-259.487 -36.068)" fill="#acbadf"/>
        <path id="Trazado_778438" data-name="Trazado 778438" d="M373.615,342.7v23.88a4.464,4.464,0,1,1-8.929,0V342.7Z" transform="translate(-305.096 -282.092)" fill="#f78721"/>
        <path id="Trazado_778439" data-name="Trazado 778439" d="M336.64,240.734a14.922,14.922,0,1,1-14.925-14.925A14.92,14.92,0,0,1,336.64,240.734Z" transform="translate(-257.664 -186.321)" fill="#475da9"/>
        <path id="Trazado_778440" data-name="Trazado 778440" d="M342.95,272.2a10.24,10.24,0,1,1,10.243-10.237A10.249,10.249,0,0,1,342.95,272.2Z" transform="translate(-278.899 -207.554)" fill="#e8f1f8"/>
        <path id="Trazado_778441" data-name="Trazado 778441" d="M343.94,248.106a14.93,14.93,0,0,1-28.238,6.751A14.92,14.92,0,0,0,335.776,234.8,14.9,14.9,0,0,1,343.94,248.106Z" transform="translate(-264.961 -193.688)" opacity="0.12"/>
        <g id="Grupo_1047131" data-name="Grupo 1047131" transform="translate(0 0)">
          <path id="Trazado_778442" data-name="Trazado 778442" d="M133.019,199.729H171.8a.936.936,0,0,0,0-1.873H133.019a.936.936,0,0,0,0,1.873Z" transform="translate(-114.513 -163.417)"/>
          <path id="Trazado_778443" data-name="Trazado 778443" d="M156.036,250.817H133.019a.936.936,0,1,0,0,1.873h23.016a.936.936,0,1,0,0-1.873Z" transform="translate(-114.512 -206.811)"/>
          <path id="Trazado_778444" data-name="Trazado 778444" d="M156.036,303.777H133.019a.936.936,0,1,0,0,1.873h23.016a.936.936,0,1,0,0-1.873Z" transform="translate(-114.512 -250.204)"/>
          <path id="Trazado_778445" data-name="Trazado 778445" d="M156.036,356.737H133.019a.936.936,0,1,0,0,1.873h23.016a.936.936,0,1,0,0-1.873Z" transform="translate(-114.512 -293.597)"/>
          <path id="Trazado_778446" data-name="Trazado 778446" d="M156.036,409.7H133.019a.936.936,0,0,0,0,1.873h23.016a.936.936,0,0,0,0-1.873Z" transform="translate(-114.512 -336.99)"/>
          <path id="Trazado_778447" data-name="Trazado 778447" d="M137.8,103.376h16.986a5.72,5.72,0,1,0,0-11.44H137.8a5.72,5.72,0,1,0,0,11.44Zm0-9.567h16.986a3.847,3.847,0,1,1,0,7.695H137.8a3.847,3.847,0,1,1,0-7.695Z" transform="translate(-114.512 -76.632)"/>
          <path id="Trazado_778448" data-name="Trazado 778448" d="M370.377,288.459l-4.773,4.772-1.886-1.886a.936.936,0,1,0-1.324,1.324l2.548,2.548a.936.936,0,0,0,1.324,0l5.435-5.435a.936.936,0,1,0-1.324-1.324Z" transform="translate(-302.993 -237.429)"/>
          <path id="Trazado_778449" data-name="Trazado 778449" d="M114.731,61.629a15.873,15.873,0,0,0-10.38-14.864l5.94-17.277a5.868,5.868,0,0,0-3.637-7.449l-19.07-6.556-2.569-2.568a1.052,1.052,0,0,0-.662-.274H79.319L64.47,7.537a5.858,5.858,0,0,0-7.448,3.638l-.5,1.467H49.34a4.8,4.8,0,0,0-4.794,4.794V47.464L35.138,74.829a5.868,5.868,0,0,0,3.637,7.449l5.771,1.984v2.62a4.8,4.8,0,0,0,4.794,4.794H66.111l14.847,5.1a5.857,5.857,0,0,0,7.448-3.638l.5-1.467h4.562V91.7a5.4,5.4,0,0,0,10.8,0V76.516a15.867,15.867,0,0,0,10.457-14.887ZM106.044,23.81a3.994,3.994,0,0,1,2.476,5.069l-5.962,17.34a15.788,15.788,0,0,0-1.677-.309V29.163a1.051,1.051,0,0,0-.274-.662l-10-10ZM85.289,15.837l12.4,12.389H88.21a2.925,2.925,0,0,1-2.921-2.921V15.837Zm-26.5-4.054a3.988,3.988,0,0,1,5.069-2.476l9.7,3.334H58.5ZM39.384,80.507a3.994,3.994,0,0,1-2.476-5.069l7.638-22.217V82.282ZM86.636,92.534a3.987,3.987,0,0,1-5.069,2.476l-9.7-3.333H86.931ZM49.34,89.8a2.925,2.925,0,0,1-2.921-2.922V17.435a2.924,2.924,0,0,1,2.921-2.921H83.417V25.305A4.8,4.8,0,0,0,88.21,30.1h10.8V45.776c-.047,0-.093-.007-.14-.007a15.847,15.847,0,0,0-5.4,30.75V89.8H49.34ZM102.4,91.7a3.528,3.528,0,1,1-7.056,0V77.076a15.411,15.411,0,0,0,7.056,0ZM98.87,75.612a13.985,13.985,0,1,1,13.988-13.982A14,14,0,0,1,98.87,75.612Z" transform="translate(-34.819 -7.217)"/>
          <path id="Trazado_778450" data-name="Trazado 778450" d="M338.7,246.54a11.177,11.177,0,1,0,11.18,11.18A11.189,11.189,0,0,0,338.7,246.54Zm0,20.481a9.3,9.3,0,1,1,9.307-9.3,9.311,9.311,0,0,1-9.307,9.3Z" transform="translate(-274.652 -203.307)"/>
        </g>
      </g>
    </g>
  </g>
</svg>
