<svg xmlns="http://www.w3.org/2000/svg" xmlns:xlink="http://www.w3.org/1999/xlink" width="120" height="120" viewBox="0 0 120 120">
  <defs>
    <filter id="Elipse_8028" x="0" y="0" width="120" height="120" filterUnits="userSpaceOnUse">
      <feOffset dy="3" input="SourceAlpha"/>
      <feGaussianBlur stdDeviation="3" result="blur"/>
      <feFlood flood-opacity="0.161"/>
      <feComposite operator="in" in2="blur"/>
      <feComposite in="SourceGraphic"/>
    </filter>
    <clipPath id="clip-path">
      <path id="path11499" d="M0-682.665H88.509v88.509H0Z" transform="translate(0 682.665)"/>
    </clipPath>
  </defs>
  <g id="Grupo_1054389" data-name="Grupo 1054389" transform="translate(-1090.51 -1872.106)">
    <g transform="matrix(1, 0, 0, 1, 1090.51, 1872.11)" filter="url(#Elipse_8028)">
      <circle id="Elipse_8028-2" data-name="Elipse 8028" cx="51" cy="51" r="51" transform="translate(9 6)" fill="#ffc5ad"/>
    </g>
    <g id="g11493" transform="translate(1113.001 2567.517)">
      <g id="g11495" transform="translate(0 -682.665)">
        <g id="g11497" clip-path="url(#clip-path)">
          <g id="g11503" transform="translate(1.909 1.297)">
            <path id="path11505" d="M-392.089-570.071l-56.112-.03a1.729,1.729,0,0,1-1.729-1.729l-.567-81.005a1.729,1.729,0,0,1,1.729-1.729l.771-.428h41.982a1.726,1.726,0,0,1,.716.155,3.074,3.074,0,0,0,.318.843l14.069,14.091a5.686,5.686,0,0,0,1.016.469,1.731,1.731,0,0,1,.155.716v66.53l-.62.388a1.729,1.729,0,0,1-1.729,1.729" transform="translate(450.496 654.992)" fill="#f9f7f8"/>
          </g>
          <g id="g11507" transform="translate(1.297 1.297)">
            <path id="path11509" d="M-411.964-555.861v1.383a1.729,1.729,0,0,1-1.729,1.729H-471.6a1.729,1.729,0,0,1-1.729-1.729v-82.458a1.729,1.729,0,0,1,1.729-1.729h1.383v81.421a1.383,1.383,0,0,0,1.383,1.383Z" transform="translate(473.332 638.665)" fill="#efedef"/>
          </g>
          <g id="g11511" transform="translate(47.107 1.452)">
            <path id="path11513" d="M-103.4-103.4h-13.674a1.729,1.729,0,0,1-1.729-1.729V-118.8a1.72,1.72,0,0,1,.507.351l14.545,14.545a1.721,1.721,0,0,1,.351.506" transform="translate(118.801 118.8)" fill="#efedef"/>
          </g>
          <g id="g11515" transform="translate(40.506 40.506)">
            <path id="path11517" d="M-202.339-101.17A15.071,15.071,0,0,1-217.41-86.1a15.071,15.071,0,0,1-15.071-15.071,15.071,15.071,0,0,1,15.071-15.071,15.071,15.071,0,0,1,15.071,15.071" transform="translate(232.481 116.241)" fill="#f9f7f8"/>
          </g>
          <g id="g11519" transform="translate(66.706 66.173)">
            <path id="path11521" d="M-127.719-131.57h0c-1.828,1.828-4.917.322-6.613-1.629l-12.412-14.2,3.77-3.77,15.2,13.215a4.46,4.46,0,0,1,1.234,4.976,5.845,5.845,0,0,0-.47.6,4.215,4.215,0,0,1-.71.805" transform="translate(146.745 151.169)" fill="#eae8ea"/>
          </g>
          <g id="g11523" transform="translate(66.172 68.148)">
            <path id="path11525" d="M-139.225-108.854a4.4,4.4,0,0,1-1,1.544,4.461,4.461,0,0,1-6.519-.228l-13.216-15.2,2.329-2.329,13.135,15.11a4.462,4.462,0,0,0,5.276,1.1" transform="translate(159.965 125.069)" fill="#e2dee2"/>
          </g>
          <g id="g11527" transform="translate(69.485 69.187)">
            <path id="path11529" d="M-64.424-26.812l-3.321,3.321-2.428,2.168a1.043,1.043,0,0,1-1.475,0l-2.067-1.839a1.043,1.043,0,0,1,0-1.475l2.54-2.8,3.062-3.062a1.043,1.043,0,0,1,1.475,0l2.213,2.213a1.044,1.044,0,0,1,0,1.475" transform="translate(74.021 30.806)" fill="#0055a3"/>
          </g>
          <g id="g11531" transform="translate(69.187 72.555)">
            <path id="path11533" d="M-44.132-26.493l-2.581,2.581a1.041,1.041,0,0,1-1.475,0L-50.4-26.125a1.043,1.043,0,0,1,0-1.476l2.838-2.838Z" transform="translate(50.707 30.44)" fill="#084c8a"/>
          </g>
          <g id="g11535" transform="translate(40.506 40.507)">
            <path id="path11537" d="M-148.864-148.863a9.945,9.945,0,0,1-7.082,2.935,9.949,9.949,0,0,1-7.084-2.935,10.026,10.026,0,0,1,0-14.166,9.949,9.949,0,0,1,7.084-2.935,9.945,9.945,0,0,1,7.082,2.935,9.949,9.949,0,0,1,2.935,7.084,9.945,9.945,0,0,1-2.935,7.082m-7.1-22.175a15.07,15.07,0,0,0-15.071,15.07A15.07,15.07,0,0,0-155.969-140.9,15.07,15.07,0,0,0-140.9-155.968a15.07,15.07,0,0,0-15.071-15.07" transform="translate(171.04 171.038)" fill="#efedef"/>
          </g>
          <g id="g11539" transform="translate(37.171 36.907)">
            <path id="path11541" d="M-187.67-189.442a13.475,13.475,0,0,1-19.057,0,13.475,13.475,0,0,1,0-19.057,13.475,13.475,0,0,1,19.057,0,13.475,13.475,0,0,1,0,19.057m3.688-22.746a18.694,18.694,0,0,0-25.184-1.143c-.415.4-.718.764-1.121,1.167-7.3,7.3-7.026,18.577.274,25.877s18.684,7.731,25.984.431c.408-.408,1.2-1.163,1.2-1.163a18.694,18.694,0,0,0-1.155-25.169" transform="translate(215.626 217.662)" fill="#0055a3"/>
          </g>
          <g id="g11543" transform="translate(36.907 41.226)">
            <path id="path11545" d="M-221.953-176.712q-.542.654-1.155,1.265a18.69,18.69,0,0,1-26.433,0,18.69,18.69,0,0,1,0-26.433c.408-.408.83-.795,1.265-1.156a18.691,18.691,0,0,0,1.155,25.169,18.69,18.69,0,0,0,25.168,1.155" transform="translate(255.016 203.035)" fill="#084c8a"/>
          </g>
          <g id="g11547" transform="translate(1.297 1.296)">
            <path id="path11549" d="M0-238.348v-33.777a1.729,1.729,0,0,1,1.729-1.729H45.094a1.729,1.729,0,0,1,1.223.506L60.862-258.8a1.729,1.729,0,0,1,.506,1.222v20.69" transform="translate(0 273.854)" fill="none" stroke="#000" stroke-linecap="round" stroke-linejoin="round" stroke-miterlimit="10" stroke-width="2"/>
          </g>
          <g id="g11551" transform="translate(1.297 42.852)">
            <path id="path11553" d="M-411.964-202.134v12.52a1.729,1.729,0,0,1-1.729,1.729H-471.6a1.729,1.729,0,0,1-1.729-1.729v-42.631" transform="translate(473.332 232.245)" fill="none" stroke="#000" stroke-linecap="round" stroke-linejoin="round" stroke-miterlimit="10" stroke-width="2"/>
          </g>
          <g id="g11555" transform="translate(66.472 70.82)">
            <path id="path11557" d="M-23.686-27.248l-3.528-4.059" transform="translate(27.215 31.307)" fill="none" stroke="#000" stroke-linecap="round" stroke-linejoin="round" stroke-miterlimit="10" stroke-width="2"/>
          </g>
          <g id="g11559" transform="translate(73.438 73.441)">
            <path id="path11561" d="M-36.247,0l6.841,5.947a4.459,4.459,0,0,1,.228,6.518,4.459,4.459,0,0,1-6.518-.228l-5.95-6.845" transform="translate(41.647)" fill="none" stroke="#000" stroke-linecap="round" stroke-linejoin="round" stroke-miterlimit="10" stroke-width="2"/>
          </g>
          <g id="g11563" transform="translate(70.824 66.475)">
            <path id="path11565" d="M0,0,4.055,3.525" fill="none" stroke="#000" stroke-linecap="round" stroke-linejoin="round" stroke-miterlimit="10" stroke-width="2"/>
          </g>
          <g id="g11567" transform="translate(69.187 69.187)">
            <path id="path11569" d="M-66.429-26.812l-5.9,5.9a1.044,1.044,0,0,1-1.475,0l-2.213-2.213a1.043,1.043,0,0,1,0-1.475l5.9-5.9a1.043,1.043,0,0,1,1.475,0l2.213,2.213A1.044,1.044,0,0,1-66.429-26.812Z" transform="translate(76.325 30.806)" fill="none" stroke="#000" stroke-linecap="round" stroke-linejoin="round" stroke-miterlimit="10" stroke-width="2"/>
          </g>
          <g id="g11571" transform="translate(36.907 36.907)">
            <path id="path11573" d="M-189.482-61.473a13.484,13.484,0,0,0-19.069,0,13.484,13.484,0,0,0,0,19.069,13.484,13.484,0,0,0,19.069,0A13.484,13.484,0,0,0-189.482-61.473Zm6.433-.191a18.739,18.739,0,0,0-2.75-3.492,18.692,18.692,0,0,0-26.434,0,18.692,18.692,0,0,0,0,26.434,18.692,18.692,0,0,0,26.434,0,18.678,18.678,0,0,0,5.02-17.324" transform="translate(217.708 70.63)" fill="none" stroke="#000" stroke-linecap="round" stroke-linejoin="round" stroke-miterlimit="10" stroke-width="2"/>
          </g>
          <g id="g11575" transform="translate(47.107 1.988)">
            <path id="path11577" d="M0,0V13.138a1.729,1.729,0,0,0,1.729,1.729H14.867" fill="none" stroke="#000" stroke-linecap="round" stroke-linejoin="round" stroke-miterlimit="10" stroke-width="2"/>
          </g>
          <g id="g11579" transform="translate(6.483 14.262)">
            <path id="path11581" d="M0-34.814,5.186-40" transform="translate(0 40)" fill="none" stroke="#000" stroke-linecap="round" stroke-linejoin="round" stroke-miterlimit="10" stroke-width="2"/>
          </g>
          <g id="g11583" transform="translate(6.483 14.262)">
            <path id="path11585" d="M-34.814-34.814-40-40" transform="translate(40 40)" fill="none" stroke="#000" stroke-linecap="round" stroke-linejoin="round" stroke-miterlimit="10" stroke-width="2"/>
          </g>
          <g id="g11587" transform="translate(16.941 10.804)">
            <path id="path11589" d="M-24.37-81.232H-28v-12.1h3.63" transform="translate(28 93.333)" fill="none" stroke="#000" stroke-linecap="round" stroke-linejoin="round" stroke-miterlimit="10" stroke-width="2"/>
          </g>
          <g id="g11591" transform="translate(42.121 22.905)">
            <path id="path11593" d="M0,0H15.358" fill="none" stroke="#000" stroke-linecap="round" stroke-linejoin="round" stroke-miterlimit="10" stroke-width="2"/>
          </g>
          <g id="g11595" transform="translate(25.671 22.905)">
            <path id="path11597" d="M0,0H10.4" fill="none" stroke="#000" stroke-linecap="round" stroke-linejoin="round" stroke-miterlimit="10" stroke-width="2"/>
          </g>
          <g id="g11599" transform="translate(25.671 16.855)">
            <path id="path11601" d="M0,0H16.25" fill="none" stroke="#000" stroke-linecap="round" stroke-linejoin="round" stroke-miterlimit="10" stroke-width="2"/>
          </g>
          <g id="g11603" transform="translate(25.671 10.804)">
            <path id="path11605" d="M0,0H16.25" fill="none" stroke="#000" stroke-linecap="round" stroke-linejoin="round" stroke-miterlimit="10" stroke-width="2"/>
          </g>
          <g id="g11607" transform="translate(16.941 45.551)">
            <path id="path11609" d="M0,0H22.492" fill="none" stroke="#000" stroke-linecap="round" stroke-linejoin="round" stroke-miterlimit="10" stroke-width="2"/>
          </g>
          <g id="g11611" transform="translate(16.941 39.5)">
            <path id="path11613" d="M0,0H28.7" fill="none" stroke="#000" stroke-linecap="round" stroke-linejoin="round" stroke-miterlimit="10" stroke-width="2"/>
          </g>
          <g id="g11615" transform="translate(16.941 33.45)">
            <path id="path11617" d="M0,0H15.081" fill="none" stroke="#000" stroke-linecap="round" stroke-linejoin="round" stroke-miterlimit="10" stroke-width="2"/>
          </g>
          <g id="g11619" transform="translate(6.483 65.603)">
            <path id="path11621" d="M0-34.814,5.186-40" transform="translate(0 40)" fill="none" stroke="#000" stroke-linecap="round" stroke-linejoin="round" stroke-miterlimit="10" stroke-width="2"/>
          </g>
          <g id="g11623" transform="translate(6.483 65.603)">
            <path id="path11625" d="M-34.814-34.814-40-40" transform="translate(40 40)" fill="none" stroke="#000" stroke-linecap="round" stroke-linejoin="round" stroke-miterlimit="10" stroke-width="2"/>
          </g>
          <g id="g11627" transform="translate(16.941 56.138)">
            <path id="path11629" d="M-24.37-161.884H-28V-186h3.63" transform="translate(28 186)" fill="none" stroke="#000" stroke-linecap="round" stroke-linejoin="round" stroke-miterlimit="10" stroke-width="2"/>
          </g>
          <g id="g11631" transform="translate(25.671 68.239)">
            <path id="path11633" d="M0,0H15.9" fill="none" stroke="#000" stroke-linecap="round" stroke-linejoin="round" stroke-miterlimit="10" stroke-width="2"/>
          </g>
          <g id="g11635" transform="translate(25.671 74.289)">
            <path id="path11637" d="M0,0H29.82" fill="none" stroke="#000" stroke-linecap="round" stroke-linejoin="round" stroke-miterlimit="10" stroke-width="2"/>
          </g>
          <g id="g11639" transform="translate(41.459 80.34)">
            <path id="path11641" d="M0,0H16.02" fill="none" stroke="#000" stroke-linecap="round" stroke-linejoin="round" stroke-miterlimit="10" stroke-width="2"/>
          </g>
          <g id="g11643" transform="translate(25.671 80.34)">
            <path id="path11645" d="M0,0H9.738" fill="none" stroke="#000" stroke-linecap="round" stroke-linejoin="round" stroke-miterlimit="10" stroke-width="2"/>
          </g>
          <g id="g11647" transform="translate(25.671 62.189)">
            <path id="path11649" d="M0,0H12.36" fill="none" stroke="#000" stroke-linecap="round" stroke-linejoin="round" stroke-miterlimit="10" stroke-width="2"/>
          </g>
          <g id="g11651" transform="translate(25.671 56.138)">
            <path id="path11653" d="M0,0H11.064" fill="none" stroke="#000" stroke-linecap="round" stroke-linejoin="round" stroke-miterlimit="10" stroke-width="2"/>
          </g>
          <g id="g11655" transform="translate(44.081 48.662)">
            <path id="path11657" d="M0,0H13.224" fill="none" stroke="#000" stroke-linecap="round" stroke-linejoin="round" stroke-miterlimit="10" stroke-width="2"/>
          </g>
          <g id="g11659" transform="translate(42.18 55.577)">
            <path id="path11661" d="M0,0H15.126" fill="none" stroke="#000" stroke-linecap="round" stroke-linejoin="round" stroke-miterlimit="10" stroke-width="2"/>
          </g>
          <g id="g11663" transform="translate(44.081 62.492)">
            <path id="path11665" d="M0,0H13.224" fill="none" stroke="#000" stroke-linecap="round" stroke-linejoin="round" stroke-miterlimit="10" stroke-width="2"/>
          </g>
        </g>
      </g>
    </g>
  </g>
</svg>
