<svg xmlns="http://www.w3.org/2000/svg" xmlns:xlink="http://www.w3.org/1999/xlink" width="200" height="200" viewBox="0 0 200 200">
  <defs>
    <filter id="Trazado_113938" x="0" y="0" width="200" height="200" filterUnits="userSpaceOnUse">
      <feOffset input="SourceAlpha"/>
      <feGaussianBlur stdDeviation="20" result="blur"/>
      <feFlood flood-color="#402d27" flood-opacity="0.192"/>
      <feComposite operator="in" in2="blur"/>
      <feComposite in="SourceGraphic"/>
    </filter>
    <clipPath id="clip-path">
      <rect id="Rectángulo_355113" data-name="Rectángulo 355113" width="67.6" height="67.565" transform="translate(0 0)" fill="none"/>
    </clipPath>
  </defs>
  <g id="Grupo_1054042" data-name="Grupo 1054042" transform="translate(-890.333 -114)">
    <g transform="matrix(1, 0, 0, 1, 890.33, 114)" filter="url(#Trazado_113938)">
      <path id="Trazado_113938-2" data-name="Trazado 113938" d="M40,0A40,40,0,1,1,10.363,13.136,40,40,0,0,1,40,0Z" transform="translate(60 60)" fill="#ea526f"/>
    </g>
    <g id="Grupo_1042261" data-name="Grupo 1042261" transform="translate(950.333 180.217)">
      <g id="Grupo_1042261-2" data-name="Grupo 1042261" clip-path="url(#clip-path)">
        <path id="Trazado_769158" data-name="Trazado 769158" d="M63.1,58.327C57.391,61.043,44.233,54.85,35.982,41.37S26.5,13.623,33.221,9.506L19.346,17.523C12.62,21.639,13.855,35.9,22.107,49.386S42.741,68.64,48.564,67.4Z" fill="#f93"/>
        <path id="Trazado_769159" data-name="Trazado 769159" d="M63.1,58.328c-5.708,2.716-18.866-3.477-27.117-16.957s-9.487-27.748-2.76-31.864,18.867,3.475,27.117,16.957,9.881,28.475,2.76,31.864m-5.477-30.2C52.008,18.956,43.9,13.7,39.512,16.383s-3.4,12.3,2.216,21.47S55.45,52.282,59.838,49.6s3.4-12.3-2.217-21.47" fill="#fc6"/>
        <path id="Trazado_769160" data-name="Trazado 769160" d="M59.838,49.6c4.389-2.686,3.4-12.3-2.217-21.47S43.9,13.7,39.512,16.382c-1.639,1-2.526,2.973-2.7,5.525-.009.343-.015.6-.017.728,3.816,1.82,8.069,5.891,11.431,11.384,3.324,5.432,5.012,11.006,4.938,15.217,2.556,1.218,4.918,1.437,6.678.36" fill="#f93"/>
        <path id="Trazado_769161" data-name="Trazado 769161" d="M58.333,27.7c6.105,9.965,7.029,20.544,2.063,23.58a5.444,5.444,0,0,1-1.271.569c-5.176,1.569-13.263-4.077-18.809-13.134a34.523,34.523,0,0,1-5.194-14.332c-.409-4.482.7-7.767,3.13-9.25a5.379,5.379,0,0,1,1.271-.567C44.7,13,52.785,18.645,58.333,27.7M60.19,50.947C64.979,48.019,64,37.68,58.009,27.9c-5.456-8.907-13.352-14.478-18.364-12.958a5.173,5.173,0,0,0-1.187.529c-2.3,1.407-3.349,4.564-2.955,8.891a34.134,34.134,0,0,0,5.136,14.158C46.1,47.426,53.99,53,59,51.477a5.121,5.121,0,0,0,1.186-.53" fill="#f93"/>
        <path id="Trazado_769162" data-name="Trazado 769162" d="M59.144,27.206a39.04,39.04,0,0,1,5.882,16.306c.448,5.094-.831,8.833-3.6,10.528a6.226,6.226,0,0,1-1.45.649c-5.912,1.8-15.123-4.6-21.427-14.889a39.058,39.058,0,0,1-5.882-16.307c-.449-5.094.831-8.834,3.6-10.528a6.278,6.278,0,0,1,1.451-.65c5.91-1.8,15.122,4.6,21.426,14.891m.71,27.11a5.963,5.963,0,0,0,1.364-.612c2.643-1.617,3.859-5.227,3.424-10.169A38.646,38.646,0,0,0,58.818,27.4c-6.212-10.142-15.231-16.468-20.98-14.715a5.909,5.909,0,0,0-1.365.612c-2.643,1.616-3.86,5.226-3.424,10.168A38.636,38.636,0,0,0,38.873,39.6C45.085,49.743,54.1,56.068,59.854,54.316" fill="#f93"/>
        <path id="Trazado_769163" data-name="Trazado 769163" d="M59.981,26.7c3.753,6.127,6.1,12.613,6.6,18.264.511,5.7-.913,9.887-4.008,11.779a6.972,6.972,0,0,1-1.62.725c-6.6,2.008-16.911-5.174-23.975-16.706-3.752-6.126-6.1-12.612-6.6-18.264-.511-5.7.913-9.887,4.009-11.778a6.885,6.885,0,0,1,1.619-.726c6.6-2.008,16.911,5.174,23.974,16.706m2.366,29.667c2.951-1.8,4.3-5.845,3.809-11.377-.5-5.584-2.822-12-6.538-18.068C52.657,15.556,42.565,8.46,36.142,10.412a6.576,6.576,0,0,0-1.524.682c-2.951,1.805-4.305,5.845-3.809,11.378.5,5.583,2.82,12,6.538,18.067C44.306,51.9,54.4,59,60.822,57.048a6.664,6.664,0,0,0,1.525-.682" fill="#f93"/>
        <path id="Trazado_769164" data-name="Trazado 769164" d="M29.386,24.852a61.881,61.881,0,0,0-4.693-10.316l8.528-5.03c-3.915,2.4-5.128,8.231-3.835,15.346" fill="#f93"/>
        <path id="Trazado_769165" data-name="Trazado 769165" d="M15.318,31.713S12.973,22.74,8.469,17.489a35.957,35.957,0,0,0-6.654-5.7,3.465,3.465,0,0,1-.256-5.513l6.233-5.21a3.466,3.466,0,0,1,4.188-.2,46.206,46.206,0,0,1,8.946,8.206c5.371,6.368,8.457,15.781,8.457,15.781Z" fill="#f93"/>
        <path id="Trazado_769166" data-name="Trazado 769166" d="M1.246,6.345a3.468,3.468,0,0,0,.257,5.52,42.847,42.847,0,0,1,5.431,4.348L19.4,6.931A46.442,46.442,0,0,0,12.07.609a3.462,3.462,0,0,0-4.181.2Z" fill="#6cc"/>
        <path id="Trazado_769167" data-name="Trazado 769167" d="M17.61,11.936l-.5-.663,3.6-2.255.5.663ZM24.5,14.78l-.44-.7-3.6,2.254.439.7Zm2.735,5.448-.341-.764-3.6,2.255.342.763Zm2.045,5.881-.3-.79-3.6,2.254.3.79Zm1.688,6.105-.349-.759-3.6,2.255.349.758Zm2.571,5.55-.372-.744-3.6,2.254.372.745ZM36.613,43l-.44-.7-3.6,2.256.44.7Zm3.763,4.8-.551-.632-3.6,2.254.551.632Zm4.156,4.558-.572-.619L40.364,54l.573.618Zm4.88,3.615-.72-.527L45.1,57.7l.719.527Zm-.366,4.032.889.421,3.6-2.254-.888-.421Zm3.623,1.351.848.2,3.6-2.255-.847-.2Zm2.669.677,1.09-.109,3.6-2.254-1.089.109Z" fill="#333"/>
        <path id="Trazado_769168" data-name="Trazado 769168" d="M15.312,15.225c-1.35.846-2.431.814-3.043-.163S12.1,13.1,13.451,12.257s2.424-.809,3.033.162.183,1.957-1.172,2.806M14,13.132c-1.1.689-1.352,1.107-1.089,1.527s.737.39,1.852-.31,1.349-1.112,1.085-1.531-.751-.373-1.848.314" fill="#930"/>
        <path id="Trazado_769169" data-name="Trazado 769169" d="M18.162,25.1l3.2-2.007-1.1-.545.342-.732,1.651.835.47.749-4.041,2.535Z" fill="#930"/>
        <path id="Trazado_769170" data-name="Trazado 769170" d="M25.652,36.673c-.655.411-1.324.337-3.141-.269l.864,1.822-.71.313-1.308-2.764.618-.388c2.075.613,2.616.733,3.157.393a.7.7,0,0,0,.276-.942.96.96,0,0,0-.815-.541l.144-.809a1.709,1.709,0,0,1,1.372,1.02,1.612,1.612,0,0,1-.457,2.165" fill="#930"/>
        <path id="Trazado_769171" data-name="Trazado 769171" d="M31.318,47.631a1.131,1.131,0,0,1-1.45-.193,1.115,1.115,0,0,1-.415,1.547,1.554,1.554,0,0,1-2.186-.727,1.95,1.95,0,0,1-.241-1.719l.752.188A1.227,1.227,0,0,0,27.9,47.8a.72.72,0,0,0,1.061.28c.449-.282.453-.636.175-1.079l-.207-.33.664-.274.139.222a.652.652,0,0,0,.957.26.588.588,0,0,0,.141-.882,1.3,1.3,0,0,0-.848-.578l.194-.716a2.159,2.159,0,0,1,1.347.976c.537.858.361,1.6-.2,1.956" fill="#930"/>
        <path id="Trazado_769172" data-name="Trazado 769172" d="M37.418,58.778l-.9.565-.706-.71.9-.571L35.248,56.6l.575-.361,3.656-.67.347.784-3.177.6.718.72,1.069-.545.626.627-.994.622.406.407-.652.407Z" fill="#930"/>
        <path id="Trazado_769173" data-name="Trazado 769173" d="M47.41,61.973l-.888.566a2.435,2.435,0,0,1,.7.09c.623.189.66.608-.073,1.088a3.956,3.956,0,0,1-2.877.455c-.614-.142-.8-.389-.78-.684l.944-.16c-.034.209.089.357.431.441a1.835,1.835,0,0,0,1.416-.282c.485-.314.409-.5.069-.593a1.9,1.9,0,0,0-.622-.05l-.574-.162,2.124-1.336,2.121.74-.643.33Z" fill="#930"/>
        <path id="Trazado_769174" data-name="Trazado 769174" d="M53.553,64.288c.042-.12-.036-.191-.231-.2a2.667,2.667,0,0,0-1,.235,4.013,4.013,0,0,1,1.745-.73c.133.011.186.058.2.129l.647-.281.032-.02c.007-.106-.075-.187-.284-.213a7.219,7.219,0,0,0-3.388,1.38c-1.233.772-1.724,1.283-.886,1.245a3.972,3.972,0,0,0,1.088-.246ZM51.007,65.44c-.334.009-.11-.211.751-.761a2.529,2.529,0,0,1,.83-.225c.221.006.174.124-.353.461a2.9,2.9,0,0,1-1.228.525" fill="#930"/>
      </g>
    </g>
  </g>
</svg>
