<svg xmlns="http://www.w3.org/2000/svg" width="100" height="100" viewBox="0 0 100 100">
  <g id="c1" transform="translate(-344 -2648)">
    <rect id="Rectángulo_33840" data-name="Rectángulo 33840" width="100" height="100" transform="translate(344 2648)" fill="#e8e8e8"/>
    <g id="Grupo_1047317" data-name="Grupo 1047317" transform="translate(0 455)">
      <g id="observacion_2_" data-name="observacion (2)" transform="translate(367 2214)">
        <path id="Trazado_778988" data-name="Trazado 778988" d="M50.29,23A13.29,13.29,0,1,0,63.58,36.29,13.306,13.306,0,0,0,50.29,23Z" transform="translate(-10.29 -10.29)" fill="none" stroke="#9b1f36" stroke-width="1.5"/>
        <path id="Trazado_778990" data-name="Trazado 778990" d="M61.671,41.258l-6.89-6.891A16.974,16.974,0,0,0,43.423,9.346,11.994,11.994,0,0,0,32,1a5.983,5.983,0,0,0-4.46,2H18.215A14.165,14.165,0,0,0,5.354,23.209,6,6,0,0,0,10,33h.16a14.027,14.027,0,0,0,8.281,10.843l-.319,2.233-7.9.718A10.139,10.139,0,0,0,1,56.891V63H47V56.891a10.139,10.139,0,0,0-9.221-10.1l-7.9-.718-.32-2.241a13.979,13.979,0,0,0,3.6-2.283,16.878,16.878,0,0,0,15.205-.771l6.89,6.891a4.535,4.535,0,1,0,6.414-6.414ZM32,3a10,10,0,0,1,9.189,6.06C40.794,9.033,40.4,9,40,9a17.012,17.012,0,0,0-2.425.193A5.985,5.985,0,0,0,38,7V6H36V7a4,4,0,0,1-1.174,2.811A16.945,16.945,0,0,0,32.018,11H32a4,4,0,1,1,0-8ZM18.215,5H26.35a5.977,5.977,0,0,0,3.32,7.529,17.1,17.1,0,0,0-3.577,3.723,16.817,16.817,0,0,1-1.469-1.033l-.624-.5-.625.5A17.314,17.314,0,0,1,12.6,19H10v2a5.952,5.952,0,0,0-3.069.854A12.183,12.183,0,0,1,18.215,5ZM6,27a4,4,0,0,1,4-4v8A4,4,0,0,1,6,27ZM37.6,48.786a8.137,8.137,0,0,1,7.4,8.1V61H39V55H37v6H11V55H9v6H3V56.891a8.137,8.137,0,0,1,7.4-8.1l8.166-.743L24,54.563l5.433-6.519ZM27.947,46.7,24,51.438,20.053,46.7l.314-2.2A13.923,13.923,0,0,0,24,45,4,4,0,0,1,27.947,46.7ZM24,43A12.013,12.013,0,0,1,12,31V21h.6A19.335,19.335,0,0,0,24,17.259c.33.241.675.472,1.029.7A16.889,16.889,0,0,0,23,26a14.416,14.416,0,0,0,2.03,7.62,24.3,24.3,0,0,0,6.215,6.925A11.909,11.909,0,0,1,24,43Zm1-17A15,15,0,1,1,40,41,15.017,15.017,0,0,1,25,26ZM58.464,47a2.521,2.521,0,0,1-1.793-.742l-6.6-6.6a17.122,17.122,0,0,0,3.586-3.586l6.6,6.6A2.535,2.535,0,0,1,58.464,47Z" fill="#9b1f36"/>
      </g>
      <g id="Grupo_1047316" data-name="Grupo 1047316" transform="translate(400.419 2232.453)">
        <g id="A">
          <g id="Grupo_1047312" data-name="Grupo 1047312">
            <path id="Trazado_778976" data-name="Trazado 778976" d="M23.56,20.624,19.23,7.936a1.224,1.224,0,0,0-1.159-.829H16.078a1.225,1.225,0,0,0-1.16.831L10.572,20.73a1.225,1.225,0,0,0,1.16,1.619H13.44a1.223,1.223,0,0,0,1.163-.841l1.051-3.183h2.774l1.084,3.193a1.224,1.224,0,0,0,1.16.831h1.771a1.226,1.226,0,0,0,1.225-1.225,1.19,1.19,0,0,0-.108-.5Zm-1.117.807H20.671a.306.306,0,0,1-.29-.208l-1.19-3.5a.459.459,0,0,0-.435-.312H15.322a.458.458,0,0,0-.436.315l-1.155,3.5a.306.306,0,0,1-.291.21H11.731a.306.306,0,0,1-.29-.4L15.788,8.233a.306.306,0,0,1,.29-.208h1.993a.306.306,0,0,1,.29.207l4.335,12.7a.46.46,0,0,0,.022.054.3.3,0,0,1,.031.134A.307.307,0,0,1,22.443,21.431Z" transform="translate(-10.507 -7.107)" fill="#9b1f36" stroke="#9b1f36" stroke-width="0.3"/>
            <path id="Trazado_778977" data-name="Trazado 778977" d="M29.279,23.58a.459.459,0,0,0-.87,0l-.856,2.53a.459.459,0,0,0,.435.606H29.7a.459.459,0,0,0,.435-.607ZM28.628,25.8l.217-.642.218.642Z" transform="translate(-22.317 -18.321)" fill="#9b1f36" stroke="#9b1f36" stroke-width="0.3"/>
          </g>
        </g>
      </g>
    </g>
  </g>
</svg>
