<svg xmlns="http://www.w3.org/2000/svg" width="100" height="100" viewBox="0 0 100 100">
  <g id="c2" transform="translate(-344 -2778)">
    <rect id="Rectángulo_33841" data-name="Rectángulo 33841" width="100" height="100" transform="translate(344 2778)" fill="#e8e8e8"/>
    <g id="marketing_1_" data-name="marketing (1)" transform="translate(366.5 2800.5)">
      <path id="Trazado_778978" data-name="Trazado 778978" d="M53.863,41.806H39.952V20.277a10.171,10.171,0,0,0,.98-.569l3.317,4.146A8.466,8.466,0,1,0,45.7,22.7l-3.325-4.156a10.169,10.169,0,0,0,3.092-6.417h3.183l1.855,3.71h7.638L55.827,11.2l2.319-4.637H50.507l-1.855,3.71H45.47a10.189,10.189,0,0,0-16.688-6.9A2.779,2.779,0,0,0,26.04,1H14.911A2.778,2.778,0,0,0,12.3,2.855H5.637A4.642,4.642,0,0,0,1,7.492V53.863A4.642,4.642,0,0,0,5.637,58.5H35.315a4.642,4.642,0,0,0,4.637-4.637V51.081H53.863a4.637,4.637,0,0,0,0-9.274ZM56.645,29.75a6.492,6.492,0,1,1-6.492-6.492A6.5,6.5,0,0,1,56.645,29.75ZM51.654,13.984l-.927-1.855h3.491l.927,1.855Zm0-5.565h3.491l-.927,1.855H50.726Zm-39.354,0a2.778,2.778,0,0,0,2.612,1.855H25.16c-.028.306-.047.614-.047.927a10.166,10.166,0,0,0,3.317,7.507l-1.414,1.856a12.166,12.166,0,1,0,1.471,1.129L29.9,19.834a10.116,10.116,0,0,0,4.484,1.522V41.806H29.581l-6.708,2.516a2.266,2.266,0,0,0,0,4.243l6.708,2.515h4.806v1.855H6.565V8.419Zm12.813,26.9H23.258V27.9h1.855Zm-3.71,0H19.548V26.04H21.4Zm-3.71,0H15.839V31.6h1.855Zm10.646,1.855a10.189,10.189,0,0,1-15.727,0Zm1.212-1.855H26.968V26.04h-3.71V24.185H17.694V29.75h-3.71v5.565H11.4a10.2,10.2,0,1,1,18.151,0ZM23.525,46.829a.412.412,0,0,1,0-.771l5.3-1.987v4.743Zm7.152,2.4V47.371H49.226v1.855Zm18.548-3.71H30.677V43.661H49.226ZM38.1,41.806H36.242V21.356a10.036,10.036,0,0,0,1.855-.349ZM35.315,2.855a8.356,8.356,0,0,1,8.292,7.419H39.858a4.637,4.637,0,1,0,0,1.855h3.749a8.345,8.345,0,1,1-8.292-9.274Zm2.612,9.274a2.782,2.782,0,1,1,0-1.855H34.387v1.855ZM13.984,3.782a.928.928,0,0,1,.927-.927H26.04a.928.928,0,0,1,.927.927V5.354a10.144,10.144,0,0,0-1.458,3.06l-10.6,0a.928.928,0,0,1-.927-.927ZM38.1,53.863a2.786,2.786,0,0,1-2.782,2.782H5.637a2.786,2.786,0,0,1-2.782-2.782V7.492A2.786,2.786,0,0,1,5.637,4.71h6.492V6.565H6.565A1.857,1.857,0,0,0,4.71,8.419V52.935A1.857,1.857,0,0,0,6.565,54.79H34.387a1.857,1.857,0,0,0,1.855-1.855V51.081H38.1Zm15.766-4.637H51.081V43.661h2.782a2.782,2.782,0,0,1,0,5.565Z" transform="translate(0 0)" fill="#9b1f36"/>
      <path id="Trazado_778979" data-name="Trazado 778979" d="M49,33.846a2.429,2.429,0,0,0,3.514,2.172l4.419-2.209a2.429,2.429,0,0,0,0-4.344l-4.418-2.209A2.429,2.429,0,0,0,49,29.428Zm1.855-4.418a.574.574,0,0,1,.573-.573.568.568,0,0,1,.256.06L56.1,31.124a.573.573,0,0,1,0,1.026l-4.418,2.209a.589.589,0,0,1-.829-.513Z" transform="translate(-3.484 -1.887)" fill="#9b1f36"/>
      <path id="Trazado_778980" data-name="Trazado 778980" d="M9,49H20.129v1.855H9Z" transform="translate(-0.581 -3.484)" fill="#9b1f36"/>
      <path id="Trazado_778981" data-name="Trazado 778981" d="M9,53H20.129v1.855H9Z" transform="translate(-0.581 -3.774)" fill="#9b1f36"/>
      <path id="Trazado_778982" data-name="Trazado 778982" d="M9,13h1.855v1.855H9Z" transform="translate(-0.581 -0.871)" fill="#9b1f36"/>
      <path id="Trazado_778983" data-name="Trazado 778983" d="M13,13H24.129v1.855H13Z" transform="translate(-0.871 -0.871)" fill="#9b1f36"/>
      <path id="Trazado_778984" data-name="Trazado 778984" d="M9,17h1.855v1.855H9Z" transform="translate(-0.581 -1.161)" fill="#9b1f36"/>
      <path id="Trazado_778985" data-name="Trazado 778985" d="M13,17H24.129v1.855H13Z" transform="translate(-0.871 -1.161)" fill="#9b1f36"/>
    </g>
  </g>
</svg>
