<svg xmlns="http://www.w3.org/2000/svg" width="100" height="100" viewBox="0 0 100 100">
  <g id="c3" transform="translate(-344 -2908)">
    <rect id="Rectángulo_33842" data-name="Rectángulo 33842" width="100" height="100" transform="translate(344 2908)" fill="#e8e8e8"/>
    <g id="auditor" transform="translate(369.589 2935.336)" opacity="0.9">
      <path id="Trazado_778702" data-name="Trazado 778702" d="M1.777,53.308H39.091a1.77,1.77,0,0,0,.747-.17,3.5,3.5,0,0,0,4.583-3.384V37.316a1.771,1.771,0,0,0-.888-1.53V33.468A12.434,12.434,0,1,0,34.8,10.475,15.1,15.1,0,0,0,5.331,15.105V29.32c0,3.44-1.8,5.376-3.341,5.985a1.711,1.711,0,0,0-1.08,1.342,1.808,1.808,0,0,0,.649,1.681,17.08,17.08,0,0,0,2.239,1.5A10.637,10.637,0,0,0,0,47.977v3.554A1.777,1.777,0,0,0,1.777,53.308ZM17.5,51.531,14.935,44.69a1.785,1.785,0,0,0-1.664-1.155H10.232l2.005-4.682,2.347-1.173L19.2,51.531ZM7.974,16.076a2.017,2.017,0,0,1,.882,1.445,1.333,1.333,0,0,0,1.505,1.066c1.85-.285,8.066-1.581,10.389-6.277a.922.922,0,0,1,1.053-.444c1.883.464,6.274,1.777,7.837,4.145a12.286,12.286,0,0,0-.051,10.527,9.83,9.83,0,0,1-3.046,4.4l-3.5,2.8a4.282,4.282,0,0,1-5.215,0l-3.5-2.8a10.157,10.157,0,0,1-3.643-7.157,1.777,1.777,0,0,0-1.376-1.634,2.209,2.209,0,0,1-1.445-.966c-.755-1.235-.755-1.935-.755-4.538a.585.585,0,0,1,.866-.567Zm24.3,26.761-1.591-3.715a8.884,8.884,0,0,1,6.637,3.554v7.079a3.517,3.517,0,0,0,.494,1.777H25.269L27.6,45.312h3.038a1.777,1.777,0,0,0,1.633-2.476Zm5.934-7.05a1.771,1.771,0,0,0-.888,1.53v2.729a10.736,10.736,0,0,0-1.777-1.277V32.55a12.313,12.313,0,0,0,2.665.922ZM33.76,37.938a10.62,10.62,0,0,0-3.554-.622h-.679l-2.875-1.437V33.125l1-.8a11.408,11.408,0,0,0,3.058-3.847,12.522,12.522,0,0,0,3.051,3.039ZM16.715,35.122a5.947,5.947,0,0,0,7.436,0l.725-.578v1.741L20.434,49.611,15.992,36.285V34.543Zm4.952,16.409,4.62-13.851,2.347,1.173,2,4.682H27.6a1.784,1.784,0,0,0-1.664,1.155l-2.561,6.841Zm20.978-1.777a1.777,1.777,0,1,1-3.554,0V37.316h3.554Zm-.888-14.215H39.98V33.717c.295.021.588.045.888.045s.593-.024.888-.045Zm9.773-14.215A10.661,10.661,0,1,1,40.868,10.663,10.661,10.661,0,0,1,51.529,21.324ZM20.434,1.779A13.263,13.263,0,0,1,33.256,11.51a12.513,12.513,0,0,0-2.665,2.824c-2.072-2.34-5.994-3.613-8.365-4.2a2.684,2.684,0,0,0-3.065,1.386c-1.8,3.643-6.655,4.878-8.65,5.242a3.6,3.6,0,0,0-1.627-2.211,2.229,2.229,0,0,0-1.739-.267A13.332,13.332,0,0,1,20.434,1.779ZM2.637,36.961c2.062-.817,4.471-3.309,4.471-7.641V22.969a4.306,4.306,0,0,0,1.805.932,11.97,11.97,0,0,0,4.3,8.425l1,.8V35.88L11.34,37.316h-.679a10.58,10.58,0,0,0-5.211,1.37,17.532,17.532,0,0,1-2.814-1.725Zm-.86,11.017a8.884,8.884,0,0,1,8.415-8.86L8.6,42.835a1.777,1.777,0,0,0,1.633,2.477h3.038L15.6,51.531H1.777Z" transform="translate(0 0)" fill="#9b1f36"/>
      <path id="Trazado_778703" data-name="Trazado 778703" d="M44.885,31.769a8.884,8.884,0,0,0,0-17.769.888.888,0,0,0,0,1.777,7.115,7.115,0,1,1-3.947,1.2.889.889,0,1,0-.99-1.477,8.884,8.884,0,0,0,4.937,16.268Z" transform="translate(-4.017 -1.56)" fill="#9b1f36"/>
      <path id="Trazado_778704" data-name="Trazado 778704" d="M42.888,21.665a.888.888,0,0,0,.628-.26l.889-.889a.888.888,0,1,0-1.256-1.256l-.888.889a.888.888,0,0,0,.628,1.517Z" transform="translate(-4.686 -2.118)" fill="#9b1f36"/>
      <path id="Trazado_778705" data-name="Trazado 778705" d="M43.26,26.847a.888.888,0,0,0,1.256,0l5.331-5.331a.888.888,0,1,0-1.256-1.256L43.26,25.591A.888.888,0,0,0,43.26,26.847Z" transform="translate(-4.797 -2.229)" fill="#9b1f36"/>
    </g>
  </g>
</svg>
