<svg xmlns="http://www.w3.org/2000/svg" width="100" height="100" viewBox="0 0 100 100">
  <g id="c4" transform="translate(-344 -3038)">
    <rect id="Rectángulo_33843" data-name="Rectángulo 33843" width="100" height="100" transform="translate(344 3038)" fill="#e8e8e8"/>
    <g id="Sequence" transform="translate(367 3061)">
      <path id="Trazado_778991" data-name="Trazado 778991" d="M54.615,7.911C49.761,3.057,49.876,3,49.223,3H40.066a1.145,1.145,0,0,0-1.145,1.145v8.013H35.487c0-3.732.1-3.8-.332-4.247C30.3,3.057,30.415,3,29.763,3H20.605A1.145,1.145,0,0,0,19.46,4.145v8.013H16.026c0-3.732.1-3.8-.332-4.247C10.841,3.057,10.955,3,10.3,3H1.145A1.145,1.145,0,0,0,0,4.145V22.46a1.145,1.145,0,0,0,1.145,1.145H6.868V37.342A3.434,3.434,0,0,0,10.3,40.776h3.434a1.145,1.145,0,1,0,0-2.289H10.3a1.145,1.145,0,0,1-1.145-1.145V23.605h5.724a1.145,1.145,0,0,0,1.145-1.145V14.447H19.46V22.46a1.145,1.145,0,0,0,1.145,1.145H34.342a1.145,1.145,0,0,0,1.145-1.145V14.447h3.434V22.46a1.145,1.145,0,0,0,1.145,1.145h5.724V37.342a1.145,1.145,0,0,1-1.145,1.145H41.21a1.145,1.145,0,0,0,0,2.289h3.434a3.434,3.434,0,0,0,3.434-3.434V23.605H53.8a1.145,1.145,0,0,0,1.145-1.145C54.947,7.854,55.1,8.392,54.615,7.911Zm-40.878,13.4H2.289V5.289H9.833l3.9,3.9Zm19.46,0H21.75V5.289h7.544l3.9,3.9Zm19.46,0H41.21V5.289h7.544l3.9,3.9Z" transform="translate(0 0)" fill="#9b1f36"/>
      <path id="Trazado_778992" data-name="Trazado 778992" d="M37.125,33.7l-3.434-5.953a1.145,1.145,0,0,0-1.568-.458c-1.294.744-.538.641-2.049-.114v-1.03A1.145,1.145,0,0,0,28.929,25H22.06a1.145,1.145,0,0,0-1.145,1.145c0,1.488.275.8-1.145,1.729l-.9-.584A1.145,1.145,0,0,0,17.3,27.7l-3.434,5.953a1.145,1.145,0,0,0,.424,1.648c1.145.675.9.355.9,1.145s.252.515-.9,1.145a1.145,1.145,0,0,0-.424,1.557L17.3,45.1a1.145,1.145,0,0,0,1.568.412l.927-.538c1.4.927,1.145.24,1.145,1.729a1.145,1.145,0,0,0,1.145,1.145h6.868A1.145,1.145,0,0,0,30.1,46.7V45.628c1.511-.756.756-.859,2.049-.114a1.145,1.145,0,0,0,1.568-.412l3.434-5.953a1.145,1.145,0,0,0-.446-1.557l-.9-.492c.126-1.683-.378-1.076.927-1.843A1.145,1.145,0,0,0,37.125,33.7Zm-3.617,2.747c0,1.694-.515,1.683,1.065,2.6l-2.289,3.961c-.492-.275-1.145-.8-1.866-.252-2.129,1.706-2.633.653-2.633,2.85H23.205c0-.549.126-1.4-.71-1.729-2.45-1-1.889-1.969-3.789-.87l-2.289-3.961c.481-.275,1.271-.584,1.145-1.488-.366-2.679.756-2.61-1.145-3.709l2.289-3.961c1.923,1.145,1.225.172,3.789-.87a1.145,1.145,0,0,0,.71-1.053v-.675h4.579c0,2.186.458,1.145,2.633,2.85.7.538,1.339,0,1.866-.252l2.289,3.961C32.981,34.765,33.508,34.753,33.508,36.447Z" transform="translate(1.979 3.184)" fill="#9b1f36"/>
      <path id="Trazado_778993" data-name="Trazado 778993" d="M24.724,30a5.724,5.724,0,1,0,5.724,5.724A5.724,5.724,0,0,0,24.724,30Zm0,9.158a3.434,3.434,0,1,1,3.434-3.434A3.434,3.434,0,0,1,24.724,39.158Z" transform="translate(2.75 3.908)" fill="#9b1f36"/>
      <path id="Trazado_778994" data-name="Trazado 778994" d="M39.145,9a1.145,1.145,0,1,0,0,2.289c2.827,0,3.434-.172,3.434.572a.572.572,0,0,1-.572.572h-.572a1.145,1.145,0,0,0,0,2.289h.572a.572.572,0,0,1,0,1.145H39.145a1.145,1.145,0,0,0,0,2.289h2.862A2.862,2.862,0,0,0,44.3,13.579,2.862,2.862,0,0,0,42.007,9Z" transform="translate(5.5 0.868)" fill="#9b1f36"/>
      <path id="Trazado_778995" data-name="Trazado 778995" d="M7.434,9H5.145a1.145,1.145,0,1,0,0,2.289H6.289v5.724a1.145,1.145,0,1,0,2.289,0V10.145A1.145,1.145,0,0,0,7.434,9Z" transform="translate(0.579 0.868)" fill="#9b1f36"/>
      <path id="Trazado_778996" data-name="Trazado 778996" d="M27.869,11.759A2.759,2.759,0,0,0,25.11,9H22.146a1.145,1.145,0,1,0,0,2.289c4.819,0,4.659-.549-.813,4.911a1.145,1.145,0,0,0,.813,1.957h4.579a1.145,1.145,0,0,0,0-2.289H24.9C26.942,13.831,27.869,13.247,27.869,11.759Z" transform="translate(3.038 0.868)" fill="#9b1f36"/>
    </g>
  </g>
</svg>
