<svg xmlns="http://www.w3.org/2000/svg" width="100" height="100" viewBox="0 0 100 100">
  <g id="c5" transform="translate(-344 -3168)">
    <rect id="Rectángulo_33844" data-name="Rectángulo 33844" width="100" height="100" transform="translate(344 3168)" fill="#e8e8e8"/>
    <g id="leyendo_1_" data-name="leyendo (1)" transform="translate(299.929 3187.085)">
      <g id="Grupo_1047318" data-name="Grupo 1047318" transform="translate(72.296)">
        <path id="Trazado_778997" data-name="Trazado 778997" d="M113.7,41.4V34.877l-2.754,1.071-.008-.018-.066-.119a7.088,7.088,0,0,0-4.684-3.134l-6.626-1.206v-.523a10.116,10.116,0,0,0,4.858-6.8,4.046,4.046,0,0,0,3.22-3.955V10.222a6.333,6.333,0,0,0-4.524-6.076l-.5-.5a12.434,12.434,0,0,0-21.226,8.792V20.2a4.046,4.046,0,0,0,3.22,3.955,10.117,10.117,0,0,0,4.858,6.8v.523l-6.625,1.2a7.091,7.091,0,0,0-4.682,3.131l-.061.147-2.77-1.077V41.4A3.033,3.033,0,0,0,72.3,44.432v4.039A3.033,3.033,0,0,0,75.325,51.5v3.72l19.187,7.463L113.7,55.221V51.5a3.033,3.033,0,0,0,3.029-3.029V44.432A3.033,3.033,0,0,0,113.7,41.4Zm-12.245-7.534,4.373.795a5.059,5.059,0,0,1,3.188,2.036l-9.77,3.8Zm-9.885-1.994a10.06,10.06,0,0,0,5.887,0l-2.944,2.207Zm1.407,3.579-2.061,2.06L89.577,33.5l.643-.116ZM98.8,33.388l.643.116-1.337,4.01-2.061-2.06Zm5.806-11.452V18.457a2,2,0,0,1,0,3.478Zm-20.2,0a2,2,0,0,1,0-3.478Zm0-6.788V16.3a4.005,4.005,0,0,0-1.01.418V12.434A10.414,10.414,0,0,1,101.183,5.07l.891.892.272.067a4.316,4.316,0,0,1,3.275,4.194v6.5a3.969,3.969,0,0,0-1.01-.418V15.147h-3.2a8.783,8.783,0,0,1-6.993-3.495l-.8-1.072-2.007,2.008a8.688,8.688,0,0,1-6.182,2.56Zm2.02,7.069v-5.1a10.688,10.688,0,0,0,6.6-3.105l.393-.393a10.817,10.817,0,0,0,7.982,3.544h1.182v5.049a8.079,8.079,0,0,1-16.157,0ZM83.2,34.663l4.373-.795L89.78,40.5l-9.772-3.8A5.058,5.058,0,0,1,83.2,34.663ZM74.316,48.471V44.432a1.011,1.011,0,0,1,1.01-1.01,3.029,3.029,0,1,1,0,6.059A1.011,1.011,0,0,1,74.316,48.471ZM93.5,60.123,77.345,53.84V51.073a5.039,5.039,0,0,0,0-9.242v-4L93.5,44.113Zm-3-19.342,4.008-4.009,4.008,4.008-4.008,1.559Zm21.175,13.059L95.522,60.122V44.113l16.157-6.283v4a5.039,5.039,0,0,0,0,9.242Zm3.029-5.368a1.011,1.011,0,0,1-1.01,1.01,3.029,3.029,0,1,1,0-6.059,1.011,1.011,0,0,1,1.01,1.01Z" transform="translate(-72.296)" fill="#9b1f36"/>
      </g>
    </g>
  </g>
</svg>
