<svg xmlns="http://www.w3.org/2000/svg" width="100" height="100" viewBox="0 0 100 100">
  <g id="c7" transform="translate(-344 -3429)">
    <rect id="Rectángulo_357317" data-name="Rectángulo 357317" width="100" height="100" transform="translate(344 3429)" fill="#e8e8e8"/>
    <g id="_04-Schedule" data-name="04-Schedule" transform="translate(363 3448)">
      <path id="Trazado_778998" data-name="Trazado 778998" d="M25.575,21.442a.977.977,0,0,0-.982-.972H18.7a.977.977,0,0,0-.982.972v5.833a.977.977,0,0,0,.982.972h5.894a.977.977,0,0,0,.982-.972ZM23.61,26.3H19.681V22.414H23.61Zm4.911-5.833a.977.977,0,0,0-.982.972v5.833a.977.977,0,0,0,.982.972h5.894a.977.977,0,0,0,.982-.972V21.442a.977.977,0,0,0-.982-.972ZM33.433,26.3H29.5V22.414h3.929ZM15.752,31.163a.977.977,0,0,0-.982-.972H8.876a.977.977,0,0,0-.982.972V37a.977.977,0,0,0,.982.972H14.77A.977.977,0,0,0,15.752,37Zm-1.965,4.861H9.858V32.135h3.929Zm11.787-4.861a.977.977,0,0,0-.982-.972H18.7a.977.977,0,0,0-.982.972V37a.977.977,0,0,0,.982.972h5.894A.977.977,0,0,0,25.575,37ZM23.61,36.024H19.681V32.135H23.61Zm-8.84,3.888H8.876a.977.977,0,0,0-.982.972v5.833a.977.977,0,0,0,.982.972H14.77a.977.977,0,0,0,.982-.972V40.884a.977.977,0,0,0-.982-.972Zm-.982,5.833H9.858V41.856h3.929Zm10.805-5.833H18.7a.977.977,0,0,0-.982.972v5.833a.977.977,0,0,0,.982.972h5.894a.977.977,0,0,0,.982-.972V40.884a.977.977,0,0,0-.982-.972Zm-.982,5.833H19.681V41.856H23.61Zm20.628-18.47A16.527,16.527,0,1,0,60.937,43.8a16.613,16.613,0,0,0-16.7-16.526Zm0,31.107A14.582,14.582,0,1,1,58.972,43.8,14.658,14.658,0,0,1,44.238,58.382Zm-17.681-6.8H6.911a2.935,2.935,0,0,1-2.947-2.916V16.582H49.149V25.33a.982.982,0,0,0,1.965,0V11.721A4.892,4.892,0,0,0,46.2,6.861H43.256V4.916a2.947,2.947,0,0,0-5.894,0V6.861H29.5V4.916a2.947,2.947,0,0,0-5.894,0V6.861H15.752V4.916a2.947,2.947,0,0,0-5.894,0V6.861H6.911A4.892,4.892,0,0,0,2,11.721v36.94a4.892,4.892,0,0,0,4.911,4.861H26.557a.972.972,0,1,0,0-1.944ZM39.326,4.916a.982.982,0,0,1,1.965,0V9.777a.982.982,0,0,1-1.965,0Zm-13.752,0a.982.982,0,0,1,1.965,0V9.777a.982.982,0,0,1-1.965,0Zm-13.752,0a.982.982,0,0,1,1.965,0V9.777a.982.982,0,0,1-1.965,0ZM6.911,8.8H9.858v.972a2.947,2.947,0,0,0,5.894,0V8.8H23.61v.972a2.947,2.947,0,0,0,5.894,0V8.8h7.858v.972a2.947,2.947,0,0,0,5.894,0V8.8H46.2a2.935,2.935,0,0,1,2.947,2.916v2.916H3.965V11.721A2.935,2.935,0,0,1,6.911,8.8ZM43.256,24.358V22.414H39.326v2.837a.982.982,0,0,1-1.965,0V21.442a.977.977,0,0,1,.982-.972h5.894a.977.977,0,0,1,.982.972v2.916a.982.982,0,0,1-1.965,0Zm.982,6.8A12.638,12.638,0,1,0,57.007,43.8a12.7,12.7,0,0,0-12.77-12.637Zm.982,23.281V52.549a.982.982,0,0,0-1.965,0v1.895a10.761,10.761,0,0,1-9.773-9.672H35.4a.972.972,0,1,0,0-1.944H33.483a10.761,10.761,0,0,1,9.773-9.672v1.895a.982.982,0,0,0,1.965,0V33.157a10.761,10.761,0,0,1,9.773,9.672H53.078a.972.972,0,1,0,0,1.944h1.915a10.761,10.761,0,0,1-9.773,9.672Zm2.659-8.415a.965.965,0,0,1,0,1.375.989.989,0,0,1-1.389,0l-2.947-2.916a.967.967,0,0,1-.288-.687V38.94a.982.982,0,0,1,1.965,0V43.4Z" fill="#9b1f36"/>
    </g>
  </g>
</svg>
